STARTFONT 2.1
FONT -windows-Dina-bold-r-normal--13-100-96-96-c-80-microsoft-cp1252
SIZE 10 96 96
FONTBOUNDINGBOX 8 16 0 -4
STARTPROPERTIES 16
FACE_NAME "Dina"
FAMILY_NAME "Dina"
WEIGHT_NAME "Bold"
SLANT "R"
PIXEL_SIZE 13
POINT_SIZE 100
RESOLUTION_X 96
RESOLUTION_Y 96
SPACING "C"
CHARSET_REGISTRY "ISO8859"
CHARSET_ENCODING "1"
FONT_ASCENT 12
FONT_DESCENT 4
CAP_HEIGHT 9
DEFAULT_CHAR 31
COPYRIGHT "Copyright 2013 Joergen Ibsen, MIT license, rev 222"
ENDPROPERTIES
CHARS 256
STARTCHAR 0
ENCODING 0
SWIDTH 600 0
DWIDTH 8 0
BBX 8 16 0 -4
BITMAP
D5
D5
00
C1
00
C1
C1
00
C1
00
C1
C1
00
C1
00
D5
ENDCHAR
STARTCHAR 1
ENCODING 1
SWIDTH 600 0
DWIDTH 8 0
BBX 8 16 0 -4
BITMAP
00
00
00
7E
42
42
42
42
42
42
7E
00
00
00
00
00
ENDCHAR
STARTCHAR 2
ENCODING 2
SWIDTH 600 0
DWIDTH 8 0
BBX 8 16 0 -4
BITMAP
00
00
00
7E
42
42
42
42
42
42
7E
00
00
00
00
00
ENDCHAR
STARTCHAR 3
ENCODING 3
SWIDTH 600 0
DWIDTH 8 0
BBX 8 16 0 -4
BITMAP
00
00
00
7E
42
42
42
42
42
42
7E
00
00
00
00
00
ENDCHAR
STARTCHAR 4
ENCODING 4
SWIDTH 600 0
DWIDTH 8 0
BBX 8 16 0 -4
BITMAP
00
00
00
7E
42
42
42
42
42
42
7E
00
00
00
00
00
ENDCHAR
STARTCHAR 5
ENCODING 5
SWIDTH 600 0
DWIDTH 8 0
BBX 8 16 0 -4
BITMAP
00
00
00
7E
42
42
42
42
42
42
7E
00
00
00
00
00
ENDCHAR
STARTCHAR 6
ENCODING 6
SWIDTH 600 0
DWIDTH 8 0
BBX 8 16 0 -4
BITMAP
00
00
00
7E
42
42
42
42
42
42
7E
00
00
00
00
00
ENDCHAR
STARTCHAR 7
ENCODING 7
SWIDTH 600 0
DWIDTH 8 0
BBX 8 16 0 -4
BITMAP
00
00
00
7E
42
42
42
42
42
42
7E
00
00
00
00
00
ENDCHAR
STARTCHAR 8
ENCODING 8
SWIDTH 600 0
DWIDTH 8 0
BBX 8 16 0 -4
BITMAP
00
00
00
7E
42
42
42
42
42
42
7E
00
00
00
00
00
ENDCHAR
STARTCHAR 9
ENCODING 9
SWIDTH 600 0
DWIDTH 8 0
BBX 8 16 0 -4
BITMAP
00
00
00
00
00
00
00
00
00
00
00
00
00
00
00
00
ENDCHAR
STARTCHAR 10
ENCODING 10
SWIDTH 600 0
DWIDTH 8 0
BBX 8 16 0 -4
BITMAP
00
00
00
7E
42
42
42
42
42
42
7E
00
00
00
00
00
ENDCHAR
STARTCHAR 11
ENCODING 11
SWIDTH 600 0
DWIDTH 8 0
BBX 8 16 0 -4
BITMAP
00
00
00
7E
42
42
42
42
42
42
7E
00
00
00
00
00
ENDCHAR
STARTCHAR 12
ENCODING 12
SWIDTH 600 0
DWIDTH 8 0
BBX 8 16 0 -4
BITMAP
00
00
00
7E
42
42
42
42
42
42
7E
00
00
00
00
00
ENDCHAR
STARTCHAR 13
ENCODING 13
SWIDTH 600 0
DWIDTH 8 0
BBX 8 16 0 -4
BITMAP
00
00
00
7E
42
42
42
42
42
42
7E
00
00
00
00
00
ENDCHAR
STARTCHAR 14
ENCODING 14
SWIDTH 600 0
DWIDTH 8 0
BBX 8 16 0 -4
BITMAP
18
18
18
18
18
18
18
F8
00
00
00
00
00
00
00
00
ENDCHAR
STARTCHAR 15
ENCODING 15
SWIDTH 600 0
DWIDTH 8 0
BBX 8 16 0 -4
BITMAP
18
18
18
18
18
18
18
1F
00
00
00
00
00
00
00
00
ENDCHAR
STARTCHAR 16
ENCODING 16
SWIDTH 600 0
DWIDTH 8 0
BBX 8 16 0 -4
BITMAP
00
00
00
00
00
00
00
1F
18
18
18
18
18
18
18
18
ENDCHAR
STARTCHAR 17
ENCODING 17
SWIDTH 600 0
DWIDTH 8 0
BBX 8 16 0 -4
BITMAP
00
00
00
00
00
00
00
F8
18
18
18
18
18
18
18
18
ENDCHAR
STARTCHAR 18
ENCODING 18
SWIDTH 600 0
DWIDTH 8 0
BBX 8 16 0 -4
BITMAP
00
00
00
00
00
00
00
FF
00
00
00
00
00
00
00
00
ENDCHAR
STARTCHAR 19
ENCODING 19
SWIDTH 600 0
DWIDTH 8 0
BBX 8 16 0 -4
BITMAP
18
18
18
18
18
18
18
18
18
18
18
18
18
18
18
18
ENDCHAR
STARTCHAR 20
ENCODING 20
SWIDTH 600 0
DWIDTH 8 0
BBX 8 16 0 -4
BITMAP
18
18
18
18
18
18
18
F8
18
18
18
18
18
18
18
18
ENDCHAR
STARTCHAR 21
ENCODING 21
SWIDTH 600 0
DWIDTH 8 0
BBX 8 16 0 -4
BITMAP
18
18
18
18
18
18
18
FF
00
00
00
00
00
00
00
00
ENDCHAR
STARTCHAR 22
ENCODING 22
SWIDTH 600 0
DWIDTH 8 0
BBX 8 16 0 -4
BITMAP
18
18
18
18
18
18
18
1F
18
18
18
18
18
18
18
18
ENDCHAR
STARTCHAR 23
ENCODING 23
SWIDTH 600 0
DWIDTH 8 0
BBX 8 16 0 -4
BITMAP
00
00
00
00
00
00
00
FF
18
18
18
18
18
18
18
18
ENDCHAR
STARTCHAR 24
ENCODING 24
SWIDTH 600 0
DWIDTH 8 0
BBX 8 16 0 -4
BITMAP
18
18
18
18
18
18
18
FF
18
18
18
18
18
18
18
18
ENDCHAR
STARTCHAR 25
ENCODING 25
SWIDTH 600 0
DWIDTH 8 0
BBX 8 16 0 -4
BITMAP
AA
55
AA
55
AA
55
AA
55
AA
55
AA
55
AA
55
AA
55
ENDCHAR
STARTCHAR 26
ENCODING 26
SWIDTH 600 0
DWIDTH 8 0
BBX 8 16 0 -4
BITMAP
00
00
00
00
00
0C
0C
7E
18
7E
30
30
00
00
00
00
ENDCHAR
STARTCHAR 27
ENCODING 27
SWIDTH 600 0
DWIDTH 8 0
BBX 8 16 0 -4
BITMAP
00
00
00
00
00
06
1C
70
1C
06
00
7E
00
00
00
00
ENDCHAR
STARTCHAR 28
ENCODING 28
SWIDTH 600 0
DWIDTH 8 0
BBX 8 16 0 -4
BITMAP
00
00
00
00
00
7E
34
34
34
34
34
34
00
00
00
00
ENDCHAR
STARTCHAR 29
ENCODING 29
SWIDTH 600 0
DWIDTH 8 0
BBX 8 16 0 -4
BITMAP
00
00
00
00
00
60
38
0E
38
60
00
7E
00
00
00
00
ENDCHAR
STARTCHAR 30
ENCODING 30
SWIDTH 600 0
DWIDTH 8 0
BBX 8 16 0 -4
BITMAP
00
00
00
1C
36
30
30
78
30
30
60
7E
00
00
00
00
ENDCHAR
STARTCHAR 31
ENCODING 31
SWIDTH 600 0
DWIDTH 8 0
BBX 8 16 0 -4
BITMAP
00
00
00
00
00
00
00
00
3C
00
00
00
00
00
00
00
ENDCHAR
STARTCHAR 32
ENCODING 32
SWIDTH 600 0
DWIDTH 8 0
BBX 8 16 0 -4
BITMAP
00
00
00
00
00
00
00
00
00
00
00
00
00
00
00
00
ENDCHAR
STARTCHAR 33
ENCODING 33
SWIDTH 600 0
DWIDTH 8 0
BBX 8 16 0 -4
BITMAP
00
00
18
18
18
18
18
18
18
00
18
18
00
00
00
00
ENDCHAR
STARTCHAR 34
ENCODING 34
SWIDTH 600 0
DWIDTH 8 0
BBX 8 16 0 -4
BITMAP
00
66
66
66
00
00
00
00
00
00
00
00
00
00
00
00
ENDCHAR
STARTCHAR 35
ENCODING 35
SWIDTH 600 0
DWIDTH 8 0
BBX 8 16 0 -4
BITMAP
00
00
00
00
34
34
7E
34
34
7E
34
34
00
00
00
00
ENDCHAR
STARTCHAR 36
ENCODING 36
SWIDTH 600 0
DWIDTH 8 0
BBX 8 16 0 -4
BITMAP
00
00
08
3C
6A
68
78
3C
0E
0A
6A
3C
08
00
00
00
ENDCHAR
STARTCHAR 37
ENCODING 37
SWIDTH 600 0
DWIDTH 8 0
BBX 8 16 0 -4
BITMAP
00
00
60
D2
D6
6C
18
30
6C
DA
9A
0C
00
00
00
00
ENDCHAR
STARTCHAR 38
ENCODING 38
SWIDTH 600 0
DWIDTH 8 0
BBX 8 16 0 -4
BITMAP
00
00
18
34
34
18
3A
6C
6C
6C
6C
3A
00
00
00
00
ENDCHAR
STARTCHAR 39
ENCODING 39
SWIDTH 600 0
DWIDTH 8 0
BBX 8 16 0 -4
BITMAP
00
18
18
18
00
00
00
00
00
00
00
00
00
00
00
00
ENDCHAR
STARTCHAR 40
ENCODING 40
SWIDTH 600 0
DWIDTH 8 0
BBX 8 16 0 -4
BITMAP
00
0C
18
18
30
30
30
30
30
30
30
18
18
0C
00
00
ENDCHAR
STARTCHAR 41
ENCODING 41
SWIDTH 600 0
DWIDTH 8 0
BBX 8 16 0 -4
BITMAP
00
30
18
18
0C
0C
0C
0C
0C
0C
0C
18
18
30
00
00
ENDCHAR
STARTCHAR 42
ENCODING 42
SWIDTH 600 0
DWIDTH 8 0
BBX 8 16 0 -4
BITMAP
00
00
00
00
00
6C
38
FE
38
6C
00
00
00
00
00
00
ENDCHAR
STARTCHAR 43
ENCODING 43
SWIDTH 600 0
DWIDTH 8 0
BBX 8 16 0 -4
BITMAP
00
00
00
00
00
18
18
7E
18
18
00
00
00
00
00
00
ENDCHAR
STARTCHAR 44
ENCODING 44
SWIDTH 600 0
DWIDTH 8 0
BBX 8 16 0 -4
BITMAP
00
00
00
00
00
00
00
00
00
00
18
18
10
30
00
00
ENDCHAR
STARTCHAR 45
ENCODING 45
SWIDTH 600 0
DWIDTH 8 0
BBX 8 16 0 -4
BITMAP
00
00
00
00
00
00
00
7E
00
00
00
00
00
00
00
00
ENDCHAR
STARTCHAR 46
ENCODING 46
SWIDTH 600 0
DWIDTH 8 0
BBX 8 16 0 -4
BITMAP
00
00
00
00
00
00
00
00
00
00
18
18
00
00
00
00
ENDCHAR
STARTCHAR 47
ENCODING 47
SWIDTH 600 0
DWIDTH 8 0
BBX 8 16 0 -4
BITMAP
00
02
06
06
0C
0C
18
18
30
30
60
60
40
00
00
00
ENDCHAR
STARTCHAR 48
ENCODING 48
SWIDTH 600 0
DWIDTH 8 0
BBX 8 16 0 -4
BITMAP
00
00
00
3C
66
66
6E
7E
76
66
66
3C
00
00
00
00
ENDCHAR
STARTCHAR 49
ENCODING 49
SWIDTH 600 0
DWIDTH 8 0
BBX 8 16 0 -4
BITMAP
00
00
00
08
18
38
58
18
18
18
18
7E
00
00
00
00
ENDCHAR
STARTCHAR 50
ENCODING 50
SWIDTH 600 0
DWIDTH 8 0
BBX 8 16 0 -4
BITMAP
00
00
00
3C
66
06
0C
18
30
60
60
7E
00
00
00
00
ENDCHAR
STARTCHAR 51
ENCODING 51
SWIDTH 600 0
DWIDTH 8 0
BBX 8 16 0 -4
BITMAP
00
00
00
3C
66
06
06
1C
06
06
66
3C
00
00
00
00
ENDCHAR
STARTCHAR 52
ENCODING 52
SWIDTH 600 0
DWIDTH 8 0
BBX 8 16 0 -4
BITMAP
00
00
00
04
0C
1C
3C
6C
7E
0C
0C
0C
00
00
00
00
ENDCHAR
STARTCHAR 53
ENCODING 53
SWIDTH 600 0
DWIDTH 8 0
BBX 8 16 0 -4
BITMAP
00
00
00
7E
60
60
60
7C
06
06
66
3C
00
00
00
00
ENDCHAR
STARTCHAR 54
ENCODING 54
SWIDTH 600 0
DWIDTH 8 0
BBX 8 16 0 -4
BITMAP
00
00
00
1C
30
60
60
7C
66
66
66
3C
00
00
00
00
ENDCHAR
STARTCHAR 55
ENCODING 55
SWIDTH 600 0
DWIDTH 8 0
BBX 8 16 0 -4
BITMAP
00
00
00
7E
06
06
0C
0C
18
18
30
30
00
00
00
00
ENDCHAR
STARTCHAR 56
ENCODING 56
SWIDTH 600 0
DWIDTH 8 0
BBX 8 16 0 -4
BITMAP
00
00
00
3C
66
66
66
3C
66
66
66
3C
00
00
00
00
ENDCHAR
STARTCHAR 57
ENCODING 57
SWIDTH 600 0
DWIDTH 8 0
BBX 8 16 0 -4
BITMAP
00
00
00
3C
66
66
66
3E
06
06
0C
38
00
00
00
00
ENDCHAR
STARTCHAR 58
ENCODING 58
SWIDTH 600 0
DWIDTH 8 0
BBX 8 16 0 -4
BITMAP
00
00
00
00
00
18
18
00
00
00
18
18
00
00
00
00
ENDCHAR
STARTCHAR 59
ENCODING 59
SWIDTH 600 0
DWIDTH 8 0
BBX 8 16 0 -4
BITMAP
00
00
00
00
00
18
18
00
00
00
18
18
10
30
00
00
ENDCHAR
STARTCHAR 60
ENCODING 60
SWIDTH 600 0
DWIDTH 8 0
BBX 8 16 0 -4
BITMAP
00
00
00
06
0C
18
30
60
30
18
0C
06
00
00
00
00
ENDCHAR
STARTCHAR 61
ENCODING 61
SWIDTH 600 0
DWIDTH 8 0
BBX 8 16 0 -4
BITMAP
00
00
00
00
00
00
7E
00
7E
00
00
00
00
00
00
00
ENDCHAR
STARTCHAR 62
ENCODING 62
SWIDTH 600 0
DWIDTH 8 0
BBX 8 16 0 -4
BITMAP
00
00
00
60
30
18
0C
06
0C
18
30
60
00
00
00
00
ENDCHAR
STARTCHAR 63
ENCODING 63
SWIDTH 600 0
DWIDTH 8 0
BBX 8 16 0 -4
BITMAP
00
00
3C
66
06
06
0C
18
18
00
18
18
00
00
00
00
ENDCHAR
STARTCHAR 64
ENCODING 64
SWIDTH 600 0
DWIDTH 8 0
BBX 8 16 0 -4
BITMAP
00
00
00
3C
66
66
66
6E
6E
6E
60
3E
00
00
00
00
ENDCHAR
STARTCHAR 65
ENCODING 65
SWIDTH 600 0
DWIDTH 8 0
BBX 8 16 0 -4
BITMAP
00
00
00
18
3C
3C
66
66
7E
66
66
66
00
00
00
00
ENDCHAR
STARTCHAR 66
ENCODING 66
SWIDTH 600 0
DWIDTH 8 0
BBX 8 16 0 -4
BITMAP
00
00
00
7C
66
66
66
7C
66
66
66
7C
00
00
00
00
ENDCHAR
STARTCHAR 67
ENCODING 67
SWIDTH 600 0
DWIDTH 8 0
BBX 8 16 0 -4
BITMAP
00
00
00
3C
66
60
60
60
60
60
66
3C
00
00
00
00
ENDCHAR
STARTCHAR 68
ENCODING 68
SWIDTH 600 0
DWIDTH 8 0
BBX 8 16 0 -4
BITMAP
00
00
00
78
6C
66
66
66
66
66
6C
78
00
00
00
00
ENDCHAR
STARTCHAR 69
ENCODING 69
SWIDTH 600 0
DWIDTH 8 0
BBX 8 16 0 -4
BITMAP
00
00
00
7E
60
60
60
7C
60
60
60
7E
00
00
00
00
ENDCHAR
STARTCHAR 70
ENCODING 70
SWIDTH 600 0
DWIDTH 8 0
BBX 8 16 0 -4
BITMAP
00
00
00
7E
60
60
60
7C
60
60
60
60
00
00
00
00
ENDCHAR
STARTCHAR 71
ENCODING 71
SWIDTH 600 0
DWIDTH 8 0
BBX 8 16 0 -4
BITMAP
00
00
00
3C
66
60
60
6E
66
66
66
3C
00
00
00
00
ENDCHAR
STARTCHAR 72
ENCODING 72
SWIDTH 600 0
DWIDTH 8 0
BBX 8 16 0 -4
BITMAP
00
00
00
66
66
66
66
7E
66
66
66
66
00
00
00
00
ENDCHAR
STARTCHAR 73
ENCODING 73
SWIDTH 600 0
DWIDTH 8 0
BBX 8 16 0 -4
BITMAP
00
00
00
7E
18
18
18
18
18
18
18
7E
00
00
00
00
ENDCHAR
STARTCHAR 74
ENCODING 74
SWIDTH 600 0
DWIDTH 8 0
BBX 8 16 0 -4
BITMAP
00
00
00
1E
06
06
06
06
06
66
66
3C
00
00
00
00
ENDCHAR
STARTCHAR 75
ENCODING 75
SWIDTH 600 0
DWIDTH 8 0
BBX 8 16 0 -4
BITMAP
00
00
00
66
66
6C
78
78
6C
6C
66
66
00
00
00
00
ENDCHAR
STARTCHAR 76
ENCODING 76
SWIDTH 600 0
DWIDTH 8 0
BBX 8 16 0 -4
BITMAP
00
00
00
60
60
60
60
60
60
60
60
7E
00
00
00
00
ENDCHAR
STARTCHAR 77
ENCODING 77
SWIDTH 600 0
DWIDTH 8 0
BBX 8 16 0 -4
BITMAP
00
00
00
C6
EE
FE
D6
C6
C6
C6
C6
C6
00
00
00
00
ENDCHAR
STARTCHAR 78
ENCODING 78
SWIDTH 600 0
DWIDTH 8 0
BBX 8 16 0 -4
BITMAP
00
00
00
66
66
76
7E
6E
66
66
66
66
00
00
00
00
ENDCHAR
STARTCHAR 79
ENCODING 79
SWIDTH 600 0
DWIDTH 8 0
BBX 8 16 0 -4
BITMAP
00
00
00
3C
66
66
66
66
66
66
66
3C
00
00
00
00
ENDCHAR
STARTCHAR 80
ENCODING 80
SWIDTH 600 0
DWIDTH 8 0
BBX 8 16 0 -4
BITMAP
00
00
00
7C
66
66
66
7C
60
60
60
60
00
00
00
00
ENDCHAR
STARTCHAR 81
ENCODING 81
SWIDTH 600 0
DWIDTH 8 0
BBX 8 16 0 -4
BITMAP
00
00
00
3C
66
66
66
66
66
66
6C
36
06
00
00
00
ENDCHAR
STARTCHAR 82
ENCODING 82
SWIDTH 600 0
DWIDTH 8 0
BBX 8 16 0 -4
BITMAP
00
00
00
7C
66
66
66
7C
6C
66
66
66
00
00
00
00
ENDCHAR
STARTCHAR 83
ENCODING 83
SWIDTH 600 0
DWIDTH 8 0
BBX 8 16 0 -4
BITMAP
00
00
00
3C
66
60
60
3C
06
06
66
3C
00
00
00
00
ENDCHAR
STARTCHAR 84
ENCODING 84
SWIDTH 600 0
DWIDTH 8 0
BBX 8 16 0 -4
BITMAP
00
00
00
7E
18
18
18
18
18
18
18
18
00
00
00
00
ENDCHAR
STARTCHAR 85
ENCODING 85
SWIDTH 600 0
DWIDTH 8 0
BBX 8 16 0 -4
BITMAP
00
00
00
66
66
66
66
66
66
66
66
3C
00
00
00
00
ENDCHAR
STARTCHAR 86
ENCODING 86
SWIDTH 600 0
DWIDTH 8 0
BBX 8 16 0 -4
BITMAP
00
00
00
66
66
66
66
3C
3C
3C
18
18
00
00
00
00
ENDCHAR
STARTCHAR 87
ENCODING 87
SWIDTH 600 0
DWIDTH 8 0
BBX 8 16 0 -4
BITMAP
00
00
00
C6
C6
C6
D6
D6
7C
7C
28
28
00
00
00
00
ENDCHAR
STARTCHAR 88
ENCODING 88
SWIDTH 600 0
DWIDTH 8 0
BBX 8 16 0 -4
BITMAP
00
00
00
66
66
66
3C
18
3C
66
66
66
00
00
00
00
ENDCHAR
STARTCHAR 89
ENCODING 89
SWIDTH 600 0
DWIDTH 8 0
BBX 8 16 0 -4
BITMAP
00
00
00
66
66
66
66
3C
18
18
18
18
00
00
00
00
ENDCHAR
STARTCHAR 90
ENCODING 90
SWIDTH 600 0
DWIDTH 8 0
BBX 8 16 0 -4
BITMAP
00
00
00
7E
06
0C
18
18
30
30
60
7E
00
00
00
00
ENDCHAR
STARTCHAR 91
ENCODING 91
SWIDTH 600 0
DWIDTH 8 0
BBX 8 16 0 -4
BITMAP
00
3C
30
30
30
30
30
30
30
30
30
30
30
3C
00
00
ENDCHAR
STARTCHAR 92
ENCODING 92
SWIDTH 600 0
DWIDTH 8 0
BBX 8 16 0 -4
BITMAP
00
40
60
60
30
30
18
18
0C
0C
06
06
02
00
00
00
ENDCHAR
STARTCHAR 93
ENCODING 93
SWIDTH 600 0
DWIDTH 8 0
BBX 8 16 0 -4
BITMAP
00
3C
0C
0C
0C
0C
0C
0C
0C
0C
0C
0C
0C
3C
00
00
ENDCHAR
STARTCHAR 94
ENCODING 94
SWIDTH 600 0
DWIDTH 8 0
BBX 8 16 0 -4
BITMAP
00
00
18
18
3C
3C
66
66
00
00
00
00
00
00
00
00
ENDCHAR
STARTCHAR 95
ENCODING 95
SWIDTH 600 0
DWIDTH 8 0
BBX 8 16 0 -4
BITMAP
00
00
00
00
00
00
00
00
00
00
00
00
FF
00
00
00
ENDCHAR
STARTCHAR 96
ENCODING 96
SWIDTH 600 0
DWIDTH 8 0
BBX 8 16 0 -4
BITMAP
00
38
18
0C
00
00
00
00
00
00
00
00
00
00
00
00
ENDCHAR
STARTCHAR 97
ENCODING 97
SWIDTH 600 0
DWIDTH 8 0
BBX 8 16 0 -4
BITMAP
00
00
00
00
00
3C
06
06
3E
66
66
3E
00
00
00
00
ENDCHAR
STARTCHAR 98
ENCODING 98
SWIDTH 600 0
DWIDTH 8 0
BBX 8 16 0 -4
BITMAP
00
00
60
60
60
7C
66
66
66
66
66
7C
00
00
00
00
ENDCHAR
STARTCHAR 99
ENCODING 99
SWIDTH 600 0
DWIDTH 8 0
BBX 8 16 0 -4
BITMAP
00
00
00
00
00
3C
66
60
60
60
66
3C
00
00
00
00
ENDCHAR
STARTCHAR 100
ENCODING 100
SWIDTH 600 0
DWIDTH 8 0
BBX 8 16 0 -4
BITMAP
00
00
06
06
06
3E
66
66
66
66
66
3E
00
00
00
00
ENDCHAR
STARTCHAR 101
ENCODING 101
SWIDTH 600 0
DWIDTH 8 0
BBX 8 16 0 -4
BITMAP
00
00
00
00
00
3C
66
66
7E
60
66
3C
00
00
00
00
ENDCHAR
STARTCHAR 102
ENCODING 102
SWIDTH 600 0
DWIDTH 8 0
BBX 8 16 0 -4
BITMAP
00
00
0E
18
18
3E
18
18
18
18
18
18
00
00
00
00
ENDCHAR
STARTCHAR 103
ENCODING 103
SWIDTH 600 0
DWIDTH 8 0
BBX 8 16 0 -4
BITMAP
00
00
00
00
00
3E
66
66
66
66
66
3E
06
06
06
3C
ENDCHAR
STARTCHAR 104
ENCODING 104
SWIDTH 600 0
DWIDTH 8 0
BBX 8 16 0 -4
BITMAP
00
00
60
60
60
7C
66
66
66
66
66
66
00
00
00
00
ENDCHAR
STARTCHAR 105
ENCODING 105
SWIDTH 600 0
DWIDTH 8 0
BBX 8 16 0 -4
BITMAP
00
18
18
00
00
38
18
18
18
18
18
3C
00
00
00
00
ENDCHAR
STARTCHAR 106
ENCODING 106
SWIDTH 600 0
DWIDTH 8 0
BBX 8 16 0 -4
BITMAP
00
0C
0C
00
00
3C
0C
0C
0C
0C
0C
0C
0C
78
00
00
ENDCHAR
STARTCHAR 107
ENCODING 107
SWIDTH 600 0
DWIDTH 8 0
BBX 8 16 0 -4
BITMAP
00
00
60
60
60
66
6C
78
78
6C
6C
66
00
00
00
00
ENDCHAR
STARTCHAR 108
ENCODING 108
SWIDTH 600 0
DWIDTH 8 0
BBX 8 16 0 -4
BITMAP
00
00
38
18
18
18
18
18
18
18
18
1C
00
00
00
00
ENDCHAR
STARTCHAR 109
ENCODING 109
SWIDTH 600 0
DWIDTH 8 0
BBX 8 16 0 -4
BITMAP
00
00
00
00
00
EC
D6
D6
D6
D6
D6
D6
00
00
00
00
ENDCHAR
STARTCHAR 110
ENCODING 110
SWIDTH 600 0
DWIDTH 8 0
BBX 8 16 0 -4
BITMAP
00
00
00
00
00
7C
66
66
66
66
66
66
00
00
00
00
ENDCHAR
STARTCHAR 111
ENCODING 111
SWIDTH 600 0
DWIDTH 8 0
BBX 8 16 0 -4
BITMAP
00
00
00
00
00
3C
66
66
66
66
66
3C
00
00
00
00
ENDCHAR
STARTCHAR 112
ENCODING 112
SWIDTH 600 0
DWIDTH 8 0
BBX 8 16 0 -4
BITMAP
00
00
00
00
00
7C
66
66
66
66
66
7C
60
60
60
60
ENDCHAR
STARTCHAR 113
ENCODING 113
SWIDTH 600 0
DWIDTH 8 0
BBX 8 16 0 -4
BITMAP
00
00
00
00
00
3E
66
66
66
66
66
3E
06
06
06
06
ENDCHAR
STARTCHAR 114
ENCODING 114
SWIDTH 600 0
DWIDTH 8 0
BBX 8 16 0 -4
BITMAP
00
00
00
00
00
6C
76
60
60
60
60
60
00
00
00
00
ENDCHAR
STARTCHAR 115
ENCODING 115
SWIDTH 600 0
DWIDTH 8 0
BBX 8 16 0 -4
BITMAP
00
00
00
00
00
3C
66
60
3C
06
66
3C
00
00
00
00
ENDCHAR
STARTCHAR 116
ENCODING 116
SWIDTH 600 0
DWIDTH 8 0
BBX 8 16 0 -4
BITMAP
00
00
30
30
30
7C
30
30
30
30
30
1E
00
00
00
00
ENDCHAR
STARTCHAR 117
ENCODING 117
SWIDTH 600 0
DWIDTH 8 0
BBX 8 16 0 -4
BITMAP
00
00
00
00
00
66
66
66
66
66
66
3E
00
00
00
00
ENDCHAR
STARTCHAR 118
ENCODING 118
SWIDTH 600 0
DWIDTH 8 0
BBX 8 16 0 -4
BITMAP
00
00
00
00
00
66
66
66
3C
3C
18
18
00
00
00
00
ENDCHAR
STARTCHAR 119
ENCODING 119
SWIDTH 600 0
DWIDTH 8 0
BBX 8 16 0 -4
BITMAP
00
00
00
00
00
C6
C6
D6
D6
7C
6C
6C
00
00
00
00
ENDCHAR
STARTCHAR 120
ENCODING 120
SWIDTH 600 0
DWIDTH 8 0
BBX 8 16 0 -4
BITMAP
00
00
00
00
00
66
66
3C
18
3C
66
66
00
00
00
00
ENDCHAR
STARTCHAR 121
ENCODING 121
SWIDTH 600 0
DWIDTH 8 0
BBX 8 16 0 -4
BITMAP
00
00
00
00
00
66
66
66
66
66
66
3E
06
06
06
3C
ENDCHAR
STARTCHAR 122
ENCODING 122
SWIDTH 600 0
DWIDTH 8 0
BBX 8 16 0 -4
BITMAP
00
00
00
00
00
7E
06
0C
18
30
60
7E
00
00
00
00
ENDCHAR
STARTCHAR 123
ENCODING 123
SWIDTH 600 0
DWIDTH 8 0
BBX 8 16 0 -4
BITMAP
00
1C
30
30
30
30
30
E0
30
30
30
30
30
1C
00
00
ENDCHAR
STARTCHAR 124
ENCODING 124
SWIDTH 600 0
DWIDTH 8 0
BBX 8 16 0 -4
BITMAP
00
18
18
18
18
18
18
18
18
18
18
18
18
18
00
00
ENDCHAR
STARTCHAR 125
ENCODING 125
SWIDTH 600 0
DWIDTH 8 0
BBX 8 16 0 -4
BITMAP
00
70
18
18
18
18
18
0E
18
18
18
18
18
70
00
00
ENDCHAR
STARTCHAR 126
ENCODING 126
SWIDTH 600 0
DWIDTH 8 0
BBX 8 16 0 -4
BITMAP
00
00
00
00
00
00
32
7E
4C
00
00
00
00
00
00
00
ENDCHAR
STARTCHAR 127
ENCODING 127
SWIDTH 600 0
DWIDTH 8 0
BBX 8 16 0 -4
BITMAP
00
00
00
00
00
00
00
00
00
00
00
00
00
00
00
00
ENDCHAR
STARTCHAR 128
ENCODING 128
SWIDTH 600 0
DWIDTH 8 0
BBX 8 16 0 -4
BITMAP
00
00
00
00
00
1C
32
78
30
78
32
1C
00
00
00
00
ENDCHAR
STARTCHAR 129
ENCODING 129
SWIDTH 600 0
DWIDTH 8 0
BBX 8 16 0 -4
BITMAP
00
00
00
00
00
00
00
00
00
00
00
00
00
00
00
00
ENDCHAR
STARTCHAR 130
ENCODING 130
SWIDTH 600 0
DWIDTH 8 0
BBX 8 16 0 -4
BITMAP
00
00
00
00
00
00
00
00
00
00
18
18
18
30
00
00
ENDCHAR
STARTCHAR 131
ENCODING 131
SWIDTH 600 0
DWIDTH 8 0
BBX 8 16 0 -4
BITMAP
00
0E
18
18
18
3C
18
18
18
18
18
18
18
70
00
00
ENDCHAR
STARTCHAR 132
ENCODING 132
SWIDTH 600 0
DWIDTH 8 0
BBX 8 16 0 -4
BITMAP
00
00
00
00
00
00
00
00
00
00
6C
6C
6C
D8
00
00
ENDCHAR
STARTCHAR 133
ENCODING 133
SWIDTH 600 0
DWIDTH 8 0
BBX 8 16 0 -4
BITMAP
00
00
00
00
00
00
00
00
00
00
00
54
00
00
00
00
ENDCHAR
STARTCHAR 134
ENCODING 134
SWIDTH 600 0
DWIDTH 8 0
BBX 8 16 0 -4
BITMAP
00
18
18
18
7E
18
18
18
18
18
18
18
00
00
00
00
ENDCHAR
STARTCHAR 135
ENCODING 135
SWIDTH 600 0
DWIDTH 8 0
BBX 8 16 0 -4
BITMAP
00
18
18
18
7E
18
18
18
7E
18
18
18
00
00
00
00
ENDCHAR
STARTCHAR 136
ENCODING 136
SWIDTH 600 0
DWIDTH 8 0
BBX 8 16 0 -4
BITMAP
00
18
3C
66
00
00
00
00
00
00
00
00
00
00
00
00
ENDCHAR
STARTCHAR 137
ENCODING 137
SWIDTH 600 0
DWIDTH 8 0
BBX 8 16 0 -4
BITMAP
00
00
00
00
6C
6C
18
18
30
30
6A
6A
00
00
00
00
ENDCHAR
STARTCHAR 138
ENCODING 138
SWIDTH 600 0
DWIDTH 8 0
BBX 8 16 0 -4
BITMAP
00
36
1C
3C
66
60
60
3C
06
06
66
3C
00
00
00
00
ENDCHAR
STARTCHAR 139
ENCODING 139
SWIDTH 600 0
DWIDTH 8 0
BBX 8 16 0 -4
BITMAP
00
00
00
00
00
00
18
30
60
30
18
00
00
00
00
00
ENDCHAR
STARTCHAR 140
ENCODING 140
SWIDTH 600 0
DWIDTH 8 0
BBX 8 16 0 -4
BITMAP
00
00
00
3E
6C
6C
6C
6E
6C
6C
6C
3E
00
00
00
00
ENDCHAR
STARTCHAR 141
ENCODING 141
SWIDTH 600 0
DWIDTH 8 0
BBX 8 16 0 -4
BITMAP
00
00
00
00
00
00
00
00
00
00
00
00
00
00
00
00
ENDCHAR
STARTCHAR 142
ENCODING 142
SWIDTH 600 0
DWIDTH 8 0
BBX 8 16 0 -4
BITMAP
00
36
1C
7E
06
0C
18
18
30
30
60
7E
00
00
00
00
ENDCHAR
STARTCHAR 143
ENCODING 143
SWIDTH 600 0
DWIDTH 8 0
BBX 8 16 0 -4
BITMAP
00
00
00
00
00
00
00
00
00
00
00
00
00
00
00
00
ENDCHAR
STARTCHAR 144
ENCODING 144
SWIDTH 600 0
DWIDTH 8 0
BBX 8 16 0 -4
BITMAP
00
00
00
00
00
00
00
00
00
00
00
00
00
00
00
00
ENDCHAR
STARTCHAR 145
ENCODING 145
SWIDTH 600 0
DWIDTH 8 0
BBX 8 16 0 -4
BITMAP
00
0C
18
18
18
00
00
00
00
00
00
00
00
00
00
00
ENDCHAR
STARTCHAR 146
ENCODING 146
SWIDTH 600 0
DWIDTH 8 0
BBX 8 16 0 -4
BITMAP
00
18
18
18
30
00
00
00
00
00
00
00
00
00
00
00
ENDCHAR
STARTCHAR 147
ENCODING 147
SWIDTH 600 0
DWIDTH 8 0
BBX 8 16 0 -4
BITMAP
00
36
6C
6C
6C
00
00
00
00
00
00
00
00
00
00
00
ENDCHAR
STARTCHAR 148
ENCODING 148
SWIDTH 600 0
DWIDTH 8 0
BBX 8 16 0 -4
BITMAP
00
6C
6C
6C
D8
00
00
00
00
00
00
00
00
00
00
00
ENDCHAR
STARTCHAR 149
ENCODING 149
SWIDTH 600 0
DWIDTH 8 0
BBX 8 16 0 -4
BITMAP
00
00
00
00
00
00
18
3C
7E
3C
18
00
00
00
00
00
ENDCHAR
STARTCHAR 150
ENCODING 150
SWIDTH 600 0
DWIDTH 8 0
BBX 8 16 0 -4
BITMAP
00
00
00
00
00
00
00
00
7E
00
00
00
00
00
00
00
ENDCHAR
STARTCHAR 151
ENCODING 151
SWIDTH 600 0
DWIDTH 8 0
BBX 8 16 0 -4
BITMAP
00
00
00
00
00
00
00
00
FF
00
00
00
00
00
00
00
ENDCHAR
STARTCHAR 152
ENCODING 152
SWIDTH 600 0
DWIDTH 8 0
BBX 8 16 0 -4
BITMAP
00
00
32
7E
4C
00
00
00
00
00
00
00
00
00
00
00
ENDCHAR
STARTCHAR 153
ENCODING 153
SWIDTH 600 0
DWIDTH 8 0
BBX 8 16 0 -4
BITMAP
00
00
00
7A
2E
2A
2A
00
00
00
00
00
00
00
00
00
ENDCHAR
STARTCHAR 154
ENCODING 154
SWIDTH 600 0
DWIDTH 8 0
BBX 8 16 0 -4
BITMAP
00
00
36
1C
00
3C
66
60
3C
06
66
3C
00
00
00
00
ENDCHAR
STARTCHAR 155
ENCODING 155
SWIDTH 600 0
DWIDTH 8 0
BBX 8 16 0 -4
BITMAP
00
00
00
00
00
00
60
30
18
30
60
00
00
00
00
00
ENDCHAR
STARTCHAR 156
ENCODING 156
SWIDTH 600 0
DWIDTH 8 0
BBX 8 16 0 -4
BITMAP
00
00
00
00
00
6C
DA
DA
DE
D8
DA
6C
00
00
00
00
ENDCHAR
STARTCHAR 157
ENCODING 157
SWIDTH 600 0
DWIDTH 8 0
BBX 8 16 0 -4
BITMAP
00
00
00
00
00
00
00
00
00
00
00
00
00
00
00
00
ENDCHAR
STARTCHAR 158
ENCODING 158
SWIDTH 600 0
DWIDTH 8 0
BBX 8 16 0 -4
BITMAP
00
00
36
1C
00
7E
06
0C
18
30
60
7E
00
00
00
00
ENDCHAR
STARTCHAR 159
ENCODING 159
SWIDTH 600 0
DWIDTH 8 0
BBX 8 16 0 -4
BITMAP
00
66
66
00
66
66
66
3C
18
18
18
18
00
00
00
00
ENDCHAR
STARTCHAR 160
ENCODING 160
SWIDTH 600 0
DWIDTH 8 0
BBX 8 16 0 -4
BITMAP
00
00
00
00
00
00
00
00
00
00
00
00
00
00
00
00
ENDCHAR
STARTCHAR 161
ENCODING 161
SWIDTH 600 0
DWIDTH 8 0
BBX 8 16 0 -4
BITMAP
00
00
00
00
18
18
00
18
18
18
18
18
18
18
00
00
ENDCHAR
STARTCHAR 162
ENCODING 162
SWIDTH 600 0
DWIDTH 8 0
BBX 8 16 0 -4
BITMAP
00
00
00
00
08
3C
6A
68
68
68
6A
3C
08
00
00
00
ENDCHAR
STARTCHAR 163
ENCODING 163
SWIDTH 600 0
DWIDTH 8 0
BBX 8 16 0 -4
BITMAP
00
00
00
1C
36
30
30
78
30
30
30
5E
00
00
00
00
ENDCHAR
STARTCHAR 164
ENCODING 164
SWIDTH 600 0
DWIDTH 8 0
BBX 8 16 0 -4
BITMAP
00
00
00
00
00
66
3C
34
34
3C
66
00
00
00
00
00
ENDCHAR
STARTCHAR 165
ENCODING 165
SWIDTH 600 0
DWIDTH 8 0
BBX 8 16 0 -4
BITMAP
00
00
66
66
66
66
3C
18
7E
18
7E
18
00
00
00
00
ENDCHAR
STARTCHAR 166
ENCODING 166
SWIDTH 600 0
DWIDTH 8 0
BBX 8 16 0 -4
BITMAP
00
18
18
18
18
18
00
00
00
00
18
18
18
18
18
00
ENDCHAR
STARTCHAR 167
ENCODING 167
SWIDTH 600 0
DWIDTH 8 0
BBX 8 16 0 -4
BITMAP
00
00
3C
66
60
78
4C
64
36
1E
06
66
3C
00
00
00
ENDCHAR
STARTCHAR 168
ENCODING 168
SWIDTH 600 0
DWIDTH 8 0
BBX 8 16 0 -4
BITMAP
00
66
66
00
00
00
00
00
00
00
00
00
00
00
00
00
ENDCHAR
STARTCHAR 169
ENCODING 169
SWIDTH 600 0
DWIDTH 8 0
BBX 8 16 0 -4
BITMAP
00
00
00
3C
66
6E
76
76
76
6E
66
3C
00
00
00
00
ENDCHAR
STARTCHAR 170
ENCODING 170
SWIDTH 600 0
DWIDTH 8 0
BBX 8 16 0 -4
BITMAP
00
00
00
38
0C
3C
6C
6C
3C
00
00
00
00
00
00
00
ENDCHAR
STARTCHAR 171
ENCODING 171
SWIDTH 600 0
DWIDTH 8 0
BBX 8 16 0 -4
BITMAP
00
00
00
00
00
00
36
6C
D8
6C
36
00
00
00
00
00
ENDCHAR
STARTCHAR 172
ENCODING 172
SWIDTH 600 0
DWIDTH 8 0
BBX 8 16 0 -4
BITMAP
00
00
00
00
00
00
00
7C
0C
0C
0C
00
00
00
00
00
ENDCHAR
STARTCHAR 173
ENCODING 173
SWIDTH 600 0
DWIDTH 8 0
BBX 8 16 0 -4
BITMAP
00
00
00
00
00
00
00
00
00
00
00
00
00
00
00
00
ENDCHAR
STARTCHAR 174
ENCODING 174
SWIDTH 600 0
DWIDTH 8 0
BBX 8 16 0 -4
BITMAP
00
00
00
3C
62
7A
76
7A
76
76
62
3C
00
00
00
00
ENDCHAR
STARTCHAR 175
ENCODING 175
SWIDTH 600 0
DWIDTH 8 0
BBX 8 16 0 -4
BITMAP
FF
00
00
00
00
00
00
00
00
00
00
00
00
00
00
00
ENDCHAR
STARTCHAR 176
ENCODING 176
SWIDTH 600 0
DWIDTH 8 0
BBX 8 16 0 -4
BITMAP
00
00
00
3C
66
66
66
3C
00
00
00
00
00
00
00
00
ENDCHAR
STARTCHAR 177
ENCODING 177
SWIDTH 600 0
DWIDTH 8 0
BBX 8 16 0 -4
BITMAP
00
00
00
00
18
18
7E
18
18
00
7E
00
00
00
00
00
ENDCHAR
STARTCHAR 178
ENCODING 178
SWIDTH 600 0
DWIDTH 8 0
BBX 8 16 0 -4
BITMAP
00
00
78
0C
18
30
60
7C
00
00
00
00
00
00
00
00
ENDCHAR
STARTCHAR 179
ENCODING 179
SWIDTH 600 0
DWIDTH 8 0
BBX 8 16 0 -4
BITMAP
00
00
78
0C
38
0C
0C
78
00
00
00
00
00
00
00
00
ENDCHAR
STARTCHAR 180
ENCODING 180
SWIDTH 600 0
DWIDTH 8 0
BBX 8 16 0 -4
BITMAP
00
1C
18
30
00
00
00
00
00
00
00
00
00
00
00
00
ENDCHAR
STARTCHAR 181
ENCODING 181
SWIDTH 600 0
DWIDTH 8 0
BBX 8 16 0 -4
BITMAP
00
00
00
00
00
36
36
36
36
36
36
3C
30
30
60
00
ENDCHAR
STARTCHAR 182
ENCODING 182
SWIDTH 600 0
DWIDTH 8 0
BBX 8 16 0 -4
BITMAP
00
00
00
3E
74
74
74
34
14
14
14
14
14
14
00
00
ENDCHAR
STARTCHAR 183
ENCODING 183
SWIDTH 600 0
DWIDTH 8 0
BBX 8 16 0 -4
BITMAP
00
00
00
00
00
00
10
38
10
00
00
00
00
00
00
00
ENDCHAR
STARTCHAR 184
ENCODING 184
SWIDTH 600 0
DWIDTH 8 0
BBX 8 16 0 -4
BITMAP
00
00
00
00
00
00
00
00
00
00
00
18
0C
0C
38
00
ENDCHAR
STARTCHAR 185
ENCODING 185
SWIDTH 600 0
DWIDTH 8 0
BBX 8 16 0 -4
BITMAP
00
00
30
70
30
30
30
78
00
00
00
00
00
00
00
00
ENDCHAR
STARTCHAR 186
ENCODING 186
SWIDTH 600 0
DWIDTH 8 0
BBX 8 16 0 -4
BITMAP
00
00
00
38
6C
6C
6C
6C
38
00
00
00
00
00
00
00
ENDCHAR
STARTCHAR 187
ENCODING 187
SWIDTH 600 0
DWIDTH 8 0
BBX 8 16 0 -4
BITMAP
00
00
00
00
00
00
6C
36
1B
36
6C
00
00
00
00
00
ENDCHAR
STARTCHAR 188
ENCODING 188
SWIDTH 600 0
DWIDTH 8 0
BBX 8 16 0 -4
BITMAP
00
02
22
64
24
28
08
10
12
26
2E
42
42
00
00
00
ENDCHAR
STARTCHAR 189
ENCODING 189
SWIDTH 600 0
DWIDTH 8 0
BBX 8 16 0 -4
BITMAP
00
02
22
64
24
28
08
10
14
2A
22
44
4E
00
00
00
ENDCHAR
STARTCHAR 190
ENCODING 190
SWIDTH 600 0
DWIDTH 8 0
BBX 8 16 0 -4
BITMAP
00
02
62
24
44
28
68
10
12
26
2E
42
42
00
00
00
ENDCHAR
STARTCHAR 191
ENCODING 191
SWIDTH 600 0
DWIDTH 8 0
BBX 8 16 0 -4
BITMAP
00
00
00
00
18
18
00
18
18
30
60
60
66
3C
00
00
ENDCHAR
STARTCHAR 192
ENCODING 192
SWIDTH 600 0
DWIDTH 8 0
BBX 8 16 0 -4
BITMAP
00
30
18
00
18
3C
3C
66
66
7E
66
66
00
00
00
00
ENDCHAR
STARTCHAR 193
ENCODING 193
SWIDTH 600 0
DWIDTH 8 0
BBX 8 16 0 -4
BITMAP
00
0C
18
00
18
3C
3C
66
66
7E
66
66
00
00
00
00
ENDCHAR
STARTCHAR 194
ENCODING 194
SWIDTH 600 0
DWIDTH 8 0
BBX 8 16 0 -4
BITMAP
00
1C
36
00
18
3C
3C
66
66
7E
66
66
00
00
00
00
ENDCHAR
STARTCHAR 195
ENCODING 195
SWIDTH 600 0
DWIDTH 8 0
BBX 8 16 0 -4
BITMAP
00
1A
2C
00
18
3C
3C
66
66
7E
66
66
00
00
00
00
ENDCHAR
STARTCHAR 196
ENCODING 196
SWIDTH 600 0
DWIDTH 8 0
BBX 8 16 0 -4
BITMAP
00
66
66
00
18
3C
3C
66
66
7E
66
66
00
00
00
00
ENDCHAR
STARTCHAR 197
ENCODING 197
SWIDTH 600 0
DWIDTH 8 0
BBX 8 16 0 -4
BITMAP
00
3C
66
3C
18
3C
66
66
7E
66
66
66
00
00
00
00
ENDCHAR
STARTCHAR 198
ENCODING 198
SWIDTH 600 0
DWIDTH 8 0
BBX 8 16 0 -4
BITMAP
00
00
00
0E
1C
3C
2C
6E
7C
6C
6C
6E
00
00
00
00
ENDCHAR
STARTCHAR 199
ENCODING 199
SWIDTH 600 0
DWIDTH 8 0
BBX 8 16 0 -4
BITMAP
00
00
00
3C
66
60
60
60
60
60
66
3C
18
18
30
00
ENDCHAR
STARTCHAR 200
ENCODING 200
SWIDTH 600 0
DWIDTH 8 0
BBX 8 16 0 -4
BITMAP
00
30
18
00
7E
60
60
7C
60
60
60
7E
00
00
00
00
ENDCHAR
STARTCHAR 201
ENCODING 201
SWIDTH 600 0
DWIDTH 8 0
BBX 8 16 0 -4
BITMAP
00
0C
18
00
7E
60
60
7C
60
60
60
7E
00
00
00
00
ENDCHAR
STARTCHAR 202
ENCODING 202
SWIDTH 600 0
DWIDTH 8 0
BBX 8 16 0 -4
BITMAP
00
1C
36
00
7E
60
60
7C
60
60
60
7E
00
00
00
00
ENDCHAR
STARTCHAR 203
ENCODING 203
SWIDTH 600 0
DWIDTH 8 0
BBX 8 16 0 -4
BITMAP
00
66
66
00
7E
60
60
7C
60
60
60
7E
00
00
00
00
ENDCHAR
STARTCHAR 204
ENCODING 204
SWIDTH 600 0
DWIDTH 8 0
BBX 8 16 0 -4
BITMAP
00
30
18
00
7E
18
18
18
18
18
18
7E
00
00
00
00
ENDCHAR
STARTCHAR 205
ENCODING 205
SWIDTH 600 0
DWIDTH 8 0
BBX 8 16 0 -4
BITMAP
00
0C
18
00
7E
18
18
18
18
18
18
7E
00
00
00
00
ENDCHAR
STARTCHAR 206
ENCODING 206
SWIDTH 600 0
DWIDTH 8 0
BBX 8 16 0 -4
BITMAP
00
1C
36
00
7E
18
18
18
18
18
18
7E
00
00
00
00
ENDCHAR
STARTCHAR 207
ENCODING 207
SWIDTH 600 0
DWIDTH 8 0
BBX 8 16 0 -4
BITMAP
00
66
66
00
7E
18
18
18
18
18
18
7E
00
00
00
00
ENDCHAR
STARTCHAR 208
ENCODING 208
SWIDTH 600 0
DWIDTH 8 0
BBX 8 16 0 -4
BITMAP
00
00
00
00
3C
36
36
7E
36
36
36
3C
00
00
00
00
ENDCHAR
STARTCHAR 209
ENCODING 209
SWIDTH 600 0
DWIDTH 8 0
BBX 8 16 0 -4
BITMAP
00
1A
2C
00
66
76
7E
6E
66
66
66
66
00
00
00
00
ENDCHAR
STARTCHAR 210
ENCODING 210
SWIDTH 600 0
DWIDTH 8 0
BBX 8 16 0 -4
BITMAP
00
30
18
00
3C
66
66
66
66
66
66
3C
00
00
00
00
ENDCHAR
STARTCHAR 211
ENCODING 211
SWIDTH 600 0
DWIDTH 8 0
BBX 8 16 0 -4
BITMAP
00
0C
18
00
3C
66
66
66
66
66
66
3C
00
00
00
00
ENDCHAR
STARTCHAR 212
ENCODING 212
SWIDTH 600 0
DWIDTH 8 0
BBX 8 16 0 -4
BITMAP
00
1C
36
00
3C
66
66
66
66
66
66
3C
00
00
00
00
ENDCHAR
STARTCHAR 213
ENCODING 213
SWIDTH 600 0
DWIDTH 8 0
BBX 8 16 0 -4
BITMAP
00
1A
2C
00
3C
66
66
66
66
66
66
3C
00
00
00
00
ENDCHAR
STARTCHAR 214
ENCODING 214
SWIDTH 600 0
DWIDTH 8 0
BBX 8 16 0 -4
BITMAP
00
66
66
00
3C
66
66
66
66
66
66
3C
00
00
00
00
ENDCHAR
STARTCHAR 215
ENCODING 215
SWIDTH 600 0
DWIDTH 8 0
BBX 8 16 0 -4
BITMAP
00
00
00
00
00
00
66
3C
18
3C
66
00
00
00
00
00
ENDCHAR
STARTCHAR 216
ENCODING 216
SWIDTH 600 0
DWIDTH 8 0
BBX 8 16 0 -4
BITMAP
00
00
06
3C
66
6E
6E
76
76
76
66
3C
60
00
00
00
ENDCHAR
STARTCHAR 217
ENCODING 217
SWIDTH 600 0
DWIDTH 8 0
BBX 8 16 0 -4
BITMAP
00
30
18
00
66
66
66
66
66
66
66
3C
00
00
00
00
ENDCHAR
STARTCHAR 218
ENCODING 218
SWIDTH 600 0
DWIDTH 8 0
BBX 8 16 0 -4
BITMAP
00
0C
18
00
66
66
66
66
66
66
66
3C
00
00
00
00
ENDCHAR
STARTCHAR 219
ENCODING 219
SWIDTH 600 0
DWIDTH 8 0
BBX 8 16 0 -4
BITMAP
00
1C
36
00
66
66
66
66
66
66
66
3C
00
00
00
00
ENDCHAR
STARTCHAR 220
ENCODING 220
SWIDTH 600 0
DWIDTH 8 0
BBX 8 16 0 -4
BITMAP
00
66
66
00
66
66
66
66
66
66
66
3C
00
00
00
00
ENDCHAR
STARTCHAR 221
ENCODING 221
SWIDTH 600 0
DWIDTH 8 0
BBX 8 16 0 -4
BITMAP
00
0C
18
00
66
66
66
3C
18
18
18
18
00
00
00
00
ENDCHAR
STARTCHAR 222
ENCODING 222
SWIDTH 600 0
DWIDTH 8 0
BBX 8 16 0 -4
BITMAP
00
00
00
00
60
60
7C
66
66
7C
60
60
00
00
00
00
ENDCHAR
STARTCHAR 223
ENCODING 223
SWIDTH 600 0
DWIDTH 8 0
BBX 8 16 0 -4
BITMAP
00
00
00
38
6C
6C
78
6C
66
66
66
6C
00
00
00
00
ENDCHAR
STARTCHAR 224
ENCODING 224
SWIDTH 600 0
DWIDTH 8 0
BBX 8 16 0 -4
BITMAP
00
38
18
0C
00
3C
06
06
3E
66
66
3E
00
00
00
00
ENDCHAR
STARTCHAR 225
ENCODING 225
SWIDTH 600 0
DWIDTH 8 0
BBX 8 16 0 -4
BITMAP
00
0E
0C
18
00
3C
06
06
3E
66
66
3E
00
00
00
00
ENDCHAR
STARTCHAR 226
ENCODING 226
SWIDTH 600 0
DWIDTH 8 0
BBX 8 16 0 -4
BITMAP
00
18
3C
66
00
3C
06
06
3E
66
66
3E
00
00
00
00
ENDCHAR
STARTCHAR 227
ENCODING 227
SWIDTH 600 0
DWIDTH 8 0
BBX 8 16 0 -4
BITMAP
00
1A
2C
00
00
3C
06
06
3E
66
66
3E
00
00
00
00
ENDCHAR
STARTCHAR 228
ENCODING 228
SWIDTH 600 0
DWIDTH 8 0
BBX 8 16 0 -4
BITMAP
00
66
66
00
00
3C
06
06
3E
66
66
3E
00
00
00
00
ENDCHAR
STARTCHAR 229
ENCODING 229
SWIDTH 600 0
DWIDTH 8 0
BBX 8 16 0 -4
BITMAP
00
1C
36
1C
00
3C
06
06
3E
66
66
3E
00
00
00
00
ENDCHAR
STARTCHAR 230
ENCODING 230
SWIDTH 600 0
DWIDTH 8 0
BBX 8 16 0 -4
BITMAP
00
00
00
00
00
7C
1A
1A
7E
58
5A
2C
00
00
00
00
ENDCHAR
STARTCHAR 231
ENCODING 231
SWIDTH 600 0
DWIDTH 8 0
BBX 8 16 0 -4
BITMAP
00
00
00
00
00
3C
66
60
60
60
66
3C
18
18
18
30
ENDCHAR
STARTCHAR 232
ENCODING 232
SWIDTH 600 0
DWIDTH 8 0
BBX 8 16 0 -4
BITMAP
00
38
18
0C
00
3C
66
66
7E
60
66
3C
00
00
00
00
ENDCHAR
STARTCHAR 233
ENCODING 233
SWIDTH 600 0
DWIDTH 8 0
BBX 8 16 0 -4
BITMAP
00
0E
0C
18
00
3C
66
66
7E
60
66
3C
00
00
00
00
ENDCHAR
STARTCHAR 234
ENCODING 234
SWIDTH 600 0
DWIDTH 8 0
BBX 8 16 0 -4
BITMAP
00
18
3C
66
00
3C
66
66
7E
60
66
3C
00
00
00
00
ENDCHAR
STARTCHAR 235
ENCODING 235
SWIDTH 600 0
DWIDTH 8 0
BBX 8 16 0 -4
BITMAP
00
66
66
00
00
3C
66
66
7E
60
66
3C
00
00
00
00
ENDCHAR
STARTCHAR 236
ENCODING 236
SWIDTH 600 0
DWIDTH 8 0
BBX 8 16 0 -4
BITMAP
00
38
18
0C
00
38
18
18
18
18
18
3C
00
00
00
00
ENDCHAR
STARTCHAR 237
ENCODING 237
SWIDTH 600 0
DWIDTH 8 0
BBX 8 16 0 -4
BITMAP
00
1C
18
30
00
38
18
18
18
18
18
3C
00
00
00
00
ENDCHAR
STARTCHAR 238
ENCODING 238
SWIDTH 600 0
DWIDTH 8 0
BBX 8 16 0 -4
BITMAP
00
18
3C
66
00
38
18
18
18
18
18
3C
00
00
00
00
ENDCHAR
STARTCHAR 239
ENCODING 239
SWIDTH 600 0
DWIDTH 8 0
BBX 8 16 0 -4
BITMAP
00
66
66
00
00
38
18
18
18
18
18
3C
00
00
00
00
ENDCHAR
STARTCHAR 240
ENCODING 240
SWIDTH 600 0
DWIDTH 8 0
BBX 8 16 0 -4
BITMAP
00
3A
0C
16
06
06
3E
66
66
66
66
3C
00
00
00
00
ENDCHAR
STARTCHAR 241
ENCODING 241
SWIDTH 600 0
DWIDTH 8 0
BBX 8 16 0 -4
BITMAP
00
1A
2C
00
00
7C
66
66
66
66
66
66
00
00
00
00
ENDCHAR
STARTCHAR 242
ENCODING 242
SWIDTH 600 0
DWIDTH 8 0
BBX 8 16 0 -4
BITMAP
00
38
18
0C
00
3C
66
66
66
66
66
3C
00
00
00
00
ENDCHAR
STARTCHAR 243
ENCODING 243
SWIDTH 600 0
DWIDTH 8 0
BBX 8 16 0 -4
BITMAP
00
0E
0C
18
00
3C
66
66
66
66
66
3C
00
00
00
00
ENDCHAR
STARTCHAR 244
ENCODING 244
SWIDTH 600 0
DWIDTH 8 0
BBX 8 16 0 -4
BITMAP
00
18
3C
66
00
3C
66
66
66
66
66
3C
00
00
00
00
ENDCHAR
STARTCHAR 245
ENCODING 245
SWIDTH 600 0
DWIDTH 8 0
BBX 8 16 0 -4
BITMAP
00
1A
2C
00
00
3C
66
66
66
66
66
3C
00
00
00
00
ENDCHAR
STARTCHAR 246
ENCODING 246
SWIDTH 600 0
DWIDTH 8 0
BBX 8 16 0 -4
BITMAP
00
66
66
00
00
3C
66
66
66
66
66
3C
00
00
00
00
ENDCHAR
STARTCHAR 247
ENCODING 247
SWIDTH 600 0
DWIDTH 8 0
BBX 8 16 0 -4
BITMAP
00
00
00
00
00
18
00
7E
00
18
00
00
00
00
00
00
ENDCHAR
STARTCHAR 248
ENCODING 248
SWIDTH 600 0
DWIDTH 8 0
BBX 8 16 0 -4
BITMAP
00
00
00
00
02
3E
64
6E
76
76
26
7C
40
00
00
00
ENDCHAR
STARTCHAR 249
ENCODING 249
SWIDTH 600 0
DWIDTH 8 0
BBX 8 16 0 -4
BITMAP
00
38
18
0C
00
66
66
66
66
66
66
3E
00
00
00
00
ENDCHAR
STARTCHAR 250
ENCODING 250
SWIDTH 600 0
DWIDTH 8 0
BBX 8 16 0 -4
BITMAP
00
0E
0C
18
00
66
66
66
66
66
66
3E
00
00
00
00
ENDCHAR
STARTCHAR 251
ENCODING 251
SWIDTH 600 0
DWIDTH 8 0
BBX 8 16 0 -4
BITMAP
00
18
3C
66
00
66
66
66
66
66
66
3E
00
00
00
00
ENDCHAR
STARTCHAR 252
ENCODING 252
SWIDTH 600 0
DWIDTH 8 0
BBX 8 16 0 -4
BITMAP
00
66
66
00
00
66
66
66
66
66
66
3E
00
00
00
00
ENDCHAR
STARTCHAR 253
ENCODING 253
SWIDTH 600 0
DWIDTH 8 0
BBX 8 16 0 -4
BITMAP
00
0E
0C
18
00
66
66
66
66
66
66
3E
06
06
06
3C
ENDCHAR
STARTCHAR 254
ENCODING 254
SWIDTH 600 0
DWIDTH 8 0
BBX 8 16 0 -4
BITMAP
00
00
60
60
60
7C
66
66
66
66
66
7C
60
60
60
00
ENDCHAR
STARTCHAR 255
ENCODING 255
SWIDTH 600 0
DWIDTH 8 0
BBX 8 16 0 -4
BITMAP
00
00
66
66
00
66
66
66
66
66
66
3E
06
06
06
3C
ENDCHAR
ENDFONT
