<?xml version="1.0" standalone="no"?>
<!DOCTYPE svg PUBLIC "-//W3C//DTD SVG 1.1//EN" "http://www.w3.org/Graphics/SVG/1.1/DTD/svg11.dtd" >
<svg xmlns="http://www.w3.org/2000/svg">
<metadata></metadata>
<defs>
<font id="oxygen_monoregular" horiz-adv-x="1229" >
<font-face units-per-em="2048" ascent="1638" descent="-410" />
<missing-glyph horiz-adv-x="500" />
<glyph />
<glyph />
<glyph unicode="&#xd;" />
<glyph />
<glyph />
<glyph />
<glyph />
<glyph />
<glyph />
<glyph />
<glyph />
<glyph unicode="&#x9;" />
<glyph unicode="&#xa;" />
<glyph />
<glyph />
<glyph />
<glyph />
<glyph />
<glyph />
<glyph />
<glyph />
<glyph />
<glyph />
<glyph />
<glyph />
<glyph />
<glyph />
<glyph />
<glyph />
<glyph />
<glyph />
<glyph />
<glyph />
<glyph unicode=" " />
<glyph unicode="!" d="M576 489l-89 1125h290l-89 -1125h-112zM777 0h-290v276h290v-276z" />
<glyph unicode="&#x22;" d="M518 1568l-51 -532h-143l-39 532h233zM885 1568l-51 -532h-141l-39 532h231z" />
<glyph unicode="#" d="M1124 997h-184l-85 -424h187l-15 -136h-195l-91 -462h-162l88 462h-247l-90 -462h-163l94 462h-216l13 136h229l80 423h-225l14 134h236l86 438h163l-85 -438h250l84 438h162l-86 -438h175zM529 997l-83 -424h250l84 424h-251z" />
<glyph unicode="$" d="M258 287q115 -94 282 -121l65 572q-44 18 -48 20q-45 19 -77.5 34t-73.5 38.5t-69 46.5t-57.5 55.5t-47 68t-29 82.5t-11.5 101q0 197 134 306t345 109q20 0 31 -1l21 186h127l-23 -198q150 -28 254 -109l-73 -160q-85 63 -201 87l-59 -513l30 -12q64 -29 110.5 -54.5 t98.5 -66t84 -86t53 -111t21 -144.5q0 -214 -133 -328t-358 -114h-10l-18 -161h-126l19 170q-187 27 -337 127zM922 427q0 95 -52.5 156t-144.5 105l-60 -531q125 1 191 70.5t66 199.5zM410 1180q0 -88 58 -143t159 -98l54 478q-3 0 -10 0.5t-11 0.5q-116 0 -182 -62 t-68 -176z" />
<glyph unicode="%" d="M285 1571q72 0 126.5 -34.5t85.5 -94.5t45.5 -130.5t14.5 -151.5q0 -113 -32 -206.5t-97 -151t-152 -57.5q-72 0 -127 35t-86.5 95t-47 130.5t-15.5 149.5q0 81 16.5 153t49 132t89 95.5t130.5 35.5zM971 -30q-72 0 -126.5 35t-86 95t-47 130.5t-15.5 150.5 q0 177 76.5 297t207.5 120q72 0 127 -35t85.5 -94.5t45.5 -130t15 -151.5q0 -114 -32.5 -207.5t-97.5 -151.5t-152 -58zM1148 1559l-900 -1565h-143l898 1565h145zM976 93q43 0 73 27.5t44.5 74t20.5 93t6 99.5q0 288 -144 288q-43 0 -73.5 -27.5t-45 -74.5t-20.5 -93.5 t-6 -99.5t6 -98.5t20.5 -91t45 -71.5t73.5 -26zM281 1449q-43 0 -73.5 -27.5t-45.5 -73.5t-21 -92.5t-6 -99.5q0 -54 6 -99.5t20.5 -91t45 -72t73.5 -26.5q42 0 72 27.5t45 74t21.5 93.5t6.5 98q0 53 -6 98.5t-20.5 91.5t-44.5 72.5t-73 26.5z" />
<glyph unicode="&#x26;" d="M61 413q0 279 285 468l-22 29q-13 16 -48.5 58t-52.5 66t-40.5 64.5t-34 84.5t-10.5 94q0 77 33 139t89 100t124.5 58t144.5 20q78 0 149.5 -20.5t129.5 -60t92.5 -102.5t34.5 -141q0 -64 -20.5 -122.5t-51.5 -101.5t-78 -84t-88 -68t-93 -56l361 -472q77 91 104 171 l153 -98q-51 -119 -146 -219l117 -152l-155 -92l-100 130q-198 -131 -420 -131q-213 0 -335 114t-122 324zM283 424q0 -134 65 -207.5t193 -73.5q152 0 292 100l-384 503q-166 -126 -166 -322zM341 1278q0 -45 17.5 -91.5t32.5 -69.5t53 -71.5t44 -56.5l21 -28 q48 27 82 51.5t69.5 60.5t54 83.5t18.5 103.5q0 84 -64 133.5t-147 49.5q-75 0 -128 -43t-53 -122z" />
<glyph unicode="'" d="M558 969l-62 611h259l-55 -611h-142z" />
<glyph unicode="(" d="M295 772q0 516 302 933h214q-284 -448 -284 -924q0 -267 74.5 -491t211.5 -442h-213q-305 407 -305 924z" />
<glyph unicode=")" d="M815 772q0 -517 -305 -924h-213q137 218 211.5 442t74.5 491q0 476 -284 924h214q302 -417 302 -933z" />
<glyph unicode="*" d="M1066 374l-185 -104l-261 403l-256 -403l-187 104l327 378l-455 147l94 180l413 -213l-36 464h202l-31 -464l409 213l96 -180l-457 -147z" />
<glyph unicode="+" d="M652 1286h162v-459h497v-151h-498v-459h-165v459h-496v151h500v459z" />
<glyph unicode="," d="M440 -313l51 599h297l-206 -599h-142z" />
<glyph unicode="-" d="M993 827v-155h-670v155h670z" />
<glyph unicode="." d="M764 0h-301v301h301v-301z" />
<glyph unicode="/" d="M914 1585h197l-709 -1809h-191z" />
<glyph unicode="0" d="M614 1363q-95 0 -163 -83.5t-100 -220.5t-32 -313q0 -267 72 -433l358 997q-59 53 -135 53zM614 -25q-99 0 -181 41t-138.5 112.5t-96 169.5t-57.5 211t-18 238q0 83 7.5 161.5t25 156t43.5 143.5t65.5 123.5t89 98t116 63.5t144.5 23t144.5 -23t116 -63.5t89 -98 t65.5 -123.5t43.5 -143.5t25 -156t7.5 -161.5q0 -125 -18 -238t-57.5 -211t-96 -169.5t-138.5 -112.5t-181 -41zM841 1170l-354 -994q57 -46 127 -46q95 0 163 83t100 220t32 313q0 259 -68 424z" />
<glyph unicode="1" d="M225 1287q206 85 376 205h188v-1492h-187v1290q-220 -124 -377 -184v181z" />
<glyph unicode="2" d="M186 1385q166 131 410 131q218 0 350 -123t132 -315q0 -56 -14.5 -110t-31 -91.5t-53 -87t-56.5 -72.5t-66 -72t-59 -63l-396 -436h661v-146h-867v191l460 542q5 5 41.5 47t47.5 56t39 52.5t39 63t21.5 61t10.5 70.5q0 123 -68 190.5t-189 67.5q-194 0 -341 -122z" />
<glyph unicode="3" d="M577 157q97 0 167.5 30.5t110.5 93t40 151.5q0 38 -9 71t-26 59t-40 47.5t-52 37t-61.5 27t-70 18t-75 10t-78.5 3.5h-110v178l110 2q81 1 141 12t112.5 36.5t80 74.5t27.5 120q0 106 -70.5 163.5t-200.5 57.5q-197 0 -341 -128l-69 161q158 134 434 134q206 0 337 -101 t131 -272q0 -74 -26.5 -133.5t-74 -99t-103 -65.5t-122.5 -42q59 -10 112 -30t103 -53t86 -76t58 -102.5t22 -128.5q0 -89 -28.5 -160.5t-78.5 -120t-120 -81.5t-151.5 -48t-174.5 -15q-120 0 -225.5 34.5t-180.5 90.5l70 160q52 -45 148.5 -80.5t197.5 -35.5z" />
<glyph unicode="4" d="M897 0h-187v398h-649v143l606 951h230v-954h242v-140h-242v-398zM710 1282l-460 -744h460v744z" />
<glyph unicode="5" d="M242 275q180 -145 373 -145q70 0 127.5 31.5t93 84t54.5 116.5t19 132q0 62 -16 117.5t-46.5 100t-80.5 71t-112 26.5q-25 0 -48 -6t-40.5 -16t-33 -21.5t-26 -23t-18 -21.5t-10.5 -16l-4 -6h-210v793h723v-146h-535v-466q4 4 11.5 10.5t31.5 23t48.5 29t60.5 23t70 10.5 q85 0 157 -26.5t122.5 -72.5t86 -107.5t53 -131t17.5 -143.5q0 -78 -19 -152.5t-58 -140.5t-94.5 -116t-134.5 -79.5t-171 -29.5q-151 0 -259.5 36t-205.5 108z" />
<glyph unicode="6" d="M640 -26q-229 0 -357.5 133.5t-128.5 364.5q0 255 164 466l454 554h242l-540 -640q40 25 99.5 42t116.5 17q193 0 308.5 -130.5t115.5 -331.5q0 -109 -39.5 -200t-105.5 -150.5t-151 -92t-178 -32.5zM352 437q0 -133 79 -221t209 -87q126 1 204 91t78 225t-73.5 227.5 t-198.5 92.5q-142 0 -220 -93.5t-78 -234.5z" />
<glyph unicode="7" d="M143 1323v169h885v-145l-424 -1347h-232l418 1323h-647z" />
<glyph unicode="8" d="M396 378q0 -117 59.5 -182.5t170.5 -65.5t171 65.5t60 182.5q0 231 -231 300q-230 -70 -230 -300zM1070 406q0 -204 -118.5 -317t-325.5 -113t-326 113t-119 317q0 98 45.5 176.5t112.5 124t152 71.5q-280 98 -280 364q0 174 117 274t298 100t298.5 -100t117.5 -274 q0 -266 -280 -364q63 -19 116.5 -50t97.5 -76.5t69 -108.5t25 -137zM849 1150q0 97 -62.5 155t-160.5 58q-97 0 -159.5 -58.5t-62.5 -154.5q0 -118 58 -182.5t164 -93.5q106 29 164.5 93.5t58.5 182.5z" />
<glyph unicode="9" d="M665 1517q230 0 359 -129.5t129 -358.5q0 -234 -164 -446l-450 -583h-242l534 669q-40 -25 -99.5 -42t-116.5 -17q-194 0 -308 121.5t-114 320.5q0 144 67.5 252t173.5 160.5t231 52.5zM953 1064q0 132 -78 215.5t-208 83.5q-126 0 -205 -86.5t-79 -220.5t73 -220 t199 -86q143 0 220.5 87.5t77.5 226.5z" />
<glyph unicode=":" d="M788 830h-301v300h301v-300zM788 144h-301v301h301v-301z" />
<glyph unicode=";" d="M410 -313l76 599h272l-168 -599h-180zM778 838h-299v301h299v-301z" />
<glyph unicode="&#x3c;" d="M1174 367v-177l-1022 499v118l1026 514v-179l-783 -393z" />
<glyph unicode="=" d="M1194 898h-1160v150h1160v-150zM1195 457h-1160v148h1160v-148z" />
<glyph unicode="&#x3e;" d="M158 1155v166l1020 -527v-95l-1026 -486v167l781 373z" />
<glyph unicode="?" d="M523 556q0 -57 19 -156h-182q-11 86 -11 169l-1 1q0 62 21 116t59 96.5t75 74.5t85.5 71t74.5 65q52 53 81 105.5t29 123.5q0 61 -26.5 107t-73.5 71.5t-103.5 38t-122.5 12.5q-142 0 -279 -74v158q150 71 279 71q86 0 160 -12t140 -40t112 -70.5t73 -107t27 -145.5 q0 -73 -30.5 -132t-82.5 -120q-30 -35 -94 -97.5t-109.5 -107.5t-82.5 -106t-37 -112zM328 -12v228h242v-228h-242z" />
<glyph unicode="@" d="M920 523q0 -47 22 -92t57 -45q47 0 84 63t56.5 155t29.5 176t10 144q0 148 -43 266t-130.5 189.5t-206.5 71.5q-251 0 -423 -227q-82 -109 -129.5 -258.5t-47.5 -324.5q0 -182 52 -325t158.5 -229t253.5 -86q237 0 443 172l88 -76q-239 -228 -542 -228q-107 0 -199 32.5 t-158.5 89.5t-118 132t-83 162.5t-47 177t-15.5 180.5q0 202 60.5 377.5t164.5 298t247 192.5t304 70q105 0 190.5 -35.5t144 -97t98.5 -147t58.5 -183.5t18.5 -208q0 -183 -56 -339.5t-153 -241.5q-59 -52 -120 -52q-79 0 -123 51.5t-54 135.5q-113 -195 -224 -195 q-61 0 -106 32t-70 87.5t-36.5 120.5t-11.5 141q0 143 40 273.5t116 215.5t169 85q62 0 104.5 -47.5t68.5 -114.5l21 127h135q-10 -80 -36 -206t-43.5 -240t-17.5 -220zM802 890q0 191 -104 191q-50 0 -88 -50t-57 -126.5t-28 -148.5t-9 -136q0 -226 98 -226q61 0 123 148 q65 156 65 348z" />
<glyph unicode="A" d="M728 1491l461 -1491h-205l-151 473h-439l-150 -473h-204l460 1491h228zM433 636h362l-178 590z" />
<glyph unicode="B" d="M756 808q144 -29 238.5 -121.5t94.5 -228.5q0 -103 -30 -182t-82.5 -131t-130 -85t-166.5 -46.5t-198 -13.5h-347v1491h248q72 0 133.5 -4t127 -14.5t118 -27.5t101 -45.5t80.5 -66t51 -90.5t19 -118q0 -122 -69.5 -203.5t-187.5 -113.5zM893 440q0 64 -19 111.5 t-52 77.5t-83.5 48t-107 24.5t-129.5 6.5h-180v-562h129q77 0 139.5 8t120 28.5t97 53t62.5 84.5t23 120zM466 874q351 0 351 216q0 50 -14.5 89.5t-37 66t-61 45.5t-76 29.5t-93.5 16t-101.5 7t-111.5 1.5v-471h144z" />
<glyph unicode="C" d="M1159 1389l-70 -131q-144 105 -330 105q-91 0 -164.5 -33t-123 -89.5t-83 -135.5t-48.5 -168t-15 -189q0 -130 27 -241t79 -196t136 -133t191 -48q184 0 333 114l69 -141q-156 -128 -421 -128q-193 0 -333 104.5t-208.5 277.5t-68.5 393q0 225 75 399t214 270.5t321 96.5 q264 0 420 -127z" />
<glyph unicode="D" d="M135 1491h207q359 0 550 -194.5t191 -550.5q0 -361 -193.5 -553.5t-566.5 -192.5h-188v1491zM322 146q565 0 565 601q0 598 -565 598v-1199z" />
<glyph unicode="E" d="M404 684v-538h737l-15 -146h-909v1491h891l-16 -146h-688v-502h655v-159h-655z" />
<glyph unicode="F" d="M431 683v-683h-187v1491h865l-18 -146h-660v-499h634v-163h-634z" />
<glyph unicode="G" d="M1056 1227q-149 136 -342 136q-107 0 -187 -52t-125.5 -141t-67 -195t-21.5 -227q0 -125 24.5 -234.5t72 -196.5t125.5 -137t179 -50q142 0 287 87v408h-347v153h520v-646q-113 -72 -227.5 -114.5t-250.5 -42.5q-142 0 -254.5 61.5t-182.5 168.5t-106 245.5t-36 299.5 q0 222 67.5 394.5t200 272.5t311.5 100q279 0 430 -129z" />
<glyph unicode="H" d="M327 0h-187v1491h187v-636h575v636h187v-1491h-187v702h-575v-702z" />
<glyph unicode="I" d="M194 1345v146h841v-146h-331v-1199h331v-146h-841v146h323v1199h-323z" />
<glyph unicode="J" d="M137 134h213q128 0 176 59t48 198v954h-345v146h831v-146h-299v-902q0 -125 -18.5 -210t-63 -144.5t-120 -87t-188.5 -27.5h-234v160z" />
<glyph unicode="K" d="M928 1491h233l-500 -668l583 -823h-238l-489 700l-119 -139v-561h-187v1491h187v-718z" />
<glyph unicode="L" d="M420 146h709v-146h-896v1491h187v-1345z" />
<glyph unicode="M" d="M335 1230v-1230h-186v1491h255l213 -689l213 689h249v-1491h-181v1230l-177 -584h-209z" />
<glyph unicode="N" d="M1078 0h-220l-538 1206v-1206h-170v1491h215l546 -1202v1202h167v-1491z" />
<glyph unicode="O" d="M614 -25q-123 0 -219 62.5t-154.5 170.5t-88 245t-29.5 294q0 118 15 225t51 208t91 174.5t140.5 117.5t193.5 44t193.5 -44t140.5 -117.5t91 -174.5t51 -208t15 -225q0 -157 -29.5 -294t-88 -245t-154.5 -170.5t-219 -62.5zM614 1363q-95 0 -163 -83.5t-100 -220.5 t-32 -313t32 -313t100 -220t163 -83t163 83t100 220t32 313t-32 313t-100 220.5t-163 83.5z" />
<glyph unicode="P" d="M1191 1062q0 -70 -14 -128t-36.5 -101.5t-61.5 -78t-80 -58t-101 -40.5t-114 -26t-130.5 -14.5t-139.5 -7t-151 -1.5v-607h-187v1491h412q101 0 187.5 -13t164.5 -44.5t132.5 -80t86.5 -122.5t32 -169zM363 769h289q146 0 244.5 73.5t98.5 210.5q0 75 -26.5 132 t-73.5 91.5t-106.5 51.5t-129.5 17h-296v-576z" />
<glyph unicode="Q" d="M764 20q93 -187 276 -350l-124 -128q-216 209 -330 439zM575 -25q-123 0 -219 62.5t-154.5 170.5t-88 245t-29.5 294q0 118 15 225t51 208t91 174.5t140.5 117.5t193.5 44t193.5 -44t140.5 -117.5t91 -174.5t51 -208t15 -225q0 -157 -29.5 -294t-88 -245t-154.5 -170.5 t-219 -62.5zM575 1363q-95 0 -163 -83.5t-100 -220.5t-32 -313t32 -313t100 -220t163 -83t163 83t100 220t32 313t-32 313t-100 220.5t-163 83.5z" />
<glyph unicode="R" d="M1115 1093q0 -158 -90.5 -255.5t-240.5 -130.5q53 -49 99.5 -112.5t89 -144.5t70.5 -142t71 -161t64 -147l-217 -1q-23 50 -74.5 169.5t-81.5 184.5t-83.5 152t-110.5 148q-53 9 -151 9h-87v-662h-187v1491h290q94 0 168 -5.5t150.5 -20.5t131.5 -43.5t99.5 -71.5 t67 -108t22.5 -149zM517 824q390 0 390 267q0 68 -27 118.5t-75.5 79.5t-108.5 42.5t-133 13.5h-190v-521h144z" />
<glyph unicode="S" d="M212 261q160 -131 381 -131q120 0 185 73.5t65 200.5q0 37 -9.5 69t-23.5 56t-39.5 47t-46.5 37.5t-55.5 31.5t-57 26l-60 24t-55.5 23q-62 26 -103.5 46.5t-91.5 56.5t-80 75t-50.5 97.5t-20.5 129.5q0 187 127 290.5t327 103.5q252 0 393 -111l-70 -144 q-60 47 -140.5 74t-172.5 27q-118 0 -187.5 -64.5t-69.5 -177.5q0 -44 18 -81.5t43 -62t66.5 -48.5t72.5 -36.5t79 -31t70 -28.5q60 -27 103 -49.5t92.5 -60t80.5 -78.5t51.5 -100.5t20.5 -129.5q0 -215 -124.5 -327.5t-340.5 -112.5q-269 0 -448 119z" />
<glyph unicode="T" d="M1199 1491v-146h-494v-1345h-187v1345h-488v146h1169z" />
<glyph unicode="U" d="M614 -25q-485 0 -485 567v949h187v-943q0 -75 8 -135t28 -114.5t53 -90.5t86 -57t123 -21t123 21t86 57t53 90.5t28 114.5t8 135v943h187v-949q0 -567 -485 -567z" />
<glyph unicode="V" d="M967 1491h205l-450 -1491h-217l-448 1491h205l355 -1268z" />
<glyph unicode="W" d="M924 210l97 1281h195l-158 -1490h-249l-181 702l-203 -702h-246l-166 1490h198l119 -1278l192 667h213z" />
<glyph unicode="X" d="M92 1491h248l289 -599l312 599h228l-420 -728l428 -763h-244l-322 632l-325 -632h-234l447 762z" />
<glyph unicode="Y" d="M715 0h-212v593l-454 898h226l335 -703l339 703h231l-465 -898v-593z" />
<glyph unicode="Z" d="M343 146h652v-146h-893v143l647 1202h-612v146h867v-127z" />
<glyph unicode="[" d="M387 -131v1856q1 4 5 5h514q4 -1 5 -5v-132q-1 -4 -5 -5h-330v-1582h331q4 -1 5 -5v-132q-1 -4 -5 -5h-515q-4 1 -5 5z" />
<glyph unicode="\" d="M1100 -48h-180l-709 1809h184z" />
<glyph unicode="]" d="M697 -131v1856q-1 4 -5 5h-514q-4 -1 -5 -5v-132q1 -4 5 -5h330v-1582h-331q-4 -1 -5 -5v-132q1 -4 5 -5h515q4 1 5 5z" />
<glyph unicode="^" d="M644 1554h113l539 -957h-171l-427 771l-414 -771h-173z" />
<glyph unicode="_" d="M4 -296v139h1072v-139h-1072z" />
<glyph unicode="`" d="M654 1705l283 -437h-139l-380 437h236z" />
<glyph unicode="a" d="M536 -25q-156 0 -257.5 80.5t-101.5 224.5q0 57 16 102.5t42 76.5t68 54t86 36.5t104 21t114 10t123 2.5h146v173q0 242 -240 242q-198 0 -364 -84l-44 141q178 75 427 75q183 0 293 -83t110 -256v-791h-159l-24 84q-184 -109 -339 -109zM542 108q133 0 334 79v281h-149 q-49 0 -83.5 -1.5t-82.5 -6.5t-80.5 -17t-63.5 -31t-46.5 -50.5t-15.5 -72.5q0 -84 50 -132.5t137 -48.5z" />
<glyph unicode="b" d="M310 946q58 90 138 137t204 47q113 0 201.5 -44t144 -121t84.5 -178t29 -219q0 -123 -27.5 -228t-81.5 -188t-143.5 -130t-205.5 -47q-118 0 -198.5 45.5t-144.5 129.5l-2 -150h-180v1565h182v-619zM310 555q0 -93 17 -169t53 -138.5t100 -97t151 -34.5q67 0 119 25.5 t85 67t54.5 100t30 118.5t8.5 128q0 435 -297 435q-321 0 -321 -435z" />
<glyph unicode="c" d="M330 557q0 -207 90 -324.5t274 -117.5q174 0 304 95l69 -125q-147 -110 -387 -110q-265 0 -413.5 156t-148.5 425q0 262 151 418t411 156q235 0 387 -110l-69 -147q-132 117 -307 117q-182 0 -271.5 -115t-89.5 -318z" />
<glyph unicode="d" d="M919 946v619h182v-1565h-180l-2 150q-64 -84 -144.5 -129.5t-198.5 -45.5q-116 0 -205.5 47t-143.5 130t-81.5 188t-27.5 228q0 118 29 219t84.5 178t144 121t201.5 44q124 0 204 -47t138 -137zM919 555q0 435 -321 435q-297 0 -297 -435q0 -68 8.5 -128.5t30 -118.5 t54.5 -100t85 -67.5t119 -25.5q87 0 151 35t100 97.5t53 138.5t17 169z" />
<glyph unicode="e" d="M870 653q-20 337 -236 337q-72 0 -127.5 -27t-90 -75.5t-55 -106.5t-28.5 -128h537zM619 -25q-79 0 -147 20.5t-120 58.5t-92 90.5t-65.5 117.5t-38.5 138.5t-13 154.5q0 121 33.5 225.5t95.5 182.5t155 122.5t207 44.5q61 0 114 -15t94 -42.5t75 -67t57 -86.5t39 -102 t23.5 -114t7.5 -122l-1 -61h-716q2 -55 10.5 -104t24.5 -95t40.5 -83t56.5 -65t76 -43t97 -15q182 0 310 134l80 -124q-83 -75 -176 -112.5t-227 -37.5z" />
<glyph unicode="f" d="M942 1424q-75 0 -121 -8.5t-79.5 -33t-47 -68t-13.5 -114.5v-103h459v-140h-459v-817h355v-140h-856v140h319v817h-343v140h343q0 79 3.5 133.5t14.5 110t32 90.5t55 67t84 49.5t118.5 27.5t159.5 10h174v-161h-198z" />
<glyph unicode="g" d="M599 990q-298 0 -298 -440q0 -75 16 -141.5t49 -123t91 -90t134 -33.5q84 0 146 33.5t96 91.5t49.5 124.5t15.5 144.5q0 434 -299 434zM898 210q-33 -85 -123 -147.5t-200 -62.5q-112 0 -200.5 44t-143.5 120.5t-84 176.5t-29 215q0 166 49 293t154.5 204t257.5 77 q208 0 319 -182l6 149h185q-9 -245 -9 -651v-294q0 -180 -36 -294.5t-126.5 -187.5t-233 -102t-367.5 -29v140q112 0 190.5 7t147.5 26t112 51t74 83.5t44 122.5t13 168v73z" />
<glyph unicode="h" d="M680 1130q92 0 159 -34t106.5 -97.5t58 -147t18.5 -189.5v-662h-182v639q0 62 -4 108t-16.5 94.5t-34 79t-59.5 50t-90 19.5q-63 0 -120.5 -29.5t-94 -71.5t-58 -84.5t-21.5 -71.5v-733h-182v1565h182v-614q33 43 60 70.5t67 55t92.5 40.5t118.5 13z" />
<glyph unicode="i" d="M266 957v140h522v-957h397v-140h-988v140h409v817h-340zM576 1386v99q0 36 40 63.5t81 27.5t81 -27.5t40 -63.5v-99q0 -36 -40 -63.5t-81 -27.5t-81 27.5t-40 63.5z" />
<glyph unicode="j" d="M589 1386v99q0 36 40 63.5t81 27.5t81 -27.5t40 -63.5v-99q0 -36 -40 -63.5t-81 -27.5t-81 27.5t-40 63.5zM410 -220q49 0 80.5 4t56.5 17t38.5 31.5t22 54t11 77t2.5 107.5v886h-485v140h667v-970q0 -82 -2 -131t-10 -107.5t-24 -91t-44 -67.5t-70 -51.5t-102 -27.5 t-140 -11h-276v140h275z" />
<glyph unicode="k" d="M382 648l542 449h240l-540 -456l542 -641h-228l-444 546l-112 -95v-451h-182v1565h182v-917z" />
<glyph unicode="l" d="M195 1425v140h593v-1425h471v-140h-1134v140h481v1285h-411z" />
<glyph unicode="m" d="M893 990q-46 0 -81 -21t-55 -53t-33 -75t-17 -81.5t-4 -79.5v-680h-170v638q0 352 -139 352q-53 0 -93 -44t-58.5 -104t-18.5 -121v-721h-176v1097h152l13 -165q13 34 33 66.5t47.5 63.5t64 49.5t75.5 18.5q52 0 92 -17t65.5 -49.5t40.5 -65.5t27 -78q24 41 36.5 60.5 t41.5 53.5t55.5 51t68.5 31t91 14q60 0 105.5 -25t72 -64t43 -97t22 -115t5.5 -126v-703h-176v602q0 46 -1 79t-4.5 83.5t-12.5 85.5t-22.5 69.5t-36.5 52.5t-53 18z" />
<glyph unicode="n" d="M715 1130q341 0 341 -432v-698h-182v640v13v58t-2 53.5t-6 53t-11.5 46.5t-18.5 43t-28 33.5t-39 27.5t-51.5 15.5t-66.5 6.5q-106 0 -179 -71.5t-73 -186.5v-732h-182v1097h167l10 -139q57 79 132 125.5t189 46.5z" />
<glyph unicode="o" d="M612 1130q160 0 274 -76t169 -203.5t55 -292.5q0 -261 -137.5 -422t-360.5 -161q-118 0 -213 45t-155.5 123.5t-93 182.5t-32.5 225q0 260 136 419.5t358 159.5zM302 550q0 -84 17 -158.5t52 -138t97 -101t144 -37.5q85 0 148 37t98.5 101t52.5 139t17 161q0 68 -10 129 t-33.5 118t-59 98.5t-90.5 66.5t-123 25q-82 0 -144 -38t-97 -102.5t-52 -140t-17 -159.5z" />
<glyph unicode="p" d="M310 946q58 90 138 137t204 47q113 0 201.5 -44t144 -121t84.5 -178t29 -219q0 -123 -27.5 -228t-81.5 -188t-143.5 -130t-205.5 -47q-118 0 -198.5 45.5t-144.5 129.5l-2 -591h-180v1538h182v-151zM310 555q0 -93 17 -169t53 -138.5t100 -97.5t151 -35q67 0 119 25.5 t85 67.5t54.5 100t30 118.5t8.5 128.5q0 435 -297 435q-321 0 -321 -435z" />
<glyph unicode="q" d="M919 946v151h182v-1538h-180l-2 591q-64 -84 -144.5 -129.5t-198.5 -45.5q-116 0 -205.5 47t-143.5 130t-81.5 188t-27.5 228q0 118 29 219t84.5 178t144 121t201.5 44q124 0 204 -47t138 -137zM919 555q0 435 -321 435q-297 0 -297 -435q0 -68 8.5 -128.5t30 -118.5 t54.5 -100t85 -67.5t119 -25.5q87 0 151 35t100 97.5t53 138.5t17 169z" />
<glyph unicode="r" d="M1026 961q-173 0 -268.5 -87t-95.5 -264v-470h389v-140h-911v140h340v817h-224v140h373l15 -203q137 236 408 236h137v-169h-163z" />
<glyph unicode="s" d="M621 136q57 0 100.5 7t82.5 24.5t59.5 52t20.5 84.5q0 34 -17.5 62t-42 44.5t-65 32t-70 22.5t-75 16.5t-64.5 14.5q-57 15 -100 30t-89.5 41.5t-76 59t-49 82t-19.5 110.5q0 78 34 139t92 97.5t131 55.5t155 19q253 0 403 -69l-58 -147q-137 76 -336 76 q-90 0 -150 -39.5t-60 -125.5q0 -35 17.5 -63.5t41.5 -45.5t64 -32t70 -22t75.5 -17t65.5 -15q60 -16 100 -29.5t88.5 -39t77 -55.5t48.5 -78.5t20 -108.5q0 -88 -37.5 -155.5t-102 -108t-145.5 -60.5t-174 -20q-293 0 -433 101l58 155q134 -95 360 -95z" />
<glyph unicode="t" d="M681 957v-515q0 -87 17.5 -145t57 -93t97 -49.5t142.5 -14.5h187v-140h-180q-149 0 -244.5 25t-154 86t-81.5 152.5t-23 234.5v459h-290v140h290v378l182 54v-432h490v-140h-490z" />
<glyph unicode="u" d="M614 -25q-199 0 -311.5 114.5t-112.5 314.5v693h182v-709q0 -124 61 -198.5t181 -74.5t181 74.5t61 198.5v709h182v-693q0 -200 -112.5 -314.5t-311.5 -114.5z" />
<glyph unicode="v" d="M618 189q87 237 321 908h202l-427 -1097h-203l-424 1097h210z" />
<glyph unicode="w" d="M432 0h-186l-222 1097h183l139 -877l175 877h217l159 -874l135 874h172l-221 -1097h-192l-163 883z" />
<glyph unicode="x" d="M158 1097h208l261 -422l261 422h189l-337 -532l349 -565h-202l-268 437l-279 -437h-200l360 560z" />
<glyph unicode="y" d="M652 205l331 892h201q-341 -843 -431 -1081v1q-3 -6 -23 -75q-26 -93 -78 -159.5t-128 -107.5t-163 -63.5t-201 -34.5v156q73 8 121.5 16.5t102 28.5t85.5 50t54.5 79.5t25.5 116.5q-139 319 -252.5 587t-158.5 377l-44 109h218z" />
<glyph unicode="z" d="M213 1097h767v-138l-578 -819h615v-140h-824v142l559 815h-539v140z" />
<glyph unicode="{" d="M514 455q0 117 -80.5 181.5t-208.5 72.5v135q129 8 209 72t80 181v233q0 197 82.5 287t276.5 89l228 -1v-136h-228q-32 0 -55.5 -8t-38 -25.5t-23.5 -36.5t-13.5 -50t-5.5 -55.5t-1 -63.5v-241q0 -58 -12 -103.5t-31 -76t-53 -56t-66.5 -41.5t-83.5 -36q51 -20 83.5 -36 t66.5 -41.5t53 -55.5t31 -75.5t12 -103.5v-241q0 -47 1.5 -76t9 -64t22 -54t40.5 -32.5t64 -13.5h228v-135l-228 -1q-194 -1 -276.5 89t-82.5 287v232z" />
<glyph unicode="|" d="M530 -441v2026h161v-2026h-161z" />
<glyph unicode="}" d="M815 1097q0 -117 80 -181t209 -72v-135q-128 -8 -208.5 -72.5t-80.5 -181.5v-232q0 -197 -82.5 -287t-276.5 -89l-229 1v135h229q38 0 64 13.5t40.5 32.5t22 54t9 64t1.5 76v241q0 72 16 123.5t52 86.5t74.5 56t102.5 46q-51 20 -83.5 36t-66.5 41.5t-52.5 56t-30.5 76 t-12 103.5v241q0 39 -1 63.5t-5.5 55.5t-13.5 50t-23.5 36.5t-38 25.5t-55.5 8h-229v136l229 1q194 1 276.5 -89t82.5 -287v-233z" />
<glyph unicode="~" d="M1332 1108q-8 -36 -12 -54.5t-13 -51.5t-16.5 -51.5t-20 -45t-25.5 -42t-32 -33.5t-40 -27t-49 -15.5t-60 -6.5q-24 0 -49 4t-54 13t-47.5 15t-53 19.5t-45.5 17.5q-279 103 -332 119q-15 5 -28 5q-93 0 -121 -190l-182 60q12 58 31 108t50.5 97t79.5 74t107 27 q46 0 103 -14.5t83 -24t92 -36.5q7 -3 47.5 -19.5l54 -22t48.5 -19t55.5 -20.5t50 -16t54.5 -15q14 -4 23 -4q23 0 41.5 12.5t30 29t20.5 44t13.5 47t9.5 47.5q1 7 2 11z" />
<glyph />
<glyph />
<glyph />
<glyph />
<glyph />
<glyph />
<glyph unicode="&#x85;" />
<glyph />
<glyph />
<glyph />
<glyph />
<glyph />
<glyph />
<glyph />
<glyph />
<glyph />
<glyph />
<glyph />
<glyph />
<glyph />
<glyph />
<glyph />
<glyph />
<glyph />
<glyph />
<glyph />
<glyph />
<glyph />
<glyph />
<glyph />
<glyph />
<glyph />
<glyph />
<glyph unicode="&#xa0;" />
<glyph unicode="&#xa1;" d="M542 -417v1170h173v-1170h-173zM723 1184v-225h-236v225h236z" />
<glyph unicode="&#xa2;" d="M779 117q173 9 306 127l51 -150q-145 -112 -369 -118l-15 -253h-126v259q-210 30 -332 179.5t-122 383.5q0 132 41.5 242t113 184.5t167 118t205.5 49.5l15 229h143l-16 -235q194 -26 287 -149l-82 -116q-76 94 -213 120zM690 988q-150 -23 -238 -142.5t-88 -292.5 q0 -167 69.5 -278.5t201.5 -143.5z" />
<glyph unicode="&#xa3;" d="M806 1418q-302 0 -302 -390l4 -125h366v-154h-363q0 -23 0.5 -71t0.5 -73q0 -110 -6 -185t-32 -152.5t-73 -114.5h787v-153h-1068l-1 150q64 36 105.5 74.5t69 103.5t27.5 150v271h-202v154h201q-7 59 -7 123q0 162 52 283t164 192t275 71q239 0 364 -99l-58 -130 q-122 75 -304 75z" />
<glyph unicode="&#xa4;" d="M773 1106q229 -101 229 -386l1 -1q0 -120 -46.5 -212.5t-126.5 -143.5l166 -303l-38 -18l-166 300q-102 -46 -186 -46q-94 0 -143 14l-106 -268l-41 18l103 266q-114 44 -179.5 142.5t-65.5 243.5q0 136 53.5 233t149.5 148l-167 302l44 17l166 -302q68 31 156 31 q79 0 152 -19l114 290l46 -17zM276 715q0 -152 84.5 -247t230.5 -95t228 95.5t82 247.5q0 156 -82 251t-232 95q-145 0 -228 -97.5t-83 -249.5z" />
<glyph unicode="&#xa5;" d="M611 0v307h-440l-12 152h451v164h-447v155h408l-493 763h227q41 -67 129 -210.5t154.5 -253.5t126.5 -213l412 677h207l-504 -763h402v-155h-432v-164h436v-152h-433v-307h-192z" />
<glyph unicode="&#xa6;" d="M539 427h172v-960h-172v960zM539 1677h172v-942h-172v942z" />
<glyph unicode="&#xa7;" d="M960 1416q-131 57 -249 57q-238 0 -238 -143q0 -27 8.5 -51.5t20.5 -43t33.5 -36t40 -29t46.5 -25t47 -21t48 -18.5t43 -17q123 -52 170 -83q116 -80 117 -206q0 -50 -18 -94t-51.5 -78.5t-64 -57.5t-71.5 -48q179 -91 179 -248q0 -82 -38 -146t-102.5 -102.5t-143 -58 t-165.5 -19.5q-163 0 -299 57l-1 161q149 -69 294 -69q50 0 94.5 8.5t83.5 27t62 52.5t23 79q0 32 -15.5 60t-37.5 47t-57 37t-62 28.5t-65.5 24t-55.5 20.5q-51 21 -83 36t-76.5 43.5t-69.5 58t-44 75t-19 99.5q0 51 18 94t50.5 75t64.5 54t74 44q-77 45 -122.5 105 t-45.5 150q0 82 33.5 142.5t93.5 95.5t134 51.5t162 16.5q100 0 253 -45zM692 594q32 19 52.5 33.5t48 39t42 55t14.5 64.5q0 35 -18.5 64t-51.5 50t-64 35.5t-71.5 30.5t-57.5 25q-147 -77 -147 -185q0 -23 8 -44t18.5 -36.5t30.5 -32t35.5 -26.5t42 -23t41 -19t41.5 -16.5 t36 -14.5z" />
<glyph unicode="&#xa8;" d="M330 1448q86 0 184 10q0 -86 11 -179q-90 0 -184 -11q0 87 -11 180zM765 1279q9 104 9 179q98 -10 184 -10q-12 -86 -12 -180q-96 11 -181 11z" />
<glyph unicode="&#xa9;" d="M1793 787q0 -128 -35 -241.5t-97.5 -201t-139 -153.5t-168.5 -115q-208 -110 -449 -110q-263 0 -461 110.5t-314 292.5q-123 192 -123 419q0 128 35.5 241.5t98.5 201t140 153t169 115.5q207 111 449 111q262 0 457.5 -111t313.5 -294q123 -192 123 -418h1zM896 1483 q-214 0 -386.5 -90t-268 -243t-95.5 -337q0 -135 41 -252.5t111.5 -202t163.5 -145.5t198.5 -91t215.5 -30q173 0 319 53.5t245.5 146.5t154.5 220.5t55 273.5q0 134 -45 249.5t-120 196.5t-173 138.5t-204 85t-212 27.5zM1234 1069q-121 104 -297 104q-167 0 -268 -104.5 t-101 -273.5h2q0 -173 104 -277.5t277 -104.5q175 0 278 86l44 -131q-139 -98 -341 -98q-122 0 -224.5 44t-168.5 117.5t-102.5 167t-36.5 193.5q0 123 45 223.5t121.5 164t173.5 97.5t204 34q191 0 325 -111z" />
<glyph unicode="&#xaa;" d="M327 1466q82 138 314 138q143 0 223.5 -65.5t80.5 -198.5q0 -43 -2 -127.5t-2 -126.5q0 -123 10 -233h-145l-7 80q-79 -99 -244 -99q-119 0 -199 58.5t-80 165.5q0 45 14 81t35.5 60t57.5 42t70 28t82.5 17.5t86 11t90 8.5t85.5 9q0 96 -35 133.5t-129 37.5 q-165 0 -232 -102zM580 945q102 0 160 64t58 169v27q-26 -5 -71 -8.5t-82 -6t-79 -11t-70.5 -21t-47.5 -37.5t-19 -60q0 -116 151 -116z" />
<glyph unicode="&#xab;" d="M679 992l-293 -404l282 -403h-173l-298 403l305 404h177zM1086 992l-292 -404l283 -403h-173l-297 403l303 404h176z" />
<glyph unicode="&#xac;" d="M1146 715h-994v151h1159v-608h-165v457z" />
<glyph unicode="&#xad;" />
<glyph unicode="&#xae;" d="M1793 785q0 -128 -35 -241.5t-97.5 -201t-139 -153.5t-168.5 -115q-210 -111 -449 -111q-263 0 -461 110.5t-314 292.5q-123 192 -123 420q0 128 35.5 242t99 201t140 152.5t168.5 115.5q207 111 449 111q262 0 458 -111t313 -294q123 -193 123 -418h1zM146 788 q0 -137 45.5 -253.5t122 -197t177.5 -137.5t212 -83.5t225 -26.5q161 0 299 57t229 151.5t142.5 214.5t51.5 248q0 135 -41 252t-111.5 202t-163.5 146t-198 91t-214 30q-174 0 -320.5 -53.5t-245.5 -146.5t-154.5 -220.5t-55.5 -273.5zM1167 296q-17 30 -49.5 88 t-55.5 97.5t-54.5 87.5t-66.5 86.5t-72 65.5h-151v-425h-164v998h301l-1 -1q98 0 175.5 -11.5t149.5 -40t112 -86t40 -141.5q0 -121 -83 -190t-210 -84q45 -43 93.5 -105.5t72.5 -98.5t81.5 -129.5t67.5 -110.5h-186zM853 848h1h1h1h1h1h1h1h1h1h1h1h1h2q143 0 197 17 q96 30 96 134q0 163 -206 163h-239v-314h138z" />
<glyph unicode="&#xaf;" d="M326 1499v140h947v-140h-947z" />
<glyph unicode="&#xb0;" d="M653 1054q90 0 152.5 55.5t62.5 140.5t-63 138.5t-152 53.5t-152 -54t-63 -138q0 -85 62.5 -140.5t152.5 -55.5zM1006 1248q0 -138 -104.5 -228.5t-248.5 -90.5q-152 0 -253 99t-101 220q0 139 104.5 229t249.5 90q102 0 184.5 -47.5t125.5 -120t43 -151.5z" />
<glyph unicode="&#xb1;" d="M644 1201h166v-406h499v-150h-496v-403h-166v403h-495v150h492v406zM152 150h1160v-150h-1160v150z" />
<glyph unicode="&#xb2;" d="M604 1564q138 0 225 -62t87 -185q0 -85 -40 -156t-104 -141q-18 -20 -41 -42.5t-40 -39t-47 -42.5t-42.5 -37t-46.5 -40t-41 -35h401v-128h-603v120q25 23 75 67t81.5 72.5t76.5 72t77 79t66 80t59 86.5q27 47 27 82h1q0 60 -43.5 90.5t-110.5 30.5q-139 0 -207 -142 l-95 84q36 80 111 133t174 53z" />
<glyph unicode="&#xb3;" d="M379 846q93 -85 201 -85v-1q83 0 138 37t55 110q0 146 -238 146l-62 -2v130q36 0 56.5 0.5t53.5 3t52.5 7t43 14t36.5 23.5t22 35t9 48q0 122 -156 122q-104 0 -213 -84l-64 104q119 110 280 110q130 0 215 -68.5t85 -189.5q0 -122 -119 -186q142 -62 142 -215 q0 -125 -96 -197t-234 -72q-165 0 -273 105z" />
<glyph unicode="&#xb4;" d="M418 1268l261 437h232l-351 -437h-142z" />
<glyph unicode="&#xb5;" />
<glyph unicode="&#xb6;" d="M66 1227q0 83 32.5 146t85 100.5t129 61t154 32t170.5 8.5h428v-134h-96v-1601h-144v1601h-230v-1601h-157v1013q-163 2 -267.5 107t-104.5 267z" />
<glyph unicode="&#xb7;" d="M494 557v228h241v-228h-241z" />
<glyph unicode="&#xb8;" d="M731 -261q0 78 -122 78q-7 0 -75 -5l35 207h108l-20 -117l9 1q99 0 160.5 -39t61.5 -124q0 -168 -271 -168q-76 0 -189 23l9 92q111 -26 167 -26q127 0 127 78z" />
<glyph unicode="&#xb9;" d="M564 1381q-80 -41 -168 -75l1 141q95 32 185 86l116 16v-768h135v-125h-403v129h134v596z" />
<glyph unicode="&#xba;" d="M684 833q-185 0 -294 103t-109 284q0 175 110.5 278.5t290.5 103.5q184 0 291 -102.5t107 -282.5q0 -175 -108.5 -279.5t-287.5 -104.5zM684 950q112 0 177.5 73.5t65.5 190.5q0 125 -63 198.5t-183 73.5q-116 0 -180 -73.5t-64 -194.5q0 -122 64.5 -195t182.5 -73z" />
<glyph unicode="&#xbb;" d="M197 185l292 404l-286 403h177l298 -403l-305 -404h-176zM636 185l290 404l-281 403h172l299 -403l-307 -404h-173z" />
<glyph unicode="&#xbc;" d="M1354 245h-418v100l404 561h150v-545h120l11 -116h-134v-244l-133 40v204zM409 1h-167l1002 1559h164zM191 1381q-91 -48 -168 -75l1 141q92 30 185 86l117 16v-768h135v-125h-404v129h134v596zM1353 361q0 35 -0.5 104.5t-0.5 104.5q0 51 2 155l-263 -364h262z" />
<glyph unicode="&#xbd;" d="M1207 881q140 0 227 -61t87 -185q0 -85 -40 -156.5t-104 -141.5q-21 -24 -46 -48.5t-56 -52t-51 -45t-57.5 -48.5t-49.5 -42h403v-127h-606v120q28 25 90 80t100 90t88.5 85.5t89.5 100t69 100.5q27 47 27 82h2q0 61 -44 91.5t-112 30.5q-136 0 -207 -142l-93 85 q36 79 110 131.5t173 52.5zM323 1h-166l1003 1559h163zM171 1381q-76 -39 -169 -75l1 141q100 34 185 86l116 16v-768h136v-125h-404v129h135v596z" />
<glyph unicode="&#xbe;" d="M1383 248h-418v98l403 563h150v-546h121l11 -115h-134v-249l-133 45v204zM457 -1h-167l1003 1559h164zM86 846q95 -85 201 -85v-1q83 0 138 37t55 110q0 146 -237 146l-62 -2v130q36 0 56.5 0.5t53.5 3t52 7t43 14t36.5 23.5t21.5 35t9 48q0 122 -155 122 q-104 0 -213 -84l-65 104q117 110 280 110q130 0 215 -68.5t85 -189.5q0 -124 -119 -186q143 -61 143 -215q0 -125 -96.5 -197t-235.5 -72q-162 0 -272 105zM1381 363v146q0 145 2 217l-264 -363h262z" />
<glyph unicode="&#xbf;" d="M604 1037q0 62 -18 156h181q11 -90 11 -169l1 -1q0 -62 -21 -115.5t-59 -96.5t-74.5 -75t-85 -71t-74.5 -65q-51 -51 -80.5 -104.5t-29.5 -124.5q0 -62 26 -108t72.5 -71.5t103 -37.5t123.5 -12q142 0 279 74v-158q-148 -71 -279 -71q-108 0 -197.5 20t-161.5 62.5 t-112.5 117t-40.5 174.5q0 73 30.5 132.5t82.5 120.5q30 36 94 97.5t109.5 106.5t82.5 106t37 113zM799 1604v-228h-242v228h242z" />
<glyph unicode="&#xc0;" d="M400 2075l284 -437h-140l-380 437h236zM728 1491l461 -1491h-205l-151 473h-439l-150 -473h-204l460 1491h228zM433 636h362l-178 590z" />
<glyph unicode="&#xc1;" d="M543 1638l261 437h232l-351 -437h-142zM728 1491l461 -1491h-205l-151 473h-439l-150 -473h-204l460 1491h228zM433 636h362l-178 590z" />
<glyph unicode="&#xc2;" d="M698 1987l258 -349h-142l-204 235l-202 -235h-136l258 349h168zM728 1491l461 -1491h-205l-151 473h-439l-150 -473h-204l460 1491h228zM433 636h362l-178 590z" />
<glyph unicode="&#xc3;" d="M1006 1885q-6 -111 -62 -179t-162 -68q-47 0 -91.5 18t-74.5 40t-74 40t-90 18t-68.5 -27.5t-23.5 -74.5h-138q3 114 63 179.5t171 65.5q49 0 93.5 -18.5t73.5 -40t73 -40t90 -18.5q74 0 82 105h138zM728 1491l461 -1491h-205l-151 473h-439l-150 -473h-204l460 1491h228 zM433 636h362l-178 590z" />
<glyph unicode="&#xc4;" d="M300 1818q86 0 184 10q0 -86 11 -179q-90 0 -184 -11q0 87 -11 180zM735 1649q9 104 9 179q98 -10 184 -10q-12 -86 -12 -180q-96 11 -181 11zM728 1491l461 -1491h-205l-151 473h-439l-150 -473h-204l460 1491h228zM433 636h362l-178 590z" />
<glyph unicode="&#xc5;" d="M626 1823q-58 0 -96 -30t-38 -84q0 -47 30 -80.5t76 -33.5q60 0 100 30.5t40 85.5q0 45 -33 78.5t-79 33.5zM846 1710q0 -89 -68 -148.5t-162 -59.5q-63 0 -116.5 25.5t-85.5 73.5t-32 109q0 92 67.5 149t166.5 57q95 0 162.5 -57.5t67.5 -148.5zM728 1491l461 -1491 h-205l-151 473h-439l-150 -473h-204l460 1491h228zM433 636h362l-178 590z" />
<glyph unicode="&#xc6;" d="M2073 1581v-161h-796l41 -530h709v-161h-687l45 -569h713v-160h-881l-36 432h-714l-251 -432h-216l919 1581h1154zM555 592h605l-66 828h-54z" />
<glyph unicode="&#xc7;" d="M847 -290q0 78 -122 78q-7 0 -75 -5l35 207h108l-20 -117l9 1q47 0 86 -8.5t70 -27t48.5 -51t17.5 -76.5q0 -168 -271 -168q-76 0 -189 23l9 92q111 -26 167 -26q127 0 127 78zM1159 1389l-70 -131q-144 105 -330 105q-91 0 -164.5 -33t-123 -89.5t-83 -135.5t-48.5 -168 t-15 -189q0 -130 27 -241t79 -196t136 -133t191 -48q184 0 333 114l69 -141q-156 -128 -421 -128q-193 0 -333 104.5t-208.5 277.5t-68.5 393q0 225 75 399t214 270.5t321 96.5q264 0 420 -127z" />
<glyph unicode="&#xc8;" d="M449 2075l283 -437h-139l-380 437h236zM404 684v-538h737l-15 -146h-909v1491h891l-16 -146h-688v-502h655v-159h-655z" />
<glyph unicode="&#xc9;" d="M592 1638l260 437h232l-350 -437h-142zM404 684v-538h737l-15 -146h-909v1491h891l-16 -146h-688v-502h655v-159h-655z" />
<glyph unicode="&#xca;" d="M746 1987l259 -349h-143l-204 235l-202 -235h-136l259 349h167zM404 684v-538h737l-15 -146h-909v1491h891l-16 -146h-688v-502h655v-159h-655z" />
<glyph unicode="&#xcb;" d="M348 1818q86 0 184 10q0 -86 12 -179q-90 0 -184 -11q0 87 -12 180zM784 1649q8 104 8 179q99 -10 184 -10q-12 -86 -12 -180q-95 11 -180 11zM404 684v-538h737l-15 -146h-909v1491h891l-16 -146h-688v-502h655v-159h-655z" />
<glyph unicode="&#xcc;" d="M401 2075l283 -437h-139l-380 437h236zM194 1345v146h841v-146h-331v-1199h331v-146h-841v146h323v1199h-323z" />
<glyph unicode="&#xcd;" d="M544 1638l260 437h232l-350 -437h-142zM194 1345v146h841v-146h-331v-1199h331v-146h-841v146h323v1199h-323z" />
<glyph unicode="&#xce;" d="M698 1987l259 -349h-143l-204 235l-202 -235h-136l259 349h167zM194 1345v146h841v-146h-331v-1199h331v-146h-841v146h323v1199h-323z" />
<glyph unicode="&#xcf;" d="M300 1818q86 0 184 10q0 -86 12 -179q-90 0 -184 -11q0 87 -12 180zM736 1649q8 104 8 179q99 -10 184 -10q-12 -86 -12 -180q-95 11 -180 11zM194 1345v146h841v-146h-331v-1199h331v-146h-841v146h323v1199h-323z" />
<glyph unicode="&#xd0;" d="M563 1581q188 0 339 -24.5t280.5 -81.5t216.5 -147.5t136 -227t49 -314.5q0 -193 -67.5 -344t-189.5 -247t-286.5 -145.5t-364.5 -49.5h-461v714h-215v149h215v718h348zM694 160q321 0 504 158.5t183 463.5q0 146 -36 255.5t-101.5 182t-165.5 117.5t-219 64t-272 19 h-182v-557h228v-149h-228v-554h289z" />
<glyph unicode="&#xd1;" d="M1006 1885q-6 -111 -62 -179t-162 -68q-47 0 -91.5 18t-74.5 40t-74 40t-90 18t-68.5 -27.5t-23.5 -74.5h-138q3 114 63 179.5t171 65.5q49 0 93.5 -18.5t73.5 -40t73 -40t90 -18.5q74 0 82 105h138zM1078 0h-220l-538 1206v-1206h-170v1491h215l546 -1202v1202h167 v-1491z" />
<glyph unicode="&#xd2;" d="M400 2075l284 -437h-140l-380 437h236zM614 -25q-123 0 -219 62.5t-154.5 170.5t-88 245t-29.5 294q0 118 15 225t51 208t91 174.5t140.5 117.5t193.5 44t193.5 -44t140.5 -117.5t91 -174.5t51 -208t15 -225q0 -157 -29.5 -294t-88 -245t-154.5 -170.5t-219 -62.5z M614 1363q-95 0 -163 -83.5t-100 -220.5t-32 -313t32 -313t100 -220t163 -83t163 83t100 220t32 313t-32 313t-100 220.5t-163 83.5z" />
<glyph unicode="&#xd3;" d="M543 1638l261 437h232l-351 -437h-142zM614 -25q-123 0 -219 62.5t-154.5 170.5t-88 245t-29.5 294q0 118 15 225t51 208t91 174.5t140.5 117.5t193.5 44t193.5 -44t140.5 -117.5t91 -174.5t51 -208t15 -225q0 -157 -29.5 -294t-88 -245t-154.5 -170.5t-219 -62.5z M614 1363q-95 0 -163 -83.5t-100 -220.5t-32 -313t32 -313t100 -220t163 -83t163 83t100 220t32 313t-32 313t-100 220.5t-163 83.5z" />
<glyph unicode="&#xd4;" d="M698 1987l258 -349h-142l-204 235l-202 -235h-136l258 349h168zM614 -25q-123 0 -219 62.5t-154.5 170.5t-88 245t-29.5 294q0 118 15 225t51 208t91 174.5t140.5 117.5t193.5 44t193.5 -44t140.5 -117.5t91 -174.5t51 -208t15 -225q0 -157 -29.5 -294t-88 -245 t-154.5 -170.5t-219 -62.5zM614 1363q-95 0 -163 -83.5t-100 -220.5t-32 -313t32 -313t100 -220t163 -83t163 83t100 220t32 313t-32 313t-100 220.5t-163 83.5z" />
<glyph unicode="&#xd5;" d="M1006 1885q-6 -111 -62 -179t-162 -68q-47 0 -91.5 18t-74.5 40t-74 40t-90 18t-68.5 -27.5t-23.5 -74.5h-138q3 114 63 179.5t171 65.5q49 0 93.5 -18.5t73.5 -40t73 -40t90 -18.5q74 0 82 105h138zM614 -25q-123 0 -219 62.5t-154.5 170.5t-88 245t-29.5 294 q0 118 15 225t51 208t91 174.5t140.5 117.5t193.5 44t193.5 -44t140.5 -117.5t91 -174.5t51 -208t15 -225q0 -157 -29.5 -294t-88 -245t-154.5 -170.5t-219 -62.5zM614 1363q-95 0 -163 -83.5t-100 -220.5t-32 -313t32 -313t100 -220t163 -83t163 83t100 220t32 313t-32 313 t-100 220.5t-163 83.5z" />
<glyph unicode="&#xd6;" d="M300 1818q86 0 184 10q0 -86 11 -179q-90 0 -184 -11q0 87 -11 180zM735 1649q9 104 9 179q98 -10 184 -10q-12 -86 -12 -180q-96 11 -181 11zM614 -25q-123 0 -219 62.5t-154.5 170.5t-88 245t-29.5 294q0 118 15 225t51 208t91 174.5t140.5 117.5t193.5 44t193.5 -44 t140.5 -117.5t91 -174.5t51 -208t15 -225q0 -157 -29.5 -294t-88 -245t-154.5 -170.5t-219 -62.5zM614 1363q-95 0 -163 -83.5t-100 -220.5t-32 -313t32 -313t100 -220t163 -83t163 83t100 220t32 313t-32 313t-100 220.5t-163 83.5z" />
<glyph unicode="&#xd7;" d="M1077 280l-116 -112l-328 321l-328 -321l-115 110l328 324l-328 322l115 112l328 -323l328 323l116 -113l-330 -321z" />
<glyph unicode="&#xd8;" d="M281 -222l-135 51l809 1888l140 -42zM614 -25q-123 0 -219 62.5t-154.5 170.5t-88 245t-29.5 294q0 118 15 225t51 208t91 174.5t140.5 117.5t193.5 44t193.5 -44t140.5 -117.5t91 -174.5t51 -208t15 -225q0 -157 -29.5 -294t-88 -245t-154.5 -170.5t-219 -62.5z M614 1356q-96 0 -163.5 -81.5t-99.5 -217t-32 -311.5t32 -311.5t100 -217t163 -81.5t163 81.5t100 217t32 311.5t-32 311.5t-99.5 217t-163.5 81.5z" />
<glyph unicode="&#xd9;" d="M400 2075l284 -437h-140l-380 437h236zM614 -25q-485 0 -485 567v949h187v-943q0 -75 8 -135t28 -114.5t53 -90.5t86 -57t123 -21t123 21t86 57t53 90.5t28 114.5t8 135v943h187v-949q0 -567 -485 -567z" />
<glyph unicode="&#xda;" d="M543 1638l261 437h232l-351 -437h-142zM614 -25q-485 0 -485 567v949h187v-943q0 -75 8 -135t28 -114.5t53 -90.5t86 -57t123 -21t123 21t86 57t53 90.5t28 114.5t8 135v943h187v-949q0 -567 -485 -567z" />
<glyph unicode="&#xdb;" d="M698 1987l258 -349h-142l-204 235l-202 -235h-136l258 349h168zM614 -25q-485 0 -485 567v949h187v-943q0 -75 8 -135t28 -114.5t53 -90.5t86 -57t123 -21t123 21t86 57t53 90.5t28 114.5t8 135v943h187v-949q0 -567 -485 -567z" />
<glyph unicode="&#xdc;" d="M300 1818q86 0 184 10q0 -86 11 -179q-90 0 -184 -11q0 87 -11 180zM735 1649q9 104 9 179q98 -10 184 -10q-12 -86 -12 -180q-96 11 -181 11zM614 -25q-485 0 -485 567v949h187v-943q0 -75 8 -135t28 -114.5t53 -90.5t86 -57t123 -21t123 21t86 57t53 90.5t28 114.5 t8 135v943h187v-949q0 -567 -485 -567z" />
<glyph unicode="&#xdd;" d="M544 1638l260 437h232l-350 -437h-142zM715 0h-212v593l-454 898h226l335 -703l339 703h231l-465 -898v-593z" />
<glyph unicode="&#xde;" d="M1279 951q0 -73 -17.5 -134t-45.5 -106t-75 -80.5t-94.5 -59.5t-116 -41t-128 -26.5t-141.5 -14.5t-145 -6.5t-150 -1.5v-481h-190v1581h190v-157q98 0 155 -1t147 -5t143.5 -12.5t126 -25t115.5 -40t91.5 -59.5t74.5 -82t43 -109t17 -139zM655 643q420 0 420 313 q0 76 -25 132t-66 89t-104 53t-128 27t-149 7h-237v-621h289z" />
<glyph unicode="&#xdf;" d="M664 1599q77 0 145 -11.5t129.5 -38t106 -65.5t70.5 -97.5t26 -130.5q0 -42 -10 -81t-32.5 -73t-43.5 -60t-57.5 -56t-57.5 -46t-62 -44t-55 -38q37 -23 105.5 -59t118.5 -62.5t110 -69t98.5 -83t65 -98.5t26.5 -123q0 -189 -119 -289t-320 -100q-110 0 -207 26.5 t-160 75.5l71 149q150 -86 280 -86q99 0 159 56t60 152q0 22 -4.5 43t-11.5 38.5t-20 35t-23 30.5t-29 28.5t-30.5 24.5t-33.5 23t-33 20.5t-33.5 19.5t-30.5 17q-12 7 -59 32.5t-70 40.5t-56.5 40t-48.5 50t-15 51q0 21 8.5 41.5t18.5 35t30.5 33t32 27t35.5 25t30 20.5 q33 24 54.5 42t47.5 47.5t39 65t13 76.5q0 65 -38 108.5t-95 61.5t-129 18q-141 0 -209.5 -94.5t-68.5 -251.5v-1096h-218v1116q0 233 131.5 358t368.5 125z" />
<glyph unicode="&#xe0;" d="M442 1689l282 -437h-138l-380 437h236zM536 -25q-156 0 -257.5 80.5t-101.5 224.5q0 57 16 102.5t42 76.5t68 54t86 36.5t104 21t114 10t123 2.5h146v173q0 242 -240 242q-198 0 -364 -84l-44 141q178 75 427 75q183 0 293 -83t110 -256v-791h-159l-24 84 q-184 -109 -339 -109zM542 108q133 0 334 79v281h-149q-49 0 -83.5 -1.5t-82.5 -6.5t-80.5 -17t-63.5 -31t-46.5 -50.5t-15.5 -72.5q0 -84 50 -132.5t137 -48.5z" />
<glyph unicode="&#xe1;" d="M584 1252l261 437h232l-351 -437h-142zM536 -25q-156 0 -257.5 80.5t-101.5 224.5q0 57 16 102.5t42 76.5t68 54t86 36.5t104 21t114 10t123 2.5h146v173q0 242 -240 242q-198 0 -364 -84l-44 141q178 75 427 75q183 0 293 -83t110 -256v-791h-159l-24 84 q-184 -109 -339 -109zM542 108q133 0 334 79v281h-149q-49 0 -83.5 -1.5t-82.5 -6.5t-80.5 -17t-63.5 -31t-46.5 -50.5t-15.5 -72.5q0 -84 50 -132.5t137 -48.5z" />
<glyph unicode="&#xe2;" d="M738 1601l260 -349h-144l-204 235l-202 -235h-136l260 349h166zM536 -25q-156 0 -257.5 80.5t-101.5 224.5q0 57 16 102.5t42 76.5t68 54t86 36.5t104 21t114 10t123 2.5h146v173q0 242 -240 242q-198 0 -364 -84l-44 141q178 75 427 75q183 0 293 -83t110 -256v-791 h-159l-24 84q-184 -109 -339 -109zM542 108q133 0 334 79v281h-149q-49 0 -83.5 -1.5t-82.5 -6.5t-80.5 -17t-63.5 -31t-46.5 -50.5t-15.5 -72.5q0 -84 50 -132.5t137 -48.5z" />
<glyph unicode="&#xe3;" d="M1046 1499q-5 -111 -61 -179t-161 -68q-48 0 -92.5 18t-74.5 40t-74 40t-91 18q-45 0 -67.5 -27.5t-24.5 -74.5h-136q2 114 62 179.5t172 65.5q48 0 92.5 -18.5t73.5 -40t73 -40t91 -18.5q73 0 80 105h138zM536 -25q-156 0 -257.5 80.5t-101.5 224.5q0 57 16 102.5 t42 76.5t68 54t86 36.5t104 21t114 10t123 2.5h146v173q0 242 -240 242q-198 0 -364 -84l-44 141q178 75 427 75q183 0 293 -83t110 -256v-791h-159l-24 84q-184 -109 -339 -109zM542 108q133 0 334 79v281h-149q-49 0 -83.5 -1.5t-82.5 -6.5t-80.5 -17t-63.5 -31 t-46.5 -50.5t-15.5 -72.5q0 -84 50 -132.5t137 -48.5z" />
<glyph unicode="&#xe4;" d="M341 1432q86 0 184 10q0 -86 11 -179q-90 0 -184 -11q0 87 -11 180zM776 1263q9 104 9 179q98 -10 184 -10q-12 -86 -12 -180q-96 11 -181 11zM536 -25q-156 0 -257.5 80.5t-101.5 224.5q0 57 16 102.5t42 76.5t68 54t86 36.5t104 21t114 10t123 2.5h146v173 q0 242 -240 242q-198 0 -364 -84l-44 141q178 75 427 75q183 0 293 -83t110 -256v-791h-159l-24 84q-184 -109 -339 -109zM542 108q133 0 334 79v281h-149q-49 0 -83.5 -1.5t-82.5 -6.5t-80.5 -17t-63.5 -31t-46.5 -50.5t-15.5 -72.5q0 -84 50 -132.5t137 -48.5z" />
<glyph unicode="&#xe5;" d="M668 1573q-39 0 -69 -12.5t-48.5 -39t-18.5 -62.5q0 -47 30.5 -80.5t75.5 -33.5q61 0 100.5 30.5t39.5 85.5q0 45 -32.5 78.5t-77.5 33.5zM888 1460q0 -90 -68.5 -149t-161.5 -59q-64 0 -117.5 25.5t-86 73.5t-32.5 109q0 92 68 149t166 57q96 0 164 -57.5t68 -148.5z M536 -25q-156 0 -257.5 80.5t-101.5 224.5q0 57 16 102.5t42 76.5t68 54t86 36.5t104 21t114 10t123 2.5h146v173q0 242 -240 242q-198 0 -364 -84l-44 141q178 75 427 75q183 0 293 -83t110 -256v-791h-159l-24 84q-184 -109 -339 -109zM542 108q133 0 334 79v281h-149 q-49 0 -83.5 -1.5t-82.5 -6.5t-80.5 -17t-63.5 -31t-46.5 -50.5t-15.5 -72.5q0 -84 50 -132.5t137 -48.5z" />
<glyph unicode="&#xe6;" d="M1148 98q-115 -123 -283 -123q-128 0 -212 119q-64 -37 -103.5 -57.5t-104.5 -41t-123 -20.5q-115 0 -191 83.5t-76 221.5q0 59 13 106t35 79.5t57.5 56.5t72.5 37.5t87.5 21.5t96.5 10.5t105 2.5h15v192q0 94 -41 138.5t-127 44.5q-136 0 -224 -75l-44 159 q113 77 277 77q196 0 266 -142q94 142 236 142q92 0 159 -75.5t99 -198t32 -275.5l-1 -61h-466q3 -84 15 -153.5t33 -123.5t53.5 -84t73.5 -30q106 0 190 93zM350 129q47 0 94.5 14t71 25.5t77.5 41.5q-37 101 -50 242h-44q-42 0 -71.5 -1.5t-70 -10.5t-65 -24.5t-42.5 -46 t-18 -72.5q0 -168 118 -168zM1026 653q-17 324 -146 324q-78 0 -121 -92t-50 -232h317z" />
<glyph unicode="&#xe7;" d="M788 -290q0 78 -122 78q-8 0 -75 -5l35 207h108l-20 -117l9 1q47 0 86 -8.5t70 -27t48.5 -51t17.5 -76.5q0 -168 -271 -168q-76 0 -189 23l9 92q111 -26 167 -26q127 0 127 78zM330 557q0 -207 90 -324.5t274 -117.5q174 0 304 95l69 -125q-147 -110 -387 -110 q-265 0 -413.5 156t-148.5 425q0 262 151 418t411 156q235 0 387 -110l-69 -147q-132 117 -307 117q-182 0 -271.5 -115t-89.5 -318z" />
<glyph unicode="&#xe8;" d="M420 1689l284 -437h-140l-380 437h236zM870 653q-20 337 -236 337q-72 0 -127.5 -27t-90 -75.5t-55 -106.5t-28.5 -128h537zM619 -25q-118 0 -210 45t-149.5 124.5t-87 183.5t-29.5 227q0 121 33.5 225.5t95.5 182.5t155 122.5t207 44.5q105 0 185.5 -44.5t128.5 -121.5 t72 -174t24 -209l-1 -61h-716q4 -83 22 -153t52.5 -128t93.5 -91t137 -33q182 0 310 134l80 -124q-83 -75 -176 -112.5t-227 -37.5z" />
<glyph unicode="&#xe9;" d="M563 1252l261 437h232l-351 -437h-142zM870 653q-20 337 -236 337q-72 0 -127.5 -27t-90 -75.5t-55 -106.5t-28.5 -128h537zM619 -25q-118 0 -210 45t-149.5 124.5t-87 183.5t-29.5 227q0 121 33.5 225.5t95.5 182.5t155 122.5t207 44.5q105 0 185.5 -44.5t128.5 -121.5 t72 -174t24 -209l-1 -61h-716q4 -83 22 -153t52.5 -128t93.5 -91t137 -33q182 0 310 134l80 -124q-83 -75 -176 -112.5t-227 -37.5z" />
<glyph unicode="&#xea;" d="M718 1601l258 -349h-142l-204 235l-202 -235h-136l258 349h168zM870 653q-20 337 -236 337q-72 0 -127.5 -27t-90 -75.5t-55 -106.5t-28.5 -128h537zM619 -25q-118 0 -210 45t-149.5 124.5t-87 183.5t-29.5 227q0 121 33.5 225.5t95.5 182.5t155 122.5t207 44.5 q105 0 185.5 -44.5t128.5 -121.5t72 -174t24 -209l-1 -61h-716q4 -83 22 -153t52.5 -128t93.5 -91t137 -33q182 0 310 134l80 -124q-83 -75 -176 -112.5t-227 -37.5z" />
<glyph unicode="&#xeb;" d="M320 1432q86 0 184 10q0 -86 11 -179q-90 0 -184 -11q0 87 -11 180zM755 1263q9 104 9 179q98 -10 184 -10q-12 -86 -12 -180q-96 11 -181 11zM870 653q-20 337 -236 337q-72 0 -127.5 -27t-90 -75.5t-55 -106.5t-28.5 -128h537zM619 -25q-118 0 -210 45t-149.5 124.5 t-87 183.5t-29.5 227q0 121 33.5 225.5t95.5 182.5t155 122.5t207 44.5q105 0 185.5 -44.5t128.5 -121.5t72 -174t24 -209l-1 -61h-716q4 -83 22 -153t52.5 -128t93.5 -91t137 -33q182 0 310 134l80 -124q-83 -75 -176 -112.5t-227 -37.5z" />
<glyph unicode="&#xec;" d="M484 1689l282 -437h-138l-380 437h236zM266 953v144h522v-953h397v-144h-988v144h409v809h-340z" />
<glyph unicode="&#xed;" d="M626 1252l261 437h232l-351 -437h-142zM266 953v144h522v-953h397v-144h-988v144h409v809h-340z" />
<glyph unicode="&#xee;" d="M780 1601l260 -349h-144l-204 235l-202 -235h-136l260 349h166zM266 953v144h522v-953h397v-144h-988v144h409v809h-340z" />
<glyph unicode="&#xef;" d="M383 1432q86 0 184 10q0 -86 11 -179q-90 0 -184 -11q0 87 -11 180zM818 1263q9 104 9 179q98 -10 184 -10q-12 -86 -12 -180q-96 11 -181 11zM266 953v144h522v-953h397v-144h-988v144h409v809h-340z" />
<glyph unicode="&#xf0;" d="M1247 743q0 -131 -18 -242.5t-59.5 -210t-105.5 -167t-161.5 -108.5t-221.5 -40q-125 0 -228.5 39.5t-172.5 108.5t-107 162t-38 199l1 1q0 225 138 357.5t367 132.5q292 0 413 -189q0 191 -40 329h-290v149h227q-89 161 -278 263l87 92q125 -47 220.5 -139.5 t156.5 -215.5h218v-149h-162q54 -166 54 -372zM673 129q94 0 165.5 34.5t115 97t65 143.5t21.5 179q0 72 -64.5 129t-149 83.5t-164.5 26.5q-157 0 -244 -92t-87 -250q0 -156 93.5 -253.5t248.5 -97.5z" />
<glyph unicode="&#xf1;" d="M1028 1499q-6 -111 -62 -179t-161 -68q-47 0 -92 18t-75 40t-74 40t-90 18q-45 0 -67.5 -27.5t-24.5 -74.5h-137q2 114 62 179.5t172 65.5q48 0 92.5 -18.5t74 -40t73 -40t90.5 -18.5q73 0 81 105h138zM715 1130q341 0 341 -432v-698h-182v640v13v58t-2 53.5t-6 53 t-11.5 46.5t-18.5 43t-28 33.5t-39 27.5t-51.5 15.5t-66.5 6.5q-106 0 -179 -71.5t-73 -186.5v-732h-182v1097h167l10 -139q57 79 132 125.5t189 46.5z" />
<glyph unicode="&#xf2;" d="M398 1689l284 -437h-140l-380 437h236zM612 1130q160 0 274 -76t169 -203.5t55 -292.5q0 -261 -137.5 -422t-360.5 -161q-118 0 -213 45t-155.5 123.5t-93 182.5t-32.5 225q0 260 136 419.5t358 159.5zM302 550q0 -84 17 -158.5t52 -138t97 -101t144 -37.5q85 0 148 37 t98.5 101t52.5 139t17 161q0 68 -10 129t-33.5 118t-59 98.5t-90.5 66.5t-123 25q-82 0 -144 -38t-97 -102.5t-52 -140t-17 -159.5z" />
<glyph unicode="&#xf3;" d="M541 1252l261 437h232l-351 -437h-142zM612 1130q160 0 274 -76t169 -203.5t55 -292.5q0 -261 -137.5 -422t-360.5 -161q-118 0 -213 45t-155.5 123.5t-93 182.5t-32.5 225q0 260 136 419.5t358 159.5zM302 550q0 -84 17 -158.5t52 -138t97 -101t144 -37.5q85 0 148 37 t98.5 101t52.5 139t17 161q0 68 -10 129t-33.5 118t-59 98.5t-90.5 66.5t-123 25q-82 0 -144 -38t-97 -102.5t-52 -140t-17 -159.5z" />
<glyph unicode="&#xf4;" d="M696 1601l258 -349h-142l-204 235l-202 -235h-136l258 349h168zM612 1130q160 0 274 -76t169 -203.5t55 -292.5q0 -261 -137.5 -422t-360.5 -161q-118 0 -213 45t-155.5 123.5t-93 182.5t-32.5 225q0 260 136 419.5t358 159.5zM302 550q0 -84 17 -158.5t52 -138t97 -101 t144 -37.5q85 0 148 37t98.5 101t52.5 139t17 161q0 68 -10 129t-33.5 118t-59 98.5t-90.5 66.5t-123 25q-82 0 -144 -38t-97 -102.5t-52 -140t-17 -159.5z" />
<glyph unicode="&#xf5;" d="M1004 1499q-4 -72 -28 -126t-74 -87.5t-122 -33.5q-47 0 -91.5 18t-74.5 40t-74 40t-90 18t-68.5 -27.5t-23.5 -74.5h-138q3 114 63 179.5t171 65.5q49 0 93.5 -18.5t73.5 -40t73 -40t90 -18.5q74 0 82 105h138zM612 1130q160 0 274 -76t169 -203.5t55 -292.5 q0 -261 -137.5 -422t-360.5 -161q-118 0 -213 45t-155.5 123.5t-93 182.5t-32.5 225q0 260 136 419.5t358 159.5zM302 550q0 -84 17 -158.5t52 -138t97 -101t144 -37.5q85 0 148 37t98.5 101t52.5 139t17 161q0 68 -10 129t-33.5 118t-59 98.5t-90.5 66.5t-123 25 q-82 0 -144 -38t-97 -102.5t-52 -140t-17 -159.5z" />
<glyph unicode="&#xf6;" d="M298 1432q86 0 184 10q0 -86 11 -179q-90 0 -184 -11q0 87 -11 180zM733 1263q9 104 9 179q98 -10 184 -10q-12 -86 -12 -180q-96 11 -181 11zM612 1130q160 0 274 -76t169 -203.5t55 -292.5q0 -261 -137.5 -422t-360.5 -161q-118 0 -213 45t-155.5 123.5t-93 182.5 t-32.5 225q0 260 136 419.5t358 159.5zM302 550q0 -84 17 -158.5t52 -138t97 -101t144 -37.5q85 0 148 37t98.5 101t52.5 139t17 161q0 68 -10 129t-33.5 118t-59 98.5t-90.5 66.5t-123 25q-82 0 -144 -38t-97 -102.5t-52 -140t-17 -159.5z" />
<glyph unicode="&#xf7;" d="M152 677h1159v-151h-1159v151zM619 22v229h239v-229h-239zM619 948v227h239v-227h-239z" />
<glyph unicode="&#xf8;" d="M322 -283l-112 41l710 1628l112 -35zM615 1130q121 0 216 -43.5t155.5 -121t92 -181t31.5 -226.5q0 -261 -139.5 -422t-363.5 -161q-118 0 -212 45t-154 123.5t-91.5 182.5t-31.5 225q0 259 137.5 419t359.5 160zM301 550q0 -64 10.5 -123.5t34 -114t59 -95t89 -64.5 t119.5 -24q68 0 122.5 24t90 64t58.5 95.5t33 115t10 125.5q0 83 -16.5 155.5t-51.5 134.5t-98 98t-148 36q-82 0 -144.5 -37t-97.5 -99.5t-52.5 -136t-17.5 -154.5z" />
<glyph unicode="&#xf9;" d="M400 1689l284 -437h-140l-380 437h236zM614 -25q-199 0 -311.5 114.5t-112.5 314.5v693h182v-709q0 -124 61 -198.5t181 -74.5t181 74.5t61 198.5v709h182v-693q0 -200 -112.5 -314.5t-311.5 -114.5z" />
<glyph unicode="&#xfa;" d="M543 1252l261 437h232l-351 -437h-142zM614 -25q-199 0 -311.5 114.5t-112.5 314.5v693h182v-709q0 -124 61 -198.5t181 -74.5t181 74.5t61 198.5v709h182v-693q0 -200 -112.5 -314.5t-311.5 -114.5z" />
<glyph unicode="&#xfb;" d="M698 1601l258 -349h-142l-204 235l-202 -235h-136l258 349h168zM614 -25q-199 0 -311.5 114.5t-112.5 314.5v693h182v-709q0 -124 61 -198.5t181 -74.5t181 74.5t61 198.5v709h182v-693q0 -200 -112.5 -314.5t-311.5 -114.5z" />
<glyph unicode="&#xfc;" d="M300 1432q86 0 184 10q0 -86 11 -179q-90 0 -184 -11q0 87 -11 180zM735 1263q9 104 9 179q98 -10 184 -10q-12 -86 -12 -180q-96 11 -181 11zM614 -25q-199 0 -311.5 114.5t-112.5 314.5v693h182v-709q0 -124 61 -198.5t181 -74.5t181 74.5t61 198.5v709h182v-693 q0 -200 -112.5 -314.5t-311.5 -114.5z" />
<glyph unicode="&#xfd;" d="M568 1252l261 437h232l-351 -437h-142zM652 205l331 892h201q-341 -843 -431 -1081v1q-3 -6 -23 -75q-26 -93 -78 -159.5t-128 -107.5t-163 -63.5t-201 -34.5v156q73 8 121.5 16.5t102 28.5t85.5 50t54.5 79.5t25.5 116.5q-139 319 -252.5 587t-158.5 377l-44 109h218z " />
<glyph unicode="&#xfe;" d="M342 957q141 184 381 184q249 0 386 -155.5t137 -413.5h-1q0 -266 -145 -431.5t-372 -165.5q-244 0 -387 171v-610h-183v2044h184v-623zM1048 565q0 97 -19 173.5t-59.5 135.5t-109 90.5t-161.5 31.5q-97 0 -167.5 -34.5t-111.5 -98t-60.5 -144.5t-19.5 -183 q0 -186 91 -302t264 -116q90 0 158.5 35t110.5 97t63 141.5t21 173.5z" />
<glyph unicode="&#xff;" d="M325 1432q86 0 184 10q0 -86 11 -179q-90 0 -184 -11q0 87 -11 180zM760 1263q9 104 9 179q98 -10 184 -10q-12 -86 -12 -180q-96 11 -181 11zM652 205l331 892h201q-341 -843 -431 -1081v1q-3 -6 -23 -75q-26 -93 -78 -159.5t-128 -107.5t-163 -63.5t-201 -34.5v156 q73 8 121.5 16.5t102 28.5t85.5 50t54.5 79.5t25.5 116.5q-139 319 -252.5 587t-158.5 377l-44 109h218z" />
<glyph unicode="&#x100;" d="M140 1638v140h948v-140h-948zM728 1491l461 -1491h-205l-151 473h-439l-150 -473h-204l460 1491h228zM433 636h362l-178 590z" />
<glyph unicode="&#x101;" d="M182 1252v140h946v-140h-946zM536 -25q-156 0 -257.5 80.5t-101.5 224.5q0 57 16 102.5t42 76.5t68 54t86 36.5t104 21t114 10t123 2.5h146v173q0 242 -240 242q-198 0 -364 -84l-44 141q178 75 427 75q183 0 293 -83t110 -256v-791h-159l-24 84q-184 -109 -339 -109z M542 108q133 0 334 79v281h-149q-49 0 -83.5 -1.5t-82.5 -6.5t-80.5 -17t-63.5 -31t-46.5 -50.5t-15.5 -72.5q0 -84 50 -132.5t137 -48.5z" />
<glyph unicode="&#x102;" d="M398 1894q14 -71 68 -106t142 -35q86 0 145.5 37t76.5 104h98q-9 -126 -90.5 -191t-221.5 -65q-143 0 -223.5 63.5t-92.5 192.5h98zM728 1491l461 -1491h-205l-151 473h-439l-150 -473h-204l460 1491h228zM433 636h362l-178 590z" />
<glyph unicode="&#x103;" d="M440 1508q6 -36 23.5 -63t44.5 -44t62 -25.5t78 -8.5q87 0 146.5 37t77.5 104h96q-8 -126 -89.5 -191t-220.5 -65q-144 0 -224.5 63.5t-91.5 192.5h98zM536 -25q-156 0 -257.5 80.5t-101.5 224.5q0 57 16 102.5t42 76.5t68 54t86 36.5t104 21t114 10t123 2.5h146v173 q0 242 -240 242q-198 0 -364 -84l-44 141q178 75 427 75q183 0 293 -83t110 -256v-791h-159l-24 84q-184 -109 -339 -109zM542 108q133 0 334 79v281h-149q-49 0 -83.5 -1.5t-82.5 -6.5t-80.5 -17t-63.5 -31t-46.5 -50.5t-15.5 -72.5q0 -84 50 -132.5t137 -48.5z" />
<glyph unicode="&#x104;" d="M376 -242q0 40 16 76t38 61t59 50t62 38.5t63 31.5l142 -13q-6 -4 -26.5 -15.5t-30.5 -17.5t-29.5 -18t-30.5 -19.5t-28 -20t-26.5 -22t-21.5 -22.5t-18 -25t-10.5 -25.5t-4.5 -26.5q0 -48 37 -71t93 -23q61 0 152 35v-121q-78 -32 -164 -32q-56 0 -102 8.5t-86 28 t-62 56t-22 87.5zM728 1491l461 -1491h-205l-151 473h-439l-150 -473h-204l460 1491h228zM433 636h362l-178 590z" />
<glyph unicode="&#x105;" d="M657 -267q0 40 16.5 76t38.5 61t58.5 50t62 38.5t63.5 31.5l142 -13q-6 -4 -30.5 -17.5t-34 -19.5t-32.5 -20t-34 -22.5t-29 -22.5t-27.5 -26t-19.5 -26t-14.5 -29t-4.5 -29q0 -48 37 -71t93 -23q60 0 151 35v-121q-78 -32 -163 -32q-57 0 -103 8.5t-86 28t-62 56 t-22 87.5zM536 -25q-156 0 -257.5 80.5t-101.5 224.5q0 57 16 102.5t42 76.5t68 54t86 36.5t104 21t114 10t123 2.5h146v173q0 242 -240 242q-198 0 -364 -84l-44 141q178 75 427 75q183 0 293 -83t110 -256v-791h-159l-24 84q-184 -109 -339 -109zM542 108q133 0 334 79 v281h-149q-49 0 -83.5 -1.5t-82.5 -6.5t-80.5 -17t-63.5 -31t-46.5 -50.5t-15.5 -72.5q0 -84 50 -132.5t137 -48.5z" />
<glyph unicode="&#x106;" d="M668 1638l261 437h232l-351 -437h-142zM1159 1389l-70 -131q-144 105 -330 105q-91 0 -164.5 -33t-123 -89.5t-83 -135.5t-48.5 -168t-15 -189q0 -130 27 -241t79 -196t136 -133t191 -48q184 0 333 114l69 -141q-156 -128 -421 -128q-193 0 -333 104.5t-208.5 277.5 t-68.5 393q0 225 75 399t214 270.5t321 96.5q264 0 420 -127z" />
<glyph unicode="&#x107;" d="M609 1252l261 437h232l-351 -437h-142zM330 557q0 -207 90 -324.5t274 -117.5q174 0 304 95l69 -125q-147 -110 -387 -110q-265 0 -413.5 156t-148.5 425q0 262 151 418t411 156q235 0 387 -110l-69 -147q-132 117 -307 117q-182 0 -271.5 -115t-89.5 -318z" />
<glyph unicode="&#x10c;" d="M545 1986l188 -235l190 235h171l-273 -348h-165l-272 348h161zM1159 1389l-70 -131q-144 105 -330 105q-91 0 -164.5 -33t-123 -89.5t-83 -135.5t-48.5 -168t-15 -189q0 -130 27 -241t79 -196t136 -133t191 -48q184 0 333 114l69 -141q-156 -128 -421 -128 q-193 0 -333 104.5t-208.5 277.5t-68.5 393q0 225 75 399t214 270.5t321 96.5q264 0 420 -127z" />
<glyph unicode="&#x10d;" d="M486 1600l188 -235l190 235h171l-273 -348h-165l-272 348h161zM330 557q0 -207 90 -324.5t274 -117.5q174 0 304 95l69 -125q-147 -110 -387 -110q-265 0 -413.5 156t-148.5 425q0 262 151 418t411 156q235 0 387 -110l-69 -147q-132 117 -307 117q-182 0 -271.5 -115 t-89.5 -318z" />
<glyph unicode="&#x112;" d="M189 1638v140h947v-140h-947zM404 684v-538h737l-15 -146h-909v1491h891l-16 -146h-688v-502h655v-159h-655z" />
<glyph unicode="&#x113;" d="M160 1252v140h948v-140h-948zM870 653q-20 337 -236 337q-72 0 -127.5 -27t-90 -75.5t-55 -106.5t-28.5 -128h537zM619 -25q-118 0 -210 45t-149.5 124.5t-87 183.5t-29.5 227q0 121 33.5 225.5t95.5 182.5t155 122.5t207 44.5q105 0 185.5 -44.5t128.5 -121.5t72 -174 t24 -209l-1 -61h-716q4 -83 22 -153t52.5 -128t93.5 -91t137 -33q182 0 310 134l80 -124q-83 -75 -176 -112.5t-227 -37.5z" />
<glyph unicode="&#x118;" d="M432 -242q0 40 16.5 76t38.5 61t59 50t62 38.5t64 31.5l142 -13q-6 -4 -30.5 -17.5t-34 -19.5t-32.5 -20t-34 -22.5t-29.5 -22.5t-27.5 -26l-19.5 -26t-14.5 -29t-4 -29q0 -48 36.5 -71t93.5 -23q60 0 150 35v-121q-77 -32 -162 -32q-57 0 -103 8.5t-86 28t-62.5 56 t-22.5 87.5zM404 684v-538h737l-15 -146h-909v1491h891l-16 -146h-688v-502h655v-159h-655z" />
<glyph unicode="&#x119;" d="M309 -267q0 40 16.5 76t38.5 61t58.5 50t62 38.5t63.5 31.5l142 -13q-6 -4 -30.5 -17.5t-34 -19.5t-32.5 -20t-34 -22.5t-29 -22.5t-27.5 -26t-19.5 -26t-14.5 -29t-4.5 -29q0 -48 37 -71t93 -23q60 0 151 35v-121q-78 -32 -163 -32q-57 0 -103 8.5t-86 28t-62 56 t-22 87.5zM870 653q-20 337 -236 337q-72 0 -127.5 -27t-90 -75.5t-55 -106.5t-28.5 -128h537zM619 -25q-118 0 -210 45t-149.5 124.5t-87 183.5t-29.5 227q0 121 33.5 225.5t95.5 182.5t155 122.5t207 44.5q105 0 185.5 -44.5t128.5 -121.5t72 -174t24 -209l-1 -61h-716 q4 -83 22 -153t52.5 -128t93.5 -91t137 -33q182 0 310 134l80 -124q-83 -75 -176 -112.5t-227 -37.5z" />
<glyph unicode="&#x122;" />
<glyph unicode="&#x123;" d="M592 969q-298 0 -298 -419q0 -75 16 -141.5t49 -123t91 -90t134 -33.5q84 0 146 33.5t96 91.5t49.5 124.5t15.5 144.5q0 413 -299 413zM891 210q-33 -85 -123 -147.5t-200 -62.5q-112 0 -200.5 44t-143.5 120.5t-84 176.5t-29 215q0 166 49 293t154.5 204t257.5 77 q208 0 319 -182l6 149h185q-9 -245 -9 -651v-294q0 -140 -30 -241.5t-87.5 -169.5t-152 -108.5t-212.5 -57t-281 -16.5v167q224 0 312 16q162 29 222 137q20 36 31 83q16 68 16 175v73zM429 1249l181 503h146l-119 -503h-208z" />
<glyph unicode="&#x127;" d="M986 645q0 74 -10.5 129.5t-36 101.5t-72 70t-114.5 24q-79 0 -163 -40.5t-137 -98t-53 -106.5v-725h-213v1284h-183v146h183v184h213v-184h238v-146h-238v-333q135 183 389 183q209 0 308.5 -124t99.5 -348v-662h-211v645z" />
<glyph unicode="&#x128;" d="M1006 1885q-6 -111 -62 -179t-161 -68q-47 0 -92 18t-75 40t-74 40t-90 18q-45 0 -67.5 -27.5t-24.5 -74.5h-137q2 114 62 179.5t172 65.5q48 0 92.5 -18.5t74 -40t73 -40t90.5 -18.5q73 0 81 105h138zM194 1345v146h841v-146h-331v-1199h331v-146h-841v146h323v1199 h-323z" />
<glyph unicode="&#x129;" d="M1088 1499q-5 -111 -61 -179t-161 -68q-48 0 -92.5 18t-74.5 40t-74 40t-91 18q-45 0 -67.5 -27.5t-24.5 -74.5h-136q2 114 62 179.5t172 65.5q48 0 92.5 -18.5t73.5 -40t73 -40t91 -18.5q73 0 80 105h138zM266 953v144h522v-953h397v-144h-988v144h409v809h-340z" />
<glyph unicode="&#x12a;" d="M141 1638v140h947v-140h-947zM194 1345v146h841v-146h-331v-1199h331v-146h-841v146h323v1199h-323z" />
<glyph unicode="&#x12b;" d="M224 1252v140h946v-140h-946zM266 953v144h522v-953h397v-144h-988v144h409v809h-340z" />
<glyph unicode="&#x12e;" d="M304 -242q0 40 16.5 76t38.5 61t59 50t62 38.5t64 31.5l142 -13q-6 -4 -30.5 -17.5t-34 -19.5t-32.5 -20t-34 -22.5t-29.5 -22.5t-27.5 -26l-19.5 -26t-14.5 -29t-4 -29q0 -48 36.5 -71t93.5 -23q60 0 150 35v-121q-77 -32 -162 -32q-57 0 -103 8.5t-86 28t-62.5 56 t-22.5 87.5zM194 1345v146h841v-146h-331v-1199h331v-146h-841v146h323v1199h-323z" />
<glyph unicode="&#x12f;" d="M381 -242q0 40 16.5 76t38.5 61t58.5 50t62 38.5t63.5 31.5l142 -13q-6 -4 -30.5 -17.5t-34 -19.5t-32.5 -20t-34 -22.5t-29 -22.5t-27.5 -26t-19.5 -26t-14.5 -29t-4.5 -29q0 -48 37 -71t93 -23q60 0 151 35v-121q-78 -32 -163 -32q-57 0 -103 8.5t-86 28t-62 56 t-22 87.5zM266 957v140h522v-957h397v-140h-988v140h409v817h-340zM576 1386v99q0 36 40 63.5t81 27.5t81 -27.5t40 -63.5v-99q0 -36 -40 -63.5t-81 -27.5t-81 27.5t-40 63.5z" />
<glyph unicode="&#x131;" d="M266 953v144h522v-953h397v-144h-988v144h409v809h-340z" />
<glyph unicode="&#x132;" d="M194 1328v163h841v-163h-331v-1165h331v-163h-841v163h323v1165h-323zM1366 134h213q128 0 176 59t48 198v937h-345v163h831v-163h-299v-885q0 -125 -18.5 -210t-63 -144.5t-120 -87t-188.5 -27.5h-234v160z" />
<glyph unicode="&#x133;" d="M266 953v144h522v-953h397v-144h-988v144h409v809h-340zM606 1369v199h182v-199h-182zM1639 -155q50 0 80.5 3.5t56.5 15.5t38.5 29t21.5 51.5t11.5 75.5t2.5 107v826h-485v144h667v-914q0 -82 -2 -131.5t-10 -108.5t-24 -93t-44 -69.5t-70 -53t-102 -29t-140 -11.5h-276 v158h275zM1852 1370v199h180v-199h-180z" />
<glyph unicode="&#x134;" d="M137 134h213q128 0 176 59t48 198v937h-345v163h831v-163h-299v-885q0 -125 -18.5 -210t-63 -144.5t-120 -87t-188.5 -27.5h-234v160zM682 2009l259 -349h-143l-204 235l-202 -235h-136l259 349h167z" />
<glyph unicode="&#x135;" d="M410 -155q50 0 80.5 3.5t56.5 15.5t38.5 29t21.5 51.5t11.5 75.5t2.5 107v826h-485v144h667v-914q0 -82 -2 -131.5t-10 -108.5t-24 -93t-44 -69.5t-70 -53t-102 -29t-140 -11.5h-276v158h275zM553 1615l259 -349h-143l-204 235l-202 -235h-136l259 349h167z" />
<glyph unicode="&#x137;" d="M397 648l489 449h240l-487 -456l496 -641h-228l-398 546l-112 -95v-451h-182v1585h182v-937zM839 -152l-181 -503h-146l119 503h208z" />
<glyph unicode="&#x138;" d="M398 604l516 509h250l-588 -558l628 -555h-242l-565 511v-511h-182v1114h183v-510z" />
<glyph unicode="&#x13f;" />
<glyph unicode="&#x140;" d="M195 1433v152h593v-1441h471v-144h-1134v144h481v1289h-411zM1716 557v228h241v-228h-241z" />
<glyph unicode="&#x141;" d="M11 531v149l819 400v-149zM420 163h709v-163h-896v1491h187v-1328z" />
<glyph unicode="&#x142;" d="M305 531v149l819 400v-149zM195 1433v152h593v-1441h471v-144h-1134v144h481v1289h-411z" />
<glyph unicode="&#x143;" d="M543 1638l261 437h232l-351 -437h-142zM1078 0h-220l-538 1206v-1206h-170v1491h215l546 -1202v1202h167v-1491z" />
<glyph unicode="&#x144;" d="M566 1252l260 437h232l-350 -437h-142zM715 1130q341 0 341 -432v-698h-182v640v13v58t-2 53.5t-6 53t-11.5 46.5t-18.5 43t-28 33.5t-39 27.5t-51.5 15.5t-66.5 6.5q-106 0 -179 -71.5t-73 -186.5v-732h-182v1097h167l10 -139q57 79 132 125.5t189 46.5z" />
<glyph unicode="&#x152;" d="M806 717v-546h327l-17 -171h-577q-114 0 -204 44.5t-148 118.5t-96.5 177.5t-54.5 214t-16 234.5q0 162 31.5 300t93 246.5t162.5 170.5t232 62h558l-16 -171h-275v-508h241v-172h-241zM243 791q0 -96 8 -181.5t28.5 -170t53 -144.5t85.5 -97.5t121 -37.5h44v1229h-44 q-296 0 -296 -598z" />
<glyph unicode="&#x153;" d="M253 550q0 -82 9 -154t28 -133.5t54 -97.5t81 -36q44 0 77 35.5t51 97t27 136t9 161.5q0 82 -9.5 154.5t-28 133t-51 95.5t-75.5 35q-46 0 -81 -37t-54 -100t-28 -135.5t-9 -154.5zM1148 98q-110 -123 -273 -123q-145 0 -221 181q-87 -181 -235 -181q-110 0 -190.5 78 t-119.5 207t-39 291q0 259 99 419t258 160q150 0 234 -179q83 179 229 179q88 0 153 -75.5t96 -198.5t31 -275l-1 -61h-436q6 -176 44.5 -283.5t110.5 -107.5q100 0 180 93zM1026 653q-3 91 -16 160t-43.5 116.5t-76.5 47.5q-69 0 -106.5 -91.5t-44.5 -232.5h287z" />
<glyph unicode="&#x154;" d="M260 1638l261 437h232l-351 -437h-142zM1115 1093q0 -158 -90.5 -255.5t-240.5 -130.5q53 -49 99.5 -112.5t89 -144.5t70.5 -142t71 -161t64 -147l-217 -1q-23 50 -74.5 169.5t-81.5 184.5t-83.5 152t-110.5 148q-53 9 -151 9h-87v-662h-187v1491h290q94 0 168 -5.5 t150.5 -20.5t131.5 -43.5t99.5 -71.5t67 -108t22.5 -149zM517 824q390 0 390 267q0 68 -27 118.5t-75.5 79.5t-108.5 42.5t-133 13.5h-190v-521h144z" />
<glyph unicode="&#x156;" d="M1124 -123l-181 -502h-145l118 502h208zM1115 1093q0 -158 -90.5 -255.5t-240.5 -130.5q53 -49 99.5 -112.5t89 -144.5t70.5 -142t71 -161t64 -147l-217 -1q-23 50 -74.5 169.5t-81.5 184.5t-83.5 152t-110.5 148q-53 9 -151 9h-87v-662h-187v1491h290q94 0 168 -5.5 t150.5 -20.5t131.5 -43.5t99.5 -71.5t67 -108t22.5 -149zM517 824q390 0 390 267q0 68 -27 118.5t-75.5 79.5t-108.5 42.5t-133 13.5h-190v-521h144z" />
<glyph unicode="&#x157;" d="M758 -122l-180 -502h-146l118 502h208zM1026 961q-173 0 -268.5 -87t-95.5 -264v-470h389v-140h-911v140h340v817h-224v140h373l15 -203q137 236 408 236h137v-169h-163z" />
<glyph unicode="&#x158;" d="M137 1986l188 -235l190 235h171l-273 -348h-165l-272 348h161zM1115 1093q0 -158 -90.5 -255.5t-240.5 -130.5q53 -49 99.5 -112.5t89 -144.5t70.5 -142t71 -161t64 -147l-217 -1q-23 50 -74.5 169.5t-81.5 184.5t-83.5 152t-110.5 148q-53 9 -151 9h-87v-662h-187v1491 h290q94 0 168 -5.5t150.5 -20.5t131.5 -43.5t99.5 -71.5t67 -108t22.5 -149zM517 824q390 0 390 267q0 68 -27 118.5t-75.5 79.5t-108.5 42.5t-133 13.5h-190v-521h144z" />
<glyph unicode="&#x159;" d="M470 1600l188 -235l190 235h172l-274 -348h-164l-272 348h160zM1026 961q-173 0 -268.5 -87t-95.5 -264v-470h389v-140h-911v140h340v817h-224v140h373l15 -203q137 236 408 236h137v-169h-163z" />
<glyph unicode="&#x15a;" d="M533 1639l261 437h232l-351 -437h-142zM212 261q160 -131 381 -131q120 0 185 73.5t65 200.5q0 37 -9.5 69t-23.5 56t-39.5 47t-46.5 37.5t-55.5 31.5t-57 26l-60 24t-55.5 23q-62 26 -103.5 46.5t-91.5 56.5t-80 75t-50.5 97.5t-20.5 129.5q0 187 127 290.5t327 103.5 q252 0 393 -111l-70 -144q-60 47 -140.5 74t-172.5 27q-118 0 -187.5 -64.5t-69.5 -177.5q0 -44 18 -81.5t43 -62t66.5 -48.5t72.5 -36.5t79 -31t70 -28.5q60 -27 103 -49.5t92.5 -60t80.5 -78.5t51.5 -100.5t20.5 -129.5q0 -215 -124.5 -327.5t-340.5 -112.5 q-269 0 -448 119z" />
<glyph unicode="&#x15b;" d="M557 1252l261 437h232l-351 -437h-142zM621 136q57 0 100.5 7t82.5 24.5t59.5 52t20.5 84.5q0 34 -17.5 62t-42 44.5t-65 32t-70 22.5t-75 16.5t-64.5 14.5q-57 15 -100 30t-89.5 41.5t-76 59t-49 82t-19.5 110.5q0 78 34 139t92 97.5t131 55.5t155 19q253 0 403 -69 l-58 -147q-137 76 -336 76q-90 0 -150 -39.5t-60 -125.5q0 -35 17.5 -63.5t41.5 -45.5t64 -32t70 -22t75.5 -17t65.5 -15q60 -16 100 -29.5t88.5 -39t77 -55.5t48.5 -78.5t20 -108.5q0 -88 -37.5 -155.5t-102 -108t-145.5 -60.5t-174 -20q-293 0 -433 101l58 155 q134 -95 360 -95z" />
<glyph unicode="&#x160;" d="M410 1987l188 -235l190 235h171l-273 -348h-165l-272 348h161zM212 261q160 -131 381 -131q120 0 185 73.5t65 200.5q0 37 -9.5 69t-23.5 56t-39.5 47t-46.5 37.5t-55.5 31.5t-57 26l-60 24t-55.5 23q-62 26 -103.5 46.5t-91.5 56.5t-80 75t-50.5 97.5t-20.5 129.5 q0 187 127 290.5t327 103.5q252 0 393 -111l-70 -144q-60 47 -140.5 74t-172.5 27q-118 0 -187.5 -64.5t-69.5 -177.5q0 -44 18 -81.5t43 -62t66.5 -48.5t72.5 -36.5t79 -31t70 -28.5q60 -27 103 -49.5t92.5 -60t80.5 -78.5t51.5 -100.5t20.5 -129.5q0 -215 -124.5 -327.5 t-340.5 -112.5q-269 0 -448 119z" />
<glyph unicode="&#x161;" d="M434 1600l188 -235l190 235h171l-273 -348h-165l-272 348h161zM621 136q57 0 100.5 7t82.5 24.5t59.5 52t20.5 84.5q0 34 -17.5 62t-42 44.5t-65 32t-70 22.5t-75 16.5t-64.5 14.5q-57 15 -100 30t-89.5 41.5t-76 59t-49 82t-19.5 110.5q0 78 34 139t92 97.5t131 55.5 t155 19q253 0 403 -69l-58 -147q-137 76 -336 76q-90 0 -150 -39.5t-60 -125.5q0 -35 17.5 -63.5t41.5 -45.5t64 -32t70 -22t75.5 -17t65.5 -15q60 -16 100 -29.5t88.5 -39t77 -55.5t48.5 -78.5t20 -108.5q0 -88 -37.5 -155.5t-102 -108t-145.5 -60.5t-174 -20 q-293 0 -433 101l58 155q134 -95 360 -95z" />
<glyph unicode="&#x162;" d="M720 -265q0 78 -122 78q-8 0 -76 -5l36 207h108l-20 -117l8 1q48 0 86.5 -8.5t70 -27t48.5 -51t17 -76.5q0 -168 -270 -168q-76 0 -190 23l10 92q110 -26 166 -26q128 0 128 78zM1199 1491v-146h-494v-1345h-187v1345h-488v146h1169z" />
<glyph unicode="&#x163;" d="M1200 -265q0 78 -122 78q-8 0 -75 -5l35 207h108l-20 -117l9 1q47 0 86 -8.5t70 -27t48.5 -51t17.5 -76.5q0 -168 -271 -168q-76 0 -189 23l9 92q110 -26 167 -26q127 0 127 78zM681 957v-515q0 -87 17.5 -145t57 -93t97 -49.5t142.5 -14.5h187v-140h-180 q-149 0 -244.5 25t-154 86t-81.5 152.5t-23 234.5v459h-290v140h290v378l182 54v-432h490v-140h-490z" />
<glyph unicode="&#x178;" d="M300 1818q86 0 184 10q0 -86 12 -179q-90 0 -184 -11q0 87 -12 180zM736 1649q8 104 8 179q99 -10 184 -10q-12 -86 -12 -180q-95 11 -180 11zM715 0h-212v593l-454 898h226l335 -703l339 703h231l-465 -898v-593z" />
<glyph unicode="&#x179;" d="M500 1638l260 437h232l-350 -437h-142zM343 146h652v-146h-893v143l647 1202h-612v146h867v-127z" />
<glyph unicode="&#x17a;" d="M526 1252l260 437h232l-350 -437h-142zM213 1097h767v-138l-578 -819h615v-140h-824v142l559 815h-539v140z" />
<glyph unicode="&#x17b;" d="M482 1815h177v-177h-177v177zM343 146h652v-146h-893v143l647 1202h-612v146h867v-127z" />
<glyph unicode="&#x17c;" d="M508 1429h177v-177h-177v177zM213 1097h767v-138l-578 -819h615v-140h-824v142l559 815h-539v140z" />
<glyph unicode="&#x17d;" d="M376 1986l188 -235l190 235h172l-274 -348h-164l-272 348h160zM343 146h652v-146h-893v143l647 1202h-612v146h867v-127z" />
<glyph unicode="&#x17e;" d="M402 1600l188 -235l190 235h172l-274 -348h-164l-272 348h160zM213 1097h767v-138l-578 -819h615v-140h-824v142l559 815h-539v140z" />
<glyph unicode="&#x192;" d="M1238 1381q-60 23 -114 23q-40 0 -71 -9.5t-52.5 -23.5t-38 -39.5t-25.5 -48.5t-17.5 -59t-12 -63t-9.5 -68.5t-11 -68.5h221l-10 -152h-236l-141 -742q-12 -58 -21.5 -99.5t-27 -96t-35.5 -93t-46 -79t-60.5 -65.5t-77.5 -41t-97 -16q-82 0 -141 17l13 149 q42 -16 89 -16q30 0 54.5 8.5t43 28.5t31 36.5t25 50.5t17.5 50.5t15 54.5q3 12 5 18q32 116 59 253.5t58 317t47 264.5h-172l11 152h188q28 207 55 291q54 166 181 217q65 27 155 27q76 0 158 -20z" />
<glyph unicode="&#x200;" d="M598 1975l250 -337h-128l-312 337h190zM258 1975l252 -337h-130l-312 337h190zM728 1491l461 -1491h-205l-151 473h-439l-150 -473h-204l460 1491h228zM433 636h362l-178 590z" />
<glyph unicode="&#x201;" d="M640 1589l248 -337h-128l-312 337h192zM298 1589l254 -337h-130l-314 337h190zM536 -25q-156 0 -257.5 80.5t-101.5 224.5q0 57 16 102.5t42 76.5t68 54t86 36.5t104 21t114 10t123 2.5h146v173q0 242 -240 242q-198 0 -364 -84l-44 141q178 75 427 75q183 0 293 -83 t110 -256v-791h-159l-24 84q-184 -109 -339 -109zM542 108q133 0 334 79v281h-149q-49 0 -83.5 -1.5t-82.5 -6.5t-80.5 -17t-63.5 -31t-46.5 -50.5t-15.5 -72.5q0 -84 50 -132.5t137 -48.5z" />
<glyph unicode="&#x202;" d="M830 1638q-17 67 -76.5 103t-145.5 36t-141 -35t-68 -104h-98q24 256 316 256q137 0 219 -66t91 -190h-97zM728 1491l461 -1491h-205l-151 473h-439l-150 -473h-204l460 1491h228zM433 636h362l-178 590z" />
<glyph unicode="&#x203;" d="M871 1252q-17 67 -76.5 103t-145.5 36t-141 -35t-68 -104h-98q24 256 316 256q137 0 219 -66t91 -190h-97zM536 -25q-156 0 -257.5 80.5t-101.5 224.5q0 57 16 102.5t42 76.5t68 54t86 36.5t104 21t114 10t123 2.5h146v173q0 242 -240 242q-198 0 -364 -84l-44 141 q178 75 427 75q183 0 293 -83t110 -256v-791h-159l-24 84q-184 -109 -339 -109zM542 108q133 0 334 79v281h-149q-49 0 -83.5 -1.5t-82.5 -6.5t-80.5 -17t-63.5 -31t-46.5 -50.5t-15.5 -72.5q0 -84 50 -132.5t137 -48.5z" />
<glyph unicode="&#x204;" d="M647 1975l249 -337h-128l-312 337h191zM306 1975l253 -337h-130l-313 337h190zM404 684v-538h737l-15 -146h-909v1491h891l-16 -146h-688v-502h655v-159h-655z" />
<glyph unicode="&#x205;" d="M618 1589l250 -337h-128l-312 337h190zM278 1589l252 -337h-130l-312 337h190zM870 653q-20 337 -236 337q-72 0 -127.5 -27t-90 -75.5t-55 -106.5t-28.5 -128h537zM619 -25q-118 0 -210 45t-149.5 124.5t-87 183.5t-29.5 227q0 121 33.5 225.5t95.5 182.5t155 122.5 t207 44.5q105 0 185.5 -44.5t128.5 -121.5t72 -174t24 -209l-1 -61h-716q4 -83 22 -153t52.5 -128t93.5 -91t137 -33q182 0 310 134l80 -124q-83 -75 -176 -112.5t-227 -37.5z" />
<glyph unicode="&#x206;" d="M878 1638q-16 67 -75.5 103t-146.5 36q-85 0 -140 -35t-68 -104h-98q5 65 29 113.5t64 80t96 47t127 15.5q137 0 219 -66t91 -190h-98zM404 684v-538h737l-15 -146h-909v1491h891l-16 -146h-688v-502h655v-159h-655z" />
<glyph unicode="&#x207;" d="M850 1252q-17 67 -76.5 103t-145.5 36t-141 -35t-68 -104h-98q24 256 316 256q137 0 219 -66t91 -190h-97zM870 653q-20 337 -236 337q-72 0 -127.5 -27t-90 -75.5t-55 -106.5t-28.5 -128h537zM619 -25q-118 0 -210 45t-149.5 124.5t-87 183.5t-29.5 227 q0 121 33.5 225.5t95.5 182.5t155 122.5t207 44.5q105 0 185.5 -44.5t128.5 -121.5t72 -174t24 -209l-1 -61h-716q4 -83 22 -153t52.5 -128t93.5 -91t137 -33q182 0 310 134l80 -124q-83 -75 -176 -112.5t-227 -37.5z" />
<glyph unicode="&#x208;" d="M599 1975l249 -337h-128l-312 337h191zM258 1975l253 -337h-130l-313 337h190zM194 1345v146h841v-146h-331v-1199h331v-146h-841v146h323v1199h-323z" />
<glyph unicode="&#x209;" d="M682 1589l248 -337h-128l-312 337h192zM340 1589l254 -337h-130l-314 337h190zM266 953v144h522v-953h397v-144h-988v144h409v809h-340z" />
<glyph unicode="&#x20a;" d="M830 1638q-16 67 -75.5 103t-146.5 36q-56 0 -99 -15t-72 -46.5t-37 -77.5h-98q11 129 91.5 192.5t224.5 63.5q137 0 219 -66t91 -190h-98zM194 1345v146h841v-146h-331v-1199h331v-146h-841v146h323v1199h-323z" />
<glyph unicode="&#x20b;" d="M913 1252q-17 67 -76.5 103t-145.5 36t-141 -35t-68 -104h-98q24 256 316 256q137 0 219 -66t91 -190h-97zM266 953v144h522v-953h397v-144h-988v144h409v809h-340z" />
<glyph unicode="&#x20c;" d="M598 1975l250 -337h-128l-312 337h190zM258 1975l252 -337h-130l-312 337h190zM614 -25q-123 0 -219 62.5t-154.5 170.5t-88 245t-29.5 294q0 118 15 225t51 208t91 174.5t140.5 117.5t193.5 44t193.5 -44t140.5 -117.5t91 -174.5t51 -208t15 -225q0 -157 -29.5 -294 t-88 -245t-154.5 -170.5t-219 -62.5zM614 1363q-95 0 -163 -83.5t-100 -220.5t-32 -313t32 -313t100 -220t163 -83t163 83t100 220t32 313t-32 313t-100 220.5t-163 83.5z" />
<glyph unicode="&#x20d;" d="M596 1589l250 -337h-128l-312 337h190zM256 1589l252 -337h-130l-312 337h190zM612 1130q160 0 274 -76t169 -203.5t55 -292.5q0 -261 -137.5 -422t-360.5 -161q-118 0 -213 45t-155.5 123.5t-93 182.5t-32.5 225q0 260 136 419.5t358 159.5zM302 550q0 -84 17 -158.5 t52 -138t97 -101t144 -37.5q85 0 148 37t98.5 101t52.5 139t17 161q0 68 -10 129t-33.5 118t-59 98.5t-90.5 66.5t-123 25q-82 0 -144 -38t-97 -102.5t-52 -140t-17 -159.5z" />
<glyph unicode="&#x20e;" d="M830 1638q-17 67 -76.5 103t-145.5 36t-141 -35t-68 -104h-98q24 256 316 256q137 0 219 -66t91 -190h-97zM614 -25q-123 0 -219 62.5t-154.5 170.5t-88 245t-29.5 294q0 118 15 225t51 208t91 174.5t140.5 117.5t193.5 44t193.5 -44t140.5 -117.5t91 -174.5t51 -208 t15 -225q0 -157 -29.5 -294t-88 -245t-154.5 -170.5t-219 -62.5zM614 1363q-95 0 -163 -83.5t-100 -220.5t-32 -313t32 -313t100 -220t163 -83t163 83t100 220t32 313t-32 313t-100 220.5t-163 83.5z" />
<glyph unicode="&#x20f;" d="M828 1252q-17 67 -76.5 103t-145.5 36t-141 -35t-68 -104h-98q24 256 316 256q137 0 219 -66t91 -190h-97zM612 1130q160 0 274 -76t169 -203.5t55 -292.5q0 -261 -137.5 -422t-360.5 -161q-118 0 -213 45t-155.5 123.5t-93 182.5t-32.5 225q0 260 136 419.5t358 159.5z M302 550q0 -84 17 -158.5t52 -138t97 -101t144 -37.5q85 0 148 37t98.5 101t52.5 139t17 161q0 68 -10 129t-33.5 118t-59 98.5t-90.5 66.5t-123 25q-82 0 -144 -38t-97 -102.5t-52 -140t-17 -159.5z" />
<glyph unicode="&#x210;" d="M316 1975l248 -337h-128l-312 337h192zM-26 1975l254 -337h-130l-314 337h190zM1115 1093q0 -158 -90.5 -255.5t-240.5 -130.5q53 -49 99.5 -112.5t89 -144.5t70.5 -142t71 -161t64 -147l-217 -1q-23 50 -74.5 169.5t-81.5 184.5t-83.5 152t-110.5 148q-53 9 -151 9h-87 v-662h-187v1491h290q94 0 168 -5.5t150.5 -20.5t131.5 -43.5t99.5 -71.5t67 -108t22.5 -149zM517 824q390 0 390 267q0 68 -27 118.5t-75.5 79.5t-108.5 42.5t-133 13.5h-190v-521h144z" />
<glyph unicode="&#x211;" d="M649 1589l249 -337h-128l-312 337h191zM308 1589l253 -337h-130l-313 337h190zM1026 961q-173 0 -268.5 -87t-95.5 -264v-470h389v-140h-911v140h340v817h-224v140h373l15 -203q137 236 408 236h137v-169h-163z" />
<glyph unicode="&#x212;" d="M547 1638q-17 67 -76.5 103t-145.5 36t-141 -35t-68 -104h-98q24 256 316 256q137 0 219 -66t91 -190h-97zM1115 1093q0 -158 -90.5 -255.5t-240.5 -130.5q53 -49 99.5 -112.5t89 -144.5t70.5 -142t71 -161t64 -147l-217 -1q-23 50 -74.5 169.5t-81.5 184.5t-83.5 152 t-110.5 148q-53 9 -151 9h-87v-662h-187v1491h290q94 0 168 -5.5t150.5 -20.5t131.5 -43.5t99.5 -71.5t67 -108t22.5 -149zM517 824q390 0 390 267q0 68 -27 118.5t-75.5 79.5t-108.5 42.5t-133 13.5h-190v-521h144z" />
<glyph unicode="&#x213;" d="M880 1252q-16 67 -75.5 103t-146.5 36q-85 0 -140 -35t-68 -104h-98q5 65 29 113.5t64 80t96 47t127 15.5q137 0 219 -66t91 -190h-98zM1026 961q-173 0 -268.5 -87t-95.5 -264v-470h389v-140h-911v140h340v817h-224v140h373l15 -203q137 236 408 236h137v-169h-163z" />
<glyph unicode="&#x214;" d="M598 1975l250 -337h-128l-312 337h190zM258 1975l252 -337h-130l-312 337h190zM614 -25q-485 0 -485 567v949h187v-943q0 -75 8 -135t28 -114.5t53 -90.5t86 -57t123 -21t123 21t86 57t53 90.5t28 114.5t8 135v943h187v-949q0 -567 -485 -567z" />
<glyph unicode="&#x215;" d="M598 1589l250 -337h-128l-312 337h190zM258 1589l252 -337h-130l-312 337h190zM614 -25q-199 0 -311.5 114.5t-112.5 314.5v693h182v-709q0 -124 61 -198.5t181 -74.5t181 74.5t61 198.5v709h182v-693q0 -200 -112.5 -314.5t-311.5 -114.5z" />
<glyph unicode="&#x216;" d="M830 1638q-17 67 -76.5 103t-145.5 36t-141 -35t-68 -104h-98q24 256 316 256q137 0 219 -66t91 -190h-97zM614 -25q-485 0 -485 567v949h187v-943q0 -75 8 -135t28 -114.5t53 -90.5t86 -57t123 -21t123 21t86 57t53 90.5t28 114.5t8 135v943h187v-949q0 -567 -485 -567z " />
<glyph unicode="&#x217;" d="M830 1252q-17 67 -76.5 103t-145.5 36t-141 -35t-68 -104h-98q24 256 316 256q137 0 219 -66t91 -190h-97zM614 -25q-199 0 -311.5 114.5t-112.5 314.5v693h182v-709q0 -124 61 -198.5t181 -74.5t181 74.5t61 198.5v709h182v-693q0 -200 -112.5 -314.5t-311.5 -114.5z " />
<glyph unicode="&#x218;" />
<glyph unicode="&#x219;" />
<glyph unicode="&#x21a;" d="M1199 1491v-163h-494v-1328h-187v1328h-488v163h1169zM777 -176l-181 -502h-145l118 502h208z" />
<glyph unicode="&#x21b;" d="M611 953v-511q0 -165 72.5 -231.5t241.5 -66.5h187v-144h-180q-149 0 -244.5 25t-154 86t-81.5 152.5t-23 234.5v455h-290v144h290v418l182 54v-472h490v-144h-490zM788 -176l-181 -502h-145l118 502h208z" />
<glyph unicode="&#x237;" d="M410 -155q50 0 80.5 3.5t56.5 15.5t38.5 29t21.5 51.5t11.5 75.5t2.5 107v826h-485v144h667v-914q0 -82 -2 -131.5t-10 -108.5t-24 -93t-44 -69.5t-70 -53t-102 -29t-140 -11.5h-276v158h275z" />
<glyph unicode="&#x2c6;" d="M709 1615l259 -349h-143l-204 235l-202 -235h-136l259 349h167z" />
<glyph unicode="&#x2c7;" d="M444 1614l188 -235l190 235h171l-273 -348h-165l-272 348h161z" />
<glyph unicode="&#x2d8;" d="M411 1579q26 -141 209 -141q87 0 146 37t77 104h97q-9 -126 -90.5 -191t-220.5 -65q-292 0 -316 256h98z" />
<glyph unicode="&#x2d9;" d="M508 1529h177v-177h-177v177z" />
<glyph unicode="&#x2da;" d="M632 1568q-59 0 -97 -30t-38 -84q0 -47 30 -80.5t76 -33.5q60 0 100 30.5t40 85.5q0 45 -33 78.5t-78 33.5zM852 1455q0 -90 -68 -149t-162 -59q-98 0 -166.5 58t-68.5 150t68 149t166 57q96 0 163.5 -57.5t67.5 -148.5z" />
<glyph unicode="&#x2db;" d="M414 -244q0 40 16.5 76.5t38.5 61t58.5 49.5t62 38.5t63.5 31.5l142 -13q-6 -3 -30.5 -17t-34 -19.5t-32.5 -19.5t-34 -23t-29 -23t-27.5 -25.5t-19.5 -26t-14.5 -29t-4.5 -29.5q0 -48 37 -71t93 -23q60 0 151 35v-121q-78 -32 -163 -32q-77 0 -134.5 14.5t-98 56.5 t-40.5 109z" />
<glyph unicode="&#x2dc;" d="M1037 1536q-6 -111 -62 -179t-161 -68q-47 0 -92 18t-74.5 40t-74 40t-90.5 18q-45 0 -67.5 -27.5t-24.5 -74.5h-137q2 114 62 179.5t172 65.5q48 0 92.5 -18.5t74 -40t73 -40t90.5 -18.5q73 0 81 105h138z" />
<glyph unicode="&#x2dd;" d="M539 1270l254 337h190l-313 -337h-131zM246 1270l249 337h190l-311 -337h-128z" />
<glyph unicode="&#x307;" d="M526 1529h177v-177h-177v177z" />
<glyph unicode="&#x30f;" d="M736 1607l249 -337h-128l-312 337h191zM395 1607l253 -337h-130l-313 337h190z" />
<glyph unicode="&#x311;" d="M830 1323q-17 67 -76.5 103t-145.5 36t-141 -35t-68 -104h-98q24 256 316 256q137 0 219 -66t91 -190h-97z" />
<glyph unicode="&#x326;" d="M777 -176l-181 -502h-145l118 502h208z" />
<glyph unicode="&#x3a9;" d="M1021 131q393 254 393 693q0 181 -72.5 317.5t-197.5 208t-283 71.5q-172 0 -301.5 -76.5t-197 -211.5t-67.5 -309q0 -120 30.5 -228.5t85.5 -194t122 -152t148 -118.5l5 -131h-599l-13 150l378 -1q-171 120 -263 294t-92 427q0 137 44 253.5t118.5 198t173 139t208.5 85 t224 27.5q140 0 260.5 -38t208.5 -106t151 -160t94 -201.5t31 -229.5q0 -406 -361 -689l363 1l-10 -150h-581v131z" />
<glyph unicode="&#x3bc;" d="M362 433q0 -315 285 -315q152 0 241.5 99t89.5 256v641h183q0 -109 -3.5 -328.5t-3.5 -329.5q0 -254 15 -456h-187l-4 146q-130 -171 -374 -171q-143 0 -242 59v-253h-182v1333h182v-681z" />
<glyph unicode="&#x3c0;" d="M1322 7q-80 -15 -154 -15q-56 0 -97 14.5t-66.5 40t-40.5 66t-20.5 85.5t-5.5 105v681h-411q-19 -282 -42.5 -488.5t-66.5 -375.5q-20 -80 -44 -120h-188q48 82 79.5 195t46.5 261.5t20 253t8 274.5q-188 -6 -307 -66l-19 143q91 68 292 68h1034v-145h-226v-671 q0 -76 22.5 -115t85.5 -39q33 0 89 14q-4 -56 -4 -83q0 -41 15 -83z" />
<glyph unicode="&#x2013;" d="M184 531v149h1207v-149h-1207z" />
<glyph unicode="&#x2014;" d="M-6 531v149h2396v-149h-2396z" />
<glyph unicode="&#x2018;" d="M446 1110l171 478h145l-115 -478h-201z" />
<glyph unicode="&#x2019;" d="M761 1588l-169 -478h-146l117 478h198z" />
<glyph unicode="&#x201a;" d="M773 218l-169 -476h-147l117 476h199z" />
<glyph unicode="&#x201c;" d="M620 1110l170 478h148l-116 -478h-202zM233 1110l171 478h147l-116 -478h-202z" />
<glyph unicode="&#x201d;" d="M550 1588l-170 -478h-147l116 478h201zM913 1588l-171 -478h-147l117 478h201z" />
<glyph unicode="&#x201e;" d="M561 218l-170 -476h-147l116 476h201zM958 218l-171 -476h-146l114 476h203z" />
<glyph unicode="&#x2020;" d="M240 1014v144h361v417h157v-417h381v-144h-396v-891h-142v891h-361z" />
<glyph unicode="&#x2021;" d="M236 1067v144h381l-28 364h165v-364h381v-144h-389v-457h381v-138h-381l29 -349h-189l24 349h-381v138h381v457h-374z" />
<glyph unicode="&#x2022;" d="M1126 760q0 -150 -110 -246t-267 -96q-161 0 -265.5 102t-104.5 233q0 66 24.5 123t64.5 96.5t90 68t101 42t98 13.5q81 0 151.5 -29.5t117.5 -77t73.5 -107.5t26.5 -122z" />
<glyph unicode="&#x2026;" d="M78 -12v228h241v-228h-241zM1274 -12v228h240v-228h-240zM675 -12v228h241v-228h-241z" />
<glyph unicode="&#x2030;" d="M2097 740q178 0 274.5 -103t96.5 -284q0 -174 -101 -278.5t-274 -104.5q-178 0 -275 103t-97 283q0 176 101 280t275 104zM1225 740q178 0 274 -103t96 -284q0 -174 -100.5 -278.5t-273.5 -104.5q-177 0 -275 103t-98 283q0 175 101.5 279.5t275.5 104.5zM379 1571 q178 0 275.5 -102.5t97.5 -282.5q0 -176 -100.5 -279t-275.5 -103q-178 0 -275 102t-97 282q0 175 100.5 279t274.5 104zM1234 1559h165l-1034 -1581h-170zM2094 93q105 0 159 73.5t54 188.5h3q0 119 -53.5 190t-162.5 71q-105 0 -159.5 -72.5t-54.5 -187.5q0 -121 52 -192 t162 -71zM1438 355q0 119 -53 190t-161 71q-106 0 -160.5 -72.5t-54.5 -187.5h2q0 -120 52.5 -191.5t161.5 -71.5q103 0 158 74t55 188zM379 1449q-103 0 -157.5 -73.5t-54.5 -186.5q0 -119 53.5 -191t161.5 -72q104 0 157.5 73.5t53.5 187.5q0 119 -52.5 190.5t-161.5 71.5 z" />
<glyph unicode="&#x2039;" d="M881 992l-292 -404l282 -403h-173l-297 403l303 404h177z" />
<glyph unicode="&#x203a;" d="M401 185l290 404l-282 403h173l299 -403l-306 -404h-174z" />
<glyph unicode="&#x2044;" d="M873 1761h186l-709 -1809h-180z" />
<glyph unicode="&#x2074;" d="M710 872h-417v98l403 563h149v-545h119l13 -116h-134v-204h-133v204zM708 988q0 35 -0.5 104.5t-0.5 103.5q0 102 3 154l-265 -362h263z" />
<glyph unicode="&#x20ac;" d="M235 710q-3 39 -3 82q0 21 2 59h-138l26 150h133q23 122 74 225t126 181t180 121.5t229 43.5q239 0 373 -128l-39 -205q-123 176 -326 176q-93 0 -167.5 -34t-124 -94.5t-81 -130.5t-49.5 -155h656l-24 -150h-652l-3 -44q0 -56 4 -97h636l-21 -150h-600q58 -424 417 -424 q173 0 350 139l-1 -194q-154 -103 -367 -103q-138 0 -245.5 43.5t-178 123.5t-112.5 183t-60 232h-149l22 150h113z" />
<glyph unicode="&#x2122;" d="M1062 1201l162 374h174v-830h-136v646l-151 -375h-89l-159 374v-645h-135v830h186zM605 1466h-239v-721h-135v721h-231v109h605v-109z" />
<glyph unicode="&#x2202;" d="M667 1519q-159 0 -317 -103l-11 150q153 98 339 98q113 0 204 -36.5t152.5 -100t102.5 -153t59.5 -192t18.5 -220.5q0 -157 -23 -299.5t-73 -269t-123.5 -219t-182 -146.5t-240.5 -54q-215 0 -333.5 130.5t-118.5 350.5q0 137 42 255.5t115.5 201t176.5 129.5t222 47 q213 0 350 -181l1 82q0 106 -19 197t-60 168t-113 121t-169 44zM1011 712q-82 231 -318 231q-121 0 -210.5 -71.5t-131.5 -181t-42 -237.5q0 -150 71 -241.5t209 -91.5q81 0 149 38t113.5 98t79.5 140.5t52.5 157.5t27.5 158z" />
<glyph unicode="&#x2206;" d="M-62 0v87l576 1465h201l576 -1465v-87h-1353zM1035 176q-47 124 -140.5 354t-165 421t-122.5 371q-56 -172 -126.5 -365t-157 -421.5t-134.5 -359.5h846z" />
<glyph unicode="&#x220f;" d="M1503 1388v-1746h-197v1746h-800v-1746h-194v1746h-138l-18 157h1491l-18 -157h-126z" />
<glyph unicode="&#x2211;" d="M74 -358v98l709 859l-683 843v103h1211v-154h-940l634 -782l-669 -806h1026v-161h-1288z" />
<glyph unicode="&#x2212;" d="M1312 538h-1160v149h1160v-149z" />
<glyph unicode="&#x221a;" d="M668 45q81 341 258 972.5t199 714.5h144l-516 -1898h-150l-367 915l-191 -30l-22 121l327 56q13 -33 79 -198.5t91.5 -232t70.5 -191.5t77 -229z" />
<glyph unicode="&#x221e;" d="M1604 663q0 106 -68.5 171.5t-177.5 65.5q-37 0 -69 -6.5t-59.5 -21t-47.5 -27.5t-44 -38.5t-36 -39.5t-35.5 -45t-32.5 -42q-20 -25 -41 -38q86 -112 130 -154q106 -103 222 -103q129 0 194 72.5t65 205.5zM467 899q-112 0 -182.5 -72t-70.5 -185q0 -111 75 -184 t187 -73q49 0 97 17.5t83 41.5t73 62.5t59.5 65.5t50.5 66q-30 44 -51.5 71.5t-59.5 67.5t-73 63.5t-85 41t-103 17.5zM1341 1024q192 0 305 -98.5t113 -281.5q0 -90 -36 -166t-94.5 -123.5t-128.5 -73.5t-141 -26q-47 0 -91 9.5t-77.5 22t-69.5 37t-58.5 43t-54 53t-47 53 t-45.5 56.5q-220 -274 -444 -274q-177 0 -289.5 115.5t-112.5 292.5q0 86 39 157t99.5 114t128.5 66.5t131 23.5q62 0 121 -17.5t103 -42.5t89 -65t74 -72.5t64 -76.5q31 39 43 54t45 51.5t53.5 53.5t56.5 43.5t67 39t72.5 22.5t84.5 10z" />
<glyph unicode="&#x222b;" d="M1019 1608q-45 16 -109 16q-113 0 -152.5 -55t-39.5 -180v-1414q0 -408 -330 -408q-66 0 -149 22l-3 141q51 -17 109 -17q111 0 150.5 56t39.5 180v1414q0 408 333 408q40 0 148 -23z" />
<glyph unicode="&#x2248;" d="M998 413q37 0 67.5 16t52.5 46t35 55.5t27 61.5l123 -29q-65 -279 -320 -279q-70 0 -145 28t-127.5 61.5t-115 61.5t-111.5 28q-145 0 -200 -180l-126 31q69 278 335 278q65 0 128 -19t105 -43.5t99 -56t99 -46.5q39 -14 74 -14zM481 867q-82 0 -127 -49t-70 -130 q-11 2 -63.5 15.5t-66.5 13.5h-2q30 129 112 204t223 75q78 0 150 -29.5t148.5 -74.5t123.5 -62q36 -13 73 -13q43 0 75.5 14.5t55 43t36 56t27.5 66.5l123 -31q-64 -278 -321 -278q-64 0 -125.5 19.5t-103 44t-97 56t-97.5 46.5q-35 13 -74 13z" />
<glyph unicode="&#x2260;" d="M929 922h342l11 -131h-418l-164 -308h573l9 -130h-647l-155 -303l-135 20l142 283h-326l-8 130h401l162 308h-555l-9 131h627l151 297l138 -19z" />
<glyph unicode="&#x2264;" d="M191 723v88l1052 512v-151l-857 -401l857 -384v-152zM152 9v134h1123v-134h-1123z" />
<glyph unicode="&#x2265;" d="M1249 812v-86l-1062 -489v152l866 378l-901 407l39 151zM152 9v134h1119l-22 -134h-1097z" />
<glyph unicode="&#x25ca;" d="M740 -48h-116l-499 820l506 823h119l501 -822zM694 1437q-76 -132 -223.5 -369.5t-181.5 -293.5l393 -668q57 102 123 211.5t151 246.5t128 208q-44 76 -124 209t-145.5 244.5t-120.5 211.5z" />
<glyph unicode="&#x25fc;" horiz-adv-x="1095" d="M0 1095h1095v-1095h-1095v1095z" />
<glyph unicode="&#xf6c3;" d="M810 -152l-181 -503h-146l119 503h208z" />
<glyph unicode="&#xfb01;" d="M772 1481q-44 16 -111 16q-51 0 -86.5 -14t-56 -35.5t-31.5 -59t-14 -72.5t-3 -87q0 -17 0.5 -56t0.5 -59h690v-1114h-181v997h-509v-997h-182v997h-222v117h222q1 57 3 96.5t6.5 89t11.5 84t19.5 73t29.5 64.5t42 51t56 39.5t72.5 23.5t91.5 9q43 0 149 -23zM1158 1418 h-171v169h171v-169z" />
<glyph unicode="&#xfb02;" d="M753 1453q-48 -4 -76.5 -7.5t-63 -11.5t-53.5 -20t-38.5 -31.5t-29.5 -48t-16 -68t-6 -91.5v-68h280v-113h-280v-994h-213v994h-200v113h200q0 95 6 159t24.5 125.5t55 102t94.5 65.5q59 25 132 37.5t184 22.5v-166zM957 0v1620h214v-1620h-214z" />
<glyph d="M487 557v228h241v-228h-241z" />
<glyph />
<glyph d="M621 136q57 0 100.5 7t82.5 24.5t59.5 52t20.5 84.5q0 34 -17.5 62t-42 44.5t-65 32t-70 22.5t-75 16.5t-64.5 14.5q-57 15 -100 30t-89.5 41.5t-76 59t-49 82t-19.5 110.5q0 78 34 139t92 97.5t131 55.5t155 19q253 0 403 -69l-58 -147q-137 55 -336 55 q-90 0 -150 -34.5t-60 -109.5q0 -35 17.5 -63.5t41.5 -45.5t64 -32t70 -22t75.5 -17t65.5 -15q60 -16 100 -29.5t88.5 -39t77 -55.5t48.5 -78.5t20 -108.5q0 -88 -37.5 -155.5t-102 -108t-145.5 -60.5t-174 -20q-293 0 -433 101l58 155q134 -95 360 -95zM812 -176l-181 -502 h-145l118 502h208z" />
<glyph d="M212 271q151 -123 381 -123q122 0 186 66t64 190q0 37 -9.5 69t-23.5 56t-39.5 47t-46.5 37.5t-55.5 31.5t-57 26l-60 24t-55.5 23q-62 26 -103.5 46.5t-91.5 56.5t-80 75t-50.5 97.5t-20.5 129.5q0 187 127 290.5t327 103.5q244 0 391 -116l-70 -152q-123 96 -331 96 q-110 0 -173 -59t-64 -167q0 -43 18 -80t43 -61.5t66.5 -48.5t73 -36.5t79 -31t69.5 -28.5q61 -27 105 -51t93 -62.5t79.5 -82t50.5 -106t20 -136.5q0 -204 -125.5 -312t-339.5 -108q-255 0 -448 129zM760 -176l-181 -502h-145l118 502h208z" />
</font>
</defs>
</svg>
