<?xml version="1.0" standalone="no"?>
<!DOCTYPE svg PUBLIC "-//W3C//DTD SVG 1.1//EN" "http://www.w3.org/Graphics/SVG/1.1/DTD/svg11.dtd" >
<svg>
<font id="ProggyCrossed-Regular" horiz-adv-x="60.200000000000003" >
<font-face units-per-em="100" ascent="80" descent="-20" />
<glyph unicode=" " horiz-adv-x="60.200000000000003" d="" />
<glyph unicode="!" horiz-adv-x="60.200000000000003" d="M26.1 25.87391 C28.05 25.87391 31.95 25.87391 33.9 25.87391 C34.3 34.47391 34.97391 51.67391 35.37391 60.27391 C35.37391 64.27391 35.37391 69.27391 35.37391 72.27391 C32.61196 72.27391 27.08804 72.27391 24.32609 72.27391 C24.32609 69.27391 24.32609 63.27391 24.32609 60.27391 C24.82609 51.67391 25.6 34.47391 26.1 25.87391 zM35.16371 1.78552 C36.56371 3.08552 37.26371 4.78552 37.26371 6.78552 C37.26371 8.78552 36.56371 10.48552 35.16371 11.78552 C33.76371 13.08552 32.16371 13.68552 30.16371 13.68552 C28.16371 13.68552 26.56371 13.08552 25.16371 11.78552 C23.76371 10.48552 23.16371 8.78552 23.16371 6.78552 C23.16371 4.78552 23.76371 3.08552 25.16371 1.78552 C26.56371 0.48552 28.16371 -0.11448 30.16371 -0.11448 C32.16371 -0.11448 33.76371 0.48552 35.16371 1.78552 z" />
<glyph unicode="&#x22;" horiz-adv-x="60.200000000000003" d="M16.5 43.1 C18.625 43.1 22.875 43.1 25 43.1 C25 49.45 25 62.15 25 68.5 C22.875 68.5 18.625 68.5 16.5 68.5 C16.5 62.15 16.5 49.45 16.5 43.1 zM35.2 43.1 C37.325 43.1 41.575 43.1 43.7 43.1 C43.7 49.45 43.7 62.15 43.7 68.5 C41.575 68.5 37.325 68.5 35.2 68.5 C35.2 62.15 35.2 49.45 35.2 43.1 z" />
<glyph unicode="#" horiz-adv-x="60.200000000000003" d="M7.6 0.5 C9.55 0.5 13.45 0.5 15.4 0.5 C16.7 5.3 19.2 14.7 20.5 19.5 C24.5 19.5 29.5 19.5 32.5 19.5 C31.2 14.7 28.7 5.3 27.4 0.5 C30 0.5 33.25 0.5 35.2 0.5 C36.5 5.3 39 14.7 40.3 19.5 C45 19.5 50.875 19.5 54.4 19.5 C54.4 21.25 54.4 24.75 54.4 26.5 C51.35 26.5 45.25 26.5 42.2 26.5 C43.2 30.3 45.3 38 46.3 41.8 C50.86667 41.8 56.575 41.8 60 41.8 C60 43.575 60 47.125 60 48.9 C57.025 48.9 51.075 48.9 48.1 48.9 C49.4 53.7 51.9 63.1 53.2 67.9 C50.6 67.9 47.35 67.9 45.4 67.9 C44.1 63.1 41.6 53.7 40.3 48.9 C36.3 48.9 31.3 48.9 28.3 48.9 C29.6 53.7 32.1 63.1 33.4 67.9 C30.8 67.9 27.55 67.9 25.6 67.9 C24.3 63.1 21.8 53.7 20.5 48.9 C15.56667 48.9 9.4 48.9 5.7 48.9 C5.7 47.125 5.7 43.575 5.7 41.8 C8.95 41.8 15.45 41.8 18.7 41.8 C17.7 38 15.6 30.3 14.6 26.5 C9.76667 26.5 3.725 26.5 0.1 26.5 C0.1 24.75 0.1 21.25 0.1 19.5 C3.25 19.5 9.55 19.5 12.7 19.5 C11.4 14.7 8.9 5.3 7.6 0.5 zM22.4 26 C23.4 29.8 25.5 37.6 26.5 41.4 C30.5 41.4 35.5 41.4 38.5 41.4 C37.5 37.6 35.4 29.8 34.4 26 C30.4 26 25.4 26 22.4 26 z" />
<glyph unicode="$" horiz-adv-x="60.200000000000003" d="M27.2 -1.9 C29.15 -1.9 33.05 -1.9 35 -1.9 C35 -0.475 35 2.375 35 3.8 C39.9 4.1 44.3 5.8 48.3 9 C52.1 12.2 54 16.2 54 20.9 C54 25.5 52.2 29.3 48.7 32.3 C46 35.1 41.4 37.1 35 38.1 C35 44.66667 35 52.875 35 57.8 C36 57.7 37.1 57.7 38.1 57.5 C39.1 57.3 40.2 57 41.3 56.7 C42.2 56.5 43.4 56.2 44.9 55.6 C46.4 55 47.9 54.4 49.3 53.7 C49.3 56.33333 49.3 59.625 49.3 61.6 C47.9 62 46.6 62.4 45.3 62.7 C44 63 42.6 63.3 41.3 63.5 C40.1 63.7 38.7 64 37.2 64.3 C35.7 64.6 35 64.8 35 64.9 C35 66.76667 35 69.1 35 70.5 C33 70.5 29 70.5 27 70.5 C27 69.1 27 66.3 27 64.9 C22.1 64.5 17.8 62.6 14.1 59.5 C10.6 56.6 8.9 52.8 8.9 48 C8.9 43.4 10.5 39.7 13.8 36.9 C15.5 35.5 17.4 34.3 19.5 33.4 C21.6 32.5 24.1 31.9 27 31.4 C27 24.36667 27 15.575 27 10.3 C24 10.4 21.2 10.9 18.7 11.9 C17 12.4 15.5 13 13.9 13.7 C12.3 14.4 10.7 15.3 8.9 16.3 C8.9 13.53333 8.9 10.075 8.9 8 C12.3 6.7 15.5 5.7 18.6 5.1 C20.3 4.8 22 4.4 23.8 4.2 C25.6 4 26.6 3.9 27 3.8 C27.1 2.4 27.1 -0.5 27.2 -1.9 zM27 39.2 C24.3 39.7 22 40.7 20 42.3 C18.4 44.2 17.6 46.3 17.7 48.5 C17.9 50.6 18.7 52.6 20 54.5 C21.6 56.6 23.9 57.8 27 58.1 C27 51.8 27 43.925 27 39.2 zM35 30.3 C38.3 30.2 41 29.5 43 28.2 C45 26.3 46 24.1 46 21.6 C46 18.5 45 15.7 43 13.2 C41.3 11.9 38.6 10.9 35 10.3 C35 16.96667 35 25.3 35 30.3 z" />
<glyph unicode="%" horiz-adv-x="60.200000000000003" d="M20.4 42.7 C22 43.4 23.5 44.2 24.7 45.3 C27.3 47.7 28.5 50.7 28.5 54.3 C28.5 56 28.2 57.6 27.5 59.1 C26.8 60.6 25.9 61.9 24.6 63.1 C23.3 64.3 21.9 65.2 20.3 65.8 C18.7 66.4 17 66.8 15.2 66.8 C12.7 66.8 10.4 66.3 8.4 65.2 C6.4 64.1 4.8 62.6 3.6 60.7 C2.4 58.8 1.9 56.6 1.9 54.2 C1.9 50.6 3.1 47.7 5.7 45.3 C6.9 44.2 8.3 43.3 9.9 42.7 C11.5 42.1 13.2 41.7 15.1 41.7 C17 41.7 18.8 42 20.4 42.7 zM12.4 48.5 C11.6 48.8 11 49.3 10.5 49.8 C9.2 51 8.6 52.4 8.6 54.2 C8.6 56 9.2 57.4 10.5 58.6 C11.8 59.8 13.3 60.3 15.1 60.3 C16.8 60.3 18.4 59.7 19.7 58.5 C21 57.3 21.7 55.9 21.7 54.2 C21.7 53.3 21.5 52.4 21.1 51.7 C20.7 51 20.2 50.3 19.7 49.8 C18.4 48.6 16.9 48 15.1 48 C14.1 48 13.2 48.2 12.4 48.5 zM50.2 2.7 C51.8 3.4 53.2 4.3 54.4 5.4 C57 7.8 58.2 10.7 58.2 14.3 C58.2 16 57.9 17.6 57.2 19.1 C56.5 20.6 55.6 21.9 54.3 23.1 C53 24.3 51.6 25.2 50 25.8 C48.4 26.4 46.7 26.8 44.9 26.8 C42.4 26.8 40.1 26.3 38.1 25.2 C36.1 24.1 34.6 22.6 33.4 20.7 C32.2 18.8 31.6 16.6 31.6 14.2 C31.6 10.6 32.8 7.7 35.4 5.3 C36.6 4.2 38 3.3 39.6 2.7 C41.2 2.1 43 1.7 44.9 1.7 C46.8 1.7 48.6 2 50.2 2.7 zM42.1 8.5 C41.3 8.8 40.7 9.3 40.2 9.8 C38.9 11 38.3 12.4 38.3 14.2 C38.3 16 38.9 17.4 40.2 18.6 C41.5 19.8 43 20.3 44.8 20.3 C46.5 20.3 48.1 19.7 49.4 18.5 C50.7 17.3 51.4 15.9 51.4 14.2 C51.4 13.3 51.2 12.4 50.8 11.7 C50.4 11 49.9 10.3 49.4 9.8 C48.1 8.6 46.6 8 44.8 8 C43.8 8 42.9 8.2 42.1 8.5 zM6.2 1.8 C8.525 1.8 13.175 1.8 15.5 1.8 C25.1 18.1 44.3 50.5 53.9 66.8 C50.8 66.8 46.925 66.8 44.6 66.8 C35 50.5 15.8 18.1 6.2 1.8 z" />
<glyph unicode="&#x26;" horiz-adv-x="60.200000000000003" d="M39.1 58.9 C39.1 53.9 39.5 49 27.6 40.8 C31.9 35.3 35.4 30.8 38 27.4 C40.6 24 43.6 20.3 47 16 C48.9 18.4 50 21.2 50.4 24.4 C50.8 27.6 50.8 31.1 50.6 34.6 C50.6 34.9 50.7 34.9 50.9 34.9 C53.46667 34.9 56.675 34.9 58.6 34.9 C58.6 27.8 57.9 22.6 56.6 19.2 C55.3 15.8 53.5 12.9 51.3 10.5 C53.4 7.9 56.8 3.5 59.6 0 C54 0 50.9 -0.1 50.3 -0.1 C49.7 -0.1 48 1.6 45.4 5 C40.3 0.9 34.3 -1.2 27.3 -1.3 C27.06667 -1.3 26.775 -1.3 26.6 -1.3 C19.9 -1.3 14.3 0.8 9.7 4.9 C5.1 9 2.8 13.8 2.8 19.4 C2.8 20.7 2.9 22 3.1 23.4 C4.4 30.7 8.8 36.9 16.3 42 C10.7 46.3 7.9 50.6 7.9 54.9 C8 61.3 10.5 65.7 15.4 68.2 C18.3 69.7 21.4 70.4 24.6 70.4 C26.7 70.4 29 70.1 31.2 69.4 C37.1 67.7 39.1 63.5 39.1 58.9 zM21.7 7 C23.8 6.2 26.1 5.7 28.6 5.7 C30.1 5.7 31.5 5.9 33 6.3 C34.7 6.7 36.2 7.3 37.4 7.9 C38.2 8.3 38.9 8.7 39.6 9.1 C40.3 9.5 40.7 9.8 40.7 9.9 C40.7 10 40.9 10 41.2 10.2 C27.5 27.7 27.5 27.7 20.7 36.5 C17.6 34.2 15.2 32 13.6 29.8 C12.1 27.3 11.4 24.6 11.4 21.7 C11.4 17.1 13 13.3 16.2 10.3 C17.7 8.9 19.6 7.8 21.7 7 zM28.6 50.5 C32.7 54 32.7 61.2 28.5 62.7 C25 63.9 21.9 63.5 19 61.3 C17 59.5 16.4 57 17.1 54 C17.8 51 20.8 48.9 23.1 46.6 C24.7 47.5 26.6 48.8 28.6 50.5 z" />
<glyph unicode="'" horiz-adv-x="60.200000000000003" d="M26 43.2 C28.25 43.2 32.75 43.2 35 43.2 C35 49.575 35 62.325 35 68.7 C32.75 68.7 28.25 68.7 26 68.7 C26 62.325 26 49.575 26 43.2 z" />
<glyph unicode="(" horiz-adv-x="60.200000000000003" d="M38.8 -8 C30.2 6 25.9 20 25.9 33.9 C25.9 40.8 27.1 47.9 29.2 54.9 C30.2 58.3 31.6 61.7 33.1 65.1 C34.6 68.5 36.5 72 38.8 75.7 C36.2 75.7 32.95 75.7 31 75.7 C28.5 72 26.4 68.5 24.6 65 C22.8 61.5 21.2 58 20 54.5 C17.6 47.5 16.4 40.6 16.4 33.9 C16.4 27.1 17.6 20.3 20 13.3 C22.3 6.5 26 -0.6 31 -8 C33.6 -8 36.85 -8 38.8 -8 z" />
<glyph unicode=")" horiz-adv-x="60.200000000000003" d="M27.8 -7.5 C32.7 -0.3 36.4 6.8 38.8 13.7 C41.2 20.7 42.4 27.6 42.4 34.4 C42.4 41.1 41.2 48 38.8 55 C36.5 61.9 32.8 68.9 27.8 76.2 C25.2 76.2 21.95 76.2 20 76.2 C22.2 72.6 24.2 69 25.8 65.5 C27.4 62 28.7 58.6 29.7 55.3 C31.8 48.4 32.9 41.4 32.9 34.4 C32.9 30.8 32.7 27.2 32.1 23.7 C31.5 20.2 30.7 16.8 29.7 13.5 C27.5 6.5 24.3 -0.5 20 -7.5 C22.6 -7.5 25.85 -7.5 27.8 -7.5 z" />
<glyph unicode="*" horiz-adv-x="60.200000000000003" d="M4.5 44.1 C8.7 41.8 17.2 37.1 21.4 34.8 C17.2 32.5 8.7 27.8 4.5 25.5 C5.5 23.8 7.6 20.6 8.6 18.9 C12.9 21.2 19.9 24.9 25.6 27.9 C25.6 24.16667 25.6 19.5 25.6 16.7 C25.6 14.725 25.6 10.775 25.6 8.8 C26.65 8.8 28.75 8.8 29.8 8.8 C30.125 8.8 30.775 8.8 31.1 8.8 C31.85 8.8 33.35 8.8 34.1 8.8 C34.1 13.575 34.1 23.125 34.1 27.9 C38.4 25.6 46.9 21 51.2 18.7 C52.3 20.4 54.4 23.6 55.5 25.3 C51.2 27.7 42.7 32.4 38.4 34.8 C42.7 37.1 51.3 41.8 55.6 44.1 C54.5 45.8 52.4 49.2 51.3 50.9 C47 48.6 38.4 43.9 34.1 41.6 C34.1 47.66667 34.1 55.25 34.1 59.8 C31.975 59.8 27.725 59.8 25.6 59.8 C25.6 55.25 25.6 46.15 25.6 41.6 C21.4 43.9 13 48.5 8.8 50.8 C7.7 49.1 5.6 45.8 4.5 44.1 z" />
<glyph unicode="+" horiz-adv-x="60.200000000000003" d="M25.8 9.8 C27.85 9.8 31.95 9.8 34 9.8 C34 14.875 34 25.025 34 30.1 C39.5 30.1 50.5 30.1 56 30.1 C56 32.05 56 35.95 56 37.9 C50.5 37.9 39.5 37.9 34 37.9 C34 43 34 53.2 34 58.3 C31.95 58.3 27.85 58.3 25.8 58.3 C25.8 53.2 25.8 43 25.8 37.9 C20.35 37.9 9.45 37.9 4 37.9 C4 35.95 4 32.05 4 30.1 C9.45 30.1 20.35 30.1 25.8 30.1 C25.8 25.025 25.8 14.875 25.8 9.8 z" />
<glyph unicode="," horiz-adv-x="60.200000000000003" d="M25.9 -5.8 C24.8 -7.3 22.9 -9.3 20 -11.8 C20.7 -12.7 21.2 -13.5 21.7 -14.2 C22.2 -14.9 22.8 -15.7 23.5 -16.7 C25.6 -15.4 27.8 -13.3 30.3 -10.5 C32.8 -7.7 34.8 -4.4 36.2 -0.6 C36.5 0.2 36.7 1.3 36.9 2.5 C37.1 3.6 37.2 4.9 37.2 6.3 C37.2 6.5 37.2 6.75 37.2 6.9 C37.2 8.9 36.5 10.6 35.1 11.9 C33.7 13.2 32.1 13.8 30.1 13.8 C28.1 13.8 26.5 13.2 25.1 11.9 C23.7 10.6 23.1 8.9 23.1 6.9 C23.1 4.9 23.7 3.2 25 1.9 C26.3 0.6 27.6 0 28.8 0 C27.9 -2.4 27 -4.3 25.9 -5.8 z" />
<glyph unicode="-" horiz-adv-x="60.200000000000003" d="M8.1 30.1 C19.125 30.1 41.175 30.1 52.2 30.1 C52.2 32.1 52.1 36 52.1 38 C37.43333 38 19.1 38 8.1 38 C8.1 36.025 8.1 32.075 8.1 30.1 z" />
<glyph unicode="." horiz-adv-x="60.200000000000003" d="M35.2 1.8 C36.6 3.1 37.3 4.8 37.3 6.8 C37.3 8.8 36.6 10.5 35.2 11.8 C33.8 13.1 32.2 13.8 30.2 13.8 C28.2 13.8 26.6 13.1 25.2 11.8 C23.8 10.5 23.1 8.8 23.1 6.8 C23.1 4.8 23.8 3.1 25.2 1.8 C26.6 0.5 28.2 -0.1 30.2 -0.1 C32.2 -0.1 33.8 0.5 35.2 1.8 z" />
<glyph unicode="/" horiz-adv-x="60.200000000000003" d="M6.3 -4.7 C8.625 -4.7 13.275 -4.7 15.6 -4.7 C25.2 14.6 44.4 53.2 54 72.5 C51.675 72.5 47.025 72.5 44.7 72.5 C35.1 53.2 15.9 14.6 6.3 -4.7 z" />
<glyph unicode="0" horiz-adv-x="60.200000000000003" d="M47.8 7.7 C49.8 10.6 51.2 14.2 52.2 18.6 C53.2 23 53.7 28.2 53.7 34.2 C53.7 40.2 53.2 45.4 52.2 49.8 C51.2 54.2 49.8 57.9 47.8 60.8 C43.8 66.8 37.9 69.8 30.1 69.8 C22.3 69.8 16.4 66.8 12.5 60.8 C8.5 54.8 6.5 45.9 6.5 34.2 C6.5 22.5 8.5 13.7 12.5 7.7 C16.4 1.7 22.3 -1.3 30.1 -1.3 C37.9 -1.3 43.8 1.7 47.8 7.7 zM16.27225 24.14177 C15.74238 27.15871 15.53043 30.27622 15.53043 33.39373 C15.53043 38.32141 15.84836 42.54513 16.4842 46.06489 C17.12005 49.58466 17.96784 52.40048 19.13356 54.71347 C21.46499 59.44001 25.17409 61.753 30.04891 61.753 C35.0297 61.753 38.63282 59.44001 40.96425 54.71347 C32.69826 44.55642 24.53825 34.39938 16.27225 24.14177 zM44.14204 44.51067 C44.67191 41.49373 44.88386 38.47678 44.88386 35.35927 C44.88386 30.4316 44.67191 26.20788 44.03606 22.68811 C43.40022 19.16834 42.44645 16.35253 41.28073 14.03954 C38.9493 9.31299 35.34618 7 30.47136 7 C25.49057 7 21.78147 9.31299 19.45004 14.03954 C27.71603 24.19658 35.87605 34.25306 44.14204 44.51067 z" />
<glyph unicode="1" horiz-adv-x="60.200000000000003" d="M12.63043 0 C21.84891 0 40.28587 0 49.50435 0 C49.50435 2.00435 49.50435 6.01304 49.50435 8.01739 C46.03152 8.01739 39.08587 8.01739 35.61304 8.01739 C35.61304 23.13804 35.61304 53.37935 35.61304 68.5 C33.33804 68.5 28.78804 68.5 26.51304 68.5 C23.81304 66.4 15.26087 60.22609 12.56087 58.12609 L12.76087 47.42609 C15.46087 49.52609 23.91304 55.9 26.61304 58 C26.61304 41.33913 26.61304 20.51304 26.61304 8.01739 C23.11739 8.01739 16.12609 8.01739 12.63043 8.01739 C12.63043 6.01304 12.63043 2.00435 12.63043 0 z" />
<glyph unicode="2" horiz-adv-x="60.200000000000003" d="M7.4 0 C18.6 0 41 0 52.2 0 C52.2 2 52.2 6 52.2 8 C43.7 8 26.7 8 18.2 8 C20.4 10.2 22.2 12 23.5 13.4 C24.8 14.8 26.1 15.9 27.3 17 C28.5 18.1 29.5 19.2 30.6 20.2 C31.7 21.2 32.9 22.3 34.1 23.6 C35.8 25.3 37.3 26.9 38.6 28.3 C39.9 29.7 41.1 30.9 42 31.9 C43.8 33.9 45.2 35.6 46.3 37.1 C47.4 38.6 48.4 40 49.1 41.5 C50.5 44.5 51.2 47.6 51.2 50.6 C51.2 53.5 50.7 56.2 49.5 58.5 C48.3 60.8 46.8 62.8 44.8 64.4 C42.6 66.2 40 67.6 37 68.5 C34 69.4 30.9 69.8 27.5 69.8 C24.3 69.6 21.1 69 17.9 68.1 C13.04348 66.06522 10.33913 64.72174 7.8 63.41304 C7.83623 60.56667 7.88152 57.0087 7.9087 54.87391 C15.2087 58.97391 21.6 61.6 27.6 62 C31.8 62 35.1 60.9 37.5 58.7 C39.9 56.6 41.1 53.6 41.1 49.8 C41.1 47.4 40.5 45 39.4 42.6 C38.7 41.3 37.9 40 36.9 38.6 C35.9 37.2 34.5 35.6 32.8 33.6 C32.2 32.9 31.6 32.1 31 31.5 C30.13333 30.63333 29.05 29.55 28.4 28.9 C27.3 27.8 25.6 26.1 23.4 23.8 C20.5 20.8 17.7 18 15.2 15.5 C12.7 13 10.5 10.8 8.6 9 C7.8 8.2 7.4 7.3 7.4 6.2 C7.4 4.13333 7.4 1.55 7.4 0 z" />
<glyph unicode="3" horiz-adv-x="60.200000000000003" d="M38.5 0 C41.6 0.9 44.4 2.3 46.6 4.1 C51.1 7.7 53.3 12.7 53.3 18.9 C53.3 21.1 53 23.2 52.4 25.1 C51.8 27 50.8 28.7 49.5 30.3 C47 33.3 43.3 35.5 38.5 36.7 C42.8 37.8 46 39.5 48.2 42 C49.3 43.2 50.1 44.6 50.7 46.2 C51.3 47.8 51.6 49.5 51.6 51.5 C51.6 57.1 49.5 61.5 45.3 64.8 C43.2 66.5 40.6 67.7 37.7 68.5 C34.8 69.3 31.7 69.8 28.3 69.8 C25.7 69.8 22.9 69.5 20 69 C16.9 68.5 13.5 67.8 9.5 66.8 C9.5 63.96667 9.5 60.425 9.5 58.3 C12.9 59.6 16.1 60.4 19.2 61 C22.4 61.6 25.3 62 28 62 C32.6 62 36 61.1 38.3 59.2 C40.6 57.3 41.8 54.7 41.8 51.2 C41.8 47.7 40.5 45 38 43.2 C35.5 41.3 32 40.4 27.4 40.4 C24.9 40.4 21.775 40.4 19.9 40.4 C19.9 38.5 19.9 34.7 19.9 32.8 C21.775 32.8 25.525 32.8 27.4 32.8 C32.4 32.8 36.3 31.6 39.2 29.3 C42.1 27 43.5 23.8 43.5 19.7 C43.5 15.5 42.1 12.2 39.2 9.9 C36.3 7.6 32.1 6.5 26.7 6.5 C25.1 6.5 23.5 6.6 21.9 6.8 C20.3 7 18.7 7.3 17.1 7.7 C15.4 8.1 13.8 8.7 12.2 9.3 C10.6 9.9 9 10.6 7.3 11.4 C7.3 8.3 7.3 4.425 7.3 2.1 C9.1 1.5 10.8 1 12.6 0.6 C14.4 0.2 16 -0.3 17.5 -0.5 C19.3 -0.8 21 -1 22.7 -1.1 C24.4 -1.2 26 -1.3 27.6 -1.3 C31.7 -1.3 35.4 -0.9 38.5 0 z" />
<glyph unicode="4" horiz-adv-x="60.200000000000003" d="M35.81304 0 C38.01304 0 42.41304 0 44.61304 0 C44.61304 4.075 44.61304 12.225 44.61304 16.3 C47.52717 16.3 53.35543 16.3 56.26957 16.3 C56.26957 18.2 56.26957 22 56.26957 23.9 C53.35543 23.9 47.52717 23.9 44.61304 23.9 C44.61304 35.05 44.61304 57.35 44.61304 68.5 C41.31304 68.5 34.71304 68.5 31.41304 68.5 C24.51304 57.8 10.81304 36.6 3.91304 25.9 C3.91304 22.7 3.91304 18.7 3.91304 16.3 C11.88804 16.3 27.83804 16.3 35.81304 16.3 C35.81304 12.225 35.81304 4.075 35.81304 0 zM13.3 23.9 C16.8 29.3 23.7 40.2 27.2 45.6 C29.6 49.2 34.5 56.5 36.9 60.1 C36.9 48.03333 36.9 32.95 36.9 23.9 C31 23.9 19.2 23.9 13.3 23.9 z" />
<glyph unicode="5" horiz-adv-x="60.200000000000003" d="M37.1 0.3 C40.3 1.4 43.1 2.9 45.3 4.9 C49.9 9.1 52.2 14.8 52.2 22.1 C52.2 29.2 50 34.8 45.6 39 C43.5 40.9 41 42.5 38 43.6 C35 44.7 31.5 45.3 27.6 45.3 C26 45.3 24.5 45.2 23.3 45 C21.9 44.8 20.5 44.4 19.1 43.9 C19.1 49.5 19.1 56.5 19.1 60.7 C26.37391 60.7 40.92174 60.7 48.19565 60.7 C48.19565 62.65 48.19565 66.55 48.19565 68.5 C38.67174 68.5 19.62391 68.5 10.1 68.5 C10.1 59.9 10.1 42.7 10.1 34.1 C12.3 35.2 14.8 36.1 17.3 36.7 C19.8 37.3 22.3 37.5 24.8 37.5 C27.8 37.5 30.4 37.1 32.5 36.4 C34.6 35.7 36.3 34.7 37.7 33.5 C39.1 32.2 40.3 30.6 41.1 28.7 C41.9 26.8 42.3 24.6 42.3 21.9 C42.3 17 40.8 13.2 37.9 10.5 C35 7.8 30.7 6.5 25 6.5 C22 6.5 19 6.8 16 7.6 C13 8.3 10.1 9.5 7 11 C7 7.86667 7 3.95 7 1.6 C8.3 1.1 9.6 0.7 11 0.3 C12.4 -0.1 13.9 -0.4 15.6 -0.6 C17.2 -0.8 18.9 -1 20.7 -1.1 C22.5 -1.2 24.1 -1.3 25.6 -1.3 C30 -1.3 33.9 -0.8 37.1 0.3 z" />
<glyph unicode="6" horiz-adv-x="60.200000000000003" d="M47.8 4.9 C51.7 8.9 53.7 14.6 53.7 22.1 C53.7 29.4 51.8 35.1 47.9 39.2 C44 43.3 38.7 45.3 32 45.3 C28.2 45.3 24.9 44.5 22.1 42.9 C19.3 41.2 17.2 38.9 15.6 35.8 C15.8 43.6 17.6 49.7 20.8 54.2 C25.2 58.8 29.8 61.2 34.7 61.3 C35.8 61.3 37.1 61.2 38.3 61.2 C39.5 61.2 40.7 61 41.8 60.7 C44.1 60.1 46.3 59.3 48.4 58.1 C48.4 60.96667 48.4 64.55 48.4 66.7 C47.4 67.1 46.3 67.3 45.1 67.6 C43.9 67.9 42.7 68.2 41.4 68.4 C40.5 68.6 39.5 68.7 38.4 68.7 C38.2 68.7 37.95 68.7 37.8 68.7 C36.5 68.7 35.2 68.6 34.1 68.6 C27.4 68.5 21 65.6 15.2 60.1 C9.4 54.6 6.5 45.6 6.5 33.2 C6.5 27.6 6.9 22.6 7.9 18.3 C8.9 14 10.4 10.3 12.5 7.3 C14.4 4.5 16.8 2.5 19.8 1.1 C22.8 -0.3 26.4 -1 30.9 -1 C38.2 -1 43.9 0.9 47.8 4.9 zM25 7.4 C23.3 8.1 22 9.2 20.9 10.5 C19.8 11.8 18.8 13.4 18.2 15.3 C17.6 17.2 17.3 19.4 17.3 22 C17.3 24.6 17.6 26.8 18.2 28.8 C18.8 30.8 19.8 32.5 20.9 33.8 C22 35.1 23.3 36.2 25 36.9 C26.7 37.6 28.7 38 31 38 C33 38 34.8 37.7 36.5 37.1 C38.2 36.5 39.6 35.4 40.7 34 C42.9 31.3 44 27.3 44 22 C44 17 42.9 13.1 40.7 10.4 C38.5 7.7 35.2 6.3 30.9 6.3 C28.7 6.3 26.7 6.7 25 7.4 z" />
<glyph unicode="7" horiz-adv-x="60.200000000000003" d="M15.10435 0 C17.29891 0 21.68804 0 23.88261 0 C27.21068 7.935 33.86682 23.80501 37.19489 31.74001 C43.20129 31.72996 52.32581 31.73241 55.3228 31.70985 C55.31096 34.46243 55.34371 36.87128 55.34335 39.16919 L40.13896 39.20626 L50.63478 64.6 C50.63478 65.9 50.63478 67.525 50.63478 68.5 C39.29565 68.5 16.61739 68.5 5.27826 68.5 C5.27826 66.55 5.27826 62.65 5.27826 60.7 C14.08478 60.7 31.69783 60.7 40.50435 60.7 C37.90967 54.43982 34.49798 46.55222 31.4948 39.47833 C24.01 39.47511 11.96023 39.46674 9.04041 39.46865 C9.03651 36.8576 9.03599 34.68084 9.0287 31.96158 C11.91793 31.98502 22.14742 31.95111 28.70678 31.94587 C24.17264 21.29725 18.50496 7.98647 15.10435 0 z" />
<glyph unicode="8" horiz-adv-x="60.200000000000003" d="M47.5 3.9 C49.5 5.6 51.1 7.6 52.2 10 C53.3 12.4 53.8 15.3 53.8 18.5 C53.8 23.3 52.8 27.2 50.8 30.3 C48.8 33.4 45.2 35.4 40.3 36.4 C44.6 37.4 47.6 39.3 49.4 42 C51.2 44.7 52.1 48.1 52.1 52.1 C52.1 57.5 50.1 61.8 46.2 65 C42.3 68.2 36.9 69.8 30.1 69.8 C26.6 69.8 23.6 69.3 20.9 68.5 C18.2 67.7 15.9 66.6 14 65 C10.1 61.8 8.1 57.5 8.1 52.2 C8.1 50.3 8.4 48.4 9 46.7 C9.6 45 10.5 43.4 11.7 42 C12.9 40.6 14 39.4 15.2 38.5 C16.4 37.6 17.9 36.9 19.9 36.4 C15 35.4 11.8 33.4 10.3 30.3 C7.7 27.2 6.4 23.3 6.4 18.4 C6.4 12.1 8.5 7.2 12.7 3.8 C16.9 0.4 22.6 -1.3 30 -1.3 C37.4 -1.3 43.3 0.4 47.5 3.9 zM21 42.7 C18.9 44.6 17.9 47.4 17.9 51.1 C17.9 54.8 18.9 57.7 21 59.7 C23.1 61.7 26.2 62.6 30.1 62.6 C34.1 62.6 37.1 61.7 39.2 59.7 C41.3 57.7 42.3 54.8 42.3 51.1 C42.3 47.4 41.3 44.6 39.2 42.7 C37.1 40.8 34.1 39.8 30.1 39.8 C26.2 39.8 23.1 40.8 21 42.7 zM19.9 9.5 C17.5 11.9 16.3 15.1 16.3 19.3 C16.3 23.5 17.5 26.8 19.9 29.1 C22.3 31.4 25.7 32.5 30.1 32.5 C34.5 32.5 37.9 31.4 40.3 29.1 C41.4 28 42.3 26.6 42.9 25 C43.5 23.4 43.9 21.5 43.9 19.2 C43.9 15 42.7 11.7 40.3 9.4 C37.9 7.1 34.5 5.9 30.2 5.9 C25.8 5.9 22.4 7.1 19.9 9.5 z" />
<glyph unicode="9" horiz-adv-x="60.200000000000003" d="M45.4 8 C47.8 11.1 49.7 14.8 51.2 19.3 C52.7 23.8 53.4 29.1 53.4 35.2 C53.4 40.7 52.9 45.6 52 50 C51.1 54.4 49.6 58 47.5 61.1 C45.6 63.9 43.1 66 40.1 67.5 C37.1 69 33.5 69.8 29 69.8 C21.6 69.8 16.1 67.8 12.2 63.8 C10.1 61.7 8.6 59.2 7.6 56.2 C6.6 53.2 6.2 50 6.2 46.4 C6.2 39.1 8.1 33.3 12 29.2 C15.9 25.1 21.2 23.1 27.8 23.1 C31.8 23.1 35.1 24 37.8 25.6 C39.1 26.4 40.4 27.3 41.5 28.5 C42.6 29.7 43.6 31 44.3 32.6 C43.6 24.2 41.7 17.9 38.5 13.4 C35.3 9 30.8 6.7 25.2 6.5 C22.8 6.6 20.5 6.7 18.1 6.8 C16.1 7.3 13.8 8 11.5 8.9 C11.5 6.36667 11.5 3.2 11.5 1.3 C13.8 0.7 16.3 0.2 19 -0.3 C20.4 -0.4 21.5 -0.5 22.4 -0.5 C23.3 -0.5 24.9 -0.5 27.2 -0.7 C35.5 -0.2 41.6 2.8 45.4 8 zM19.2 34.4 C17 37.1 15.9 41.1 15.9 46.4 C15.9 51.7 17 55.8 19.2 58.5 C20.3 59.9 21.7 60.9 23.4 61.5 C25.1 62.1 27 62.5 29 62.5 C31.3 62.5 33.2 62.1 34.9 61.4 C36.6 60.7 37.9 59.6 39 58.3 C41.4 55.5 42.6 51.5 42.6 46.4 C42.6 41.3 41.4 37.4 39 34.6 C37.9 33.3 36.6 32.2 34.9 31.5 C33.2 30.8 31.3 30.4 29 30.4 C24.7 30.4 21.3 31.7 19.2 34.4 z" />
<glyph unicode=":" horiz-adv-x="60.200000000000003" d="M34.9 12.7 C36.3 14 37 15.7 37 17.7 C37 19.7 36.4 21.4 35 22.7 C33.6 24 31.9 24.6 29.9 24.6 C27.9 24.6 26.3 24 24.9 22.7 C23.5 21.4 22.9 19.7 22.9 17.7 C22.9 15.7 23.6 14 24.9 12.7 C26.2 11.4 27.8 10.8 29.8 10.8 C31.8 10.8 33.5 11.4 34.9 12.7 zM35 44.5 C36.4 45.7 37.1 47.4 37.1 49.5 C37.1 51.6 36.4 53.2 35 54.5 C33.7 55.8 32 56.4 30 56.4 C28 56.4 26.3 55.8 25 54.5 C23.6 53.2 23 51.5 23 49.5 C23 47.4 23.6 45.7 25 44.5 C26.3 43.2 28 42.6 30 42.6 C32 42.6 33.7 43.2 35 44.5 z" />
<glyph unicode=";" horiz-adv-x="60.200000000000003" d="M35 44.5 C36.4 45.7 37.1 47.4 37.1 49.5 C37.1 51.6 36.4 53.2 35 54.5 C33.7 55.8 32 56.4 30 56.4 C28 56.4 26.3 55.8 25 54.5 C23.6 53.2 23 51.5 23 49.5 C23 47.4 23.6 45.7 25 44.5 C26.3 43.2 28 42.6 30 42.6 C32 42.6 33.7 43.2 35 44.5 zM25.8 5.1 C24.7 3.6 22.8 1.6 19.9 -0.9 C20.6 -1.8 21.1 -2.6 21.6 -3.3 C22.1 -4 22.7 -4.8 23.4 -5.8 C25.5 -4.5 27.7 -2.4 30.2 0.4 C32.7 3.2 34.7 6.5 36.1 10.3 C36.4 11.1 36.6 12.2 36.8 13.4 C37 14.5 37.1 15.8 37.1 17.2 C37.1 17.4 37.1 17.65 37.1 17.8 C37.1 19.8 36.4 21.5 35 22.8 C33.6 24.1 32 24.7 30 24.7 C28 24.7 26.4 24.1 25 22.8 C23.6 21.5 23 19.8 23 17.8 C23 15.8 23.6 14.1 24.9 12.8 C26.2 11.5 27.4 10.9 28.6 10.9 C27.7 8.5 26.9 6.6 25.8 5.1 z" />
<glyph unicode="&#x3c;" horiz-adv-x="60.200000000000003" d="M55.6 11.3 C55.6 13.4 55.6 17.6 55.6 19.7 C45.2 23.3 24.5 30.6 14.1 34.2 C24.5 37.9 45.2 45.2 55.6 48.9 C55.6 51.7 55.6 55.2 55.6 57.3 C42.7 52.5 16.9 42.9 4 38.1 C4 36.2 4 32.4 4 30.5 C16.9 25.7 42.7 16.1 55.6 11.3 z" />
<glyph unicode="=" horiz-adv-x="60.200000000000003" d="M4.4 41.1 C17.3 41.1 43.1 41.1 56 41.1 C56 43.05 56 46.95 56 48.9 C43.1 48.9 17.3 48.9 4.4 48.9 C4.4 46.95 4.4 43.05 4.4 41.1 zM4.4 20 C17.3 20 43.1 20 56 20 C56 21.975 56 25.925 56 27.9 C43.1 27.9 17.3 27.9 4.4 27.9 C4.4 25.925 4.4 21.975 4.4 20 z" />
<glyph unicode="&#x3e;" horiz-adv-x="60.200000000000003" d="M55.9 30.3 C55.9 32.2 55.9 36 55.9 37.9 C43 42.7 17.2 52.3 4.3 57.1 C4.3 55.025 4.3 50.875 4.3 48.8 C14.7 45.1 35.4 37.8 45.8 34.1 C35.4 30.5 14.7 23.1 4.3 19.5 C4.3 16.7 4.3 13.2 4.3 11.1 C17.2 15.9 43 25.5 55.9 30.3 z" />
<glyph unicode="?" horiz-adv-x="60.200000000000003" d="M25.13415 25.71154 C27.47262 25.71154 32.14956 25.71154 34.48803 25.71154 Q34.48803 27.04904 34.47009 28.35061 Q34.45215 29.65217 34.48803 31.06156 C34.5909 40.41181 52.92644 42.08995 53.19513 55.90791 C53.38527 65.68675 45.2158 71.7344 31.44278 71.78353 C21.29995 71.81971 12.16954 65.19565 7.95215 58.43373 Q10.37969 56.82395 11.38331 56.17285 Q12.38693 55.52174 14.90867 53.93048 C18.58259 60.19565 24.96662 63.83485 30.46359 64.11764 C35.74346 64.38927 44.69889 63.15547 44.60172 55.8642 C44.47845 46.61382 25.22627 43.78474 25.13415 30.91999 C25.13415 29.18384 25.13415 27.01365 25.13415 25.71154 zM35.16371 1.78552 C36.56371 3.08552 37.26371 4.78552 37.26371 6.78552 C37.26371 8.78552 36.56371 10.48552 35.16371 11.78552 C33.76371 13.08552 32.16371 13.68552 30.16371 13.68552 C28.16371 13.68552 26.56371 13.08552 25.16371 11.78552 C23.76371 10.48552 23.16371 8.78552 23.16371 6.78552 C23.16371 4.78552 23.76371 3.08552 25.16371 1.78552 C26.56371 0.48552 28.16371 -0.11448 30.16371 -0.11448 C32.16371 -0.11448 33.76371 0.48552 35.16371 1.78552 z" />
<glyph unicode="@" horiz-adv-x="60.200000000000003" d="M54.81304 0.04348 C61.52174 3.23913 64.23913 6.28261 65.7913 7.58261 C64.23913 9.43478 62.3913 11.6087 60.67391 13.66957 C53.80435 7.26087 46.73913 4.86957 36.2 4.8 C31.5 4.9 27.7 5.8087 24.6 7.4087 C21.5 9.0087 18.7 11.1 16.3 13.6 C11.1 19.9 8.5 26.9 8.3 34.6 C8 41.5 10 48.1 14.4 54.5 C16.2 57.1 18.5 59.2 21.4 61 C24.3 62.8 27.7 64 31.6 64.6 C37.7 65.1 41.73913 64.5 47.1 62 C56.60267 57.5685 57.82609 48.45652 48.87391 49 C47.27391 50.7 46.17391 51.9 45.37391 52.5 C44.57391 53.1 43.37391 53.7 41.97391 54.5 C39.87391 55.5 37.97391 56 36.37391 55.9 C33.87391 55.9 31.57391 55.4 29.37391 54.3 C27.17391 53.2 25.27391 51.6 23.37391 49.5 C21.57391 47.5 20.17391 45.2 19.37391 42.6 C18.57391 40 18.17391 37.2 18.17391 34.2 C18.17391 30.9 18.67391 28.2 19.57391 25.9 C20.47391 23.6 21.77391 21.5 23.37391 19.7 C27.6087 15.91304 29.67391 14.3913 35.06087 13.82609 C36.56087 13.72609 38.56087 14.02609 40.76087 15.02609 C43.16087 16.02609 45.06087 17.72609 46.36087 19.92609 C46.36087 18.47536 46.36087 16.66196 46.36087 15.57391 C48.17174 15.54674 51.79348 15.49239 53.60435 15.46522 C53.60435 22.05217 53.60435 35.22609 53.60435 41.81304 C60.65217 41.93478 62.81739 49.2 62.81739 52.8 C62.81739 55.5 62.38153 59.23067 59.71739 62.26087 C54.02174 68.73913 45.5 71.9 32 71.9 C28.6 71.9 24.7 71 20.5 69.3 C16.3 67.6 12.7 65.2 9.6 61.9 C6.3 58.4 3.8 54.5 2.1 50.2 C0.4 45.9 -0.5 40.7 -0.5 34.5 C-0.5 27.8 0.4 22.6 2.3 18.8 C4.2 15 6.8 11.3 10.2 7.6 C13.8 3.7 18.1 1 23.1 -0.6 C28.1 -2.2 33.5 -3 39 -3 C44.7 -3 51.18475 -1.68484 54.81304 0.04348 zM29.21304 25.5 C27.71304 27.6 26.81304 30.7 26.51304 34.9 C26.71304 38.9 27.51304 41.9 29.01304 43.8 C30.91304 46.3 33.21304 47.5 35.81304 47.4 C38.21304 47.4 40.41304 46.3 42.41304 44.2 C44.41304 41.9 45.31304 38.9 45.31304 34.9 C45.31304 31.1 44.41304 28 42.51304 25.8 C40.61304 23.6 38.41304 22.4 35.91304 22.4 C33.41304 22.4 31.21304 23.4 29.21304 25.5 z" />
<glyph unicode="A" horiz-adv-x="60.200000000000003" d="M1.8 0 C4.35 0 9.45 0 12 0 C13.3 4.5 16 13.4 17.3 17.9 C25.8 17.9 36.425 17.9 42.8 17.9 C44.1 13.4 46.9 4.5 48.2 0 C51.6 0 55.85 0 58.4 0 C52.8 17.1 41.7 51.4 36.1 68.5 C32.1 68.5 27.1 68.5 24.1 68.5 C18.5 51.4 7.4 17.1 1.8 0 zM19.7 25.3 C22.3 34.1 27.5 51.6 30.1 60.4 C32.7 51.6 37.9 34.1 40.5 25.3 C33.56667 25.3 24.9 25.3 19.7 25.3 z" />
<glyph unicode="B" horiz-adv-x="60.200000000000003" d="M7.74348 0 C13.27609 0 24.3413 0 29.87391 0 C38.37391 0 44.77391 1.6 49.17391 4.8 C53.47391 8 55.67391 12.6 55.67391 18.8 C55.67391 23.8 54.37391 27.7 51.67391 30.9 C49.87391 33.4 46.27391 35.3 40.87391 36.7 C43.17391 37.6 45 38.2 45.6 38.7 C46.2 39.2 47 40 48 41.2 C49 42.4 49.8 43.8 50.4 45.4 C51 47 51.2 49 51.2 51.1 C51 56.6 49 60.9 45.1 64 C41 67 35.3 68.5 27.9 68.5 C21.18116 68.5 12.78261 68.5 7.74348 68.5 C7.74348 51.375 7.74348 17.125 7.74348 0 zM17.07391 40.3 C17.07391 45.45 17.07391 55.75 17.07391 60.9 C20.18043 60.9 26.39348 60.9 29.5 60.9 C34.1 60.9 37.4 60.1 39.5 58.6 C41.6 57.1 42.7 54.6 42.7 51 C42.7 47.3 41.6 44.6 39.5 42.9 C37.4 41.2 34.1 40.3 29.5 40.3 C25.35797 40.3 20.18043 40.3 17.07391 40.3 zM17.07391 7.6 C17.07391 13.875 17.07391 26.425 17.07391 32.7 C20.72391 32.7 28.02391 32.7 31.67391 32.7 C36.87391 32.7 40.77391 31.7 43.37391 29.6 C45.97391 27.5 47.27391 24.2 47.27391 19.7 C47.27391 15.4 45.97391 12.4 43.57391 10.5 C41.17391 8.6 37.17391 7.6 31.67391 7.6 C26.80725 7.6 20.72391 7.6 17.07391 7.6 z" />
<glyph unicode="C" horiz-adv-x="60.200000000000003" d="M44.7 -0.4 C47.3 0.2 49.8 1.1 52.4 2.4 C52.4 5.56667 52.4 9.525 52.4 11.9 C50 10 47.4 8.7 44.7 7.7 C41.9 6.7 39.1 6.2 36.3 6.2 C23.5 6.2 17.1 15.5 17.1 34.2 C17.1 43.6 18.7 50.6 21.9 55.3 C25.1 60 29.9 62.2 36.2 62.2 C39 62.2 41.8 61.8 44.6 60.8 C47.4 59.8 50 58.4 52.4 56.5 C52.4 59.66667 52.4 63.625 52.4 66 C49.8 67.3 47.3 68.3 44.8 68.9 C42.3 69.5 39.4 69.8 36.2 69.8 C30.1 69.8 24.8 68.3 20.4 65.5 C16 62.7 12.6 58.6 10.3 53.3 C8 48 6.8 41.6 6.8 34.1 C6.8 22.9 9.4 14.3 14.5 8 C17.1 4.8 20.2 2.5 23.9 1 C27.6 -0.5 31.6 -1.3 36.2 -1.3 C39.2 -1.3 42.1 -1 44.7 -0.4 z" />
<glyph unicode="D" horiz-adv-x="60.200000000000003" d="M6.7 0 C11.325 0 20.575 0 25.2 0 C34.4 0 41.5 2.8 46.8 8.4 C51.7 14 54.3 22.5 54.3 34.2 C54.3 46 52.2 54.6 48.1 60.2 C44 65.8 36.3 68.5 25.2 68.5 C19.03333 68.5 11.325 68.5 6.7 68.5 C6.7 51.375 6.7 17.125 6.7 0 zM16.6 7.6 C16.6 20.925 16.6 47.575 16.6 60.9 C18.7 60.9 22.9 60.9 25 60.9 C29.1 60.9 32 60.4 34 59.5 C36 58.6 37.8 57.2 39.5 55.2 C42.8 51.4 44.3 44.4 44.3 34.3 C44.3 24.2 42.7 17.2 39.4 13.4 C36.2 9.5 31.4 7.6 25 7.6 C22.2 7.6 18.7 7.6 16.6 7.6 z" />
<glyph unicode="E" horiz-adv-x="60.200000000000003" d="M9.2 0 C20.25 0 42.35 0 53.4 0 C53.4 1.95 53.4 5.85 53.4 7.8 C44.8 7.8 27.6 7.8 19 7.8 C19 14 19 26.4 19 32.6 C26.55 32.6 41.65 32.6 49.2 32.6 C49.2 34.55 49.2 38.45 49.2 40.4 C41.65 40.4 26.55 40.4 19 40.4 C19 45.475 19 55.625 19 60.7 C27.575 60.7 44.725 60.7 53.3 60.7 C53.3 62.65 53.3 66.55 53.3 68.5 C42.275 68.5 20.225 68.5 9.2 68.5 C9.2 51.375 9.2 17.125 9.2 0 z" />
<glyph unicode="F" horiz-adv-x="60.200000000000003" d="M11.4 0 C13.8 0 18.6 0 21 0 C21 8 21 24 21 32 C27 32 39 32 45 32 C45 33.875 45 37.625 45 39.5 C39 39.5 27 39.5 21 39.5 C21 44.9 21 55.7 21 61.1 C29.25 61.1 45.75 61.1 54 61.1 C54 62.975 54 66.725 54 68.6 C43.3 68.6 22.1 68.5 11.4 68.5 C11.4 45.66667 11.4 17.125 11.4 0 z" />
<glyph unicode="G" horiz-adv-x="60.200000000000003" d="M45 0.5 C48.3 1.6 51.2 3.3 53.9 5.6 C53.9 15.46667 53.9 27.8 53.9 35.2 C48.275 35.2 37.025 35.2 31.4 35.2 C31.4 33.275 31.4 29.425 31.4 27.5 C34.675 27.5 41.225 27.5 44.5 27.5 C44.5 22.9 44.5 13.7 44.5 9.1 C43.8 8.6 43 8.2 42.3 7.8 C41.6 7.4 40.8 7.1 40 6.9 C38.3 6.4 36.4 6.2 34.3 6.2 C27.8 6.2 23.1 8.5 20 13.1 C18.4 15.4 17.3 18.3 16.5 21.7 C15.7 25.1 15.3 29.3 15.3 34.1 C15.3 43.6 16.9 50.6 20.1 55.3 C23.3 60 28.2 62.2 34.5 62.2 C36 62.2 37.4 62.1 38.9 61.8 C40.4 61.5 41.9 61.2 43.3 60.6 C44.5 60.1 45.8 59.4 47.2 58.5 C48.6 57.6 50 56.7 51.4 55.4 C51.4 58.56667 51.4 62.525 51.4 64.9 C48.9 66.5 46.2 67.7 43.3 68.6 C40.5 69.4 37.5 69.8 34.3 69.8 C25.2 69.8 18 66.6 12.8 60.4 C7.6 54.2 5 45.4 5 34.1 C5 23 7.5 14.3 12.6 8 C15.1 4.9 18.2 2.7 21.8 1.1 C25.4 -0.5 29.5 -1.3 34.2 -1.3 C38.1 -1.3 41.7 -0.7 45 0.5 z" />
<glyph unicode="H" horiz-adv-x="60.200000000000003" d="M6.7 0 C9.175 0 14.125 0 16.6 0 C16.6 8.15 16.6 24.45 16.6 32.6 C23.35 32.6 36.85 32.6 43.6 32.6 C43.6 24.45 43.6 8.15 43.6 0 C46.075 0 51.025 0 53.5 0 C53.5 17.125 53.5 51.375 53.5 68.5 C51.025 68.5 46.075 68.5 43.6 68.5 C43.6 61.475 43.6 47.425 43.6 40.4 C36.85 40.4 23.35 40.4 16.6 40.4 C16.6 47.425 16.6 61.475 16.6 68.5 C14.125 68.5 9.175 68.5 6.7 68.5 C6.7 51.375 6.7 17.125 6.7 0 z" />
<glyph unicode="I" horiz-adv-x="60.200000000000003" d="M9.8 0 C19.925 0 40.175 0 50.3 0 C50.3 1.95 50.3 5.85 50.3 7.8 C46.475 7.8 38.825 7.8 35 7.8 C35 21.025 35 47.475 35 60.7 C38.825 60.7 46.475 60.7 50.3 60.7 C50.3 62.65 50.3 66.55 50.3 68.5 C40.175 68.5 19.925 68.5 9.8 68.5 C9.8 66.55 9.8 62.65 9.8 60.7 C13.625 60.7 21.275 60.7 25.1 60.7 C25.1 47.475 25.1 21.025 25.1 7.8 C21.275 7.8 13.625 7.8 9.8 7.8 C9.8 5.85 9.8 1.95 9.8 0 z" />
<glyph unicode="J" horiz-adv-x="60.200000000000003" d="M37.3 1 C40.6 2.6 42.9 5 44.4 8.5 C45.9 12 46.7 16.6 46.7 22.4 C46.7 37.76667 46.7 56.975 46.7 68.5 C39.575 68.5 25.325 68.5 18.2 68.5 C18.2 66.55 18.2 62.65 18.2 60.7 C22.85 60.7 32.15 60.7 36.8 60.7 C36.8 51.125 36.8 31.975 36.8 22.4 C36.8 16.2 35.9 11.9 34.1 9.6 C33.2 8.4 31.8 7.6 30 7.2 C28.2 6.8 26.2 6.6 24 6.6 C20.66667 6.6 16.5 6.6 14 6.6 C12 6.6 8 6.6 6 6.6 C6 4.725 6 0.975 6 -0.9 C8.25 -0.9 12.75 -0.9 15 -0.9 C17.75 -0.9 23.25 -0.9 26 -0.9 C31.3 -0.9 35 -0.3 37.3 1 z" />
<glyph unicode="K" horiz-adv-x="60.200000000000003" d="M6.7 0 C9.175 0 14.125 0 16.6 0 C16.6 6.7 16.6 20.1 16.6 26.8 C18.475 28.675 22.225 32.425 24.1 34.3 C30 25.7 42 8.6 47.9 0 C51.86667 0 56.825 0 59.8 0 C52.5 10.1 37.9 30.4 30.6 40.5 C40.06667 49.83333 51.9 61.5 59 68.5 C56.1 68.5 50.3 68.5 47.4 68.5 C39.7 60.9 24.3 45.6 16.6 38 C16.6 48.16667 16.6 60.875 16.6 68.5 C14.125 68.5 9.175 68.5 6.7 68.5 C6.7 51.375 6.7 17.125 6.7 0 z" />
<glyph unicode="L" horiz-adv-x="60.200000000000003" d="M10.5 0 C21.775 0 44.325 0 55.6 0 C55.6 1.95 55.6 5.85 55.6 7.8 C46.8 7.8 29.2 7.8 20.4 7.8 C20.4 22.975 20.4 53.325 20.4 68.5 C17.925 68.5 12.975 68.5 10.5 68.5 C10.5 51.375 10.5 17.125 10.5 0 z" />
<glyph unicode="M" horiz-adv-x="60.200000000000003" d="M3.7 0 C5.85 0 10.15 0 12.3 0 C12.3 15 12.3 45 12.3 60 C15.8 51 22.9 32.8 26.4 23.8 C28.9 23.8 32.025 23.8 33.9 23.8 C37.4 32.8 44.5 51 48 60 C48 40 48 15 48 0 C50.15 0 54.45 0 56.6 0 C56.6 17.125 56.6 51.375 56.6 68.5 C53.3 68.5 46.7 68.5 43.4 68.5 C40.1 60.1 33.4 43.3 30.1 34.9 C25.7 46.1 20.2 60.1 16.9 68.5 C13.6 68.5 7 68.5 3.7 68.5 C3.7 51.375 3.7 17.125 3.7 0 z" />
<glyph unicode="N" horiz-adv-x="60.200000000000003" d="M6.8 0 C9.175 0 13.925 0 16.3 0 C16.3 13.95 16.3 41.85 16.3 55.8 C22.5 41.8 34.7 14 40.9 0 C45.06667 0 50.275 0 53.4 0 C53.4 17.125 53.4 51.375 53.4 68.5 C51.025 68.5 46.275 68.5 43.9 68.5 C43.9 54.55 43.9 26.65 43.9 12.7 C37.7 26.7 25.5 54.5 19.3 68.5 C15.13333 68.5 9.925 68.5 6.8 68.5 C6.8 51.375 6.8 17.125 6.8 0 z" />
<glyph unicode="O" horiz-adv-x="60.200000000000003" d="M40.7 1.2 C43.8 2.6 46.4 4.8 48.5 7.9 C52.5 13.8 54.5 22.6 54.5 34.2 C54.5 45.9 52.5 54.6 48.5 60.5 C46.4 63.6 43.8 65.8 40.7 67.2 C37.6 68.6 34.1 69.3 30.1 69.3 C22 69.3 15.9 66.4 11.8 60.5 C7.8 54.7 5.7 45.9 5.7 34.2 C5.7 22.5 7.7 13.7 11.7 7.9 C15.7 2.1 21.9 -0.9 30.1 -0.9 C34.1 -0.9 37.6 -0.2 40.7 1.2 zM19.3 13.1 C17.1 17.5 16 24.6 16 34.2 C16 43.9 17.1 50.9 19.3 55.3 C21.5 59.6 25.2 61.8 30.1 61.8 C35.1 61.8 38.7 59.6 40.9 55.3 C43.1 51.1 44.2 44 44.2 34.2 C44.2 24.4 43.1 17.3 40.9 13.1 C38.7 8.8 35.1 6.7 30.1 6.7 C25.2 6.7 21.5 8.8 19.3 13.1 z" />
<glyph unicode="P" horiz-adv-x="60.200000000000003" d="M8.4 0 C10.875 0 15.825 0 18.3 0 C18.3 6.875 18.3 20.625 18.3 27.5 C21.15 27.5 26.85 27.5 29.7 27.5 C37.9 27.5 44.1 29.2 48.2 32.7 C52.4 36.2 54.5 41.3 54.5 48 C54.5 51.2 54 54.2 53 56.8 C52 59.4 50.4 61.5 48.2 63.3 C43.9 66.8 37.8 68.5 29.7 68.5 C22.6 68.5 13.725 68.5 8.4 68.5 C8.4 51.375 8.4 17.125 8.4 0 zM18.3 35.2 C18.3 41.625 18.3 54.475 18.3 60.9 C21.15 60.9 26.85 60.9 29.7 60.9 C34.4 60.9 37.9 59.8 40.4 57.6 C42.9 55.3 44.2 52.2 44.2 48.1 C44.2 44 42.9 40.9 40.4 38.6 C39.2 37.6 37.8 36.7 36 36.1 C34.2 35.5 32.1 35.2 29.7 35.2 C25.9 35.2 21.15 35.2 18.3 35.2 z" />
<glyph unicode="Q" horiz-adv-x="60.200000000000003" d="M40.7 1.3 C43.8 2.7 46.4 4.9 48.5 8 C52.5 13.9 54.5 22.6 54.5 34.2 C54.5 45.9 52.5 54.6 48.5 60.5 C46.4 63.6 43.8 65.8 40.7 67.2 C37.6 68.6 34.1 69.3 30.1 69.3 C22 69.3 15.9 66.4 11.8 60.5 C7.8 54.7 5.7 45.9 5.7 34.2 C5.7 22.5 7.7 13.7 11.7 7.9 C15.7 2.1 21.9 -0.8 30.1 -0.8 C34.1 -0.8 37.6 -0.1 40.7 1.3 zM19.3 13.2 C17.1 17.6 16 24.6 16 34.2 C16 43.9 17.1 50.9 19.3 55.3 C21.5 59.6 25.2 61.8 30.1 61.8 C35.1 61.8 38.7 59.6 40.9 55.3 C43.1 51.1 44.2 44 44.2 34.2 C44.2 24.4 43.1 17.4 40.9 13.2 C38.7 8.9 35.1 6.7 30.1 6.7 C25.2 6.7 21.5 8.9 19.3 13.2 zM41.9 4.2 C45.9 -0.4 49.9 -4.9 53.9 -9.5 C56 -9.5 58.625 -9.5 60.2 -9.5 C60.2 -8.05 60.2 -5.15 60.2 -3.7 C56.2 0.8 52.4 5.4 48.4 9.9 C46.2 8 44.1 6.1 41.9 4.2 z" />
<glyph unicode="R" horiz-adv-x="60.200000000000003" d="M7 0 C9.475 0 14.425 0 16.9 0 C16.9 7.225 16.9 21.675 16.9 28.9 C18.1 28.9 20.5 28.9 21.7 28.9 C23.2 28.9 24.8 28.8 26.2 28.8 C27.4 28.8 28.9 28.8 29.8 28.8 C30.9 26.5 32 24.6 32.7 23.2 C33.4 21.8 34.4 19.8 35.7 17.3 C37.9 13 42.2 4.3 44.4 0 C47.9 0 52.275 0 54.9 0 C52.4 4.7 48.3 12.5 45 18.7 C43.7 21.1 42.9 22.7 42.5 23.5 C42.1 24.3 40.9 26.5 38.8 30.3 C42.2 31.9 45.1 33.8 47.6 36.1 C50.7 39.5 52.1 43.1 52.1 48.9 C52.1 54.7 50 59.5 45.7 63.4 C42.2 66.8 36.4 68.5 28.4 68.5 C21.26667 68.5 12.35 68.5 7 68.5 C7 51.375 7 17.125 7 0 zM16.9 36.6 C16.9 42.675 16.9 54.825 16.9 60.9 C19.775 60.9 25.525 60.9 28.4 60.9 C30.8 60.9 32.9 60.7 34.6 60.1 C36.3 59.5 37.6 58.8 38.8 57.8 C41.2 55.7 42.5 52.6 42.5 48.6 C42.5 44.6 41.3 41.6 39 39.6 C36.7 37.6 33 36.6 27.7 36.6 C24.1 36.6 19.6 36.6 16.9 36.6 z" />
<glyph unicode="S" horiz-adv-x="60.200000000000003" d="M47.2 3.8 C49.2 5.4 50.8 7.4 51.9 9.9 C53 12.4 53.6 15.3 53.6 18.8 C53.6 24.3 52.1 28.7 48.9 31.9 C45.7 35.2 40.7 37.5 34 38.9 C30.5 39.6 30.5 39.6 28.8 40 C24 41 20.8 42.4 18.9 44.1 C18.1 44.9 17.4 45.7 16.9 46.8 C16.4 47.9 16.2 49.1 16.2 50.7 C16.2 54.3 17.6 57.1 20.3 59.2 C23 61.3 26.6 62.2 31.3 62.2 C34.3 62.2 37.4 61.8 40.4 60.9 C41.9 60.4 43.3 59.9 44.8 59.2 C46.3 58.5 47.8 57.7 49.4 56.8 C49.4 59.93333 49.4 63.85 49.4 66.2 C47.7 66.8 46 67.4 44.4 67.8 C42.8 68.2 41.1 68.6 39.6 68.9 C36.5 69.5 33.6 69.8 30.8 69.8 C27.1 69.8 23.8 69.2 20.9 68.3 C18 67.4 15.5 66 13.4 64.3 C9 60.7 6.8 55.7 6.8 49.5 C6.8 44.6 8.3 40.7 11.4 37.8 C13 36.2 15 34.9 17.5 33.9 C20 32.9 22.8 32 26.1 31.3 C29.6 30.5 29.6 30.6 31.4 30.2 C33.8 29.7 35.8 29 37.4 28.4 C39 27.8 40.4 26.9 41.4 25.9 C43.3 24.1 44.2 21.7 44.2 18.4 C44.2 14.5 42.8 11.4 40 9.3 C37.2 7.2 33.4 6.2 28.4 6.2 C25 6.2 21.7 6.8 18.4 7.8 C15 8.9 11.4 10.5 7.7 12.7 C7.7 9.4 7.7 5.275 7.7 2.8 C11.2 1.5 14.6 0.4 18.1 -0.3 C21.6 -1 25 -1.3 28.5 -1.3 C36.7 -1.3 42.9 0.4 47.2 3.8 z" />
<glyph unicode="T" horiz-adv-x="60.200000000000003" d="M25.2 0 C27.675 0 32.625 0 35.1 0 C35.1 15.175 35.1 45.525 35.1 60.7 C40.8 60.7 52.2 60.7 57.9 60.7 C57.9 62.65 57.9 66.55 57.9 68.5 C44 68.5 16.2 68.5 2.3 68.5 C2.3 66.55 2.3 62.65 2.3 60.7 C8.025 60.7 19.475 60.7 25.2 60.7 C25.2 45.525 25.2 15.175 25.2 0 z" />
<glyph unicode="U" horiz-adv-x="60.200000000000003" d="M35.9 -1 C37.8 -0.8 39.4 -0.4 40.6 0 C41.9 0.4 43.2 1 44.5 1.7 C45.8 2.4 47 3.1 48.1 4 C50.4 6 51.9 8.4 52.8 11.4 C53.2 12.8 53.5 14.7 53.8 16.9 C54.1 19.1 54.2 22.3 54.2 26.3 C54.2 40.36667 54.2 57.95 54.2 68.5 C51.725 68.5 46.775 68.5 44.3 68.5 C44.3 56.875 44.3 33.625 44.3 22 C44.3 18.7 44.3 16.3 44.1 14.9 C43.9 13.6 43.5 12.6 43 11.7 C42 10 40.5 8.6 38.5 7.6 C36.5 6.7 33.8 6.2 30.1 6.2 C26.5 6.2 23.7 6.7 21.7 7.6 C19.7 8.5 18.2 9.9 17.2 11.7 C16.7 12.5 16.3 13.6 16.1 15 C15.9 16.4 15.9 18.8 15.9 22.1 C15.9 37.56667 15.9 56.9 15.9 68.5 C13.4 68.5 8.4 68.5 5.9 68.5 C5.9 57.95 5.9 36.85 5.9 26.3 C5.9 22.5 6.1 19.5 6.3 17.2 C6.5 14.9 6.9 12.9 7.4 11.4 C8 9.7 8.6 8.3 9.4 7.1 C10.2 5.9 11.1 4.9 12.1 4 C13.1 3.1 14.3 2.4 15.7 1.7 C17.1 1 18.3 0.4 19.6 0 C23.8 -0.9 27.4 -1.3 30.2 -1.3 C32.1 -1.3 34 -1.2 35.9 -1 z" />
<glyph unicode="V" horiz-adv-x="60.200000000000003" d="M24.1 0 C27.1 0 33.1 0 36.1 0 C41.4 17.1 52.1 51.4 57.4 68.5 C54.2 68.5 50.2 68.5 47.8 68.5 C43.4 53.5 34.5 23.4 30.1 8.4 C25.7 23.4 16.8 53.5 12.4 68.5 C9.2 68.5 5.2 68.5 2.8 68.5 C8.1 51.4 18.8 17.1 24.1 0 z" />
<glyph unicode="W" horiz-adv-x="60.200000000000003" d="M10.9 0 C13.30652 0 18.11957 0 20.52609 0 C22.7 12.7 27.82609 45.63043 30.1 58.18261 C32.38261 45.48261 37.5 12.7 39.67391 0 C42.88261 0 46.89348 0 49.3 0 C52 17.1 57.3 51.4 60 68.5 C57.2 68.5 53.7 68.5 51.6 68.5 C49.7 54.8 45.9 27.4 44 13.7 C42.01739 25.6 37.4 56.58261 35.52609 68.48261 C31.87536 68.48261 27.31196 68.48261 24.57391 68.48261 C22.7 56.68261 18.18261 25.6 16.2 13.8 C14.3 27.5 10.5 54.8 8.6 68.5 C5.8 68.5 2.3 68.5 0.2 68.5 C2.9 51.4 8.2 17.1 10.9 0 z" />
<glyph unicode="X" horiz-adv-x="60.200000000000003" d="M0.9 0 C3.55 0 8.85 0 11.5 0 C16.3 7.4 26 22.1 30.8 29.5 C35.3 22.1 44.2 7.4 48.7 0 C52.23333 0 56.65 0 59.3 0 C53.5 9.1 41.7 27.2 35.9 36.3 C41.4 44.4 52.2 60.4 57.7 68.5 C54.16667 68.5 49.75 68.5 47.1 68.5 C43 62 34.9 49.2 30.8 42.7 C26.8 49.2 18.8 62 14.8 68.5 C11.26667 68.5 6.85 68.5 4.2 68.5 C9.5 60.4 20 44.4 25.3 36.3 C19.2 27.2 7 9.1 0.9 0 z" />
<glyph unicode="Y" horiz-adv-x="60.200000000000003" d="M25.1 0 C27.575 0 32.525 0 35 0 C35 7.7 35 23.1 35 30.8 C40.8 40.2 52.6 59.1 58.4 68.5 C54.86667 68.5 50.45 68.5 47.8 68.5 C43.4 60.9 34.5 45.9 30.1 38.3 C25.7 45.9 16.7 60.9 12.3 68.5 C8.8 68.5 4.425 68.5 1.8 68.5 C7.6 59.1 19.3 40.2 25.1 30.8 C25.1 20.53333 25.1 7.7 25.1 0 z" />
<glyph unicode="Z" horiz-adv-x="60.200000000000003" d="M5.4 0 C17.75 0 42.45 0 54.8 0 C54.8 1.95 54.8 5.85 54.8 7.8 C44.75326 7.74565 24.65978 7.63696 14.61304 7.58261 C18.88785 13.27679 27.43746 24.66514 31.71227 30.35932 C37.45459 30.37066 48.93922 30.39333 54.68154 30.40467 C54.6702 32.30994 54.64752 36.12047 54.63618 38.02574 C50.05727 38.01889 40.89945 38.0052 36.32054 37.99836 C40.90908 43.76507 48.55664 53.37626 54.67469 61.06522 C54.67469 63.54348 54.67469 66.6413 54.67469 68.5 C42.33428 68.5 17.65345 68.5 5.31304 68.5 C5.31304 66.55 5.31304 62.65 5.31304 60.7 C15.34565 60.7 35.41087 60.7 45.44348 60.7 C41.10128 55.14585 32.4169 44.03754 28.0747 38.48339 C22.4074 38.48927 11.07279 38.50105 5.40548 38.50693 C5.43473 36.6175 5.49324 32.83864 5.52249 30.94921 C10.09328 30.94687 19.23487 30.94219 23.80566 30.93984 C19.20424 24.97988 11.53522 15.04661 5.4 7.1 C5.4 4.73333 5.4 1.775 5.4 0 z" />
<glyph unicode="[" horiz-adv-x="60.200000000000003" d="M14.5 -8.8 C22.125 -8.8 37.375 -8.8 45 -8.8 C45 -6.975 45 -3.325 45 -1.5 C39.625 -1.5 28.875 -1.5 23.5 -1.5 C23.5 16.4 23.5 52.2 23.5 70.1 C28.875 70.1 39.625 70.1 45 70.1 C45 71.9 45 75.5 45 77.3 C37.375 77.3 22.125 77.3 14.5 77.3 C14.5 55.775 14.5 12.725 14.5 -8.8 z" />
<glyph unicode="\" horiz-adv-x="60.200000000000003" d="M15.4 72.8 C13.075 72.8 8.425 72.8 6.1 72.8 C15.7 53.5 34.9 14.8 44.5 -4.5 C47.63333 -4.5 51.55 -4.5 53.9 -4.5 C44.3 14.8 25 53.5 15.4 72.8 z" />
<glyph unicode="]" horiz-adv-x="60.200000000000003" d="M15 -8.7 C22.625 -8.7 37.875 -8.7 45.5 -8.7 C45.5 12.8 45.5 55.8 45.5 77.3 C37.875 77.3 22.625 77.3 15 77.3 C15 75.5 15 71.9 15 70.1 C20.375 70.1 31.125 70.1 36.5 70.1 C36.5 52.225 36.5 16.475 36.5 -1.4 C31.125 -1.4 20.375 -1.4 15 -1.4 C15 -3.225 15 -6.875 15 -8.7 z" />
<glyph unicode="^" horiz-adv-x="60.200000000000003" d="M6 42.3 C8.7 42.3 14.1 42.3 16.8 42.3 C20.1 46.9 26.8 56.3 30.1 60.9 C33.4 56.3 40.1 46.9 43.4 42.3 C47 42.3 51.5 42.3 54.2 42.3 C49.3 48.8 39.3 62 34.4 68.5 C31.53333 68.5 27.95 68.5 25.8 68.5 C20.9 62 10.9 48.8 6 42.3 z" />
<glyph unicode="_" horiz-adv-x="60.200000000000003" d="M-0.9 -8.71739 C14.6 -8.71739 45.6 -8.71739 61.1 -8.71739 C61.1 -6.85652 61.1 -3.13478 61.1 -1.27391 C45.6 -1.27391 14.6 -1.27391 -0.9 -1.27391 C-0.9 -3.13478 -0.9 -6.85652 -0.9 -8.71739 z" />
<glyph unicode="`" horiz-adv-x="60.200000000000003" d="M41.5 55 C37.9 60 30.7 70.2 27.1 75.2 C23.5 75.2 19 75.2 16.3 75.2 C19.9 70.2 27 60 30.6 55 C34.23333 55 38.775 55 41.5 55 z" />
<glyph unicode="a" horiz-adv-x="60.200000000000003" d="M35.7 0.4 C39.1 1.6 41.8 3.7 43.7 6.8 C43.7 5.4 43.8 4.4 43.8 3.8 C43.8 3.2 43.8 1.9 43.7 0 C49.1 -0.1 49.1 -0.1 51.8 -0.1 C51.9 2.7 51.9 5.8 51.9 9.3 C51.9 12.46667 51.9 16.425 51.9 18.8 C51.9 21.425 51.9 26.675 51.9 29.3 C51.9 33.9 51.6 37.3 51.1 39.6 C50.4 42.8 48.8 45.3 46.6 47.2 C44.4 49.1 41.7 50.6 38.6 51.4 C35.5 52.2 32.4 52.6 29.1 52.6 C25.9 52.6 23.3 52.6 21.2 52.5 C19.1 52.4 16.7 52.4 13.9 52.4 C13.9 50.03333 13.9 47.075 13.9 45.3 C16.5 45.4 18.9 45.5 21.1 45.5 C23.83333 45.5 27.25 45.5 29.3 45.5 C33.6 45.5 36.9 44.6 39.3 42.9 C41.7 41.2 42.8 38.2 42.8 33.8 C42.8 33.36667 42.8 32.825 42.8 32.5 C39.8 32.5 33.8 32.5 30.8 32.5 C26.6 32.5 22.7 31.9 19 30.9 C15.3 29.9 12.4 28.2 10.1 25.7 C7.8 23.2 6.6 19.7 6.6 15.3 C6.6 9.9 8.4 5.9 11.8 3 C15.2 0.1 19.6 -1.3 24.9 -1.3 C28.7 -1.3 32.3 -0.8 35.7 0.4 zM18.8 8.1 C16.7 9.7 15.6 12.2 15.6 15.4 C15.6 18.3 16.4 20.5 18 22 C19.6 23.5 21.6 24.5 24 25 C26.4 25.5 28.9 25.8 31.4 25.8 C35.2 25.8 39.95 25.8 42.8 25.8 C42.8 25.35 42.8 24.45 42.8 24 C42.8 20.8 42.3 17.8 41.2 15 C40.1 12.2 38.4 10 36.1 8.3 C33.8 6.6 30.8 5.7 27.1 5.7 C23.7 5.7 20.9 6.5 18.8 8.1 z" />
<glyph unicode="b" horiz-adv-x="60.200000000000003" d="M43.3 1.1 C46 2.7 48.1 4.8 49.7 7.4 C51.3 10 52.5 12.9 53.2 16.1 C53.9 19.3 54.3 22.5 54.3 25.7 C54.3 28.9 53.9 32.1 53.2 35.3 C52.5 38.5 51.4 41.4 49.8 44 C48.2 46.6 46.1 48.7 43.4 50.3 C40.7 51.9 37.4 52.6 33.5 52.6 C30.2 52.6 27.2 52 24.6 50.7 C22 49.4 19.9 47.5 18.4 44.8 C18.4 53.66667 18.4 64.75 18.4 71.4 C16.15 71.4 11.65 71.4 9.4 71.4 C9.4 53.55 9.4 17.85 9.4 0 C11.425 0 15.475 0 17.5 0 C17.7 1.6 18.1 4.3 18.4 6.5 C21.5 1.3 26.5 -1.3 33.4 -1.3 C37.3 -1.3 40.6 -0.5 43.3 1.1 zM25.65842 7.7 C23.85112 9 22.36275 10.6 21.40594 12.6 C20.44913 14.6 19.70495 16.8 19.38602 19.1 C19.06708 21.4 18.85446 23.6 18.85446 25.7 C18.85446 27.8 19.06708 30 19.38602 32.3 C19.70495 34.6 20.44913 36.7 21.40594 38.7 C22.36275 40.7 23.85112 42.3 25.65842 43.6 C27.46572 44.9 29.91089 45.5 32.88763 45.5 C35.97067 45.5 38.41584 44.9 40.22315 43.6 C42.03045 42.3 43.51882 40.7 44.47562 38.7 C45.43243 36.7 46.0703 34.5 46.38924 32.2 C46.70817 29.9 46.9208 27.8 46.9208 25.7 C46.9208 23.6 46.70817 21.4 46.38924 19.1 C46.0703 16.8 45.43243 14.6 44.47562 12.6 C43.51882 10.6 42.03045 9 40.22315 7.7 C38.41584 6.4 35.97067 5.8 32.88763 5.8 C29.91089 5.8 27.46572 6.4 25.65842 7.7 z" />
<glyph unicode="c" horiz-adv-x="60.200000000000003" d="M50.3 2.6 C50.3 4.8 50.3 9.2 50.3 11.4 C48.2 9.5 45.9 8.1 43.4 7.2 C40.9 6.3 38.3 5.8 35.4 5.8 C31 5.8 27.5 6.7 24.9 8.5 C22.3 10.3 20.4 12.7 19.2 15.7 C18 18.7 17.5 22.1 17.5 25.7 C17.5 29.4 18.1 32.7 19.2 35.7 C20.4 38.7 22.3 41 24.9 42.8 C27.5 44.6 31 45.5 35.4 45.5 C38.4 45.5 41 45 43.3 44.1 C45.6 43.2 48 41.7 50.3 39.8 C50.3 42.76667 50.3 46.475 50.3 48.7 C47.8 50 45.2 51 42.8 51.7 C40.4 52.4 37.6 52.6 34.6 52.6 C28.8 52.6 23.9 51.5 20 49.2 C16.1 46.9 13 43.8 11 39.7 C9 35.6 8 31 8 25.7 C8 20.4 9 15.7 11 11.6 C13 7.5 16 4.4 19.9 2.1 C23.8 -0.2 28.6 -1.3 34.4 -1.3 C40.3 -1.3 45.6 0 50.3 2.6 z" />
<glyph unicode="d" horiz-adv-x="60.200000000000003" d="M41.9 6.5 C42.1 4.9 42.6 1.6 42.8 0 C45.5 0 48.875 0 50.9 0 C50.9 17.85 50.9 53.55 50.9 71.4 C48.65 71.4 44.15 71.4 41.9 71.4 C41.9 64.75 41.9 51.45 41.9 44.8 C40.4 47.5 38.3 49.4 35.8 50.7 C33.3 52 30.4 52.6 27.2 52.6 C20.7 52.6 15.5 50.3 11.7 45.5 C7.9 40.7 6 34.2 6 26 C6 22.7 6.4 19.5 7.1 16.3 C7.8 13.1 8.9 10.1 10.5 7.4 C12.1 4.7 14.3 2.7 17 1.1 C19.7 -0.5 23.1 -1.3 27.1 -1.3 C33.8 -1.3 38.7 1.3 41.9 6.5 zM21.8 7.7 C20.1 9 18.7 10.6 17.8 12.6 C16.9 14.6 16.3 16.8 16 19.1 C15.7 21.4 15.5 23.6 15.5 25.7 C15.5 27.8 15.7 30 16 32.3 C16.3 34.6 16.9 36.7 17.8 38.7 C18.7 40.7 20.1 42.3 21.8 43.6 C23.5 44.9 25.8 45.5 28.7 45.5 C31.5 45.5 33.8 44.9 35.5 43.6 C37.2 42.3 38.6 40.7 39.5 38.7 C40.4 36.7 41.1 34.6 41.4 32.3 C41.7 30 41.9 27.8 41.9 25.7 C41.9 23.6 41.7 21.4 41.4 19.1 C41.1 16.8 40.4 14.6 39.5 12.6 C38.6 10.6 37.2 9 35.5 7.7 C33.8 6.4 31.5 5.8 28.7 5.8 C25.8 5.8 23.5 6.4 21.8 7.7 z" />
<glyph unicode="e" horiz-adv-x="60.200000000000003" d="M42.8 -0.3 C46 0.4 49.1 1.4 52.2 2.6 C52.2 5.4 52.2 8.9 52.2 11 C49.2 9.6 46.2 8.3 43 7.3 C39.8 6.3 36.6 5.8 33.2 5.8 C27.3 5.8 22.9 7.4 19.9 10.6 C16.9 13.8 15.4 18 15.4 23.4 C15.4 23.5 15.4 23.625 15.4 23.7 C25.125 23.7 44.575 23.7 54.3 23.7 C54.3 24.725 54.3 26.775 54.3 27.8 C54.3 35.6 52.3 41.7 48.3 46.1 C44.3 50.5 38.6 52.6 31.3 52.6 C25.8 52.6 21.2 51.4 17.4 49 C13.7 46.6 10.8 43.3 8.9 39.2 C7 35.1 6.1 30.4 6.1 25.3 C6.1 17.1 8.5 10.6 13.3 5.8 C18.1 1 24.7 -1.3 33.1 -1.3 C36.4 -1.3 39.6 -1 42.8 -0.3 zM15.8 30.3 C16.1 33.1 16.9 35.7 18.1 38 C19.4 40.3 21.2 42 23.4 43.4 C25.6 44.8 28.4 45.5 31.7 45.5 C35 45.5 37.6 44.8 39.6 43.5 C41.6 42.2 43.1 40.3 44 38 C44.9 35.7 45.4 33.1 45.4 30.3 C35.53333 30.3 23.2 30.3 15.8 30.3 z" />
<glyph unicode="f" horiz-adv-x="60.200000000000003" d="M22.6 0 C24.85 0 29.35 0 31.6 0 C31.6 9.79348 31.6 29.38043 31.6 39.17391 C35.725 39.17391 43.975 39.17391 48.1 39.17391 C48.1 41.03043 48.1 44.74348 48.1 46.6 C43.975 46.6 35.725 46.6 31.6 46.6 C31.6 48.25 31.6 51.55 31.6 53.2 C31.6 56.4 32.2 58.6 33.5 59.8 C34.8 61 37 61.6 40.2 61.6 C43.76667 61.6 48.225 61.6 50.9 61.6 C50.9 63.35 50.9 66.85 50.9 68.6 C48.075 68.6 42.425 68.6 39.6 68.6 C33.8 68.6 29.6 67.3 26.8 64.6 C24 61.9 22.6 57.8 22.6 52.2 C22.6 50.33333 22.6 48 22.6 46.6 C19.325 46.6 12.775 46.6 9.5 46.6 C9.5 44.74348 9.5 41.03043 9.5 39.17391 C12.775 39.17391 19.325 39.17391 22.6 39.17391 C22.6 29.38043 22.6 9.79348 22.6 0 z" />
<glyph unicode="g" horiz-adv-x="60.200000000000003" d="M46.72205 -18.26589 C51.48265 -13.23993 52 -6.4 52 0 C52.1 12.8 52.1 38.4 52.2 51.2 C49.5 51.2 46.125 51.2 44.1 51.2 C44.1 49.9 44.2 47.8 44.2 46.1 C42.4 48.3 40.2 49.9 37.5 51 C34.8 52.1 31.9 52.6 28.6 52.6 C24.7 52.6 21.4 51.9 18.7 50.3 C16 48.7 13.8 46.7 12.1 44.1 C10.4 41.5 9.2 38.6 8.5 35.5 C7.8 32.4 7.4 29.3 7.4 26.2 C7.4 23.1 7.8 19.9 8.5 16.8 C9.2 13.7 10.5 10.8 12.1 8.2 C13.8 5.6 15.9 3.6 18.6 2 C21.3 0.4 24.6 -0.4 28.5 -0.4 C31.9 -0.4 34.7 0 37.1 0.7 C39.5 1.4 41.8 3 44 5.7 C44 4.5 44 3 44 2.1 C44 1.1 44 -0.9 44 -1.9 C43.9 -9.6 39.59653 -16.68318 31 -16.92756 C26.29316 -17.06137 18.53333 -17.0435 12.3 -17.10147 L12.3 -24.70147 C19.53333 -24.6464 28.85 -24.53626 34 -24.53626 C39.9 -24.53626 43.34961 -21.82631 46.72205 -18.26589 zM20.1 11.7 C17.6 15.1 16.4 19.9 16.4 26.3 C16.4 32.6 17.7 37.4 20.1 40.6 C22.5 43.8 25.9 45.5 30.2 45.5 C33 45.5 35.3 44.8 37 43.6 C38.7 42.4 40 40.9 40.9 38.9 C41.8 37 42.5 34.8 42.8 32.6 C43.1 30.4 43.3 28.3 43.3 26.2 C43.3 19.8 42.2 15 40 11.7 C37.8 8.4 34.6 6.7 30.3 6.7 C26 6.7 22.6 8.3 20.1 11.7 z" />
<glyph unicode="h" horiz-adv-x="60.200000000000003" d="M9.5 0 C11.75 0 16.25 0 18.5 0 C18.5 7.275 18.5 21.825 18.5 29.1 C18.5 31.8 18.9 34.4 19.7 36.9 C20.5 39.4 21.9 41.3 24 42.9 C26.1 44.5 28.7 45.3 32.1 45.3 C35.7 45.3 38.3 44.2 39.9 42 C41.5 39.8 42.3 36.5 42.3 31.9 C42.3 21.26667 42.3 7.975 42.3 0 C44.55 0 49.05 0 51.3 0 C51.3 7.975 51.3 23.925 51.3 31.9 C51.3 35.5 50.9 38.8 50 42 C49.1 45.2 47.4 47.8 45 49.9 C42.6 52 39.2 53 34.7 53 C27.2 53.3 21.8 50.7 18.5 45.2 C18.5 53.93333 18.5 64.85 18.5 71.4 C16.25 71.4 11.75 71.4 9.5 71.4 C9.5 53.55 9.5 17.85 9.5 0 z" />
<glyph unicode="i" horiz-adv-x="60.200000000000003" d="M35.3 60.7 C36.3 60.7 36.7 61.2 36.7 62.1 C36.7 64.73333 36.7 68.025 36.7 70 C36.7 70.9 36.3 71.4 35.3 71.4 C32.96667 71.4 30.05 71.4 28.3 71.4 C27.3 71.4 26.8 70.9 26.8 70 C26.8 67.36667 26.8 64.075 26.8 62.1 C26.8 61.2 27.3 60.7 28.3 60.7 C30.63333 60.7 33.55 60.7 35.3 60.7 zM36.7 0 C36.7 2.7 36.8 5.1 36.8 7.2 C36.8 8.66667 36.8 10.5 36.8 11.6 C36.8 12.05 36.8 12.95 36.8 13.4 C36.7 24.1 36.6 24.2 36.6 26.8 C36.6 28.23333 36.6 30.025 36.6 31.1 C36.6 32.85 36.6 36.35 36.6 38.1 C36.6 40.8 36.7 43.1 36.7 45.1 C36.7 47.2 36.7 49.825 36.7 51.4 C31.38913 51.4 20.76739 51.4 15.45652 51.4 C15.45652 49.5 15.45652 45.7 15.45652 43.8 C18.54239 43.8 24.71413 43.8 27.8 43.8 C27.8 37.425 27.8 24.675 27.8 18.3 C27.8 12.4 27.7 8.8 27.7 7.5 C27.7 5 27.7 1.875 27.7 0 C29.95 0 34.45 0 36.7 0 z" />
<glyph unicode="j" horiz-adv-x="60.200000000000003" d="M41 60.7 C42 60.7 42.4 61.2 42.4 62.1 C42.4 64.73333 42.4 68.025 42.4 70 C42.4 70.9 42 71.4 41 71.4 C38.63333 71.4 35.675 71.4 33.9 71.4 C32.9 71.4 32.5 70.9 32.5 70 C32.5 67.36667 32.5 64.075 32.5 62.1 C32.5 61.2 32.9 60.7 33.9 60.7 C36.26667 60.7 39.225 60.7 41 60.7 zM11.50677 -24.6406 C15.20846 -24.6406 22.61184 -24.6406 26.31353 -24.6406 C31.61353 -24.6406 35.81353 -22.9406 38.71353 -19.6406 C41.61353 -16.3406 43.11353 -9.2406 43.11353 -3.3406 C43.11353 14.90626 43.11353 37.71485 43.11353 51.4 C37.35049 51.4 25.8244 51.4 20.06136 51.4 C20.06136 49.5 20.06136 45.7 20.06136 43.8 C23.5744 43.8 30.60049 43.8 34.11353 43.8 C34.11353 32.01485 34.11353 8.44455 34.11353 -3.3406 C34.11353 -10.8406 31.21353 -16.81452 25.31353 -16.81452 C20.71128 -16.81452 14.95846 -16.81452 11.50677 -16.81452 C11.50677 -18.77104 11.50677 -22.68408 11.50677 -24.6406 z" />
<glyph unicode="k" horiz-adv-x="60.200000000000003" d="M11 0 C13.325 0 17.975 0 20.3 0 C20.3 5.15 20.3 15.45 20.3 20.6 C22 22.1 25.3 25 27 26.5 C32.1 19.9 42.1 6.6 47.2 0 C50.86667 0 55.45 0 58.2 0 C52 8 39.5 24 33.3 32 C38.7 36.8 49.4 46.6 54.8 51.4 C51.16667 51.4 46.625 51.4 43.9 51.4 C38 46.1 26.2 35.4 20.3 30.1 C20.3 43.86667 20.3 61.075 20.3 71.4 C17.975 71.4 13.325 71.4 11 71.4 C11 53.55 11 17.85 11 0 z" />
<glyph unicode="l" horiz-adv-x="60.200000000000003" d="M30.96957 0 C32.21957 0 34.71957 0 35.96957 0 C35.96957 3.3 35.96957 9.9 35.96957 13.2 C35.96957 16.725 35.96957 23.775 35.96957 27.3 C35.96957 29.4 35.96957 33.6 35.96957 35.7 C35.96957 37.35 35.96957 40.65 35.96957 42.3 C35.96957 44.175 35.96957 47.925 35.96957 49.8 C35.96957 54.5 36.16957 63.9 36.16957 68.6 C28.54348 68.6 19.01087 68.6 13.2913 68.6 C13.2913 66.7 13.2913 62.9 13.2913 61 C16.68587 61 23.475 61 26.86957 61 C26.96957 52.8 26.96957 47.6 26.96957 45.1 C26.96957 42.6 26.96957 39.475 26.96957 37.6 C26.96957 33.25 26.96957 24.55 26.96957 20.2 C26.96957 15.15 26.96957 5.05 26.96957 0 C27.96957 0 29.96957 0 30.96957 0 z" />
<glyph unicode="m" horiz-adv-x="60.200000000000003" d="M4 0 C6.05 0 10.15 0 12.2 0 C12.2 7.35 12.2 22.05 12.2 29.4 C12.2 33.1 12.4 36 12.6 38.1 C12.8 40.2 13.2 41.9 13.7 42.9 C14.6 44.7 16.7 45.6 19.9 45.6 C22.3 45.6 23.9 44.7 24.8 43 C25.3 42 25.7 40.4 25.9 38.2 C26.1 36 26.2 33.1 26.2 29.4 C26.2 19.6 26.2 7.35 26.2 0 C28.25 0 32.35 0 34.4 0 C34.4 7.35 34.4 22.05 34.4 29.4 C34.4 33.2 34.6 36 34.8 38.1 C35 40.2 35.3 41.7 35.9 42.8 C37.5 44.6 39.6 45.6 42.1 45.6 C44.7 45.6 46.3 44.8 47.1 43.1 C47.6 42.1 47.9 40.5 48.1 38.4 C48.3 36.3 48.5 33.3 48.5 29.4 C48.5 19.6 48.5 7.35 48.5 0 C50.55 0 54.65 0 56.7 0 C56.7 7.45 56.7 22.35 56.7 29.8 C56.7 38.7 55.8 44.8 54 48 C52.2 51.1 49.1 52.6 44.7 52.6 C39.2 52.6 34.9 50.5 31.9 46.2 C30.1 50.5 27.2 52.6 23.3 52.6 C17.6 52.5 13.6 50.7 11.4 46.9 C11.4 48 11.5 50.3 11.5 51.4 C9 51.4 5.875 51.4 4 51.4 C4 38.55 4 12.85 4 0 z" />
<glyph unicode="n" horiz-adv-x="60.200000000000003" d="M9.5 0 C11.75 0 16.25 0 18.5 0 C18.5 7.275 18.5 21.825 18.5 29.1 C18.5 34.3 19.6 38.3 21.9 41.1 C24.2 43.9 27.5 45.3 31.8 45.3 C35.4 45.3 38 44.2 39.7 42 C41.4 39.8 42.3 36.5 42.3 31.9 C42.3 21.26667 42.3 7.975 42.3 0 C44.55 0 49.05 0 51.3 0 C51.3 7.975 51.3 23.925 51.3 31.9 C51.3 45.8 45.8 52.6 34.6 52.6 C27.2 52.6 21.8 49.7 18.5 43.7 C18.3 45.6 17.8 49.5 17.6 51.4 C14.9 51.4 11.525 51.4 9.5 51.4 C9.5 38.55 9.5 12.85 9.5 0 z" />
<glyph unicode="o" horiz-adv-x="60.200000000000003" d="M47.5 5.6 C51.5 10.2 53.5 16.9 53.5 25.6 C53.5 34.4 51.5 41.1 47.5 45.7 C43.5 50.3 37.7 52.6 30.1 52.6 C22.5 52.6 16.7 50.4 12.7 45.7 C8.7 41 6.7 34.3 6.7 25.6 C6.7 16.9 8.7 10.2 12.7 5.6 C16.7 1 22.6 -1.3 30.2 -1.3 C37.8 -1.3 43.5 1 47.5 5.6 zM19.8 11 C17.4 14.4 16.2 19.3 16.2 25.7 C16.2 32.1 17.4 37 19.8 40.4 C22.2 43.8 25.6 45.5 30.1 45.5 C34.6 45.5 38 43.8 40.4 40.4 C42.8 37 44 32.1 44 25.7 C44 19.3 42.8 14.4 40.4 11 C38 7.6 34.6 5.8 30.1 5.8 C25.6 5.8 22.2 7.6 19.8 11 z" />
<glyph unicode="p" horiz-adv-x="60.200000000000003" d="M9.3 -24.68999 C11.55 -24.68999 16.05 -24.68999 18.3 -24.68999 C18.3 -16.89249 18.3 -1.2975 18.3 6.5 C21.3 1.3 26.2 -1.3 33 -1.3 C39.5 -1.3 44.6 1.1 48.4 5.9 C52.2 10.7 54.1 17.3 54.1 25.7 C54.1 34 52.3 40.6 48.5 45.4 C44.7 50.2 39.5 52.6 33 52.6 C26.3 52.6 21.4 50 18.3 44.8 C18.1 46.4 17.6 49.8 17.4 51.4 C14.7 51.4 11.325 51.4 9.3 51.4 C9.3 32.3775 9.3 -5.66749 9.3 -24.68999 zM22.99565 11 C20.69565 14.4 19.49565 19.3 19.49565 25.7 C19.49565 32 20.69565 36.9 22.99565 40.3 C25.29565 43.7 28.59565 45.5 32.99565 45.5 C41.59565 45.5 45.89565 38.9 45.89565 25.7 C45.89565 12.5 41.59565 5.8 32.99565 5.8 C28.59565 5.8 25.29565 7.6 22.99565 11 z" />
<glyph unicode="q" horiz-adv-x="60.200000000000003" d="M42.5 -24.61371 C44.75 -24.61371 49.25 -24.61371 51.5 -24.61371 C51.5 -5.66028 51.5 32.24657 51.5 51.2 C49.475 51.2 45.425 51.2 43.4 51.2 C43.2 49.6 42.8 46.9 42.5 44.7 C39.4 49.9 34.6 52.5 27.9 52.5 C21.4 52.5 16.2 50 12.4 45.1 C8.6 40.2 6.7 33.6 6.7 25.2 C6.7 22 7.1 18.8 7.8 15.7 C8.5 12.6 9.7 9.7 11.3 7.1 C12.9 4.5 15 2.4 17.7 0.8 C20.4 -0.8 23.7 -1.5 27.6 -1.5 C34.5 -1.5 39.4 1.1 42.5 6.4 C42.5 -3.9379 42.5 -16.86028 42.5 -24.61371 zM18.51304 10.8 C16.21304 14.2 15.11304 19.2 15.11304 25.5 C15.11304 31.9 16.21304 36.8 18.51304 40.2 C20.81304 43.6 24.01304 45.3 28.21304 45.3 C32.41304 45.3 35.71304 43.6 38.01304 40.2 C40.31304 36.8 41.41304 31.9 41.41304 25.5 C41.41304 19.1 40.31304 14.2 38.01304 10.8 C35.71304 7.4 32.41304 5.6 28.21304 5.6 C24.01304 5.6 20.81304 7.4 18.51304 10.8 z" />
<glyph unicode="r" horiz-adv-x="60.200000000000003" d="M12.6 0 C14.85 0 19.35 0 21.6 0 C21.5 6.8 21.4 28.1 21.4 31.8 C21.4 34.8 23 37.7 26 40.6 C29 43.5 33.3 44.9 38.8 44.8 C44.3 44.7 48.9 43.2 52.4 40.1 C52.4 42.96667 52.4 46.55 52.4 48.7 C49.1 51.3 44.8 52.5 39.6 52.6 C39.46667 52.6 39.3 52.6 39.2 52.6 C35.1 52.6 31.6 52 28.6 50.7 C25.5 49.3 23.1 47.2 21.3 44.4 C21.3 46.1 21.4 49.7 21.4 51.4 C18.46667 51.4 14.8 51.4 12.6 51.4 C12.6 38.55 12.6 12.85 12.6 0 z" />
<glyph unicode="s" horiz-adv-x="60.200000000000003" d="M44.5 3.1 C48.3 6 50.3 10 50.3 15.1 C50.3 22.7 45.7 27.3 36.7 29 C35.5 29.2 34 29.45 33.1 29.6 C29.4 30.3 26.5 31 24.6 31.6 C22.7 32.3 21.4 33.1 20.7 34.1 C20 35.1 19.7 36.3 19.7 38 C19.7 43 23.6 45.6 31.5 45.6 C37.1 45.6 42.4 44.2 47.5 41.4 C47.5 44.13333 47.5 47.55 47.5 49.6 C42.3 51.6 36.8 52.6 31.2 52.6 C24.6 52.6 19.6 51.4 16 48.7 C12.4 46 10.6 42.2 10.6 37.3 C10.6 33.4 11.8 30.3 14.2 28.1 C16.6 25.9 20.4 24.2 25.5 23.2 C28 22.7 27.9 22.7 29.2 22.5 C33.4 21.7 36.5 20.6 38.4 19.3 C40.3 18 41.2 16.2 41.2 14 C41.2 11.5 40.1 9.5 37.8 8 C35.5 6.5 32.5 5.7 28.7 5.7 C23.4 5.7 17.2 7.4 10.4 10.6 C10.4 7.7 10.4 4.075 10.4 1.9 C17.4 -0.2 23.6 -1.3 28.8 -1.3 C35.5 -1.3 40.7 0.2 44.5 3.1 z" />
<glyph unicode="t" horiz-adv-x="60.200000000000003" d="M48.24348 -0.2 C48.24348 1.725 48.24348 5.575 48.24348 7.5 C44.62609 7.5 37.3913 7.5 33.77391 7.5 C29.97391 7.5 27.27391 8.1 25.77391 9.3 C24.27391 10.5 23.47391 13 23.47391 16.8 C23.47391 25.76667 23.47391 36.975 23.47391 43.7 C28.70978 43.7 39.18152 43.7 44.41739 43.7 C44.41739 45.625 44.41739 49.475 44.41739 51.4 C39.18152 51.4 28.70978 51.4 23.47391 51.4 C23.47391 54.775 23.47391 61.525 23.47391 64.9 C22.59891 64.9 20.84891 64.9 19.97391 64.9 C19.59891 64.9 18.84891 64.9 18.47391 64.9 C17.47391 64.9 15.47391 64.9 14.47391 64.9 C14.47391 54.675 14.47391 34.225 14.47391 24 C14.47391 22.2 14.47391 18.6 14.47391 16.8 C14.47391 10.6 15.87391 6.2 18.67391 3.6 C21.47391 1 26.17391 -0.2 32.87391 -0.2 C37.9971 -0.2 44.40109 -0.2 48.24348 -0.2 z" />
<glyph unicode="u" horiz-adv-x="60.200000000000003" d="M27.9 -1.4 C35.9 -1.4 41.1 0.9 43.6 5.6 C43.6 3.73333 43.6 1.4 43.6 0 C45.7 0 49.9 0 52 0 C52 12.8 51.9 38.5 51.9 51.3 C48.9 51.3 45.15 51.3 42.9 51.3 C42.8 43.4 42.7 30.2 42.6 19.7 C42.6 15.9 41.5 12.8 39.3 10.3 C37.1 7.8 33.7 6.4 29.2 6 C21.2 6 17.1 10.5 17.1 19.5 C17.1 30.1 17.1 43.35 17.1 51.3 C14.875 51.3 10.425 51.3 8.2 51.3 C8.2 43.35 8.2 27.45 8.2 19.5 C8.2 5.6 14.2 -1.3 26.2 -1.3 C26.8 -1.3 27.3 -1.4 27.9 -1.4 z" />
<glyph unicode="v" horiz-adv-x="60.200000000000003" d="M24.3 0 C27.2 0 33 0 35.9 0 C40.8 12.9 50.4 38.5 55.3 51.4 C52.2 51.4 48.325 51.4 46 51.4 C42 40.6 34.1 19.1 30.1 8.3 C26.1 19.1 18.2 40.6 14.2 51.4 C11.1 51.4 7.225 51.4 4.9 51.4 C9.8 38.5 19.4 12.9 24.3 0 z" />
<glyph unicode="w" horiz-adv-x="60.200000000000003" d="M12.8 0 C14.95 0 19.25 0 21.4 0 C23.6 7 27.9 21.2 30.1 28.2 C32.3 21.2 36.6 7 38.8 0 C41.66667 0 45.25 0 47.4 0 C50.6 12.9 57 38.5 60.2 51.4 C57.23333 51.4 53.525 51.4 51.3 51.4 C49.2 41.4 45.1 21.3 43 11.3 C41 17.6 37 30.4 35 36.7 C31.66667 36.7 27.5 36.7 25 36.7 C23.2 30.4 19.8 17.6 18 11.3 C15.7 21.3 11.2 41.4 8.9 51.4 C5.93333 51.4 2.225 51.4 0 51.4 C3.2 38.5 9.6 12.9 12.8 0 z" />
<glyph unicode="x" horiz-adv-x="60.200000000000003" d="M3.7 0 C6.3 0 11.5 0 14.1 0 C18.1 5.2 26.1 15.4 30.1 20.6 C34.1 15.4 42.1 5.2 46.1 0 C49.56667 0 53.9 0 56.5 0 C51.1 6.7 40.4 20.1 35 26.8 C39.9 33 49.7 45.2 54.6 51.4 C51.23333 51.4 47.025 51.4 44.5 51.4 C40.9 46.8 33.7 37.4 30.1 32.8 C26.5 37.4 19.2 46.8 15.6 51.4 C12.26667 51.4 8.1 51.4 5.6 51.4 C10.5 45.2 20.3 33 25.2 26.8 C19.8 20.1 9.1 6.7 3.7 0 z" />
<glyph unicode="y" horiz-adv-x="60.200000000000003" d="M11.6 -14.51304 C11.6 -17.11304 11.5 -19.61304 11.6 -22.31304 C20.2 -22.31304 30.95 -22.31304 37.4 -22.31304 C42.4 -22.31304 52.52174 -15 52.4 -4.2 C52.4 3.8 52.3 8.7 52.3 20.3 C52.3 25.8 52.2 31 52.2 35.8 C52.2 40.6 52.1 45.9 52.1 51.5 C46.1 51.4 46.1 51.4 43.1 51.4 C43.2 44.6 43.3 37.6 43.3 30.4 C43.3 23.36667 43.3 14.575 43.3 9.3 C41.6 9.3 38.2 9.3 36.5 9.3 C34.075 9.3 29.225 9.3 26.8 9.3 C22.6 9.3 19.8 10.2 18.3 12 C16.8 13.8 15.9 16.8 15.9 21.2 C15.9 26.16667 15.9 32.375 15.9 36.1 C15.9 39.95 15.9 47.65 15.9 51.5 C13.6 51.5 9.2 51.4 6.9 51.4 C6.9 43.1 6.8 29.2 6.8 18.1 C6.84783 8.86957 13.91304 1.47826 24.8 1.4 C30.96667 1.4 38.675 1.4 43.3 1.4 C43.4 -4.63478 43.2087 -14.36522 35.4 -14.41304 C28.7 -14.41304 14.6 -14.51304 11.6 -14.51304 z" />
<glyph unicode="z" horiz-adv-x="60.200000000000003" d="M9.24783 0 C19.69022 0 40.575 0 51.01739 0 C51.01739 1.80652 51.01739 5.41957 51.01739 7.22609 C42.8413 7.22609 26.48913 7.22609 18.31304 7.22609 C19.74842 8.9191 27.53719 17.1231 32.25796 22.12595 C38.44663 22.12595 47.49763 22.12595 51.04138 22.12595 C51.05042 24.33137 51.05946 26.63349 51.0685 28.95958 L37.48529 29.02211 L51.01739 44.88696 C51.01739 47.0913 51.01739 49.84674 51.01739 51.5 C40.57609 51.5 19.69348 51.5 9.25217 51.5 C9.25217 49.7163 9.25217 46.14891 9.25217 44.36522 C17.48152 44.36522 33.94022 44.36522 42.16957 44.36522 C38.88806 40.648 32.32504 33.21355 29.04353 29.49633 C22.5228 29.5092 11.98032 29.52208 9.26393 29.53495 L9.18915 22.66943 C11.87875 22.66943 19.06111 22.66943 23.88839 22.66943 C19.0082 17.45933 10.78232 8.74035 9.24783 6.93043 C9.24783 4.62029 9.24783 1.73261 9.24783 0 z" />
<glyph unicode="{" horiz-adv-x="60.200000000000003" d="M50.3 -10.28696 C50.3 -8.24239 50.3 -4.15326 50.3 -2.1087 C49.425 -2.1087 47.675 -2.1087 46.8 -2.1087 C42.2 -2.1087 39.4 -1.6087 38 -0.7087 C36.6 0.5913 35.9 2.95652 35.9 7.35652 C35.9 11.15652 35.9 15.90652 35.9 18.75652 C35.9 23.55652 35.2 26.95652 33.7 29.15652 C32.2 31.35652 30.03478 33.4 26.43478 34.2 C30.03478 35 32.2 36.94348 33.7 39.14348 C35.2 41.34348 35.9 44.84348 35.9 49.64348 C35.9 53.44348 35.9 58.19348 35.9 61.04348 C35.9 65.44348 36.6 67.8087 38 69.1087 C39.4 70.0087 42.2 70.5087 46.8 70.5087 C47.96667 70.5087 49.425 70.5087 50.3 70.5087 C50.3 72.55326 50.3 76.64239 50.3 78.68696 C49.5 78.68696 47.9 78.68696 47.1 78.68696 C38.9 78.68696 33.6 77.48696 30.9 75.28696 C28.1 73.08696 26.7 68.04348 26.7 61.24348 C26.7 57.54348 26.7 52.91848 26.7 50.14348 C26.7 45.64348 25.8 42.44348 24.1 40.64348 C22.4 39.24348 19.3 38.54348 14.7 38.54348 C12.8 38.54348 10.425 38.54348 9 38.54348 C9 36.39674 9 32.10326 9 29.95652 C10.425 29.95652 13.275 29.95652 14.7 29.95652 C19.3 29.95652 22.3 29.25652 24.1 27.75652 C25.8 25.95652 26.7 22.75652 26.7 18.15652 C26.7 14.48986 26.7 9.90652 26.7 7.15652 C26.7 0.35652 28.1 -4.68696 30.9 -6.88696 C33.7 -9.18696 39.1 -10.28696 47.1 -10.28696 C48.16667 -10.28696 49.5 -10.28696 50.3 -10.28696 z" />
<glyph unicode="|" horiz-adv-x="60.200000000000003" d="M25.6 -7.3 C27.7 -7.3 31.9 -7.3 34 -7.3 C34 13.5 34 55.1 34 75.9 C31.9 75.9 27.7 75.9 25.6 75.9 C25.6 55.1 25.6 13.5 25.6 -7.3 z" />
<glyph unicode="}" horiz-adv-x="60.200000000000003" d="M10 -10.28696 C10.75 -10.28696 12.25 -10.28696 13 -10.28696 C21 -10.28696 26.5 -9.18696 29.3 -6.88696 C32 -4.58696 33.4 0.45652 33.4 7.25652 C33.4 10.88986 33.4 15.43152 33.4 18.15652 C33.4 20.55652 33.7 22.55652 34.4 24.05652 C35.1 25.55652 36.1 26.85652 37.5 27.75652 C40 29.25652 43.6 29.95652 48.4 29.95652 C49.46667 29.95652 50.8 29.95652 51.6 29.95652 C51.6 32.10326 51.6 36.39674 51.6 38.54348 C50.8 38.54348 49.2 38.54348 48.4 38.54348 C46.2 38.54348 44.2 38.64348 42.3 38.94348 C40.4 39.24348 38.8 39.84348 37.5 40.74348 C36.1 41.64348 35.1 42.84348 34.4 44.34348 C33.7 45.84348 33.4 47.84348 33.4 50.24348 C33.4 53.91014 33.4 58.49348 33.4 61.24348 C33.4 68.04348 32 73.08696 29.3 75.28696 C26.6 77.48696 21.2 78.68696 13 78.68696 C12 78.68696 10.75 78.68696 10 78.68696 C10 76.64239 10 72.55326 10 70.5087 C10.825 70.5087 12.475 70.5087 13.3 70.5087 C17.9 70.5087 20.9 70.1087 22.3 69.1087 C23.7 67.8087 24.4 65.34348 24.4 61.04348 C24.4 57.24348 24.4 52.49348 24.4 49.64348 C24.4 47.04348 24.6 44.94348 25 43.24348 C25.4 41.54348 26 40.24348 26.7 39.24348 C28.2 37.14348 30.16522 35.1 33.76522 34.3 C30.16522 33.5 28.1 31.45652 26.6 29.25652 C25.1 27.05652 24.4 23.55652 24.4 18.75652 C24.4 14.98986 24.4 10.28152 24.4 7.45652 C24.4 3.15652 23.7 0.6913 22.3 -0.6087 C20.9 -1.6087 17.9 -2.1087 13.3 -2.1087 C12.2 -2.1087 10.825 -2.1087 10 -2.1087 C10 -4.15326 10 -8.24239 10 -10.28696 z" />
<glyph unicode="~" horiz-adv-x="60.200000000000003" d="M48.4 42.6 C48.1 39.1 47.5 36.2 46.4 34 C45.3 31.8 43.5 30.7 40.9 30.7 C39.4 30.7 38 31.4 36.6 32.7 C35 34.2 33.3 36.1 31.5 38.4 C30.5 39.8 29.3 41 28.2 42 C27.1 43 26.1 43.8 25.1 44.4 C23.2 45.5 21 46 18.6 46 C13.7 46 9.9 43.8 7.2 39.4 C5.8 36.9 4.7 33.3 3.9 28.7 C9 27.5 9 27.6 11.5 27 C11.8 29.2 12.6 32 13.6 35.5 C14.6 37.7 16.4 38.8 18.9 38.8 C20.1 38.8 21.4 38.4 22.7 37.5 C23.9 36.7 25.7 34.6 28.3 31.2 C30.7 28.1 32.7 26.1 34.4 25.1 C36.3 24.1 38.5 23.5 41.1 23.5 C46.5 23.5 50.4 25.8 52.7 30.2 C53.9 32.2 54.7 34.1 55.2 35.9 C55.7 37.7 56 39.4 56 40.9 C50.9 42 50.9 42.1 48.4 42.6 z" />
<glyph unicode="" horiz-adv-x="60.200000000000003" d="" />
<glyph unicode="" horiz-adv-x="60.200000000000003" d="M24.9 66.6 C23.4 65.2 22.7 63.2 22.7 60.8 C22.7 58.4 23.4 56.5 24.9 55.1 C26.4 53.7 28.4 53 30.6 53 C32.8 53 34.7 53.7 36.2 55.1 C37.7 56.5 38.5 58.4 38.5 60.8 C38.5 63.2 37.7 65.2 36.2 66.6 C34.7 68.1 32.9 68.8 30.6 68.8 C28.3 68.8 26.4 68.1 24.9 66.6 zM27.7 43.7 C26.8 37.2 24.9 24.2 24 17.7 C24 10.86667 24 2.325 24 -2.8 C27.225 -2.8 33.675 -2.8 36.9 -2.8 C36.9 2.325 36.9 12.575 36.9 17.7 C36.1 24.2 34.4 37.2 33.6 43.7 C31.63333 43.7 29.175 43.7 27.7 43.7 z" />
<glyph unicode="" horiz-adv-x="60.200000000000003" d="M34.1 -14.4 C35.35 -14.4 37.85 -14.4 39.1 -14.4 C39.1 -11.1 39.1 -4.5 39.1 -1.2 C40.9 -1.1 42.9 -0.8 45.1 -0.3 C46.1 -0.1 47.1 0.2 48.1 0.5 C49.1 0.8 50.3 1.3 51.8 1.9 C51.8 4.53333 51.8 7.825 51.8 9.8 C50.8 9.2 49.7 8.6 48.6 8.1 C47.5 7.6 46.4 7.2 45.4 6.9 C44.3 6.6 43.2 6.3 42.2 6.1 C41.2 5.9 40.1 5.7 39.1 5.6 C39.1 18.93333 39.1 35.6 39.1 45.6 C40.1 45.5 41.1 45.4 42.1 45.2 C43.1 45 44.3 44.8 45.4 44.4 C47.6 43.7 49.7 42.7 51.8 41.5 C51.8 44.13333 51.8 47.425 51.8 49.4 C49.3 50.4 47.1 51.3 45.1 51.7 C43.1 52.1 41.1 52.4 39.1 52.6 C39.1 56.96667 39.1 62.425 39.1 65.7 C37.85 65.7 35.35 65.7 34.1 65.7 C34.1 62.425 34.1 55.875 34.1 52.6 C30.3 52.3 26.9 51.3 24.1 49.9 C21.3 48.5 18.8 46.7 16.8 44.4 C14.8 42.1 13.2 39.3 12 36.1 C10.8 32.9 10.3 29.3 10.3 25.6 C10.3 21.9 10.8 18.5 12 15.3 C13.2 12.1 14.7 9.4 16.8 7 C18.9 4.5 21.4 2.6 24.3 1.3 C27.2 0 30.5 -0.9 34.1 -1.2 C34.1 -5.6 34.1 -11.1 34.1 -14.4 zM34.1 5.8 C29.8 6.2 26.3 8.2 23.7 11.8 C21.1 15.4 19.8 20.1 19.8 25.7 C19.8 31.3 21.1 35.9 23.7 39.5 C26.3 43.1 29.8 45.1 34.1 45.5 C34.1 32.26667 34.1 15.725 34.1 5.8 z" />
<glyph unicode="" horiz-adv-x="60.200000000000003" d="M6.8 0 C18.675 0 42.425 0 54.3 0 C54.3 1.95 54.3 5.85 54.3 7.8 C47.75 7.8 34.65 7.8 28.1 7.8 C28.1 13.125 28.1 23.775 28.1 29.1 C32.625 29.1 41.675 29.1 46.2 29.1 C46.2 30.75 46.2 34.05 46.2 35.7 C41.675 35.7 32.625 35.7 28.1 35.7 C28.1 38.2 28.1 43.2 28.1 45.7 C28.1 51.6 29.1 55.9 31.2 58.6 C33.3 61.3 36.5 62.7 40.9 62.7 C43.1 62.7 45.2 62.4 47.2 61.7 C48 61.4 49 61 50.1 60.5 C51.2 60 52.2 59.4 53.3 58.7 C53.3 61.5 53.3 65 53.3 67.1 C52 67.6 50.8 68 49.5 68.4 C48.2 68.8 47.2 68.9 46.4 69.1 C44.2 69.5 42 69.8 39.6 69.8 C32.6 69.8 27.2 67.8 23.7 64 C20.1 60.2 18.3 54.4 18.3 46.6 C18.3 42.96667 18.3 38.425 18.3 35.7 C15.875 35.7 11.025 35.7 8.6 35.7 C8.6 34.05 8.6 30.75 8.6 29.1 C11.025 29.1 15.875 29.1 18.3 29.1 C18.3 23.775 18.3 13.125 18.3 7.8 C15.425 7.8 9.675 7.8 6.8 7.8 C6.8 5.85 6.8 1.95 6.8 0 z" />
<glyph unicode="" horiz-adv-x="60.200000000000003" d="M14.5 9 C16.5 10.9 19.8 13.9 22.5 16.4 C25.6 14.7 28.7 13.8 31.8 13.8 C33.4 13.8 35.1 14 36.6 14.5 C38.1 15 39.5 15.7 41 16.6 C43 14.7 47.1 10.9 49.1 9 C50.2 10.1 52.6 12.2 53.7 13.3 C51.6 15.2 48.2 18.4 45.5 20.9 C46.5 22.2 47.3 23.6 47.8 25.1 C48.3 26.5 48.5 27.9 48.5 29.4 C48.5 31 48.3 32.4 47.8 33.8 C47.4 35 46.7 36.4 45.6 38.1 C47.6 40 51.7 43.9 53.7 45.8 C52.6 46.9 50.4 48.9 49.3 50 C47.3 48.1 43.9 44.9 41.2 42.4 C37.9 44.2 34.8 45.1 31.8 45.1 C30.2 45.1 28.7 44.9 27.2 44.4 C25.7 43.9 24.2 43.2 22.7 42.3 C20.7 44.2 16.6 48.1 14.6 50 C13.5 48.9 11.1 46.8 10 45.7 C12.1 43.8 15.5 40.5 18.2 38 C17.3 36.7 16.6 35.4 16 33.9 C15.5 32.5 15.2 31.1 15.2 29.5 C15.2 28 15.4 26.5 15.8 25.2 C16.2 23.9 17 22.4 18.1 20.7 C16.1 18.8 12 15 10 13.1 C11.1 12.1 13.4 10 14.5 9 zM24.4 22.4 C22.4 24.4 21.4 26.8 21.4 29.5 C21.4 32.4 22.4 34.7 24.5 36.5 C26.5 38.3 28.9 39.3 31.9 39.3 C34.9 39.3 37.4 38.4 39.4 36.5 C41.4 34.6 42.4 32.3 42.4 29.5 C42.4 26.7 41.4 24.4 39.4 22.4 C37.4 20.5 34.9 19.6 31.9 19.6 C29 19.6 26.5 20.5 24.4 22.4 z" />
<glyph unicode="" horiz-adv-x="60.200000000000003" d="M25.1 0 C27.575 0 32.525 0 35 0 C35 6.025 35 18.075 35 24.1 C39.9 24.1 49.7 24.1 54.6 24.1 C54.6 25.35 54.6 27.85 54.6 29.1 C49.7 29.1 39.9 29.1 35 29.1 C35 29.525 35 30.375 35 30.8 C36 32.5 38.2 36 39.2 37.7 C44.33333 37.7 50.75 37.7 54.6 37.7 C54.6 38.975 54.6 41.525 54.6 42.8 C51.525 42.8 45.375 42.8 42.3 42.8 C46.3 49.2 54.4 62.1 58.4 68.5 C54.86667 68.5 50.45 68.5 47.8 68.5 C43.4 60.9 34.5 45.9 30.1 38.3 C25.7 45.9 16.7 60.9 12.3 68.5 C8.8 68.5 4.425 68.5 1.8 68.5 C5.7 62.1 13.6 49.2 17.5 42.8 C13.53333 42.8 8.575 42.8 5.6 42.8 C5.6 41.525 5.6 38.975 5.6 37.7 C9.375 37.7 16.925 37.7 20.7 37.7 C21.8 36 24 32.5 25.1 30.8 C25.1 30.23333 25.1 29.525 25.1 29.1 C20.225 29.1 10.475 29.1 5.6 29.1 C5.6 27.85 5.6 25.35 5.6 24.1 C10.475 24.1 20.225 24.1 25.1 24.1 C25.1 18.075 25.1 6.025 25.1 0 z" />
<glyph unicode="" horiz-adv-x="60.200000000000003" d="M26 40.4 C28.1 40.4 32.3 40.4 34.4 40.4 C34.4 49.1 34.4 66.5 34.4 75.2 C32.3 75.2 28.1 75.2 26 75.2 C26 66.5 26 49.1 26 40.4 zM26 -6.6 C28.1 -6.6 32.3 -6.6 34.4 -6.6 C34.4 2.1 34.4 19.5 34.4 28.2 C32.3 28.2 28.1 28.2 26 28.2 C26 19.5 26 2.1 26 -6.6 z" />
<glyph unicode="" horiz-adv-x="60.200000000000003" d="M42.4 -5.1 C45.7 -2.5 47.4 0.9 47.4 5.1 C47.4 6.3 47.2 7.3 47 8.2 C46.8 9.1 46.5 9.9 46 10.7 C45 12.4 43.6 14 41.6 15.6 C44.6 17.2 46.9 19.1 48.4 21.3 C49.9 23.5 50.6 25.8 50.6 28.5 C50.6 31.6 49.5 34.4 47.4 36.8 C46.4 37.9 44.8 39.2 42.8 40.6 C40.8 42 37.8 43.8 33.9 45.8 C32.6 46.5 32.6 46.4 31.9 46.8 C28.4 48.7 25.7 50.5 24.2 52 C22.7 53.5 21.9 55 21.9 56.5 C21.9 57.3 22.2 58.2 22.6 59.1 C23 60 23.7 60.7 24.6 61.3 C25.4 61.9 26.3 62.4 27.5 62.7 C28.7 63 30.1 63.2 31.8 63.2 C35.7 63.2 40.3 62 45.7 59.6 C45.7 62.1 45.7 65.225 45.7 67.1 C42.9 68 40.4 68.7 38.1 69.1 C37.1 69.3 35.8 69.5 34.5 69.6 C33.2 69.7 31.9 69.8 30.7 69.8 C28.3 69.8 25.9 69.5 23.7 68.9 C21.5 68.3 19.5 67.5 17.8 66.2 C14.5 63.8 12.9 60.6 12.9 56.5 C12.9 54.4 13.4 52.5 14.4 50.8 C15.3 49.1 16.7 47.5 18.7 46.2 C15.8 44.7 13.5 42.9 12 40.7 C10.5 38.4 9.7 35.9 9.7 33.2 C9.7 30 10.7 27.3 12.8 25 C14.2 23.5 16 22.1 18.2 20.7 C20.4 19.3 23.1 17.8 26.4 16 C27.2 15.6 27.2 15.5 27.6 15.3 C31.3 13.2 34.1 11.5 35.8 9.9 C37.5 8.3 38.4 6.5 38.4 4.7 C38.4 2.6 37.4 0.9 35.6 -0.4 C33.8 -1.7 31.3 -2.3 28 -2.3 C24.1 -2.3 19.3 -1.2 13.6 1.2 C13.6 -1.3 13.6 -4.425 13.6 -6.3 C14.65 -6.6 16.75 -7.2 17.8 -7.5 C19.2 -7.9 20.5 -8.1 21.7 -8.3 C22.7 -8.5 23.9 -8.7 25.2 -8.8 C26.5 -8.9 27.8 -9 29.1 -9 C34.7 -9 39.1 -7.7 42.4 -5.1 zM26.6 24.2 C24.3 25.6 22.5 26.9 21.2 28 C18.9 30.1 17.7 32.3 17.7 34.6 C17.7 35.5 17.8 36.2 18.1 36.9 C18.4 37.6 18.7 38.2 19.2 38.8 C20.1 40.1 21.6 41.6 23.7 43 C31.6 39 36.7 35.9 39.1 33.8 C40.1 32.9 41 31.9 41.6 30.8 C42.2 29.7 42.6 28.5 42.6 27.2 C42.6 25.8 42.1 24.3 41.1 22.9 C40.2 21.6 38.7 20.2 36.6 18.8 C32.2 21 28.9 22.8 26.6 24.2 z" />
<glyph unicode="" horiz-adv-x="60.200000000000003" d="M17 71.2 C16 71.2 15.6 70.8 15.6 69.9 C15.6 67.7 15.6 64.95 15.6 63.3 C15.6 62.4 16 62 17 62 C19.33333 62 22.25 62 24 62 C25 62 25.5 62.4 25.5 63.3 C25.5 65.5 25.5 68.25 25.5 69.9 C25.5 70.8 25 71.2 24 71.2 C21.66667 71.2 18.75 71.2 17 71.2 zM36.2 71.2 C35.2 71.2 34.7 70.8 34.7 69.9 C34.7 67.7 34.7 64.95 34.7 63.3 C34.7 62.4 35.2 62 36.2 62 C38.5 62 41.375 62 43.1 62 C44.1 62 44.6 62.4 44.6 63.3 C44.6 65.5 44.6 68.25 44.6 69.9 C44.6 70.8 44.1 71.2 43.1 71.2 C40.8 71.2 37.925 71.2 36.2 71.2 z" />
<glyph unicode="" horiz-adv-x="60.200000000000003" d="M41.6 7.8 C43.5 8.5 45.1 9.5 46.8 10.6 C48.5 11.7 50 12.8 51.4 14.1 C52.9 15.5 54.1 16.9 55.2 18.5 C56.3 20.1 57.3 21.7 58 23.3 C59.5 26.5 60.2 30.2 60.2 34.1 C60.2 38 59.5 41.5 58 44.8 C57.3 46.3 56.4 47.8 55.3 49.4 C54.2 51 52.9 52.6 51.3 54.1 C49.9 55.4 48.4 56.5 46.8 57.6 C45.2 58.7 43.5 59.6 41.6 60.3 C38 61.7 34.2 62.3 30.1 62.3 C26 62.3 22.1 61.7 18.6 60.3 C14.9 58.9 11.7 56.8 8.9 54.1 C6 51.4 3.8 48.2 2.2 44.8 C0.7 41.5 0 37.9 0 34 C0 30.1 0.7 26.6 2.2 23.3 C3.8 19.8 6 16.8 8.8 14.1 C14.7 8.5 21.9 5.7 30.1 5.7 C34.3 5.7 38.1 6.4 41.6 7.8 zM20.6 12.2 C17.6 13.4 14.8 15.1 12.4 17.4 C11.5 18.3 10.5 19.4 9.5 20.6 C8.5 21.8 7.7 23.4 6.9 25.1 C5.6 27.9 5 30.9 5 34.1 C5 37.3 5.6 40.3 6.9 43.1 C8.1 45.9 9.9 48.5 12.4 50.8 C14.8 53.1 17.5 54.7 20.5 55.9 C23.3 57 26.6 57.6 30.1 57.6 C33.6 57.6 36.8 57 39.7 55.9 C42.6 54.8 45.4 53.1 47.8 50.8 C50.2 48.5 52.1 45.9 53.3 43.1 C54.5 40.3 55.2 37.2 55.2 34 C55.2 30.7 54.6 27.8 53.4 25.1 C52.8 23.7 52 22.2 51 20.9 C50 19.6 48.9 18.3 47.8 17.3 C45.4 15.1 42.7 13.5 39.6 12.2 C36.6 11 33.4 10.4 30.1 10.4 C26.7 10.4 23.6 11 20.6 12.2 zM42.2 19 C42.2 20.2 42.2 22.6 42.2 23.8 C39.1 22.2 35.8 21.4 32.1 21.4 C27.8 21.4 24.5 22.5 22.2 24.7 C19.9 26.9 18.8 30 18.8 33.9 C18.8 37.9 19.9 41.1 22.1 43.4 C23.2 44.6 24.6 45.4 26.2 45.9 C27.8 46.4 29.4 46.7 31.3 46.7 C32.1 46.7 33 46.7 33.9 46.6 C34.8 46.5 35.8 46.3 36.7 46.1 C38.5 45.7 40.3 45.1 42.2 44.2 C42.2 45.86667 42.2 47.95 42.2 49.2 C40.3 49.9 38.6 50.4 36.9 50.7 C34.9 51 33 51.2 31.2 51.2 C25.4 51.2 20.7 49.7 17.3 46.6 C13.9 43.5 12.2 39.3 12.2 34 C12.2 28.7 13.8 24.6 17.2 21.5 C20.6 18.4 25.3 16.9 31.2 16.9 C35.1 16.9 38.8 17.6 42.2 19 z" />
<glyph unicode="" horiz-adv-x="60.200000000000003" d="M34 33.6 C36.1 34.6 38 36 39.6 38 C39.8 36.7 40.1 34.2 40.3 32.9 C42.4 32.9 45.025 32.9 46.6 32.9 C46.6 38.05 46.6 48.35 46.6 53.5 C46.6 59.2 45.1 63.2 42.3 65.8 C39.4 68.4 35.1 69.8 29.4 69.8 C28.2 69.8 27 69.7 26 69.6 C25 69.5 24 69.3 22.9 69.1 C20.7 68.7 18.4 68.1 16.2 67.2 C16.2 65.26667 16.2 62.85 16.2 61.4 C18.3 62.4 20.5 63.1 22.6 63.7 C24.6 64.2 26.5 64.5 28.5 64.5 C30 64.5 31.4 64.3 32.8 64 C34.2 63.7 35.6 63.2 36.7 62.4 C38.7 61 39.6 58.9 39.6 56.1 C39.6 56.06667 39.6 56.025 39.6 56 C37.375 56 32.925 56 30.7 56 C25.1 56 20.8 54.8 17.7 52.7 C14.7 50.5 13.2 47.5 13.2 43.6 C13.2 40.1 14.4 37.3 16.8 35.2 C19.3 33.1 22.6 32 26.7 32 C29.5 32 31.9 32.6 34 33.6 zM22.5 39.3 C21.8 39.8 21.3 40.5 20.9 41.2 C20.5 41.9 20.3 42.9 20.3 44 C20.3 46.4 21.3 48 23.3 49.1 C25.3 50.1 28.7 50.7 33.4 50.7 C35.46667 50.7 38.05 50.7 39.6 50.7 C39.6 50.35 39.6 49.65 39.6 49.3 C39.6 45.8 38.5 43 36.4 40.8 C34.3 38.6 31.5 37.5 28.1 37.5 C25.8 37.5 23.9 38.1 22.5 39.3 zM14.3 21.5 C22.45 21.5 38.75 21.5 46.9 21.5 C46.9 22.925 46.9 25.775 46.9 27.2 C38.75 27.2 22.45 27.2 14.3 27.2 C14.3 25.775 14.3 22.925 14.3 21.5 z" />
<glyph unicode="" horiz-adv-x="60.200000000000003" d="M26.8 6.5 C26.8 8.675 26.8 13.025 26.8 15.2 C23.1 18.3 15.8 24.4 12.1 27.5 C15.8 30.6 23.1 36.7 26.8 39.8 C26.8 42.73333 26.8 46.4 26.8 48.6 C21.1 43.8 9.6 34.2 3.9 29.4 C3.9 28.16667 3.9 26.625 3.9 25.7 C9.6 20.9 21.1 11.3 26.8 6.5 zM48.9 6.5 C48.9 8.675 48.9 13.025 48.9 15.2 C45.2 18.3 37.9 24.4 34.2 27.5 C37.9 30.6 45.2 36.7 48.9 39.8 C48.9 42.73333 48.9 46.4 48.9 48.6 C43.2 43.8 31.7 34.2 26 29.4 C26 28.16667 26 26.625 26 25.7 C31.7 20.9 43.2 11.3 48.9 6.5 z" />
<glyph unicode="" horiz-adv-x="60.200000000000003" d="M47.7 17 C49.75 17 53.85 17 55.9 17 C55.9 22.65 55.9 33.95 55.9 39.6 C43 39.6 17.2 39.6 4.3 39.6 C4.3 37.625 4.3 33.675 4.3 31.7 C15.15 31.7 36.85 31.7 47.7 31.7 C47.7 28.025 47.7 20.675 47.7 17 z" />
<glyph unicode="" horiz-adv-x="60.200000000000003" d="M17.4 22 C23.75 22 36.45 22 42.8 22 C42.8 23.875 42.8 27.625 42.8 29.5 C36.45 29.5 23.75 29.5 17.4 29.5 C17.4 27.625 17.4 23.875 17.4 22 z" />
<glyph unicode="" horiz-adv-x="60.200000000000003" d="M41.6 7.8 C43.5 8.5 45.1 9.5 46.8 10.6 C48.5 11.7 50 12.8 51.4 14.1 C52.9 15.5 54.1 16.9 55.2 18.5 C56.3 20.1 57.3 21.7 58 23.3 C59.5 26.5 60.2 30.2 60.2 34.1 C60.2 38 59.5 41.5 58 44.8 C57.3 46.3 56.4 47.8 55.3 49.4 C54.2 51 52.9 52.6 51.3 54.1 C49.9 55.4 48.4 56.5 46.8 57.6 C45.2 58.7 43.5 59.6 41.6 60.3 C38 61.7 34.2 62.3 30.1 62.3 C26 62.3 22.1 61.7 18.6 60.3 C14.9 58.9 11.7 56.8 8.9 54.1 C6 51.4 3.8 48.2 2.2 44.8 C0.7 41.5 0 37.9 0 34 C0 30.1 0.7 26.6 2.2 23.3 C3.8 19.8 6 16.8 8.8 14.1 C14.7 8.5 21.9 5.7 30.1 5.7 C34.3 5.7 38.1 6.4 41.6 7.8 zM20.6 12.2 C17.6 13.4 14.8 15.1 12.4 17.4 C11.5 18.3 10.5 19.4 9.5 20.6 C8.5 21.8 7.7 23.4 6.9 25.1 C5.6 27.9 5 30.9 5 34.1 C5 37.3 5.6 40.3 6.9 43.1 C8.1 45.9 9.9 48.5 12.4 50.8 C14.8 53.1 17.5 54.7 20.5 55.9 C23.3 57 26.6 57.6 30.1 57.6 C33.6 57.6 36.8 57 39.7 55.9 C42.6 54.8 45.4 53.1 47.8 50.8 C50.2 48.5 52.1 45.9 53.3 43.1 C54.5 40.3 55.2 37.2 55.2 34 C55.2 30.7 54.6 27.8 53.4 25.1 C52.8 23.7 52 22.2 51 20.9 C50 19.6 48.9 18.3 47.8 17.3 C45.4 15.1 42.7 13.5 39.6 12.2 C36.6 11 33.4 10.4 30.1 10.4 C26.7 10.4 23.6 11 20.6 12.2 zM17.7 18.6 C19.275 18.6 22.425 18.6 24 18.6 C24 22 24 28.8 24 32.2 C24.675 32.2 26.025 32.2 26.7 32.2 C28.2 32.2 29.5 31.9 30.4 31.3 C31.3 30.7 32.7 29.1 34.3 26.6 C36.03333 23.93333 38.2 20.6 39.5 18.6 C41.25 18.6 44.75 18.6 46.5 18.6 C45.1 20.7 42.8 24.4 40.9 27.2 C40.4 27.9 39.9 28.6 39.2 29.4 C38.5 30.2 38 30.9 37.6 31.4 C36.6 32.4 35.9 33.1 35.3 33.2 C37.9 33.6 40 34.6 41.4 36 C42.8 37.4 43.5 39.2 43.5 41.4 C43.5 44.4 42.3 46.7 40 48.2 C37.7 49.7 34.2 50.5 29.3 50.5 C25.43333 50.5 20.6 50.5 17.7 50.5 C17.7 42.525 17.7 26.575 17.7 18.6 zM24 36 C24 38.65 24 43.95 24 46.6 C25.25 46.6 27.75 46.6 29 46.6 C31.9 46.6 34 46.2 35.2 45.4 C35.9 45 36.3 44.4 36.6 43.7 C36.9 43 37 42.2 37 41.3 C37 39.4 36.4 38 35.2 37.2 C34 36.4 31.9 36 29 36 C27.33333 36 25.25 36 24 36 z" />
<glyph unicode="" horiz-adv-x="60.200000000000003" d="M44.7 70 C37.4 70 22.8 70 15.5 70 C15.5 68.3 15.5 64.9 15.5 63.2 C22.8 63.2 37.4 63.2 44.7 63.2 C44.7 64.9 44.7 68.3 44.7 70 z" />
<glyph unicode="" horiz-adv-x="60.200000000000003" d="M36.1 41.7 C38 42.4 39.7 43.5 41.1 44.8 C44.1 47.5 45.6 51 45.6 55.2 C45.6 57.1 45.2 59 44.5 60.7 C44.2 61.4 43.8 62.1 43.2 63 C42.6 63.9 42 64.6 41.2 65.4 C40.5 66 39.8 66.6 38.9 67.2 C38 67.8 37 68.3 36.1 68.7 C35.1 69.1 34.2 69.3 33.1 69.5 C32 69.7 31 69.8 30 69.8 C25.6 69.8 21.9 68.3 19 65.5 C16 62.7 14.6 59.1 14.6 55 C14.6 52.9 15 50.9 15.8 49.2 C16.6 47.5 17.6 46 18.9 44.8 C20.4 43.4 22.1 42.4 24 41.7 C25.9 41 27.8 40.6 29.9 40.6 C32.1 40.6 34.2 41 36.1 41.7 zM23.5 48.9 C21.7 50.6 20.8 52.6 20.8 55 C20.8 57.5 21.7 59.7 23.5 61.4 C25.3 63.1 27.5 63.8 30.1 63.8 C31.5 63.8 32.7 63.6 33.8 63.1 C34.9 62.6 36 62 36.7 61.3 C38.5 59.6 39.4 57.5 39.4 55.1 C39.4 54 39.2 53 38.8 51.9 C38.4 50.8 37.6 49.9 36.7 49 C35.9 48.2 34.9 47.6 33.7 47.1 C32.5 46.6 31.3 46.4 30 46.4 C27.5 46.4 25.3 47.3 23.5 48.9 z" />
<glyph unicode="" horiz-adv-x="60.200000000000003" d="M26 15.6 C28.05 15.6 32.15 15.6 34.2 15.6 C34.2 19.4 34.2 27 34.2 30.8 C39.625 30.8 50.475 30.8 55.9 30.8 C55.9 32.75 55.9 36.65 55.9 38.6 C50.475 38.6 39.625 38.6 34.2 38.6 C34.2 42.375 34.2 49.925 34.2 53.7 C32.15 53.7 28.05 53.7 26 53.7 C26 49.925 26 42.375 26 38.6 C20.575 38.6 9.725 38.6 4.3 38.6 C4.3 36.65 4.3 32.75 4.3 30.8 C9.725 30.8 20.575 30.8 26 30.8 C26 27 26 19.4 26 15.6 zM4.3 0 C17.2 0 43 0 55.9 0 C55.9 1.95 55.9 5.85 55.9 7.8 C43 7.8 17.2 7.8 4.3 7.8 C4.3 5.85 4.3 1.95 4.3 0 z" />
<glyph unicode="" horiz-adv-x="60.200000000000003" d="M15.7 51.4 C22.675 51.4 36.625 51.4 43.6 51.4 C43.6 52.7 43.6 55.3 43.6 56.6 C38.6 56.6 28.6 56.6 23.6 56.6 C26.2 59 30.5 62.9 33.9 66 C37.5 69.3 40 72.1 41.5 74.2 C42.1 75 42.5 75.9 42.8 76.7 C43.1 77.5 43.3 78.5 43.3 79.6 C43.3 81.1 43 82.6 42.3 83.9 C41.6 85.2 40.5 86.5 39.1 87.5 C36.3 89.5 32.7 90.5 28.1 90.5 C26.1 90.5 24.2 90.3 22.2 89.9 C20.3 89.5 18.2 88.8 16 87.9 C16 86 16 83.625 16 82.2 C18.1 83.3 20 84.1 21.9 84.7 C23.7 85.3 25.4 85.5 27.1 85.5 C29.7 85.5 31.8 85 33.4 83.8 C35 82.6 35.9 81.1 35.9 79.3 C35.9 77.7 35.2 76 33.9 74.1 C33.3 73.2 32.5 72.1 31.5 71.1 C30.5 70.1 29 68.6 27 66.8 C24.2 64.2 18.5 59.1 15.7 56.5 C15.7 54.8 15.7 52.675 15.7 51.4 z" />
<glyph unicode="" horiz-adv-x="60.200000000000003" d="M40.5 54 C43.6 56.1 45.1 59 45.1 62.7 C45.1 65.3 44.3 67.3 42.7 68.9 C41.1 70.6 38.8 71.7 35.7 72.3 C38.4 72.9 40.5 74 41.9 75.4 C43.3 76.8 44.1 78.6 44.1 80.8 C44.1 83.8 42.7 86.2 40 88 C37.2 89.8 33.5 90.7 28.9 90.7 C27.2 90.7 25.4 90.6 23.5 90.3 C22.6 90.1 21.6 90 20.6 89.8 C19.6 89.6 18.4 89.3 17.3 89.1 C17.3 87.23333 17.3 84.9 17.3 83.5 C18.3 83.8 19.2 84.2 20.1 84.5 C21 84.8 22 84.9 22.9 85.1 C24.7 85.5 26.3 85.7 27.9 85.7 C30.7 85.7 32.9 85.2 34.4 84.3 C36 83.3 36.7 81.9 36.7 80.2 C36.7 78.4 35.9 77 34.3 76.1 C32.7 75.1 30.4 74.6 27.4 74.6 C26.2 74.6 24.7 74.6 23.8 74.6 C23.8 73.35 23.8 70.85 23.8 69.6 C24.6 69.6 26.2 69.6 27 69.6 C30.5 69.6 33.2 69.1 35 67.9 C36.8 66.7 37.7 65 37.7 62.9 C37.7 61.7 37.4 60.8 36.9 59.9 C36.4 59 35.7 58.4 34.9 57.8 C32.9 56.5 30.3 55.9 27.1 55.9 C25.4 55.9 23.8 56.1 22.1 56.5 C21.2 56.7 20.1 57 19.1 57.3 C18.1 57.6 17 57.9 15.9 58.3 C15.9 56.46667 15.9 54.175 15.9 52.8 C16.9 52.5 17.8 52.2 18.7 52 C19.6 51.8 20.6 51.6 21.6 51.4 C22.5 51.2 23.5 51.1 24.4 51 C25.3 50.9 26.3 50.9 27.4 50.9 C33 50.9 37.4 51.9 40.5 54 z" />
<glyph unicode="" horiz-adv-x="60.200000000000003" d="M46.6 75.2 C44.175 75.2 39.325 75.2 36.9 75.2 C33.5 70.9 26.6 62.2 23.2 57.9 C25.7 57.9 28.825 57.9 30.7 57.9 C34.7 62.2 42.6 70.9 46.6 75.2 z" />
<glyph unicode="" horiz-adv-x="60.200000000000003" d="M8.1 -19.6 C10.125 -19.6 14.175 -19.6 16.2 -19.6 C16.2 -13.25 16.2 -0.55 16.2 5.8 C19 1 23.3 -1.3 29 -1.3 C32 -1.3 34.6 -0.7 36.7 0.5 C38.8 1.7 40.6 3.4 42.1 5.9 C42.5 3.5 43.4 1.8 44.6 0.5 C45.8 -0.7 47.4 -1.3 49.4 -1.3 C50.4 -1.3 51.5 -1.1 52.7 -0.8 C53.8 -0.4 55.1 0 56.3 0.7 C56.3 2.96667 56.3 5.8 56.3 7.5 C55.4 7.1 54.7 6.8 54.2 6.7 C53.6 6.5 53.2 6.5 52.9 6.5 C51.9 6.5 51.1 6.9 50.6 7.8 C50.1 8.7 49.9 9.9 49.9 11.7 C49.9 24.93333 49.9 41.475 49.9 51.4 C47.625 51.4 43.075 51.4 40.8 51.4 C40.8 43.9 40.8 28.9 40.8 21.4 C40.8 16.3 39.8 12.5 37.7 9.9 C35.6 7.3 32.5 6 28.4 6 C24.7 6 22 7.2 20 9.5 C19.1 10.6 18.3 11.9 17.8 13.5 C17.3 15.1 17 17.1 17 19.5 C17 30.13333 17 43.425 17 51.4 C14.775 51.4 10.325 51.4 8.1 51.4 C8.1 33.65 8.1 -1.85 8.1 -19.6 z" />
<glyph unicode="" horiz-adv-x="60.200000000000003" d="M27.2 -9 C28.925 -9 32.375 -9 34.1 -9 C34.1 8.975 34.1 44.925 34.1 62.9 C36.425 62.9 41.075 62.9 43.4 62.9 C43.4 44.925 43.4 8.975 43.4 -9 C45.125 -9 48.575 -9 50.3 -9 C50.3 10.375 50.3 49.125 50.3 68.5 C44.825 68.5 33.875 68.5 28.4 68.5 C21.4 68.5 15.9 66.7 11.6 63.2 C7.3 59.7 5.2 54.9 5.2 49.1 C5.2 46.2 5.7 43.6 6.7 41.4 C7.7 39.2 9 37.4 10.9 35.7 C14.7 32.3 20.2 30.3 27.2 29.8 C27.2 16.86667 27.2 0.7 27.2 -9 z" />
<glyph unicode="" horiz-adv-x="60.200000000000003" d="M35.7 28.6 C37.2 30 38 31.9 38 34.2 C38 36.5 37.2 38.4 35.7 39.8 C34.2 41.2 32.3 42 30.1 42 C27.9 42 26 41.2 24.5 39.8 C23 38.4 22.2 36.5 22.2 34.2 C22.2 31.9 23 30 24.5 28.6 C26 27.2 27.9 26.4 30.1 26.4 C32.3 26.4 34.2 27.2 35.7 28.6 z" />
<glyph unicode="" horiz-adv-x="60.200000000000003" d="M28.4 0 C29.8 -1.9 30.9 -3.5 31.6 -4.8 C32.3 -6.1 32.7 -7.3 32.7 -8.3 C32.7 -11.1 30.7 -12.5 26.7 -12.5 C24 -12.5 21.5 -12 19.3 -11 C19.3 -13 19.3 -15.5 19.3 -17 C20.7 -17.4 22.1 -17.7 23.6 -17.9 C25 -18.1 26.4 -18.1 27.8 -18.1 C29.8 -18.1 31.6 -18 33 -17.6 C34.4 -17.2 35.7 -16.8 36.6 -16.1 C38.6 -14.7 39.5 -12.7 39.5 -10.1 C39.5 -9.2 39.3 -8.3 39.1 -7.5 C38.9 -6.7 38.6 -6 38.2 -5.3 C37.3 -3.6 36 -1.8 34.2 0 C32.26667 0 29.85 0 28.4 0 z" />
<glyph unicode="" horiz-adv-x="60.200000000000003" d="M17.7 51.4 C24.45 51.4 37.95 51.4 44.7 51.4 C44.7 52.675 44.7 55.225 44.7 56.5 C42.2 56.5 37.2 56.5 34.7 56.5 C34.7 64.8 34.7 81.4 34.7 89.7 C33.025 89.7 29.675 89.7 28 89.7 C25.2 89.3 19.6 88.3 16.8 87.9 C16.8 86.13333 16.8 83.925 16.8 82.6 C19.5 83.1 25 84 27.7 84.5 C27.7 75.16667 27.7 63.5 27.7 56.5 C25.2 56.5 20.2 56.5 17.7 56.5 C17.7 55.225 17.7 52.675 17.7 51.4 z" />
<glyph unicode="" horiz-adv-x="60.200000000000003" d="M37.8 33.4 C40 34.3 41.9 35.6 43.4 37.2 C46.7 40.6 48.3 45.2 48.3 50.9 C48.3 56.6 46.7 61.2 43.4 64.6 C41.9 66.2 40 67.5 37.8 68.4 C35.6 69.3 33 69.8 30.1 69.8 C27.1 69.8 24.6 69.3 22.4 68.4 C20.2 67.5 18.3 66.2 16.8 64.6 C13.5 61.1 11.9 56.6 11.9 50.9 C11.9 47.9 12.3 45.2 13.2 42.9 C14.1 40.6 15.3 38.7 16.8 37.1 C18.3 35.6 20.2 34.4 22.3 33.5 C24.4 32.6 27 32 30.1 32 C33.1 32 35.6 32.5 37.8 33.4 zM22.3 40.9 C20.4 43.3 19.5 46.6 19.5 50.9 C19.5 55.2 20.4 58.5 22.3 60.9 C24.2 63.3 26.7 64.4 30.1 64.4 C31.9 64.4 33.4 64.1 34.7 63.5 C36 62.9 37 61.9 37.9 60.8 C39.8 58.4 40.7 55.1 40.7 50.9 C40.7 48.7 40.5 46.8 40 45.1 C39.5 43.4 38.8 42.1 37.9 41 C36 38.6 33.4 37.4 30.1 37.4 C26.8 37.4 24.2 38.6 22.3 40.9 zM13.5 21.5 C21.75 21.5 38.25 21.5 46.5 21.5 C46.5 22.925 46.5 25.775 46.5 27.2 C38.25 27.2 21.75 27.2 13.5 27.2 C13.5 25.775 13.5 22.925 13.5 21.5 z" />
<glyph unicode="" horiz-adv-x="60.200000000000003" d="M11.3 6.5 C17 11.3 28.5 20.9 34.2 25.7 C34.2 26.93333 34.2 28.475 34.2 29.4 C28.5 34.2 17 43.8 11.3 48.6 C11.3 45.66667 11.3 42 11.3 39.8 C15 36.7 22.3 30.6 26 27.5 C22.3 24.4 15 18.3 11.3 15.2 C11.3 12.3 11.3 8.675 11.3 6.5 zM33.4 6.5 C39.1 11.3 50.6 20.9 56.3 25.7 C56.3 26.93333 56.3 28.475 56.3 29.4 C50.6 34.2 39.1 43.8 33.4 48.6 C33.4 45.66667 33.4 42 33.4 39.8 C37.1 36.7 44.4 30.6 48.1 27.5 C44.4 24.4 37.1 18.3 33.4 15.2 C33.4 12.3 33.4 8.675 33.4 6.5 z" />
<glyph unicode="" horiz-adv-x="60.200000000000003" d="M5.1 37.8 C11.85 37.8 25.35 37.8 32.1 37.8 C32.1 39.075 32.1 41.625 32.1 42.9 C29.6 42.9 24.6 42.9 22.1 42.9 C22.1 51.2 22.1 67.8 22.1 76.1 C20.425 76.1 17.075 76.1 15.4 76.1 C12.6 75.7 7 74.8 4.2 74.4 C4.2 72.6 4.2 70.35 4.2 69 C6.9 69.5 12.4 70.4 15.1 70.9 C15.1 61.56667 15.1 49.9 15.1 42.9 C12.6 42.9 7.6 42.9 5.1 42.9 C5.1 41.625 5.1 39.075 5.1 37.8 zM2.5 23.1 C15.5 26.1 41.4 32.2 54.4 35.2 C54.1 36.4 53.4 38.9 53.1 40.1 C40.2 37.1 14.2 31.1 1.3 28.1 C1.6 26.9 2.2 24.3 2.5 23.1 zM41 -12.4 C42.675 -12.4 46.025 -12.4 47.7 -12.4 C47.7 -10.275 47.7 -6.025 47.7 -3.9 C49.125 -3.9 51.975 -3.9 53.4 -3.9 C53.4 -2.625 53.4 -0.075 53.4 1.2 C51.975 1.2 49.125 1.2 47.7 1.2 C47.7 7.375 47.7 19.725 47.7 25.9 C45.725 25.9 41.775 25.9 39.8 25.9 C35.4 19.8 26.5 7.8 22.1 1.7 C22.1 -0.16667 22.1 -2.5 22.1 -3.9 C26.825 -3.9 36.275 -3.9 41 -3.9 C41 -6.025 41 -10.275 41 -12.4 zM27.6 1.2 C30.9 5.9 37.7 15.5 41 20.2 C41 13.86667 41 5.95 41 1.2 C37.65 1.2 30.95 1.2 27.6 1.2 z" />
<glyph unicode="" horiz-adv-x="60.200000000000003" d="M5.1 37.8 C11.85 37.8 25.35 37.8 32.1 37.8 C32.1 39.075 32.1 41.625 32.1 42.9 C29.6 42.9 24.6 42.9 22.1 42.9 C22.1 51.2 22.1 67.8 22.1 76.1 C20.425 76.1 17.075 76.1 15.4 76.1 C12.6 75.7 7 74.8 4.2 74.4 C4.2 72.6 4.2 70.35 4.2 69 C6.9 69.5 12.4 70.4 15.1 70.9 C15.1 61.56667 15.1 49.9 15.1 42.9 C12.6 42.9 7.6 42.9 5.1 42.9 C5.1 41.625 5.1 39.075 5.1 37.8 zM2.5 23.1 C15.5 26.1 41.4 32.2 54.4 35.2 C54.1 36.4 53.4 38.9 53.1 40.1 C40.2 37.1 14.2 31.1 1.3 28.1 C1.6 26.9 2.2 24.3 2.5 23.1 zM25.5 -12.4 C32.475 -12.4 46.425 -12.4 53.4 -12.4 C53.4 -11.1 53.4 -8.5 53.4 -7.2 C48.4 -7.2 38.4 -7.2 33.4 -7.2 C36 -4.8 40.3 -0.9 43.7 2.2 C47.3 5.5 49.8 8.3 51.3 10.4 C51.9 11.2 52.3 12.1 52.6 12.9 C52.9 13.7 53.1 14.7 53.1 15.8 C53.1 17.3 52.8 18.8 52.1 20.1 C51.4 21.4 50.3 22.7 48.9 23.7 C46.1 25.7 42.4 26.7 37.9 26.7 C35.9 26.7 34 26.5 32 26.1 C30.1 25.7 28 25 25.8 24.1 C25.8 22.2 25.8 19.825 25.8 18.4 C27.9 19.5 29.8 20.3 31.7 20.9 C33.5 21.5 35.2 21.7 36.9 21.7 C39.5 21.7 41.7 21.2 43.3 20 C44.9 18.8 45.7 17.3 45.7 15.5 C45.7 13.9 45.1 12.2 43.8 10.3 C43.1 9.4 42.3 8.3 41.3 7.3 C40.3 6.3 38.8 4.8 36.8 3 C34 0.4 28.3 -4.7 25.5 -7.3 C25.5 -9 25.5 -11.125 25.5 -12.4 z" />
<glyph unicode="" horiz-adv-x="60.200000000000003" d="M29.4 40.2 C32.5 42.3 34 45.2 34 48.9 C34 51.5 33.2 53.5 31.6 55.1 C30 56.8 27.7 58 24.6 58.6 C27.3 59.2 29.5 60.2 30.9 61.6 C32.3 63 33 64.8 33 67 C33 70 31.6 72.4 28.9 74.2 C26.1 76 22.4 76.9 17.8 76.9 C16.1 76.9 14.4 76.8 12.5 76.5 C11.6 76.3 10.5 76.2 9.5 76 C8.5 75.8 7.3 75.5 6.2 75.3 C6.2 73.46667 6.2 71.175 6.2 69.8 C7.2 70.1 8.2 70.4 9.1 70.7 C10 71 10.9 71.2 11.8 71.4 C13.6 71.8 15.3 71.9 16.8 71.9 C19.6 71.9 21.8 71.4 23.3 70.5 C24.9 69.5 25.6 68.1 25.6 66.4 C25.6 64.6 24.8 63.2 23.2 62.3 C21.6 61.3 19.3 60.8 16.3 60.8 C15.1 60.8 13.6 60.8 12.7 60.8 C12.7 59.575 12.7 57.125 12.7 55.9 C13.5 55.9 15.1 55.9 15.9 55.9 C19.4 55.9 22.1 55.3 23.9 54.1 C25.7 52.9 26.6 51.3 26.6 49.2 C26.6 48 26.3 47 25.8 46.1 C25.3 45.2 24.6 44.6 23.8 44 C21.8 42.7 19.3 42.1 16.1 42.1 C14.4 42.1 12.7 42.3 11 42.7 C10.1 42.9 9.1 43.2 8.1 43.5 C7.1 43.8 5.9 44.2 4.8 44.6 C4.8 42.73333 4.8 40.4 4.8 39 C5.8 38.7 6.7 38.4 7.6 38.2 C8.5 38 9.5 37.8 10.5 37.6 C11.4 37.4 12.4 37.4 13.3 37.3 C14.2 37.2 15.3 37.1 16.4 37.1 C22 37.1 26.3 38.1 29.4 40.2 zM2.5 23.1 C15.5 26.1 41.4 32.2 54.4 35.2 C54.1 36.4 53.4 38.9 53.1 40.1 C40.2 37.1 14.2 31.1 1.3 28.1 C1.6 26.9 2.2 24.3 2.5 23.1 zM41 -12.4 C42.675 -12.4 46.025 -12.4 47.7 -12.4 C47.7 -10.275 47.7 -6.025 47.7 -3.9 C49.125 -3.9 51.975 -3.9 53.4 -3.9 C53.4 -2.625 53.4 -0.075 53.4 1.2 C51.975 1.2 49.125 1.2 47.7 1.2 C47.7 7.375 47.7 19.725 47.7 25.9 C45.725 25.9 41.775 25.9 39.8 25.9 C35.4 19.8 26.5 7.8 22.1 1.7 C22.1 -0.16667 22.1 -2.5 22.1 -3.9 C26.825 -3.9 36.275 -3.9 41 -3.9 C41 -6.025 41 -10.275 41 -12.4 zM27.6 1.2 C30.9 5.9 37.7 15.5 41 20.2 C41 13.86667 41 5.95 41 1.2 C37.65 1.2 30.95 1.2 27.6 1.2 z" />
<glyph unicode="" horiz-adv-x="60.200000000000003" d="M37.1 59.4 C38.5 60.7 39.1 62.4 39.1 64.5 C39.1 66.6 38.5 68.2 37.1 69.5 C35.7 70.8 34 71.4 32 71.4 C30.9 71.4 29.9 71.2 29 70.8 C28.1 70.4 27.5 70 26.9 69.5 C25.5 68.2 24.9 66.6 24.9 64.5 C24.9 62.4 25.6 60.7 27 59.4 C28.4 58.1 30 57.5 32 57.5 C34 57.5 35.7 58.1 37.1 59.4 zM34.3 -0.9 C35.9 -0.7 37.5 -0.4 39.1 0 C40.5 0.4 41.9 1 43.5 1.6 C45.1 2.2 46.7 3 48.3 3.9 C48.3 6.8 48.3 10.425 48.3 12.6 C45.1 10.5 42.1 8.9 39.2 7.9 C37.7 7.4 36.3 7 35 6.7 C33.7 6.4 32.3 6.3 30.9 6.3 C27.4 6.3 24.6 7.1 22.5 8.8 C21.6 9.5 20.8 10.5 20.2 11.6 C19.6 12.7 19.3 13.9 19.3 15.2 C19.3 15.8 19.3 16.6 19.5 17.4 C19.7 18.2 20 19 20.4 19.7 C20.9 20.5 21.6 21.3 22.4 22.2 C23.2 23.1 23.9 23.8 24.6 24.4 C27.5 27.1 27.5 27.1 29 28.5 C31.7 31 33.6 33.3 34.6 35.4 C35.6 37.5 36.1 40.1 36.1 43.1 C36.1 45.43333 36.1 48.35 36.1 50.1 C33.775 50.1 29.125 50.1 26.8 50.1 C26.8 48.7 26.8 45.9 26.8 44.5 C26.8 44.25 26.8 43.75 26.8 43.5 C26.8 43.2 26.7 42.8 26.7 42.5 C26.7 42.43333 26.7 42.35 26.7 42.3 C26.7 40.3 26.4 38.7 25.8 37.5 C25.4 36.7 24.8 36 24.1 35.2 C23.4 34.4 22.6 33.5 21.6 32.6 C18.7 30 18.7 30 17.3 28.7 C15.2 26.8 13.6 25 12.5 23.6 C11.4 22.2 10.5 20.8 10.1 19.4 C9.7 18 9.4 16.6 9.4 14.9 C9.4 10 11.2 6.1 14.8 3.1 C18.4 0.2 23.3 -1.2 29.4 -1.2 C31 -1.2 32.7 -1.1 34.3 -0.9 z" />
<glyph unicode="" horiz-adv-x="60.200000000000003" d="M28.6 72.7 C30.475 72.7 34.225 72.7 36.1 72.7 C33.7 75.7 28.9 81.9 26.5 84.9 C23.5 84.9 19.75 84.9 17.5 84.9 C20.3 81.9 25.8 75.7 28.6 72.7 zM1.8 0 C4.35 0 9.45 0 12 0 C13.3 4.5 16 13.4 17.3 17.9 C25.8 17.9 36.425 17.9 42.8 17.9 C44.1 13.4 46.9 4.5 48.2 0 C51.6 0 55.85 0 58.4 0 C52.8 17.1 41.7 51.4 36.1 68.5 C32.1 68.5 27.1 68.5 24.1 68.5 C18.5 51.4 7.4 17.1 1.8 0 zM19.7 25.3 C22.3 34.1 27.5 51.6 30.1 60.4 C32.7 51.6 37.9 34.1 40.5 25.3 C33.56667 25.3 24.9 25.3 19.7 25.3 z" />
<glyph unicode="" horiz-adv-x="60.200000000000003" d="M24.1 73.1 C25.975 73.1 29.725 73.1 31.6 73.1 C34.4 76.1 40 82.2 42.8 85.2 C39.76667 85.2 35.975 85.2 33.7 85.2 C31.3 82.2 26.5 76.1 24.1 73.1 zM1.8 0 C4.35 0 9.45 0 12 0 C13.3 4.5 16 13.4 17.3 17.9 C25.8 17.9 36.425 17.9 42.8 17.9 C44.1 13.4 46.9 4.5 48.2 0 C51.6 0 55.85 0 58.4 0 C52.8 17.1 41.7 51.4 36.1 68.5 C32.1 68.5 27.1 68.5 24.1 68.5 C18.5 51.4 7.4 17.1 1.8 0 zM19.7 25.3 C22.3 34.1 27.5 51.6 30.1 60.4 C32.7 51.6 37.9 34.1 40.5 25.3 C33.56667 25.3 24.9 25.3 19.7 25.3 z" />
<glyph unicode="" horiz-adv-x="60.200000000000003" d="M15.2 72.8 C16.9 72.8 20.3 72.8 22 72.8 C24 74.8 28.1 79 30.1 81 C32.1 79 36.2 74.8 38.2 72.8 C40.46667 72.8 43.3 72.8 45 72.8 C42.4 75.9 37.3 81.9 34.7 85 C31.63333 85 27.8 85 25.5 85 C22.9 81.9 17.8 75.9 15.2 72.8 zM1.8 0 C4.35 0 9.45 0 12 0 C13.3 4.5 16 13.4 17.3 17.9 C25.8 17.9 36.425 17.9 42.8 17.9 C44.1 13.4 46.9 4.5 48.2 0 C51.6 0 55.85 0 58.4 0 C52.8 17.1 41.7 51.4 36.1 68.5 C32.1 68.5 27.1 68.5 24.1 68.5 C18.5 51.4 7.4 17.1 1.8 0 zM19.7 25.3 C22.3 34.1 27.5 51.6 30.1 60.4 C32.7 51.6 37.9 34.1 40.5 25.3 C33.56667 25.3 24.9 25.3 19.7 25.3 z" />
<glyph unicode="" horiz-adv-x="60.200000000000003" d="M20.1 72.8 C20.1 72.875 20.1 73.025 20.1 73.1 C20.1 74.4 20.4 75.5 21.1 76.3 C21.7 77.1 22.6 77.5 23.7 77.5 C24.2 77.5 24.6 77.4 25.1 77.2 C25.4 77.1 25.775 76.975 26 76.9 C26.3 76.8 26.7 76.5 27.1 76.3 C29 75.3 29 75.3 29.9 74.8 C30.9 74.3 31.7 73.9 32.3 73.7 C32.9 73.5 33.4 73.3 33.9 73.2 C35 73 36.1 72.8 37 72.8 C39.8 72.8 41.9 73.8 43.6 75.6 C45.3 77.4 46.1 79.8 46.2 82.9 C44.16667 82.9 41.625 82.9 40.1 82.9 C40.1 82.825 40.1 82.675 40.1 82.6 C40.1 81.4 39.8 80.4 39.1 79.6 C38.4 78.8 37.6 78.4 36.6 78.4 C36.1 78.4 35.6 78.5 35.1 78.7 C34.4 78.9 33.8 79.1 33.1 79.5 C31.2 80.4 31.2 80.4 30.3 80.9 C28.6 81.8 27.4 82.3 26.5 82.5 C25.3 82.7 24.1 82.9 23.2 82.9 C20.4 82.9 18.3 82 16.6 80.2 C15.7 79.2 15 78.1 14.6 76.9 C14.2 75.7 14 74.3 14 72.8 C16.03333 72.8 18.575 72.8 20.1 72.8 zM1.8 0 C4.35 0 9.45 0 12 0 C13.3 4.5 16 13.4 17.3 17.9 C25.8 17.9 36.425 17.9 42.8 17.9 C44.1 13.4 46.9 4.5 48.2 0 C51.6 0 55.85 0 58.4 0 C52.8 17.1 41.7 51.4 36.1 68.5 C32.1 68.5 27.1 68.5 24.1 68.5 C18.5 51.4 7.4 17.1 1.8 0 zM19.7 25.3 C22.3 34.1 27.5 51.6 30.1 60.4 C32.7 51.6 37.9 34.1 40.5 25.3 C33.56667 25.3 24.9 25.3 19.7 25.3 z" />
<glyph unicode="" horiz-adv-x="60.200000000000003" d="M24 75.6 C25 75.6 25.5 76.1 25.5 77 C25.5 79.16667 25.5 81.875 25.5 83.5 C25.5 84.4 25 84.9 24 84.9 C21.66667 84.9 18.75 84.9 17 84.9 C16 84.9 15.6 84.4 15.6 83.5 C15.6 81.33333 15.6 78.625 15.6 77 C15.6 76.1 16 75.6 17 75.6 C19.33333 75.6 22.25 75.6 24 75.6 zM43.1 75.6 C44.1 75.6 44.6 76.1 44.6 77 C44.6 79.16667 44.6 81.875 44.6 83.5 C44.6 84.4 44.1 84.9 43.1 84.9 C40.8 84.9 37.925 84.9 36.2 84.9 C35.2 84.9 34.7 84.4 34.7 83.5 C34.7 81.33333 34.7 78.625 34.7 77 C34.7 76.1 35.2 75.6 36.2 75.6 C38.5 75.6 41.375 75.6 43.1 75.6 zM1.8 0 C4.35 0 9.45 0 12 0 C13.3 4.5 16 13.4 17.3 17.9 C25.8 17.9 36.425 17.9 42.8 17.9 C44.1 13.4 46.9 4.5 48.2 0 C51.6 0 55.85 0 58.4 0 C52.8 17.1 41.7 51.4 36.1 68.5 C32.1 68.5 27.1 68.5 24.1 68.5 C18.5 51.4 7.4 17.1 1.8 0 zM19.7 25.3 C22.3 34.1 27.5 51.6 30.1 60.4 C32.7 51.6 37.9 34.1 40.5 25.3 C33.56667 25.3 24.9 25.3 19.7 25.3 z" />
<glyph unicode="" horiz-adv-x="60.200000000000003" d="M1.8 0 C4.35 0 9.45 0 12 0 C13.3 4.5 16 13.4 17.3 17.9 C25.8 17.9 36.425 17.9 42.8 17.9 C44.1 13.4 46.9 4.5 48.2 0 C51.6 0 55.85 0 58.4 0 C53.2 16.1 44.5 42.8 37.5 64.2 C39.5 65.4 40.9 66.9 41.9 68.6 C42.9 70.4 43.5 72.4 43.5 74.6 C43.5 76.5 43.1 78.2 42.4 79.7 C41.7 81.2 40.7 82.5 39.6 83.6 C38.4 84.7 37 85.6 35.4 86.3 C33.8 87 32 87.3 30.1 87.3 C27.6 87.3 25.3 86.7 23.3 85.6 C21.3 84.5 19.7 83 18.5 81.1 C17.3 79.2 16.7 77 16.7 74.6 C16.7 72.3 17.2 70.3 18.3 68.5 C19.3 66.7 20.8 65.2 22.7 64.2 C17.5 48.1 7 16.1 1.8 0 zM24.9 69.7 C23.5 71 22.7 72.7 22.7 74.6 C22.7 76.6 23.5 78.3 24.9 79.6 C26.3 80.9 27.9 81.6 30 81.6 C30.9 81.6 31.9 81.4 32.8 81.1 C33.7 80.8 34.7 80.3 35.4 79.6 C36.8 78.3 37.5 76.6 37.5 74.6 C37.5 72.7 36.8 71 35.4 69.7 C34 68.4 32.2 67.7 30.1 67.7 C28 67.7 26.3 68.4 24.9 69.7 zM19.7 25.3 C22.3 34 27.5 51.5 30.1 60.2 C32.7 51.5 37.9 34 40.5 25.3 C33.56667 25.3 24.9 25.3 19.7 25.3 z" />
<glyph unicode="" horiz-adv-x="60.200000000000003" d="M0 0 C2.25 0 6.75 0 9 0 C10.2 4.4 12.7 13.2 13.9 17.6 C19.63333 17.6 26.8 17.6 31.1 17.6 C31.1 13.2 31.1 4.4 31.1 0 C37.725 0 50.975 0 57.6 0 C57.6 1.95 57.6 5.85 57.6 7.8 C53.25 7.8 44.55 7.8 40.2 7.8 C40.2 14 40.2 26.4 40.2 32.6 C43.95 32.6 51.45 32.6 55.2 32.6 C55.2 34.55 55.2 38.45 55.2 40.4 C51.45 40.4 43.95 40.4 40.2 40.4 C40.2 45.475 40.2 55.625 40.2 60.7 C44.325 60.7 52.575 60.7 56.7 60.7 C56.7 62.65 56.7 66.55 56.7 68.5 C47.525 68.5 29.175 68.5 20 68.5 C15 51.4 5 17.1 0 0 zM16 25.3 C18.5 34.2 23.4 51.8 25.9 60.7 C27.63333 60.7 29.8 60.7 31.1 60.7 C31.1 51.85 31.1 34.15 31.1 25.3 C27.325 25.3 19.775 25.3 16 25.3 z" />
<glyph unicode="" horiz-adv-x="60.200000000000003" d="M44.6 60.8 C47.4 59.8 50 58.4 52.4 56.5 C52.4 59.66667 52.4 63.625 52.4 66 C49.8 67.3 47.3 68.2 44.7 68.8 C42.1 69.4 39.2 69.8 36.2 69.8 C27 69.8 19.8 66.6 14.6 60.4 C12 57.2 10 53.5 8.7 49.1 C7.4 44.7 6.8 39.6 6.8 34.1 C6.8 22.9 9.4 14.3 14.5 8 C19.2 2.3 25.8 -0.8 34.2 -1.3 C34.7 -2 35.2 -2.6 35.6 -3.2 C36 -3.8 36.2 -4.3 36.5 -4.8 C37.2 -6.1 37.6 -7.3 37.6 -8.3 C37.6 -11.1 35.5 -12.5 31.5 -12.5 C28.8 -12.5 26.4 -12 24.2 -11 C24.2 -13 24.2 -15.5 24.2 -17 C25.6 -17.4 27 -17.7 28.5 -17.9 C29.9 -18.1 31.3 -18.1 32.7 -18.1 C34.7 -18.1 36.5 -18 37.9 -17.6 C39.3 -17.2 40.6 -16.8 41.5 -16.1 C43.5 -14.7 44.4 -12.7 44.4 -10.1 C44.4 -9.2 44.2 -8.3 44 -7.5 C43.8 -6.7 43.5 -6 43.1 -5.3 C42.5 -4.1 41.5 -2.7 40.1 -1.1 C40.9 -1 41.9 -0.875 42.5 -0.8 C43.3 -0.7 44 -0.6 44.7 -0.4 C47.3 0.2 49.8 1.1 52.4 2.4 C52.4 5.56667 52.4 9.525 52.4 11.9 C50 10 47.4 8.7 44.7 7.7 C41.9 6.7 39 6.2 36.2 6.2 C32.9 6.2 30.1 6.8 27.7 8 C25.3 9.2 23.4 11 21.9 13.2 C18.7 17.9 17.1 24.8 17.1 34.2 C17.1 43.6 18.7 50.6 21.9 55.3 C25.1 60 29.9 62.2 36.2 62.2 C39 62.2 41.8 61.8 44.6 60.8 z" />
<glyph unicode="" horiz-adv-x="60.200000000000003" d="M30.4 73.1 C32.275 73.1 36.025 73.1 37.9 73.1 C35.5 76.1 30.7 82.2 28.3 85.2 C25.3 85.2 21.55 85.2 19.3 85.2 C22.1 82.2 27.6 76.1 30.4 73.1 zM9.6 0 C20.65 0 42.75 0 53.8 0 C53.8 1.95 53.8 5.85 53.8 7.8 C45.225 7.8 28.075 7.8 19.5 7.8 C19.5 14 19.5 26.4 19.5 32.6 C27.475 32.6 43.425 32.6 51.4 32.6 C51.4 34.55 51.4 38.45 51.4 40.4 C43.425 40.4 27.475 40.4 19.5 40.4 C19.5 45.475 19.5 55.625 19.5 60.7 C27.85 60.7 44.55 60.7 52.9 60.7 C52.9 62.65 52.9 66.55 52.9 68.5 C42.075 68.5 20.425 68.5 9.6 68.5 C9.6 51.375 9.6 17.125 9.6 0 z" />
<glyph unicode="" horiz-adv-x="60.200000000000003" d="M24.1 73.1 C25.975 73.1 29.725 73.1 31.6 73.1 C34.4 76.1 40 82.2 42.8 85.2 C39.76667 85.2 35.975 85.2 33.7 85.2 C31.3 82.2 26.5 76.1 24.1 73.1 zM9.6 0 C20.65 0 42.75 0 53.8 0 C53.8 1.95 53.8 5.85 53.8 7.8 C45.225 7.8 28.075 7.8 19.5 7.8 C19.5 14 19.5 26.4 19.5 32.6 C27.475 32.6 43.425 32.6 51.4 32.6 C51.4 34.55 51.4 38.45 51.4 40.4 C43.425 40.4 27.475 40.4 19.5 40.4 C19.5 45.475 19.5 55.625 19.5 60.7 C27.85 60.7 44.55 60.7 52.9 60.7 C52.9 62.65 52.9 66.55 52.9 68.5 C42.075 68.5 20.425 68.5 9.6 68.5 C9.6 51.375 9.6 17.125 9.6 0 z" />
<glyph unicode="" horiz-adv-x="60.200000000000003" d="M16.1 72.8 C17.8 72.8 21.2 72.8 22.9 72.8 C24.9 74.8 29 79 31 81 C33 79 37.1 74.8 39.1 72.8 C41.36667 72.8 44.2 72.8 45.9 72.8 C43.3 75.9 38.2 81.9 35.6 85 C32.53333 85 28.7 85 26.4 85 C23.8 81.9 18.7 75.9 16.1 72.8 zM9.6 0 C20.65 0 42.75 0 53.8 0 C53.8 1.95 53.8 5.85 53.8 7.8 C45.225 7.8 28.075 7.8 19.5 7.8 C19.5 14 19.5 26.4 19.5 32.6 C27.475 32.6 43.425 32.6 51.4 32.6 C51.4 34.55 51.4 38.45 51.4 40.4 C43.425 40.4 27.475 40.4 19.5 40.4 C19.5 45.475 19.5 55.625 19.5 60.7 C27.85 60.7 44.55 60.7 52.9 60.7 C52.9 62.65 52.9 66.55 52.9 68.5 C42.075 68.5 20.425 68.5 9.6 68.5 C9.6 51.375 9.6 17.125 9.6 0 z" />
<glyph unicode="" horiz-adv-x="60.200000000000003" d="M24.9 75.6 C25.9 75.6 26.4 76.1 26.4 77 C26.4 79.16667 26.4 81.875 26.4 83.5 C26.4 84.4 25.9 84.9 24.9 84.9 C22.56667 84.9 19.65 84.9 17.9 84.9 C16.9 84.9 16.5 84.4 16.5 83.5 C16.5 81.33333 16.5 78.625 16.5 77 C16.5 76.1 16.9 75.6 17.9 75.6 C20.23333 75.6 23.15 75.6 24.9 75.6 zM44 75.6 C45 75.6 45.5 76.1 45.5 77 C45.5 79.16667 45.5 81.875 45.5 83.5 C45.5 84.4 45 84.9 44 84.9 C41.7 84.9 38.825 84.9 37.1 84.9 C36.1 84.9 35.6 84.4 35.6 83.5 C35.6 81.33333 35.6 78.625 35.6 77 C35.6 76.1 36.1 75.6 37.1 75.6 C39.4 75.6 42.275 75.6 44 75.6 zM9.6 0 C20.65 0 42.75 0 53.8 0 C53.8 1.95 53.8 5.85 53.8 7.8 C45.225 7.8 28.075 7.8 19.5 7.8 C19.5 14 19.5 26.4 19.5 32.6 C27.475 32.6 43.425 32.6 51.4 32.6 C51.4 34.55 51.4 38.45 51.4 40.4 C43.425 40.4 27.475 40.4 19.5 40.4 C19.5 45.475 19.5 55.625 19.5 60.7 C27.85 60.7 44.55 60.7 52.9 60.7 C52.9 62.65 52.9 66.55 52.9 68.5 C42.075 68.5 20.425 68.5 9.6 68.5 C9.6 51.375 9.6 17.125 9.6 0 z" />
<glyph unicode="" horiz-adv-x="60.200000000000003" d="M29.2 73.1 C31.1 73.1 34.9 73.1 36.8 73.1 C34.4 76.1 29.5 82.2 27.1 85.2 C24.13333 85.2 20.425 85.2 18.2 85.2 C21 82.2 26.4 76.1 29.2 73.1 zM9.8 0 C19.925 0 40.175 0 50.3 0 C50.3 1.95 50.3 5.85 50.3 7.8 C46.475 7.8 38.825 7.8 35 7.8 C35 21.025 35 47.475 35 60.7 C38.825 60.7 46.475 60.7 50.3 60.7 C50.3 62.65 50.3 66.55 50.3 68.5 C40.175 68.5 19.925 68.5 9.8 68.5 C9.8 66.55 9.8 62.65 9.8 60.7 C13.625 60.7 21.275 60.7 25.1 60.7 C25.1 47.475 25.1 21.025 25.1 7.8 C21.275 7.8 13.625 7.8 9.8 7.8 C9.8 5.85 9.8 1.95 9.8 0 z" />
<glyph unicode="" horiz-adv-x="60.200000000000003" d="M24.1 73.1 C25.975 73.1 29.725 73.1 31.6 73.1 C34.4 76.1 40 82.2 42.8 85.2 C39.76667 85.2 35.975 85.2 33.7 85.2 C31.3 82.2 26.5 76.1 24.1 73.1 zM9.8 0 C19.925 0 40.175 0 50.3 0 C50.3 1.95 50.3 5.85 50.3 7.8 C46.475 7.8 38.825 7.8 35 7.8 C35 21.025 35 47.475 35 60.7 C38.825 60.7 46.475 60.7 50.3 60.7 C50.3 62.65 50.3 66.55 50.3 68.5 C40.175 68.5 19.925 68.5 9.8 68.5 C9.8 66.55 9.8 62.65 9.8 60.7 C13.625 60.7 21.275 60.7 25.1 60.7 C25.1 47.475 25.1 21.025 25.1 7.8 C21.275 7.8 13.625 7.8 9.8 7.8 C9.8 5.85 9.8 1.95 9.8 0 z" />
<glyph unicode="" horiz-adv-x="60.200000000000003" d="M15.1 72.8 C16.825 72.8 20.275 72.8 22 72.8 C24 74.8 28 79 30 81 C32 79 36.1 74.8 38.1 72.8 C40.4 72.8 43.275 72.8 45 72.8 C42.4 75.9 37.3 81.9 34.7 85 C31.6 85 27.725 85 25.4 85 C22.8 81.9 17.7 75.9 15.1 72.8 zM9.8 0 C19.925 0 40.175 0 50.3 0 C50.3 1.95 50.3 5.85 50.3 7.8 C46.475 7.8 38.825 7.8 35 7.8 C35 21.025 35 47.475 35 60.7 C38.825 60.7 46.475 60.7 50.3 60.7 C50.3 62.65 50.3 66.55 50.3 68.5 C40.175 68.5 19.925 68.5 9.8 68.5 C9.8 66.55 9.8 62.65 9.8 60.7 C13.625 60.7 21.275 60.7 25.1 60.7 C25.1 47.475 25.1 21.025 25.1 7.8 C21.275 7.8 13.625 7.8 9.8 7.8 C9.8 5.85 9.8 1.95 9.8 0 z" />
<glyph unicode="" horiz-adv-x="60.200000000000003" d="M24 75.6 C25 75.6 25.5 76.1 25.5 77 C25.5 79.16667 25.5 81.875 25.5 83.5 C25.5 84.4 25 84.9 24 84.9 C21.66667 84.9 18.75 84.9 17 84.9 C16 84.9 15.6 84.4 15.6 83.5 C15.6 81.33333 15.6 78.625 15.6 77 C15.6 76.1 16 75.6 17 75.6 C19.33333 75.6 22.25 75.6 24 75.6 zM43.1 75.6 C44.1 75.6 44.6 76.1 44.6 77 C44.6 79.16667 44.6 81.875 44.6 83.5 C44.6 84.4 44.1 84.9 43.1 84.9 C40.8 84.9 37.925 84.9 36.2 84.9 C35.2 84.9 34.7 84.4 34.7 83.5 C34.7 81.33333 34.7 78.625 34.7 77 C34.7 76.1 35.2 75.6 36.2 75.6 C38.5 75.6 41.375 75.6 43.1 75.6 zM9.8 0 C19.925 0 40.175 0 50.3 0 C50.3 1.95 50.3 5.85 50.3 7.8 C46.475 7.8 38.825 7.8 35 7.8 C35 21.025 35 47.475 35 60.7 C38.825 60.7 46.475 60.7 50.3 60.7 C50.3 62.65 50.3 66.55 50.3 68.5 C40.175 68.5 19.925 68.5 9.8 68.5 C9.8 66.55 9.8 62.65 9.8 60.7 C13.625 60.7 21.275 60.7 25.1 60.7 C25.1 47.475 25.1 21.025 25.1 7.8 C21.275 7.8 13.625 7.8 9.8 7.8 C9.8 5.85 9.8 1.95 9.8 0 z" />
<glyph unicode="" horiz-adv-x="60.200000000000003" d="M6.5 0 C10.2 0 17.6 0 21.3 0 C26.8 0 31.6 0.6 35.7 2 C39.8 3.4 43.2 5.6 45.9 8.4 C51.2 14 53.8 22.5 53.8 34.2 C53.8 45.9 51.2 54.6 45.9 60.2 C40.6 65.8 32.4 68.5 21.3 68.5 C16.36667 68.5 10.2 68.5 6.5 68.5 C6.5 61.225 6.5 46.675 6.5 39.4 C4.975 39.4 1.925 39.4 0.4 39.4 C0.4 37.675 0.4 34.225 0.4 32.5 C1.925 32.5 4.975 32.5 6.5 32.5 C6.5 24.375 6.5 8.125 6.5 0 zM16.6 7.6 C16.6 13.825 16.6 26.275 16.6 32.5 C19.825 32.5 26.275 32.5 29.5 32.5 C29.5 34.225 29.5 37.675 29.5 39.4 C26.275 39.4 19.825 39.4 16.6 39.4 C16.6 44.775 16.6 55.525 16.6 60.9 C17.775 60.9 20.125 60.9 21.3 60.9 C25.5 60.9 29.1 60.4 31.9 59.5 C34.7 58.6 37 57.2 38.7 55.1 C40.3 53.1 41.6 50.5 42.4 47.3 C43.2 44.1 43.6 39.7 43.6 34.3 C43.6 29.1 43.2 24.9 42.4 21.5 C41.6 18.1 40.3 15.4 38.6 13.4 C37 11.5 34.8 10.1 32.1 9.1 C29.4 8.1 25.8 7.6 21.3 7.6 C19.73333 7.6 17.775 7.6 16.6 7.6 z" />
<glyph unicode="" horiz-adv-x="60.200000000000003" d="M20.1 75 C20.1 75.05 20.1 75.15 20.1 75.2 C20.1 76.5 20.4 77.6 21.1 78.4 C21.7 79.2 22.6 79.6 23.7 79.6 C24.2 79.6 24.6 79.6 25.1 79.4 C25.4 79.3 25.7 79.1 26 79 C26.3 78.9 26.7 78.6 27.1 78.4 C29 77.4 29 77.4 29.9 76.9 C30.9 76.4 31.7 76 32.3 75.8 C32.9 75.6 33.4 75.4 33.9 75.3 C35 75.1 36.1 75 37 75 C39.8 75 41.9 75.9 43.6 77.7 C45.3 79.5 46.1 81.9 46.2 85 C44.16667 85 41.625 85 40.1 85 C40.1 84.925 40.1 84.775 40.1 84.7 C40.1 83.5 39.8 82.5 39.1 81.7 C38.4 80.9 37.6 80.5 36.6 80.5 C36.1 80.5 35.6 80.6 35.1 80.8 C34.4 81 33.8 81.3 33.1 81.7 C31.2 82.6 31.2 82.5 30.3 83 C28.6 83.9 27.4 84.4 26.5 84.6 C25.3 84.8 24.1 85 23.2 85 C20.4 85 18.3 84.1 16.6 82.3 C15.7 81.3 15 80.2 14.6 79 C14.2 77.8 14 76.5 14 75 C16.03333 75 18.575 75 20.1 75 zM6.8 0 C9.175 0 13.925 0 16.3 0 C16.3 14.1 16.3 42.3 16.3 56.4 C22.5 42.3 34.7 14.1 40.9 0 C45.06667 0 50.275 0 53.4 0 C53.4 17.125 53.4 51.375 53.4 68.5 C51.025 68.5 46.275 68.5 43.9 68.5 C43.9 54.4 43.9 26.2 43.9 12.1 C37.7 26.2 25.5 54.4 19.3 68.5 C15.13333 68.5 9.925 68.5 6.8 68.5 C6.8 51.375 6.8 17.125 6.8 0 z" />
<glyph unicode="" horiz-adv-x="60.200000000000003" d="M29.7 73.1 C31.6 73.1 35.4 73.1 37.3 73.1 C34.9 76.1 30 82.2 27.6 85.2 C24.63333 85.2 20.925 85.2 18.7 85.2 C21.5 82.2 26.9 76.1 29.7 73.1 zM40.7 0.8 C43.8 2.2 46.4 4.4 48.5 7.5 C52.5 13.4 54.5 22.3 54.5 34.2 C54.5 46.2 52.5 55.1 48.5 61 C46.4 64.1 43.8 66.3 40.7 67.7 C37.6 69.1 34.1 69.8 30.1 69.8 C22 69.8 15.9 66.9 11.8 61 C7.8 55.2 5.7 46.2 5.7 34.2 C5.7 22.2 7.7 13.2 11.7 7.4 C15.7 1.6 21.9 -1.3 30.1 -1.3 C34.1 -1.3 37.6 -0.6 40.7 0.8 zM19.3 12.7 C17.1 17.1 16 24.3 16 34.2 C16 44.2 17.1 51.4 19.3 55.8 C21.5 60.1 25.2 62.2 30.1 62.2 C35.1 62.2 38.7 60.1 40.9 55.8 C43.1 51.6 44.2 44.4 44.2 34.2 C44.2 24 43.1 16.9 40.9 12.7 C38.7 8.4 35.1 6.2 30.1 6.2 C25.2 6.2 21.5 8.4 19.3 12.7 z" />
<glyph unicode="" horiz-adv-x="60.200000000000003" d="M24.6 73.1 C26.475 73.1 30.225 73.1 32.1 73.1 C34.9 76.1 40.5 82.2 43.3 85.2 C40.26667 85.2 36.475 85.2 34.2 85.2 C31.8 82.2 27 76.1 24.6 73.1 zM40.7 0.8 C43.8 2.2 46.4 4.4 48.5 7.5 C52.5 13.4 54.5 22.3 54.5 34.2 C54.5 46.2 52.5 55.1 48.5 61 C46.4 64.1 43.8 66.3 40.7 67.7 C37.6 69.1 34.1 69.8 30.1 69.8 C22 69.8 15.9 66.9 11.8 61 C7.8 55.2 5.7 46.2 5.7 34.2 C5.7 22.2 7.7 13.2 11.7 7.4 C15.7 1.6 21.9 -1.3 30.1 -1.3 C34.1 -1.3 37.6 -0.6 40.7 0.8 zM19.3 12.7 C17.1 17.1 16 24.3 16 34.2 C16 44.2 17.1 51.4 19.3 55.8 C21.5 60.1 25.2 62.2 30.1 62.2 C35.1 62.2 38.7 60.1 40.9 55.8 C43.1 51.6 44.2 44.4 44.2 34.2 C44.2 24 43.1 16.9 40.9 12.7 C38.7 8.4 35.1 6.2 30.1 6.2 C25.2 6.2 21.5 8.4 19.3 12.7 z" />
<glyph unicode="" horiz-adv-x="60.200000000000003" d="M16.1 72.8 C17.8 72.8 21.2 72.8 22.9 72.8 C24.9 74.8 29 79 31 81 C33 79 37.1 74.8 39.1 72.8 C41.36667 72.8 44.2 72.8 45.9 72.8 C43.3 75.9 38.2 81.9 35.6 85 C32.53333 85 28.7 85 26.4 85 C23.8 81.9 18.7 75.9 16.1 72.8 zM40.7 0.8 C43.8 2.2 46.4 4.4 48.5 7.5 C52.5 13.4 54.5 22.3 54.5 34.2 C54.5 46.2 52.5 55.1 48.5 61 C46.4 64.1 43.8 66.3 40.7 67.7 C37.6 69.1 34.1 69.8 30.1 69.8 C22 69.8 15.9 66.9 11.8 61 C7.8 55.2 5.7 46.2 5.7 34.2 C5.7 22.2 7.7 13.2 11.7 7.4 C15.7 1.6 21.9 -1.3 30.1 -1.3 C34.1 -1.3 37.6 -0.6 40.7 0.8 zM19.3 12.7 C17.1 17.1 16 24.3 16 34.2 C16 44.2 17.1 51.4 19.3 55.8 C21.5 60.1 25.2 62.2 30.1 62.2 C35.1 62.2 38.7 60.1 40.9 55.8 C43.1 51.6 44.2 44.4 44.2 34.2 C44.2 24 43.1 16.9 40.9 12.7 C38.7 8.4 35.1 6.2 30.1 6.2 C25.2 6.2 21.5 8.4 19.3 12.7 z" />
<glyph unicode="" horiz-adv-x="60.200000000000003" d="M20.1 75 C20.1 75.05 20.1 75.15 20.1 75.2 C20.1 76.5 20.4 77.6 21.1 78.4 C21.7 79.2 22.6 79.6 23.7 79.6 C24.2 79.6 24.6 79.6 25.1 79.4 C25.4 79.3 25.7 79.1 26 79 C26.3 78.9 26.7 78.6 27.1 78.4 C29 77.4 29 77.4 29.9 76.9 C30.9 76.4 31.7 76 32.3 75.8 C32.9 75.6 33.4 75.4 33.9 75.3 C35 75.1 36.1 75 37 75 C39.8 75 41.9 75.9 43.6 77.7 C45.3 79.5 46.1 81.9 46.2 85 C44.16667 85 41.625 85 40.1 85 C40.1 84.925 40.1 84.775 40.1 84.7 C40.1 83.5 39.8 82.5 39.1 81.7 C38.4 80.9 37.6 80.5 36.6 80.5 C36.1 80.5 35.6 80.6 35.1 80.8 C34.4 81 33.8 81.3 33.1 81.7 C31.2 82.6 31.2 82.5 30.3 83 C28.6 83.9 27.4 84.4 26.5 84.6 C25.3 84.8 24.1 85 23.2 85 C20.4 85 18.3 84.1 16.6 82.3 C15.7 81.3 15 80.2 14.6 79 C14.2 77.8 14 76.5 14 75 C16.03333 75 18.575 75 20.1 75 zM40.7 0.8 C43.8 2.2 46.4 4.4 48.5 7.5 C52.5 13.4 54.5 22.3 54.5 34.2 C54.5 46.2 52.5 55.1 48.5 61 C46.4 64.1 43.8 66.3 40.7 67.7 C37.6 69.1 34.1 69.8 30.1 69.8 C22 69.8 15.9 66.9 11.8 61 C7.8 55.2 5.7 46.2 5.7 34.2 C5.7 22.2 7.7 13.2 11.7 7.4 C15.7 1.6 21.9 -1.3 30.1 -1.3 C34.1 -1.3 37.6 -0.6 40.7 0.8 zM19.3 12.7 C17.1 17.1 16 24.3 16 34.2 C16 44.2 17.1 51.4 19.3 55.8 C21.5 60.1 25.2 62.2 30.1 62.2 C35.1 62.2 38.7 60.1 40.9 55.8 C43.1 51.6 44.2 44.4 44.2 34.2 C44.2 24 43.1 16.9 40.9 12.7 C38.7 8.4 35.1 6.2 30.1 6.2 C25.2 6.2 21.5 8.4 19.3 12.7 z" />
<glyph unicode="" horiz-adv-x="60.200000000000003" d="M24 75.6 C25 75.6 25.5 76.1 25.5 77 C25.5 79.16667 25.5 81.875 25.5 83.5 C25.5 84.4 25 84.9 24 84.9 C21.66667 84.9 18.75 84.9 17 84.9 C16 84.9 15.6 84.4 15.6 83.5 C15.6 81.33333 15.6 78.625 15.6 77 C15.6 76.1 16 75.6 17 75.6 C19.33333 75.6 22.25 75.6 24 75.6 zM43.1 75.6 C44.1 75.6 44.6 76.1 44.6 77 C44.6 79.16667 44.6 81.875 44.6 83.5 C44.6 84.4 44.1 84.9 43.1 84.9 C40.8 84.9 37.925 84.9 36.2 84.9 C35.2 84.9 34.7 84.4 34.7 83.5 C34.7 81.33333 34.7 78.625 34.7 77 C34.7 76.1 35.2 75.6 36.2 75.6 C38.5 75.6 41.375 75.6 43.1 75.6 zM40.7 0.8 C43.8 2.2 46.4 4.4 48.5 7.5 C52.5 13.4 54.5 22.3 54.5 34.2 C54.5 46.2 52.5 55.1 48.5 61 C46.4 64.1 43.8 66.3 40.7 67.7 C37.6 69.1 34.1 69.8 30.1 69.8 C22 69.8 15.9 66.9 11.8 61 C7.8 55.2 5.7 46.2 5.7 34.2 C5.7 22.2 7.7 13.2 11.7 7.4 C15.7 1.6 21.9 -1.3 30.1 -1.3 C34.1 -1.3 37.6 -0.6 40.7 0.8 zM19.3 12.7 C17.1 17.1 16 24.3 16 34.2 C16 44.2 17.1 51.4 19.3 55.8 C21.5 60.1 25.2 62.2 30.1 62.2 C35.1 62.2 38.7 60.1 40.9 55.8 C43.1 51.6 44.2 44.4 44.2 34.2 C44.2 24 43.1 16.9 40.9 12.7 C38.7 8.4 35.1 6.2 30.1 6.2 C25.2 6.2 21.5 8.4 19.3 12.7 z" />
<glyph unicode="" horiz-adv-x="60.200000000000003" d="M13.1 8 C17.3 12 25.9 20.1 30.1 24.1 C34.4 20.1 42.8 12 47.1 8 C48.5 9.4 51.4 12 52.8 13.4 C48.6 17.4 40 25.4 35.8 29.4 C40.1 33.4 48.6 41.5 52.9 45.5 C51.5 46.8 48.6 49.6 47.2 50.9 C42.9 46.9 34.4 38.8 30.1 34.8 C25.8 38.8 17.3 46.9 13 50.9 C11.6 49.6 8.7 46.8 7.3 45.5 C11.6 41.5 20.1 33.4 24.4 29.4 C20.1 25.4 11.6 17.4 7.3 13.4 C8.7 12 11.7 9.4 13.1 8 z" />
<glyph unicode="" horiz-adv-x="60.200000000000003" d="M5.4 -3.2 C7.1 -0.9 10.1 3 12.4 6.1 C14.4 3.6 16.9 1.8 19.8 0.6 C21.4 -0.1 22.9 -0.6 24.6 -0.9 C26.3 -1.2 28 -1.3 29.9 -1.3 C34.3 -1.3 38 -0.6 41 0.9 C44 2.4 46.5 4.6 48.5 7.5 C52.5 13.4 54.5 22.2 54.5 34.1 C54.5 36.7 54.4 39.2 54.2 41.5 C54 43.8 53.8 45.8 53.5 47.6 C53.1 49.5 52.7 51.2 52.2 52.9 C51.7 54.6 51.1 55.9 50.4 57.2 C52.5 59.9 56.5 65.5 58.6 68.2 C57.4 69 54.9 70.8 53.7 71.6 C52 69.3 49.2 65.4 46.9 62.3 C45 64.8 42.7 66.7 39.9 67.9 C38.5 68.5 37 69 35.4 69.3 C33.8 69.6 32 69.8 30 69.8 C26 69.8 22.4 69 19.4 67.6 C16.4 66.2 13.9 64 11.8 61 C9.7 58 8.2 54.3 7.2 49.9 C6.2 45.5 5.7 40.2 5.7 34 C5.7 31.4 5.8 29.1 6 27 C6.2 24.9 6.3 22.8 6.6 20.9 C7.2 16.8 8.1 13.7 9.1 11.6 C6.9 8.7 2.6 2.9 0.4 0 C1.7 -0.8 4.1 -2.4 5.4 -3.2 zM16.5 21.6 C16.3 22.7 16.2 23.5 16.2 24.1 C16.2 24.56667 16.2 25.15 16.2 25.5 C16.1 26.5 16 27.4 16 28.2 C16 29.3 16 30.675 16 31.5 C16 37.6 16.3 42.5 16.8 46.3 C17.3 50.1 18.1 53.1 19.2 55.4 C20.2 57.6 21.7 59.3 23.4 60.5 C25.1 61.7 27.3 62.2 30 62.2 C32.9 62.2 35.3 61.6 37.1 60.3 C37.9 59.7 38.7 58.9 39.4 58 C40.1 57.1 40.7 55.9 41.1 54.6 C32.9 43.6 22.65 29.85 16.5 21.6 zM22.8 8.3 C20.7 9.7 19.1 11.5 18.1 13.9 C34.8 36.3 34.8 36.4 43.2 47.6 C43.4 46.8 43.6 45.9 43.7 45.1 C43.8 44.3 43.8 43.4 43.9 42.4 C44 41.4 44.1 40.2 44.1 38.8 C44.1 37.4 44.2 35.9 44.2 34.3 C44.2 28.7 43.9 24.3 43.3 20.9 C42.7 17.5 41.9 14.7 40.9 12.7 C39.9 10.6 38.4 9 36.7 7.9 C35 6.8 32.8 6.2 30.1 6.2 C27.3 6.2 24.9 6.9 22.8 8.3 z" />
<glyph unicode="" horiz-adv-x="60.200000000000003" d="M29.5 72.9 C31.375 72.9 35.125 72.9 37 72.9 C34.6 75.9 29.8 82 27.4 85 C24.4 85 20.65 85 18.4 85 C21.2 82 26.7 75.9 29.5 72.9 zM35.3 -1 C36.8 -0.8 38.2 -0.4 39.4 0 C40.7 0.4 41.9 1 43.2 1.7 C44.5 2.4 45.7 3.1 46.8 4 C49.1 6 50.7 8.4 51.6 11.4 C52 12.8 52.3 14.7 52.6 16.9 C52.9 19.1 53 22.3 53 26.3 C53 40.36667 53 57.95 53 68.5 C50.525 68.5 45.575 68.5 43.1 68.5 C43.1 56.875 43.1 33.625 43.1 22 C43.1 18.7 43 16.3 42.8 14.9 C42.6 13.6 42.3 12.6 41.8 11.7 C40.8 10 39.3 8.6 37.3 7.6 C35.3 6.7 32.9 6.2 30.1 6.2 C27.3 6.2 24.9 6.7 22.9 7.6 C20.9 8.5 19.4 9.9 18.4 11.7 C17.9 12.5 17.6 13.6 17.4 15 C17.2 16.4 17.1 18.8 17.1 22.1 C17.1 37.56667 17.1 56.9 17.1 68.5 C14.625 68.5 9.675 68.5 7.2 68.5 C7.2 57.95 7.2 36.85 7.2 26.3 C7.2 22.5 7.3 19.5 7.5 17.2 C7.7 14.9 8.1 12.9 8.6 11.4 C9.2 9.7 9.8 8.3 10.6 7.1 C11.4 5.9 12.3 4.9 13.3 4 C14.3 3.1 15.5 2.4 16.9 1.7 C18.3 1 19.5 0.4 20.8 0 C23.6 -0.9 26.7 -1.3 30.1 -1.3 C32 -1.3 33.8 -1.2 35.3 -1 z" />
<glyph unicode="" horiz-adv-x="60.200000000000003" d="M23.2 73.1 C25.075 73.1 28.825 73.1 30.7 73.1 C33.5 76.1 39.1 82.2 41.9 85.2 C38.86667 85.2 35.075 85.2 32.8 85.2 C30.4 82.2 25.6 76.1 23.2 73.1 zM35.3 -1 C36.8 -0.8 38.2 -0.4 39.4 0 C40.7 0.4 41.9 1 43.2 1.7 C44.5 2.4 45.7 3.1 46.8 4 C49.1 6 50.7 8.4 51.6 11.4 C52 12.8 52.3 14.7 52.6 16.9 C52.9 19.1 53 22.3 53 26.3 C53 40.36667 53 57.95 53 68.5 C50.525 68.5 45.575 68.5 43.1 68.5 C43.1 56.875 43.1 33.625 43.1 22 C43.1 18.7 43 16.3 42.8 14.9 C42.6 13.6 42.3 12.6 41.8 11.7 C40.8 10 39.3 8.6 37.3 7.6 C35.3 6.7 32.9 6.2 30.1 6.2 C27.3 6.2 24.9 6.7 22.9 7.6 C20.9 8.5 19.4 9.9 18.4 11.7 C17.9 12.5 17.6 13.6 17.4 15 C17.2 16.4 17.1 18.8 17.1 22.1 C17.1 37.56667 17.1 56.9 17.1 68.5 C14.625 68.5 9.675 68.5 7.2 68.5 C7.2 57.95 7.2 36.85 7.2 26.3 C7.2 22.5 7.3 19.5 7.5 17.2 C7.7 14.9 8.1 12.9 8.6 11.4 C9.2 9.7 9.8 8.3 10.6 7.1 C11.4 5.9 12.3 4.9 13.3 4 C14.3 3.1 15.5 2.4 16.9 1.7 C18.3 1 19.5 0.4 20.8 0 C23.6 -0.9 26.7 -1.3 30.1 -1.3 C32 -1.3 33.8 -1.2 35.3 -1 z" />
<glyph unicode="" horiz-adv-x="60.200000000000003" d="M15.2 72.8 C16.9 72.8 20.3 72.8 22 72.8 C24 74.8 28.1 79 30.1 81 C32.1 79 36.2 74.8 38.2 72.8 C40.46667 72.8 43.3 72.8 45 72.8 C42.4 75.9 37.3 81.9 34.7 85 C31.63333 85 27.8 85 25.5 85 C22.9 81.9 17.8 75.9 15.2 72.8 zM35.3 -1 C36.8 -0.8 38.2 -0.4 39.4 0 C40.7 0.4 41.9 1 43.2 1.7 C44.5 2.4 45.7 3.1 46.8 4 C49.1 6 50.7 8.4 51.6 11.4 C52 12.8 52.3 14.7 52.6 16.9 C52.9 19.1 53 22.3 53 26.3 C53 40.36667 53 57.95 53 68.5 C50.525 68.5 45.575 68.5 43.1 68.5 C43.1 56.875 43.1 33.625 43.1 22 C43.1 18.7 43 16.3 42.8 14.9 C42.6 13.6 42.3 12.6 41.8 11.7 C40.8 10 39.3 8.6 37.3 7.6 C35.3 6.7 32.9 6.2 30.1 6.2 C27.3 6.2 24.9 6.7 22.9 7.6 C20.9 8.5 19.4 9.9 18.4 11.7 C17.9 12.5 17.6 13.6 17.4 15 C17.2 16.4 17.1 18.8 17.1 22.1 C17.1 37.56667 17.1 56.9 17.1 68.5 C14.625 68.5 9.675 68.5 7.2 68.5 C7.2 57.95 7.2 36.85 7.2 26.3 C7.2 22.5 7.3 19.5 7.5 17.2 C7.7 14.9 8.1 12.9 8.6 11.4 C9.2 9.7 9.8 8.3 10.6 7.1 C11.4 5.9 12.3 4.9 13.3 4 C14.3 3.1 15.5 2.4 16.9 1.7 C18.3 1 19.5 0.4 20.8 0 C23.6 -0.9 26.7 -1.3 30.1 -1.3 C32 -1.3 33.8 -1.2 35.3 -1 z" />
<glyph unicode="" horiz-adv-x="60.200000000000003" d="M24 75.6 C25 75.6 25.5 76.1 25.5 77 C25.5 79.16667 25.5 81.875 25.5 83.5 C25.5 84.4 25 84.9 24 84.9 C21.66667 84.9 18.75 84.9 17 84.9 C16 84.9 15.6 84.4 15.6 83.5 C15.6 81.33333 15.6 78.625 15.6 77 C15.6 76.1 16 75.6 17 75.6 C19.33333 75.6 22.25 75.6 24 75.6 zM43.1 75.6 C44.1 75.6 44.6 76.1 44.6 77 C44.6 79.16667 44.6 81.875 44.6 83.5 C44.6 84.4 44.1 84.9 43.1 84.9 C40.8 84.9 37.925 84.9 36.2 84.9 C35.2 84.9 34.7 84.4 34.7 83.5 C34.7 81.33333 34.7 78.625 34.7 77 C34.7 76.1 35.2 75.6 36.2 75.6 C38.5 75.6 41.375 75.6 43.1 75.6 zM35.3 -1 C36.8 -0.8 38.2 -0.4 39.4 0 C40.7 0.4 41.9 1 43.2 1.7 C44.5 2.4 45.7 3.1 46.8 4 C49.1 6 50.7 8.4 51.6 11.4 C52 12.8 52.3 14.7 52.6 16.9 C52.9 19.1 53 22.3 53 26.3 C53 40.36667 53 57.95 53 68.5 C50.525 68.5 45.575 68.5 43.1 68.5 C43.1 56.875 43.1 33.625 43.1 22 C43.1 18.7 43 16.3 42.8 14.9 C42.6 13.6 42.3 12.6 41.8 11.7 C40.8 10 39.3 8.6 37.3 7.6 C35.3 6.7 32.9 6.2 30.1 6.2 C27.3 6.2 24.9 6.7 22.9 7.6 C20.9 8.5 19.4 9.9 18.4 11.7 C17.9 12.5 17.6 13.6 17.4 15 C17.2 16.4 17.1 18.8 17.1 22.1 C17.1 37.56667 17.1 56.9 17.1 68.5 C14.625 68.5 9.675 68.5 7.2 68.5 C7.2 57.95 7.2 36.85 7.2 26.3 C7.2 22.5 7.3 19.5 7.5 17.2 C7.7 14.9 8.1 12.9 8.6 11.4 C9.2 9.7 9.8 8.3 10.6 7.1 C11.4 5.9 12.3 4.9 13.3 4 C14.3 3.1 15.5 2.4 16.9 1.7 C18.3 1 19.5 0.4 20.8 0 C23.6 -0.9 26.7 -1.3 30.1 -1.3 C32 -1.3 33.8 -1.2 35.3 -1 z" />
<glyph unicode="" horiz-adv-x="60.200000000000003" d="M23.2 72.9 C25.075 72.9 28.825 72.9 30.7 72.9 C33.5 75.9 39.1 82 41.9 85 C38.86667 85 35.075 85 32.8 85 C30.4 82 25.6 75.9 23.2 72.9 zM25.1 0 C27.575 0 32.525 0 35 0 C35 7.7 35 23.1 35 30.8 C40.8 40.2 52.6 59.1 58.4 68.5 C54.86667 68.5 50.45 68.5 47.8 68.5 C43.4 60.9 34.5 45.9 30.1 38.3 C25.7 45.9 16.7 60.9 12.3 68.5 C8.8 68.5 4.425 68.5 1.8 68.5 C7.6 59.1 19.3 40.2 25.1 30.8 C25.1 20.53333 25.1 7.7 25.1 0 z" />
<glyph unicode="" horiz-adv-x="60.200000000000003" d="M9.8 0 C12.275 0 17.225 0 19.7 0 C19.7 4.2 19.7 12.6 19.7 16.8 C22.8 16.8 29 16.8 32.1 16.8 C40.5 16.8 46.7 18.5 50.8 21.7 C52.8 23.3 54.3 25.3 55.3 27.7 C56.3 30.1 56.9 33 56.9 36.4 C56.9 43.1 54.8 48.1 50.8 51.3 C46.7 54.5 40.5 56.1 32.1 56.1 C27.96667 56.1 22.8 56.1 19.7 56.1 C19.7 59.2 19.7 65.4 19.7 68.5 C17.225 68.5 12.275 68.5 9.8 68.5 C9.8 51.375 9.8 17.125 9.8 0 zM19.7 24.4 C19.7 30.425 19.7 42.475 19.7 48.5 C22.55 48.5 28.25 48.5 31.1 48.5 C33.8 48.5 36.1 48.2 38 47.7 C39.9 47.2 41.5 46.4 42.7 45.5 C44 44.5 45 43.2 45.6 41.7 C46.2 40.2 46.5 38.4 46.5 36.5 C46.5 32.5 45.2 29.4 42.7 27.4 C40.1 25.4 36.2 24.4 31.1 24.4 C27.3 24.4 22.55 24.4 19.7 24.4 z" />
<glyph unicode="" horiz-adv-x="60.200000000000003" d="M50.6 2.7 C52.6 4.1 54 5.9 54.8 7.8 C55.6 9.7 56.1 11.7 56.1 14 C56.1 17.4 55.2 20.5 53.4 23 C52.5 24.3 51.2 25.7 49.6 26.9 C48 28.1 45.9 29.5 43.3 31 C41.4 32.1 41.4 32.1 40.5 32.7 C39.5 33.3 38.5 33.9 37.8 34.5 C37.1 35.1 36.5 35.7 35.9 36.4 C35 37.6 34.5 39 34.5 40.5 C34.5 43.5 35.9 46 38.6 47.9 C41.4 49.8 45.3 51 50.3 51.4 C50.2 58 48.5 63 45.1 66.4 C41.7 69.8 36.6 71.4 29.8 71.4 C22.9 71.4 17.8 69.9 14.3 66.7 C10.9 63.5 9.2 58.7 9.2 52.2 C9.2 34.8 9.2 13.05 9.2 0 C11.475 0 16.025 0 18.3 0 C18.3 13 18.3 39 18.3 52 C18.3 56.3 19.2 59.4 21.1 61.4 C23 63.4 25.9 64.4 29.8 64.4 C33.4 64.4 36.3 63.5 38.3 61.8 C40.3 60.1 41.2 57.6 41.3 54.3 C36.2 53.2 32.3 51.3 29.7 48.7 C28.4 47.4 27.5 46 26.8 44.3 C26.1 42.6 25.8 40.9 25.8 39.1 C25.8 37.7 25.9 36.5 26.3 35.4 C26.7 34.3 27.3 33.3 28 32.3 C28.7 31.3 29.7 30.3 30.8 29.3 C31.9 28.3 33.2 27.4 34.7 26.6 C35.8 26 37.175 25.25 38 24.8 C39.6 23.9 41 23.1 42.3 22.2 C43.6 21.3 44.6 20.3 45.4 19.2 C46.5 17.7 47 16.1 47 14.2 C47 12.8 46.8 11.6 46.3 10.6 C45.8 9.6 45 8.6 43.9 7.8 C41.8 6.3 39 5.6 35.5 5.6 C33.5 5.6 31.5 5.8 29.4 6.3 C27.1 6.8 24.7 7.5 22.4 8.4 C22.4 5.9 22.4 2.775 22.4 0.9 C23.6 0.5 24.8 0.2 26 -0.1 C27.2 -0.4 28.3 -0.6 29 -0.8 C31.1 -1.2 33.3 -1.3 35.7 -1.3 C42 -1.3 46.9 0 50.6 2.7 z" />
<glyph unicode="" horiz-adv-x="60.200000000000003" d="M29.6 59.5 C31.5 59.5 35.3 59.5 37.2 59.5 C33.8 63.8 26.8 72.5 23.4 76.8 C20.2 76.8 16.2 76.8 13.8 76.8 C17.8 72.5 25.6 63.8 29.6 59.5 zM35.6 0.9 C37 1.6 38.5 2.5 40 3.7 C41.5 4.9 42.7 6.3 43.6 7.8 C43.7 7.3 43.8 6.7 43.9 6 C44 5.3 44.2 4.7 44.4 4 C44.9 2.3 45.3 0.9 45.7 0 C48.7 0 52.45 0 54.7 0 C54.6 0.2 54.5 0.7 54.2 1.5 C53.9 2.3 53.6 3.3 53.4 4.2 C53.2 4.8 53.1 5.6 52.9 6.7 C52.7 7.8 52.5 9.1 52.3 10.4 C52.1 11.6 52 12.8 52 14.1 C52 15.4 52 17 51.9 18.8 C51.9 22.3 51.9 26.675 51.9 29.3 C51.9 33.9 51.6 37.3 51.1 39.5 C50.9 40.4 50.5 41.4 50.1 42.4 C49.7 43.4 49.1 44.3 48.4 45.2 C47.5 46.4 46.4 47.5 45 48.4 C43.6 49.3 42.2 50.1 40.7 50.7 C37.4 52 33.7 52.6 29.2 52.6 C26.1 52.6 23.1 52.4 20.2 51.8 C18.5 51.5 16.9 51 15.2 50.5 C13.5 50 12 49.6 10.6 49.1 C10.6 46.26667 10.6 42.725 10.6 40.6 C13.5 42.2 16.6 43.4 19.8 44.2 C22.9 45 26 45.5 29.1 45.5 C33.9 45.5 37.4 44.5 39.5 42.7 C41.7 40.8 42.8 37.9 42.8 33.8 C42.8 33.36667 42.8 32.825 42.8 32.5 C39.8 32.5 33.8 32.5 30.8 32.5 C22.9 32.5 16.8 31 12.8 28 C8.7 25 6.6 20.7 6.6 15 C6.6 12.3 7.1 10 8 8.1 C8.9 6.2 10 4.5 11.6 3.1 C14.9 0.1 19.3 -1.3 25 -1.3 C29 -1.3 32.6 -0.6 35.6 0.9 zM22 6.4 C20.6 6.9 19.5 7.5 18.6 8.3 C16.6 10 15.6 12.4 15.6 15.5 C15.6 19 16.9 21.6 19.6 23.3 C22.3 25 26.2 25.8 31.4 25.8 C35.2 25.8 39.95 25.8 42.8 25.8 C42.8 25.35 42.8 24.45 42.8 24 C42.8 18.4 41.4 13.9 38.5 10.6 C35.7 7.4 31.8 5.7 26.9 5.7 C25 5.7 23.4 5.9 22 6.4 z" />
<glyph unicode="" horiz-adv-x="60.200000000000003" d="M23.3 59.5 C25.2 59.5 29 59.5 30.9 59.5 C34.9 63.8 42.7 72.5 46.7 76.8 C43.5 76.8 39.5 76.8 37.1 76.8 C33.7 72.5 26.7 63.8 23.3 59.5 zM35.6 0.9 C37 1.6 38.5 2.5 40 3.7 C41.5 4.9 42.7 6.3 43.6 7.8 C43.7 7.3 43.8 6.7 43.9 6 C44 5.3 44.2 4.7 44.4 4 C44.9 2.3 45.3 0.9 45.7 0 C48.7 0 52.45 0 54.7 0 C54.6 0.2 54.5 0.7 54.2 1.5 C53.9 2.3 53.6 3.3 53.4 4.2 C53.2 4.8 53.1 5.6 52.9 6.7 C52.7 7.8 52.5 9.1 52.3 10.4 C52.1 11.6 52 12.8 52 14.1 C52 15.4 52 17 51.9 18.8 C51.9 22.3 51.9 26.675 51.9 29.3 C51.9 33.9 51.6 37.3 51.1 39.5 C50.9 40.4 50.5 41.4 50.1 42.4 C49.7 43.4 49.1 44.3 48.4 45.2 C47.5 46.4 46.4 47.5 45 48.4 C43.6 49.3 42.2 50.1 40.7 50.7 C37.4 52 33.7 52.6 29.2 52.6 C26.1 52.6 23.1 52.4 20.2 51.8 C18.5 51.5 16.9 51 15.2 50.5 C13.5 50 12 49.6 10.6 49.1 C10.6 46.26667 10.6 42.725 10.6 40.6 C13.5 42.2 16.6 43.4 19.8 44.2 C22.9 45 26 45.5 29.1 45.5 C33.9 45.5 37.4 44.5 39.5 42.7 C41.7 40.8 42.8 37.9 42.8 33.8 C42.8 33.36667 42.8 32.825 42.8 32.5 C39.8 32.5 33.8 32.5 30.8 32.5 C22.9 32.5 16.8 31 12.8 28 C8.7 25 6.6 20.7 6.6 15 C6.6 12.3 7.1 10 8 8.1 C8.9 6.2 10 4.5 11.6 3.1 C14.9 0.1 19.3 -1.3 25 -1.3 C29 -1.3 32.6 -0.6 35.6 0.9 zM22 6.4 C20.6 6.9 19.5 7.5 18.6 8.3 C16.6 10 15.6 12.4 15.6 15.5 C15.6 19 16.9 21.6 19.6 23.3 C22.3 25 26.2 25.8 31.4 25.8 C35.2 25.8 39.95 25.8 42.8 25.8 C42.8 25.35 42.8 24.45 42.8 24 C42.8 18.4 41.4 13.9 38.5 10.6 C35.7 7.4 31.8 5.7 26.9 5.7 C25 5.7 23.4 5.9 22 6.4 z" />
<glyph unicode="" horiz-adv-x="60.200000000000003" d="M14.6 59.5 C16.3 59.5 19.7 59.5 21.4 59.5 C23.6 62.3 28 68 30.2 70.8 C32.4 68 36.9 62.3 39.1 59.5 C41.33333 59.5 44.125 59.5 45.8 59.5 C42.8 63.8 36.8 72.5 33.8 76.8 C31.43333 76.8 28.475 76.8 26.7 76.8 C23.7 72.5 17.6 63.8 14.6 59.5 zM35.6 0.9 C37 1.6 38.5 2.5 40 3.7 C41.5 4.9 42.7 6.3 43.6 7.8 C43.7 7.3 43.8 6.7 43.9 6 C44 5.3 44.2 4.7 44.4 4 C44.9 2.3 45.3 0.9 45.7 0 C48.7 0 52.45 0 54.7 0 C54.6 0.2 54.5 0.7 54.2 1.5 C53.9 2.3 53.6 3.3 53.4 4.2 C53.2 4.8 53.1 5.6 52.9 6.7 C52.7 7.8 52.5 9.1 52.3 10.4 C52.1 11.6 52 12.8 52 14.1 C52 15.4 52 17 51.9 18.8 C51.9 22.3 51.9 26.675 51.9 29.3 C51.9 33.9 51.6 37.3 51.1 39.5 C50.9 40.4 50.5 41.4 50.1 42.4 C49.7 43.4 49.1 44.3 48.4 45.2 C47.5 46.4 46.4 47.5 45 48.4 C43.6 49.3 42.2 50.1 40.7 50.7 C37.4 52 33.7 52.6 29.2 52.6 C26.1 52.6 23.1 52.4 20.2 51.8 C18.5 51.5 16.9 51 15.2 50.5 C13.5 50 12 49.6 10.6 49.1 C10.6 46.26667 10.6 42.725 10.6 40.6 C13.5 42.2 16.6 43.4 19.8 44.2 C22.9 45 26 45.5 29.1 45.5 C33.9 45.5 37.4 44.5 39.5 42.7 C41.7 40.8 42.8 37.9 42.8 33.8 C42.8 33.36667 42.8 32.825 42.8 32.5 C39.8 32.5 33.8 32.5 30.8 32.5 C22.9 32.5 16.8 31 12.8 28 C8.7 25 6.6 20.7 6.6 15 C6.6 12.3 7.1 10 8 8.1 C8.9 6.2 10 4.5 11.6 3.1 C14.9 0.1 19.3 -1.3 25 -1.3 C29 -1.3 32.6 -0.6 35.6 0.9 zM22 6.4 C20.6 6.9 19.5 7.5 18.6 8.3 C16.6 10 15.6 12.4 15.6 15.5 C15.6 19 16.9 21.6 19.6 23.3 C22.3 25 26.2 25.8 31.4 25.8 C35.2 25.8 39.95 25.8 42.8 25.8 C42.8 25.35 42.8 24.45 42.8 24 C42.8 18.4 41.4 13.9 38.5 10.6 C35.7 7.4 31.8 5.7 26.9 5.7 C25 5.7 23.4 5.9 22 6.4 z" />
<glyph unicode="" horiz-adv-x="60.200000000000003" d="M20.2 61.5 C20.3 64 20.6 65.8 21.2 66.9 C21.8 68 22.7 68.6 23.9 68.6 C24.4 68.6 24.9 68.5 25.4 68.2 C25.6 68.1 25.8 67.9 26.1 67.7 C26.4 67.5 26.8 67.2 27.2 66.8 C29.1 65.1 29.1 65.1 30 64.3 C31.2 63.3 32.4 62.6 33.4 62.1 C34.5 61.7 35.7 61.5 36.9 61.5 C39.8 61.5 42.1 62.6 43.8 64.9 C45.5 67.2 46.3 70.3 46.3 74.4 C44.26667 74.4 41.725 74.4 40.2 74.4 C40.2 72 39.9 70.2 39.3 69 C38.7 67.9 37.8 67.3 36.6 67.3 C36.1 67.3 35.6 67.4 35.1 67.7 C34.6 68 34 68.5 33.3 69.1 C31.4 70.8 31.4 70.8 30.5 71.6 C29.3 72.6 28.1 73.3 27.1 73.8 C26 74.2 24.8 74.4 23.6 74.4 C20.7 74.4 18.4 73.3 16.7 71 C15 68.7 14.2 65.6 14.2 61.5 C16.2 61.5 18.7 61.5 20.2 61.5 zM35.6 0.9 C37 1.6 38.5 2.5 40 3.7 C41.5 4.9 42.7 6.3 43.6 7.8 C43.7 7.3 43.8 6.7 43.9 6 C44 5.3 44.2 4.7 44.4 4 C44.9 2.3 45.3 0.9 45.7 0 C48.7 0 52.45 0 54.7 0 C54.6 0.2 54.5 0.7 54.2 1.5 C53.9 2.3 53.6 3.3 53.4 4.2 C53.2 4.8 53.1 5.6 52.9 6.7 C52.7 7.8 52.5 9.1 52.3 10.4 C52.1 11.6 52 12.8 52 14.1 C52 15.4 52 17 51.9 18.8 C51.9 22.3 51.9 26.675 51.9 29.3 C51.9 33.9 51.6 37.3 51.1 39.5 C50.9 40.4 50.5 41.4 50.1 42.4 C49.7 43.4 49.1 44.3 48.4 45.2 C47.5 46.4 46.4 47.5 45 48.4 C43.6 49.3 42.2 50.1 40.7 50.7 C37.4 52 33.7 52.6 29.2 52.6 C26.1 52.6 23.1 52.4 20.2 51.8 C18.5 51.5 16.9 51 15.2 50.5 C13.5 50 12 49.6 10.6 49.1 C10.6 46.26667 10.6 42.725 10.6 40.6 C13.5 42.2 16.6 43.4 19.8 44.2 C22.9 45 26 45.5 29.1 45.5 C33.9 45.5 37.4 44.5 39.5 42.7 C41.7 40.8 42.8 37.9 42.8 33.8 C42.8 33.36667 42.8 32.825 42.8 32.5 C39.8 32.5 33.8 32.5 30.8 32.5 C22.9 32.5 16.8 31 12.8 28 C8.7 25 6.6 20.7 6.6 15 C6.6 12.3 7.1 10 8 8.1 C8.9 6.2 10 4.5 11.6 3.1 C14.9 0.1 19.3 -1.3 25 -1.3 C29 -1.3 32.6 -0.6 35.6 0.9 zM22 6.4 C20.6 6.9 19.5 7.5 18.6 8.3 C16.6 10 15.6 12.4 15.6 15.5 C15.6 19 16.9 21.6 19.6 23.3 C22.3 25 26.2 25.8 31.4 25.8 C35.2 25.8 39.95 25.8 42.8 25.8 C42.8 25.35 42.8 24.45 42.8 24 C42.8 18.4 41.4 13.9 38.5 10.6 C35.7 7.4 31.8 5.7 26.9 5.7 C25 5.7 23.4 5.9 22 6.4 z" />
<glyph unicode="" horiz-adv-x="60.200000000000003" d="M24.2 62 C25.2 62 25.6 62.4 25.6 63.3 C25.6 65.5 25.6 68.25 25.6 69.9 C25.6 70.8 25.2 71.2 24.2 71.2 C21.86667 71.2 18.95 71.2 17.2 71.2 C16.2 71.2 15.7 70.8 15.7 69.9 C15.7 67.7 15.7 64.95 15.7 63.3 C15.7 62.4 16.2 62 17.2 62 C19.53333 62 22.45 62 24.2 62 zM43.3 62 C44.3 62 44.7 62.4 44.7 63.3 C44.7 65.5 44.7 68.25 44.7 69.9 C44.7 70.8 44.3 71.2 43.3 71.2 C40.96667 71.2 38.05 71.2 36.3 71.2 C35.3 71.2 34.9 70.8 34.9 69.9 C34.9 67.7 34.9 64.95 34.9 63.3 C34.9 62.4 35.3 62 36.3 62 C38.63333 62 41.55 62 43.3 62 zM35.6 0.9 C37 1.6 38.5 2.5 40 3.7 C41.5 4.9 42.7 6.3 43.6 7.8 C43.7 7.3 43.8 6.7 43.9 6 C44 5.3 44.2 4.7 44.4 4 C44.9 2.3 45.3 0.9 45.7 0 C48.7 0 52.45 0 54.7 0 C54.6 0.2 54.5 0.7 54.2 1.5 C53.9 2.3 53.6 3.3 53.4 4.2 C53.2 4.8 53.1 5.6 52.9 6.7 C52.7 7.8 52.5 9.1 52.3 10.4 C52.1 11.6 52 12.8 52 14.1 C52 15.4 52 17 51.9 18.8 C51.9 22.3 51.9 26.675 51.9 29.3 C51.9 33.9 51.6 37.3 51.1 39.5 C50.9 40.4 50.5 41.4 50.1 42.4 C49.7 43.4 49.1 44.3 48.4 45.2 C47.5 46.4 46.4 47.5 45 48.4 C43.6 49.3 42.2 50.1 40.7 50.7 C37.4 52 33.7 52.6 29.2 52.6 C26.1 52.6 23.1 52.4 20.2 51.8 C18.5 51.5 16.9 51 15.2 50.5 C13.5 50 12 49.6 10.6 49.1 C10.6 46.26667 10.6 42.725 10.6 40.6 C13.5 42.2 16.6 43.4 19.8 44.2 C22.9 45 26 45.5 29.1 45.5 C33.9 45.5 37.4 44.5 39.5 42.7 C41.7 40.8 42.8 37.9 42.8 33.8 C42.8 33.36667 42.8 32.825 42.8 32.5 C39.8 32.5 33.8 32.5 30.8 32.5 C22.9 32.5 16.8 31 12.8 28 C8.7 25 6.6 20.7 6.6 15 C6.6 12.3 7.1 10 8 8.1 C8.9 6.2 10 4.5 11.6 3.1 C14.9 0.1 19.3 -1.3 25 -1.3 C29 -1.3 32.6 -0.6 35.6 0.9 zM22 6.4 C20.6 6.9 19.5 7.5 18.6 8.3 C16.6 10 15.6 12.4 15.6 15.5 C15.6 19 16.9 21.6 19.6 23.3 C22.3 25 26.2 25.8 31.4 25.8 C35.2 25.8 39.95 25.8 42.8 25.8 C42.8 25.35 42.8 24.45 42.8 24 C42.8 18.4 41.4 13.9 38.5 10.6 C35.7 7.4 31.8 5.7 26.9 5.7 C25 5.7 23.4 5.9 22 6.4 z" />
<glyph unicode="" horiz-adv-x="60.200000000000003" d="M39.8 61 C42.4 63.4 43.7 66.4 43.7 69.9 C43.7 73.4 42.4 76.5 39.8 78.9 C37.2 81.3 34 82.5 30.2 82.5 C26.5 82.5 23.4 81.3 20.8 78.9 C18.2 76.5 16.8 73.4 16.8 69.9 C16.8 66.4 18.2 63.4 20.8 61 C23.4 58.6 26.5 57.3 30.2 57.3 C34 57.3 37.2 58.6 39.8 61 zM25 65 C23.6 66.3 22.9 67.9 22.9 69.9 C22.9 71.9 23.6 73.6 25 74.9 C26.4 76.2 28.1 76.9 30.2 76.9 C32.3 76.9 34.1 76.2 35.5 74.9 C36.9 73.6 37.6 71.8 37.6 69.9 C37.6 67.9 36.9 66.3 35.5 65 C34.1 63.7 32.3 63 30.2 63 C28.1 63 26.4 63.7 25 65 zM35.6 0.9 C37 1.6 38.5 2.5 40 3.7 C41.5 4.9 42.7 6.3 43.6 7.8 C43.7 7.3 43.8 6.7 43.9 6 C44 5.3 44.2 4.7 44.4 4 C44.9 2.3 45.3 0.9 45.7 0 C48.7 0 52.45 0 54.7 0 C54.6 0.2 54.5 0.7 54.2 1.5 C53.9 2.3 53.6 3.3 53.4 4.2 C53.2 4.8 53.1 5.6 52.9 6.7 C52.7 7.8 52.5 9.1 52.3 10.4 C52.1 11.6 52 12.8 52 14.1 C52 15.4 52 17 51.9 18.8 C51.9 22.3 51.9 26.675 51.9 29.3 C51.9 33.9 51.6 37.3 51.1 39.5 C50.9 40.4 50.5 41.4 50.1 42.4 C49.7 43.4 49.1 44.3 48.4 45.2 C47.5 46.4 46.4 47.5 45 48.4 C43.6 49.3 42.2 50.1 40.7 50.7 C37.4 52 33.7 52.6 29.2 52.6 C26.1 52.6 23.1 52.4 20.2 51.8 C18.5 51.5 16.9 51 15.2 50.5 C13.5 50 12 49.6 10.6 49.1 C10.6 46.26667 10.6 42.725 10.6 40.6 C13.5 42.2 16.6 43.4 19.8 44.2 C22.9 45 26 45.5 29.1 45.5 C33.9 45.5 37.4 44.5 39.5 42.7 C41.7 40.8 42.8 37.9 42.8 33.8 C42.8 33.36667 42.8 32.825 42.8 32.5 C39.8 32.5 33.8 32.5 30.8 32.5 C22.9 32.5 16.8 31 12.8 28 C8.7 25 6.6 20.7 6.6 15 C6.6 12.3 7.1 10 8 8.1 C8.9 6.2 10 4.5 11.6 3.1 C14.9 0.1 19.3 -1.3 25 -1.3 C29 -1.3 32.6 -0.6 35.6 0.9 zM22 6.4 C20.6 6.9 19.5 7.5 18.6 8.3 C16.6 10 15.6 12.4 15.6 15.5 C15.6 19 16.9 21.6 19.6 23.3 C22.3 25 26.2 25.8 31.4 25.8 C35.2 25.8 39.95 25.8 42.8 25.8 C42.8 25.35 42.8 24.45 42.8 24 C42.8 18.4 41.4 13.9 38.5 10.6 C35.7 7.4 31.8 5.7 26.9 5.7 C25 5.7 23.4 5.9 22 6.4 z" />
<glyph unicode="" horiz-adv-x="60.200000000000003" d="M25.6 0.5 C27.7 1.8 29.4 3.6 30.7 6 C31.7 3.6 33.5 1.9 35.9 0.6 C38.3 -0.7 41.3 -1.3 44.8 -1.3 C47.4 -1.3 49.6 -1 51.6 -0.4 C53.6 0.2 55.5 1.2 57.5 2.5 C57.5 5.13333 57.5 8.425 57.5 10.4 C55.8 8.8 54.1 7.7 52 6.9 C49.8 6.1 47.5 5.7 45.1 5.7 C43.3 5.7 41.6 6 40.3 6.5 C39 7 37.9 7.8 37 9 C36.2 10 35.6 11.4 35.2 13.2 C34.8 15 34.5 17.3 34.5 20.3 C34.5 20.76667 34.5 21.35 34.5 21.7 C34.5 21.9 34.6 22 34.6 22.1 C34.6 22.36667 34.6 22.7 34.6 22.9 C34.6 23.075 34.6 23.425 34.6 23.6 C40.6 23.6 52.6 23.6 58.6 23.6 C58.6 24.625 58.6 26.675 58.6 27.7 C58.6 37.1 57.4 43.6 55.1 47.2 C52.8 50.8 48.8 52.6 43.1 52.6 C37 52.6 32.8 50.7 30.6 46.8 C29.4 48.8 27.8 50.2 25.8 51.2 C23.8 52.1 21.4 52.6 18.4 52.6 C16.3 52.6 14.3 52.4 12.2 51.9 C11.1 51.7 10 51.3 8.8 50.9 C7.6 50.5 6.4 50 5.2 49.5 C5.2 46.93333 5.2 43.725 5.2 41.8 C6.2 42.4 7.2 42.9 8.3 43.4 C9.4 43.9 10.4 44.3 11.4 44.6 C13.5 45.2 15.4 45.6 17.4 45.6 C20.5 45.6 22.8 44.6 24.4 42.6 C26 40.6 26.8 37.9 26.8 34.2 C26.8 32.86667 26.8 31.2 26.8 30.2 C25.375 30.2 22.525 30.2 21.1 30.2 C14.9 30.2 10.2 28.8 6.9 26.1 C5.2 24.7 3.9 22.9 3.1 20.9 C2.3 18.9 2 16.6 2 14 C2 11.6 2.4 9.5 3 7.6 C3.6 5.7 4.6 4 6 2.6 C8.6 0 12.5 -1.3 17.5 -1.3 C20.7 -1.3 23.4 -0.7 25.6 0.5 zM34.6 30.2 C34.6 30.675 34.6 31.625 34.6 32.1 C34.6 36.9 35.3 40.4 36.5 42.5 C37.7 44.6 39.8 45.6 42.6 45.6 C44.1 45.6 45.4 45.4 46.4 44.8 C47.4 44.2 48.1 43.4 48.7 42.5 C49.3 41.5 49.8 40.3 50.1 38.6 C50.4 36.9 50.6 34.9 50.6 32.5 C50.6 31.73333 50.6 30.775 50.6 30.2 C46.6 30.2 38.6 30.2 34.6 30.2 zM12.2 8 C10.7 9.5 10 11.6 10 14.4 C10 17.7 10.9 20.1 12.9 21.5 C14.9 22.9 18.6 23.6 24.1 23.6 C24.9 23.6 25.9 23.6 26.5 23.6 C26.5 22.775 26.5 21.125 26.5 20.3 C26.5 17.2 26.3 14.7 26 12.9 C25.7 11.1 25.3 9.8 24.7 8.8 C23.5 6.7 21.4 5.7 18.3 5.7 C15.7 5.7 13.7 6.5 12.2 8 z" />
<glyph unicode="" horiz-adv-x="60.200000000000003" d="M43.2 44.2 C45.5 43.4 47.8 41.9 50.3 39.8 C50.3 42.76667 50.3 46.475 50.3 48.7 C47.6 50.1 45.1 51.1 42.7 51.7 C40.4 52.3 37.8 52.6 34.8 52.6 C26.5 52.6 20 50.2 15.2 45.5 C12.9 43.2 11.2 40.5 9.9 37.2 C8.6 33.9 8 30.1 8 25.7 C8 17.3 10.3 10.6 15.1 5.8 C19.5 1.4 25.4 -0.9 32.9 -1.3 C33.4 -2 33.9 -2.6 34.3 -3.2 C34.7 -3.8 34.9 -4.3 35.2 -4.8 C35.9 -6.1 36.3 -7.3 36.3 -8.3 C36.3 -11.1 34.2 -12.5 30.2 -12.5 C27.5 -12.5 25.1 -12 22.9 -11 C22.9 -13 22.9 -15.5 22.9 -17 C24.3 -17.4 25.6 -17.7 27.1 -17.9 C28.5 -18.1 30 -18.1 31.4 -18.1 C33.4 -18.1 35.2 -18 36.6 -17.6 C38 -17.2 39.2 -16.8 40.1 -16.1 C42.1 -14.7 43.1 -12.7 43.1 -10.1 C43.1 -9.2 42.9 -8.3 42.7 -7.5 C42.5 -6.7 42.2 -6 41.8 -5.3 C41.1 -3.9 40.1 -2.5 38.8 -1.1 C39.5 -1 40.375 -0.875 40.9 -0.8 C41.6 -0.7 42.2 -0.6 42.9 -0.4 C44.1 -0.1 45.4 0.4 46.7 0.9 C48 1.4 49.2 2 50.3 2.6 C50.3 5.53333 50.3 9.2 50.3 11.4 C49.3 10.5 48.3 9.7 47.2 9 C46.1 8.3 44.9 7.7 43.4 7.2 C42.3 6.8 41.1 6.4 39.7 6.2 C38.3 6 36.8 5.8 35.2 5.8 C29.5 5.8 25.1 7.5 22 11 C20.4 12.8 19.2 15 18.5 17.5 C17.8 20 17.5 22.8 17.5 25.7 C17.5 32 19 36.8 22 40.3 C25 43.7 29.4 45.5 35.1 45.5 C38 45.5 40.7 45.1 43.2 44.2 z" />
<glyph unicode="" horiz-adv-x="60.200000000000003" d="M30.2 59.5 C32.075 59.5 35.825 59.5 37.7 59.5 C34.3 63.8 27.4 72.5 24 76.8 C20.8 76.8 16.8 76.8 14.4 76.8 C18.4 72.5 26.2 63.8 30.2 59.5 zM37.7 -1.1 C39.3 -0.9 40.8 -0.7 42.4 -0.4 C43.7 -0.1 45.2 0.3 47 0.8 C48.8 1.3 50.5 1.9 52.2 2.6 C52.2 5.4 52.2 8.9 52.2 11 C50.4 10.1 48.8 9.4 47.1 8.7 C45.4 8 43.8 7.5 42.2 7.1 C39.2 6.2 36.2 5.8 33.2 5.8 C30.2 5.8 27.7 6.2 25.6 7 C23.5 7.8 21.6 8.9 20.1 10.4 C17 13.5 15.4 17.8 15.4 23.4 C15.4 23.5 15.4 23.625 15.4 23.7 C25.125 23.7 44.575 23.7 54.3 23.7 C54.3 24.725 54.3 26.775 54.3 27.8 C54.3 35.6 52.4 41.7 48.4 46.1 C44.4 50.5 38.8 52.6 31.7 52.6 C28 52.6 24.6 52 21.4 50.8 C18.2 49.6 15.4 47.8 13 45.3 C10.8 43 9.1 40.3 7.9 37 C6.7 33.7 6.1 29.9 6.1 25.6 C6.1 17.2 8.4 10.7 13.2 5.9 C18 1.1 24.7 -1.3 33.1 -1.3 C34.6 -1.3 36.1 -1.3 37.7 -1.1 zM15.8 30.2 C16.4 35 18 38.7 20.8 41.4 C23.6 44.1 27.1 45.5 31.5 45.5 C35.9 45.5 39.4 44.2 41.7 41.6 C42.8 40.4 43.6 39 44.3 37.1 C45 35.2 45.3 32.9 45.4 30.3 C25.7 30.3 25.7 30.2 15.8 30.2 z" />
<glyph unicode="" horiz-adv-x="60.200000000000003" d="M23.9 59.5 C25.775 59.5 29.525 59.5 31.4 59.5 C35.4 63.8 43.3 72.5 47.3 76.8 C44.06667 76.8 40.025 76.8 37.6 76.8 C34.2 72.5 27.3 63.8 23.9 59.5 zM37.7 -1.1 C39.3 -0.9 40.8 -0.7 42.4 -0.4 C43.7 -0.1 45.2 0.3 47 0.8 C48.8 1.3 50.5 1.9 52.2 2.6 C52.2 5.4 52.2 8.9 52.2 11 C50.4 10.1 48.8 9.4 47.1 8.7 C45.4 8 43.8 7.5 42.2 7.1 C39.2 6.2 36.2 5.8 33.2 5.8 C30.2 5.8 27.7 6.2 25.6 7 C23.5 7.8 21.6 8.9 20.1 10.4 C17 13.5 15.4 17.8 15.4 23.4 C15.4 23.5 15.4 23.625 15.4 23.7 C25.125 23.7 44.575 23.7 54.3 23.7 C54.3 24.725 54.3 26.775 54.3 27.8 C54.3 35.6 52.4 41.7 48.4 46.1 C44.4 50.5 38.8 52.6 31.7 52.6 C28 52.6 24.6 52 21.4 50.8 C18.2 49.6 15.4 47.8 13 45.3 C10.8 43 9.1 40.3 7.9 37 C6.7 33.7 6.1 29.9 6.1 25.6 C6.1 17.2 8.4 10.7 13.2 5.9 C18 1.1 24.7 -1.3 33.1 -1.3 C34.6 -1.3 36.1 -1.3 37.7 -1.1 zM15.8 30.2 C16.4 35 18 38.7 20.8 41.4 C23.6 44.1 27.1 45.5 31.5 45.5 C35.9 45.5 39.4 44.2 41.7 41.6 C42.8 40.4 43.6 39 44.3 37.1 C45 35.2 45.3 32.9 45.4 30.3 C25.7 30.3 25.7 30.2 15.8 30.2 z" />
<glyph unicode="" horiz-adv-x="60.200000000000003" d="M15.2 59.5 C16.9 59.5 20.3 59.5 22 59.5 C24.2 62.3 28.6 68 30.8 70.8 C33 68 37.4 62.3 39.6 59.5 C41.86667 59.5 44.7 59.5 46.4 59.5 C43.4 63.8 37.4 72.5 34.4 76.8 C32 76.8 29 76.8 27.2 76.8 C24.2 72.5 18.2 63.8 15.2 59.5 zM37.7 -1.1 C39.3 -0.9 40.8 -0.7 42.4 -0.4 C43.7 -0.1 45.2 0.3 47 0.8 C48.8 1.3 50.5 1.9 52.2 2.6 C52.2 5.4 52.2 8.9 52.2 11 C50.4 10.1 48.8 9.4 47.1 8.7 C45.4 8 43.8 7.5 42.2 7.1 C39.2 6.2 36.2 5.8 33.2 5.8 C30.2 5.8 27.7 6.2 25.6 7 C23.5 7.8 21.6 8.9 20.1 10.4 C17 13.5 15.4 17.8 15.4 23.4 C15.4 23.5 15.4 23.625 15.4 23.7 C25.125 23.7 44.575 23.7 54.3 23.7 C54.3 24.725 54.3 26.775 54.3 27.8 C54.3 35.6 52.4 41.7 48.4 46.1 C44.4 50.5 38.8 52.6 31.7 52.6 C28 52.6 24.6 52 21.4 50.8 C18.2 49.6 15.4 47.8 13 45.3 C10.8 43 9.1 40.3 7.9 37 C6.7 33.7 6.1 29.9 6.1 25.6 C6.1 17.2 8.4 10.7 13.2 5.9 C18 1.1 24.7 -1.3 33.1 -1.3 C34.6 -1.3 36.1 -1.3 37.7 -1.1 zM15.8 30.2 C16.4 35 18 38.7 20.8 41.4 C23.6 44.1 27.1 45.5 31.5 45.5 C35.9 45.5 39.4 44.2 41.7 41.6 C42.8 40.4 43.6 39 44.3 37.1 C45 35.2 45.3 32.9 45.4 30.3 C25.7 30.3 25.7 30.2 15.8 30.2 z" />
<glyph unicode="" horiz-adv-x="60.200000000000003" d="M24.8 62 C25.8 62 26.2 62.4 26.2 63.3 C26.2 65.5 26.2 68.25 26.2 69.9 C26.2 70.8 25.8 71.2 24.8 71.2 C22.46667 71.2 19.55 71.2 17.8 71.2 C16.8 71.2 16.3 70.8 16.3 69.9 C16.3 67.7 16.3 64.95 16.3 63.3 C16.3 62.4 16.8 62 17.8 62 C20.13333 62 23.05 62 24.8 62 zM43.8 62 C44.8 62 45.3 62.4 45.3 63.3 C45.3 65.5 45.3 68.25 45.3 69.9 C45.3 70.8 44.8 71.2 43.8 71.2 C41.5 71.2 38.625 71.2 36.9 71.2 C35.9 71.2 35.4 70.8 35.4 69.9 C35.4 67.7 35.4 64.95 35.4 63.3 C35.4 62.4 35.9 62 36.9 62 C39.2 62 42.075 62 43.8 62 zM37.7 -1.1 C39.3 -0.9 40.8 -0.7 42.4 -0.4 C43.7 -0.1 45.2 0.3 47 0.8 C48.8 1.3 50.5 1.9 52.2 2.6 C52.2 5.4 52.2 8.9 52.2 11 C50.4 10.1 48.8 9.4 47.1 8.7 C45.4 8 43.8 7.5 42.2 7.1 C39.2 6.2 36.2 5.8 33.2 5.8 C30.2 5.8 27.7 6.2 25.6 7 C23.5 7.8 21.6 8.9 20.1 10.4 C17 13.5 15.4 17.8 15.4 23.4 C15.4 23.5 15.4 23.625 15.4 23.7 C25.125 23.7 44.575 23.7 54.3 23.7 C54.3 24.725 54.3 26.775 54.3 27.8 C54.3 35.6 52.4 41.7 48.4 46.1 C44.4 50.5 38.8 52.6 31.7 52.6 C28 52.6 24.6 52 21.4 50.8 C18.2 49.6 15.4 47.8 13 45.3 C10.8 43 9.1 40.3 7.9 37 C6.7 33.7 6.1 29.9 6.1 25.6 C6.1 17.2 8.4 10.7 13.2 5.9 C18 1.1 24.7 -1.3 33.1 -1.3 C34.6 -1.3 36.1 -1.3 37.7 -1.1 zM15.8 30.2 C16.4 35 18 38.7 20.8 41.4 C23.6 44.1 27.1 45.5 31.5 45.5 C35.9 45.5 39.4 44.2 41.7 41.6 C42.8 40.4 43.6 39 44.3 37.1 C45 35.2 45.3 32.9 45.4 30.3 C25.7 30.3 25.7 30.2 15.8 30.2 z" />
<glyph unicode="" horiz-adv-x="60.200000000000003" d="M26.5 58.3 C28.375 58.3 32.125 58.3 34 58.3 C30.6 62.6 23.7 71.3 20.3 75.6 C17.06667 75.6 13.025 75.6 10.6 75.6 C14.6 71.3 22.5 62.6 26.5 58.3 zM53.3 -0.4 C53.3 1.4 53.3 5 53.3 6.8 C50.675 6.8 45.425 6.8 42.8 6.8 C39.9 6.8 37.8 7.8 36.3 9.7 C34.8 11.6 34 14.4 34 18.3 C34 29.33333 34 43.125 34 51.4 C28.775 51.4 18.325 51.4 13.1 51.4 C13.1 49.75 13.1 46.45 13.1 44.8 C16.075 44.8 22.025 44.8 25 44.8 C25 38.175 25 24.925 25 18.3 C25 12.4 26.5 7.7 29.5 4.5 C31.1 2.8 32.8 1.6 34.9 0.8 C37 0 39.3 -0.4 41.9 -0.4 C45.7 -0.4 50.45 -0.4 53.3 -0.4 z" />
<glyph unicode="" horiz-adv-x="60.200000000000003" d="M25 58.3 C26.9 58.3 30.7 58.3 32.6 58.3 C36.6 62.6 44.4 71.3 48.4 75.6 C45.2 75.6 41.2 75.6 38.8 75.6 C35.4 71.3 28.4 62.6 25 58.3 zM53.3 -0.4 C53.3 1.4 53.3 5 53.3 6.8 C50.675 6.8 45.425 6.8 42.8 6.8 C39.9 6.8 37.8 7.8 36.3 9.7 C34.8 11.6 34 14.4 34 18.3 C34 29.33333 34 43.125 34 51.4 C28.775 51.4 18.325 51.4 13.1 51.4 C13.1 49.75 13.1 46.45 13.1 44.8 C16.075 44.8 22.025 44.8 25 44.8 C25 38.175 25 24.925 25 18.3 C25 12.4 26.5 7.7 29.5 4.5 C31.1 2.8 32.8 1.6 34.9 0.8 C37 0 39.3 -0.4 41.9 -0.4 C45.7 -0.4 50.45 -0.4 53.3 -0.4 z" />
<glyph unicode="" horiz-adv-x="60.200000000000003" d="M13.1 58.4 C14.8 58.4 18.2 58.4 19.9 58.4 C22.1 61.2 26.5 66.8 28.7 69.6 C30.9 66.8 35.3 61.2 37.5 58.4 C39.2 58.4 42.6 58.4 44.3 58.4 C41.3 62.7 35.3 71.3 32.3 75.6 C30.5 75.6 26.9 75.6 25.1 75.6 C22.1 71.3 16.1 62.7 13.1 58.4 zM53.3 -0.4 C53.3 1.4 53.3 5 53.3 6.8 C50.675 6.8 45.425 6.8 42.8 6.8 C39.9 6.8 37.8 7.8 36.3 9.7 C34.8 11.6 34 14.4 34 18.3 C34 29.33333 34 43.125 34 51.4 C28.775 51.4 18.325 51.4 13.1 51.4 C13.1 49.75 13.1 46.45 13.1 44.8 C16.075 44.8 22.025 44.8 25 44.8 C25 38.175 25 24.925 25 18.3 C25 12.4 26.5 7.7 29.5 4.5 C31.1 2.8 32.8 1.6 34.9 0.8 C37 0 39.3 -0.4 41.9 -0.4 C45.7 -0.4 50.45 -0.4 53.3 -0.4 z" />
<glyph unicode="" horiz-adv-x="60.200000000000003" d="M23 62 C24 62 24.5 62.4 24.5 63.3 C24.5 65.5 24.5 68.25 24.5 69.9 C24.5 70.8 24 71.2 23 71.2 C20.66667 71.2 17.75 71.2 16 71.2 C15 71.2 14.6 70.8 14.6 69.9 C14.6 67.7 14.6 64.95 14.6 63.3 C14.6 62.4 15 62 16 62 C18.33333 62 21.25 62 23 62 zM42.1 62 C43.1 62 43.6 62.4 43.6 63.3 C43.6 65.5 43.6 68.25 43.6 69.9 C43.6 70.8 43.1 71.2 42.1 71.2 C39.8 71.2 36.925 71.2 35.2 71.2 C34.2 71.2 33.7 70.8 33.7 69.9 C33.7 67.7 33.7 64.95 33.7 63.3 C33.7 62.4 34.2 62 35.2 62 C37.5 62 40.375 62 42.1 62 zM53.3 -0.4 C53.3 1.4 53.3 5 53.3 6.8 C50.675 6.8 45.425 6.8 42.8 6.8 C39.9 6.8 37.8 7.8 36.3 9.7 C34.8 11.6 34 14.4 34 18.3 C34 29.33333 34 43.125 34 51.4 C28.775 51.4 18.325 51.4 13.1 51.4 C13.1 49.75 13.1 46.45 13.1 44.8 C16.075 44.8 22.025 44.8 25 44.8 C25 38.175 25 24.925 25 18.3 C25 12.4 26.5 7.7 29.5 4.5 C31.1 2.8 32.8 1.6 34.9 0.8 C37 0 39.3 -0.4 41.9 -0.4 C45.7 -0.4 50.45 -0.4 53.3 -0.4 z" />
<glyph unicode="" horiz-adv-x="60.200000000000003" d="M39.9 0.3 C42.8 1.4 45.3 3.2 47.4 5.5 C51.5 10.1 53.5 16.2 53.5 24.2 C53.5 27.5 53.1 30.6 52.4 33.6 C51.7 36.6 50.6 39.6 49.1 42.5 C46.1 48.3 41.4 54.4 35 60.9 C38.1 61.8 44.1 63.7 47.2 64.6 C46.8 65.7 46 68 45.6 69.1 C42.1 68 35 65.9 31.5 64.8 C29.9 66.5 26.9 69.7 25.3 71.4 C21.73333 71.4 17.275 71.4 14.6 71.4 C16.8 69.1 21.3 64.5 23.5 62.2 C19.63333 61 14.8 59.5 11.9 58.6 C12.3 57.5 13 55.2 13.4 54.1 C16.8 55.2 22.5 56.9 27 58.3 C27.6 57.6 28.2 57 28.8 56.3 C29.4 55.6 30 55 30.6 54.3 C31.2 53.6 31.9 52.7 32.6 51.8 C33.3 50.9 33.8 50.3 34 50.1 C33.5 50.2 33.2 50.2 33.3 50.2 C33.4 50.2 33.1 50.2 32.4 50.3 C32.26667 50.3 32.1 50.3 32 50.3 C31.7 50.3 31.1 50.3 30.8 50.3 C22.8 50.3 16.7 48 12.7 43.5 C8.7 39 6.7 32.7 6.7 24.5 C6.7 16.4 8.7 10.1 12.8 5.5 C16.9 1 22.7 -1.3 30.1 -1.3 C33.7 -1.3 37 -0.8 39.9 0.3 zM19.8 10.7 C17.4 14 16.2 18.6 16.2 24.5 C16.2 30.6 17.5 35.3 20 38.5 C22.5 41.7 26.3 43.3 31.2 43.3 C32.4 43.3 33.7 43.3 35 43.1 C35.5 43 36.1 42.9 36.8 42.7 C37.5 42.5 38.1 42.3 38.7 42.1 C40.3 40 41.6 37.4 42.6 34.3 C43.6 31.2 44 27.9 44 24.4 C44 18.6 42.8 14 40.4 10.7 C38 7.5 34.6 5.8 30.1 5.8 C25.6 5.8 22.2 7.5 19.8 10.7 z" />
<glyph unicode="" horiz-adv-x="60.200000000000003" d="M20.1 59 C20.2 61.5 20.4 63.3 21 64.4 C21.6 65.5 22.6 66.1 23.8 66.1 C24.3 66.1 24.7 66 25.2 65.7 C25.4 65.6 25.7 65.4 26 65.2 C26.3 65 26.7 64.7 27.1 64.3 C29 62.6 29 62.6 29.9 61.8 C31.1 60.8 32.3 60.2 33.3 59.7 C34.4 59.3 35.6 59 36.8 59 C39.7 59 42 60.1 43.7 62.4 C45.4 64.7 46.2 67.9 46.2 72 C44.16667 72 41.625 72 40.1 72 C40.1 69.6 39.8 67.8 39.2 66.6 C38.6 65.5 37.6 64.9 36.4 64.9 C35.9 64.9 35.5 65 35 65.3 C34.5 65.6 33.8 66 33.1 66.6 C31.2 68.3 31.2 68.4 30.3 69.2 C29.1 70.2 28 70.8 27 71.3 C25.9 71.7 24.6 72 23.4 72 C20.5 72 18.3 70.9 16.6 68.6 C14.9 66.3 14 63.1 14 59 C16.03333 59 18.575 59 20.1 59 zM9.5 0 C11.75 0 16.25 0 18.5 0 C18.5 7.275 18.5 21.825 18.5 29.1 C18.5 34.4 19.6 38.3 21.9 41.1 C24.1 43.9 27.3 45.3 31.5 45.3 C35.2 45.3 38 44.2 39.7 42 C41.4 39.8 42.3 36.5 42.3 31.9 C42.3 21.26667 42.3 7.975 42.3 0 C44.55 0 49.05 0 51.3 0 C51.3 7.975 51.3 23.925 51.3 31.9 C51.3 38.9 49.9 44 47.2 47.5 C45.9 49.2 44.2 50.4 42.1 51.3 C40 52.2 37.6 52.6 34.7 52.6 C27.2 52.6 21.8 49.7 18.5 43.7 C18.3 45.6 17.8 49.5 17.6 51.4 C14.9 51.4 11.525 51.4 9.5 51.4 C9.5 38.55 9.5 12.85 9.5 0 z" />
<glyph unicode="" horiz-adv-x="60.200000000000003" d="M29.5 59.5 C31.375 59.5 35.125 59.5 37 59.5 C33.6 63.8 26.7 72.5 23.3 76.8 C20.06667 76.8 16.025 76.8 13.6 76.8 C17.6 72.5 25.5 63.8 29.5 59.5 zM47.5 5.6 C51.5 10.1 53.5 16.8 53.5 25.7 C53.5 34.4 51.5 41 47.5 45.7 C43.5 50.3 37.7 52.6 30.1 52.6 C22.5 52.6 16.7 50.3 12.7 45.7 C8.7 41 6.7 34.4 6.7 25.7 C6.7 21.4 7.2 17.6 8.2 14.2 C9.2 10.8 10.6 8 12.7 5.6 C16.7 1 22.5 -1.3 30.1 -1.3 C37.8 -1.3 43.6 1 47.5 5.6 zM19.7 10.9 C17.4 14.2 16.2 19.2 16.2 25.7 C16.2 32.2 17.4 37.1 19.7 40.5 C22 43.8 25.5 45.5 30.1 45.5 C34.7 45.5 38.2 43.8 40.5 40.5 C42.8 37.1 44 32.2 44 25.7 C44 19.2 42.8 14.2 40.5 10.9 C38.2 7.5 34.7 5.8 30.1 5.8 C25.5 5.8 22 7.5 19.7 10.9 z" />
<glyph unicode="" horiz-adv-x="60.200000000000003" d="M23.2 59.5 C25.075 59.5 28.825 59.5 30.7 59.5 C34.7 63.8 42.6 72.5 46.6 76.8 C43.36667 76.8 39.325 76.8 36.9 76.8 C33.5 72.5 26.6 63.8 23.2 59.5 zM47.5 5.6 C51.5 10.1 53.5 16.8 53.5 25.7 C53.5 34.4 51.5 41 47.5 45.7 C43.5 50.3 37.7 52.6 30.1 52.6 C22.5 52.6 16.7 50.3 12.7 45.7 C8.7 41 6.7 34.4 6.7 25.7 C6.7 21.4 7.2 17.6 8.2 14.2 C9.2 10.8 10.6 8 12.7 5.6 C16.7 1 22.5 -1.3 30.1 -1.3 C37.8 -1.3 43.6 1 47.5 5.6 zM19.7 10.9 C17.4 14.2 16.2 19.2 16.2 25.7 C16.2 32.2 17.4 37.1 19.7 40.5 C22 43.8 25.5 45.5 30.1 45.5 C34.7 45.5 38.2 43.8 40.5 40.5 C42.8 37.1 44 32.2 44 25.7 C44 19.2 42.8 14.2 40.5 10.9 C38.2 7.5 34.7 5.8 30.1 5.8 C25.5 5.8 22 7.5 19.7 10.9 z" />
<glyph unicode="" horiz-adv-x="60.200000000000003" d="M14.5 59.5 C16.2 59.5 19.6 59.5 21.3 59.5 C23.5 62.3 27.9 68 30.1 70.8 C32.3 68 36.7 62.3 38.9 59.5 C41.16667 59.5 44 59.5 45.7 59.5 C42.7 63.8 36.7 72.5 33.7 76.8 C31.3 76.8 28.3 76.8 26.5 76.8 C23.5 72.5 17.5 63.8 14.5 59.5 zM47.5 5.6 C51.5 10.1 53.5 16.8 53.5 25.7 C53.5 34.4 51.5 41 47.5 45.7 C43.5 50.3 37.7 52.6 30.1 52.6 C22.5 52.6 16.7 50.3 12.7 45.7 C8.7 41 6.7 34.4 6.7 25.7 C6.7 21.4 7.2 17.6 8.2 14.2 C9.2 10.8 10.6 8 12.7 5.6 C16.7 1 22.5 -1.3 30.1 -1.3 C37.8 -1.3 43.6 1 47.5 5.6 zM19.7 10.9 C17.4 14.2 16.2 19.2 16.2 25.7 C16.2 32.2 17.4 37.1 19.7 40.5 C22 43.8 25.5 45.5 30.1 45.5 C34.7 45.5 38.2 43.8 40.5 40.5 C42.8 37.1 44 32.2 44 25.7 C44 19.2 42.8 14.2 40.5 10.9 C38.2 7.5 34.7 5.8 30.1 5.8 C25.5 5.8 22 7.5 19.7 10.9 z" />
<glyph unicode="" horiz-adv-x="60.200000000000003" d="M20.1 59 C20.2 61.5 20.4 63.3 21 64.4 C21.6 65.5 22.6 66.1 23.8 66.1 C24.3 66.1 24.7 66 25.2 65.7 C25.4 65.6 25.7 65.4 26 65.2 C26.3 65 26.7 64.7 27.1 64.3 C29 62.6 29 62.6 29.9 61.8 C31.1 60.8 32.3 60.2 33.3 59.7 C34.4 59.3 35.6 59 36.8 59 C39.7 59 42 60.1 43.7 62.4 C45.4 64.7 46.2 67.9 46.2 72 C44.16667 72 41.625 72 40.1 72 C40.1 69.6 39.8 67.8 39.2 66.6 C38.6 65.5 37.6 64.9 36.4 64.9 C35.9 64.9 35.5 65 35 65.3 C34.5 65.6 33.8 66 33.1 66.6 C31.2 68.3 31.2 68.4 30.3 69.2 C29.1 70.2 28 70.8 27 71.3 C25.9 71.7 24.6 72 23.4 72 C20.5 72 18.3 70.9 16.6 68.6 C14.9 66.3 14 63.1 14 59 C16.03333 59 18.575 59 20.1 59 zM47.5 5.6 C51.5 10.1 53.5 16.8 53.5 25.7 C53.5 34.4 51.5 41 47.5 45.7 C43.5 50.3 37.7 52.6 30.1 52.6 C22.5 52.6 16.7 50.3 12.7 45.7 C8.7 41 6.7 34.4 6.7 25.7 C6.7 21.4 7.2 17.6 8.2 14.2 C9.2 10.8 10.6 8 12.7 5.6 C16.7 1 22.5 -1.3 30.1 -1.3 C37.8 -1.3 43.6 1 47.5 5.6 zM19.7 10.9 C17.4 14.2 16.2 19.2 16.2 25.7 C16.2 32.2 17.4 37.1 19.7 40.5 C22 43.8 25.5 45.5 30.1 45.5 C34.7 45.5 38.2 43.8 40.5 40.5 C42.8 37.1 44 32.2 44 25.7 C44 19.2 42.8 14.2 40.5 10.9 C38.2 7.5 34.7 5.8 30.1 5.8 C25.5 5.8 22 7.5 19.7 10.9 z" />
<glyph unicode="" horiz-adv-x="60.200000000000003" d="M24 62 C25 62 25.5 62.4 25.5 63.3 C25.5 65.5 25.5 68.25 25.5 69.9 C25.5 70.8 25 71.2 24 71.2 C21.66667 71.2 18.75 71.2 17 71.2 C16 71.2 15.6 70.8 15.6 69.9 C15.6 67.7 15.6 64.95 15.6 63.3 C15.6 62.4 16 62 17 62 C19.33333 62 22.25 62 24 62 zM43.1 62 C44.1 62 44.6 62.4 44.6 63.3 C44.6 65.5 44.6 68.25 44.6 69.9 C44.6 70.8 44.1 71.2 43.1 71.2 C40.8 71.2 37.925 71.2 36.2 71.2 C35.2 71.2 34.7 70.8 34.7 69.9 C34.7 67.7 34.7 64.95 34.7 63.3 C34.7 62.4 35.2 62 36.2 62 C38.5 62 41.375 62 43.1 62 zM47.5 5.6 C51.5 10.1 53.5 16.8 53.5 25.7 C53.5 34.4 51.5 41 47.5 45.7 C43.5 50.3 37.7 52.6 30.1 52.6 C22.5 52.6 16.7 50.3 12.7 45.7 C8.7 41 6.7 34.4 6.7 25.7 C6.7 21.4 7.2 17.6 8.2 14.2 C9.2 10.8 10.6 8 12.7 5.6 C16.7 1 22.5 -1.3 30.1 -1.3 C37.8 -1.3 43.6 1 47.5 5.6 zM19.7 10.9 C17.4 14.2 16.2 19.2 16.2 25.7 C16.2 32.2 17.4 37.1 19.7 40.5 C22 43.8 25.5 45.5 30.1 45.5 C34.7 45.5 38.2 43.8 40.5 40.5 C42.8 37.1 44 32.2 44 25.7 C44 19.2 42.8 14.2 40.5 10.9 C38.2 7.5 34.7 5.8 30.1 5.8 C25.5 5.8 22 7.5 19.7 10.9 z" />
<glyph unicode="" horiz-adv-x="60.200000000000003" d="M34.6 40.8 C35.6 40.8 36.1 41.3 36.1 42.2 C36.1 45.03333 36.1 48.575 36.1 50.7 C36.1 51.6 35.6 52.1 34.6 52.1 C31.6 52.1 27.85 52.1 25.6 52.1 C24.6 52.1 24.1 51.6 24.1 50.7 C24.1 47.86667 24.1 44.325 24.1 42.2 C24.1 41.3 24.6 40.8 25.6 40.8 C28.6 40.8 32.35 40.8 34.6 40.8 zM4.3 25.6 C17.2 25.6 43 25.6 55.9 25.6 C55.9 27.55 55.9 31.45 55.9 33.4 C43 33.4 17.2 33.4 4.3 33.4 C4.3 31.45 4.3 27.55 4.3 25.6 zM34.6 6.9 C35.6 6.9 36.1 7.4 36.1 8.3 C36.1 11.13333 36.1 14.675 36.1 16.8 C36.1 17.7 35.6 18.1 34.6 18.1 C31.6 18.1 27.85 18.1 25.6 18.1 C24.6 18.1 24.1 17.7 24.1 16.8 C24.1 13.96667 24.1 10.425 24.1 8.3 C24.1 7.4 24.6 6.9 25.6 6.9 C28.6 6.9 32.35 6.9 34.6 6.9 z" />
<glyph unicode="" horiz-adv-x="60.200000000000003" d="M6.8 -4.4 C8.8 -2.3 12 1.3 14.6 4.1 C16.4 2.3 18.6 0.9 21.2 0 C22.4 -0.4 23.8 -0.8 25.2 -1 C26.6 -1.2 28.2 -1.3 30 -1.3 C37.6 -1.3 43.5 1 47.5 5.6 C51.5 10.1 53.5 16.8 53.5 25.7 C53.5 29.4 53.1 32.8 52.4 35.7 C51.7 38.6 50.7 41 49.3 43.1 C51.3 45.3 55.3 49.9 57.3 52.1 C56.2 53 53.9 54.7 52.8 55.6 C51 53.6 48 50.3 45.6 47.6 C44.6 48.5 43.6 49.2 42.4 49.8 C41.2 50.4 40 51 38.8 51.4 C37.6 51.8 36.2 52.1 34.7 52.3 C33.2 52.5 31.6 52.6 30 52.6 C22.4 52.6 16.7 50.3 12.7 45.7 C8.7 41 6.7 34.4 6.7 25.7 C6.7 22.2 7 18.9 7.7 16 C8 14.6 8.4 13.2 8.8 12 C9.2 10.8 9.9 9.6 10.6 8.3 C8.5 6 4.4 1.4 2.3 -0.9 C3.4 -1.8 5.7 -3.5 6.8 -4.4 zM17.4 15.6 C16.9 17.7 16.6 19.7 16.4 21.5 C16.2 23.2 16 24.9 16 26.6 C16 29.8 16.4 32.4 17 34.7 C17.6 37 18.5 39 19.7 40.6 C22.1 43.9 25.6 45.5 30.1 45.5 C32.2 45.5 34.1 45.1 35.8 44.4 C37.5 43.7 38.8 42.7 39.9 41.2 C24.9 24.2 24.9 24.1 17.4 15.6 zM27 6.1 C26.1 6.3 25.3 6.6 24.5 6.9 C23.7 7.2 23 7.6 22.3 8.1 C21.6 8.6 20.9 9.2 20.2 10.1 C35.3 27.2 35.3 27.2 42.8 35.8 C43.1 34.7 43.3 33.8 43.4 32.9 C43.5 32 43.6 31.2 43.7 30.6 C43.9 28.9 44 27.2 44 25.5 C44 19.1 42.8 14.2 40.5 10.9 C38.2 7.5 34.6 5.8 30 5.8 C28.9 5.8 27.9 5.9 27 6.1 z" />
<glyph unicode="" horiz-adv-x="60.200000000000003" d="M29.5 58.2 C31.375 58.2 35.125 58.2 37 58.2 C33.6 62.5 26.7 71.2 23.3 75.5 C20.06667 75.5 16.025 75.5 13.6 75.5 C17.6 71.2 25.5 62.5 29.5 58.2 zM35.8 1 C38.5 2.5 40.7 4.7 42.3 7.7 C42.5 5.8 43 1.9 43.2 0 C45.9 0 49.275 0 51.3 0 C51.3 12.825 51.3 38.475 51.3 51.3 C49.05 51.3 44.55 51.3 42.3 51.3 C42.3 44.05 42.3 29.55 42.3 22.3 C42.3 17.1 41.1 13 38.9 10.2 C36.7 7.4 33.4 6 29.2 6 C27.2 6 25.6 6.3 24.3 6.9 C23 7.5 21.9 8.3 21.1 9.3 C19.3 11.4 18.5 14.8 18.5 19.5 C18.5 30.1 18.5 43.35 18.5 51.3 C16.25 51.3 11.75 51.3 9.5 51.3 C9.5 43.35 9.5 27.45 9.5 19.5 C9.5 12.5 10.9 7.3 13.6 3.9 C16.3 0.4 20.5 -1.3 26.1 -1.3 C29.8 -1.3 33 -0.5 35.8 1 z" />
<glyph unicode="" horiz-adv-x="60.200000000000003" d="M23.2 58.2 C25.075 58.2 28.825 58.2 30.7 58.2 C34.7 62.5 42.6 71.2 46.6 75.5 C43.36667 75.5 39.325 75.5 36.9 75.5 C33.5 71.2 26.6 62.5 23.2 58.2 zM35.8 1 C38.5 2.5 40.7 4.7 42.3 7.7 C42.5 5.8 43 1.9 43.2 0 C45.9 0 49.275 0 51.3 0 C51.3 12.825 51.3 38.475 51.3 51.3 C49.05 51.3 44.55 51.3 42.3 51.3 C42.3 44.05 42.3 29.55 42.3 22.3 C42.3 17.1 41.1 13 38.9 10.2 C36.7 7.4 33.4 6 29.2 6 C27.2 6 25.6 6.3 24.3 6.9 C23 7.5 21.9 8.3 21.1 9.3 C19.3 11.4 18.5 14.8 18.5 19.5 C18.5 30.1 18.5 43.35 18.5 51.3 C16.25 51.3 11.75 51.3 9.5 51.3 C9.5 43.35 9.5 27.45 9.5 19.5 C9.5 12.5 10.9 7.3 13.6 3.9 C16.3 0.4 20.5 -1.3 26.1 -1.3 C29.8 -1.3 33 -0.5 35.8 1 z" />
<glyph unicode="" horiz-adv-x="60.200000000000003" d="M14.5 58.2 C16.2 58.2 19.6 58.2 21.3 58.2 C23.5 61 27.9 66.6 30.1 69.4 C32.3 66.6 36.7 61 38.9 58.2 C40.6 58.2 44 58.2 45.7 58.2 C42.7 62.5 36.7 71.2 33.7 75.5 C31.3 75.5 28.3 75.5 26.5 75.5 C23.5 71.2 17.5 62.5 14.5 58.2 zM35.8 1 C38.5 2.5 40.7 4.7 42.3 7.7 C42.5 5.8 43 1.9 43.2 0 C45.9 0 49.275 0 51.3 0 C51.3 12.825 51.3 38.475 51.3 51.3 C49.05 51.3 44.55 51.3 42.3 51.3 C42.3 44.05 42.3 29.55 42.3 22.3 C42.3 17.1 41.1 13 38.9 10.2 C36.7 7.4 33.4 6 29.2 6 C27.2 6 25.6 6.3 24.3 6.9 C23 7.5 21.9 8.3 21.1 9.3 C19.3 11.4 18.5 14.8 18.5 19.5 C18.5 30.1 18.5 43.35 18.5 51.3 C16.25 51.3 11.75 51.3 9.5 51.3 C9.5 43.35 9.5 27.45 9.5 19.5 C9.5 12.5 10.9 7.3 13.6 3.9 C16.3 0.4 20.5 -1.3 26.1 -1.3 C29.8 -1.3 33 -0.5 35.8 1 z" />
<glyph unicode="" horiz-adv-x="60.200000000000003" d="M24 62 C25 62 25.5 62.4 25.5 63.3 C25.5 65.5 25.5 68.25 25.5 69.9 C25.5 70.8 25 71.2 24 71.2 C21.66667 71.2 18.75 71.2 17 71.2 C16 71.2 15.6 70.8 15.6 69.9 C15.6 67.7 15.6 64.95 15.6 63.3 C15.6 62.4 16 62 17 62 C19.33333 62 22.25 62 24 62 zM43.1 62 C44.1 62 44.6 62.4 44.6 63.3 C44.6 65.5 44.6 68.25 44.6 69.9 C44.6 70.8 44.1 71.2 43.1 71.2 C40.8 71.2 37.925 71.2 36.2 71.2 C35.2 71.2 34.7 70.8 34.7 69.9 C34.7 67.7 34.7 64.95 34.7 63.3 C34.7 62.4 35.2 62 36.2 62 C38.5 62 41.375 62 43.1 62 zM35.8 1 C38.5 2.5 40.7 4.7 42.3 7.7 C42.5 5.8 43 1.9 43.2 0 C45.9 0 49.275 0 51.3 0 C51.3 12.825 51.3 38.475 51.3 51.3 C49.05 51.3 44.55 51.3 42.3 51.3 C42.3 44.05 42.3 29.55 42.3 22.3 C42.3 17.1 41.1 13 38.9 10.2 C36.7 7.4 33.4 6 29.2 6 C27.2 6 25.6 6.3 24.3 6.9 C23 7.5 21.9 8.3 21.1 9.3 C19.3 11.4 18.5 14.8 18.5 19.5 C18.5 30.1 18.5 43.35 18.5 51.3 C16.25 51.3 11.75 51.3 9.5 51.3 C9.5 43.35 9.5 27.45 9.5 19.5 C9.5 12.5 10.9 7.3 13.6 3.9 C16.3 0.4 20.5 -1.3 26.1 -1.3 C29.8 -1.3 33 -0.5 35.8 1 z" />
<glyph unicode="" horiz-adv-x="60.200000000000003" d="M23.2 58.3 C25.075 58.3 28.825 58.3 30.7 58.3 C34.7 62.6 42.6 71.2 46.6 75.5 C43.36667 75.5 39.325 75.5 36.9 75.5 C33.5 71.2 26.6 62.6 23.2 58.3 zM9 -19.6 C10.8 -19.6 14.4 -19.6 16.2 -19.6 C17.5 -19.6 18.9 -19.4 20.3 -19.1 C21.7 -18.8 23 -18.4 24.1 -17.8 C25 -17.3 26 -16.7 26.8 -15.9 C27.6 -15.1 28.6 -14 29.6 -12.3 C30.3 -11.1 31.1 -9.4 32.2 -7.3 C33.3 -5.2 34.6 -1.9 36.2 2.4 C36.5 3.3 36.8 4.1 37.1 5 C37.5 5.9 38 7.1 38.7 8.8 C39.4 10.5 40.5 13.1 41.9 16.5 C45.5 25.2 52.7 42.7 56.3 51.4 C53.13333 51.4 49.175 51.4 46.8 51.4 C42.8 41.3 34.8 21.3 30.8 11.2 C26.7 21.3 18.7 41.3 14.6 51.4 C11.43333 51.4 7.475 51.4 5.1 51.4 C10.4 38.8 19.2 17.7 26.2 0.8 C24.9 -2.5 23.8 -5 22.9 -6.7 C22 -8.4 21.2 -9.6 20.5 -10.3 C19.8 -10.9 19 -11.5 18 -11.9 C17 -12.3 15.8 -12.5 14.3 -12.5 C12.53333 -12.5 10.325 -12.5 9 -12.5 C9 -14.275 9 -17.825 9 -19.6 z" />
<glyph unicode="" horiz-adv-x="60.200000000000003" d="M9.3 -19.6 C11.55 -19.6 16.05 -19.6 18.3 -19.6 C18.3 -13.075 18.3 -0.025 18.3 6.5 C19.7 4 21.7 2.1 24.2 0.7 C25.4 0.1 26.7 -0.4 28.1 -0.8 C29.5 -1.2 31 -1.3 32.9 -1.3 C39.5 -1.3 44.6 1 48.4 5.8 C52.2 10.5 54.1 17.2 54.1 25.6 C54.1 34 52.3 40.6 48.5 45.4 C44.7 50.2 39.6 52.6 33 52.6 C26.4 52.6 21.4 50 18.3 44.8 C18.3 53.83333 18.3 65.125 18.3 71.9 C16.05 71.9 11.55 71.9 9.3 71.9 C9.3 49.025 9.3 3.275 9.3 -19.6 zM21.7 10.9 C19.5 14.2 18.3 19.2 18.3 25.7 C18.3 32.2 19.5 37.1 21.7 40.5 C23.9 43.8 27.2 45.5 31.6 45.5 C40.3 45.5 44.7 38.9 44.7 25.7 C44.7 12.5 40.3 5.8 31.6 5.8 C27.2 5.8 23.9 7.5 21.7 10.9 z" />
<glyph unicode="" horiz-adv-x="60.200000000000003" d="M24 60.6 C25 60.6 25.5 61.1 25.5 62 C25.5 64.16667 25.5 66.875 25.5 68.5 C25.5 69.4 25 69.9 24 69.9 C21.66667 69.9 18.75 69.9 17 69.9 C16 69.9 15.6 69.4 15.6 68.5 C15.6 66.33333 15.6 63.625 15.6 62 C15.6 61.1 16 60.6 17 60.6 C19.33333 60.6 22.25 60.6 24 60.6 zM43.1 60.6 C44.1 60.6 44.6 61.1 44.6 62 C44.6 64.16667 44.6 66.875 44.6 68.5 C44.6 69.4 44.1 69.9 43.1 69.9 C40.8 69.9 37.925 69.9 36.2 69.9 C35.2 69.9 34.7 69.4 34.7 68.5 C34.7 66.33333 34.7 63.625 34.7 62 C34.7 61.1 35.2 60.6 36.2 60.6 C38.5 60.6 41.375 60.6 43.1 60.6 zM9 -19.6 C10.8 -19.6 14.4 -19.6 16.2 -19.6 C19.2 -19.6 21.9 -19 24.1 -17.8 C25.4 -17.1 26.4 -16.3 27.3 -15.4 C28.2 -14.5 29 -13.5 29.7 -12.3 C30.1 -11.5 30.6 -10.5 30.9 -9.9 C31.4 -8.9 32.2 -7.4 33 -5.5 C33.8 -3.6 34.9 -0.9 36.2 2.4 C36.8 4 37.2 5.2 37.5 5.9 C37.8 6.7 38.1 7.2 38.2 7.6 C38.3 8 38.6 8.5 38.8 9 C39 9.5 39.3 10.4 39.8 11.5 C40.3 12.6 41 14.2 41.9 16.5 C45.5 25.2 52.7 42.7 56.3 51.4 C53.13333 51.4 49.175 51.4 46.8 51.4 C42.8 41.3 34.8 21.3 30.8 11.2 C26.7 21.3 18.7 41.3 14.6 51.4 C11.43333 51.4 7.475 51.4 5.1 51.4 C10.4 38.8 19.2 17.7 26.2 0.8 C24.9 -2.5 23.8 -5 22.9 -6.7 C22 -8.4 21.2 -9.6 20.5 -10.3 C19.8 -10.9 19 -11.5 18 -11.9 C17 -12.3 15.8 -12.5 14.3 -12.5 C12.53333 -12.5 10.325 -12.5 9 -12.5 C9 -14.275 9 -17.825 9 -19.6 z" />
<glyph unicode="" horiz-adv-x="60.200000000000003" d="M15.5 75.8 C22.8 75.8 37.4 75.8 44.7 75.8 C44.7 77.5 44.7 80.9 44.7 82.6 C37.4 82.6 22.8 82.6 15.5 82.6 C15.5 80.9 15.5 77.5 15.5 75.8 zM1.8 0 C4.35 0 9.45 0 12 0 C13.3 4.5 16 13.4 17.3 17.9 C25.8 17.9 36.425 17.9 42.8 17.9 C44.1 13.4 46.9 4.5 48.2 0 C51.6 0 55.85 0 58.4 0 C52.8 17.1 41.7 51.4 36.1 68.5 C32.1 68.5 27.1 68.5 24.1 68.5 C18.5 51.4 7.4 17.1 1.8 0 zM19.7 25.3 C22.3 34.1 27.5 51.6 30.1 60.4 C32.7 51.6 37.9 34.1 40.5 25.3 C33.56667 25.3 24.9 25.3 19.7 25.3 z" />
<glyph unicode="" horiz-adv-x="60.200000000000003" d="M15.6 61.9 C22.9 61.9 37.5 61.9 44.8 61.9 C44.8 63.6 44.8 67 44.8 68.7 C37.5 68.7 22.9 68.7 15.6 68.7 C15.6 67 15.6 63.6 15.6 61.9 zM35.6 0.9 C37 1.6 38.5 2.5 40 3.7 C41.5 4.9 42.7 6.3 43.6 7.8 C43.7 7.3 43.8 6.7 43.9 6 C44 5.3 44.2 4.7 44.4 4 C44.9 2.3 45.3 0.9 45.7 0 C48.7 0 52.45 0 54.7 0 C54.6 0.2 54.5 0.7 54.2 1.5 C53.9 2.3 53.6 3.3 53.4 4.2 C53.2 4.8 53.1 5.6 52.9 6.7 C52.7 7.8 52.5 9.1 52.3 10.4 C52.1 11.6 52 12.8 52 14.1 C52 15.4 52 17 51.9 18.8 C51.9 22.3 51.9 26.675 51.9 29.3 C51.9 33.9 51.6 37.3 51.1 39.5 C50.9 40.4 50.5 41.4 50.1 42.4 C49.7 43.4 49.1 44.3 48.4 45.2 C47.5 46.4 46.4 47.5 45 48.4 C43.6 49.3 42.2 50.1 40.7 50.7 C37.4 52 33.7 52.6 29.2 52.6 C26.1 52.6 23.1 52.4 20.2 51.8 C18.5 51.5 16.9 51 15.2 50.5 C13.5 50 12 49.6 10.6 49.1 C10.6 46.26667 10.6 42.725 10.6 40.6 C13.5 42.2 16.6 43.4 19.8 44.2 C22.9 45 26 45.5 29.1 45.5 C33.9 45.5 37.4 44.5 39.5 42.7 C41.7 40.8 42.8 37.9 42.8 33.8 C42.8 33.36667 42.8 32.825 42.8 32.5 C39.8 32.5 33.8 32.5 30.8 32.5 C22.9 32.5 16.8 31 12.8 28 C8.7 25 6.6 20.7 6.6 15 C6.6 12.3 7.1 10 8 8.1 C8.9 6.2 10 4.5 11.6 3.1 C14.9 0.1 19.3 -1.3 25 -1.3 C29 -1.3 32.6 -0.6 35.6 0.9 zM22 6.4 C20.6 6.9 19.5 7.5 18.6 8.3 C16.6 10 15.6 12.4 15.6 15.5 C15.6 19 16.9 21.6 19.6 23.3 C22.3 25 26.2 25.8 31.4 25.8 C35.2 25.8 39.95 25.8 42.8 25.8 C42.8 25.35 42.8 24.45 42.8 24 C42.8 18.4 41.4 13.9 38.5 10.6 C35.7 7.4 31.8 5.7 26.9 5.7 C25 5.7 23.4 5.9 22 6.4 z" />
<glyph unicode="" horiz-adv-x="60.200000000000003" d="M45.4 84 C43.95 84 41.05 84 39.6 84 C38.6 80.6 35.5 78.9 30.2 78.9 C24.6 78.9 21.4 80.6 20.6 84 C18.66667 84 16.25 84 14.8 84 C15.5 76.6 20.7 72.9 30.1 72.9 C39.6 72.9 44.7 76.6 45.4 84 zM1.8 0 C4.35 0 9.45 0 12 0 C13.3 4.5 16 13.4 17.3 17.9 C25.8 17.9 36.425 17.9 42.8 17.9 C44.1 13.4 46.9 4.5 48.2 0 C51.6 0 55.85 0 58.4 0 C52.8 17.1 41.7 51.4 36.1 68.5 C32.1 68.5 27.1 68.5 24.1 68.5 C18.5 51.4 7.4 17.1 1.8 0 zM19.7 25.3 C22.3 34.1 27.5 51.6 30.1 60.4 C32.7 51.6 37.9 34.1 40.5 25.3 C33.56667 25.3 24.9 25.3 19.7 25.3 z" />
<glyph unicode="" horiz-adv-x="60.200000000000003" d="M45.6 72.7 C44.125 72.7 41.175 72.7 39.7 72.7 C38.8 68.1 35.7 65.8 30.2 65.8 C27.2 65.8 25 66.4 23.5 67.6 C22 68.8 21.2 70.5 20.8 72.7 C18.83333 72.7 16.375 72.7 14.9 72.7 C15.6 63.9 20.8 59.5 30.2 59.5 C39.7 59.5 44.9 63.9 45.6 72.7 zM35.6 0.9 C37 1.6 38.5 2.5 40 3.7 C41.5 4.9 42.7 6.3 43.6 7.8 C43.7 7.3 43.8 6.7 43.9 6 C44 5.3 44.2 4.7 44.4 4 C44.9 2.3 45.3 0.9 45.7 0 C48.7 0 52.45 0 54.7 0 C54.6 0.2 54.5 0.7 54.2 1.5 C53.9 2.3 53.6 3.3 53.4 4.2 C53.2 4.8 53.1 5.6 52.9 6.7 C52.7 7.8 52.5 9.1 52.3 10.4 C52.1 11.6 52 12.8 52 14.1 C52 15.4 52 17 51.9 18.8 C51.9 22.3 51.9 26.675 51.9 29.3 C51.9 33.9 51.6 37.3 51.1 39.5 C50.9 40.4 50.5 41.4 50.1 42.4 C49.7 43.4 49.1 44.3 48.4 45.2 C47.5 46.4 46.4 47.5 45 48.4 C43.6 49.3 42.2 50.1 40.7 50.7 C37.4 52 33.7 52.6 29.2 52.6 C26.1 52.6 23.1 52.4 20.2 51.8 C18.5 51.5 16.9 51 15.2 50.5 C13.5 50 12 49.6 10.6 49.1 C10.6 46.26667 10.6 42.725 10.6 40.6 C13.5 42.2 16.6 43.4 19.8 44.2 C22.9 45 26 45.5 29.1 45.5 C33.9 45.5 37.4 44.5 39.5 42.7 C41.7 40.8 42.8 37.9 42.8 33.8 C42.8 33.36667 42.8 32.825 42.8 32.5 C39.8 32.5 33.8 32.5 30.8 32.5 C22.9 32.5 16.8 31 12.8 28 C8.7 25 6.6 20.7 6.6 15 C6.6 12.3 7.1 10 8 8.1 C8.9 6.2 10 4.5 11.6 3.1 C14.9 0.1 19.3 -1.3 25 -1.3 C29 -1.3 32.6 -0.6 35.6 0.9 zM22 6.4 C20.6 6.9 19.5 7.5 18.6 8.3 C16.6 10 15.6 12.4 15.6 15.5 C15.6 19 16.9 21.6 19.6 23.3 C22.3 25 26.2 25.8 31.4 25.8 C35.2 25.8 39.95 25.8 42.8 25.8 C42.8 25.35 42.8 24.45 42.8 24 C42.8 18.4 41.4 13.9 38.5 10.6 C35.7 7.4 31.8 5.7 26.9 5.7 C25 5.7 23.4 5.9 22 6.4 z" />
<glyph unicode="" horiz-adv-x="60.200000000000003" d="M49.5 -8.4 C49.5 -7.4 49.8 -6.2 50.5 -4.9 C51.2 -3.6 52.2 -2 53.8 0 C55.33333 0 57.25 0 58.4 0 C52.8 17.1 41.7 51.4 36.1 68.5 C32.1 68.5 27.1 68.5 24.1 68.5 C18.5 51.4 7.4 17.1 1.8 0 C5.2 0 9.45 0 12 0 C13.3 4.5 16 13.4 17.3 17.9 C25.8 17.9 36.425 17.9 42.8 17.9 C44.1 13.4 46.9 4.5 48.2 0 C48.13333 0 48.05 0 48 0 C46 -2.1 44.7 -4 43.9 -5.6 C43.1 -7.2 42.7 -8.7 42.7 -10.2 C42.7 -15.5 46.5 -18.1 54 -18.1 C55.1 -18.1 56 -18 56.8 -17.9 C57.6 -17.8 58.8 -17.6 60.2 -17.2 C60.2 -15.16667 60.2 -12.625 60.2 -11.1 C59.2 -11.6 58.3 -11.9 57.5 -12.1 C56.7 -12.3 55.9 -12.5 54.9 -12.5 C51.3 -12.5 49.5 -11.1 49.5 -8.4 zM19.7 25.3 C22.3 34.1 27.5 51.6 30.1 60.4 C32.7 51.6 37.9 34.1 40.5 25.3 C33.56667 25.3 24.9 25.3 19.7 25.3 z" />
<glyph unicode="" horiz-adv-x="60.200000000000003" d="M47.3 -8.3 C47.3 -7.3 47.6 -6.2 48.2 -4.9 C48.8 -3.6 50 -2 51.5 0 C52.56667 0 53.9 0 54.7 0 C54.6 0.2 54.5 0.7 54.2 1.5 C53.9 2.3 53.6 3.3 53.4 4.2 C53.2 4.8 53.1 5.6 52.9 6.7 C52.7 7.8 52.5 9.1 52.3 10.4 C52.1 11.6 52 12.8 52 14.1 C52 15.4 52 17 51.9 18.8 C51.9 22.3 51.9 26.675 51.9 29.3 C51.9 33.9 51.6 37.3 51.1 39.5 C50.9 40.4 50.5 41.4 50.1 42.4 C49.7 43.4 49.1 44.3 48.4 45.2 C47.5 46.4 46.4 47.5 45 48.4 C43.6 49.3 42.2 50.1 40.7 50.7 C37.4 52 33.7 52.6 29.2 52.6 C26.1 52.6 23.1 52.4 20.2 51.8 C18.5 51.5 16.9 51 15.2 50.5 C13.5 50 12 49.6 10.6 49.1 C10.6 46.26667 10.6 42.725 10.6 40.6 C13.5 42.2 16.6 43.4 19.8 44.2 C22.9 45 26 45.5 29.1 45.5 C33.9 45.5 37.4 44.5 39.5 42.7 C41.7 40.8 42.8 37.9 42.8 33.8 C42.8 33.36667 42.8 32.825 42.8 32.5 C39.8 32.5 33.8 32.5 30.8 32.5 C22.9 32.5 16.8 31 12.8 28 C8.7 25 6.6 20.7 6.6 15 C6.6 12.3 7.1 10 8 8.1 C8.9 6.2 10 4.5 11.6 3.1 C14.9 0.1 19.3 -1.3 25 -1.3 C29 -1.3 32.6 -0.6 35.6 0.9 C37 1.6 38.5 2.5 40 3.7 C41.5 4.9 42.7 6.3 43.6 7.8 C43.7 7.3 43.8 6.7 43.9 6 C44 5.3 44.2 4.7 44.4 4 C44.9 2.2 45.3 0.9 45.7 0 C43.7 -2.1 42.3 -3.9 41.6 -5.4 C40.9 -6.9 40.5 -8.5 40.5 -10 C40.5 -12.7 41.5 -14.7 43.4 -16 C45.3 -17.3 48.1 -18 51.7 -18 C52.9 -18 54.1 -17.9 55.1 -17.8 C56.1 -17.7 57.3 -17.4 58.7 -17.1 C58.7 -15.06667 58.7 -12.525 58.7 -11 C56.7 -11.9 54.6 -12.3 52.6 -12.3 C49 -12.3 47.3 -11 47.3 -8.3 zM42.8 24 C42.8 18.4 41.4 13.9 38.5 10.6 C35.7 7.4 31.8 5.7 26.9 5.7 C25 5.7 23.4 5.9 22 6.4 C20.6 6.9 19.5 7.5 18.6 8.3 C16.6 10 15.6 12.4 15.6 15.5 C15.6 19 16.9 21.6 19.6 23.3 C22.3 25 26.2 25.8 31.4 25.8 C35.2 25.8 39.95 25.8 42.8 25.8 C42.8 25.35 42.8 24.45 42.8 24 z" />
<glyph unicode="" horiz-adv-x="60.200000000000003" d="M27.6 72.9 C29.475 72.9 33.225 72.9 35.1 72.9 C37.9 75.9 43.5 82 46.3 85 C43.26667 85 39.475 85 37.2 85 C34.8 82 30 75.9 27.6 72.9 zM44.7 -0.4 C47.3 0.2 49.8 1.1 52.4 2.4 C52.4 5.56667 52.4 9.525 52.4 11.9 C50 10 47.4 8.7 44.7 7.7 C41.9 6.7 39 6.2 36.2 6.2 C32.9 6.2 30.1 6.8 27.7 8 C25.3 9.2 23.4 11 21.9 13.2 C18.7 17.9 17.1 24.8 17.1 34.2 C17.1 43.6 18.7 50.6 21.9 55.3 C25.1 60 29.9 62.2 36.2 62.2 C39 62.2 41.8 61.8 44.6 60.8 C47.4 59.8 50 58.4 52.4 56.5 C52.4 59.66667 52.4 63.625 52.4 66 C49.8 67.3 47.3 68.2 44.7 68.8 C42.1 69.4 39.2 69.8 36.2 69.8 C27 69.8 19.8 66.6 14.6 60.4 C12 57.2 10 53.5 8.7 49.1 C7.4 44.7 6.8 39.6 6.8 34.1 C6.8 22.9 9.4 14.3 14.5 8 C19.7 1.8 26.9 -1.3 36.2 -1.3 C39.2 -1.3 42.1 -1 44.7 -0.4 z" />
<glyph unicode="" horiz-adv-x="60.200000000000003" d="M26.1 59.5 C27.975 59.5 31.725 59.5 33.6 59.5 C37.6 63.8 45.5 72.5 49.5 76.8 C46.26667 76.8 42.225 76.8 39.8 76.8 C36.4 72.5 29.5 63.8 26.1 59.5 zM39.1 -1.1 C40.5 -0.9 41.8 -0.7 42.9 -0.4 C44.1 -0.1 45.4 0.4 46.7 0.9 C48 1.4 49.2 2 50.3 2.6 C50.3 5.53333 50.3 9.2 50.3 11.4 C49.3 10.5 48.3 9.7 47.2 9 C46.1 8.3 44.9 7.7 43.4 7.2 C42.3 6.8 41.1 6.4 39.7 6.2 C38.3 6 36.8 5.8 35.2 5.8 C29.5 5.8 25.1 7.5 22 11 C20.4 12.8 19.2 15 18.5 17.5 C17.8 20 17.5 22.8 17.5 25.7 C17.5 32 19 36.8 22 40.3 C25 43.7 29.4 45.5 35.1 45.5 C38 45.5 40.7 45.1 43.2 44.2 C45.5 43.4 47.8 41.9 50.3 39.8 C50.3 42.76667 50.3 46.475 50.3 48.7 C47.6 50.1 45.1 51.1 42.7 51.7 C40.4 52.3 37.8 52.6 34.8 52.6 C26.5 52.6 20 50.2 15.2 45.5 C12.9 43.2 11.2 40.5 9.9 37.2 C8.6 33.9 8 30.1 8 25.7 C8 17.3 10.4 10.7 15.2 5.9 C20 1.1 26.5 -1.3 34.8 -1.3 C36.4 -1.3 37.7 -1.3 39.1 -1.1 z" />
<glyph unicode="" horiz-adv-x="60.200000000000003" d="M18.1 72.8 C19.825 72.8 23.275 72.8 25 72.8 C27 74.8 31 79 33 81 C35 79 39.1 74.8 41.1 72.8 C43.36667 72.8 46.2 72.8 47.9 72.8 C45.3 75.9 40.2 81.9 37.6 85 C34.53333 85 30.7 85 28.4 85 C25.8 81.9 20.7 75.9 18.1 72.8 zM36.2 -1.3 C39.2 -1.3 42 -1 44.6 -0.4 C47.2 0.2 49.8 1.1 52.4 2.4 C52.4 5.56667 52.4 9.525 52.4 11.9 C47.5 8.1 42.1 6.2 36.2 6.2 C23.4 6.2 17.1 15.5 17.1 34.2 C17.1 52.9 23.5 62.2 36.2 62.2 C42.1 62.2 47.5 60.3 52.4 56.5 C52.4 59.66667 52.4 63.625 52.4 66 C47.4 68.5 42 69.8 36.2 69.8 C27 69.8 19.8 66.6 14.6 60.4 C9.4 54.2 6.8 45.4 6.8 34.1 C6.8 23 9.4 14.3 14.5 8 C19.7 1.8 26.9 -1.3 36.2 -1.3 z" />
<glyph unicode="" horiz-adv-x="60.200000000000003" d="M16.2 59.5 C17.9 59.5 21.3 59.5 23 59.5 C25.2 62.3 29.6 68 31.8 70.8 C34 68 38.4 62.3 40.6 59.5 C42.86667 59.5 45.7 59.5 47.4 59.5 C44.4 63.8 38.4 72.5 35.4 76.8 C33 76.8 30 76.8 28.2 76.8 C25.2 72.5 19.2 63.8 16.2 59.5 zM34.8 -1.3 C40.5 -1.3 45.7 0 50.3 2.6 C50.3 5.53333 50.3 9.2 50.3 11.4 C49.2 10.4 48.1 9.6 47 8.9 C45.9 8.2 44.7 7.7 43.4 7.2 C41 6.3 38.3 5.8 35.2 5.8 C29.5 5.8 25.2 7.6 22.1 11 C19 14.4 17.5 19.3 17.5 25.7 C17.5 32 19 36.9 22 40.3 C25 43.7 29.4 45.5 35.1 45.5 C38.1 45.5 40.7 45.1 43.1 44.2 C45.5 43.3 47.9 41.8 50.3 39.8 C50.3 42.76667 50.3 46.475 50.3 48.7 C47.6 50.1 45.1 51.1 42.7 51.7 C40.3 52.3 37.7 52.6 34.8 52.6 C26.5 52.6 20 50.3 15.2 45.5 C10.4 40.7 8 34.1 8 25.7 C8 17.3 10.3 10.6 15.1 5.8 C19.8 1 26.4 -1.3 34.8 -1.3 z" />
<glyph unicode="" horiz-adv-x="60.200000000000003" d="M37.3 75.6 C38.3 75.6 38.7 76.1 38.7 77 C38.7 79.2 38.7 81.95 38.7 83.6 C38.7 84.5 38.3 85 37.3 85 C34.93333 85 31.975 85 30.2 85 C29.2 85 28.7 84.5 28.7 83.6 C28.7 81.4 28.7 78.65 28.7 77 C28.7 76.1 29.2 75.6 30.2 75.6 C32.56667 75.6 35.525 75.6 37.3 75.6 zM52.4 2.4 C52.4 4.775 52.4 9.525 52.4 11.9 C47.5 8.1 42.1 6.2 36.1 6.2 C23.4 6.2 17.1 15.5 17.1 34.2 C17.1 52.9 23.4 62.2 36.1 62.2 C39.1 62.2 42.1 61.7 44.8 60.7 C47.5 59.7 50 58.3 52.4 56.5 C52.4 59.66667 52.4 63.625 52.4 66 C47.5 68.5 42.1 69.8 36.4 69.8 C27 69.8 19.8 66.7 14.6 60.4 C9.4 54.1 6.8 45.3 6.8 34.1 C6.8 22.9 9.3 14.2 14.5 8 C19.7 1.8 26.9 -1.3 36.3 -1.3 C42.1 -1.3 47.5 -0.1 52.4 2.4 z" />
<glyph unicode="" horiz-adv-x="60.200000000000003" d="M35.7 61.9 C36.7 61.9 37.2 62.3 37.2 63.2 C37.2 65.43333 37.2 68.225 37.2 69.9 C37.2 70.8 36.7 71.2 35.7 71.2 C33.36667 71.2 30.45 71.2 28.7 71.2 C27.7 71.2 27.2 70.8 27.2 69.9 C27.2 67.66667 27.2 64.875 27.2 63.2 C27.2 62.3 27.7 61.9 28.7 61.9 C31.03333 61.9 33.95 61.9 35.7 61.9 zM50.3 2.6 C50.3 4.8 50.3 9.2 50.3 11.4 C46.2 7.7 41.1 5.8 35 5.8 C29.4 5.8 25 7.6 22 11 C19 14.4 17.5 19.3 17.5 25.7 C17.5 32.1 19 37 22 40.4 C25 43.8 29.3 45.5 35 45.5 C38 45.5 40.7 45.1 43.1 44.2 C45.5 43.3 47.9 41.8 50.3 39.8 C50.3 42.76667 50.3 46.475 50.3 48.7 C47.8 50.1 45.2 51.1 42.7 51.7 C40.2 52.3 37.6 52.6 35 52.6 C26.5 52.6 20 50.3 15.2 45.5 C10.4 40.7 8 34.1 8 25.7 C8 17.3 10.4 10.6 15.2 5.8 C20 1 26.5 -1.3 35 -1.3 C40.3 -1.3 45.4 0 50.3 2.6 z" />
<glyph unicode="" horiz-adv-x="60.200000000000003" d="M29.9 72.8 C32.2 72.8 36.8 72.8 39.1 72.8 C41.7 75.9 46.8 81.9 49.4 85 C47.13333 85 44.3 85 42.6 85 C40.6 83 36.5 78.8 34.5 76.8 C32.5 78.8 28.4 83 26.4 85 C24.13333 85 21.3 85 19.6 85 C22.2 81.9 27.3 75.9 29.9 72.8 zM44.7 -0.4 C47.3 0.2 49.8 1.1 52.4 2.4 C52.4 5.56667 52.4 9.525 52.4 11.9 C50 10 47.4 8.7 44.7 7.7 C41.9 6.7 39 6.2 36.2 6.2 C32.9 6.2 30.1 6.8 27.7 8 C25.3 9.2 23.4 11 21.9 13.2 C18.7 17.9 17.1 24.8 17.1 34.2 C17.1 43.6 18.7 50.6 21.9 55.3 C25.1 60 29.9 62.2 36.2 62.2 C39 62.2 41.8 61.8 44.6 60.8 C47.4 59.8 50 58.4 52.4 56.5 C52.4 59.66667 52.4 63.625 52.4 66 C49.8 67.3 47.3 68.2 44.7 68.8 C42.1 69.4 39.2 69.8 36.2 69.8 C27 69.8 19.8 66.6 14.6 60.4 C12 57.2 10 53.5 8.7 49.1 C7.4 44.7 6.8 39.6 6.8 34.1 C6.8 22.9 9.4 14.3 14.5 8 C19.7 1.8 26.9 -1.3 36.2 -1.3 C39.2 -1.3 42.1 -1 44.7 -0.4 z" />
<glyph unicode="" horiz-adv-x="60.200000000000003" d="M29.4 59.5 C31.2 59.5 34.8 59.5 36.6 59.5 C39.6 63.8 45.6 72.5 48.6 76.8 C46.33333 76.8 43.5 76.8 41.8 76.8 C39.6 74 35.2 68.3 33 65.5 C30.8 68.3 26.4 74 24.2 76.8 C21.93333 76.8 19.1 76.8 17.4 76.8 C20.4 72.5 26.4 63.8 29.4 59.5 zM39.1 -1.1 C40.5 -0.9 41.8 -0.7 42.9 -0.4 C44.1 -0.1 45.4 0.4 46.7 0.9 C48 1.4 49.2 2 50.3 2.6 C50.3 5.53333 50.3 9.2 50.3 11.4 C49.3 10.5 48.3 9.7 47.2 9 C46.1 8.3 44.9 7.7 43.4 7.2 C42.3 6.8 41.1 6.4 39.7 6.2 C38.3 6 36.8 5.8 35.2 5.8 C29.5 5.8 25.1 7.5 22 11 C20.4 12.8 19.2 15 18.5 17.5 C17.8 20 17.5 22.8 17.5 25.7 C17.5 32 19 36.8 22 40.3 C25 43.7 29.4 45.5 35.1 45.5 C38 45.5 40.7 45.1 43.2 44.2 C45.5 43.4 47.8 41.9 50.3 39.8 C50.3 42.76667 50.3 46.475 50.3 48.7 C47.6 50.1 45.1 51.1 42.7 51.7 C40.4 52.3 37.8 52.6 34.8 52.6 C26.5 52.6 20 50.2 15.2 45.5 C12.9 43.2 11.2 40.5 9.9 37.2 C8.6 33.9 8 30.1 8 25.7 C8 17.3 10.4 10.7 15.2 5.9 C20 1.1 26.5 -1.3 34.8 -1.3 C36.4 -1.3 37.7 -1.3 39.1 -1.1 z" />
<glyph unicode="" horiz-adv-x="60.200000000000003" d="M21.7 72.8 C24 72.8 28.6 72.8 30.9 72.8 C33.5 75.9 38.6 81.9 41.2 85 C38.93333 85 36.1 85 34.4 85 C32.4 83 28.3 78.8 26.3 76.8 C24.3 78.8 20.2 83 18.2 85 C15.93333 85 13.1 85 11.4 85 C14 81.9 19.1 75.9 21.7 72.8 zM6.7 0 C10.4 0 17.8 0 21.5 0 C32.6 0 40.8 2.8 46.1 8.4 C51.4 14 54 22.6 54 34.3 C54 46 51.4 54.6 46.1 60.2 C40.8 65.8 32.6 68.5 21.5 68.5 C16.56667 68.5 10.4 68.5 6.7 68.5 C6.7 51.375 6.7 17.125 6.7 0 zM16.6 7.6 C16.6 20.925 16.6 47.575 16.6 60.9 C17.775 60.9 20.125 60.9 21.3 60.9 C26.8 60.9 31.2 60.1 34.5 58.4 C37.8 56.8 40.1 54.1 41.5 50.2 C42.9 46.3 43.6 40.9 43.6 34.2 C43.6 27.5 42.9 22.3 41.5 18.4 C40.1 14.5 37.8 11.8 34.5 10.1 C31.2 8.4 26.8 7.6 21.3 7.6 C19.73333 7.6 17.775 7.6 16.6 7.6 z" />
<glyph unicode="" horiz-adv-x="60.200000000000003" d="M51 54.2 C52.875 54.2 56.625 54.2 58.5 54.2 C59.9 58.5 62.7 67.2 64.1 71.5 C60.86667 71.5 56.825 71.5 54.4 71.5 C53.6 67.2 51.8 58.5 51 54.2 zM40.4 6.5 C40.6 4.9 41.1 1.6 41.3 0 C44 0 47.375 0 49.4 0 C49.4 17.85 49.4 53.55 49.4 71.4 C47.15 71.4 42.65 71.4 40.4 71.4 C40.4 64.75 40.4 51.45 40.4 44.8 C37.4 50 32.5 52.6 25.7 52.6 C19.2 52.6 14.1 50.3 10.3 45.5 C6.5 40.7 4.5 34.1 4.5 25.7 C4.5 17.3 6.4 10.7 10.2 5.9 C14 1.1 19.2 -1.3 25.7 -1.3 C32.5 -1.3 37.4 1.3 40.4 6.5 zM14 25.7 C14 38.9 18.3 45.5 27.1 45.5 C36 45.5 40.4 38.9 40.4 25.7 C40.4 12.5 36 5.8 27.1 5.8 C18.3 5.8 14 12.5 14 25.7 z" />
<glyph unicode="" horiz-adv-x="60.200000000000003" d="M6.5 0 C10.2 0 17.6 0 21.3 0 C32.4 0 40.6 2.8 45.9 8.4 C51.2 14 53.8 22.5 53.8 34.2 C53.8 45.9 51.2 54.6 45.9 60.2 C40.6 65.8 32.4 68.5 21.3 68.5 C16.36667 68.5 10.2 68.5 6.5 68.5 C6.5 61.225 6.5 46.675 6.5 39.4 C4.975 39.4 1.925 39.4 0.4 39.4 C0.4 37.675 0.4 34.225 0.4 32.5 C1.925 32.5 4.975 32.5 6.5 32.5 C6.5 24.375 6.5 8.125 6.5 0 zM16.6 7.6 C16.6 13.825 16.6 26.275 16.6 32.5 C19.825 32.5 26.275 32.5 29.5 32.5 C29.5 34.225 29.5 37.675 29.5 39.4 C26.275 39.4 19.825 39.4 16.6 39.4 C16.6 44.775 16.6 55.525 16.6 60.9 C17.775 60.9 20.125 60.9 21.3 60.9 C26.8 60.9 31.2 60.1 34.5 58.4 C37.8 56.8 40.1 54.1 41.5 50.2 C42.9 46.3 43.6 40.9 43.6 34.2 C43.6 27.5 42.9 22.3 41.5 18.4 C40.1 14.5 37.8 11.8 34.5 10.1 C31.2 8.4 26.8 7.6 21.3 7.6 C19.73333 7.6 17.775 7.6 16.6 7.6 z" />
<glyph unicode="" horiz-adv-x="60.200000000000003" d="M35.9 0.7 C37.2 1.4 38.5 2.2 39.4 3.2 C40.3 4.2 41.2 5.3 41.9 6.5 C42.1 4.9 42.6 1.6 42.8 0 C45.5 0 48.875 0 50.9 0 C50.9 14.75 50.9 44.25 50.9 59 C53.225 59 57.875 59 60.2 59 C60.2 60.4 60.2 63.2 60.2 64.6 C57.875 64.6 53.225 64.6 50.9 64.6 C50.9 66.3 50.9 69.7 50.9 71.4 C48.65 71.4 44.15 71.4 41.9 71.4 C41.9 69.7 41.9 66.3 41.9 64.6 C38.175 64.6 30.725 64.6 27 64.6 C27 63.2 27 60.4 27 59 C30.725 59 38.175 59 41.9 59 C41.9 55.45 41.9 48.35 41.9 44.8 C40.5 47.3 38.5 49.4 36 50.7 C33.5 52 30.6 52.6 27.3 52.6 C20.8 52.6 15.5 50.3 11.7 45.5 C7.9 40.7 6 34.1 6 25.8 C6 17.4 7.9 10.7 11.7 5.9 C13.5 3.6 15.6 1.9 18.2 0.6 C20.8 -0.7 23.8 -1.3 27.3 -1.3 C30.6 -1.3 33.4 -0.6 35.9 0.7 zM23 7 C21.3 7.8 19.9 9.1 18.8 10.8 C16.6 14.2 15.5 19.2 15.5 25.7 C15.5 32.2 16.6 37.1 18.8 40.5 C21 43.8 24.2 45.5 28.6 45.5 C30.9 45.5 32.9 45.1 34.5 44.2 C36.1 43.3 37.5 42.1 38.5 40.5 C40.7 37.1 41.9 32.2 41.9 25.7 C41.9 19.2 40.7 14.2 38.5 10.9 C36.3 7.5 33 5.8 28.6 5.8 C26.5 5.8 24.7 6.2 23 7 z" />
<glyph unicode="" horiz-adv-x="60.200000000000003" d="M16.4 75.8 C23.7 75.8 38.3 75.8 45.6 75.8 C45.6 77.5 45.6 80.9 45.6 82.6 C38.3 82.6 23.7 82.6 16.4 82.6 C16.4 80.9 16.4 77.5 16.4 75.8 zM9.6 0 C20.65 0 42.75 0 53.8 0 C53.8 1.95 53.8 5.85 53.8 7.8 C45.225 7.8 28.075 7.8 19.5 7.8 C19.5 14 19.5 26.4 19.5 32.6 C27.475 32.6 43.425 32.6 51.4 32.6 C51.4 34.55 51.4 38.45 51.4 40.4 C43.425 40.4 27.475 40.4 19.5 40.4 C19.5 45.475 19.5 55.625 19.5 60.7 C27.85 60.7 44.55 60.7 52.9 60.7 C52.9 62.65 52.9 66.55 52.9 68.5 C42.075 68.5 20.425 68.5 9.6 68.5 C9.6 51.375 9.6 17.125 9.6 0 z" />
<glyph unicode="" horiz-adv-x="60.200000000000003" d="M17.2 61.9 C24.5 61.9 39.1 61.9 46.4 61.9 C46.4 63.6 46.4 67 46.4 68.7 C39.1 68.7 24.5 68.7 17.2 68.7 C17.2 67 17.2 63.6 17.2 61.9 zM42.4 -0.3 C45.5 0.4 48.7 1.3 52.2 2.6 C52.2 5.4 52.2 8.9 52.2 11 C45.2 7.5 38.9 5.8 33.2 5.8 C27.6 5.8 23.2 7.3 20.1 10.4 C17 13.5 15.4 17.8 15.4 23.4 C15.4 23.5 15.4 23.625 15.4 23.7 C25.125 23.7 44.575 23.7 54.3 23.7 C54.3 24.725 54.3 26.775 54.3 27.8 C54.3 35.5 52.3 41.6 48.3 46 C44.3 50.4 38.7 52.6 31.5 52.6 C26.4 52.6 21.9 51.5 18.1 49.3 C14.3 47.1 11.3 44 9.2 39.9 C7.1 35.8 6.1 31 6.1 25.5 C6.1 17.2 8.4 10.7 13.2 5.9 C18 1.1 24.6 -1.3 33.1 -1.3 C36.2 -1.3 39.3 -1 42.4 -0.3 zM15.8 30.2 C16.4 35.1 18 38.9 20.8 41.5 C23.6 44.1 27.2 45.5 31.6 45.5 C36 45.5 39.4 44.2 41.7 41.5 C44 38.8 45.3 35.1 45.4 30.3 C25.7 30.3 25.7 30.2 15.8 30.2 z" />
<glyph unicode="" horiz-adv-x="60.200000000000003" d="M47.4 85.4 C45.95 85.4 43.05 85.4 41.6 85.4 C40.6 82 37.4 80.3 32.1 80.3 C26.5 80.3 23.4 82 22.6 85.4 C20.63333 85.4 18.175 85.4 16.7 85.4 C17.4 78 22.6 74.3 32 74.3 C41.5 74.3 46.7 78 47.4 85.4 zM9.6 0 C20.65 0 42.75 0 53.8 0 C53.8 1.95 53.8 5.85 53.8 7.8 C45.225 7.8 28.075 7.8 19.5 7.8 C19.5 14 19.5 26.4 19.5 32.6 C27.475 32.6 43.425 32.6 51.4 32.6 C51.4 34.55 51.4 38.45 51.4 40.4 C43.425 40.4 27.475 40.4 19.5 40.4 C19.5 45.475 19.5 55.625 19.5 60.7 C27.85 60.7 44.55 60.7 52.9 60.7 C52.9 62.65 52.9 66.55 52.9 68.5 C42.075 68.5 20.425 68.5 9.6 68.5 C9.6 51.375 9.6 17.125 9.6 0 z" />
<glyph unicode="" horiz-adv-x="60.200000000000003" d="M42.4 62.9 C45 65.1 46.4 68.3 46.8 72.7 C44.86667 72.7 42.45 72.7 41 72.7 C40.5 70.4 39.5 68.7 37.9 67.6 C36.4 66.5 34.2 65.9 31.4 65.9 C28.5 65.9 26.4 66.5 24.9 67.6 C23.3 68.7 22.4 70.4 22 72.7 C20.06667 72.7 17.65 72.7 16.2 72.7 C16.9 63.9 22 59.6 31.4 59.6 C36.1 59.6 39.8 60.7 42.4 62.9 zM37.7 -1.1 C39.3 -0.9 40.8 -0.7 42.4 -0.4 C45.6 0.3 48.8 1.3 52.2 2.6 C52.2 5.4 52.2 8.9 52.2 11 C50.4 10.1 48.8 9.4 47.1 8.7 C45.4 8 43.8 7.5 42.2 7.1 C39.2 6.2 36.2 5.8 33.2 5.8 C30.2 5.8 27.7 6.2 25.6 7 C23.5 7.8 21.6 8.9 20.1 10.4 C17 13.5 15.4 17.8 15.4 23.4 C15.4 23.5 15.4 23.625 15.4 23.7 C25.125 23.7 44.575 23.7 54.3 23.7 C54.3 24.725 54.3 26.775 54.3 27.8 C54.3 35.6 52.4 41.7 48.4 46.1 C44.4 50.5 38.8 52.6 31.7 52.6 C28 52.6 24.6 52 21.4 50.8 C18.2 49.6 15.4 47.8 13 45.3 C10.8 43 9.1 40.3 7.9 37 C6.7 33.7 6.1 29.9 6.1 25.6 C6.1 17.2 8.4 10.7 13.2 5.9 C18 1.1 24.7 -1.3 33.1 -1.3 C34.6 -1.3 36.1 -1.3 37.7 -1.1 zM15.8 30.2 C16.4 35 18 38.7 20.8 41.4 C23.6 44.1 27.1 45.5 31.5 45.5 C35.9 45.5 39.4 44.2 41.7 41.6 C42.8 40.4 43.6 39 44.3 37.1 C45 35.2 45.3 32.9 45.4 30.3 C25.7 30.3 25.7 30.2 15.8 30.2 z" />
<glyph unicode="" horiz-adv-x="60.200000000000003" d="M34.5 75.6 C35.5 75.6 35.9 76.1 35.9 77 C35.9 79.2 35.9 81.95 35.9 83.6 C35.9 84.5 35.5 85 34.5 85 C32.13333 85 29.175 85 27.4 85 C26.4 85 25.9 84.5 25.9 83.6 C25.9 81.4 25.9 78.65 25.9 77 C25.9 76.1 26.4 75.6 27.4 75.6 C29.76667 75.6 32.725 75.6 34.5 75.6 zM9.6 0 C20.65 0 42.75 0 53.8 0 C53.8 1.95 53.8 5.85 53.8 7.8 C45.225 7.8 28.075 7.8 19.5 7.8 C19.5 14 19.5 26.4 19.5 32.6 C27.475 32.6 43.425 32.6 51.4 32.6 C51.4 34.55 51.4 38.45 51.4 40.4 C43.425 40.4 27.475 40.4 19.5 40.4 C19.5 45.475 19.5 55.625 19.5 60.7 C27.85 60.7 44.55 60.7 52.9 60.7 C52.9 62.65 52.9 66.55 52.9 68.5 C42.075 68.5 20.425 68.5 9.6 68.5 C9.6 51.375 9.6 17.125 9.6 0 z" />
<glyph unicode="" horiz-adv-x="60.200000000000003" d="M34.3 61.9 C35.3 61.9 35.8 62.3 35.8 63.2 C35.8 65.43333 35.8 68.225 35.8 69.9 C35.8 70.8 35.3 71.2 34.3 71.2 C31.93333 71.2 28.975 71.2 27.2 71.2 C26.2 71.2 25.8 70.8 25.8 69.9 C25.8 67.66667 25.8 64.875 25.8 63.2 C25.8 62.3 26.2 61.9 27.2 61.9 C29.56667 61.9 32.525 61.9 34.3 61.9 zM42.4 -0.3 C45.5 0.4 48.7 1.3 52.2 2.6 C52.2 5.4 52.2 8.9 52.2 11 C45.2 7.5 38.9 5.8 33.2 5.8 C27.6 5.8 23.2 7.3 20.1 10.4 C17 13.5 15.4 17.8 15.4 23.4 C15.4 23.5 15.4 23.625 15.4 23.7 C25.125 23.7 44.575 23.7 54.3 23.7 C54.3 24.725 54.3 26.775 54.3 27.8 C54.3 35.5 52.3 41.6 48.3 46 C44.3 50.4 38.7 52.6 31.5 52.6 C26.4 52.6 21.9 51.5 18.1 49.3 C14.3 47.1 11.3 44 9.2 39.9 C7.1 35.8 6.1 31 6.1 25.5 C6.1 17.2 8.4 10.7 13.2 5.9 C18 1.1 24.6 -1.3 33.1 -1.3 C36.2 -1.3 39.3 -1 42.4 -0.3 zM15.8 30.2 C16.4 35.1 18 38.9 20.8 41.5 C23.6 44.1 27.2 45.5 31.6 45.5 C36 45.5 39.4 44.2 41.7 41.5 C44 38.8 45.3 35.1 45.4 30.3 C25.7 30.3 25.7 30.2 15.8 30.2 z" />
<glyph unicode="" horiz-adv-x="60.200000000000003" d="M53.8 0 C53.8 1.95 53.8 5.85 53.8 7.8 C45.225 7.8 28.075 7.8 19.5 7.8 C19.5 14 19.5 26.4 19.5 32.6 C27.475 32.6 43.425 32.6 51.4 32.6 C51.4 34.55 51.4 38.45 51.4 40.4 C43.425 40.4 27.475 40.4 19.5 40.4 C19.5 45.475 19.5 55.625 19.5 60.7 C27.85 60.7 44.55 60.7 52.9 60.7 C52.9 62.65 52.9 66.55 52.9 68.5 C42.075 68.5 20.425 68.5 9.6 68.5 C9.6 51.375 9.6 17.125 9.6 0 C17.375 0 32.925 0 40.7 0 C38.7 -2.1 37.3 -4 36.5 -5.6 C35.7 -7.2 35.4 -8.6 35.4 -10.1 C35.4 -12.8 36.4 -14.9 38.3 -16.2 C40.2 -17.5 43 -18.1 46.6 -18.1 C47.8 -18.1 49 -18 50 -17.9 C51 -17.8 52.2 -17.5 53.6 -17.2 C53.6 -15.16667 53.6 -12.625 53.6 -11.1 C51.6 -12 49.6 -12.5 47.6 -12.5 C44 -12.5 42.2 -11.1 42.2 -8.4 C42.2 -7.4 42.5 -6.2 43.2 -4.9 C43.9 -3.6 44.9 -2 46.5 0 C48.93333 0 51.975 0 53.8 0 z" />
<glyph unicode="" horiz-adv-x="60.200000000000003" d="M54.3 23.7 C54.3 24.725 54.3 26.775 54.3 27.8 C54.3 35.5 52.3 41.6 48.3 46 C44.3 50.4 38.7 52.6 31.5 52.6 C26.4 52.6 21.9 51.5 18.1 49.3 C14.3 47.1 11.3 44 9.2 39.9 C7.1 35.8 6.1 31 6.1 25.5 C6.1 17.2 8.4 10.7 13.2 5.9 C18 1.1 24.6 -1.3 33.1 -1.3 C34.4 -1.3 35.6 -1.2 36.8 -1.1 C35.2 -2.9 34.1 -4.6 33.5 -6 C32.9 -7.4 32.6 -8.8 32.6 -10.1 C32.6 -12.8 33.5 -14.9 35.4 -16.2 C37.3 -17.5 40.2 -18.1 43.8 -18.1 C45 -18.1 46.2 -18 47.2 -17.9 C48.2 -17.8 49.4 -17.5 50.8 -17.2 C50.8 -15.16667 50.8 -12.625 50.8 -11.1 C48.8 -12 46.7 -12.5 44.7 -12.5 C41.1 -12.5 39.4 -11.1 39.4 -8.4 C39.4 -7.4 39.6 -6.3 40.3 -5 C41 -3.7 42.1 -2 43.6 0 C45 0.3 46.5 0.7 47.9 1.1 C49.3 1.5 50.7 2 52.2 2.6 C52.2 5.4 52.2 8.9 52.2 11 C45.2 7.5 38.9 5.8 33.2 5.8 C27.6 5.8 23.2 7.3 20.1 10.4 C17 13.5 15.4 17.8 15.4 23.4 C15.4 23.5 15.4 23.625 15.4 23.7 C25.125 23.7 44.575 23.7 54.3 23.7 zM41.7 41.5 C44 38.8 45.3 35.1 45.4 30.3 C25.7 30.3 25.7 30.2 15.8 30.2 C16.4 35.1 18 38.9 20.8 41.5 C23.6 44.1 27.2 45.5 31.6 45.5 C36 45.5 39.4 44.2 41.7 41.5 z" />
<glyph unicode="" horiz-adv-x="60.200000000000003" d="M27.2 72.8 C29.525 72.8 34.175 72.8 36.5 72.8 C39.1 75.9 44.2 81.9 46.8 85 C44.5 85 41.625 85 39.9 85 C37.9 83 33.8 78.8 31.8 76.8 C29.8 78.8 25.8 83 23.8 85 C21.5 85 18.625 85 16.9 85 C19.5 81.9 24.6 75.9 27.2 72.8 zM9.6 0 C20.65 0 42.75 0 53.8 0 C53.8 1.95 53.8 5.85 53.8 7.8 C45.225 7.8 28.075 7.8 19.5 7.8 C19.5 14 19.5 26.4 19.5 32.6 C27.475 32.6 43.425 32.6 51.4 32.6 C51.4 34.55 51.4 38.45 51.4 40.4 C43.425 40.4 27.475 40.4 19.5 40.4 C19.5 45.475 19.5 55.625 19.5 60.7 C27.85 60.7 44.55 60.7 52.9 60.7 C52.9 62.65 52.9 66.55 52.9 68.5 C42.075 68.5 20.425 68.5 9.6 68.5 C9.6 51.375 9.6 17.125 9.6 0 z" />
<glyph unicode="" horiz-adv-x="60.200000000000003" d="M28.3 59.5 C30.075 59.5 33.625 59.5 35.4 59.5 C38.4 63.8 44.5 72.5 47.5 76.8 C45.23333 76.8 42.4 76.8 40.7 76.8 C38.5 74 34 68.3 31.8 65.5 C29.6 68.3 25.2 74 23 76.8 C20.76667 76.8 17.975 76.8 16.3 76.8 C19.3 72.5 25.3 63.8 28.3 59.5 zM42.4 -0.3 C45.5 0.4 48.7 1.3 52.2 2.6 C52.2 5.4 52.2 8.9 52.2 11 C45.2 7.5 38.9 5.8 33.2 5.8 C27.6 5.8 23.2 7.3 20.1 10.4 C17 13.5 15.4 17.8 15.4 23.4 C15.4 23.5 15.4 23.625 15.4 23.7 C25.125 23.7 44.575 23.7 54.3 23.7 C54.3 24.725 54.3 26.775 54.3 27.8 C54.3 35.5 52.3 41.6 48.3 46 C44.3 50.4 38.7 52.6 31.5 52.6 C26.4 52.6 21.9 51.5 18.1 49.3 C14.3 47.1 11.3 44 9.2 39.9 C7.1 35.8 6.1 31 6.1 25.5 C6.1 17.2 8.4 10.7 13.2 5.9 C18 1.1 24.6 -1.3 33.1 -1.3 C36.2 -1.3 39.3 -1 42.4 -0.3 zM15.8 30.2 C16.4 35.1 18 38.9 20.8 41.5 C23.6 44.1 27.2 45.5 31.6 45.5 C36 45.5 39.4 44.2 41.7 41.5 C44 38.8 45.3 35.1 45.4 30.3 C25.7 30.3 25.7 30.2 15.8 30.2 z" />
<glyph unicode="" horiz-adv-x="60.200000000000003" d="M18.1 72.8 C19.825 72.8 23.275 72.8 25 72.8 C27 74.8 31 79 33 81 C35 79 39.1 74.8 41.1 72.8 C43.36667 72.8 46.2 72.8 47.9 72.8 C45.3 75.9 40.2 81.9 37.6 85 C34.53333 85 30.7 85 28.4 85 C25.8 81.9 20.7 75.9 18.1 72.8 zM8.4 15.1 C10.7 9.8 14.2 5.7 18.5 2.9 C22.8 0.1 28.1 -1.3 34.2 -1.3 C42 -1.3 48.6 0.9 53.9 5.6 C53.9 15.46667 53.9 27.8 53.9 35.2 C48.9 35.2 38.9 35.2 33.9 35.2 C33.9 33.275 33.9 29.425 33.9 27.5 C36.55 27.5 41.85 27.5 44.5 27.5 C44.5 22.9 44.5 13.7 44.5 9.1 C42 7.1 38.6 6.2 34.3 6.2 C30.2 6.2 27 6.9 24.6 8.4 C22.2 9.9 20.4 11.8 19.2 14.2 C18 16.6 17.1 19.1 16.5 21.8 C15.7 25.2 15.3 29.3 15.3 34.1 C15.3 43.6 16.9 50.6 20.1 55.3 C23.4 60 28.2 62.2 34.5 62.2 C37.6 62.2 40.5 61.7 43.3 60.6 C46.2 59.3 48.9 57.6 51.4 55.4 C51.4 58.56667 51.4 62.525 51.4 64.9 C46.3 68.2 40.5 69.8 34.3 69.8 C25.1 69.8 18 66.6 12.8 60.4 C7.6 54.1 5 45.3 5 34.1 C5 26.7 6.1 20.4 8.4 15.1 z" />
<glyph unicode="" horiz-adv-x="60.200000000000003" d="M16 59.5 C17.7 59.5 21.1 59.5 22.8 59.5 C25 62.3 29.3 68 31.5 70.8 C33.7 68 38.2 62.3 40.4 59.5 C42.66667 59.5 45.5 59.5 47.2 59.5 C44.2 63.8 38.2 72.5 35.2 76.8 C32.8 76.8 29.8 76.8 28 76.8 C25 72.5 19 63.8 16 59.5 zM29.3 -20.2 C36.8 -20.2 42.5 -18.2 46.4 -14.2 C50.3 -10.2 52.2 -4.4 52.2 3.3 C52.2 19.26667 52.2 39.225 52.2 51.2 C50.175 51.2 46.125 51.2 44.1 51.2 C43.9 49.5 43.6 46.8 43.3 44.6 C40.2 50 35.3 52.6 28.5 52.6 C22.2 52.6 17 50.2 13.1 45.4 C9.3 40.6 7.4 34.1 7.4 26.1 C7.4 20.8 8.3 16.2 10 12.2 C11.7 8.2 14.1 5.1 17.3 2.9 C20.5 0.7 24.2 -0.4 28.4 -0.4 C35.5 -0.4 40.5 2.5 43.3 8.2 C43.3 6.16667 43.3 3.625 43.3 2.1 C43.3 -3.3 42.1 -7.3 39.9 -9.7 C37.7 -12.2 34.2 -13.4 29.5 -13.4 C24.9 -13.4 19.6 -12.1 13.5 -9.3 C13.5 -12.1 13.5 -15.6 13.5 -17.7 C19.1 -19.4 24.3 -20.2 29.3 -20.2 zM40 11.6 C37.8 8.3 34.6 6.7 30.4 6.7 C26.1 6.7 22.7 8.3 20.4 11.7 C18.1 15.1 16.8 19.9 16.8 26.1 C16.8 32.5 18 37.3 20.3 40.6 C22.6 43.9 25.9 45.5 30.3 45.5 C38.9 45.5 43.3 39 43.3 26.1 C43.3 19.8 42.2 14.9 40 11.6 z" />
<glyph unicode="" horiz-adv-x="60.200000000000003" d="M47.4 84 C45.95 84 43.05 84 41.6 84 C40.6 80.6 37.4 78.9 32.1 78.9 C26.5 78.9 23.4 80.6 22.6 84 C20.63333 84 18.175 84 16.7 84 C17.4 76.6 22.6 72.9 32 72.9 C41.5 72.9 46.7 76.6 47.4 84 zM45 0.5 C48.3 1.6 51.2 3.3 53.9 5.6 C53.9 15.46667 53.9 27.8 53.9 35.2 C48.9 35.2 38.9 35.2 33.9 35.2 C33.9 33.275 33.9 29.425 33.9 27.5 C36.55 27.5 41.85 27.5 44.5 27.5 C44.5 22.9 44.5 13.7 44.5 9.1 C41.9 7.1 38.5 6.2 34.3 6.2 C31.1 6.2 28.4 6.7 26 7.8 C23.6 8.9 21.6 10.7 20 13.1 C18.4 15.4 17.3 18.3 16.5 21.7 C15.7 25.1 15.3 29.3 15.3 34.1 C15.3 43.6 16.9 50.6 20.1 55.3 C23.3 60 28.2 62.2 34.5 62.2 C36 62.2 37.4 62.1 38.9 61.8 C40.4 61.5 41.9 61.2 43.3 60.6 C44.5 60.1 45.8 59.4 47.2 58.5 C48.6 57.6 50 56.7 51.4 55.4 C51.4 58.56667 51.4 62.525 51.4 64.9 C46.4 68.2 40.7 69.8 34.3 69.8 C29.6 69.8 25.5 68.9 21.9 67.3 C18.3 65.7 15.2 63.4 12.7 60.4 C10.1 57.2 8.2 53.5 6.9 49.1 C5.6 44.7 5 39.6 5 34.1 C5 23 7.5 14.3 12.6 8 C15.1 4.9 18.2 2.7 21.8 1.1 C25.4 -0.5 29.5 -1.3 34.2 -1.3 C38.1 -1.3 41.7 -0.7 45 0.5 z" />
<glyph unicode="" horiz-adv-x="60.200000000000003" d="M42.4 62.9 C45 65.1 46.4 68.3 46.8 72.7 C44.86667 72.7 42.45 72.7 41 72.7 C40.5 70.4 39.5 68.7 37.9 67.6 C36.4 66.5 34.2 65.9 31.4 65.9 C28.5 65.9 26.4 66.5 24.9 67.6 C23.3 68.7 22.4 70.4 22 72.7 C20.06667 72.7 17.65 72.7 16.2 72.7 C16.9 63.9 22 59.6 31.4 59.6 C36.1 59.6 39.8 60.7 42.4 62.9 zM46.4 -14.2 C50.3 -10.2 52.2 -4.4 52.2 3.3 C52.2 19.26667 52.2 39.225 52.2 51.2 C50.175 51.2 46.125 51.2 44.1 51.2 C43.9 49.5 43.6 46.8 43.3 44.6 C41.7 47.4 39.7 49.4 37.3 50.7 C34.8 52 31.9 52.6 28.5 52.6 C22.1 52.6 16.9 50.2 13.1 45.4 C9.3 40.6 7.4 34.1 7.4 26.1 C7.4 18.1 9.3 11.6 13.1 6.8 C16.9 2 22 -0.4 28.4 -0.4 C31.9 -0.4 34.9 0.3 37.4 1.7 C39.9 3.1 41.9 5.3 43.3 8.2 C43.3 6.16667 43.3 3.625 43.3 2.1 C43.3 -0.7 43 -3.1 42.4 -5 C41.8 -6.9 41 -8.5 39.9 -9.7 C37.7 -12.2 34.2 -13.4 29.5 -13.4 C27.1 -13.4 24.7 -13.1 22.2 -12.4 C21 -12.1 19.6 -11.7 18.1 -11.2 C16.6 -10.7 15.1 -10 13.5 -9.3 C13.5 -12.1 13.5 -15.6 13.5 -17.7 C16.3 -18.6 19 -19.2 21.6 -19.6 C23 -19.8 24.2 -19.9 25.5 -20 C26.8 -20.1 28 -20.2 29.3 -20.2 C36.9 -20.2 42.6 -18.2 46.4 -14.2 zM20.4 11.7 C18.1 15 16.8 19.8 16.8 26.1 C16.8 32.5 18 37.3 20.3 40.6 C22.6 43.9 25.9 45.5 30.3 45.5 C32.3 45.5 34.2 45.1 35.8 44.3 C37.4 43.5 38.9 42.3 40 40.6 C42.2 37.4 43.3 32.5 43.3 26.1 C43.3 19.8 42.2 15 40 11.7 C37.8 8.4 34.6 6.7 30.4 6.7 C26.1 6.7 22.7 8.4 20.4 11.7 z" />
<glyph unicode="" horiz-adv-x="60.200000000000003" d="M37.3 75.6 C38.3 75.6 38.7 76.1 38.7 77 C38.7 79.2 38.7 81.95 38.7 83.6 C38.7 84.5 38.3 85 37.3 85 C34.93333 85 31.975 85 30.2 85 C29.2 85 28.7 84.5 28.7 83.6 C28.7 81.4 28.7 78.65 28.7 77 C28.7 76.1 29.2 75.6 30.2 75.6 C32.56667 75.6 35.525 75.6 37.3 75.6 zM53.9 5.6 C53.9 13 53.9 27.8 53.9 35.2 C48.9 35.2 38.9 35.2 33.9 35.2 C33.9 33.275 33.9 29.425 33.9 27.5 C36.55 27.5 41.85 27.5 44.5 27.5 C44.5 22.9 44.5 13.7 44.5 9.1 C41.9 7.1 38.5 6.2 34.4 6.2 C27.9 6.2 23.1 8.5 20 13 C16.9 17.5 15.3 24.5 15.3 33.9 C15.3 43.4 16.8 50.5 20 55.2 C23.2 59.9 28 62.2 34.5 62.2 C37.6 62.2 40.5 61.7 43.3 60.6 C46.1 59.5 48.8 57.8 51.4 55.4 C51.4 58.56667 51.4 62.525 51.4 64.9 C48.8 66.6 46.1 67.7 43.3 68.5 C40.5 69.3 37.5 69.8 34.3 69.8 C28.2 69.8 23 68.3 18.6 65.5 C14.2 62.7 10.8 58.6 8.5 53.3 C6.2 48 5 41.6 5 34.1 C5 22.9 7.6 14.2 12.7 8 C17.8 1.8 25 -1.3 34.2 -1.3 C42 -1.3 48.6 0.9 53.9 5.6 z" />
<glyph unicode="" horiz-adv-x="60.200000000000003" d="M35 61.9 C36 61.9 36.4 62.3 36.4 63.2 C36.4 65.43333 36.4 68.225 36.4 69.9 C36.4 70.8 36 71.2 35 71.2 C32.63333 71.2 29.675 71.2 27.9 71.2 C26.9 71.2 26.4 70.8 26.4 69.9 C26.4 67.66667 26.4 64.875 26.4 63.2 C26.4 62.3 26.9 61.9 27.9 61.9 C30.26667 61.9 33.225 61.9 35 61.9 zM52.2 3.3 C52.2 15.275 52.2 39.225 52.2 51.2 C50.175 51.2 46.125 51.2 44.1 51.2 C43.9 49.5 43.6 46.8 43.3 44.6 C40.4 50 35.4 52.6 28.6 52.6 C24.2 52.6 20.5 51.6 17.3 49.4 C14.1 47.2 11.6 44.2 9.9 40.2 C8.2 36.2 7.4 31.6 7.4 26.2 C7.4 20.8 8.3 16.1 10 12.1 C11.7 8.1 14.1 5.1 17.3 2.9 C20.5 0.7 24.3 -0.4 28.6 -0.4 C35.6 -0.4 40.5 2.5 43.3 8.2 C43.3 6.16667 43.3 3.625 43.3 2.1 C43.3 -3.2 42.2 -7.2 40 -9.7 C37.8 -12.2 34.3 -13.4 29.6 -13.4 C27.2 -13.4 24.8 -13.2 22.2 -12.5 C19.6 -11.8 16.8 -10.7 13.5 -9.3 C13.5 -12.1 13.5 -15.6 13.5 -17.7 C19.1 -19.4 24.3 -20.2 29.3 -20.2 C44.6 -20.2 52.2 -12.4 52.2 3.3 zM20.3 11.6 C18 14.9 16.8 19.8 16.8 26.2 C16.8 32.6 18 37.3 20.3 40.6 C22.6 43.9 25.9 45.5 30.2 45.5 C38.9 45.5 43.3 39 43.3 26.1 C43.3 19.7 42.2 14.9 40 11.6 C37.8 8.3 34.6 6.7 30.3 6.7 C26 6.7 22.6 8.3 20.3 11.6 z" />
<glyph unicode="" horiz-adv-x="60.200000000000003" d="M53.9 5.6 C53.9 13 53.9 27.8 53.9 35.2 C48.9 35.2 38.9 35.2 33.9 35.2 C33.9 33.275 33.9 29.425 33.9 27.5 C36.55 27.5 41.85 27.5 44.5 27.5 C44.5 22.9 44.5 13.7 44.5 9.1 C41.9 7.1 38.5 6.2 34.4 6.2 C27.9 6.2 23.1 8.5 20 13 C16.9 17.5 15.3 24.5 15.3 33.9 C15.3 43.4 16.8 50.5 20 55.2 C23.2 59.9 28 62.2 34.5 62.2 C37.6 62.2 40.5 61.7 43.3 60.6 C46.1 59.5 48.8 57.8 51.4 55.4 C51.4 58.56667 51.4 62.525 51.4 64.9 C48.8 66.6 46.1 67.7 43.3 68.5 C40.5 69.3 37.5 69.8 34.3 69.8 C28.2 69.8 23 68.3 18.6 65.5 C14.2 62.7 10.8 58.6 8.5 53.3 C6.2 48 5 41.6 5 34.1 C5 22.9 7.6 14.2 12.7 8 C17.8 1.8 25 -1.3 34.2 -1.3 C42 -1.3 48.6 0.9 53.9 5.6 zM26.2 -26.3 C27.975 -26.3 31.525 -26.3 33.3 -26.3 C35.6 -22.3 40.1 -14.5 42.4 -10.5 C38.53333 -10.5 33.7 -10.5 30.8 -10.5 C29.7 -14.5 27.3 -22.3 26.2 -26.3 z" />
<glyph unicode="" horiz-adv-x="60.200000000000003" d="M25.1 59.5 C28.025 59.5 33.875 59.5 36.8 59.5 C37.9 63.5 40.3 71.4 41.4 75.4 C39 75.4 36 75.4 34.2 75.4 C31.9 71.4 27.4 63.5 25.1 59.5 zM52.2 3.3 C52.2 15.275 52.2 39.225 52.2 51.2 C50.175 51.2 46.125 51.2 44.1 51.2 C43.9 49.5 43.6 46.8 43.3 44.6 C40.4 50 35.4 52.6 28.6 52.6 C24.2 52.6 20.5 51.6 17.3 49.4 C14.1 47.2 11.6 44.2 9.9 40.2 C8.2 36.2 7.4 31.6 7.4 26.2 C7.4 20.8 8.3 16.1 10 12.1 C11.7 8.1 14.1 5.1 17.3 2.9 C20.5 0.7 24.3 -0.4 28.6 -0.4 C35.6 -0.4 40.5 2.5 43.3 8.2 C43.3 6.16667 43.3 3.625 43.3 2.1 C43.3 -3.2 42.2 -7.2 40 -9.7 C37.8 -12.2 34.3 -13.4 29.6 -13.4 C27.2 -13.4 24.8 -13.2 22.2 -12.5 C19.6 -11.8 16.8 -10.7 13.5 -9.3 C13.5 -12.1 13.5 -15.6 13.5 -17.7 C19.1 -19.4 24.3 -20.2 29.3 -20.2 C44.6 -20.2 52.2 -12.4 52.2 3.3 zM20.3 11.6 C18 14.9 16.8 19.8 16.8 26.2 C16.8 32.6 18 37.3 20.3 40.6 C22.6 43.9 25.9 45.5 30.2 45.5 C38.9 45.5 43.3 39 43.3 26.1 C43.3 19.7 42.2 14.9 40 11.6 C37.8 8.3 34.6 6.7 30.3 6.7 C26 6.7 22.6 8.3 20.3 11.6 z" />
<glyph unicode="" horiz-adv-x="60.200000000000003" d="M15.2 72.8 C16.9 72.8 20.3 72.8 22 72.8 C24 74.8 28.1 79 30.1 81 C32.1 79 36.2 74.8 38.2 72.8 C40.46667 72.8 43.3 72.8 45 72.8 C42.4 75.9 37.3 81.9 34.7 85 C31.63333 85 27.8 85 25.5 85 C22.9 81.9 17.8 75.9 15.2 72.8 zM6.7 0 C9.175 0 14.125 0 16.6 0 C16.6 8.15 16.6 24.45 16.6 32.6 C23.35 32.6 36.85 32.6 43.6 32.6 C43.6 24.45 43.6 8.15 43.6 0 C46.075 0 51.025 0 53.5 0 C53.5 17.125 53.5 51.375 53.5 68.5 C51.025 68.5 46.075 68.5 43.6 68.5 C43.6 61.475 43.6 47.425 43.6 40.4 C36.85 40.4 23.35 40.4 16.6 40.4 C16.6 47.425 16.6 61.475 16.6 68.5 C14.125 68.5 9.175 68.5 6.7 68.5 C6.7 51.375 6.7 17.125 6.7 0 z" />
<glyph unicode="" horiz-adv-x="60.200000000000003" d="M21.5 72.8 C23.2 72.8 26.6 72.8 28.3 72.8 C30.3 74.8 34.4 79 36.4 81 C38.4 79 42.5 74.8 44.5 72.8 C46.76667 72.8 49.6 72.8 51.3 72.8 C48.7 75.9 43.6 81.9 41 85 C37.93333 85 34.1 85 31.8 85 C29.2 81.9 24.1 75.9 21.5 72.8 zM9.5 0 C11.75 0 16.25 0 18.5 0 C18.5 7.275 18.5 21.825 18.5 29.1 C18.5 34.4 19.7 38.3 21.9 41.1 C24.1 43.9 27.3 45.3 31.5 45.3 C35.2 45.3 38 44.2 39.7 42 C41.4 39.8 42.3 36.5 42.3 31.9 C42.3 21.26667 42.3 7.975 42.3 0 C44.55 0 49.05 0 51.3 0 C51.3 7.975 51.3 23.925 51.3 31.9 C51.3 38.9 49.9 44 47.2 47.5 C44.4 50.9 40.3 52.6 34.7 52.6 C27.2 52.6 21.8 49.7 18.5 43.7 C18.5 52.93333 18.5 64.475 18.5 71.4 C16.25 71.4 11.75 71.4 9.5 71.4 C9.5 53.55 9.5 17.85 9.5 0 z" />
<glyph unicode="" horiz-adv-x="60.200000000000003" d="M6.7 0 C9.175 0 14.125 0 16.6 0 C16.6 8.15 16.6 24.45 16.6 32.6 C23.35 32.6 36.85 32.6 43.6 32.6 C43.6 24.45 43.6 8.15 43.6 0 C46.075 0 51.025 0 53.5 0 C53.5 12.675 53.5 38.025 53.5 50.7 C55.15 50.7 58.45 50.7 60.1 50.7 C60.1 52.575 60.1 56.325 60.1 58.2 C58.45 58.2 55.15 58.2 53.5 58.2 C53.5 60.775 53.5 65.925 53.5 68.5 C51.025 68.5 46.075 68.5 43.6 68.5 C43.6 65.925 43.6 60.775 43.6 58.2 C36.85 58.2 23.35 58.2 16.6 58.2 C16.6 60.775 16.6 65.925 16.6 68.5 C14.125 68.5 9.175 68.5 6.7 68.5 C6.7 65.925 6.7 60.775 6.7 58.2 C5.05 58.2 1.75 58.2 0.1 58.2 C0.1 56.325 0.1 52.575 0.1 50.7 C1.75 50.7 5.05 50.7 6.7 50.7 C6.7 38.025 6.7 12.675 6.7 0 zM16.6 40.4 C16.6 42.975 16.6 48.125 16.6 50.7 C23.35 50.7 36.85 50.7 43.6 50.7 C43.6 48.125 43.6 42.975 43.6 40.4 C36.85 40.4 23.35 40.4 16.6 40.4 z" />
<glyph unicode="" horiz-adv-x="60.200000000000003" d="M9.5 0 C11.75 0 16.25 0 18.5 0 C18.5 7.275 18.5 21.825 18.5 29.1 C18.5 34.4 19.7 38.3 21.9 41.1 C24.1 43.9 27.3 45.3 31.6 45.3 C35.3 45.3 38 44.2 39.7 42 C41.4 39.8 42.3 36.5 42.3 31.9 C42.3 21.26667 42.3 7.975 42.3 0 C44.55 0 49.05 0 51.3 0 C51.3 7.975 51.3 23.925 51.3 31.9 C51.3 45.8 45.8 52.6 34.7 52.6 C27.1 52.6 21.7 49.7 18.5 43.7 C18.5 48.56667 18.5 54.65 18.5 58.3 C22.8 58.3 31.4 58.3 35.7 58.3 C35.7 60.175 35.7 63.925 35.7 65.8 C31.4 65.8 22.8 65.8 18.5 65.8 C18.5 67.2 18.5 70 18.5 71.4 C16.25 71.4 11.75 71.4 9.5 71.4 C9.5 70 9.5 67.2 9.5 65.8 C7.975 65.8 4.925 65.8 3.4 65.8 C3.4 63.925 3.4 60.175 3.4 58.3 C4.925 58.3 7.975 58.3 9.5 58.3 C9.5 43.725 9.5 14.575 9.5 0 z" />
<glyph unicode="" horiz-adv-x="60.200000000000003" d="M20.1 75 C20.1 75.05 20.1 75.15 20.1 75.2 C20.1 76.5 20.4 77.6 21.1 78.4 C21.7 79.2 22.6 79.6 23.7 79.6 C24.2 79.6 24.6 79.6 25.1 79.4 C25.4 79.3 25.7 79.1 26 79 C26.3 78.9 26.7 78.6 27.1 78.4 C29 77.4 29 77.4 29.9 76.9 C30.9 76.4 31.7 76 32.3 75.8 C32.9 75.6 33.4 75.4 33.9 75.3 C35 75.1 36.1 75 37 75 C39.8 75 41.9 75.9 43.6 77.7 C45.3 79.5 46.1 81.9 46.2 85 C44.16667 85 41.625 85 40.1 85 C40.1 84.925 40.1 84.775 40.1 84.7 C40.1 83.5 39.8 82.5 39.1 81.7 C38.4 80.9 37.6 80.5 36.6 80.5 C36.1 80.5 35.6 80.6 35.1 80.8 C34.4 81 33.8 81.3 33.1 81.7 C31.2 82.6 31.2 82.5 30.3 83 C28.6 83.9 27.4 84.4 26.5 84.6 C25.3 84.8 24.1 85 23.2 85 C20.4 85 18.3 84.1 16.6 82.3 C15.7 81.3 15 80.2 14.6 79 C14.2 77.8 14 76.5 14 75 C16.03333 75 18.575 75 20.1 75 zM9.8 0 C19.925 0 40.175 0 50.3 0 C50.3 1.95 50.3 5.85 50.3 7.8 C46.475 7.8 38.825 7.8 35 7.8 C35 21.025 35 47.475 35 60.7 C38.825 60.7 46.475 60.7 50.3 60.7 C50.3 62.65 50.3 66.55 50.3 68.5 C40.175 68.5 19.925 68.5 9.8 68.5 C9.8 66.55 9.8 62.65 9.8 60.7 C13.625 60.7 21.275 60.7 25.1 60.7 C25.1 47.475 25.1 21.025 25.1 7.8 C21.275 7.8 13.625 7.8 9.8 7.8 C9.8 5.85 9.8 1.95 9.8 0 z" />
<glyph unicode="" horiz-adv-x="60.200000000000003" d="M19.1 57.8 C19.2 60.3 19.5 62.1 20.1 63.2 C20.7 64.3 21.6 64.9 22.8 64.9 C23.8 64.9 24.9 64.3 26.2 63.1 C28.1 61.4 28.1 61.4 29 60.6 C31.2 58.7 33.4 57.8 35.7 57.8 C38.8 57.8 41.2 59 42.8 61.3 C44.4 63.6 45.3 66.7 45.3 70.7 C43.26667 70.7 40.725 70.7 39.2 70.7 C39.2 68.3 38.8 66.5 38.2 65.3 C37.6 64.2 36.8 63.6 35.6 63.6 C35.1 63.6 34.6 63.8 34.1 64 C33.6 64.2 33 64.7 32.2 65.4 C30.3 67.1 30.3 67.1 29.4 67.9 C27.2 69.8 24.9 70.7 22.6 70.7 C19.5 70.7 17.2 69.6 15.6 67.3 C14 65 13.1 61.8 13.1 57.8 C15.1 57.8 17.6 57.8 19.1 57.8 zM53.3 -0.4 C53.3 1.4 53.3 5 53.3 6.8 C50.675 6.8 45.425 6.8 42.8 6.8 C39.9 6.8 37.8 7.8 36.3 9.7 C34.8 11.6 34 14.4 34 18.3 C34 29.33333 34 43.125 34 51.4 C28.775 51.4 18.325 51.4 13.1 51.4 C13.1 49.75 13.1 46.45 13.1 44.8 C16.075 44.8 22.025 44.8 25 44.8 C25 38.175 25 24.925 25 18.3 C25 12.4 26.5 7.7 29.5 4.5 C31.1 2.8 32.8 1.6 34.9 0.8 C37 0 39.3 -0.4 41.9 -0.4 C45.7 -0.4 50.45 -0.4 53.3 -0.4 z" />
<glyph unicode="" horiz-adv-x="60.200000000000003" d="M16.4 75.8 C23.7 75.8 38.3 75.8 45.6 75.8 C45.6 77.5 45.6 80.9 45.6 82.6 C38.3 82.6 23.7 82.6 16.4 82.6 C16.4 80.9 16.4 77.5 16.4 75.8 zM9.8 0 C19.925 0 40.175 0 50.3 0 C50.3 1.95 50.3 5.85 50.3 7.8 C46.475 7.8 38.825 7.8 35 7.8 C35 21.025 35 47.475 35 60.7 C38.825 60.7 46.475 60.7 50.3 60.7 C50.3 62.65 50.3 66.55 50.3 68.5 C40.175 68.5 19.925 68.5 9.8 68.5 C9.8 66.55 9.8 62.65 9.8 60.7 C13.625 60.7 21.275 60.7 25.1 60.7 C25.1 47.475 25.1 21.025 25.1 7.8 C21.275 7.8 13.625 7.8 9.8 7.8 C9.8 5.85 9.8 1.95 9.8 0 z" />
<glyph unicode="" horiz-adv-x="60.200000000000003" d="M13.1 60.6 C20.4 60.6 35 60.6 42.3 60.6 C42.3 62.3 42.3 65.7 42.3 67.4 C35 67.4 20.4 67.4 13.1 67.4 C13.1 65.7 13.1 62.3 13.1 60.6 zM53.3 -0.4 C53.3 1.4 53.3 5 53.3 6.8 C50.675 6.8 45.425 6.8 42.8 6.8 C39.9 6.8 37.8 7.8 36.3 9.7 C34.8 11.6 34 14.4 34 18.3 C34 29.33333 34 43.125 34 51.4 C28.775 51.4 18.325 51.4 13.1 51.4 C13.1 49.75 13.1 46.45 13.1 44.8 C16.075 44.8 22.025 44.8 25 44.8 C25 38.175 25 24.925 25 18.3 C25 12.4 26.5 7.7 29.5 4.5 C31.1 2.8 32.8 1.6 34.9 0.8 C37 0 39.3 -0.4 41.9 -0.4 C45.7 -0.4 50.45 -0.4 53.3 -0.4 z" />
<glyph unicode="" horiz-adv-x="60.200000000000003" d="M45.4 85.4 C43.95 85.4 41.05 85.4 39.6 85.4 C38.6 82 35.4 80.3 30.1 80.3 C24.5 80.3 21.4 82 20.6 85.4 C18.63333 85.4 16.175 85.4 14.7 85.4 C15.4 78 20.6 74.3 30 74.3 C39.5 74.3 44.7 78 45.4 85.4 zM9.8 0 C19.925 0 40.175 0 50.3 0 C50.3 1.95 50.3 5.85 50.3 7.8 C46.475 7.8 38.825 7.8 35 7.8 C35 21.025 35 47.475 35 60.7 C38.825 60.7 46.475 60.7 50.3 60.7 C50.3 62.65 50.3 66.55 50.3 68.5 C40.175 68.5 19.925 68.5 9.8 68.5 C9.8 66.55 9.8 62.65 9.8 60.7 C13.625 60.7 21.275 60.7 25.1 60.7 C25.1 47.475 25.1 21.025 25.1 7.8 C21.275 7.8 13.625 7.8 9.8 7.8 C9.8 5.85 9.8 1.95 9.8 0 z" />
<glyph unicode="" horiz-adv-x="60.200000000000003" d="M40.5 62.9 C43.1 65.1 44.5 68.3 44.9 72.7 C42.96667 72.7 40.55 72.7 39.1 72.7 C38.6 70.4 37.6 68.7 36 67.6 C34.5 66.5 32.3 65.9 29.5 65.9 C26.6 65.9 24.4 66.5 22.9 67.6 C21.3 68.7 20.5 70.4 20.1 72.7 C18.16667 72.7 15.75 72.7 14.3 72.7 C15 63.9 20.1 59.6 29.5 59.6 C34.2 59.6 37.9 60.7 40.5 62.9 zM53.3 -0.4 C53.3 1.4 53.3 5 53.3 6.8 C50.675 6.8 45.425 6.8 42.8 6.8 C39.9 6.8 37.8 7.8 36.3 9.7 C34.8 11.6 34 14.4 34 18.3 C34 29.33333 34 43.125 34 51.4 C28.775 51.4 18.325 51.4 13.1 51.4 C13.1 49.75 13.1 46.45 13.1 44.8 C16.075 44.8 22.025 44.8 25 44.8 C25 38.175 25 24.925 25 18.3 C25 12.4 26.5 7.7 29.5 4.5 C31.1 2.8 32.8 1.6 34.9 0.8 C37 0 39.3 -0.4 41.9 -0.4 C45.7 -0.4 50.45 -0.4 53.3 -0.4 z" />
<glyph unicode="" horiz-adv-x="60.200000000000003" d="M50.3 60.7 C50.3 62.65 50.3 66.55 50.3 68.5 C40.175 68.5 19.925 68.5 9.8 68.5 C9.8 66.55 9.8 62.65 9.8 60.7 C13.625 60.7 21.275 60.7 25.1 60.7 C25.1 47.475 25.1 21.025 25.1 7.8 C21.275 7.8 13.625 7.8 9.8 7.8 C9.8 5.85 9.8 1.95 9.8 0 C14.65 0 24.35 0 29.2 0 C27.2 -2.1 25.7 -4 25 -5.6 C24.3 -7.2 23.9 -8.6 23.9 -10.1 C23.9 -12.8 24.9 -14.9 26.8 -16.2 C28.7 -17.5 31.6 -18.1 35.2 -18.1 C36.4 -18.1 37.5 -18 38.5 -17.9 C39.5 -17.8 40.7 -17.5 42.1 -17.2 C42.1 -15.16667 42.1 -12.625 42.1 -11.1 C40.1 -12 38.2 -12.5 36.1 -12.5 C32.5 -12.5 30.7 -11.1 30.7 -8.4 C30.7 -7.4 31 -6.2 31.7 -4.9 C32.4 -3.6 33.4 -2 35 0 C40.1 0 46.475 0 50.3 0 C50.3 1.95 50.3 5.85 50.3 7.8 C46.475 7.8 38.825 7.8 35 7.8 C35 21.025 35 47.475 35 60.7 C38.825 60.7 46.475 60.7 50.3 60.7 z" />
<glyph unicode="" horiz-adv-x="60.200000000000003" d="M32.4 60.7 C33.5 60.7 34 61.2 34 62.1 C34 64.73333 34 68.025 34 70 C34 70.9 33.5 71.4 32.4 71.4 C30.16667 71.4 27.375 71.4 25.7 71.4 C24.6 71.4 24.1 70.9 24.1 70 C24.1 67.36667 24.1 64.075 24.1 62.1 C24.1 61.2 24.6 60.7 25.7 60.7 C27.93333 60.7 30.725 60.7 32.4 60.7 zM42.1 -7.9 C42.1 -6.9 42.3 -5.9 42.9 -4.7 C43.5 -3.5 44.4 -2.1 45.7 -0.4 C48.23333 -0.4 51.4 -0.4 53.3 -0.4 C53.3 1.4 53.3 5 53.3 6.8 C50.675 6.8 45.425 6.8 42.8 6.8 C39.9 6.8 37.8 7.8 36.3 9.7 C34.8 11.6 34 14.4 34 18.3 C34 29.33333 34 43.125 34 51.4 C28.775 51.4 18.325 51.4 13.1 51.4 C13.1 49.75 13.1 46.45 13.1 44.8 C16.075 44.8 22.025 44.8 25 44.8 C25 38.175 25 24.925 25 18.3 C25 12.4 26.5 7.7 29.5 4.5 C32.1 1.7 35.5 0.1 39.8 -0.3 C38.1 -2.3 37 -3.9 36.3 -5.3 C35.6 -6.7 35.3 -8.2 35.3 -9.6 C35.3 -12.3 36.3 -14.4 38.2 -15.7 C40.1 -17 42.9 -17.6 46.5 -17.6 C47.7 -17.6 48.9 -17.5 49.9 -17.4 C50.9 -17.3 52.1 -17 53.5 -16.7 C53.5 -14.66667 53.5 -12.125 53.5 -10.6 C51.5 -11.5 49.5 -12 47.5 -12 C43.9 -12 42.1 -10.6 42.1 -7.9 z" />
<glyph unicode="" horiz-adv-x="60.200000000000003" d="M33.6 75.6 C34.6 75.6 35.1 76.1 35.1 77 C35.1 79.2 35.1 81.95 35.1 83.6 C35.1 84.5 34.6 85 33.6 85 C31.23333 85 28.275 85 26.5 85 C25.5 85 25 84.5 25 83.6 C25 81.4 25 78.65 25 77 C25 76.1 25.5 75.6 26.5 75.6 C28.86667 75.6 31.825 75.6 33.6 75.6 zM9.8 0 C19.925 0 40.175 0 50.3 0 C50.3 1.95 50.3 5.85 50.3 7.8 C46.475 7.8 38.825 7.8 35 7.8 C35 21.025 35 47.475 35 60.7 C38.825 60.7 46.475 60.7 50.3 60.7 C50.3 62.65 50.3 66.55 50.3 68.5 C40.175 68.5 19.925 68.5 9.8 68.5 C9.8 66.55 9.8 62.65 9.8 60.7 C13.625 60.7 21.275 60.7 25.1 60.7 C25.1 47.475 25.1 21.025 25.1 7.8 C21.275 7.8 13.625 7.8 9.8 7.8 C9.8 5.85 9.8 1.95 9.8 0 z" />
<glyph unicode="" horiz-adv-x="60.200000000000003" d="M53.3 -0.4 C53.3 1.4 53.3 5 53.3 6.8 C50.675 6.8 45.425 6.8 42.8 6.8 C39.9 6.8 37.8 7.8 36.3 9.7 C34.8 11.6 34 14.4 34 18.3 C34 29.33333 34 43.125 34 51.4 C28.775 51.4 18.325 51.4 13.1 51.4 C13.1 49.75 13.1 46.45 13.1 44.8 C16.075 44.8 22.025 44.8 25 44.8 C25 38.175 25 24.925 25 18.3 C25 12.4 26.5 7.7 29.5 4.5 C31.1 2.8 32.8 1.6 34.9 0.8 C37 0 39.3 -0.4 41.9 -0.4 C45.7 -0.4 50.45 -0.4 53.3 -0.4 z" />
<glyph unicode="" horiz-adv-x="60.200000000000003" d="M6.6 0 C13.4 0 27 0 33.8 0 C37.4 0 40.8 0.8 43.8 2.5 C46.8 4.2 49.2 6.4 51 9.3 C52.8 12.1 53.7 15.2 53.7 18.6 C53.7 31.1 53.6 56.1 53.6 68.6 C47.2 68.6 34.5 68.5 28.1 68.5 C28.1 65.9 28.1 62.65 28.1 60.7 C32 60.7 39.8 60.7 43.7 60.7 C43.7 50.2 43.8 32.6 43.8 18.6 C43.8 16.9 43.3 15.4 42.4 14 C41.5 12.6 40.3 11.4 38.8 10.6 C37.3 9.7 35.6 9.3 33.8 9.3 C24.73333 9.3 13.4 9.3 6.6 9.3 C6.6 6.975 6.6 2.325 6.6 0 zM6.6 18.6 C9.075 18.6 14.025 18.6 16.5 18.6 C16.5 31.075 16.5 56.025 16.5 68.5 C14.025 68.5 9.075 68.5 6.6 68.5 C6.6 56.025 6.6 31.075 6.6 18.6 z" />
<glyph unicode="" horiz-adv-x="60.200000000000003" d="M10.1 60.7 C11.85 60.7 15.35 60.7 17.1 60.7 C18.1 60.7 18.6 61.2 18.6 62.1 C18.6 64.73333 18.6 68.025 18.6 70 C18.6 70.9 18.1 71.4 17.1 71.4 C14.76667 71.4 11.85 71.4 10.1 71.4 C9.1 71.4 8.6 70.9 8.6 70 C8.6 67.36667 8.6 64.075 8.6 62.1 C8.6 61.2 9.1 60.7 10.1 60.7 zM43.6 60.7 C45.35 60.7 48.85 60.7 50.6 60.7 C51.6 60.7 52.1 61.2 52.1 62.1 C52.1 64.73333 52.1 68.025 52.1 70 C52.1 70.9 51.6 71.4 50.6 71.4 C48.26667 71.4 45.35 71.4 43.6 71.4 C42.6 71.4 42.1 70.9 42.1 70 C42.1 67.36667 42.1 64.075 42.1 62.1 C42.1 61.2 42.6 60.7 43.6 60.7 zM9.1 0 C11.35 0 15.85 0 18.1 0 C18.1 12.85 18.1 38.55 18.1 51.4 C15.85 51.4 11.35 51.4 9.1 51.4 C9.1 38.55 9.1 12.85 9.1 0 zM18.1 -19.6 C22.275 -19.6 30.625 -19.6 34.8 -19.6 C40.2 -19.6 44.4 -17.9 47.3 -14.7 C50.2 -11.5 51.6 -6.9 51.6 -0.9 C51.6 16.53333 51.6 38.325 51.6 51.4 C46.1 51.4 35.1 51.4 29.6 51.4 C29.6 49.75 29.6 46.45 29.6 44.8 C32.85 44.8 39.35 44.8 42.6 44.8 C42.6 33.375 42.6 10.525 42.6 -0.9 C42.6 -8.5 39.7 -12.4 33.8 -12.4 C28.56667 -12.4 22.025 -12.4 18.1 -12.4 C18.1 -14.2 18.1 -17.8 18.1 -19.6 z" />
<glyph unicode="" horiz-adv-x="60.200000000000003" d="M26.9 72.8 C28.6 72.8 32 72.8 33.7 72.8 C35.7 74.8 39.7 79 41.7 81 C44.43333 78.26667 47.85 74.85 49.9 72.8 C51.6 72.8 55 72.8 56.7 72.8 C54.1 75.9 49 81.9 46.4 85 C43.33333 85 39.5 85 37.2 85 C34.6 81.9 29.5 75.9 26.9 72.8 zM15 -0.3 C18.1 -1 21.2 -1.3 24.5 -1.3 C32.3 -1.3 38 0.5 41.5 4.1 C45 7.7 46.7 13.8 46.7 22.4 C46.7 37.76667 46.7 56.975 46.7 68.5 C39.575 68.5 25.325 68.5 18.2 68.5 C18.2 66.55 18.2 62.65 18.2 60.7 C22.85 60.7 32.15 60.7 36.8 60.7 C36.8 51.125 36.8 31.975 36.8 22.4 C36.8 18.2 36.4 15 35.6 12.6 C34.9 10.3 33.6 8.6 31.8 7.6 C30 6.6 27.6 6.2 24.4 6.2 C17.6 6.2 11.2 8.6 5.3 13.6 C5.3 10 5.3 5.5 5.3 2.8 C8.7 1.4 11.9 0.4 15 -0.3 z" />
</font>
</svg>
