<?xml version="1.0" standalone="no"?>
<!DOCTYPE svg PUBLIC "-//W3C//DTD SVG 1.1//EN" "http://www.w3.org/Graphics/SVG/1.1/DTD/svg11.dtd" >
<svg xmlns="http://www.w3.org/2000/svg">
<metadata></metadata>
<defs>
<font id="pt_monoregular" horiz-adv-x="600" >
<font-face units-per-em="1000" ascent="770" descent="-230" />
<missing-glyph horiz-adv-x="500" />
<glyph unicode="&#xd;" />
<glyph unicode=" " />
<glyph unicode="!" d="M259 700h83v-347l-17 -176h-49l-17 176v347zM242 46q0 27 15.5 42.5t41.5 15.5q27 0 43 -15.5t16 -42.5q0 -26 -16 -42t-43 -16q-26 0 -41.5 16t-15.5 42z" />
<glyph unicode="&#x22;" d="M359 700h88l-31 -303h-57v303zM152 700h88l-31 -303h-57v303z" />
<glyph unicode="#" d="M342 225h-145l-39 -167h-69l39 167h-98l14 64h99l31 131h-94l14 64h95l38 158h69l-38 -158h145l38 158h69l-38 -158h97l-16 -64h-96l-31 -131h93l-16 -64h-92l-39 -167h-69zM212 289h145l31 131h-145z" />
<glyph unicode="$" d="M263 -12q-55 1 -97.5 9.5t-68.5 22.5l27 73q20 -12 54.5 -21.5t84.5 -11.5v270q-30 15 -59.5 32t-52.5 40.5t-37 55.5t-14 76q0 72 40.5 118t122.5 57v91h68v-88q51 -2 83.5 -9.5t58.5 -19.5l-24 -70q-20 10 -48 17.5t-70 9.5v-247q31 -16 62 -34.5t55.5 -42.5t39.5 -56 t15 -75q0 -78 -43.5 -128.5t-128.5 -64.5v-92h-68v88zM420 178q0 24 -8.5 43t-22.5 34t-33 27t-41 23v-243q46 8 75.5 36t29.5 80zM183 539q0 -43 27.5 -70t68.5 -49v219q-53 -6 -74.5 -35t-21.5 -65z" />
<glyph unicode="%" d="M28 542q0 47 11.5 79.5t29.5 52.5t41 29t46 9t46 -8t41 -27.5t29.5 -52t11.5 -82.5q0 -49 -11.5 -81.5t-29.5 -52t-41 -27.5t-46 -8t-46 8t-41 27.5t-29.5 52t-11.5 81.5zM98 542q0 -59 18.5 -82.5t39.5 -23.5q11 0 21.5 4.5t18.5 16.5t13 32.5t5 52.5q0 31 -5 51.5 t-13 33t-18.5 17.5t-21.5 5q-23 0 -40.5 -23.5t-17.5 -83.5zM315 169q0 47 11.5 79.5t29.5 52.5t41 29t46 9t46 -8t41 -27.5t29.5 -52t11.5 -82.5q0 -49 -11.5 -81.5t-29.5 -52t-41 -27.5t-46 -8t-46 8t-41 27.5t-29.5 52t-11.5 81.5zM385 169q0 -59 18.5 -82.5t39.5 -23.5 q11 0 21.5 4t18.5 15.5t13 32.5t5 54q0 31 -5 51.5t-13 33t-18.5 17.5t-21.5 5t-21.5 -5t-18.5 -17t-13 -32.5t-5 -52.5zM442 718l57 -29l-348 -703l-57 26z" />
<glyph unicode="&#x26;" d="M30 207q0 66 37 126t103 101q-24 36 -41.5 72t-17.5 78q0 24 8 47t25.5 41t45 29t66.5 11q41 0 69 -10.5t45 -27.5t24.5 -38t7.5 -43q0 -42 -32.5 -86.5t-102.5 -85.5q16 -29 37.5 -59.5t45.5 -60.5t49 -59.5t50 -54.5q11 16 19.5 39t14 48t8 50t2.5 46h71 q-3 -63 -20 -125.5t-50 -105.5q14 -17 32 -33.5t43 -32.5v-85q-53 26 -121 93q-18 -18 -36.5 -34.5t-41.5 -29.5t-52.5 -21t-68.5 -8q-41 0 -80 13.5t-70 40.5t-50 68t-19 97zM401 131q-29 29 -57 63t-53.5 68t-47 65.5t-36.5 55.5q-54 -41 -75.5 -83t-21.5 -90 q0 -39 14.5 -67.5t36.5 -47.5t48.5 -28t51.5 -9q50 0 83.5 22.5t56.5 50.5zM189 584q0 -30 12.5 -59.5t32.5 -58.5q53 34 73.5 62t20.5 49q0 32 -15.5 52t-53.5 20q-36 0 -53 -18t-17 -47z" />
<glyph unicode="'" d="M261 700h88l-31 -303h-57v303z" />
<glyph unicode="(" d="M432 -212q-67 17 -125.5 50.5t-102 87.5t-69 132t-25.5 185q0 106 26 185.5t70 135t102.5 89t123.5 47.5l25 -63q-59 -17 -108 -44.5t-84.5 -73t-55 -113t-19.5 -163.5q0 -97 23.5 -165.5t62 -114t86 -71t95.5 -35.5z" />
<glyph unicode=")" d="M143 -143q48 10 95.5 35.5t86 71t62 114t23.5 165.5q0 96 -19.5 163.5t-55 113t-84.5 73t-108 44.5l25 63q65 -14 123.5 -47.5t102.5 -89t70 -135t26 -185.5q0 -107 -25.5 -185t-69 -132t-102 -87.5t-125.5 -50.5z" />
<glyph unicode="*" d="M213 714l89 -175l86 176l69 -37l-121 -169l203 15v-81l-197 16l116 -161l-67 -39l-93 179l-88 -179l-72 39l121 161l-198 -16v81l198 -17l-115 168z" />
<glyph unicode="+" d="M48 374h216v221h72v-221h216v-72h-216v-221h-72v221h-216v72z" />
<glyph unicode="," d="M229 55q0 30 19.5 48.5t50.5 18.5q38 0 59 -26.5t21 -74.5q0 -39 -13 -68.5t-32.5 -50t-42 -33t-41.5 -18.5l-25 39q36 14 62 40t26 63q-14 -3 -22 -3q-29 0 -45.5 16.5t-16.5 48.5z" />
<glyph unicode="-" d="M129 325h342v-74h-342v74z" />
<glyph unicode="." d="M233 55q0 32 18 49.5t48 17.5q32 0 50 -17.5t18 -49.5q0 -29 -18 -48t-50 -19q-30 0 -48 19t-18 48z" />
<glyph unicode="/" d="M451 712l63 -28l-365 -824l-63 28z" />
<glyph unicode="0" d="M55 350q0 85 15 152.5t45 114t76 71t109 24.5q67 0 113.5 -24t75.5 -70t42 -113.5t13 -154.5q0 -85 -15 -152.5t-45 -114t-76 -71t-109 -24.5q-66 0 -112.5 26.5t-76 74.5t-42.5 114.5t-13 146.5zM462 350q0 53 -6 101l-297 -271q17 -57 51 -91t89 -34q88 0 125.5 73 t37.5 222zM138 350q0 -25 1.5 -48t3.5 -45l298 270q-17 54 -50.5 86t-90.5 32q-89 0 -125.5 -73.5t-36.5 -221.5z" />
<glyph unicode="1" d="M127 72h157v526l-160 -112l-39 57l220 157h56v-628h154v-72h-388v72z" />
<glyph unicode="2" d="M500 523q0 -92 -87 -205t-243 -246h352v-72h-444v72q19 18 52 47t71 64.5t77.5 76.5t71.5 84t52 86t20 83q0 60 -31.5 94.5t-94.5 34.5q-54 0 -91 -12t-67 -35l-34 55q45 32 95.5 47t110.5 15q94 0 142 -51t48 -138z" />
<glyph unicode="3" d="M248 57q40 0 73.5 10.5t58.5 29.5t39 46t14 60q0 69 -48.5 98.5t-130.5 29.5h-64v48l197 249h-299v72h395v-72l-197 -231h16q46 0 84 -13t66 -37t43.5 -58t15.5 -77q0 -54 -21 -96t-57 -70.5t-84.5 -43t-103.5 -14.5q-51 0 -88.5 7.5t-68.5 18.5l20 70q26 -12 61 -19.5 t79 -7.5z" />
<glyph unicode="4" d="M580 218h-135v-218h-78v218h-323v58l335 424h66v-416h135v-66zM367 575l-231 -291h231v291z" />
<glyph unicode="5" d="M256 58q38 0 70 9.5t54.5 29t35 48.5t12.5 68q0 72 -51.5 109.5t-140.5 37.5l-94 -5v345h343v-72h-268v-203l50 2q111 0 175 -54t64 -154q0 -56 -19.5 -99t-53.5 -72.5t-80.5 -44.5t-101.5 -15q-30 0 -57 4.5t-49 11t-38.5 14t-23.5 13.5l32 65q17 -10 52 -24t89 -14z " />
<glyph unicode="6" d="M539 211q0 -43 -15.5 -83t-45.5 -71t-74 -50t-102 -19q-54 0 -98 17t-76 48.5t-49.5 77.5t-17.5 103q0 94 27.5 178t77 148t118 104t150.5 48l14 -64q-63 -8 -115.5 -37t-91.5 -72t-63.5 -95t-31.5 -106q8 13 23.5 27t37 24.5t48 17.5t57.5 7q53 0 95 -14.5t71.5 -41 t45 -64t15.5 -83.5zM457 203q0 70 -39 107t-120 37q-29 0 -54 -7t-45 -18.5t-35 -26.5t-23 -30q-2 -14 -2 -22v-19q0 -30 10 -60.5t30.5 -54.5t51.5 -39t73 -15q34 0 62 12t48.5 32t31.5 47t11 57z" />
<glyph unicode="7" d="M124 0l306 628h-361v72h442v-65l-305 -635h-82z" />
<glyph unicode="8" d="M75 170q0 121 147 195q-28 15 -52 31t-41.5 36t-27.5 46t-10 60q0 37 15 69t43 55t68 36.5t89 13.5q46 0 83.5 -12t64 -33.5t40.5 -50.5t14 -62q0 -57 -28.5 -104.5t-91.5 -86.5q29 -15 54 -32t43.5 -38t29 -47.5t10.5 -60.5q0 -42 -15 -78.5t-44.5 -62.5t-72.5 -41 t-100 -15q-53 0 -94 15t-68.5 40t-41.5 58t-14 69zM446 180q0 29 -13.5 51.5t-36 40.5t-51.5 33t-60 30q-72 -35 -102.5 -77t-30.5 -79q0 -25 9.5 -47.5t28 -39.5t46 -27t63.5 -10q29 0 55.5 8t47 23.5t32.5 39t12 54.5zM169 541q0 -28 13 -50t34.5 -39.5t49.5 -32t59 -28.5 q53 35 79.5 70t26.5 77q0 25 -10.5 44.5t-28 33.5t-40.5 21.5t-48 7.5q-32 0 -57 -9t-42 -24t-26.5 -33.5t-9.5 -37.5z" />
<glyph unicode="9" d="M61 489q0 46 15 86.5t45.5 71t75.5 48t105 17.5q56 0 100 -18t74.5 -50.5t46.5 -79t16 -103.5q0 -112 -28 -197t-78 -144t-118.5 -92t-148.5 -40l-15 63q66 7 118 32t90 64t62 90t33 109q-16 -17 -32.5 -28.5t-36.5 -18.5t-44 -10t-55 -3q-46 0 -87 14t-71.5 40.5 t-48.5 64t-18 84.5zM143 497q0 -72 43.5 -108t115.5 -36q57 0 98.5 17.5t58.5 43.5q2 14 2 22.5v19.5q0 35 -9.5 69t-29.5 61t-51.5 43.5t-75.5 16.5q-72 0 -112 -39t-40 -110z" />
<glyph unicode=":" d="M233 448q0 32 18 49.5t48 17.5q32 0 50 -17.5t18 -49.5q0 -29 -18 -48t-50 -19q-30 0 -48 19t-18 48zM233 55q0 32 18 49.5t48 17.5q32 0 50 -17.5t18 -49.5q0 -29 -18 -48t-50 -19q-30 0 -48 19t-18 48z" />
<glyph unicode=";" d="M229 55q0 30 19.5 48.5t50.5 18.5q38 0 59 -26.5t21 -74.5q0 -39 -13 -68.5t-32.5 -50t-42 -33t-41.5 -18.5l-25 39q36 14 62 40t26 63q-14 -3 -22 -3q-29 0 -45.5 16.5t-16.5 48.5zM238 448q0 32 18 49.5t48 17.5q32 0 50 -17.5t18 -49.5q0 -29 -18 -48t-50 -19 q-30 0 -48 19t-18 48z" />
<glyph unicode="&#x3c;" d="M45 305v29l471 287l38 -62l-397 -235l398 -231l-38 -60z" />
<glyph unicode="=" d="M68 457h464v-72h-464v72zM68 292h464v-72h-464v72z" />
<glyph unicode="&#x3e;" d="M83 33l-38 60l398 231l-397 235l38 62l471 -287v-29z" />
<glyph unicode="?" d="M232 177q-1 5 -1 11v11q0 42 15.5 72t38.5 53.5t49.5 42.5t49.5 40.5t38.5 47.5t15.5 62q0 19 -9 41t-27.5 41t-48 31t-70.5 12q-33 0 -59.5 -8t-48 -20t-39 -26.5t-31.5 -27.5l-51 46q42 53 108.5 79.5t152.5 26.5q52 0 91 -17t64.5 -43.5t38 -59t12.5 -63.5 q0 -48 -16.5 -80.5t-41.5 -58t-53.5 -46t-53.5 -44t-41.5 -52.5t-16.5 -71h-66zM212 46q0 27 15.5 42.5t41.5 15.5q27 0 43 -15.5t16 -42.5q0 -26 -16 -42t-43 -16q-26 0 -41.5 16t-15.5 42z" />
<glyph unicode="@" d="M527 327q0 -38 -2 -81t-3 -86q0 -50 6 -95h67v-65h-133l-9 75h-5q-6 -9 -15 -23t-24.5 -27.5t-40.5 -23.5t-63 -10q-32 0 -59.5 10t-47.5 28.5t-31.5 44.5t-11.5 59q0 51 22 85t61 52t92.5 21t116.5 -8q3 50 -1 86.5t-18 60t-39.5 35t-65.5 11.5q-42 0 -83.5 -21 t-73.5 -61.5t-52 -99t-20 -132.5q0 -79 21.5 -137t57.5 -96t83.5 -56.5t100.5 -18.5q22 0 47.5 5.5t50 15.5t46 24.5t37.5 32.5l41 -53q-42 -45 -101.5 -68.5t-128.5 -23.5q-58 0 -116 19.5t-105 63t-76.5 114t-29.5 172.5q0 99 28 171.5t73 120.5t102 71.5t115 23.5 q52 0 88 -13t58 -39.5t31.5 -67t9.5 -96.5zM325 58q28 0 49 9t35 23t23 30.5t15 31.5v70q-47 9 -85.5 9t-66.5 -9.5t-43 -29.5t-15 -52q0 -33 21.5 -57.5t66.5 -24.5z" />
<glyph unicode="A" d="M431 194h-269l-64 -194h-82l234 700h98l236 -700h-87zM188 266h220l-103 329h-12z" />
<glyph unicode="B" d="M522 540q0 -25 -8 -51t-24 -48.5t-41 -39.5t-59 -26v-4q30 -5 57.5 -17t48.5 -33t34 -51t13 -71q0 -54 -22.5 -93.5t-59 -64.5t-83.5 -37t-96 -12h-40t-48 1.5t-50 4t-44 7.5v689q37 6 86 10t107 4q39 0 79.5 -6.5t73.5 -25t54.5 -51.5t21.5 -85zM290 64q32 0 62 8t53 24 t36.5 40t13.5 57q0 41 -16.5 66t-43 39t-59.5 19t-66 5h-87v-251q7 -2 20 -3t28 -2t31 -1.5t28 -0.5zM235 392q17 0 41 1t40 3q24 8 45 19.5t37.5 27.5t26 36t9.5 44q0 33 -12.5 55t-33.5 35t-48 18t-55 5q-33 0 -60.5 -1.5t-41.5 -4.5v-238h52z" />
<glyph unicode="C" d="M458 624q-17 7 -37.5 10.5t-49.5 3.5q-41 0 -80.5 -15t-70 -49t-49 -89t-18.5 -135q0 -72 16.5 -126t46 -90t71 -54t92.5 -18q26 0 48.5 4.5t41.5 12.5v100h74v-135l1 -2q-30 -23 -76 -38.5t-112 -15.5q-63 0 -116.5 21.5t-92.5 65.5t-60.5 112.5t-21.5 162.5 q0 98 24 166.5t65 112t95.5 63.5t116.5 20q34 0 59 -2.5t44 -7t33.5 -11.5t28.5 -16h1v-158h-74v107z" />
<glyph unicode="D" d="M80 700q38 5 79.5 6.5t70.5 1.5q91 0 152.5 -26t99 -72.5t54 -111.5t16.5 -143q0 -71 -15 -136.5t-52 -116t-99.5 -81t-156.5 -30.5q-13 0 -34 0.5t-43 2t-42 2.5t-30 3v701zM234 634q-14 0 -35.5 -1t-35.5 -4v-560q5 -1 14.5 -1.5t19.5 -1t19.5 -1t15.5 -0.5 q73 0 118.5 24t70.5 64.5t34 93t9 108.5q0 49 -8 98.5t-32.5 89.5t-70 65.5t-119.5 25.5z" />
<glyph unicode="E" d="M107 700h411v-74h-328v-229h303v-74h-303v-249h333v-74h-416v700z" />
<glyph unicode="F" d="M117 700h401v-74h-318v-239h298v-74h-298v-313h-83v700z" />
<glyph unicode="G" d="M437 631q-34 7 -83 7q-42 0 -80.5 -14.5t-68 -48.5t-47 -89t-17.5 -136q0 -148 54.5 -218t157.5 -70q64 0 109 25v195h-144v67h215v-308q-16 -12 -38.5 -22t-48 -17t-53 -10.5t-53.5 -3.5q-67 0 -120 21.5t-90 66t-57 113t-20 161.5q0 97 25 166t66 112.5t94 63.5t109 20 q60 0 99 -6.5t66 -17.5l-1 -4v-167h-74v114z" />
<glyph unicode="H" d="M457 321h-314v-321h-83v700h83v-305h314v305h83v-700h-83v321z" />
<glyph unicode="I" d="M60 700h480v-74h-199v-552h199v-74h-480v74h198v552h-198v74z" />
<glyph unicode="J" d="M97 700h396v-452q0 -126 -60 -192t-173 -66q-29 0 -57 5t-52 13.5t-41.5 18.5t-25.5 19l36 66q11 -7 24.5 -15t30 -15.5t37 -12.5t46.5 -5q75 0 113.5 47t38.5 152v363h-313v74z" />
<glyph unicode="K" d="M245 324h-77v-324h-83v700h83v-312h75l225 312h96l-247 -333l278 -367h-105z" />
<glyph unicode="L" d="M90 700h83v-626h283v174h74v-248h-440v700z" />
<glyph unicode="M" d="M457 465l10 95h-5l-48 -86l-102 -171h-25l-107 172l-46 85h-5l12 -94v-466h-81v700h77l166 -266h2l160 266h75v-700h-83v465z" />
<glyph unicode="N" d="M196 438l-54 101h-4l10 -101v-438h-78v700h54l282 -436l52 -96h5l-11 96v436h78v-700h-54z" />
<glyph unicode="O" d="M48 350q0 174 61.5 268t189.5 94q70 0 118.5 -26t78.5 -73.5t43 -114t13 -148.5q0 -174 -61.5 -268t-191.5 -94q-69 0 -117 26t-78 73.5t-43 114t-13 148.5zM136 350q0 -58 7.5 -110t26.5 -91.5t50 -63t79 -23.5q86 0 125.5 70t39.5 218q0 57 -7.5 109.5t-26.5 92t-51 63 t-80 23.5q-85 0 -124 -70.5t-39 -217.5z" />
<glyph unicode="P" d="M100 693q38 9 82 12t87 3q46 0 93.5 -9t86.5 -33t63.5 -66t24.5 -107q0 -64 -23 -108t-61 -71.5t-87 -39.5t-101 -12h-16.5t-24 0.5t-24.5 1.5t-17 2v-266h-83v693zM271 636q-26 0 -50 -1t-38 -5v-290q5 -2 16 -2.5t23 -1t23 -0.5h16q34 0 67.5 6.5t60.5 23.5t43.5 48 t16.5 79q0 41 -15.5 68.5t-41 44t-57.5 23.5t-64 7z" />
<glyph unicode="Q" d="M48 350q0 174 61.5 268t189.5 94q70 0 118.5 -26t78.5 -73.5t43 -114t13 -148.5q0 -161 -51 -252.5t-160 -106.5q9 -35 33.5 -52.5t62.5 -17.5q43 0 77 22l22 -61q-14 -16 -43.5 -25.5t-61.5 -9.5q-27 0 -55.5 7.5t-53.5 24.5t-43.5 44.5t-24.5 68.5q-57 8 -96 36.5 t-63.5 75t-35.5 109t-11 137.5zM136 350q0 -58 7.5 -110t26.5 -91.5t50 -63t79 -23.5q86 0 125.5 70t39.5 218q0 57 -7.5 109.5t-26.5 92t-51 63t-80 23.5q-85 0 -124 -70.5t-39 -217.5z" />
<glyph unicode="R" d="M100 693q38 7 87.5 11t90.5 4q46 0 87.5 -10t73 -33t50.5 -60t19 -90q0 -41 -13.5 -72.5t-33 -54t-40.5 -36.5t-36 -20l185 -332h-97l-165 308h-125v-308h-83v693zM280 636h-27t-27 -1t-24.5 -2t-18.5 -3v-258h78q69 0 114 34t45 106q0 54 -37 89t-103 35z" />
<glyph unicode="S" d="M150 99q30 -16 67.5 -26.5t75.5 -10.5q33 0 62 6.5t50.5 21t34 36.5t12.5 52q0 41 -27.5 67t-68.5 46t-89 39t-89 45t-68.5 63.5t-27.5 95.5q0 41 16.5 74t46.5 56t72.5 35.5t94.5 12.5q60 0 109 -8.5t78 -22.5l2 1v-2h1l-1 -3v-160h-74v107q-25 6 -55 10t-64 4 q-33 0 -59.5 -8t-45 -21.5t-28.5 -31.5t-10 -38q0 -39 27.5 -65t68.5 -46.5t89 -40.5t89 -46.5t68.5 -63.5t27.5 -92q0 -45 -16.5 -81t-47 -62t-75 -40t-100.5 -14q-38 0 -72 6t-62.5 15t-51 19t-35.5 17l1 3v162h74v-111z" />
<glyph unicode="T" d="M40 700h520v-183h-74v109h-145v-552h110v-74h-303v74h110v552h-144v-109h-74v183z" />
<glyph unicode="U" d="M460 700h80v-467q0 -63 -16.5 -109t-46.5 -75.5t-73 -43.5t-95 -14q-124 0 -186.5 56t-62.5 170v483h83v-444q0 -53 10.5 -89.5t31 -59t52 -32.5t73.5 -10q81 0 115.5 44.5t34.5 146.5v444z" />
<glyph unicode="V" d="M302 103h11l190 597h83l-235 -700h-97l-240 700h91z" />
<glyph unicode="W" d="M173 201l5 -65h7l14 71l74 273h66l69 -271l18 -74h5l6 68l74 497h74l-108 -700h-83l-81 284l-10 68h-3l-11 -69l-81 -283h-84l-109 700h79z" />
<glyph unicode="X" d="M251 356l-211 344h100l140 -237l25 -47l24 47l149 237h92l-219 -337l229 -363h-97l-157 251l-27 50l-26 -50l-160 -251h-93z" />
<glyph unicode="Y" d="M259 268l-250 432h97l200 -346h1l195 346h89l-249 -431v-269h-83v268z" />
<glyph unicode="Z" d="M55 75l395 551h-395v74h490v-75l-397 -551h397v-74h-490v75z" />
<glyph unicode="[" d="M149 700h341v-70h-263v-790h263v-70h-341v930z" />
<glyph unicode="\" d="M518 -111l-66 -29l-370 824l67 28z" />
<glyph unicode="]" d="M451 -230h-342v70h264v790h-264v70h342v-930z" />
<glyph unicode="^" d="M294 711h29l244 -410h-82l-180 308l-187 -308h-83z" />
<glyph unicode="_" d="M56 -135h488v-70h-488v70z" />
<glyph unicode="`" d="M370 571h-55l-119 149h109z" />
<glyph unicode="a" d="M108 461q43 25 97 36t106 11q51 0 83.5 -16t51 -41.5t25 -58t6.5 -65.5q0 -38 -2 -81t-3 -86q0 -50 6 -95h67v-65h-133l-9 75h-5q-6 -9 -18 -23t-31.5 -27.5t-47.5 -23.5t-66 -10q-74 0 -117 38t-43 104q0 51 22.5 85t64.5 52t101.5 21t133.5 -8q5 46 1.5 76.5t-16 48.5 t-35 25.5t-55.5 7.5q-45 0 -86 -12.5t-73 -25.5zM255 58q28 0 52 9t42 23t30 30.5t18 31.5v70q-52 9 -96 9t-76 -9.5t-50 -29.5t-18 -52q0 -33 22.5 -57.5t75.5 -24.5z" />
<glyph unicode="b" d="M2 700h160v-257h5q26 33 67 51t89 18q220 0 220 -254q0 -129 -71 -197.5t-202 -68.5q-62 0 -112 12t-73 28v601h-83v67zM313 445q-60 0 -97 -34t-54 -96v-230q23 -12 55 -19t67 -7q40 0 72.5 11.5t55.5 36t35.5 62.5t12.5 90q0 38 -8 72t-25.5 59.5t-45.5 40t-68 14.5z " />
<glyph unicode="c" d="M439 423q-23 8 -49.5 13.5t-52.5 5.5q-98 0 -146 -46t-48 -146q0 -44 14 -78.5t40 -58.5t62.5 -37t80.5 -13q47 0 91.5 16t74.5 42l35 -58q-14 -12 -35 -25t-48.5 -24.5t-61 -18.5t-72.5 -7q-65 0 -114.5 18.5t-82.5 53t-50 83t-17 107.5q0 63 17.5 112t50.5 82t80 50.5 t105 17.5q74 0 120.5 -13t78.5 -29l-1 -3v-139h-72v95z" />
<glyph unicode="d" d="M349 700h162v-529q0 -9 1 -22.5t2.5 -28.5t3.5 -29.5t4 -25.5h67v-65h-133l-10 77h-4q-22 -38 -65.5 -63.5t-100.5 -25.5q-113 0 -166.5 63.5t-53.5 197.5q0 63 18 111.5t51.5 81t80.5 49.5t105 17q21 0 37.5 -1t30.5 -3t26.5 -5.5t27.5 -7.5v142h-84v67zM289 55 q61 0 96 31.5t48 94.5v232q-22 15 -49.5 22t-72.5 7q-80 0 -126 -46.5t-46 -146.5q0 -41 7.5 -76.5t25 -61.5t46.5 -41t71 -15z" />
<glyph unicode="e" d="M529 63q-18 -16 -42.5 -30t-53.5 -24t-60.5 -15.5t-63.5 -5.5q-60 0 -106 18.5t-77 53t-47 82.5t-16 108q0 63 17.5 112t50.5 82t80 50.5t105 17.5q42 0 83 -11t72.5 -41.5t48.5 -84t12 -138.5h-387q0 -90 48.5 -134.5t129.5 -44.5q27 0 53.5 6.5t50.5 15.5t42.5 20 t28.5 20zM318 446q-33 0 -62.5 -7t-52 -23.5t-37 -43t-18.5 -65.5h311q-5 66 -42.5 102.5t-98.5 36.5z" />
<glyph unicode="f" d="M88 0v67h119v366h-119v67h119v28q0 94 49 136t140 42q33 0 59 -4t56 -16l-18 -65q-26 11 -50 14.5t-44 3.5q-66 0 -90 -32.5t-24 -106.5h207v-67h-207v-366h207v-67h-404z" />
<glyph unicode="g" d="M524 -25q0 -47 -18 -82.5t-49.5 -58.5t-73.5 -34.5t-91 -11.5q-59 0 -103 12t-76 31l38 71q9 -8 23.5 -15.5t33.5 -14t40.5 -10.5t42.5 -4q44 0 73.5 8t47.5 25t26 44t8 66v56h-4q-23 -33 -59 -51t-93 -18q-114 0 -167.5 63.5t-53.5 197.5q0 128 68 193.5t202 65.5 q62 0 105.5 -8.5t79.5 -21.5v-503zM301 55q61 0 96 31.5t49 96.5v237q-44 21 -123 21q-80 0 -126 -47t-46 -144q0 -43 8 -78.5t25.5 -61.5t46 -40.5t70.5 -14.5z" />
<glyph unicode="h" d="M4 700h156v-262h5q31 35 72 54.5t102 19.5q48 0 83.5 -10t58 -35t33.5 -68.5t11 -110.5v-288h-78v273q0 43 -5 75t-19.5 53.5t-39.5 32.5t-64 11q-27 0 -53 -9.5t-47.5 -26t-37 -40t-21.5 -51.5v-318h-77v633h-79v67z" />
<glyph unicode="i" d="M105 0v67h174v366h-174v67h254v-433h170v-67h-424zM252 642q0 27 18 46.5t46 19.5q29 0 48.5 -19.5t19.5 -46.5q0 -26 -19.5 -44t-48.5 -18q-28 0 -46 18t-18 44z" />
<glyph unicode="j" d="M336 433h-242v67h322v-512q0 -101 -51.5 -150.5t-142.5 -49.5q-27 0 -52.5 7t-47.5 16.5t-38.5 19.5t-24.5 16l33 65q27 -20 61.5 -35t71.5 -15q60 0 85.5 37.5t25.5 103.5v430zM294 642q0 27 18 46.5t46 19.5q29 0 48.5 -19.5t19.5 -46.5q0 -26 -19.5 -44t-48.5 -18 q-28 0 -46 18t-18 44z" />
<glyph unicode="k" d="M24 700h162v-414h55l197 214h94l-221 -237l182 -196h65v-67h-103l-214 226h-55v-226h-77v633h-85v67z" />
<glyph unicode="l" d="M119 700h166v-532q0 -61 20.5 -86t60.5 -25q28 0 53.5 10t56.5 34l36 -55q-16 -14 -35 -25t-39 -18.5t-40 -11.5t-37 -4q-37 0 -66 9.5t-48.5 30.5t-29.5 55.5t-10 85.5v465h-88v67z" />
<glyph unicode="m" d="M262 0v333q0 21 -1.5 40.5t-7 35t-16 24.5t-27.5 9q-34 0 -57.5 -28t-35.5 -70v-344h-76v500h52l15 -61h4q10 15 19.5 28.5t22 23.5t29.5 15.5t43 5.5q15 0 31 -4.5t29.5 -14t23.5 -25.5t13 -39q23 39 51.5 61t78.5 22q33 0 53.5 -11t32 -31.5t16 -49t4.5 -63.5v-357h-76 v340q0 21 -2 39.5t-7.5 32.5t-15 22t-25.5 8q-35 0 -59 -28t-36 -80v-334h-76z" />
<glyph unicode="n" d="M93 325q0 9 -0.5 23.5t-1.5 30t-2.5 30.5t-3.5 26h-67v65h134l9 -81h5q10 17 26.5 33.5t38.5 30t49 21.5t57 8q46 0 81.5 -10t59 -35.5t35.5 -69t12 -110.5v-287h-78v272q0 83 -27 125t-98 42q-26 0 -50.5 -10.5t-44.5 -27.5t-35 -39.5t-22 -47.5v-314h-77v325z" />
<glyph unicode="o" d="M57 250q0 121 63 191.5t180 70.5q63 0 108.5 -20.5t75.5 -55.5t44.5 -83t14.5 -103q0 -60 -16 -108.5t-47 -82.5t-76.5 -52.5t-103.5 -18.5q-62 0 -108 20.5t-76 55.5t-44.5 83t-14.5 103zM140 250q0 -35 8.5 -70t27.5 -63t49.5 -45t74.5 -17q80 0 120.5 49.5t40.5 145.5 q0 36 -8.5 70.5t-28 62.5t-50 45t-74.5 17q-80 0 -120 -49t-40 -146z" />
<glyph unicode="p" d="M96 325q0 9 -0.5 23.5t-1.5 30t-2.5 30.5t-3.5 26h-67v65h133l10 -70h5q27 35 68.5 58.5t101.5 23.5q107 0 161 -59t54 -193q0 -63 -18.5 -113.5t-52.5 -85.5t-82 -54t-106 -19q-21 0 -37.5 1.5t-30 4t-26.5 6.5t-28 10v-210h-77v525zM326 439q-30 0 -56.5 -11t-47 -29 t-33.5 -40t-16 -44v-228q22 -15 49.5 -23.5t72.5 -8.5q80 0 128 52.5t48 153.5q0 85 -33.5 131.5t-111.5 46.5z" />
<glyph unicode="q" d="M515 -200h-78v256h-4q-23 -33 -59 -50.5t-93 -17.5q-114 0 -167.5 63.5t-53.5 197.5q0 128 68 193.5t202 65.5q59 0 110 -10t75 -21v-677zM293 55q119 0 144 125v241q-22 11 -52.5 15.5t-69.5 4.5q-80 0 -126 -46t-46 -145q0 -43 7.5 -78.5t25.5 -61.5t46.5 -40.5 t70.5 -14.5z" />
<glyph unicode="r" d="M66 0v67h135v366h-135v67h187l16 -65h5q34 31 76 53t100 22q34 0 54.5 -13t32 -38t15.5 -60.5t4 -80.5l-70 -1q0 64 -12.5 94t-45.5 30q-31 0 -56 -9t-43.5 -22t-31.5 -26t-19 -22v-295h192v-67h-404z" />
<glyph unicode="s" d="M438 135q0 32 -25 49.5t-62 28t-80.5 19.5t-80.5 24t-62 40.5t-25 71.5q0 38 16.5 65t43.5 44.5t63 26t75 8.5q70 0 120.5 -17.5t80.5 -36.5l-32 -63q-33 18 -71.5 34.5t-96.5 16.5q-22 0 -43.5 -4.5t-39 -13.5t-28 -23.5t-10.5 -35.5q0 -26 25 -40t62 -23.5t80.5 -18 t80.5 -24.5t62 -43t25 -73q0 -69 -54.5 -114t-163.5 -45q-33 0 -65 6t-60 16t-51 22.5t-38 25.5l40 65q12 -12 32 -24.5t44 -22.5t51.5 -16t55.5 -6q27 0 50.5 4.5t41.5 14t28.5 25t10.5 37.5z" />
<glyph unicode="t" d="M31 500h119v99l78 22v-121h267v-67h-267v-236q0 -73 35.5 -108t101.5 -35q45 0 78.5 17t60.5 37l26 -59q-35 -28 -83.5 -45t-99.5 -17q-40 0 -75.5 11.5t-62.5 35.5t-43 61.5t-16 89.5v248h-119v67z" />
<glyph unicode="u" d="M363 500h142v-341q0 -49 6 -94h67v-65h-133l-3 85h-4q-26 -43 -69 -70t-104 -27q-46 0 -78.5 10.5t-53.5 36.5t-31 69.5t-10 108.5v220h-67v67h145v-271q0 -41 3.5 -73.5t14.5 -55t32.5 -34t57.5 -11.5q52 0 90.5 34t58.5 85v259h-64v67z" />
<glyph unicode="v" d="M302 97h11l157 403h87l-211 -500h-88l-215 500h92z" />
<glyph unicode="w" d="M339 390l100 -278h7l71 388h73l-98 -500h-89l-96 276h-3l-100 -276h-89l-105 500h77l81 -390h6l97 280h68z" />
<glyph unicode="x" d="M253 256l-193 244h100l144 -188l148 188h90l-193 -240l205 -260h-96l-159 205l-162 -205h-91z" />
<glyph unicode="y" d="M311 77h38l124 423h81l-139 -449q-11 -35 -22.5 -79.5t-32.5 -83.5t-57 -66t-94 -27q-13 0 -27.5 3t-28.5 7.5t-26 10.5t-18 12l28 72q6 -5 16.5 -10t23 -8.5t24.5 -6t20 -2.5q75 0 102 127h-67l-210 500h90z" />
<glyph unicode="z" d="M84 67l339 366h-339v67h432v-67l-342 -366h342v-67h-432v67z" />
<glyph unicode="{" d="M220 32q0 43 -14.5 74.5t-36 52.5t-46 31t-43.5 10v70q19 0 43.5 8.5t46 28t36 50.5t14.5 77v102q0 36 11.5 66t32 52t49 34.5t62.5 12.5h145v-70h-110q-63 0 -87.5 -30t-24.5 -89v-97q0 -41 -15 -73t-36 -53.5t-43 -34t-36 -14.5v-6q13 -2 35 -15.5t43 -37t36.5 -55.5 t15.5 -71v-96q0 -61 26 -90t87 -29h109v-70h-145q-70 0 -112.5 41.5t-42.5 122.5v98z" />
<glyph unicode="|" d="M266 700h68v-830h-68v830z" />
<glyph unicode="}" d="M380 -66q0 -81 -42.5 -122.5t-112.5 -41.5h-145v70h109q61 0 87 29t26 90v96q0 39 15 71t36 55.5t43 37t36 15.5v6q-14 2 -36 14.5t-43 34t-36 53.5t-15 73v97q0 59 -24.5 89t-87.5 30h-110v70h145q34 0 62.5 -12.5t49 -34.5t32 -52t11.5 -66v-102q0 -46 14.5 -77 t36 -50.5t46 -28t43.5 -8.5v-70q-19 0 -43.5 -10t-46 -31t-36 -52.5t-14.5 -74.5v-98z" />
<glyph unicode="~" d="M78 361q43 33 78 46t64 13q28 0 52 -8.5t46 -19t43 -19t44 -8.5q19 0 39 8t43 28l34 -61q-38 -26 -68.5 -36.5t-55.5 -10.5q-27 0 -49.5 8.5t-43 19t-41 19t-44.5 8.5q-23 0 -49 -10.5t-58 -36.5z" />
<glyph unicode="&#xa0;" />
<glyph unicode="&#xa1;" d="M341 -200h-83v347l17 176h49l17 -176v-347zM242 453q0 27 15.5 42.5t41.5 15.5q27 0 43 -15.5t16 -42.5q0 -26 -16 -42t-43 -16q-26 0 -41.5 16t-15.5 42z" />
<glyph unicode="&#xa2;" d="M517 29q-12 -9 -30 -16t-38 -12t-41.5 -7.5t-40.5 -2.5v-91h-71v90q-100 10 -156.5 79.5t-56.5 180.5q0 57 17 102.5t46 78.5t67.5 52.5t82.5 25.5v91h71v-89q44 0 81.5 -11.5t59.5 -22.5l-23 -68q-10 5 -24.5 10.5t-31.5 10.5t-35 8t-34 3v-383q16 0 35 2.5t38 7 t34.5 10.5t23.5 12zM166 250q0 -33 8.5 -65t26 -58t43.5 -43.5t62 -21.5v377q-62 -8 -101 -56t-39 -133z" />
<glyph unicode="&#xa3;" d="M77 383h66q-12 27 -20 57.5t-8 72.5q0 98 56 148.5t153 50.5q61 0 106 -9t74 -23l-26 -71q-23 11 -61.5 20t-93.5 9q-60 0 -92.5 -32.5t-32.5 -87.5q0 -42 10 -73.5t24 -61.5h161v-70h-131q8 -23 13 -48t5 -55q0 -15 -2 -31t-8 -33.5t-18 -35.5t-32 -36h303v-74h-446v72 q32 0 54.5 11.5t37 30t21.5 42t7 47.5q0 33 -6.5 59.5t-16.5 50.5h-97v70z" />
<glyph unicode="&#xa4;" d="M97 596l107 -106q39 27 95 27q53 0 95 -28l108 107l49 -49l-106 -108q26 -41 26 -94t-26 -94l106 -108l-49 -48l-106 105q-41 -26 -97 -26q-57 0 -97 27l-105 -106l-49 48l105 107q-25 41 -25 95q0 26 7 50t19 45l-106 107zM197 345q0 -45 28.5 -75t73.5 -30t74 30t29 75 t-29 75.5t-74 30.5t-73.5 -30.5t-28.5 -75.5z" />
<glyph unicode="&#xa5;" d="M137 328h94l-203 372h97l179 -340h5l173 340h89l-203 -372h96v-60h-122v-71h122v-60h-122v-137h-83v137h-122v60h122v71h-122v60z" />
<glyph unicode="&#xa6;" d="M266 206h68v-336h-68v336zM334 364h-68v336h68v-336z" />
<glyph unicode="&#xa7;" d="M108 353q0 15 4.5 33t15 36t27.5 35t43 30q-20 14 -36.5 36t-16.5 63q0 56 41.5 91t115.5 35q54 0 91.5 -9t64.5 -22l-19 -67q-24 11 -57 19.5t-69 8.5q-45 0 -66.5 -16t-21.5 -43q0 -26 19.5 -40.5t49.5 -25.5t64 -22t64 -28.5t49.5 -46t19.5 -73.5q0 -31 -18 -67.5 t-72 -66.5q27 -16 40 -37t13 -62q0 -31 -12 -54.5t-33.5 -39.5t-50.5 -24t-62 -8q-56 0 -92 9.5t-64 23.5l20 65q23 -11 55.5 -19.5t70.5 -8.5q42 0 65 13.5t23 45.5q0 26 -19.5 41t-49.5 26t-64 22t-64 28.5t-49.5 45.5t-19.5 73zM411 345q0 25 -13 41t-34.5 27.5t-48.5 20 t-54 18.5q-29 -13 -51 -37t-22 -60q0 -25 13 -41t33.5 -27.5t47 -19.5t53.5 -18q14 6 27.5 16t24.5 22.5t17.5 27t6.5 30.5z" />
<glyph unicode="&#xa8;" d="M131 645q0 26 15.5 42.5t41.5 16.5q25 0 41 -16.5t16 -42.5q0 -24 -16 -40.5t-41 -16.5q-26 0 -41.5 16.5t-15.5 40.5zM354 645q0 26 15.5 42.5t40.5 16.5q26 0 42.5 -16.5t16.5 -42.5q0 -24 -16.5 -40.5t-42.5 -16.5q-25 0 -40.5 16.5t-15.5 40.5z" />
<glyph unicode="&#xa9;" d="M43 295q0 60 20.5 107.5t55.5 80.5t81.5 50.5t99.5 17.5q52 0 99 -17.5t81.5 -50.5t55 -80.5t20.5 -107.5t-20.5 -107.5t-55 -80.5t-81.5 -50.5t-99 -17.5q-59 0 -106 17.5t-81 50.5t-52 80.5t-18 107.5zM96 295q0 -50 15.5 -89t43 -65.5t65 -40t80.5 -13.5t80 13.5 t64.5 40t43 65.5t15.5 89t-15.5 88.5t-43 65t-64.5 40.5t-80 14t-80.5 -14t-65 -40.5t-43 -65t-15.5 -88.5zM386 177q-34 -20 -86 -20q-59 0 -90 37t-31 101q0 66 33 102t88 36q26 0 42.5 -5t38.5 -15l-19 -51q-33 15 -55 15q-63 0 -63 -82q0 -42 18.5 -62t50.5 -20 q18 0 32 3.5t26 10.5z" />
<glyph unicode="&#xaa;" d="M175 677q25 13 66 22t91 9q62 0 85 -26t23 -75q0 -38 -1.5 -73t-1.5 -67q0 -24 1.5 -46t6.5 -41h-55l-13 46h-4q-13 -17 -37 -33.5t-67 -16.5q-52 0 -83 25.5t-31 69.5q0 31 15 52t40.5 34t60 19t74.5 6q7 0 13.5 -0.5t13.5 -0.5q1 6 1 11.5v10.5q0 27 -12 38t-46 11 q-40 0 -73 -7.5t-52 -17.5zM280 432q21 0 36.5 5t26.5 13.5t18 18t11 18.5v42q-11 1 -21 1h-21q-21 0 -40 -2t-33.5 -8t-23 -16.5t-8.5 -27.5q0 -20 14.5 -32t40.5 -12z" />
<glyph unicode="&#xab;" d="M50 264l195 254l58 -48l-156 -202l163 -199l-57 -49zM290 264l195 254l58 -48l-156 -202l163 -199l-57 -49z" />
<glyph unicode="&#xac;" d="M88 392h424v-192h-72v120h-352v72z" />
<glyph unicode="&#xad;" d="M129 325h342v-74h-342v74z" />
<glyph unicode="&#xae;" d="M35 451q0 64 21 113.5t57.5 83t84.5 51t102 17.5q55 0 103.5 -17.5t84.5 -51t56.5 -83t20.5 -113.5t-21 -113.5t-57.5 -83t-84.5 -51t-102 -17.5q-56 0 -104 17.5t-84 51t-56.5 83t-20.5 113.5zM98 451q0 -52 16 -90.5t43.5 -64t64.5 -38.5t78 -13q43 0 80 12.5t64 38 t42.5 64t15.5 91.5q0 52 -16 90.5t-43.5 64t-64 38.5t-78.5 13q-44 0 -81 -13t-64 -38.5t-42 -64t-15 -90.5zM197 581q16 5 45 7.5t55 2.5q42 0 72 -17.5t30 -60.5q0 -16 -5.5 -27.5t-13.5 -20t-17.5 -13.5t-18.5 -7l86 -123h-61l-78 104h-42v-104h-52v259zM286 546 q-11 0 -21 -0.5t-16 -3.5v-74h34q61 0 61 43q0 35 -58 35z" />
<glyph unicode="&#xaf;" d="M152 643h296v-62h-296v62z" />
<glyph unicode="&#xb0;" d="M159 571q0 31 11 57t30 44.5t45 29t55 10.5t55 -9.5t45 -28t30 -44.5t11 -59t-11 -59t-30 -44.5t-45 -28t-55 -9.5t-55 9.5t-45 28t-30 44.5t-11 59zM222 571q0 -38 23.5 -59.5t54.5 -21.5t54.5 21.5t23.5 59.5t-23.5 59.5t-54.5 21.5t-54.5 -21.5t-23.5 -59.5z" />
<glyph unicode="&#xb1;" d="M88 493h176v181h72v-181h176v-72h-176v-120h-72v120h-176v72zM88 250h424v-72h-424v72z" />
<glyph unicode="&#xb2;" d="M445 675q0 -37 -20.5 -70.5t-53.5 -63t-73 -54.5t-79 -44h246v-63h-351v53q16 13 41 29t54 34t58.5 38.5t53.5 42t39 44t15 45.5q0 21 -8.5 35.5t-21.5 24t-28.5 13.5t-30.5 4q-23 0 -42.5 -5.5t-36 -13.5t-29.5 -17.5t-21 -16.5l-32 49q9 9 25 20.5t38 22t50 18t60 7.5 q31 0 58 -8.5t46.5 -25t31 -41t11.5 -57.5z" />
<glyph unicode="&#xb3;" d="M262 433q48 0 76 19t28 56q0 32 -23.5 52t-74.5 20h-65v38l130 122h-228v60h316v-53l-129 -115v-2q67 -1 105.5 -34.5t38.5 -87.5q0 -61 -47 -98t-136 -37q-24 0 -51 5.5t-52 15.5t-46 24t-33 31l36 52q7 -8 21 -19.5t33.5 -22.5t44.5 -18.5t56 -7.5z" />
<glyph unicode="&#xb4;" d="M261 720h109l-119 -149h-55z" />
<glyph unicode="&#xb6;" d="M418 700h68v-830h-68v830zM262 310q-32 0 -59 16.5t-46.5 44t-31 63t-11.5 72.5t11.5 72t33.5 62t54 43.5t72 16.5h45v-830h-68v440z" />
<glyph unicode="&#xb7;" d="M233 305q0 32 18 49.5t48 17.5q32 0 50 -17.5t18 -49.5q0 -29 -18 -48t-50 -19q-30 0 -48 19t-18 48z" />
<glyph unicode="&#xb8;" d="M328 0l-24 -43q42 -8 60.5 -26t18.5 -49q0 -39 -32 -64.5t-90 -25.5q-11 0 -22 1t-23 3l9 39q6 -1 11 -1h10q22 0 34.5 4t19 9.5t8 12.5t1.5 13q0 28 -86 37l48 90h57z" />
<glyph unicode="&#xb9;" d="M134 441h146v275l-125 -70l-27 55l166 99h56v-359h135v-61h-351v61z" />
<glyph unicode="&#xba;" d="M145 542q0 45 12 77t32.5 53t49 30.5t61.5 9.5t61.5 -9t49 -29t32.5 -52.5t12 -79.5t-12 -79.5t-32.5 -52.5t-49 -29t-61.5 -9t-61.5 9t-49 29t-32.5 52.5t-12 79.5zM219 542q0 -60 21.5 -86t59.5 -26q19 0 34 5.5t25.5 18t16 34t5.5 54.5t-5.5 54.5t-16 34t-25.5 18 t-34 5.5q-38 0 -59.5 -23.5t-21.5 -88.5z" />
<glyph unicode="&#xbb;" d="M347 20l-57 49l163 199l-156 202l58 48l195 -254zM107 20l-57 49l163 199l-156 202l58 48l195 -254z" />
<glyph unicode="&#xbc;" d="M432 713l47 -20l-308 -705l-48 22zM549 97h-51v-97h-58v97h-135v41l144 288h49v-276h51v-53zM440 307l-72 -157h72v157zM135 617l-68 -59l-32 37l118 105h40v-420h-58v337z" />
<glyph unicode="&#xbd;" d="M420 713l47 -20l-308 -705l-48 22zM548 318q0 -67 -33 -130.5t-84 -131.5h129v-56h-198v48q19 22 41 52t41 64.5t32 71.5t13 73q0 29 -11.5 45.5t-29.5 16.5t-35 -5.5t-28 -14.5l-18 48q17 14 41.5 21t42.5 7q97 0 97 -109zM135 617l-68 -59l-32 37l118 105h40v-420h-58 v337z" />
<glyph unicode="&#xbe;" d="M440 713l47 -20l-308 -705l-48 22zM115 329q31 0 45.5 21t14.5 58q0 32 -14 52t-47 20h-35v33l75 131h-107v56h175v-42l-77 -131v-3q45 1 67 -30.5t22 -85.5q0 -61 -32 -98t-81 -37q-23 0 -42.5 5t-34.5 13l13 53q24 -15 58 -15zM549 97h-51v-97h-58v97h-135v41l144 288 h49v-276h51v-53zM440 307l-72 -157h72v157z" />
<glyph unicode="&#xbf;" d="M273 454q0 27 15.5 42.5t41.5 15.5q27 0 43 -15.5t16 -42.5q0 -26 -16 -42t-43 -16q-26 0 -41.5 16t-15.5 42zM368 323q1 -5 1 -11v-11q0 -42 -15.5 -72t-38.5 -53.5t-49.5 -42.5t-49.5 -40.5t-38.5 -47.5t-15.5 -62q0 -20 8.5 -41.5t27.5 -40.5t48.5 -31t70.5 -12 q33 0 59.5 7.5t48 19.5t39 26.5t31.5 28.5l51 -46q-42 -53 -98 -79.5t-144 -26.5q-60 0 -102.5 17t-69.5 43.5t-40 59t-13 63.5q0 47 16.5 80t41.5 58.5t53.5 46t53.5 44t41.5 52.5t16.5 71h66z" />
<glyph unicode="&#xc0;" d="M431 194h-269l-64 -194h-82l234 700h98l236 -700h-87zM188 266h220l-103 329h-12zM375 752h-74l-158 97v21h114z" />
<glyph unicode="&#xc1;" d="M431 194h-269l-64 -194h-82l234 700h98l236 -700h-87zM188 266h220l-103 329h-12zM338 870h114v-21l-163 -97h-69z" />
<glyph unicode="&#xc2;" d="M431 194h-269l-64 -194h-82l234 700h98l236 -700h-87zM188 266h220l-103 329h-12zM273 871h60l145 -123h-99l-77 65l-83 -65h-101z" />
<glyph unicode="&#xc3;" d="M431 194h-269l-64 -194h-82l234 700h98l236 -700h-87zM188 266h220l-103 329h-12zM130 789q31 32 63.5 41.5t56.5 9.5q19 0 37 -5t34.5 -11.5t32.5 -11.5t31 -5q26 0 50 21l29 -49q-27 -25 -53 -31.5t-47 -6.5q-19 0 -36 5t-33.5 11.5t-32.5 11.5t-32 5t-31.5 -6.5 t-32.5 -23.5z" />
<glyph unicode="&#xc4;" d="M431 194h-269l-64 -194h-82l234 700h98l236 -700h-87zM188 266h220l-103 329h-12zM126 800q0 23 17.5 37.5t45.5 14.5q26 0 43.5 -14.5t17.5 -37.5t-17.5 -37t-43.5 -14q-28 0 -45.5 14t-17.5 37zM351 800q0 23 17 37.5t43 14.5q29 0 46 -14.5t17 -37.5t-17 -37t-46 -14 q-26 0 -43 14t-17 37z" />
<glyph unicode="&#xc5;" d="M195 768q0 37 25 61t80 24q50 0 78 -21.5t28 -63.5q0 -32 -20 -53.5t-59 -27.5l257 -687h-87l-72 194h-258l-70 -194h-82l256 687q-38 6 -57 27.5t-19 53.5zM194 266h206l-103 288h-1zM256 768q0 -17 10.5 -28.5t33.5 -11.5q22 0 33.5 11t11.5 29q0 19 -11 30.5t-34 11.5 q-22 0 -33 -11.5t-11 -30.5z" />
<glyph unicode="&#xc6;" d="M304 552l-21 -66l-82 -223h105v289h-2zM306 191h-130l-73 -191h-83l274 700h272v-75h-180v-228h163v-75h-163v-247h183v-75h-263v191z" />
<glyph unicode="&#xc7;" d="M458 624q-17 7 -37.5 10.5t-49.5 3.5q-41 0 -80.5 -15t-70 -49t-49 -89t-18.5 -135q0 -72 16.5 -126t46 -90t71 -54t92.5 -18q26 0 48.5 4.5t41.5 12.5v100h74v-135l1 -2q-30 -23 -76 -39q-33 -10 -76 -14l-18 -32q42 -8 60.5 -26t18.5 -49q0 -39 -32 -64.5t-90 -25.5 q-11 0 -22 1t-23 3l9 39q6 -1 11 -1h10q22 0 34.5 4t19 9.5t8 12.5t1.5 13q0 28 -86 37l41 79q-50 3 -95 20q-53 22 -92 66t-60.5 112.5t-21.5 162.5q0 98 24 166.5t65 112t95.5 63.5t116.5 20q34 0 59 -2.5t44 -7t33.5 -11.5t28.5 -16h1v-158h-74v107z" />
<glyph unicode="&#xc8;" d="M107 700h411v-74h-328v-229h303v-74h-303v-249h333v-74h-416v700zM389 752h-74l-158 97v21h114z" />
<glyph unicode="&#xc9;" d="M107 700h411v-74h-328v-229h303v-74h-303v-249h333v-74h-416v700zM352 870h114v-21l-163 -97h-69z" />
<glyph unicode="&#xca;" d="M107 700h411v-74h-328v-229h303v-74h-303v-249h333v-74h-416v700zM284 871h60l145 -123h-99l-77 65l-83 -65h-101z" />
<glyph unicode="&#xcb;" d="M107 700h411v-74h-328v-229h303v-74h-303v-249h333v-74h-416v700zM137 800q0 23 17.5 37.5t45.5 14.5q26 0 43.5 -14.5t17.5 -37.5t-17.5 -37t-43.5 -14q-28 0 -45.5 14t-17.5 37zM362 800q0 23 17 37.5t43 14.5q29 0 46 -14.5t17 -37.5t-17 -37t-46 -14q-26 0 -43 14 t-17 37z" />
<glyph unicode="&#xcc;" d="M60 700h480v-74h-199v-552h199v-74h-480v74h198v552h-198v74zM387 752h-74l-158 97v21h114z" />
<glyph unicode="&#xcd;" d="M60 700h480v-74h-199v-552h199v-74h-480v74h198v552h-198v74zM334 870h114v-21l-163 -97h-69z" />
<glyph unicode="&#xce;" d="M60 700h480v-74h-199v-552h199v-74h-480v74h198v552h-198v74zM272 871h60l145 -123h-99l-77 65l-83 -65h-101z" />
<glyph unicode="&#xcf;" d="M60 700h480v-74h-199v-552h199v-74h-480v74h198v552h-198v74zM126 800q0 23 17.5 37.5t45.5 14.5q26 0 43.5 -14.5t17.5 -37.5t-17.5 -37t-43.5 -14q-28 0 -45.5 14t-17.5 37zM351 800q0 23 17 37.5t43 14.5q29 0 46 -14.5t17 -37.5t-17 -37t-46 -14q-26 0 -43 14t-17 37 z" />
<glyph unicode="&#xd0;" d="M9 392h90v308q38 5 86.5 6.5t90.5 1.5q84 0 142.5 -26t95 -72.5t52.5 -111.5t16 -143q0 -71 -15 -136.5t-51.5 -116t-97.5 -81t-152 -30.5q-16 0 -40 0.5t-49 2t-46.5 2.5t-31.5 3v333h-90v60zM278 634q-26 0 -54 -1t-42 -4v-237h137v-60h-137v-263q5 -1 17 -1.5t25.5 -1 t26 -1t17.5 -0.5q70 0 114.5 24t69 64.5t33.5 93t9 108.5q0 49 -8 98.5t-31.5 89.5t-65.5 65.5t-111 25.5z" />
<glyph unicode="&#xd1;" d="M196 438l-54 101h-4l10 -101v-438h-78v700h54l282 -436l52 -96h5l-11 96v436h78v-700h-54zM130 789q31 32 63.5 41.5t56.5 9.5q19 0 37 -5t34.5 -11.5t32.5 -11.5t31 -5q26 0 50 21l29 -49q-27 -25 -53 -31.5t-47 -6.5q-19 0 -36 5t-33.5 11.5t-32.5 11.5t-32 5 t-31.5 -6.5t-32.5 -23.5z" />
<glyph unicode="&#xd2;" d="M48 350q0 174 61.5 268t189.5 94q70 0 118.5 -26t78.5 -73.5t43 -114t13 -148.5q0 -174 -61.5 -268t-191.5 -94q-69 0 -117 26t-78 73.5t-43 114t-13 148.5zM136 350q0 -58 7.5 -110t26.5 -91.5t50 -63t79 -23.5q86 0 125.5 70t39.5 218q0 57 -7.5 109.5t-26.5 92t-51 63 t-80 23.5q-85 0 -124 -70.5t-39 -217.5zM369 752h-74l-158 97v21h114z" />
<glyph unicode="&#xd3;" d="M48 350q0 174 61.5 268t189.5 94q70 0 118.5 -26t78.5 -73.5t43 -114t13 -148.5q0 -174 -61.5 -268t-191.5 -94q-69 0 -117 26t-78 73.5t-43 114t-13 148.5zM136 350q0 -58 7.5 -110t26.5 -91.5t50 -63t79 -23.5q86 0 125.5 70t39.5 218q0 57 -7.5 109.5t-26.5 92t-51 63 t-80 23.5q-85 0 -124 -70.5t-39 -217.5zM373 870h114v-21l-163 -97h-69z" />
<glyph unicode="&#xd4;" d="M48 350q0 174 61.5 268t189.5 94q70 0 118.5 -26t78.5 -73.5t43 -114t13 -148.5q0 -174 -61.5 -268t-191.5 -94q-69 0 -117 26t-78 73.5t-43 114t-13 148.5zM136 350q0 -58 7.5 -110t26.5 -91.5t50 -63t79 -23.5q86 0 125.5 70t39.5 218q0 57 -7.5 109.5t-26.5 92t-51 63 t-80 23.5q-85 0 -124 -70.5t-39 -217.5zM271 871h60l145 -123h-99l-77 65l-83 -65h-101z" />
<glyph unicode="&#xd5;" d="M48 350q0 174 61.5 268t189.5 94q70 0 118.5 -26t78.5 -73.5t43 -114t13 -148.5q0 -174 -61.5 -268t-191.5 -94q-69 0 -117 26t-78 73.5t-43 114t-13 148.5zM136 350q0 -58 7.5 -110t26.5 -91.5t50 -63t79 -23.5q86 0 125.5 70t39.5 218q0 57 -7.5 109.5t-26.5 92t-51 63 t-80 23.5q-85 0 -124 -70.5t-39 -217.5zM129 789q31 32 63.5 41.5t56.5 9.5q19 0 37 -5t34.5 -11.5t32.5 -11.5t31 -5q26 0 50 21l29 -49q-27 -25 -53 -31.5t-47 -6.5q-19 0 -36 5t-33.5 11.5t-32.5 11.5t-32 5t-31.5 -6.5t-32.5 -23.5z" />
<glyph unicode="&#xd6;" d="M48 350q0 174 61.5 268t189.5 94q70 0 118.5 -26t78.5 -73.5t43 -114t13 -148.5q0 -174 -61.5 -268t-191.5 -94q-69 0 -117 26t-78 73.5t-43 114t-13 148.5zM136 350q0 -58 7.5 -110t26.5 -91.5t50 -63t79 -23.5q86 0 125.5 70t39.5 218q0 57 -7.5 109.5t-26.5 92t-51 63 t-80 23.5q-85 0 -124 -70.5t-39 -217.5zM124 800q0 23 17.5 37.5t45.5 14.5q26 0 43.5 -14.5t17.5 -37.5t-17.5 -37t-43.5 -14q-28 0 -45.5 14t-17.5 37zM349 800q0 23 17 37.5t43 14.5q29 0 46 -14.5t17 -37.5t-17 -37t-46 -14q-26 0 -43 14t-17 37z" />
<glyph unicode="&#xd7;" d="M174 517l126 -127l127 127l51 -53l-126 -126l126 -127l-51 -52l-127 128l-127 -128l-52 51l128 129l-126 125z" />
<glyph unicode="&#xd8;" d="M80 91q-34 48 -50 113t-16 146q0 175 74 268.5t211 93.5q57 0 101 -15t78 -44l42 60l52 -35l-51 -72q33 -48 49 -112.5t16 -143.5q0 -175 -74.5 -268.5t-212.5 -93.5q-107 0 -175 56l-39 -56l-52 36zM102 350q0 -51 8.5 -96t26.5 -83l290 411q-23 26 -54.5 41t-73.5 15 q-92 0 -144.5 -70.5t-52.5 -217.5zM498 350q0 48 -8.5 93t-25.5 82l-290 -411q23 -25 54 -38.5t71 -13.5q93 0 146 70.5t53 217.5z" />
<glyph unicode="&#xd9;" d="M460 700h80v-467q0 -63 -16.5 -109t-46.5 -75.5t-73 -43.5t-95 -14q-124 0 -186.5 56t-62.5 170v483h83v-444q0 -53 10.5 -89.5t31 -59t52 -32.5t73.5 -10q81 0 115.5 44.5t34.5 146.5v444zM382 752h-74l-158 97v21h114z" />
<glyph unicode="&#xda;" d="M460 700h80v-467q0 -63 -16.5 -109t-46.5 -75.5t-73 -43.5t-95 -14q-124 0 -186.5 56t-62.5 170v483h83v-444q0 -53 10.5 -89.5t31 -59t52 -32.5t73.5 -10q81 0 115.5 44.5t34.5 146.5v444zM364 870h114v-21l-163 -97h-69z" />
<glyph unicode="&#xdb;" d="M460 700h80v-467q0 -63 -16.5 -109t-46.5 -75.5t-73 -43.5t-95 -14q-124 0 -186.5 56t-62.5 170v483h83v-444q0 -53 10.5 -89.5t31 -59t52 -32.5t73.5 -10q81 0 115.5 44.5t34.5 146.5v444zM275 871h60l145 -123h-99l-77 65l-83 -65h-101z" />
<glyph unicode="&#xdc;" d="M460 700h80v-467q0 -63 -16.5 -109t-46.5 -75.5t-73 -43.5t-95 -14q-124 0 -186.5 56t-62.5 170v483h83v-444q0 -53 10.5 -89.5t31 -59t52 -32.5t73.5 -10q81 0 115.5 44.5t34.5 146.5v444zM127 800q0 23 17.5 37.5t45.5 14.5q26 0 43.5 -14.5t17.5 -37.5t-17.5 -37 t-43.5 -14q-28 0 -45.5 14t-17.5 37zM352 800q0 23 17 37.5t43 14.5q29 0 46 -14.5t17 -37.5t-17 -37t-46 -14q-26 0 -43 14t-17 37z" />
<glyph unicode="&#xdd;" d="M259 268l-250 432h97l200 -346h1l195 346h89l-249 -431v-269h-83v268zM355 870h114v-21l-163 -97h-69z" />
<glyph unicode="&#xde;" d="M91 700h83v-75q10 1 24 1.5t29 1t28.5 0.5h24.5q46 0 93.5 -9t86.5 -33t63.5 -66t24.5 -107q0 -64 -23 -108t-61 -71.5t-87 -40t-101 -12.5h-19.5t-31 0.5t-31.5 1.5t-20 2v-185h-83v700zM282 556h-28.5t-31 -1t-28.5 -2t-20 -3v-290q5 -2 19 -2.5t30 -1.5t30 -1h19 q34 0 67.5 6.5t60.5 24t43.5 48.5t16.5 79q0 41 -15.5 68.5t-41 44t-57.5 23.5t-64 7z" />
<glyph unicode="&#xdf;" d="M399 559q0 17 -9.5 31.5t-24.5 24.5t-33 15.5t-35 5.5q-28 0 -47.5 -7t-31.5 -23t-17.5 -42.5t-5.5 -65.5v-498h-80v430h-78v70h78v23q0 97 47.5 140t131.5 43q41 0 75 -10.5t58.5 -30t38 -46t13.5 -59.5q0 -38 -19 -61t-41.5 -41t-41.5 -35t-19 -42q0 -22 15 -35t38 -23 t49 -20.5t49 -27.5t38 -44.5t15 -71.5q0 -32 -12 -62.5t-34.5 -54.5t-56.5 -39t-77 -15q-23 0 -40.5 1.5t-32 5t-27.5 8.5t-26 13l23 65q12 -6 21 -11t19.5 -8t23.5 -4.5t32 -1.5q21 0 40.5 7.5t34.5 20.5t23.5 31.5t8.5 40.5q0 30 -15 47.5t-38 29.5t-49 21.5t-49 24 t-38 37t-15 60.5q0 39 19 62.5t41.5 42t41.5 35.5t19 43z" />
<glyph unicode="&#xe0;" d="M108 461q43 25 97 36t106 11q51 0 83.5 -16t51 -41.5t25 -58t6.5 -65.5q0 -38 -2 -81t-3 -86q0 -50 6 -95h67v-65h-133l-9 75h-5q-6 -9 -18 -23t-31.5 -27.5t-47.5 -23.5t-66 -10q-74 0 -117 38t-43 104q0 51 22.5 85t64.5 52t101.5 21t133.5 -8q5 46 1.5 76.5t-16 48.5 t-35 25.5t-55.5 7.5q-45 0 -86 -12.5t-73 -25.5zM255 58q28 0 52 9t42 23t30 30.5t18 31.5v70q-52 9 -96 9t-76 -9.5t-50 -29.5t-18 -52q0 -33 22.5 -57.5t75.5 -24.5zM361 571h-55l-119 149h109z" />
<glyph unicode="&#xe1;" d="M108 461q43 25 97 36t106 11q51 0 83.5 -16t51 -41.5t25 -58t6.5 -65.5q0 -38 -2 -81t-3 -86q0 -50 6 -95h67v-65h-133l-9 75h-5q-6 -9 -18 -23t-31.5 -27.5t-47.5 -23.5t-66 -10q-74 0 -117 38t-43 104q0 51 22.5 85t64.5 52t101.5 21t133.5 -8q5 46 1.5 76.5t-16 48.5 t-35 25.5t-55.5 7.5q-45 0 -86 -12.5t-73 -25.5zM255 58q28 0 52 9t42 23t30 30.5t18 31.5v70q-52 9 -96 9t-76 -9.5t-50 -29.5t-18 -52q0 -33 22.5 -57.5t75.5 -24.5zM299 720h109l-119 -149h-55z" />
<glyph unicode="&#xe2;" d="M108 461q43 25 97 36t106 11q51 0 83.5 -16t51 -41.5t25 -58t6.5 -65.5q0 -38 -2 -81t-3 -86q0 -50 6 -95h67v-65h-133l-9 75h-5q-6 -9 -18 -23t-31.5 -27.5t-47.5 -23.5t-66 -10q-74 0 -117 38t-43 104q0 51 22.5 85t64.5 52t101.5 21t133.5 -8q5 46 1.5 76.5t-16 48.5 t-35 25.5t-55.5 7.5q-45 0 -86 -12.5t-73 -25.5zM255 58q28 0 52 9t42 23t30 30.5t18 31.5v70q-52 9 -96 9t-76 -9.5t-50 -29.5t-18 -52q0 -33 22.5 -57.5t75.5 -24.5zM282 732h37l135 -182h-78l-81 109l-86 -109h-70z" />
<glyph unicode="&#xe3;" d="M108 461q43 25 97 36t106 11q51 0 83.5 -16t51 -41.5t25 -58t6.5 -65.5q0 -38 -2 -81t-3 -86q0 -50 6 -95h67v-65h-133l-9 75h-5q-6 -9 -18 -23t-31.5 -27.5t-47.5 -23.5t-66 -10q-74 0 -117 38t-43 104q0 51 22.5 85t64.5 52t101.5 21t133.5 -8q5 46 1.5 76.5t-16 48.5 t-35 25.5t-55.5 7.5q-45 0 -86 -12.5t-73 -25.5zM255 58q28 0 52 9t42 23t30 30.5t18 31.5v70q-52 9 -96 9t-76 -9.5t-50 -29.5t-18 -52q0 -33 22.5 -57.5t75.5 -24.5zM141 654q29 33 60 46.5t51 13.5q17 0 31.5 -6.5t28 -14t26 -13.5t26.5 -6q22 0 46 24l35 -44 q-26 -29 -48.5 -39.5t-49.5 -9.5q-16 0 -30 6.5t-27.5 14t-27 13.5t-27.5 6q-13 0 -26.5 -7t-30.5 -24z" />
<glyph unicode="&#xe4;" d="M108 461q43 25 97 36t106 11q51 0 83.5 -16t51 -41.5t25 -58t6.5 -65.5q0 -38 -2 -81t-3 -86q0 -50 6 -95h67v-65h-133l-9 75h-5q-6 -9 -18 -23t-31.5 -27.5t-47.5 -23.5t-66 -10q-74 0 -117 38t-43 104q0 51 22.5 85t64.5 52t101.5 21t133.5 -8q5 46 1.5 76.5t-16 48.5 t-35 25.5t-55.5 7.5q-45 0 -86 -12.5t-73 -25.5zM255 58q28 0 52 9t42 23t30 30.5t18 31.5v70q-52 9 -96 9t-76 -9.5t-50 -29.5t-18 -52q0 -33 22.5 -57.5t75.5 -24.5zM127 645q0 26 15.5 42.5t41.5 16.5q25 0 41 -16.5t16 -42.5q0 -24 -16 -40.5t-41 -16.5 q-26 0 -41.5 16.5t-15.5 40.5zM350 645q0 26 15.5 42.5t40.5 16.5q26 0 42.5 -16.5t16.5 -42.5q0 -24 -16.5 -40.5t-42.5 -16.5q-25 0 -40.5 16.5t-15.5 40.5z" />
<glyph unicode="&#xe5;" d="M108 461q43 25 97 36t106 11q51 0 83.5 -16t51 -41.5t25 -58t6.5 -65.5q0 -38 -2 -81t-3 -86q0 -50 6 -95h67v-65h-133l-9 75h-5q-6 -9 -18 -23t-31.5 -27.5t-47.5 -23.5t-66 -10q-74 0 -117 38t-43 104q0 51 22.5 85t64.5 52t101.5 21t133.5 -8q5 46 1.5 76.5t-16 48.5 t-35 25.5t-55.5 7.5q-45 0 -86 -12.5t-73 -25.5zM255 58q28 0 52 9t42 23t30 30.5t18 31.5v70q-52 9 -96 9t-76 -9.5t-50 -29.5t-18 -52q0 -33 22.5 -57.5t75.5 -24.5zM198 643q0 42 26.5 66.5t70.5 24.5q42 0 70 -22t28 -69q0 -39 -28 -64.5t-70 -25.5t-69.5 23.5 t-27.5 66.5zM252 643q0 -20 13 -31t30 -11q19 0 31.5 10t12.5 32t-13.5 32.5t-30.5 10.5t-30 -10t-13 -33z" />
<glyph unicode="&#xe6;" d="M175 59q32 0 55.5 17.5t30.5 43.5v105q-3 0 -11 0.5t-16.5 1t-16.5 0.5h-11q-20 0 -39 -2.5t-33 -11t-22.5 -25t-8.5 -43.5q0 -35 17 -60.5t55 -25.5zM283 65q-17 -35 -49 -54t-83 -19q-54 0 -88 40t-34 106q0 43 12 72.5t34 47.5t51.5 25.5t65.5 7.5h13.5t20 -0.5t20 -1 t14.5 -0.5q1 14 1.5 27t0.5 24q0 29 -8 48.5t-20.5 31t-29 16.5t-34.5 5q-23 0 -50 -9.5t-46 -24.5l-19 58q25 22 59.5 32.5t71.5 10.5q17 0 35.5 -4t35.5 -12t30 -19.5t18 -27.5q9 18 23.5 30.5t31.5 21t35 12t33 3.5q23 0 48.5 -7.5t46.5 -28.5t34.5 -57t13.5 -93 q0 -20 -1 -47t-4 -50h-241q1 -96 33 -135t85 -39q12 0 25 2.5t25.5 6t22.5 8.5t15 10l24 -56q-20 -17 -55.5 -27.5t-73.5 -10.5q-20 0 -41.5 5t-40.5 14.5t-34 24t-23 33.5h-4zM428 445q-18 0 -35.5 -9t-31.5 -28t-23.5 -47t-10.5 -67h175v18q0 67 -22.5 100t-51.5 33z" />
<glyph unicode="&#xe7;" d="M439 423q-23 8 -49.5 13.5t-52.5 5.5q-98 0 -146 -46t-48 -146q0 -44 14 -78.5t40 -58.5t62.5 -37t80.5 -13q47 0 91.5 16t74.5 42l35 -58q-26 -23 -76 -46.5t-119 -27.5l-17 -32q42 -8 60.5 -26t18.5 -49q0 -39 -32 -64.5t-90 -25.5q-11 0 -22 1t-23 3l9 39q6 -1 11 -1 h10q22 0 34.5 4t19 9.5t8 12.5t1.5 13q0 28 -86 37l42 80q-114 9 -172 79t-58 181q0 63 17.5 112t50.5 82t80 50.5t105 17.5q74 0 120.5 -13t78.5 -29l-1 -3v-139h-72v95z" />
<glyph unicode="&#xe8;" d="M529 63q-18 -16 -42.5 -30t-53.5 -24t-60.5 -15.5t-63.5 -5.5q-60 0 -106 18.5t-77 53t-47 82.5t-16 108q0 63 17.5 112t50.5 82t80 50.5t105 17.5q42 0 83 -11t72.5 -41.5t48.5 -84t12 -138.5h-387q0 -90 48.5 -134.5t129.5 -44.5q27 0 53.5 6.5t50.5 15.5t42.5 20 t28.5 20zM318 446q-33 0 -62.5 -7t-52 -23.5t-37 -43t-18.5 -65.5h311q-5 66 -42.5 102.5t-98.5 36.5zM367 571h-55l-119 149h109z" />
<glyph unicode="&#xe9;" d="M529 63q-18 -16 -42.5 -30t-53.5 -24t-60.5 -15.5t-63.5 -5.5q-60 0 -106 18.5t-77 53t-47 82.5t-16 108q0 63 17.5 112t50.5 82t80 50.5t105 17.5q42 0 83 -11t72.5 -41.5t48.5 -84t12 -138.5h-387q0 -90 48.5 -134.5t129.5 -44.5q27 0 53.5 6.5t50.5 15.5t42.5 20 t28.5 20zM318 446q-33 0 -62.5 -7t-52 -23.5t-37 -43t-18.5 -65.5h311q-5 66 -42.5 102.5t-98.5 36.5zM313 720h109l-119 -149h-55z" />
<glyph unicode="&#xea;" d="M529 63q-18 -16 -42.5 -30t-53.5 -24t-60.5 -15.5t-63.5 -5.5q-60 0 -106 18.5t-77 53t-47 82.5t-16 108q0 63 17.5 112t50.5 82t80 50.5t105 17.5q42 0 83 -11t72.5 -41.5t48.5 -84t12 -138.5h-387q0 -90 48.5 -134.5t129.5 -44.5q27 0 53.5 6.5t50.5 15.5t42.5 20 t28.5 20zM318 446q-33 0 -62.5 -7t-52 -23.5t-37 -43t-18.5 -65.5h311q-5 66 -42.5 102.5t-98.5 36.5zM288 732h37l135 -182h-78l-81 109l-86 -109h-70z" />
<glyph unicode="&#xeb;" d="M529 63q-18 -16 -42.5 -30t-53.5 -24t-60.5 -15.5t-63.5 -5.5q-60 0 -106 18.5t-77 53t-47 82.5t-16 108q0 63 17.5 112t50.5 82t80 50.5t105 17.5q42 0 83 -11t72.5 -41.5t48.5 -84t12 -138.5h-387q0 -90 48.5 -134.5t129.5 -44.5q27 0 53.5 6.5t50.5 15.5t42.5 20 t28.5 20zM318 446q-33 0 -62.5 -7t-52 -23.5t-37 -43t-18.5 -65.5h311q-5 66 -42.5 102.5t-98.5 36.5zM141 645q0 26 15.5 42.5t41.5 16.5q25 0 41 -16.5t16 -42.5q0 -24 -16 -40.5t-41 -16.5q-26 0 -41.5 16.5t-15.5 40.5zM364 645q0 26 15.5 42.5t40.5 16.5 q26 0 42.5 -16.5t16.5 -42.5q0 -24 -16.5 -40.5t-42.5 -16.5q-25 0 -40.5 16.5t-15.5 40.5z" />
<glyph unicode="&#xec;" d="M146 0v67h174v366h-174v67h254v-433h170v-67h-424zM369 571h-55l-119 149h109z" />
<glyph unicode="&#xed;" d="M105 0v67h174v366h-174v67h254v-433h170v-67h-424zM296 720h109l-119 -149h-55z" />
<glyph unicode="&#xee;" d="M105 0v67h174v366h-174v67h254v-433h170v-67h-424zM274 732h37l135 -182h-78l-81 109l-86 -109h-70z" />
<glyph unicode="&#xef;" d="M107 0v67h174v366h-174v67h254v-433h170v-67h-424zM131 645q0 26 15.5 42.5t41.5 16.5q25 0 41 -16.5t16 -42.5q0 -24 -16 -40.5t-41 -16.5q-26 0 -41.5 16.5t-15.5 40.5zM354 645q0 26 15.5 42.5t40.5 16.5q26 0 42.5 -16.5t16.5 -42.5q0 -24 -16.5 -40.5t-42.5 -16.5 q-25 0 -40.5 16.5t-15.5 40.5z" />
<glyph unicode="&#xf0;" d="M239 596l57 31q-38 23 -76 32l35 54q18 -7 46 -19t58 -33l68 37l26 -45l-50 -27q24 -23 50.5 -53.5t49 -71t37.5 -91.5t15 -115q0 -81 -21 -139t-56.5 -95.5t-81.5 -55t-95 -17.5q-65 0 -111.5 21t-76.5 57t-44 83.5t-14 101.5q0 52 15.5 99t46 82.5t76.5 56.5t106 21 q45 0 83 -13t64 -33q-17 35 -46 69t-58 60l-76 -41zM138 250q0 -49 13 -85t35.5 -60t53 -35.5t65.5 -11.5q32 0 62.5 13t54.5 41t38.5 72t14.5 106q0 10 -0.5 22.5l-1 25t-2 24t-3.5 19.5q-14 15 -34 26t-41.5 18.5t-44 11t-41.5 3.5q-44 0 -75.5 -15t-52.5 -40.5t-31 -60 t-10 -74.5z" />
<glyph unicode="&#xf1;" d="M93 325q0 9 -0.5 23.5t-1.5 30t-2.5 30.5t-3.5 26h-67v65h134l9 -81h5q10 17 26.5 33.5t38.5 30t49 21.5t57 8q46 0 81.5 -10t59 -35.5t35.5 -69t12 -110.5v-287h-78v272q0 83 -27 125t-98 42q-26 0 -50.5 -10.5t-44.5 -27.5t-35 -39.5t-22 -47.5v-314h-77v325zM146 654 q29 33 60 46.5t51 13.5q17 0 31.5 -6.5t28 -14t26 -13.5t26.5 -6q22 0 46 24l35 -44q-26 -29 -48.5 -39.5t-49.5 -9.5q-16 0 -30 6.5t-27.5 14t-27 13.5t-27.5 6q-13 0 -26.5 -7t-30.5 -24z" />
<glyph unicode="&#xf2;" d="M57 250q0 121 63 191.5t180 70.5q63 0 108.5 -20.5t75.5 -55.5t44.5 -83t14.5 -103q0 -60 -16 -108.5t-47 -82.5t-76.5 -52.5t-103.5 -18.5q-62 0 -108 20.5t-76 55.5t-44.5 83t-14.5 103zM140 250q0 -35 8.5 -70t27.5 -63t49.5 -45t74.5 -17q80 0 120.5 49.5t40.5 145.5 q0 36 -8.5 70.5t-28 62.5t-50 45t-74.5 17q-80 0 -120 -49t-40 -146zM340 571h-55l-119 149h109z" />
<glyph unicode="&#xf3;" d="M57 250q0 121 63 191.5t180 70.5q63 0 108.5 -20.5t75.5 -55.5t44.5 -83t14.5 -103q0 -60 -16 -108.5t-47 -82.5t-76.5 -52.5t-103.5 -18.5q-62 0 -108 20.5t-76 55.5t-44.5 83t-14.5 103zM140 250q0 -35 8.5 -70t27.5 -63t49.5 -45t74.5 -17q80 0 120.5 49.5t40.5 145.5 q0 36 -8.5 70.5t-28 62.5t-50 45t-74.5 17q-80 0 -120 -49t-40 -146zM324 720h109l-119 -149h-55z" />
<glyph unicode="&#xf4;" d="M57 250q0 121 63 191.5t180 70.5q63 0 108.5 -20.5t75.5 -55.5t44.5 -83t14.5 -103q0 -60 -16 -108.5t-47 -82.5t-76.5 -52.5t-103.5 -18.5q-62 0 -108 20.5t-76 55.5t-44.5 83t-14.5 103zM140 250q0 -35 8.5 -70t27.5 -63t49.5 -45t74.5 -17q80 0 120.5 49.5t40.5 145.5 q0 36 -8.5 70.5t-28 62.5t-50 45t-74.5 17q-80 0 -120 -49t-40 -146zM287 732h37l135 -182h-78l-81 109l-86 -109h-70z" />
<glyph unicode="&#xf5;" d="M57 250q0 121 63 191.5t180 70.5q63 0 108.5 -20.5t75.5 -55.5t44.5 -83t14.5 -103q0 -60 -16 -108.5t-47 -82.5t-76.5 -52.5t-103.5 -18.5q-62 0 -108 20.5t-76 55.5t-44.5 83t-14.5 103zM140 250q0 -35 8.5 -70t27.5 -63t49.5 -45t74.5 -17q80 0 120.5 49.5t40.5 145.5 q0 36 -8.5 70.5t-28 62.5t-50 45t-74.5 17q-80 0 -120 -49t-40 -146zM147 654q29 33 60 46.5t51 13.5q17 0 31.5 -6.5t28 -14t26 -13.5t26.5 -6q22 0 46 24l35 -44q-26 -29 -48.5 -39.5t-49.5 -9.5q-16 0 -30 6.5t-27.5 14t-27 13.5t-27.5 6q-13 0 -26.5 -7t-30.5 -24z" />
<glyph unicode="&#xf6;" d="M57 250q0 121 63 191.5t180 70.5q63 0 108.5 -20.5t75.5 -55.5t44.5 -83t14.5 -103q0 -60 -16 -108.5t-47 -82.5t-76.5 -52.5t-103.5 -18.5q-62 0 -108 20.5t-76 55.5t-44.5 83t-14.5 103zM140 250q0 -35 8.5 -70t27.5 -63t49.5 -45t74.5 -17q80 0 120.5 49.5t40.5 145.5 q0 36 -8.5 70.5t-28 62.5t-50 45t-74.5 17q-80 0 -120 -49t-40 -146zM130 645q0 26 15.5 42.5t41.5 16.5q25 0 41 -16.5t16 -42.5q0 -24 -16 -40.5t-41 -16.5q-26 0 -41.5 16.5t-15.5 40.5zM353 645q0 26 15.5 42.5t40.5 16.5q26 0 42.5 -16.5t16.5 -42.5q0 -24 -16.5 -40.5 t-42.5 -16.5q-25 0 -40.5 16.5t-15.5 40.5z" />
<glyph unicode="&#xf7;" d="M68 374h464v-72h-464v72zM234 534q0 32 18 49.5t48 17.5q32 0 50 -17.5t18 -49.5q0 -29 -18 -48t-50 -19q-30 0 -48 19t-18 48zM234 159q0 32 18 49.5t48 17.5q32 0 50 -17.5t18 -49.5q0 -29 -18 -48t-50 -19q-30 0 -48 19t-18 48z" />
<glyph unicode="&#xf8;" d="M57 250q0 121 63 191.5t180 70.5q63 0 108 -21q8 -3 15 -7l23 31l54 -37l-24 -33l8 -9q30 -35 44.5 -83t14.5 -103q0 -60 -16 -108.5t-47 -82.5t-76.5 -52.5t-103.5 -18.5q-62 0 -108 20q-11 5 -22 11l-24 -34l-52 37l26 37q-2 2 -4 5q-30 35 -44.5 83t-14.5 103zM225 72 q31 -17 75 -17q80 0 120.5 49.5t40.5 145.5q0 36 -9 70q-7 32 -24 58l-215 -299zM140 250q0 -35 8 -70q7 -29 21 -53l212 297q-3 2 -7 4q-30 17 -74 17q-80 0 -120 -49t-40 -146z" />
<glyph unicode="&#xf9;" d="M363 500h142v-341q0 -49 6 -94h67v-65h-133l-3 85h-4q-26 -43 -69 -70t-104 -27q-46 0 -78.5 10.5t-53.5 36.5t-31 69.5t-10 108.5v220h-67v67h145v-271q0 -41 3.5 -73.5t14.5 -55t32.5 -34t57.5 -11.5q52 0 90.5 34t58.5 85v259h-64v67zM322 571h-55l-119 149h109z" />
<glyph unicode="&#xfa;" d="M363 500h142v-341q0 -49 6 -94h67v-65h-133l-3 85h-4q-26 -43 -69 -70t-104 -27q-46 0 -78.5 10.5t-53.5 36.5t-31 69.5t-10 108.5v220h-67v67h145v-271q0 -41 3.5 -73.5t14.5 -55t32.5 -34t57.5 -11.5q52 0 90.5 34t58.5 85v259h-64v67zM284 720h109l-119 -149h-55z" />
<glyph unicode="&#xfb;" d="M363 500h142v-341q0 -49 6 -94h67v-65h-133l-3 85h-4q-26 -43 -69 -70t-104 -27q-46 0 -78.5 10.5t-53.5 36.5t-31 69.5t-10 108.5v220h-67v67h145v-271q0 -41 3.5 -73.5t14.5 -55t32.5 -34t57.5 -11.5q52 0 90.5 34t58.5 85v259h-64v67zM281 732h37l135 -182h-78 l-81 109l-86 -109h-70z" />
<glyph unicode="&#xfc;" d="M363 500h142v-341q0 -49 6 -94h67v-65h-133l-3 85h-4q-26 -43 -69 -70t-104 -27q-46 0 -78.5 10.5t-53.5 36.5t-31 69.5t-10 108.5v220h-67v67h145v-271q0 -41 3.5 -73.5t14.5 -55t32.5 -34t57.5 -11.5q52 0 90.5 34t58.5 85v259h-64v67zM125 645q0 26 15.5 42.5 t41.5 16.5q25 0 41 -16.5t16 -42.5q0 -24 -16 -40.5t-41 -16.5q-26 0 -41.5 16.5t-15.5 40.5zM348 645q0 26 15.5 42.5t40.5 16.5q26 0 42.5 -16.5t16.5 -42.5q0 -24 -16.5 -40.5t-42.5 -16.5q-25 0 -40.5 16.5t-15.5 40.5z" />
<glyph unicode="&#xfd;" d="M311 77h38l124 423h81l-139 -449q-11 -35 -22.5 -79.5t-32.5 -83.5t-57 -66t-94 -27q-13 0 -27.5 3t-28.5 7.5t-26 10.5t-18 12l28 72q6 -5 16.5 -10t23 -8.5t24.5 -6t20 -2.5q75 0 102 127h-67l-210 500h90zM338 720h109l-119 -149h-55z" />
<glyph unicode="&#xfe;" d="M96 635h-75v65h152v-270q23 32 64.5 57t101.5 25q107 0 161 -59t54 -193q0 -63 -18.5 -113.5t-52.5 -85.5t-82 -54t-106 -19q-21 0 -37.5 1.5t-30 4t-26.5 6.5t-28 10v-210h-77v835zM326 439q-30 0 -56.5 -11t-47 -29t-33.5 -40t-16 -44v-228q22 -15 49.5 -23.5 t72.5 -8.5q80 0 128 52.5t48 153.5q0 85 -33.5 131.5t-111.5 46.5z" />
<glyph unicode="&#xff;" d="M311 77h38l124 423h81l-139 -449q-11 -35 -22.5 -79.5t-32.5 -83.5t-57 -66t-94 -27q-13 0 -27.5 3t-28.5 7.5t-26 10.5t-18 12l28 72q6 -5 16.5 -10t23 -8.5t24.5 -6t20 -2.5q75 0 102 127h-67l-210 500h90zM140 645q0 26 15.5 42.5t41.5 16.5q25 0 41 -16.5t16 -42.5 q0 -24 -16 -40.5t-41 -16.5q-26 0 -41.5 16.5t-15.5 40.5zM363 645q0 26 15.5 42.5t40.5 16.5q26 0 42.5 -16.5t16.5 -42.5q0 -24 -16.5 -40.5t-42.5 -16.5q-25 0 -40.5 16.5t-15.5 40.5z" />
<glyph unicode="&#x100;" d="M431 194h-269l-64 -194h-82l234 700h98l236 -700h-87zM188 266h220l-103 329h-12zM141 843h316v-62h-316v62z" />
<glyph unicode="&#x101;" d="M108 461q43 25 97 36t106 11q51 0 83.5 -16t51 -41.5t25 -58t6.5 -65.5q0 -38 -2 -81t-3 -86q0 -50 6 -95h67v-65h-133l-9 75h-5q-6 -9 -18 -23t-31.5 -27.5t-47.5 -23.5t-66 -10q-74 0 -117 38t-43 104q0 51 22.5 85t64.5 52t101.5 21t133.5 -8q5 46 1.5 76.5t-16 48.5 t-35 25.5t-55.5 7.5q-45 0 -86 -12.5t-73 -25.5zM255 58q28 0 52 9t42 23t30 30.5t18 31.5v70q-52 9 -96 9t-76 -9.5t-50 -29.5t-18 -52q0 -33 22.5 -57.5t75.5 -24.5zM166 643h296v-62h-296v62z" />
<glyph unicode="&#x102;" d="M431 194h-269l-64 -194h-82l234 700h98l236 -700h-87zM188 266h220l-103 329h-12zM171 871q17 -34 52 -52.5t82 -18.5q48 0 81 21t47 50l47 -26q-22 -57 -70.5 -86t-105.5 -29q-27 0 -54 6t-52 19t-45 34t-33 51z" />
<glyph unicode="&#x103;" d="M108 461q43 25 97 36t106 11q51 0 83.5 -16t51 -41.5t25 -58t6.5 -65.5q0 -38 -2 -81t-3 -86q0 -50 6 -95h67v-65h-133l-9 75h-5q-6 -9 -18 -23t-31.5 -27.5t-47.5 -23.5t-66 -10q-74 0 -117 38t-43 104q0 51 22.5 85t64.5 52t101.5 21t133.5 -8q5 46 1.5 76.5t-16 48.5 t-35 25.5t-55.5 7.5q-45 0 -86 -12.5t-73 -25.5zM255 58q28 0 52 9t42 23t30 30.5t18 31.5v70q-52 9 -96 9t-76 -9.5t-50 -29.5t-18 -52q0 -33 22.5 -57.5t75.5 -24.5zM206 720q18 -36 48 -56.5t64 -20.5t61.5 20t44.5 57l42 -18q-3 -24 -15.5 -47.5t-32 -41.5t-45.5 -29 t-56 -11q-28 0 -53 8.5t-45.5 25t-35.5 39t-22 51.5z" />
<glyph unicode="&#x104;" d="M431 194h-269l-64 -194h-82l234 700h98l236 -700h-29q-21 -13 -35 -30q-20 -25 -20 -57q0 -20 13 -35.5t38 -15.5q19 0 40 10l11 -43q-15 -12 -40 -18t-46 -6q-45 0 -72 24t-27 65t27 70q21 22 52 37zM188 266h220l-103 329h-12z" />
<glyph unicode="&#x105;" d="M108 461q43 25 97 36t106 11q51 0 83.5 -16t51 -41.5t25 -58t6.5 -65.5q0 -38 -2 -81t-3 -86q0 -50 6 -95h67v-65h-21q-21 -13 -35 -30q-20 -25 -20 -57q0 -20 13 -35.5t38 -15.5q19 0 40 10l11 -43q-15 -12 -40 -18t-46 -6q-45 0 -72 24t-27 65t27 70q20 21 51 36h-52 l-9 75h-5q-6 -9 -18 -23t-31.5 -27.5t-47.5 -23.5t-66 -10q-74 0 -117 38t-43 104q0 51 22.5 85t64.5 52t101.5 21t133.5 -8q5 46 1.5 76.5t-16 48.5t-35 25.5t-55.5 7.5q-45 0 -86 -12.5t-73 -25.5zM255 58q28 0 52 9t42 23t30 30.5t18 31.5v70q-52 9 -96 9t-76 -9.5 t-50 -29.5t-18 -52q0 -33 22.5 -57.5t75.5 -24.5z" />
<glyph unicode="&#x106;" d="M458 624q-17 7 -37.5 10.5t-49.5 3.5q-41 0 -80.5 -15t-70 -49t-49 -89t-18.5 -135q0 -72 16.5 -126t46 -90t71 -54t92.5 -18q26 0 48.5 4.5t41.5 12.5v100h74v-135l1 -2q-30 -23 -76 -38.5t-112 -15.5q-63 0 -116.5 21.5t-92.5 65.5t-60.5 112.5t-21.5 162.5 q0 98 24 166.5t65 112t95.5 63.5t116.5 20q34 0 59 -2.5t44 -7t33.5 -11.5t28.5 -16h1v-158h-74v107zM411 870h114v-21l-163 -97h-69z" />
<glyph unicode="&#x107;" d="M439 423q-23 8 -49.5 13.5t-52.5 5.5q-98 0 -146 -46t-48 -146q0 -44 14 -78.5t40 -58.5t62.5 -37t80.5 -13q47 0 91.5 16t74.5 42l35 -58q-14 -12 -35 -25t-48.5 -24.5t-61 -18.5t-72.5 -7q-65 0 -114.5 18.5t-82.5 53t-50 83t-17 107.5q0 63 17.5 112t50.5 82t80 50.5 t105 17.5q74 0 120.5 -13t78.5 -29l-1 -3v-139h-72v95zM338 720h109l-119 -149h-55z" />
<glyph unicode="&#x108;" d="M458 624q-17 7 -37.5 10.5t-49.5 3.5q-41 0 -80.5 -15t-70 -49t-49 -89t-18.5 -135q0 -72 16.5 -126t46 -90t71 -54t92.5 -18q26 0 48.5 4.5t41.5 12.5v100h74v-135l1 -2q-30 -23 -76 -38.5t-112 -15.5q-63 0 -116.5 21.5t-92.5 65.5t-60.5 112.5t-21.5 162.5 q0 98 24 166.5t65 112t95.5 63.5t116.5 20q34 0 59 -2.5t44 -7t33.5 -11.5t28.5 -16h1v-158h-74v107zM314 871h60l145 -123h-99l-77 65l-83 -65h-101z" />
<glyph unicode="&#x109;" d="M439 423q-23 8 -49.5 13.5t-52.5 5.5q-98 0 -146 -46t-48 -146q0 -44 14 -78.5t40 -58.5t62.5 -37t80.5 -13q47 0 91.5 16t74.5 42l35 -58q-14 -12 -35 -25t-48.5 -24.5t-61 -18.5t-72.5 -7q-65 0 -114.5 18.5t-82.5 53t-50 83t-17 107.5q0 63 17.5 112t50.5 82t80 50.5 t105 17.5q74 0 120.5 -13t78.5 -29l-1 -3v-139h-72v95zM277 732h37l135 -182h-78l-81 109l-86 -109h-70z" />
<glyph unicode="&#x10c;" d="M458 624q-17 7 -37.5 10.5t-49.5 3.5q-41 0 -80.5 -15t-70 -49t-49 -89t-18.5 -135q0 -72 16.5 -126t46 -90t71 -54t92.5 -18q26 0 48.5 4.5t41.5 12.5v100h74v-135l1 -2q-30 -23 -76 -38.5t-112 -15.5q-63 0 -116.5 21.5t-92.5 65.5t-60.5 112.5t-21.5 162.5 q0 98 24 166.5t65 112t95.5 63.5t116.5 20q34 0 59 -2.5t44 -7t33.5 -11.5t28.5 -16h1v-158h-74v107zM376 746h-58l-149 124h104l77 -67l81 67h93z" />
<glyph unicode="&#x10d;" d="M439 423q-23 8 -49.5 13.5t-52.5 5.5q-98 0 -146 -46t-48 -146q0 -44 14 -78.5t40 -58.5t62.5 -37t80.5 -13q47 0 91.5 16t74.5 42l35 -58q-14 -12 -35 -25t-48.5 -24.5t-61 -18.5t-72.5 -7q-65 0 -114.5 18.5t-82.5 53t-50 83t-17 107.5q0 63 17.5 112t50.5 82t80 50.5 t105 17.5q74 0 120.5 -13t78.5 -29l-1 -3v-139h-72v95zM313 550h-37l-135 182h78l81 -109l86 109h70z" />
<glyph unicode="&#x10e;" d="M80 700q38 5 79.5 6.5t70.5 1.5q91 0 152.5 -26t99 -72.5t54 -111.5t16.5 -143q0 -71 -15 -136.5t-52 -116t-99.5 -81t-156.5 -30.5q-13 0 -34 0.5t-43 2t-42 2.5t-30 3v701zM234 634q-14 0 -35.5 -1t-35.5 -4v-560q5 -1 14.5 -1.5t19.5 -1t19.5 -1t15.5 -0.5 q73 0 118.5 24t70.5 64.5t34 93t9 108.5q0 49 -8 98.5t-32.5 89.5t-70 65.5t-119.5 25.5zM302 746h-58l-149 124h104l77 -67l81 67h93z" />
<glyph unicode="&#x10f;" d="M349 700h162v-529q0 -9 1 -22.5t2.5 -28.5t3.5 -29.5t4 -25.5h67v-65h-133l-10 77h-4q-22 -38 -65.5 -63.5t-100.5 -25.5q-113 0 -166.5 63.5t-53.5 197.5q0 63 18 111.5t51.5 81t80.5 49.5t105 17q21 0 37.5 -1t30.5 -3t26.5 -5.5t27.5 -7.5v142h-84v67zM289 55 q61 0 96 31.5t48 94.5v232q-22 15 -49.5 22t-72.5 7q-80 0 -126 -46.5t-46 -146.5q0 -41 7.5 -76.5t25 -61.5t46.5 -41t71 -15zM673 700q-2 -29 -12 -59.5t-22.5 -56.5t-25.5 -46t-22 -29l-33 18q17 36 26 81.5t9 91.5h80z" />
<glyph unicode="&#x110;" d="M9 392h90v308q38 5 86.5 6.5t90.5 1.5q84 0 142.5 -26t95 -72.5t52.5 -111.5t16 -143q0 -71 -15 -136.5t-51.5 -116t-97.5 -81t-152 -30.5q-16 0 -40 0.5t-49 2t-46.5 2.5t-31.5 3v333h-90v60zM278 634q-26 0 -54 -1t-42 -4v-237h137v-60h-137v-263q5 -1 17 -1.5t25.5 -1 t26 -1t17.5 -0.5q70 0 114.5 24t69 64.5t33.5 93t9 108.5q0 49 -8 98.5t-31.5 89.5t-65.5 65.5t-111 25.5z" />
<glyph unicode="&#x111;" d="M589 65v-65h-133l-10 77h-4q-22 -38 -65.5 -63.5t-100.5 -25.5q-113 0 -166.5 63.5t-53.5 197.5q0 63 18 111.5t51.5 81t80.5 49.5t105 17q21 0 37.5 -1t30.5 -3t26.5 -5.5t27.5 -7.5v81h-165v60h165v68h78v-68h75v-60h-75v-401q0 -9 1 -22.5t2.5 -28.5t3.5 -29.5 t4 -25.5h67zM289 55q61 0 96 31.5t48 94.5v232q-22 15 -49.5 22t-72.5 7q-80 0 -126 -46.5t-46 -146.5q0 -41 7.5 -76.5t25 -61.5t46.5 -41t71 -15z" />
<glyph unicode="&#x112;" d="M107 700h411v-74h-328v-229h303v-74h-303v-249h333v-74h-416v700zM151 843h316v-62h-316v62z" />
<glyph unicode="&#x113;" d="M529 63q-18 -16 -42.5 -30t-53.5 -24t-60.5 -15.5t-63.5 -5.5q-60 0 -106 18.5t-77 53t-47 82.5t-16 108q0 63 17.5 112t50.5 82t80 50.5t105 17.5q42 0 83 -11t72.5 -41.5t48.5 -84t12 -138.5h-387q0 -90 48.5 -134.5t129.5 -44.5q27 0 53.5 6.5t50.5 15.5t42.5 20 t28.5 20zM318 446q-33 0 -62.5 -7t-52 -23.5t-37 -43t-18.5 -65.5h311q-5 66 -42.5 102.5t-98.5 36.5zM163 643h296v-62h-296v62z" />
<glyph unicode="&#x116;" d="M107 700h411v-74h-328v-229h303v-74h-303v-249h333v-74h-416v700zM248 795q0 23 18 40t50 17t51 -17t19 -40q0 -25 -19 -42t-51 -17t-50 17t-18 42z" />
<glyph unicode="&#x117;" d="M529 63q-18 -16 -42.5 -30t-53.5 -24t-60.5 -15.5t-63.5 -5.5q-60 0 -106 18.5t-77 53t-47 82.5t-16 108q0 63 17.5 112t50.5 82t80 50.5t105 17.5q42 0 83 -11t72.5 -41.5t48.5 -84t12 -138.5h-387q0 -90 48.5 -134.5t129.5 -44.5q27 0 53.5 6.5t50.5 15.5t42.5 20 t28.5 20zM318 446q-33 0 -62.5 -7t-52 -23.5t-37 -43t-18.5 -65.5h311q-5 66 -42.5 102.5t-98.5 36.5zM253 642q0 27 18 46.5t46 19.5q29 0 48.5 -19.5t19.5 -46.5q0 -26 -19.5 -44t-48.5 -18q-28 0 -46 18t-18 44z" />
<glyph unicode="&#x118;" d="M107 700h411v-74h-328v-229h303v-74h-303v-249h333v-74h-20q-21 -13 -35 -30q-20 -25 -20 -57q0 -20 13 -35.5t38 -15.5q19 0 40 10l11 -43q-15 -12 -40 -18t-46 -6q-45 0 -72 24t-27 65t27 70q20 21 51 36h-336v700z" />
<glyph unicode="&#x119;" d="M529 63q-18 -16 -42.5 -30t-53.5 -24q-8 -3 -15 -5q-26 -14 -42 -34q-20 -25 -20 -57q0 -20 13 -35.5t38 -15.5q19 0 40 10l11 -43q-15 -12 -40 -18t-46 -6q-45 0 -72 24t-27 65t27 70q13 14 30 25q-11 -1 -21 -1q-60 0 -106 18.5t-77 53t-47 82.5t-16 108q0 63 17.5 112 t50.5 82t80 50.5t105 17.5q42 0 83 -11t72.5 -41.5t48.5 -84t12 -138.5h-387q0 -90 48.5 -134.5t129.5 -44.5q27 0 53.5 6.5t50.5 15.5t42.5 20t28.5 20zM318 446q-33 0 -62.5 -7t-52 -23.5t-37 -43t-18.5 -65.5h311q-5 66 -42.5 102.5t-98.5 36.5z" />
<glyph unicode="&#x11a;" d="M107 700h411v-74h-328v-229h303v-74h-303v-249h333v-74h-416v700zM336 746h-58l-149 124h104l77 -67l81 67h93z" />
<glyph unicode="&#x11b;" d="M529 63q-18 -16 -42.5 -30t-53.5 -24t-60.5 -15.5t-63.5 -5.5q-60 0 -106 18.5t-77 53t-47 82.5t-16 108q0 63 17.5 112t50.5 82t80 50.5t105 17.5q42 0 83 -11t72.5 -41.5t48.5 -84t12 -138.5h-387q0 -90 48.5 -134.5t129.5 -44.5q27 0 53.5 6.5t50.5 15.5t42.5 20 t28.5 20zM318 446q-33 0 -62.5 -7t-52 -23.5t-37 -43t-18.5 -65.5h311q-5 66 -42.5 102.5t-98.5 36.5zM325 550h-37l-135 182h78l81 -109l86 109h70z" />
<glyph unicode="&#x11c;" d="M437 631q-34 7 -83 7q-42 0 -80.5 -14.5t-68 -48.5t-47 -89t-17.5 -136q0 -148 54.5 -218t157.5 -70q64 0 109 25v195h-144v67h215v-308q-16 -12 -38.5 -22t-48 -17t-53 -10.5t-53.5 -3.5q-67 0 -120 21.5t-90 66t-57 113t-20 161.5q0 97 25 166t66 112.5t94 63.5t109 20 q60 0 99 -6.5t66 -17.5l-1 -4v-167h-74v114zM308 871h60l145 -123h-99l-77 65l-83 -65h-101z" />
<glyph unicode="&#x11d;" d="M524 -25q0 -47 -18 -82.5t-49.5 -58.5t-73.5 -34.5t-91 -11.5q-59 0 -103 12t-76 31l38 71q9 -8 23.5 -15.5t33.5 -14t40.5 -10.5t42.5 -4q44 0 73.5 8t47.5 25t26 44t8 66v56h-4q-23 -33 -59 -51t-93 -18q-114 0 -167.5 63.5t-53.5 197.5q0 128 68 193.5t202 65.5 q62 0 105.5 -8.5t79.5 -21.5v-503zM301 55q61 0 96 31.5t49 96.5v237q-44 21 -123 21q-80 0 -126 -47t-46 -144q0 -43 8 -78.5t25.5 -61.5t46 -40.5t70.5 -14.5zM299 732h37l135 -182h-78l-81 109l-86 -109h-70z" />
<glyph unicode="&#x11e;" d="M437 631q-34 7 -83 7q-42 0 -80.5 -14.5t-68 -48.5t-47 -89t-17.5 -136q0 -148 54.5 -218t157.5 -70q64 0 109 25v195h-144v67h215v-308q-16 -12 -38.5 -22t-48 -17t-53 -10.5t-53.5 -3.5q-67 0 -120 21.5t-90 66t-57 113t-20 161.5q0 97 25 166t66 112.5t94 63.5t109 20 q60 0 99 -6.5t66 -17.5l-1 -4v-167h-74v114zM200 871q17 -34 52 -52.5t82 -18.5q48 0 81 21t47 50l47 -26q-22 -57 -70.5 -86t-105.5 -29q-27 0 -54 6t-52 19t-45 34t-33 51z" />
<glyph unicode="&#x11f;" d="M524 -25q0 -47 -18 -82.5t-49.5 -58.5t-73.5 -34.5t-91 -11.5q-59 0 -103 12t-76 31l38 71q9 -8 23.5 -15.5t33.5 -14t40.5 -10.5t42.5 -4q44 0 73.5 8t47.5 25t26 44t8 66v56h-4q-23 -33 -59 -51t-93 -18q-114 0 -167.5 63.5t-53.5 197.5q0 128 68 193.5t202 65.5 q62 0 105.5 -8.5t79.5 -21.5v-503zM301 55q61 0 96 31.5t49 96.5v237q-44 21 -123 21q-80 0 -126 -47t-46 -144q0 -43 8 -78.5t25.5 -61.5t46 -40.5t70.5 -14.5zM203 720q18 -36 48 -56.5t64 -20.5t61.5 20t44.5 57l42 -18q-3 -24 -15.5 -47.5t-32 -41.5t-45.5 -29t-56 -11 q-28 0 -53 8.5t-45.5 25t-35.5 39t-22 51.5z" />
<glyph unicode="&#x122;" d="M437 631q-34 7 -83 7q-42 0 -80.5 -14.5t-68 -48.5t-47 -89t-17.5 -136q0 -148 54.5 -218t157.5 -70q64 0 109 25v195h-144v67h215v-308q-16 -12 -38.5 -22t-48 -17t-53 -10.5t-53.5 -3.5q-67 0 -120 21.5t-90 66t-57 113t-20 161.5q0 97 25 166t66 112.5t94 63.5t109 20 q60 0 99 -6.5t66 -17.5l-1 -4v-167h-74v114zM281 -92q0 21 15.5 34t35.5 13q25 0 44.5 -17.5t19.5 -57.5q0 -26 -9 -45.5t-21.5 -34t-26 -23t-23.5 -12.5l-28 32q20 11 32 28t12 41q-4 -1 -10 -1q-18 0 -29.5 12t-11.5 31z" />
<glyph unicode="&#x123;" d="M524 -25q0 -47 -18 -82.5t-49.5 -58.5t-73.5 -34.5t-91 -11.5q-59 0 -103 12t-76 31l38 71q9 -8 23.5 -15.5t33.5 -14t40.5 -10.5t42.5 -4q44 0 73.5 8t47.5 25t26 44t8 66v56h-4q-23 -33 -59 -51t-93 -18q-114 0 -167.5 63.5t-53.5 197.5q0 128 68 193.5t202 65.5 q62 0 105.5 -8.5t79.5 -21.5v-503zM301 55q61 0 96 31.5t49 96.5v237q-44 21 -123 21q-80 0 -126 -47t-46 -144q0 -43 8 -78.5t25.5 -61.5t46 -40.5t70.5 -14.5zM374.015 598.994q0 -20.998 -15.499 -33.998q-15.499 -12.999 -35.498 -12.999q-24.998 0 -44.4971 17.499 t-19.499 57.4961q0 25.999 9 45.498q8.99902 19.498 21.498 33.998q12.5 14.499 25.999 22.998q13.499 8.5 23.498 12.499l27.999 -31.998q-19.999 -10.999 -31.998 -27.998q-12 -16.999 -12 -40.9971q4 1 10 1q17.999 0 29.498 -12q11.499 -11.999 11.499 -30.998z" />
<glyph unicode="&#x124;" d="M457 321h-314v-321h-83v700h83v-305h314v305h83v-700h-83v321zM272 871h60l145 -123h-99l-77 65l-83 -65h-101z" />
<glyph unicode="&#x125;" d="M4 700h156v-262h5q31 35 72 54.5t102 19.5q48 0 83.5 -10t58 -35t33.5 -68.5t11 -110.5v-288h-78v273q0 43 -5 75t-19.5 53.5t-39.5 32.5t-64 11q-27 0 -53 -9.5t-47.5 -26t-37 -40t-21.5 -51.5v-318h-77v633h-79v67zM119 871h60l145 -123h-99l-77 65l-83 -65h-101z" />
<glyph unicode="&#x126;" d="M10 587h79v113h83v-113h256v113h83v-113h79v-64h-79v-523h-83v321h-256v-321h-83v523h-79v64zM428 395v128h-256v-128h256z" />
<glyph unicode="&#x127;" d="M3 632h80v68h77v-68h163v-60h-163v-134h5q31 35 72 54.5t102 19.5q48 0 83.5 -10t58 -35t33.5 -68.5t11 -110.5v-288h-78v273q0 43 -5 75t-19.5 53.5t-39.5 32.5t-64 11q-27 0 -53 -9.5t-47.5 -26t-37 -40t-21.5 -51.5v-318h-77v572h-80v60z" />
<glyph unicode="&#x12a;" d="M60 700h480v-74h-199v-552h199v-74h-480v74h198v552h-198v74zM142 843h316v-62h-316v62z" />
<glyph unicode="&#x12b;" d="M105 0v67h174v366h-174v67h254v-433h170v-67h-424zM152 643h296v-62h-296v62z" />
<glyph unicode="&#x12e;" d="M60 700h480v-74h-199v-552h199v-74h-75q-21 -13 -35 -30q-20 -25 -20 -57q0 -20 13 -35.5t38 -15.5q19 0 40 10l11 -43q-15 -12 -40 -18t-46 -6q-45 0 -72 24t-27 65t27 70q20 21 51 36h-345v74h198v552h-198v74z" />
<glyph unicode="&#x12f;" d="M105 0v67h174v366h-174v67h254v-433h170v-67h-74q-21 -13 -35 -30q-20 -25 -20 -57q0 -20 13 -35.5t38 -15.5q19 0 40 10l11 -43q-15 -12 -40 -18t-46 -6q-45 0 -72 24t-27 65t27 70q20 21 51 36h-290zM252 642q0 27 18 46.5t46 19.5q29 0 48.5 -19.5t19.5 -46.5 q0 -26 -19.5 -44t-48.5 -18q-28 0 -46 18t-18 44z" />
<glyph unicode="&#x130;" d="M60 700h480v-74h-199v-552h199v-74h-480v74h198v552h-198v74zM232 795q0 23 18 40t50 17t51 -17t19 -40q0 -25 -19 -42t-51 -17t-50 17t-18 42z" />
<glyph unicode="&#x131;" d="M105 0v67h174v366h-174v67h254v-433h170v-67h-424z" />
<glyph unicode="&#x134;" d="M97 700h396v-452q0 -126 -60 -192t-173 -66q-29 0 -57 5t-52 13.5t-41.5 18.5t-25.5 19l36 66q11 -7 24.5 -15t30 -15.5t37 -12.5t46.5 -5q75 0 113.5 47t38.5 152v363h-313v74zM282 871h60l145 -123h-99l-77 65l-83 -65h-101z" />
<glyph unicode="&#x135;" d="M384 433h-242v67h322v-512q0 -101 -51.5 -150.5t-142.5 -49.5q-27 0 -52.5 7t-47.5 16.5t-38.5 19.5t-24.5 16l33 65q27 -20 61.5 -35t71.5 -15q60 0 85.5 37.5t25.5 103.5v430zM291 732h37l135 -182h-78l-81 109l-86 -109h-70z" />
<glyph unicode="&#x136;" d="M245 324h-77v-324h-83v700h83v-312h75l225 312h96l-247 -333l278 -367h-105zM233 -92q0 21 15.5 34t35.5 13q25 0 44.5 -17.5t19.5 -57.5q0 -26 -9 -45.5t-21.5 -34t-26 -23t-23.5 -12.5l-28 32q20 11 32 28t12 41q-4 -1 -10 -1q-18 0 -29.5 12t-11.5 31z" />
<glyph unicode="&#x137;" d="M24 700h162v-414h55l197 214h94l-221 -237l182 -196h65v-67h-103l-214 226h-55v-226h-77v633h-85v67zM235 -92q0 21 15.5 34t35.5 13q25 0 44.5 -17.5t19.5 -57.5q0 -26 -9 -45.5t-21.5 -34t-26 -23t-23.5 -12.5l-28 32q20 11 32 28t12 41q-4 -1 -10 -1q-18 0 -29.5 12 t-11.5 31z" />
<glyph unicode="&#x139;" d="M90 700h83v-626h283v174h74v-248h-440v700zM276 870h114v-21l-163 -97h-69z" />
<glyph unicode="&#x13a;" d="M119 700h166v-532q0 -61 20.5 -86t60.5 -25q28 0 53.5 10t56.5 34l36 -55q-16 -14 -35 -25t-39 -18.5t-40 -11.5t-37 -4q-37 0 -66 9.5t-48.5 30.5t-29.5 55.5t-10 85.5v465h-88v67zM336 870h114v-21l-163 -97h-69z" />
<glyph unicode="&#x13b;" d="M90 700h83v-626h283v174h74v-248h-440v700zM237 -92q0 21 15.5 34t35.5 13q25 0 44.5 -17.5t19.5 -57.5q0 -26 -9 -45.5t-21.5 -34t-26 -23t-23.5 -12.5l-28 32q20 11 32 28t12 41q-4 -1 -10 -1q-18 0 -29.5 12t-11.5 31z" />
<glyph unicode="&#x13c;" d="M119 700h166v-532q0 -61 20.5 -86t60.5 -25q28 0 53.5 10t56.5 34l36 -55q-16 -14 -35 -25t-39 -18.5t-40 -11.5t-37 -4q-37 0 -66 9.5t-48.5 30.5t-29.5 55.5t-10 85.5v465h-88v67zM295 -92q0 21 15.5 34t35.5 13q25 0 44.5 -17.5t19.5 -57.5q0 -26 -9 -45.5t-21.5 -34 t-26 -23t-23.5 -12.5l-28 32q20 11 32 28t12 41q-4 -1 -10 -1q-18 0 -29.5 12t-11.5 31z" />
<glyph unicode="&#x13d;" d="M90 700h83v-626h283v174h74v-248h-440v700zM473 700q-2 -29 -12 -59.5t-22.5 -56.5t-25.5 -46t-22 -29l-33 18q17 36 26 81.5t9 91.5h80z" />
<glyph unicode="&#x13e;" d="M119 700h166v-532q0 -61 20.5 -86t60.5 -25q28 0 53.5 10t56.5 34l36 -55q-16 -14 -35 -25t-39 -18.5t-40 -11.5t-37 -4q-37 0 -66 9.5t-48.5 30.5t-29.5 55.5t-10 85.5v465h-88v67zM469 700q-2 -29 -12 -59.5t-22.5 -56.5t-25.5 -46t-22 -29l-33 18q17 36 26 81.5 t9 91.5h80z" />
<glyph unicode="&#x141;" d="M18 287l72 56v357h83v-292l105 83v-80l-105 -81v-256h283v174h74v-248h-440v266l-72 -55v76z" />
<glyph unicode="&#x142;" d="M119 700h166v-308l147 117v-80l-147 -115v-146q0 -61 20.5 -86t60.5 -25q28 0 53.5 10t56.5 34l36 -55q-16 -14 -35 -25t-39 -18.5t-40 -11.5t-37 -4q-37 0 -66 9.5t-48.5 30.5t-29.5 55.5t-10 85.5v86l-99 -77v76l99 78v302h-88v67z" />
<glyph unicode="&#x143;" d="M196 438l-54 101h-4l10 -101v-438h-78v700h54l282 -436l52 -96h5l-11 96v436h78v-700h-54zM370 870h114v-21l-163 -97h-69z" />
<glyph unicode="&#x144;" d="M93 325q0 9 -0.5 23.5t-1.5 30t-2.5 30.5t-3.5 26h-67v65h134l9 -81h5q10 17 26.5 33.5t38.5 30t49 21.5t57 8q46 0 81.5 -10t59 -35.5t35.5 -69t12 -110.5v-287h-78v272q0 83 -27 125t-98 42q-26 0 -50.5 -10.5t-44.5 -27.5t-35 -39.5t-22 -47.5v-314h-77v325zM312 720 h109l-119 -149h-55z" />
<glyph unicode="&#x145;" d="M196 438l-54 101h-4l10 -101v-438h-78v700h54l282 -436l52 -96h5l-11 96v436h78v-700h-54zM242 -92q0 21 15.5 34t35.5 13q25 0 44.5 -17.5t19.5 -57.5q0 -26 -9 -45.5t-21.5 -34t-26 -23t-23.5 -12.5l-28 32q20 11 32 28t12 41q-4 -1 -10 -1q-18 0 -29.5 12t-11.5 31z " />
<glyph unicode="&#x146;" d="M93 325q0 9 -0.5 23.5t-1.5 30t-2.5 30.5t-3.5 26h-67v65h134l9 -81h5q10 17 26.5 33.5t38.5 30t49 21.5t57 8q46 0 81.5 -10t59 -35.5t35.5 -69t12 -110.5v-287h-78v272q0 83 -27 125t-98 42q-26 0 -50.5 -10.5t-44.5 -27.5t-35 -39.5t-22 -47.5v-314h-77v325zM252 -92 q0 21 15.5 34t35.5 13q25 0 44.5 -17.5t19.5 -57.5q0 -26 -9 -45.5t-21.5 -34t-26 -23t-23.5 -12.5l-28 32q20 11 32 28t12 41q-4 -1 -10 -1q-18 0 -29.5 12t-11.5 31z" />
<glyph unicode="&#x147;" d="M196 438l-54 101h-4l10 -101v-438h-78v700h54l282 -436l52 -96h5l-11 96v436h78v-700h-54zM327 746h-58l-149 124h104l77 -67l81 67h93z" />
<glyph unicode="&#x148;" d="M93 325q0 9 -0.5 23.5t-1.5 30t-2.5 30.5t-3.5 26h-67v65h134l9 -81h5q10 17 26.5 33.5t38.5 30t49 21.5t57 8q46 0 81.5 -10t59 -35.5t35.5 -69t12 -110.5v-287h-78v272q0 83 -27 125t-98 42q-26 0 -50.5 -10.5t-44.5 -27.5t-35 -39.5t-22 -47.5v-314h-77v325zM325 550 h-37l-135 182h78l81 -109l86 109h70z" />
<glyph unicode="&#x14c;" d="M48 350q0 174 61.5 268t189.5 94q70 0 118.5 -26t78.5 -73.5t43 -114t13 -148.5q0 -174 -61.5 -268t-191.5 -94q-69 0 -117 26t-78 73.5t-43 114t-13 148.5zM136 350q0 -58 7.5 -110t26.5 -91.5t50 -63t79 -23.5q86 0 125.5 70t39.5 218q0 57 -7.5 109.5t-26.5 92t-51 63 t-80 23.5q-85 0 -124 -70.5t-39 -217.5zM148 843h316v-62h-316v62z" />
<glyph unicode="&#x14d;" d="M57 250q0 121 63 191.5t180 70.5q63 0 108.5 -20.5t75.5 -55.5t44.5 -83t14.5 -103q0 -60 -16 -108.5t-47 -82.5t-76.5 -52.5t-103.5 -18.5q-62 0 -108 20.5t-76 55.5t-44.5 83t-14.5 103zM140 250q0 -35 8.5 -70t27.5 -63t49.5 -45t74.5 -17q80 0 120.5 49.5t40.5 145.5 q0 36 -8.5 70.5t-28 62.5t-50 45t-74.5 17q-80 0 -120 -49t-40 -146zM152 643h296v-62h-296v62z" />
<glyph unicode="&#x150;" d="M48 350q0 174 61.5 268t189.5 94q70 0 118.5 -26t78.5 -73.5t43 -114t13 -148.5q0 -174 -61.5 -268t-191.5 -94q-69 0 -117 26t-78 73.5t-43 114t-13 148.5zM136 350q0 -58 7.5 -110t26.5 -91.5t50 -63t79 -23.5q86 0 125.5 70t39.5 218q0 57 -7.5 109.5t-26.5 92t-51 63 t-80 23.5q-85 0 -124 -70.5t-39 -217.5zM264 850h93v-16l-100 -93h-57zM426 850h99v-16l-143 -93h-58z" />
<glyph unicode="&#x151;" d="M57 250q0 121 63 191.5t180 70.5q63 0 108.5 -20.5t75.5 -55.5t44.5 -83t14.5 -103q0 -60 -16 -108.5t-47 -82.5t-76.5 -52.5t-103.5 -18.5q-62 0 -108 20.5t-76 55.5t-44.5 83t-14.5 103zM140 250q0 -35 8.5 -70t27.5 -63t49.5 -45t74.5 -17q80 0 120.5 49.5t40.5 145.5 q0 36 -8.5 70.5t-28 62.5t-50 45t-74.5 17q-80 0 -120 -49t-40 -146zM243 720h86l-79 -149h-42zM389 720h103l-131 -149h-45z" />
<glyph unicode="&#x152;" d="M314 618q-17 11 -39 16t-47 5q-58 0 -88 -70t-30 -219q0 -59 6.5 -111.5t21 -92t38 -62.5t57.5 -23q19 0 38 2.5t43 13.5v541zM314 0q-16 -5 -38.5 -8.5t-48.5 -3.5q-51 0 -88 25.5t-62 72.5t-37 114t-12 150q0 177 52 269.5t147 92.5q29 0 48.5 -3.5t38.5 -8.5h260v-75 h-180v-228h163v-75h-163v-247h183v-75h-263z" />
<glyph unicode="&#x153;" d="M116 250q0 -39 4.5 -74.5t14 -62t25 -42.5t37.5 -16q40 0 57.5 48t17.5 147q0 39 -3.5 74.5t-12 62.5t-23 42.5t-36.5 15.5q-39 0 -60 -47.5t-21 -147.5zM310 70q-18 -44 -46.5 -63t-67.5 -19q-75 0 -114 65t-39 197q0 128 41 195t113 67q42 0 69.5 -20.5t43.5 -60.5 q16 35 44 58t69 23q24 0 47.5 -7t42.5 -27.5t31 -56t12 -92.5q0 -18 -1 -43.5t-4 -48.5h-207q1 -88 23 -135.5t76 -47.5q22 0 44.5 9.5t34.5 23.5l24 -55q-20 -22 -54 -33t-67 -11q-42 0 -71.5 23t-43.5 59zM423 446q-71 0 -78 -148h143q0 148 -65 148z" />
<glyph unicode="&#x154;" d="M100 693q38 7 87.5 11t90.5 4q46 0 87.5 -10t73 -33t50.5 -60t19 -90q0 -41 -13.5 -72.5t-33 -54t-40.5 -36.5t-36 -20l185 -332h-97l-165 308h-125v-308h-83v693zM280 636h-27t-27 -1t-24.5 -2t-18.5 -3v-258h78q69 0 114 34t45 106q0 54 -37 89t-103 35zM335 870h114 v-21l-163 -97h-69z" />
<glyph unicode="&#x155;" d="M66 0v67h135v366h-135v67h187l16 -65h5q34 31 76 53t100 22q34 0 54.5 -13t32 -38t15.5 -60.5t4 -80.5l-70 -1q0 64 -12.5 94t-45.5 30q-31 0 -56 -9t-43.5 -22t-31.5 -26t-19 -22v-295h192v-67h-404zM335 720h109l-119 -149h-55z" />
<glyph unicode="&#x156;" d="M100 693q38 7 87.5 11t90.5 4q46 0 87.5 -10t73 -33t50.5 -60t19 -90q0 -41 -13.5 -72.5t-33 -54t-40.5 -36.5t-36 -20l185 -332h-97l-165 308h-125v-308h-83v693zM280 636h-27t-27 -1t-24.5 -2t-18.5 -3v-258h78q69 0 114 34t45 106q0 54 -37 89t-103 35zM254 -92 q0 21 15.5 34t35.5 13q25 0 44.5 -17.5t19.5 -57.5q0 -26 -9 -45.5t-21.5 -34t-26 -23t-23.5 -12.5l-28 32q20 11 32 28t12 41q-4 -1 -10 -1q-18 0 -29.5 12t-11.5 31z" />
<glyph unicode="&#x157;" d="M66 0v67h135v366h-135v67h187l16 -65h5q34 31 76 53t100 22q34 0 54.5 -13t32 -38t15.5 -60.5t4 -80.5l-70 -1q0 64 -12.5 94t-45.5 30q-31 0 -56 -9t-43.5 -22t-31.5 -26t-19 -22v-295h192v-67h-404zM230 -92q0 21 15.5 34t35.5 13q25 0 44.5 -17.5t19.5 -57.5 q0 -26 -9 -45.5t-21.5 -34t-26 -23t-23.5 -12.5l-28 32q20 11 32 28t12 41q-4 -1 -10 -1q-18 0 -29.5 12t-11.5 31z" />
<glyph unicode="&#x158;" d="M100 693q38 7 87.5 11t90.5 4q46 0 87.5 -10t73 -33t50.5 -60t19 -90q0 -41 -13.5 -72.5t-33 -54t-40.5 -36.5t-36 -20l185 -332h-97l-165 308h-125v-308h-83v693zM280 636h-27t-27 -1t-24.5 -2t-18.5 -3v-258h78q69 0 114 34t45 106q0 54 -37 89t-103 35zM293 746h-58 l-149 124h104l77 -67l81 67h93z" />
<glyph unicode="&#x159;" d="M66 0v67h135v366h-135v67h187l16 -65h5q34 31 76 53t100 22q34 0 54.5 -13t32 -38t15.5 -60.5t4 -80.5l-70 -1q0 64 -12.5 94t-45.5 30q-31 0 -56 -9t-43.5 -22t-31.5 -26t-19 -22v-295h192v-67h-404zM329 550h-37l-135 182h78l81 -109l86 109h70z" />
<glyph unicode="&#x15a;" d="M150 99q30 -16 67.5 -26.5t75.5 -10.5q33 0 62 6.5t50.5 21t34 36.5t12.5 52q0 41 -27.5 67t-68.5 46t-89 39t-89 45t-68.5 63.5t-27.5 95.5q0 41 16.5 74t46.5 56t72.5 35.5t94.5 12.5q60 0 109 -8.5t78 -22.5l2 1v-2h1l-1 -3v-160h-74v107q-25 6 -55 10t-64 4 q-33 0 -59.5 -8t-45 -21.5t-28.5 -31.5t-10 -38q0 -39 27.5 -65t68.5 -46.5t89 -40.5t89 -46.5t68.5 -63.5t27.5 -92q0 -45 -16.5 -81t-47 -62t-75 -40t-100.5 -14q-38 0 -72 6t-62.5 15t-51 19t-35.5 17l1 3v162h74v-111zM376 870h114v-21l-163 -97h-69z" />
<glyph unicode="&#x15b;" d="M438 135q0 32 -25 49.5t-62 28t-80.5 19.5t-80.5 24t-62 40.5t-25 71.5q0 38 16.5 65t43.5 44.5t63 26t75 8.5q70 0 120.5 -17.5t80.5 -36.5l-32 -63q-33 18 -71.5 34.5t-96.5 16.5q-22 0 -43.5 -4.5t-39 -13.5t-28 -23.5t-10.5 -35.5q0 -26 25 -40t62 -23.5t80.5 -18 t80.5 -24.5t62 -43t25 -73q0 -69 -54.5 -114t-163.5 -45q-33 0 -65 6t-60 16t-51 22.5t-38 25.5l40 65q12 -12 32 -24.5t44 -22.5t51.5 -16t55.5 -6q27 0 50.5 4.5t41.5 14t28.5 25t10.5 37.5zM304 720h109l-119 -149h-55z" />
<glyph unicode="&#x15c;" d="M150 99q30 -16 67.5 -26.5t75.5 -10.5q33 0 62 6.5t50.5 21t34 36.5t12.5 52q0 41 -27.5 67t-68.5 46t-89 39t-89 45t-68.5 63.5t-27.5 95.5q0 41 16.5 74t46.5 56t72.5 35.5t94.5 12.5q60 0 109 -8.5t78 -22.5l2 1v-2h1l-1 -3v-160h-74v107q-25 6 -55 10t-64 4 q-33 0 -59.5 -8t-45 -21.5t-28.5 -31.5t-10 -38q0 -39 27.5 -65t68.5 -46.5t89 -40.5t89 -46.5t68.5 -63.5t27.5 -92q0 -45 -16.5 -81t-47 -62t-75 -40t-100.5 -14q-38 0 -72 6t-62.5 15t-51 19t-35.5 17l1 3v162h74v-111zM282 871h60l145 -123h-99l-77 65l-83 -65h-101z " />
<glyph unicode="&#x15d;" d="M438 135q0 32 -25 49.5t-62 28t-80.5 19.5t-80.5 24t-62 40.5t-25 71.5q0 38 16.5 65t43.5 44.5t63 26t75 8.5q70 0 120.5 -17.5t80.5 -36.5l-32 -63q-33 18 -71.5 34.5t-96.5 16.5q-22 0 -43.5 -4.5t-39 -13.5t-28 -23.5t-10.5 -35.5q0 -26 25 -40t62 -23.5t80.5 -18 t80.5 -24.5t62 -43t25 -73q0 -69 -54.5 -114t-163.5 -45q-33 0 -65 6t-60 16t-51 22.5t-38 25.5l40 65q12 -12 32 -24.5t44 -22.5t51.5 -16t55.5 -6q27 0 50.5 4.5t41.5 14t28.5 25t10.5 37.5zM290 732h37l135 -182h-78l-81 109l-86 -109h-70z" />
<glyph unicode="&#x15e;" d="M150 99q30 -16 67.5 -26.5t75.5 -10.5q33 0 62 6.5t50.5 21t34 36.5t12.5 52q0 41 -27.5 67t-68.5 46t-89 39t-89 45t-68.5 63.5t-27.5 95.5q0 41 16.5 74t46.5 56t72.5 35.5t94.5 12.5q60 0 109 -8.5t78 -22.5l2 1v-2h1l-1 -3v-160h-74v107q-25 6 -55 10t-64 4 q-33 0 -59.5 -8t-45 -21.5t-28.5 -31.5t-10 -38q0 -39 27.5 -65t68.5 -46.5t89 -40.5t89 -46.5t68.5 -63.5t27.5 -92q0 -45 -16.5 -81t-47 -62t-75.5 -40q-29 -9 -64 -12l-18 -33q42 -8 60.5 -26t18.5 -49q0 -39 -32 -64.5t-90 -25.5q-11 0 -22 1t-23 3l9 39q6 -1 11 -1h10 q22 0 34.5 4t19 9.5t8 12.5t1.5 13q0 28 -86 37l42 79q-27 1 -51 5q-34 6 -62.5 15t-51 19t-35.5 17l1 3v162h74v-111z" />
<glyph unicode="&#x15f;" d="M438 135q0 32 -25 49.5t-62 28t-80.5 19.5t-80.5 24t-62 40.5t-25 71.5q0 38 16.5 65t43.5 44.5t63 26t75 8.5q70 0 120.5 -17.5t80.5 -36.5l-32 -63q-33 18 -71.5 34.5t-96.5 16.5q-22 0 -43.5 -4.5t-39 -13.5t-28 -23.5t-10.5 -35.5q0 -26 25 -40t62 -23.5t80.5 -18 t80.5 -24.5t62 -43t25 -73q0 -69 -55 -114q-45 -37 -129 -44l-18 -32q42 -8 60.5 -26t18.5 -49q0 -39 -32 -64.5t-90 -25.5q-11 0 -22 1t-23 3l9 39q6 -1 11 -1h10q22 0 34.5 4t19 9.5t8 12.5t1.5 13q0 28 -86 37l42 79q-21 1 -42 5q-32 6 -60 16t-51 22.5t-38 25.5l40 65 q12 -12 32 -24.5t44 -22.5t51.5 -16t55.5 -6q27 0 50.5 4.5t41.5 14t28.5 25t10.5 37.5z" />
<glyph unicode="&#x160;" d="M150 99q30 -16 67.5 -26.5t75.5 -10.5q33 0 62 6.5t50.5 21t34 36.5t12.5 52q0 41 -27.5 67t-68.5 46t-89 39t-89 45t-68.5 63.5t-27.5 95.5q0 41 16.5 74t46.5 56t72.5 35.5t94.5 12.5q60 0 109 -8.5t78 -22.5l2 1v-2h1l-1 -3v-160h-74v107q-25 6 -55 10t-64 4 q-33 0 -59.5 -8t-45 -21.5t-28.5 -31.5t-10 -38q0 -39 27.5 -65t68.5 -46.5t89 -40.5t89 -46.5t68.5 -63.5t27.5 -92q0 -45 -16.5 -81t-47 -62t-75 -40t-100.5 -14q-38 0 -72 6t-62.5 15t-51 19t-35.5 17l1 3v162h74v-111zM332 746h-58l-149 124h104l77 -67l81 67h93z" />
<glyph unicode="&#x161;" d="M438 135q0 32 -25 49.5t-62 28t-80.5 19.5t-80.5 24t-62 40.5t-25 71.5q0 38 16.5 65t43.5 44.5t63 26t75 8.5q70 0 120.5 -17.5t80.5 -36.5l-32 -63q-33 18 -71.5 34.5t-96.5 16.5q-22 0 -43.5 -4.5t-39 -13.5t-28 -23.5t-10.5 -35.5q0 -26 25 -40t62 -23.5t80.5 -18 t80.5 -24.5t62 -43t25 -73q0 -69 -54.5 -114t-163.5 -45q-33 0 -65 6t-60 16t-51 22.5t-38 25.5l40 65q12 -12 32 -24.5t44 -22.5t51.5 -16t55.5 -6q27 0 50.5 4.5t41.5 14t28.5 25t10.5 37.5zM317 550h-37l-135 182h78l81 -109l86 109h70z" />
<glyph unicode="&#x162;" d="M328 0l-24 -43q42 -8 60.5 -26t18.5 -49q0 -39 -32 -64.5t-90 -25.5q-11 0 -22 1t-23 3l9 39q6 -1 11 -1h10q22 0 34.5 4t19 9.5t8 12.5t1.5 13q0 28 -86 37l48 90h-123v74h110v552h-144v-109h-74v183h520v-183h-74v109h-145v-552h110v-74h-123z" />
<glyph unicode="&#x163;" d="M31 500h119v99l78 22v-121h267v-67h-267v-236q0 -73 35.5 -108t101.5 -35q45 0 78.5 17t60.5 37l26 -59q-35 -28 -83.5 -45t-99.5 -17h-7l-16 -30q42 -8 60.5 -26t18.5 -49q0 -39 -32 -64.5t-90 -25.5q-11 0 -22 1t-23 3l9 39q6 -1 11 -1h10q22 0 34.5 4t19 9.5t8 12.5 t1.5 13q0 28 -86 37l45 84q-9 2 -17 5q-35 11 -62 35t-43 61.5t-16 89.5v248h-119v67z" />
<glyph unicode="&#x164;" d="M40 700h520v-183h-74v109h-145v-552h110v-74h-303v74h110v552h-144v-109h-74v183zM326 746h-58l-149 124h104l77 -67l81 67h93z" />
<glyph unicode="&#x165;" d="M31 500h119v99l78 22v-121h267v-67h-267v-236q0 -73 35.5 -108t101.5 -35q45 0 78.5 17t60.5 37l26 -59q-35 -28 -83.5 -45t-99.5 -17q-40 0 -75.5 11.5t-62.5 35.5t-43 61.5t-16 89.5v248h-119v67zM438 714q-2 -29 -12 -59.5t-22.5 -56.5t-25.5 -46t-22 -29l-33 18 q17 36 26 81.5t9 91.5h80z" />
<glyph unicode="&#x16a;" d="M460 700h80v-467q0 -63 -16.5 -109t-46.5 -75.5t-73 -43.5t-95 -14q-124 0 -186.5 56t-62.5 170v483h83v-444q0 -53 10.5 -89.5t31 -59t52 -32.5t73.5 -10q81 0 115.5 44.5t34.5 146.5v444zM144 843h316v-62h-316v62z" />
<glyph unicode="&#x16b;" d="M363 500h142v-341q0 -49 6 -94h67v-65h-133l-3 85h-4q-26 -43 -69 -70t-104 -27q-46 0 -78.5 10.5t-53.5 36.5t-31 69.5t-10 108.5v220h-67v67h145v-271q0 -41 3.5 -73.5t14.5 -55t32.5 -34t57.5 -11.5q52 0 90.5 34t58.5 85v259h-64v67zM146 643h296v-62h-296v62z" />
<glyph unicode="&#x16c;" d="M460 700h80v-467q0 -63 -16.5 -109t-46.5 -75.5t-73 -43.5t-95 -14q-124 0 -186.5 56t-62.5 170v483h83v-444q0 -53 10.5 -89.5t31 -59t52 -32.5t73.5 -10q81 0 115.5 44.5t34.5 146.5v444zM171 871q17 -34 52 -52.5t82 -18.5q48 0 81 21t47 50l47 -26q-22 -57 -70.5 -86 t-105.5 -29q-27 0 -54 6t-52 19t-45 34t-33 51z" />
<glyph unicode="&#x16d;" d="M363 500h142v-341q0 -49 6 -94h67v-65h-133l-3 85h-4q-26 -43 -69 -70t-104 -27q-46 0 -78.5 10.5t-53.5 36.5t-31 69.5t-10 108.5v220h-67v67h145v-271q0 -41 3.5 -73.5t14.5 -55t32.5 -34t57.5 -11.5q52 0 90.5 34t58.5 85v259h-64v67zM186 720q18 -36 48 -56.5 t64 -20.5t61.5 20t44.5 57l42 -18q-3 -24 -15.5 -47.5t-32 -41.5t-45.5 -29t-56 -11q-28 0 -53 8.5t-45.5 25t-35.5 39t-22 51.5z" />
<glyph unicode="&#x16e;" d="M460 700h80v-467q0 -63 -16.5 -109t-46.5 -75.5t-73 -43.5t-95 -14q-124 0 -186.5 56t-62.5 170v483h83v-444q0 -53 10.5 -89.5t31 -59t52 -32.5t73.5 -10q81 0 115.5 44.5t34.5 146.5v444zM199 768q0 37 25 61t80 24q50 0 78 -21.5t28 -63.5q0 -36 -26.5 -59.5 t-79.5 -23.5q-51 0 -78 22.5t-27 60.5zM260 768q0 -17 10.5 -28.5t33.5 -11.5q22 0 33.5 11t11.5 29q0 19 -11 30.5t-34 11.5q-22 0 -33 -11.5t-11 -30.5z" />
<glyph unicode="&#x16f;" d="M363 500h142v-341q0 -49 6 -94h67v-65h-133l-3 85h-4q-26 -43 -69 -70t-104 -27q-46 0 -78.5 10.5t-53.5 36.5t-31 69.5t-10 108.5v220h-67v67h145v-271q0 -41 3.5 -73.5t14.5 -55t32.5 -34t57.5 -11.5q52 0 90.5 34t58.5 85v259h-64v67zM196 643q0 42 26.5 66.5 t70.5 24.5q42 0 70 -22t28 -69q0 -39 -28 -64.5t-70 -25.5t-69.5 23.5t-27.5 66.5zM250 643q0 -20 13 -31t30 -11q19 0 31.5 10t12.5 32t-13.5 32.5t-30.5 10.5t-30 -10t-13 -33z" />
<glyph unicode="&#x170;" d="M460 700h80v-467q0 -63 -16.5 -109t-46.5 -75.5t-73 -43.5t-95 -14q-124 0 -186.5 56t-62.5 170v483h83v-444q0 -53 10.5 -89.5t31 -59t52 -32.5t73.5 -10q81 0 115.5 44.5t34.5 146.5v444zM251 850h93v-16l-100 -93h-57zM413 850h99v-16l-143 -93h-58z" />
<glyph unicode="&#x171;" d="M363 500h142v-341q0 -49 6 -94h67v-65h-133l-3 85h-4q-26 -43 -69 -70t-104 -27q-46 0 -78.5 10.5t-53.5 36.5t-31 69.5t-10 108.5v220h-67v67h145v-271q0 -41 3.5 -73.5t14.5 -55t32.5 -34t57.5 -11.5q52 0 90.5 34t58.5 85v259h-64v67zM233 720h86l-79 -149h-42z M379 720h103l-131 -149h-45z" />
<glyph unicode="&#x172;" d="M460 700h80v-467q0 -63 -16.5 -109t-46.5 -75.5t-73 -43.5q-27 -15 -44 -35q-20 -25 -20 -57q0 -20 13 -35.5t38 -15.5q19 0 40 10l11 -43q-15 -12 -40 -18t-46 -6q-45 0 -72 24t-27 65t27 70q14 15 34 27h-9q-124 0 -186.5 56t-62.5 170v483h83v-444q0 -53 10.5 -89.5 t31 -59t52 -32.5t73.5 -10q81 0 115.5 44.5t34.5 146.5v444z" />
<glyph unicode="&#x173;" d="M363 500h142v-341q0 -49 6 -94h67v-65h-21q-21 -13 -35 -30q-20 -25 -20 -57q0 -20 13 -35.5t38 -15.5q19 0 40 10l11 -43q-15 -12 -40 -18t-46 -6q-45 0 -72 24t-27 65t27 70q20 21 51 36h-52l-3 85h-4q-26 -43 -69 -70t-104 -27q-46 0 -78.5 10.5t-53.5 36.5t-31 69.5 t-10 108.5v220h-67v67h145v-271q0 -41 3.5 -73.5t14.5 -55t32.5 -34t57.5 -11.5q52 0 90.5 34t58.5 85v259h-64v67z" />
<glyph unicode="&#x178;" d="M259 268l-250 432h97l200 -346h1l195 346h89l-249 -431v-269h-83v268zM128 800q0 23 17.5 37.5t45.5 14.5q26 0 43.5 -14.5t17.5 -37.5t-17.5 -37t-43.5 -14q-28 0 -45.5 14t-17.5 37zM353 800q0 23 17 37.5t43 14.5q29 0 46 -14.5t17 -37.5t-17 -37t-46 -14 q-26 0 -43 14t-17 37z" />
<glyph unicode="&#x179;" d="M55 75l395 551h-395v74h490v-75l-397 -551h397v-74h-490v75zM356 870h114v-21l-163 -97h-69z" />
<glyph unicode="&#x17a;" d="M84 67l339 366h-339v67h432v-67l-342 -366h342v-67h-432v67zM302 720h109l-119 -149h-55z" />
<glyph unicode="&#x17b;" d="M55 75l395 551h-395v74h490v-75l-397 -551h397v-74h-490v75zM232 795q0 23 18 40t50 17t51 -17t19 -40q0 -25 -19 -42t-51 -17t-50 17t-18 42z" />
<glyph unicode="&#x17c;" d="M84 67l339 366h-339v67h432v-67l-342 -366h342v-67h-432v67zM244 642q0 27 18 46.5t46 19.5q29 0 48.5 -19.5t19.5 -46.5q0 -26 -19.5 -44t-48.5 -18q-28 0 -46 18t-18 44z" />
<glyph unicode="&#x17d;" d="M55 75l395 551h-395v74h490v-75l-397 -551h397v-74h-490v75zM314 746h-58l-149 124h104l77 -67l81 67h93z" />
<glyph unicode="&#x17e;" d="M84 67l339 366h-339v67h432v-67l-342 -366h342v-67h-432v67zM315 550h-37l-135 182h78l81 -109l86 109h70z" />
<glyph unicode="&#x17f;" d="M95 500h118v28q0 94 48 136t136 42q45 0 86.5 -10.5t71.5 -28.5l-29 -66q-26 12 -56 23.5t-76 11.5q-49 0 -75 -27t-26 -80v-529h-80v430h-118v70z" />
<glyph unicode="&#x192;" d="M371 430l-79 -464q-6 -37 -17 -68.5t-29.5 -55t-45.5 -37t-64 -13.5q-29 0 -60 7t-55 17l21 65q23 -10 43.5 -14.5t44.5 -4.5q38 0 57.5 33.5t32.5 112.5l68 422h-85v70h96l11 67q12 74 43.5 109.5t103.5 35.5q33 0 64.5 -7t56.5 -18l-23 -64q-45 19 -92 19 q-19 0 -31 -5.5t-20 -17.5t-13.5 -31t-9.5 -47l-7 -41h120v-70h-131z" />
<glyph unicode="&#x1f4;" d="M437 631q-34 7 -83 7q-42 0 -80.5 -14.5t-68 -48.5t-47 -89t-17.5 -136q0 -148 54.5 -218t157.5 -70q64 0 109 25v195h-144v67h215v-308q-16 -12 -38.5 -22t-48 -17t-53 -10.5t-53.5 -3.5q-67 0 -120 21.5t-90 66t-57 113t-20 161.5q0 97 25 166t66 112.5t94 63.5t109 20 q60 0 99 -6.5t66 -17.5l-1 -4v-167h-74v114zM405 870h114v-21l-163 -97h-69z" />
<glyph unicode="&#x1f5;" d="M524 -25q0 -47 -18 -82.5t-49.5 -58.5t-73.5 -34.5t-91 -11.5q-59 0 -103 12t-76 31l38 71q9 -8 23.5 -15.5t33.5 -14t40.5 -10.5t42.5 -4q44 0 73.5 8t47.5 25t26 44t8 66v56h-4q-23 -33 -59 -51t-93 -18q-114 0 -167.5 63.5t-53.5 197.5q0 128 68 193.5t202 65.5 q62 0 105.5 -8.5t79.5 -21.5v-503zM301 55q61 0 96 31.5t49 96.5v237q-44 21 -123 21q-80 0 -126 -47t-46 -144q0 -43 8 -78.5t25.5 -61.5t46 -40.5t70.5 -14.5zM342 720h109l-119 -149h-55z" />
<glyph unicode="&#x218;" d="M150 99q30 -16 67.5 -26.5t75.5 -10.5q33 0 62 6.5t50.5 21t34 36.5t12.5 52q0 41 -27.5 67t-68.5 46t-89 39t-89 45t-68.5 63.5t-27.5 95.5q0 41 16.5 74t46.5 56t72.5 35.5t94.5 12.5q60 0 109 -8.5t78 -22.5l2 1v-2h1l-1 -3v-160h-74v107q-25 6 -55 10t-64 4 q-33 0 -59.5 -8t-45 -21.5t-28.5 -31.5t-10 -38q0 -39 27.5 -65t68.5 -46.5t89 -40.5t89 -46.5t68.5 -63.5t27.5 -92q0 -45 -16.5 -81t-47 -62t-75 -40t-100.5 -14q-38 0 -72 6t-62.5 15t-51 19t-35.5 17l1 3v162h74v-111zM234 -92q0 21 15.5 34t35.5 13q25 0 44.5 -17.5 t19.5 -57.5q0 -26 -9 -45.5t-21.5 -34t-26 -23t-23.5 -12.5l-28 32q20 11 32 28t12 41q-4 -1 -10 -1q-18 0 -29.5 12t-11.5 31z" />
<glyph unicode="&#x219;" d="M438 135q0 32 -25 49.5t-62 28t-80.5 19.5t-80.5 24t-62 40.5t-25 71.5q0 38 16.5 65t43.5 44.5t63 26t75 8.5q70 0 120.5 -17.5t80.5 -36.5l-32 -63q-33 18 -71.5 34.5t-96.5 16.5q-22 0 -43.5 -4.5t-39 -13.5t-28 -23.5t-10.5 -35.5q0 -26 25 -40t62 -23.5t80.5 -18 t80.5 -24.5t62 -43t25 -73q0 -69 -54.5 -114t-163.5 -45q-33 0 -65 6t-60 16t-51 22.5t-38 25.5l40 65q12 -12 32 -24.5t44 -22.5t51.5 -16t55.5 -6q27 0 50.5 4.5t41.5 14t28.5 25t10.5 37.5zM246 -92q0 21 15.5 34t35.5 13q25 0 44.5 -17.5t19.5 -57.5q0 -26 -9 -45.5 t-21.5 -34t-26 -23t-23.5 -12.5l-28 32q20 11 32 28t12 41q-4 -1 -10 -1q-18 0 -29.5 12t-11.5 31z" />
<glyph unicode="&#x21a;" d="M40 700h520v-183h-74v109h-145v-552h110v-74h-303v74h110v552h-144v-109h-74v183zM241 -92q0 21 15.5 34t35.5 13q25 0 44.5 -17.5t19.5 -57.5q0 -26 -9 -45.5t-21.5 -34t-26 -23t-23.5 -12.5l-28 32q20 11 32 28t12 41q-4 -1 -10 -1q-18 0 -29.5 12t-11.5 31z" />
<glyph unicode="&#x21b;" d="M31 500h119v99l78 22v-121h267v-67h-267v-236q0 -73 35.5 -108t101.5 -35q45 0 78.5 17t60.5 37l26 -59q-35 -28 -83.5 -45t-99.5 -17q-40 0 -75.5 11.5t-62.5 35.5t-43 61.5t-16 89.5v248h-119v67zM267 -92q0 21 15.5 34t35.5 13q25 0 44.5 -17.5t19.5 -57.5 q0 -26 -9 -45.5t-21.5 -34t-26 -23t-23.5 -12.5l-28 32q20 11 32 28t12 41q-4 -1 -10 -1q-18 0 -29.5 12t-11.5 31z" />
<glyph unicode="&#x237;" d="M336 433h-242v67h322v-512q0 -101 -51.5 -150.5t-142.5 -49.5q-27 0 -52.5 7t-47.5 16.5t-38.5 19.5t-24.5 16l33 65q27 -20 61.5 -35t71.5 -15q60 0 85.5 37.5t25.5 103.5v430z" />
<glyph unicode="&#x2bc;" d="M158 660q0 27 18 43t44 16q35 0 56 -21t21 -63q0 -40 -11.5 -69.5t-28 -49.5t-34.5 -31.5t-32 -16.5l-30 41q28 14 48.5 36t20.5 56q-4 -1 -12 -1q-23 0 -41.5 17t-18.5 43z" />
<glyph unicode="&#x2c6;" d="M287 732h37l135 -182h-78l-81 109l-86 -109h-70z" />
<glyph unicode="&#x2c7;" d="M314 550h-37l-135 182h78l81 -109l86 109h70z" />
<glyph unicode="&#x2d8;" d="M192 720q18 -36 48 -56.5t64 -20.5t61.5 20t44.5 57l42 -18q-3 -24 -15.5 -47.5t-32 -41.5t-45.5 -29t-56 -11q-28 0 -53 8.5t-45.5 25t-35.5 39t-22 51.5z" />
<glyph unicode="&#x2d9;" d="M234 642q0 27 18 46.5t46 19.5q29 0 48.5 -19.5t19.5 -46.5q0 -26 -19.5 -44t-48.5 -18q-28 0 -46 18t-18 44z" />
<glyph unicode="&#x2da;" d="M202 643q0 42 26.5 66.5t70.5 24.5q42 0 70 -22t28 -69q0 -39 -28 -64.5t-70 -25.5t-69.5 23.5t-27.5 66.5zM256 643q0 -20 13 -31t30 -11q19 0 31.5 10t12.5 32t-13.5 32.5t-30.5 10.5t-30 -10t-13 -33z" />
<glyph unicode="&#x2db;" d="M365 10q-35 -16 -55 -40.5t-20 -56.5q0 -20 13 -35.5t38 -15.5q19 0 40 10l11 -43q-15 -12 -40 -18t-46 -6q-45 0 -72 24t-27 65t27.5 70t75.5 46h55z" />
<glyph unicode="&#x2dc;" d="M146 654q29 33 60 46.5t51 13.5q17 0 31.5 -6.5t28 -14t26 -13.5t26.5 -6q22 0 46 24l35 -44q-26 -29 -48.5 -39.5t-49.5 -9.5q-16 0 -30 6.5t-27.5 14t-27 13.5t-27.5 6q-13 0 -26.5 -7t-30.5 -24z" />
<glyph unicode="&#x2dd;" d="M201 720h86l-79 -149h-42zM347 720h103l-131 -149h-45z" />
<glyph unicode="&#x301;" d="M261 720h109l-119 -149h-55z" />
<glyph unicode="&#x394;" d="M28 0v37l254 674h34l256 -674v-37h-544zM120 72h355l-180 471h-1z" />
<glyph unicode="&#x3a9;" d="M25 70h160v16q-43 10 -73 37.5t-49.5 66.5t-28.5 86.5t-9 99.5q0 78 15 140t48 105.5t85 67t126 23.5q78 0 131 -25t85 -70t46 -107.5t14 -137.5q0 -54 -11 -100.5t-32 -83t-51 -63t-68 -39.5v-16h162v-70h-237v125q30 6 57 22t47.5 45.5t32.5 75t12 109.5q0 48 -6 94.5 t-25.5 83.5t-57 60t-100.5 23q-56 0 -92 -17t-56.5 -50t-28.5 -82.5t-8 -114.5q0 -63 10.5 -107.5t30 -74.5t47 -46t60.5 -21v-125h-236v70z" />
<glyph unicode="&#x3bc;" d="M432 74h-4q-20 -35 -61.5 -60.5t-101.5 -25.5q-31 0 -57 8t-44 30h-5l5 -93v-133h-80v700h80v-283q0 -79 24.5 -119t85.5 -40q55 0 93 32.5t53 85.5v324h80v-337q0 -39 2.5 -60.5t4.5 -37.5h64v-65h-128z" />
<glyph unicode="&#x3c0;" d="M491 116q0 -28 9 -39t23 -11q10 0 22.5 2t21.5 4l19 -54q-16 -7 -39.5 -14.5t-53.5 -7.5q-50 0 -66 29t-16 81v324h-190v-430h-80v430h-14q-21 0 -34 -11.5t-27 -33.5l-53 32q19 38 47 60.5t81 22.5h433v-70h-83v-314z" />
<glyph unicode="&#x401;" d="M107 700h411v-74h-328v-229h303v-74h-303v-249h333v-74h-416v700zM137 800q0 23 17.5 37.5t45.5 14.5q26 0 43.5 -14.5t17.5 -37.5t-17.5 -37t-43.5 -14q-28 0 -45.5 14t-17.5 37zM362 800q0 23 17 37.5t43 14.5q29 0 46 -14.5t17 -37.5t-17 -37t-46 -14q-26 0 -43 14 t-17 37z" />
<glyph unicode="&#x402;" d="M274 0h-83v626h-168v74h449v-74h-198v-211q12 4 42.5 12.5t86.5 8.5q32 0 65 -9.5t59.5 -33.5t43 -64.5t16.5 -102.5q0 -121 -48 -177.5t-145 -56.5q-33 0 -47.5 0.5t-22.5 2.5v72q13 -2 28.5 -2.5t44.5 -0.5q55 0 78.5 39t23.5 117q0 42 -10 70t-26.5 44.5t-39 23 t-46.5 6.5q-35 0 -63.5 -8.5t-39.5 -13.5v-342z" />
<glyph unicode="&#x403;" d="M70 700h480v-183h-74v109h-227v-552h157v-74h-336v74h96v552h-96v74zM385 870h114v-21l-163 -97h-69z" />
<glyph unicode="&#x404;" d="M458 624q-17 7 -37.5 10.5t-49.5 3.5q-38 0 -76 -12.5t-69.5 -41t-53 -74.5t-27.5 -112h306v-74h-308q3 -66 22.5 -115t50.5 -81.5t73 -49t90 -16.5q26 0 48.5 4.5t41.5 12.5v100h74v-135l1 -2q-30 -23 -76 -38.5t-112 -15.5q-63 0 -118 21.5t-95.5 65.5t-64 112.5 t-23.5 162.5q0 98 25.5 166.5t68 112t99 63.5t118.5 20q34 0 59 -2.5t44 -7t33.5 -11.5t28.5 -16h1v-158h-74v107z" />
<glyph unicode="&#x405;" d="M150 99q30 -16 67.5 -26.5t75.5 -10.5q33 0 62 6.5t50.5 21t34 36.5t12.5 52q0 41 -27.5 67t-68.5 46t-89 39t-89 45t-68.5 63.5t-27.5 95.5q0 41 16.5 74t46.5 56t72.5 35.5t94.5 12.5q60 0 109 -8.5t78 -22.5l2 1v-2h1l-1 -3v-160h-74v107q-25 6 -55 10t-64 4 q-33 0 -59.5 -8t-45 -21.5t-28.5 -31.5t-10 -38q0 -39 27.5 -65t68.5 -46.5t89 -40.5t89 -46.5t68.5 -63.5t27.5 -92q0 -45 -16.5 -81t-47 -62t-75 -40t-100.5 -14q-38 0 -72 6t-62.5 15t-51 19t-35.5 17l1 3v162h74v-111z" />
<glyph unicode="&#x406;" d="M60 700h480v-74h-199v-552h199v-74h-480v74h198v552h-198v74z" />
<glyph unicode="&#x407;" d="M60 700h480v-74h-199v-552h199v-74h-480v74h198v552h-198v74zM126 800q0 23 17.5 37.5t45.5 14.5q26 0 43.5 -14.5t17.5 -37.5t-17.5 -37t-43.5 -14q-28 0 -45.5 14t-17.5 37zM351 800q0 23 17 37.5t43 14.5q29 0 46 -14.5t17 -37.5t-17 -37t-46 -14q-26 0 -43 14t-17 37 z" />
<glyph unicode="&#x408;" d="M97 700h396v-452q0 -126 -60 -192t-173 -66q-29 0 -57 5t-52 13.5t-41.5 18.5t-25.5 19l36 66q11 -7 24.5 -15t30 -15.5t37 -12.5t46.5 -5q75 0 113.5 47t38.5 152v363h-313v74z" />
<glyph unicode="&#x409;" d="M297 626h-109q-6 -200 -16 -333.5t-33 -205.5q-14 -48 -40 -70t-55 -22q-23 0 -43 10l9 74q7 -3 14 -3q13 0 23 7t19 36q9 27 16.5 73.5t13.5 116.5t9.5 166.5t5.5 224.5h266v-272q12 4 27 6.5t30 2.5q34 0 64 -9.5t52 -33.5t35 -64.5t13 -102.5q0 -122 -45.5 -178.5 t-138.5 -56.5q-9 0 -23 0.5t-30 2t-33 4t-31 6.5v621zM420 66q53 0 74.5 35.5t21.5 118.5q0 43 -6 71t-18 44t-30 22t-42 6q-11 0 -24 -3t-19 -6v-282q18 -6 43 -6z" />
<glyph unicode="&#x40a;" d="M273 331h-177v-331h-80v700h80v-295h177v295h80v-295q3 1 11.5 2.5t18 3t18.5 2.5t14 1q35 0 66 -8t54 -30t36 -60.5t13 -99.5q0 -121 -47 -172.5t-135 -51.5q-9 0 -25 0.5t-34.5 2t-37 4.5t-32.5 7v325zM409 66q50 0 71.5 32.5t21.5 110.5q0 42 -6 68t-18 40t-29.5 18.5 t-39.5 4.5q-6 0 -14 -1t-16.5 -2t-15.5 -3t-10 -3v-259q9 -4 25.5 -5t30.5 -1z" />
<glyph unicode="&#x40b;" d="M269 0h-83v626h-168v74h449v-74h-198v-231q13 7 28.5 15t33.5 15t40 11t50 4q42 0 72.5 -9.5t50 -32t29 -60.5t9.5 -94v-244h-83v229q0 35 -3 60.5t-13 42.5t-28.5 25.5t-49.5 8.5q-48 0 -79 -12.5t-57 -33.5v-320z" />
<glyph unicode="&#x40c;" d="M245 324h-77v-324h-83v700h83v-312h75l225 312h96l-247 -333l278 -367h-105zM341 870h114v-21l-163 -97h-69z" />
<glyph unicode="&#x40e;" d="M299 284h64l122 416h85l-142 -455q-20 -69 -39.5 -117t-42 -77.5t-49.5 -42.5t-62 -13q-33 0 -52.5 5.5t-36.5 16.5l25 69q20 -11 37 -14t31 -3q28 0 54 33t43 108l-90 1l-216 489h96zM217 870q4 -37 28 -57t64 -20t63.5 20t28.5 56l71 -17q-11 -54 -50.5 -85.5 t-113.5 -31.5q-71 0 -116.5 27.5t-53.5 87.5z" />
<glyph unicode="&#x40f;" d="M75 0v700h83v-626h283v626h83v-700h-188v-181h-70v181h-191z" />
<glyph unicode="&#x410;" d="M431 194h-269l-64 -194h-82l234 700h98l236 -700h-87zM188 266h220l-103 329h-12z" />
<glyph unicode="&#x411;" d="M108 700h380v-74h-297v-210q17 3 42 6t48 3q51 0 97 -9.5t81 -32.5t55.5 -62.5t20.5 -99.5t-21 -103.5t-56 -71t-81.5 -41t-97.5 -13.5q-17 0 -38.5 0.5t-45 2.5t-46 4.5t-41.5 7.5v693zM289 64q32 0 61 8.5t50.5 26.5t34 45t12.5 63q0 46 -14.5 75t-38.5 44.5t-55.5 21 t-65.5 5.5q-9 0 -21 -1l-24 -2t-22 -2.5t-15 -2.5v-275q7 -2 18.5 -3t25 -2t27.5 -1h27z" />
<glyph unicode="&#x412;" d="M522 540q0 -25 -8 -51t-24 -48.5t-41 -39.5t-59 -26v-4q30 -5 57.5 -17t48.5 -33t34 -51t13 -71q0 -54 -22.5 -93.5t-59 -64.5t-83.5 -37t-96 -12h-40t-48 1.5t-50 4t-44 7.5v689q37 6 86 10t107 4q39 0 79.5 -6.5t73.5 -25t54.5 -51.5t21.5 -85zM290 64q32 0 62 8t53 24 t36.5 40t13.5 57q0 41 -16.5 66t-43 39t-59.5 19t-66 5h-87v-251q7 -2 20 -3t28 -2t31 -1.5t28 -0.5zM235 392q17 0 41 1t40 3q24 8 45 19.5t37.5 27.5t26 36t9.5 44q0 33 -12.5 55t-33.5 35t-48 18t-55 5q-33 0 -60.5 -1.5t-41.5 -4.5v-238h52z" />
<glyph unicode="&#x413;" d="M70 700h480v-183h-74v109h-227v-552h157v-74h-336v74h96v552h-96v74z" />
<glyph unicode="&#x414;" d="M584 -141h-70v141h-436v-141h-70v215h67q4 12 18.5 53t30 116t28.5 188t13 269h344v-626h75v-215zM426 74v552h-183q-3 -110 -12.5 -198t-21.5 -156t-24.5 -117t-21.5 -81h263z" />
<glyph unicode="&#x415;" d="M107 700h411v-74h-328v-229h303v-74h-303v-249h333v-74h-416v700z" />
<glyph unicode="&#x416;" d="M259 700h80v-314h50l110 314h82l-121 -342l140 -358h-92l-117 324h-52v-324h-80v324h-55l-118 -324h-86l131 353l-113 347h87l95 -314h59v314z" />
<glyph unicode="&#x417;" d="M80 183h74v-105q24 -8 54 -14t65 -6q76 0 122.5 36t46.5 108q0 63 -43 93.5t-114 35.5h-60v70h69q26 3 49 13.5t40.5 26.5t27.5 37t10 45q0 33 -11.5 55.5t-31.5 36.5t-48 20.5t-62 6.5q-29 0 -57 -4t-51 -10v-99h-74v148v1q10 6 29 12t45 11t57 8t65 3q45 0 86 -8.5 t72.5 -28t50 -53t18.5 -82.5q0 -50 -32.5 -95.5t-98.5 -65.5v-4q71 -10 111.5 -53t40.5 -115q0 -57 -22 -98.5t-58.5 -68.5t-82.5 -39.5t-94 -12.5q-69 0 -117 12.5t-76 23.5v1v158z" />
<glyph unicode="&#x418;" d="M457 464l6 100h-6l-58 -112l-260 -452h-79v700h83v-470l-5 -99h6l57 112l260 457h79v-700h-83v464z" />
<glyph unicode="&#x419;" d="M457 464l6 100h-6l-58 -112l-260 -452h-79v700h83v-470l-5 -99h6l57 112l260 457h79v-700h-83v464zM223 870q4 -37 28 -57t64 -20t63.5 20t28.5 56l71 -17q-11 -54 -50.5 -85.5t-113.5 -31.5q-71 0 -116.5 27.5t-53.5 87.5z" />
<glyph unicode="&#x41a;" d="M245 324h-77v-324h-83v700h83v-312h75l225 312h96l-247 -333l278 -367h-105z" />
<glyph unicode="&#x41b;" d="M441 626h-189q-10 -200 -26.5 -332.5t-49.5 -206.5q-22 -48 -52 -70t-65 -22q-18 0 -31 2.5t-25 7.5l11 72q10 -3 21 -3q17 0 33.5 11t32.5 41q14 27 26.5 72t22 114t15.5 164.5t9 223.5h350v-700h-83v626z" />
<glyph unicode="&#x41c;" d="M457 465l10 95h-5l-48 -86l-102 -171h-25l-107 172l-46 85h-5l12 -94v-466h-81v700h77l166 -266h2l160 266h75v-700h-83v465z" />
<glyph unicode="&#x41d;" d="M457 321h-314v-321h-83v700h83v-305h314v305h83v-700h-83v321z" />
<glyph unicode="&#x41e;" d="M48 350q0 174 61.5 268t189.5 94q70 0 118.5 -26t78.5 -73.5t43 -114t13 -148.5q0 -174 -61.5 -268t-191.5 -94q-69 0 -117 26t-78 73.5t-43 114t-13 148.5zM136 350q0 -58 7.5 -110t26.5 -91.5t50 -63t79 -23.5q86 0 125.5 70t39.5 218q0 57 -7.5 109.5t-26.5 92t-51 63 t-80 23.5q-85 0 -124 -70.5t-39 -217.5z" />
<glyph unicode="&#x41f;" d="M447 626h-294v-626h-83v700h460v-700h-83v626z" />
<glyph unicode="&#x420;" d="M100 693q38 9 82 12t87 3q46 0 93.5 -9t86.5 -33t63.5 -66t24.5 -107q0 -64 -23 -108t-61 -71.5t-87 -39.5t-101 -12h-16.5t-24 0.5t-24.5 1.5t-17 2v-266h-83v693zM271 636q-26 0 -50 -1t-38 -5v-290q5 -2 16 -2.5t23 -1t23 -0.5h16q34 0 67.5 6.5t60.5 23.5t43.5 48 t16.5 79q0 41 -15.5 68.5t-41 44t-57.5 23.5t-64 7z" />
<glyph unicode="&#x421;" d="M458 624q-17 7 -37.5 10.5t-49.5 3.5q-41 0 -80.5 -15t-70 -49t-49 -89t-18.5 -135q0 -72 16.5 -126t46 -90t71 -54t92.5 -18q26 0 48.5 4.5t41.5 12.5v100h74v-135l1 -2q-30 -23 -76 -38.5t-112 -15.5q-63 0 -116.5 21.5t-92.5 65.5t-60.5 112.5t-21.5 162.5 q0 98 24 166.5t65 112t95.5 63.5t116.5 20q34 0 59 -2.5t44 -7t33.5 -11.5t28.5 -16h1v-158h-74v107z" />
<glyph unicode="&#x422;" d="M40 700h520v-183h-74v109h-145v-552h110v-74h-303v74h110v552h-144v-109h-74v183z" />
<glyph unicode="&#x423;" d="M299 284h64l122 416h85l-142 -455q-20 -69 -39.5 -117t-42 -77.5t-49.5 -42.5t-62 -13q-33 0 -52.5 5.5t-36.5 16.5l25 69q20 -11 37 -14t31 -3q28 0 54 33t43 108l-90 1l-216 489h96z" />
<glyph unicode="&#x424;" d="M258 65q-44 0 -86.5 11t-75.5 41.5t-53.5 86.5t-20.5 146q0 81 19 138t51 92.5t75 51.5t91 16v72h83v-72q43 0 85 -12.5t76 -45t55 -88t21 -142.5q0 -85 -20.5 -142t-54 -91t-76 -48t-86.5 -14v-85h-83v85zM495 360q0 58 -11 99.5t-31.5 67.5t-49.5 38.5t-65 12.5v-444 q36 0 65.5 10.5t49.5 36.5t31 69.5t11 109.5zM105 350q0 -60 9.5 -101t28.5 -66.5t48.5 -37t68.5 -11.5v444q-34 0 -62.5 -10.5t-49 -37t-32 -70.5t-11.5 -110z" />
<glyph unicode="&#x425;" d="M251 356l-211 344h100l140 -237l25 -47l24 47l149 237h92l-219 -337l229 -363h-97l-157 251l-27 50l-26 -50l-160 -251h-93z" />
<glyph unicode="&#x426;" d="M594 -141h-70v141h-454v700h83v-626h275v626h83v-626h83v-215z" />
<glyph unicode="&#x427;" d="M165 700v-232q0 -137 124 -137q47 0 88 12.5t67 33.5v323h83v-700h-83v302q-27 -15 -71 -30t-101 -15q-42 0 -77 9.5t-60 32t-39 60.5t-14 94v247h83z" />
<glyph unicode="&#x428;" d="M51 0v700h78v-626h132v626h78v-626h132v626h78v-700h-498z" />
<glyph unicode="&#x429;" d="M42 0v700h78v-626h131v626h78v-626h132v626h78v-626h61v-215h-70v141h-488z" />
<glyph unicode="&#x42a;" d="M161 626h-140v74h223v-272q11 2 34 5t46 3q55 0 100 -12.5t77 -38t49.5 -65.5t17.5 -94q0 -53 -16.5 -96t-49 -73.5t-80 -47.5t-110.5 -17q-9 0 -26.5 0.5t-38.5 2t-44 4.5t-42 8v619zM322 64q82 0 120 42t38 114q0 70 -41.5 107t-120.5 37q-23 0 -43.5 -3t-30.5 -6v-285 q7 -2 17 -3t21 -1.5t21.5 -1t18.5 -0.5z" />
<glyph unicode="&#x42b;" d="M467 700h83v-700h-83v700zM50 700h83v-263q7 2 25 5.5t41 3.5q37 0 73 -10t65 -35t47 -67.5t18 -106.5q0 -62 -16 -106t-45 -73t-70 -42.5t-90 -13.5q-13 0 -30 0.5t-35 2t-35.5 4t-30.5 6.5v695zM187 66q29 0 53.5 8.5t42 27t27 47.5t9.5 71q0 45 -10.5 74.5t-28 47 t-41 24t-49.5 6.5q-17 0 -34 -2.5t-23 -6.5v-290q8 -4 23 -5.5t31 -1.5z" />
<glyph unicode="&#x42c;" d="M118 700h83v-272q5 1 17 2.5t26 2.5t29 2t27 1q48 0 93.5 -9.5t81 -33.5t57.5 -64.5t22 -102.5q0 -60 -21 -104t-58 -73t-86.5 -43t-107.5 -14q-14 0 -34 0.5t-42.5 2t-45 4.5t-41.5 8v693zM292 64q36 0 67.5 9.5t55.5 29t37.5 49t13.5 68.5q0 42 -15 70t-39.5 44.5 t-56.5 23t-66 6.5q-9 0 -22 -1l-26 -2t-24 -3t-16 -3v-285q14 -3 40 -4.5t51 -1.5z" />
<glyph unicode="&#x42d;" d="M76 670l-1 3q31 18 76.5 28.5t97.5 10.5q64 0 117.5 -20t92 -63.5t60 -112.5t21.5 -166q0 -98 -24.5 -167t-67 -112.5t-99.5 -63t-121 -19.5q-25 0 -50.5 4.5t-48 11t-41 14t-28.5 13.5v148h74v-100q22 -8 49.5 -14.5t61.5 -6.5q39 0 77 14t68 45t48.5 81t18.5 123h-248 v74h247q-2 65 -19 111.5t-46 76.5t-67.5 44.5t-84.5 14.5q-26 0 -48 -3.5t-41 -8.5v-105h-74v145z" />
<glyph unicode="&#x42e;" d="M118 395h83q2 70 13.5 128t34 100t57.5 65.5t83 23.5q51 0 86.5 -25t58 -72t32.5 -114t10 -151q0 -179 -47.5 -270.5t-149.5 -91.5q-47 0 -80 23t-55 66.5t-32.5 105t-11.5 139.5h-82v-322h-83v700h83v-305zM284 350q0 -140 27 -214t75 -74q59 0 83 68t24 220 q0 60 -4.5 112.5t-16.5 91.5t-33.5 61.5t-55.5 22.5q-28 0 -47 -20t-30.5 -57t-16.5 -90.5t-5 -120.5z" />
<glyph unicode="&#x42f;" d="M500 0h-83v289h-103l-174 -289h-98l194 302q-29 7 -55 22t-46 39t-31.5 56.5t-11.5 76.5q0 61 20.5 101.5t56 65t83 35t100.5 10.5q34 0 72.5 -3t75.5 -12v-693zM348 636q-33 0 -63 -6.5t-53.5 -22.5t-37.5 -43t-14 -68q0 -38 13.5 -65t36.5 -44.5t53.5 -25.5t65.5 -8h68 v277q-14 3 -29 4.5t-40 1.5z" />
<glyph unicode="&#x430;" d="M108 461q43 25 97 36t106 11q51 0 83.5 -16t51 -41.5t25 -58t6.5 -65.5q0 -38 -2 -81t-3 -86q0 -50 6 -95h67v-65h-133l-9 75h-5q-6 -9 -18 -23t-31.5 -27.5t-47.5 -23.5t-66 -10q-74 0 -117 38t-43 104q0 51 22.5 85t64.5 52t101.5 21t133.5 -8q5 46 1.5 76.5t-16 48.5 t-35 25.5t-55.5 7.5q-45 0 -86 -12.5t-73 -25.5zM255 58q28 0 52 9t42 23t30 30.5t18 31.5v70q-52 9 -96 9t-76 -9.5t-50 -29.5t-18 -52q0 -33 22.5 -57.5t75.5 -24.5z" />
<glyph unicode="&#x431;" d="M133 409q38 50 83.5 70t113.5 20q103 0 158 -62t55 -176q0 -132 -64 -202.5t-179 -70.5q-243 0 -243 315q0 86 9.5 147t27.5 103t44 67t59 39.5t72 20.5t84 10q58 4 89 11t51 24l12 -69q-11 -9 -24 -15t-32 -10t-44.5 -7t-60.5 -5q-49 -3 -87 -10t-64.5 -28.5t-42 -62 t-20.5 -109.5h3zM140 249q0 -37 9.5 -72t29 -62t49.5 -43.5t72 -16.5q80 0 120 52t40 148q0 37 -8.5 69t-25.5 56t-44.5 38t-64.5 14q-93 0 -135 -46.5t-42 -136.5z" />
<glyph unicode="&#x432;" d="M120 499q19 1 38 2.5t41 2.5t47.5 2t57.5 1q108 0 156 -30.5t48 -91.5q0 -35 -23 -69.5t-75 -49.5v-4q66 -11 93 -40.5t27 -80.5q0 -78 -63.5 -113t-184.5 -35q-48 0 -86 2.5t-76 5.5v498zM197 63q23 -2 46 -3t52 -1q78 0 116.5 19.5t38.5 67.5q0 19 -7.5 34t-25 26 t-45.5 17t-70 6h-105v-166zM316 289q20 0 40 6.5t36.5 17t26.5 25t10 30.5q0 41 -29.5 57t-98.5 16q-38 0 -60.5 -1t-43.5 -2v-149h119z" />
<glyph unicode="&#x433;" d="M102 0v67h64v365h-64v68h404v-187h-68v119h-194v-365h152v-67h-294z" />
<glyph unicode="&#x434;" d="M566 -120h-68v120h-402v-120h-68v188h56q9 11 24 39.5t29 80t25 128t13 184.5h314v-432h77v-188zM411 67v366h-165q-2 -43 -7.5 -93t-15.5 -99.5t-24.5 -94.5t-33.5 -79h246z" />
<glyph unicode="&#x435;" d="M529 63q-18 -16 -42.5 -30t-53.5 -24t-60.5 -15.5t-63.5 -5.5q-60 0 -106 18.5t-77 53t-47 82.5t-16 108q0 63 17.5 112t50.5 82t80 50.5t105 17.5q42 0 83 -11t72.5 -41.5t48.5 -84t12 -138.5h-387q0 -90 48.5 -134.5t129.5 -44.5q27 0 53.5 6.5t50.5 15.5t42.5 20 t28.5 20zM318 446q-33 0 -62.5 -7t-52 -23.5t-37 -43t-18.5 -65.5h311q-5 66 -42.5 102.5t-98.5 36.5z" />
<glyph unicode="&#x436;" d="M199 224l-107 -224h-86l128 256l-115 244h87l91 -216h63v216h78v-216h54l106 216h82l-118 -232l132 -268h-89l-107 224h-60v-224h-78v224h-61z" />
<glyph unicode="&#x437;" d="M107 453l-1 3q17 10 36.5 19.5t44 17t55.5 12.5t71 5q41 0 76 -8.5t61 -24.5t40.5 -39.5t14.5 -53.5q0 -16 -6.5 -33.5t-19.5 -33.5t-31 -29t-41 -20v-4q66 -11 92.5 -42t26.5 -82q0 -32 -15 -59t-44.5 -47t-73 -31.5t-101.5 -11.5q-43 0 -78 8t-61.5 20t-45 26t-28.5 26 l40 63q11 -12 27 -25.5t39.5 -24.5t54 -18.5t70.5 -7.5q28 0 52.5 5.5t43 16t29.5 27t11 38.5q0 38 -34.5 58t-113.5 20h-57v65h71q20 0 40 6.5t36 17t26 25t10 30.5q0 20 -10 34.5t-27.5 23.5t-41 13.5t-49.5 4.5q-40 0 -70 -7.5t-51 -18.5v-83h-68v119z" />
<glyph unicode="&#x438;" d="M437 314l3 66h-3l-281 -380h-71v500h78v-323l-3 -63h4l279 386h72v-500h-78v314z" />
<glyph unicode="&#x439;" d="M437 314l3 66h-3l-281 -380h-71v500h78v-323l-3 -63h4l279 386h72v-500h-78v314zM215 702q10 -46 34.5 -64t56.5 -18t57 19t34 62l60 -19q-9 -58 -51.5 -89t-101.5 -31q-27 0 -53.5 7t-47.5 21t-36 36t-20 52z" />
<glyph unicode="&#x43a;" d="M241 226h-55v-226h-77v500h77v-214h55l197 214h94l-221 -237l182 -196h65v-67h-103z" />
<glyph unicode="&#x43b;" d="M426 432h-173q-4 -91 -10 -170.5t-22.5 -138.5t-47 -93t-82.5 -34q-20 0 -29 2t-22 7l13 74q19 -5 35.5 -5t29.5 12t23.5 38.5t18 75t12.5 122t8 178.5h324v-500h-78v432z" />
<glyph unicode="&#x43c;" d="M458 297l2 71h-5l-144 -229h-28l-146 229h-4l5 -70v-298h-74v500h79l159 -251h2l152 251h80v-500h-78v297z" />
<glyph unicode="&#x43d;" d="M434 222h-269v-222h-77v500h77v-208h269v208h78v-500h-78v222z" />
<glyph unicode="&#x43e;" d="M57 250q0 121 63 191.5t180 70.5q63 0 108.5 -20.5t75.5 -55.5t44.5 -83t14.5 -103q0 -60 -16 -108.5t-47 -82.5t-76.5 -52.5t-103.5 -18.5q-62 0 -108 20.5t-76 55.5t-44.5 83t-14.5 103zM140 250q0 -35 8.5 -70t27.5 -63t49.5 -45t74.5 -17q80 0 120.5 49.5t40.5 145.5 q0 36 -8.5 70.5t-28 62.5t-50 45t-74.5 17q-80 0 -120 -49t-40 -146z" />
<glyph unicode="&#x43f;" d="M430 432h-261v-432h-77v500h416v-500h-78v432z" />
<glyph unicode="&#x440;" d="M96 325q0 9 -0.5 23.5t-1.5 30t-2.5 30.5t-3.5 26h-67v65h133l10 -70h5q27 35 68.5 58.5t101.5 23.5q107 0 161 -59t54 -193q0 -63 -18.5 -113.5t-52.5 -85.5t-82 -54t-106 -19q-21 0 -37.5 1.5t-30 4t-26.5 6.5t-28 10v-210h-77v525zM326 439q-30 0 -56.5 -11t-47 -29 t-33.5 -40t-16 -44v-228q22 -15 49.5 -23.5t72.5 -8.5q80 0 128 52.5t48 153.5q0 85 -33.5 131.5t-111.5 46.5z" />
<glyph unicode="&#x441;" d="M439 423q-23 8 -49.5 13.5t-52.5 5.5q-98 0 -146 -46t-48 -146q0 -44 14 -78.5t40 -58.5t62.5 -37t80.5 -13q47 0 91.5 16t74.5 42l35 -58q-14 -12 -35 -25t-48.5 -24.5t-61 -18.5t-72.5 -7q-65 0 -114.5 18.5t-82.5 53t-50 83t-17 107.5q0 63 17.5 112t50.5 82t80 50.5 t105 17.5q74 0 120.5 -13t78.5 -29l-1 -3v-139h-72v95z" />
<glyph unicode="&#x442;" d="M52 500h496v-187h-68v119h-141v-365h121v-67h-324v67h125v365h-141v-119h-68v187z" />
<glyph unicode="&#x443;" d="M311 77h38l124 423h81l-139 -449q-11 -35 -22.5 -79.5t-32.5 -83.5t-57 -66t-94 -27q-13 0 -27.5 3t-28.5 7.5t-26 10.5t-18 12l28 72q6 -5 16.5 -10t23 -8.5t24.5 -6t20 -2.5q75 0 102 127h-67l-210 500h90z" />
<glyph unicode="&#x444;" d="M184 700h154v-197q18 3 32 4t27 1q91 0 135 -57.5t44 -190.5q0 -126 -46.5 -199t-136.5 -73q-9 0 -26.5 1.5t-28.5 5.5v-195h-76v196q-17 -6 -35.5 -7t-33.5 -1q-84 0 -126.5 64t-42.5 198q0 128 48 193t142 65q28 0 48 -4v129h-78v67zM382 442q-12 0 -21.5 -0.5 t-23.5 -4.5v-380q10 -2 22.5 -2.5t27.5 -0.5q57 0 83 53t26 153q0 42 -5 76t-18 57.5t-35 36t-56 12.5zM213 54q12 0 24 1t26 4v379q-12 2 -22.5 3t-25.5 1q-54 0 -82.5 -46.5t-28.5 -145.5q0 -42 6 -78t19 -62.5t33.5 -41t50.5 -14.5z" />
<glyph unicode="&#x445;" d="M253 256l-193 244h100l144 -188l148 188h90l-193 -240l205 -260h-96l-159 205l-162 -205h-91z" />
<glyph unicode="&#x446;" d="M585 -120h-68v120h-427v500h77v-432h258v432h78v-432h82v-188z" />
<glyph unicode="&#x447;" d="M167 500v-133q0 -27 3.5 -50t14.5 -39.5t31 -25.5t53 -9q54 0 89 11.5t52 24.5v221h78v-500h-78v212q-18 -11 -54.5 -23.5t-99.5 -12.5q-42 0 -73 8.5t-51.5 30t-31 57t-10.5 89.5v139h77z" />
<glyph unicode="&#x448;" d="M55 0v500h74v-430h134v430h74v-430h134v430h74v-500h-490z" />
<glyph unicode="&#x449;" d="M592 -120h-68v120h-456v500h74v-430h120v430h74v-430h120v430h74v-430h62v-190z" />
<glyph unicode="&#x44a;" d="M245 67q46 -6 83 -6q75 0 110 26.5t35 69.5q0 38 -34 65t-107 27q-19 0 -42.5 -1t-44.5 -6v-175zM245 307q27 4 51.5 5.5t47.5 1.5q58 0 98.5 -11.5t65.5 -31.5t36.5 -46.5t11.5 -57.5q0 -91 -61.5 -132t-186.5 -41q-64 0 -140 6v432h-124v68h201v-193z" />
<glyph unicode="&#x44b;" d="M127 70q37 -6 71 -6q63 0 88 24.5t25 69.5q0 40 -24.5 66t-85.5 26q-17 0 -37 -1t-37 -6v-173zM127 309q24 4 46 5.5t42 1.5q51 0 85.5 -11.5t55.5 -31.5t29.5 -47.5t8.5 -58.5q0 -91 -50.5 -132t-163.5 -41q-64 0 -133 6v500h80v-191zM473 500h80v-500h-80v500z" />
<glyph unicode="&#x44c;" d="M189 69q11 -2 26.5 -3t31.5 -2.5t31 -2t24 -0.5q75 0 110 26.5t35 69.5q0 38 -34 65t-107 27q-33 0 -64.5 -1t-52.5 -6v-173zM189 307q27 4 57.5 5.5t70.5 1.5q58 0 98.5 -11.5t66 -31.5t37 -46.5t11.5 -57.5q0 -91 -61.5 -132t-187.5 -41q-16 0 -37.5 1t-44 2.5t-45.5 3 t-42 3.5v496h77v-193z" />
<glyph unicode="&#x44d;" d="M101 475h2q35 18 80 27.5t107 9.5q57 0 103 -18.5t79 -52.5t51 -82.5t18 -108.5q0 -62 -20 -111t-56 -82.5t-84.5 -51t-105.5 -17.5q-26 0 -55 5t-56.5 13.5t-50.5 21t-38 27.5l33 62q29 -21 72 -40t97 -19q32 0 65 9.5t59.5 29.5t43 50.5t16.5 71.5h-237v66h236 q-3 34 -17 63.5t-38.5 51t-59 33.5t-77.5 12q-29 0 -54 -4.5t-45 -12.5v-75h-68v122z" />
<glyph unicode="&#x44e;" d="M387 -12q-50 0 -83.5 16.5t-53.5 47t-29 73.5t-11 96h-81v-221h-80v500h80v-209h82q3 54 14 95t32 69t53.5 42.5t78.5 14.5q51 0 84.5 -18.5t53 -53t27.5 -83t8 -107.5q0 -126 -39.5 -194t-135.5 -68zM288 250q0 -39 3 -74t13 -61t30 -41.5t55 -15.5q28 0 46 11.5 t27.5 35t13 59.5t3.5 86q0 39 -2.5 74t-11.5 61t-27.5 41.5t-49.5 15.5t-50.5 -11.5t-30.5 -35t-15 -60t-4 -85.5z" />
<glyph unicode="&#x44f;" d="M410 195h-120l-126 -195h-100v67h52l91 136q-19 5 -37 16.5t-32.5 29t-23 41t-8.5 52.5q0 45 18 77.5t50 53.5t76 30.5t97 9.5q38 0 72 -5.5t69 -11.5v-496h-78v195zM410 255v178q-14 5 -33 9t-33 4q-76 0 -116 -23.5t-40 -74.5q0 -41 24 -63.5t58 -29.5h140z" />
<glyph unicode="&#x451;" d="M529 63q-18 -16 -42.5 -30t-53.5 -24t-60.5 -15.5t-63.5 -5.5q-60 0 -106 18.5t-77 53t-47 82.5t-16 108q0 63 17.5 112t50.5 82t80 50.5t105 17.5q42 0 83 -11t72.5 -41.5t48.5 -84t12 -138.5h-387q0 -90 48.5 -134.5t129.5 -44.5q27 0 53.5 6.5t50.5 15.5t42.5 20 t28.5 20zM318 446q-33 0 -62.5 -7t-52 -23.5t-37 -43t-18.5 -65.5h311q-5 66 -42.5 102.5t-98.5 36.5zM131 626q0 26 15.5 42.5t41.5 16.5q25 0 41 -16.5t16 -42.5q0 -24 -16 -40.5t-41 -16.5q-26 0 -41.5 16.5t-15.5 40.5zM354 626q0 26 15.5 42.5t40.5 16.5 q26 0 42.5 -16.5t16.5 -42.5q0 -24 -16.5 -40.5t-42.5 -16.5q-25 0 -40.5 16.5t-15.5 40.5z" />
<glyph unicode="&#x452;" d="M59 500h80v200h80v-200h160v-60h-160v-148h4q26 31 62.5 49.5t90.5 18.5q42 0 73 -9.5t51.5 -33.5t30 -64.5t9.5 -102.5v-177q0 -93 -32 -139t-102 -46q-8 0 -15 0.5t-15 1.5v68q28 0 44.5 8.5t25.5 26t11.5 44.5t2.5 63v132q0 39 -4.5 69t-16.5 49.5t-32.5 29.5 t-53.5 10q-47 0 -85 -30.5t-49 -78.5v-181h-80v440h-80v60z" />
<glyph unicode="&#x453;" d="M102 0v67h64v365h-64v68h404v-187h-68v119h-194v-365h152v-67h-294zM319 720h109l-119 -149h-55z" />
<glyph unicode="&#x454;" d="M439 423q-23 8 -49.5 13.5t-52.5 5.5q-98 0 -146 -46q-39 -38 -46 -110h227v-66h-228q4 -27 13 -49q14 -34 40 -58t62.5 -37t80.5 -13q47 0 91.5 16t74.5 42l35 -58q-14 -12 -35 -25t-48.5 -24.5t-61 -18.5t-72.5 -7q-65 0 -114.5 18.5t-82.5 53t-50 83t-17 107.5 q0 63 17.5 112t50.5 82t80 50.5t105 17.5q74 0 120.5 -13t78.5 -29l-1 -3v-139h-72v95z" />
<glyph unicode="&#x455;" d="M438 135q0 32 -25 49.5t-62 28t-80.5 19.5t-80.5 24t-62 40.5t-25 71.5q0 38 16.5 65t43.5 44.5t63 26t75 8.5q70 0 120.5 -17.5t80.5 -36.5l-32 -63q-33 18 -71.5 34.5t-96.5 16.5q-22 0 -43.5 -4.5t-39 -13.5t-28 -23.5t-10.5 -35.5q0 -26 25 -40t62 -23.5t80.5 -18 t80.5 -24.5t62 -43t25 -73q0 -69 -54.5 -114t-163.5 -45q-33 0 -65 6t-60 16t-51 22.5t-38 25.5l40 65q12 -12 32 -24.5t44 -22.5t51.5 -16t55.5 -6q27 0 50.5 4.5t41.5 14t28.5 25t10.5 37.5z" />
<glyph unicode="&#x456;" d="M105 0v67h174v366h-174v67h254v-433h170v-67h-424zM252 642q0 27 18 46.5t46 19.5q29 0 48.5 -19.5t19.5 -46.5q0 -26 -19.5 -44t-48.5 -18q-28 0 -46 18t-18 44z" />
<glyph unicode="&#x457;" d="M105 0v67h174v366h-174v67h254v-433h170v-67h-424zM131 645q0 26 15.5 42.5t41.5 16.5q25 0 41 -16.5t16 -42.5q0 -24 -16 -40.5t-41 -16.5q-26 0 -41.5 16.5t-15.5 40.5zM354 645q0 26 15.5 42.5t40.5 16.5q26 0 42.5 -16.5t16.5 -42.5q0 -24 -16.5 -40.5t-42.5 -16.5 q-25 0 -40.5 16.5t-15.5 40.5z" />
<glyph unicode="&#x458;" d="M336 433h-242v67h322v-512q0 -101 -51.5 -150.5t-142.5 -49.5q-27 0 -52.5 7t-47.5 16.5t-38.5 19.5t-24.5 16l33 65q27 -20 61.5 -35t71.5 -15q60 0 85.5 37.5t25.5 103.5v430zM294 642q0 27 18 46.5t46 19.5q29 0 48.5 -19.5t19.5 -46.5q0 -26 -19.5 -44t-48.5 -18 q-28 0 -46 18t-18 44z" />
<glyph unicode="&#x459;" d="M372 309q17 4 35 5.5t38 1.5q38 0 64.5 -11.5t43 -31.5t24 -47.5t7.5 -58.5q0 -91 -46.5 -132t-127.5 -41q-33 0 -59.5 1.5t-53.5 4.5v430h-98q-2 -39 -5 -86.5t-8 -95.5t-14 -93.5t-24.5 -80.5t-38 -56.5t-55.5 -21.5q-19 0 -28 2t-20 7l12 67q12 -4 23 -4q18 0 32.5 17 t25.5 64.5t19 131.5t11 219h243v-191zM372 69q22 -6 56 -6q43 0 60.5 25t17.5 70q0 40 -15.5 66t-59.5 26q-17 0 -33 -1t-26 -6v-174z" />
<glyph unicode="&#x45a;" d="M345 69q9 -1 26.5 -3t34.5 -2q56 0 79.5 24.5t23.5 69.5q0 40 -23 66t-77 26q-17 0 -36 -2.5t-28 -4.5v-174zM345 309q12 2 35 4.5t43 2.5q48 0 80.5 -11.5t52 -31.5t28 -47.5t8.5 -58.5q0 -91 -48.5 -132t-155.5 -41q-33 0 -67 1.5t-56 4.5v223h-166v-223h-80v500h80 v-207h166v207h80v-191z" />
<glyph unicode="&#x45b;" d="M59 500h80v200h80v-200h160v-60h-160v-148h4q26 31 62.5 49.5t90.5 18.5q42 0 73 -9.5t51.5 -33.5t30 -64.5t9.5 -102.5v-150h-80v132q0 39 -4.5 69t-16.5 49.5t-32.5 29.5t-53.5 10q-47 0 -85 -30.5t-49 -78.5v-181h-80v440h-80v60z" />
<glyph unicode="&#x45c;" d="M241 226h-55v-226h-77v500h77v-214h55l197 214h94l-221 -237l182 -196h65v-67h-103zM300 720h109l-119 -149h-55z" />
<glyph unicode="&#x45e;" d="M311 77h38l124 423h81l-139 -449q-11 -35 -22.5 -79.5t-32.5 -83.5t-57 -66t-94 -27q-13 0 -27.5 3t-28.5 7.5t-26 10.5t-18 12l28 72q6 -5 16.5 -10t23 -8.5t24.5 -6t20 -2.5q75 0 102 127h-67l-210 500h90zM226 702q10 -46 34.5 -64t56.5 -18t57 19t34 62l60 -19 q-9 -58 -51.5 -89t-101.5 -31q-27 0 -53.5 7t-47.5 21t-36 36t-20 52z" />
<glyph unicode="&#x45f;" d="M100 0v500h80v-430h240v430h80v-500h-163v-160h-68v160h-169z" />
<glyph unicode="&#x460;" d="M299 92q-15 -60 -46 -83t-74 -23q-42 0 -69.5 31.5t-43.5 81.5t-22.5 112t-6.5 123q0 87 11.5 157t36 119.5t62 76.5t89.5 27v-74q-20 0 -40 -13t-36 -46.5t-25.5 -92t-9.5 -148.5q0 -86 5.5 -140.5t15 -85.5t21.5 -42.5t25 -11.5q27 0 45.5 33.5t18.5 92.5v193h88v-193 q0 -62 17 -94t43 -32q15 0 28 11t22.5 42t14.5 86t5 142t-10 144.5t-26 92t-35.5 48.5t-38.5 14v74q51 0 88 -26.5t61.5 -76t36.5 -120t12 -157.5q0 -61 -6.5 -123t-23 -112t-43.5 -81.5t-67 -31.5q-20 0 -39 5.5t-35 17.5t-28 32.5t-18 50.5h-3z" />
<glyph unicode="&#x461;" d="M299 71q-13 -45 -42 -65t-71 -20q-44 0 -72.5 19.5t-45 53.5t-23 80.5t-6.5 100.5q0 78 15 131t41.5 85.5t63.5 46.5t81 14v-70q-23 0 -44.5 -8t-38 -30.5t-26 -62t-9.5 -102.5q0 -87 14.5 -137.5t50.5 -50.5q35 0 54 24.5t19 67.5v149h80v-149q0 -45 19 -68.5t52 -23.5 q36 0 51.5 51t15.5 138q0 64 -10 103.5t-26.5 61.5t-37.5 29.5t-43 7.5v70q44 0 80.5 -14.5t63 -47t41.5 -85.5t15 -130q0 -54 -7 -100.5t-24 -80.5t-45 -53.5t-69 -19.5q-37 0 -67 20t-46 65h-4z" />
<glyph unicode="&#x462;" d="M7 620h149v101h83v-101h207v-70h-207v-123q5 1 17 2.5t26 2.5t29 2t27 1q48 0 93.5 -9.5t81 -33t57.5 -64t22 -102.5q0 -60 -21 -104t-58 -73t-86.5 -43t-107.5 -14q-14 0 -34 0.5t-42.5 2t-45 4.5t-41.5 8v543h-149v70zM330 64q36 0 67.5 9.5t55.5 29t37.5 49t13.5 68.5 q0 42 -15 70t-39.5 44t-56.5 22.5t-66 6.5q-9 0 -22 -1l-26 -2t-24 -3t-16 -3v-284q14 -3 40 -4.5t51 -1.5z" />
<glyph unicode="&#x463;" d="M37 500h109v200h80v-200h190v-66h-190v-125q24 4 50 5.5t68 1.5q52 0 88 -11.5t58.5 -31.5t32.5 -47.5t10 -58.5q0 -91 -54.5 -132t-169.5 -41q-17 0 -38 0.5t-43 1t-43.5 1.5t-38.5 3v434h-109v66zM226 70q20 -3 43 -4.5t43 -1.5q75 0 106.5 24.5t31.5 69.5 q0 40 -30.5 66t-99.5 26q-24 0 -50 -1t-44 -6v-173z" />
<glyph unicode="&#x472;" d="M48 350q0 174 61.5 268t189.5 94q70 0 118.5 -26t78.5 -73.5t43 -114t13 -148.5q0 -174 -61.5 -268t-191.5 -94q-69 0 -117 26t-78 73.5t-43 114t-13 148.5zM299 62q81 0 120.5 62.5t43.5 193.5h-327q2 -53 11 -99.5t28 -81t49.5 -55t74.5 -20.5zM299 638 q-78 0 -117.5 -60.5t-44.5 -185.5h326q-3 51 -12.5 95.5t-28.5 78t-49 53t-74 19.5z" />
<glyph unicode="&#x473;" d="M57 250q0 121 63 191.5t180 70.5q63 0 108.5 -20.5t75.5 -55.5t44.5 -83t14.5 -103q0 -60 -16 -108.5t-47 -82.5t-76.5 -52.5t-103.5 -18.5q-62 0 -108 20.5t-76 55.5t-44.5 83t-14.5 103zM300 445q-147 0 -159 -164h318q-3 31 -14 61t-30 52.5t-47.5 36.5t-67.5 14z M300 55q72 0 112 41t47 121h-318q3 -31 14 -60.5t30 -52t47.5 -36t67.5 -13.5z" />
<glyph unicode="&#x474;" d="M295 0h-78l-246 700h90l196 -566h7l98 358q23 78 43.5 121.5t41.5 64t43 25t48 4.5q35 0 55 -5.5t37 -16.5l-24 -70q-20 11 -37.5 14.5t-31.5 3.5q-28 0 -47 -26t-39 -87z" />
<glyph unicode="&#x475;" d="M291 -11h-34l-217 511h92l147 -361h1l72 186q16 43 30 76.5t30.5 57t38 36t51.5 12.5q18 0 32 -2t26 -7l-12 -74q-9 4 -17.5 6.5t-16.5 2.5q-17 0 -34 -15t-37 -62z" />
<glyph unicode="&#x48a;" d="M421 464l6 100h-6l-58 -112l-260 -452h-79v700h83v-470l-5 -99h6l57 112l260 457h79v-630h104l-71 -200h-74l45 130h-87v464zM187 870q4 -37 28 -57t64 -20t63.5 20t28.5 56l71 -17q-11 -54 -50.5 -85.5t-113.5 -31.5q-71 0 -116.5 27.5t-53.5 87.5z" />
<glyph unicode="&#x48b;" d="M437 314l3 66h-3l-281 -380h-71v500h78v-323l-3 -63h4l279 386h72v-433h106l-71 -197h-74l45 130h-84v314zM215 702q10 -46 34.5 -64t56.5 -18t57 19t34 62l60 -19q-9 -58 -51.5 -89t-101.5 -31q-27 0 -53.5 7t-47.5 21t-36 36t-20 52z" />
<glyph unicode="&#x48c;" d="M7 620h149v101h83v-101h207v-70h-207v-123q5 1 17 2.5t26 2.5t29 2t27 1q48 0 93.5 -9.5t81 -33t57.5 -64t22 -102.5q0 -60 -21 -104t-58 -73t-86.5 -43t-107.5 -14q-14 0 -34 0.5t-42.5 2t-45 4.5t-41.5 8v543h-149v70zM330 64q36 0 67.5 9.5t55.5 29t37.5 49t13.5 68.5 q0 42 -15 70t-39.5 44t-56.5 22.5t-66 6.5q-9 0 -22 -1l-26 -2t-24 -3t-16 -3v-284q14 -3 40 -4.5t51 -1.5z" />
<glyph unicode="&#x48d;" d="M37 500h109v200h80v-200h190v-66h-190v-125q24 4 50 5.5t68 1.5q52 0 88 -11.5t58.5 -31.5t32.5 -47.5t10 -58.5q0 -91 -54.5 -132t-169.5 -41q-17 0 -38 0.5t-43 1t-43.5 1.5t-38.5 3v434h-109v66zM226 70q20 -3 43 -4.5t43 -1.5q75 0 106.5 24.5t31.5 69.5 q0 40 -30.5 66t-99.5 26q-24 0 -50 -1t-44 -6v-173z" />
<glyph unicode="&#x48e;" d="M81 693q38 9 82 12t87 3q46 0 93.5 -9t86.5 -33t63.5 -66t24.5 -107q0 -75 -31.5 -123t-81.5 -74l68 -98l-46 -33l-77 110q-48 -13 -104 -13h-16.5t-24 0.5t-24.5 1.5t-17 2v-266h-83v693zM287 462l71 -103q32 17 52 48.5t20 85.5q0 41 -15.5 68.5t-41 44t-57.5 23.5 t-64 7q-26 0 -50 -1t-38 -5v-290q5 -2 16 -2.5t23 -1t23 -0.5h16q17 0 33 1t33 5l-64 93z" />
<glyph unicode="&#x48f;" d="M96 325q0 9 -0.5 23.5t-1.5 30t-2.5 30.5t-3.5 26h-67v65h133l10 -70h5q27 35 68.5 58.5t101.5 23.5q107 0 161 -59t54 -193q0 -63 -18.5 -113.5t-52.5 -85.5q-9 -9 -18 -16l59 -67l-48 -41l-64 74q-6 -2 -11 -4q-48 -19 -106 -19q-21 0 -37.5 1.5t-30 4t-26.5 6.5 t-28 10v-210h-77v525zM326 439q-30 0 -56.5 -11t-47 -29t-33.5 -40t-16 -44v-228q22 -15 49.5 -23.5t72.5 -8.5q38 0 69 12l-61 71l46 41l67 -78q4 3 7 6q48 53 48 154q0 85 -33.5 131.5t-111.5 46.5z" />
<glyph unicode="&#x490;" d="M70 700h406v120h74v-194h-301v-552h167v-74h-346v74h96v552h-96v74z" />
<glyph unicode="&#x491;" d="M102 0v67h64v365h-64v68h336v120h68v-188h-262v-365h152v-67h-294z" />
<glyph unicode="&#x492;" d="M535 626h-292v-241h215v-66h-215v-319h-83v319h-96v66h96v315h375v-74z" />
<glyph unicode="&#x493;" d="M511 430h-292v-151h249v-60h-249v-219h-80v219h-90v60h90v221h372v-70z" />
<glyph unicode="&#x494;" d="M165 0h-83v700h375v-74h-292v-271q12 4 47.5 12.5t90.5 8.5q40 0 78.5 -11t69 -38t49 -73.5t18.5 -117.5q0 -137 -60.5 -200.5t-172.5 -63.5q-33 0 -47.5 0.5t-22.5 2.5v74q13 -2 28.5 -2.5t44.5 -0.5q142 0 142 183q0 51 -12 84.5t-32.5 54t-48 28.5t-59.5 8 q-18 0 -35.5 -2.5t-33 -6t-27 -7.5t-17.5 -6v-282z" />
<glyph unicode="&#x495;" d="M178 0h-80v500h381v-70h-301v-178l16.5 5.5t28.5 7t45 6t65 2.5q40 0 77.5 -11.5t66.5 -38t46.5 -70t17.5 -108.5q0 -131 -52.5 -192.5t-164.5 -61.5q-33 0 -47.5 0.5t-22.5 2.5v70q13 -2 28.5 -2.5t44.5 -0.5q70 0 102 45.5t32 128.5q0 45 -12 76.5t-32 52t-47.5 30 t-58.5 9.5q-58 0 -90 -8t-43 -13v-182z" />
<glyph unicode="&#x496;" d="M259 700h80v-314h50l110 314h82l-121 -342l111 -284h48v-194h-70v120h-41l-117 324h-52v-324h-80v324h-55l-118 -324h-86l131 353l-113 347h87l95 -314h59v314z" />
<glyph unicode="&#x497;" d="M199 224l-107 -224h-86l128 256l-115 244h87l91 -216h63v216h78v-216h54l106 216h82l-118 -232l99 -201h51v-187h-68v120h-39l-107 224h-60v-224h-78v224h-61z" />
<glyph unicode="&#x498;" d="M80 183h74v-105q24 -8 54 -14t65 -6q76 0 122.5 36t46.5 108q0 63 -43 93.5t-114 35.5h-60v70h69q26 3 49 13.5t40.5 26.5t27.5 37t10 45q0 33 -11.5 55.5t-31.5 36.5t-48 20.5t-62 6.5q-29 0 -57 -4t-51 -10v-99h-74v149q10 6 29 12t45 11t57 8t65 3q45 0 86 -8.5 t72.5 -28t50 -53t18.5 -82.5q0 -50 -32.5 -95.5t-98.5 -65.5v-4q71 -10 111.5 -53t40.5 -115q0 -57 -22 -98.5t-58.5 -68.5t-82.5 -40q-25 -6 -51 -9v-151h-70v149q-52 2 -90 11q-48 13 -76 24v159z" />
<glyph unicode="&#x499;" d="M107 453l-1 3q17 10 36.5 19.5t44 17t55.5 12.5t71 5q41 0 76 -8.5t61 -24.5t40.5 -39.5t14.5 -53.5q0 -16 -6.5 -33.5t-19.5 -33.5t-31 -29t-41 -20v-4q66 -11 92.5 -42t26.5 -82q0 -32 -15 -59t-44.5 -47t-73.5 -32q-25 -6 -56 -9v-153h-68v152q-30 1 -55 7 q-35 8 -61.5 20t-45 26t-28.5 26l40 63q11 -12 27 -25.5t39.5 -24.5t54 -18.5t70.5 -7.5q28 0 52.5 5.5t43 16t29.5 27t11 38.5q0 38 -34.5 58t-113.5 20h-57v65h71q20 0 40 6.5t36 17t26 25t10 30.5q0 20 -10 34.5t-27.5 23.5t-41 13.5t-49.5 4.5q-40 0 -70 -7.5t-51 -18.5 v-83h-68v119z" />
<glyph unicode="&#x49a;" d="M245 324h-77v-324h-83v700h83v-312h75l225 312h96l-247 -333l222 -293h61v-194h-70v120h-40z" />
<glyph unicode="&#x49b;" d="M221 226h-55v-226h-77v500h77v-214h55l197 214h94l-221 -237l182 -196h67v-187h-68v120h-37z" />
<glyph unicode="&#x49c;" d="M184 324h-54v-324h-83v700h83v-312h54v117h66v-117h25l195 312h96l-217 -333l238 -367h-105l-205 324h-27v-129h-66v129z" />
<glyph unicode="&#x49d;" d="M465 0l-164 226h-36v-128h-63v128h-51v-226h-77v500h77v-214h51v116h63v-116h36l147 214h84l-161 -237l138 -196h49v-67h-93z" />
<glyph unicode="&#x49e;" d="M0 636h115v64h83v-64h119v-66h-119v-182h45l225 312h96l-247 -333l278 -367h-105l-245 324h-47v-324h-83v570h-115v66z" />
<glyph unicode="&#x49f;" d="M25 560h84v73h-85v67h162v-140h159v-60h-159v-214h55l197 214h94l-221 -237l182 -196h65v-67h-103l-214 226h-55v-226h-77v500h-84v60z" />
<glyph unicode="&#x4a0;" d="M246 324h-27v-324h-83v626h-131v74h214v-312h25l225 312h96l-247 -333l278 -367h-105z" />
<glyph unicode="&#x4a1;" d="M261 226h-55v-226h-77v430h-110v70h187v-214h55l197 214h94l-221 -237l182 -196h65v-67h-103z" />
<glyph unicode="&#x4a2;" d="M412 321h-266v-321h-83v700h83v-305h266v305h83v-626h92v-194h-70v120h-105v321z" />
<glyph unicode="&#x4a3;" d="M426 221h-276v-221h-80v500h80v-209h276v209h80v-433h73v-187h-68l-1 120h-84v221z" />
<glyph unicode="&#x4a4;" d="M597 626h-192v-626h-83v321h-236v-321h-83v700h83v-305h236v305h275v-74z" />
<glyph unicode="&#x4a5;" d="M579 430h-172v-430h-80v221h-226v-221h-80v500h80v-209h226v209h252v-70z" />
<glyph unicode="&#x4a6;" d="M358 0h-83v626h-173v-626h-83v700h339v-335q11 4 28.5 7.5t49.5 3.5q33 0 60.5 -11t47.5 -38t31 -73.5t11 -117.5q0 -137 -49 -200.5t-139 -63.5q-35 0 -50 3v74q13 -2 26 -2.5t27 -0.5q48 0 75.5 45.5t27.5 137.5q0 51 -5.5 84.5t-16.5 54t-28.5 28.5t-41.5 8 q-14 0 -28.5 -3.5t-25.5 -8.5v-292z" />
<glyph unicode="&#x4a7;" d="M350 0h-80v430h-161v-430h-80v500h321v-240q11 5 27.5 9t46.5 4q36 0 65 -11.5t50 -38t32 -70t11 -108.5q0 -131 -48 -192.5t-146 -61.5q-37 0 -52 3v70q13 -2 26 -2.5t29 -0.5q57 0 84 45.5t27 128.5q0 90 -24 129t-72 39q-16 0 -30.5 -4t-25.5 -9v-190z" />
<glyph unicode="&#x4a8;" d="M252 638q-71 0 -110 -70.5t-39 -216.5q0 -145 46.5 -218.5t123.5 -74.5q11 0 24.5 1t23.5 5q-32 19 -57 51t-42.5 71.5t-27 84.5t-9.5 91q0 156 51.5 237.5t149.5 80.5q99 -1 147 -75t48 -207q0 -124 -29 -207t-80 -128q5 -1 16.5 -2.5t16.5 -1.5q14 1 32.5 2t37.5 15 l25 -65q-19 -15 -38 -18.5t-45 -4.5q-32 -1 -64 7.5t-54 22.5q-26 -15 -58.5 -22.5t-67.5 -7.5q-67 0 -115.5 26t-80 73t-47 114t-15.5 149q0 175 60 268.5t177 93.5v-74zM273 354q0 -35 7.5 -73t23 -74t40 -66.5t58.5 -49.5q45 42 68 113.5t23 187.5q0 45 -5.5 84t-17.5 68 t-32 45.5t-48 16.5q-57 0 -87 -59.5t-30 -192.5z" />
<glyph unicode="&#x4a9;" d="M229 442q-69 -1 -103 -47.5t-34 -143.5q0 -39 9.5 -74t29.5 -61.5t49.5 -42t70.5 -15.5q11 0 25.5 2t24.5 8q-36 22 -61 72t-25 113q0 44 8.5 88t29 79.5t55.5 57.5t88 22q46 0 78.5 -17t53 -46t30 -68t9.5 -84q0 -40 -10 -76t-26.5 -65.5t-38 -51t-43.5 -31.5 q15 -7 38 -7q20 0 41 7.5t38 25.5l25 -60q-18 -17 -48.5 -28t-66.5 -11q-28 0 -56.5 9t-46.5 27q-30 -21 -66 -28.5t-68 -7.5q-55 0 -98 18.5t-72 53t-44.5 83t-15.5 107.5q0 125 55.5 193t164.5 69v-70zM298 256q0 -57 22.5 -104.5t60.5 -73.5q21 10 39.5 29.5t32.5 46.5 t22.5 60t8.5 71q0 27 -5.5 53t-16.5 46.5t-27.5 33t-39.5 12.5q-30 0 -49 -15t-29.5 -40t-14.5 -56t-4 -63z" />
<glyph unicode="&#x4aa;" d="M458 624q-17 7 -37.5 10.5t-49.5 3.5q-41 0 -80.5 -15t-70 -49t-49 -89t-18.5 -135q0 -72 16.5 -126t46 -90t71 -54t92.5 -18q26 0 48.5 4.5t41.5 12.5v100h74v-135l1 -2q-30 -23 -76 -39q-35 -11 -82 -14v-149h-70v150q-41 5 -77 19q-53 22 -92 66t-60.5 112.5 t-21.5 162.5q0 98 24 166.5t65 112t95.5 63.5t116.5 20q34 0 59 -2.5t44 -7t33.5 -11.5t28.5 -16h1v-158h-74v107z" />
<glyph unicode="&#x4ab;" d="M439 423q-23 8 -49.5 13.5t-52.5 5.5q-98 0 -146 -46t-48 -146q0 -44 14 -78.5t40 -58.5t62.5 -37t80.5 -13q47 0 91.5 16t74.5 42l35 -58q-14 -12 -35 -25t-48.5 -24.5t-61.5 -18.5q-23 -5 -49 -6v-149h-68v151q-38 4 -70 15q-49 19 -82 53.5t-50 83t-17 107.5 q0 63 17.5 112t50.5 82t80 50.5t105 17.5q74 0 120.5 -13t78.5 -29l-1 -3v-139h-72v95z" />
<glyph unicode="&#x4ac;" d="M40 700h520v-183h-74v109h-145v-552h92v-194h-70v120h-105v626h-144v-109h-74v183z" />
<glyph unicode="&#x4ad;" d="M52 500h496v-187h-68v119h-141v-365h141v-187h-68v120h-276v67h125v365h-141v-119h-68v187z" />
<glyph unicode="&#x4ae;" d="M259 268l-250 432h97l200 -346h1l195 346h89l-249 -431v-269h-83v268z" />
<glyph unicode="&#x4af;" d="M302 97h11l157 403h87l-215 -507v-193h-80v192l-219 508h92z" />
<glyph unicode="&#x4b0;" d="M109 285h140l-240 415h97l200 -346h1l195 346h89l-240 -415h141v-62h-150v-223h-83v223h-150v62z" />
<glyph unicode="&#x4b1;" d="M142 0h116l-215 500h92l167 -403h11l157 403h87l-212 -500h117v-60h-120v-140h-80v140h-120v60z" />
<glyph unicode="&#x4b2;" d="M251 356l-211 344h100l140 -237l25 -47l24 47l149 237h92l-219 -337l182 -289h62v-194h-70v120h-42l-157 251l-27 50l-26 -50l-160 -251h-93z" />
<glyph unicode="&#x4b3;" d="M253 256l-193 244h100l144 -188l148 188h90l-193 -240l152 -193h73v-187h-68v120h-48l-159 205l-162 -205h-91z" />
<glyph unicode="&#x4b4;" d="M0 700h378v-74h-146v-552h202v626h83v-626h83v-215h-70v141h-381v626h-149v74z" />
<glyph unicode="&#x4b5;" d="M593 -127h-68v127h-371v430h-147v70h367v-70h-140v-360h207v430h80v-430h72v-197z" />
<glyph unicode="&#x4b6;" d="M115 700v-232q0 -137 124 -137q47 0 88 12.5t67 33.5v323h83v-626h91v-194h-70v120h-104v302q-27 -15 -71 -30t-101 -15q-42 0 -77 9.5t-60 32t-39 60.5t-14 94v247h83z" />
<glyph unicode="&#x4b7;" d="M167 500v-133q0 -27 3.5 -50t14.5 -39.5t31 -25.5t53 -9q54 0 89 11.5t52 24.5v221h78v-433h81v-187h-68v120h-91v212q-18 -11 -54.5 -23.5t-99.5 -12.5q-42 0 -73 8.5t-51.5 30t-31 57t-10.5 89.5v139h77z" />
<glyph unicode="&#x4b8;" d="M269 257q-45 0 -81.5 9.5t-62 32t-39 60.5t-13.5 94v247h83v-232q0 -131 113 -137v124h66v-120q32 5 60 16t48 26v323h83v-700h-83v302q-19 -11 -46.5 -21t-61.5 -17v-119h-66v112z" />
<glyph unicode="&#x4b9;" d="M167 500v-133q0 -27 3.5 -50t14.5 -39.5t31 -25.5q17 -8 44 -9v130h63v-127q19 3 35 8q35 12 52 25v221h78v-500h-78v212q-18 -11 -55 -24q-14 -5 -32 -8v-112h-63v108h-4q-42 0 -73 8.5t-51.5 30t-31 57t-10.5 89.5v139h77z" />
<glyph unicode="&#x4ba;" d="M440 0v232q0 137 -124 137q-48 0 -89 -12.5t-67 -33.5v-323h-83v700h83v-302q27 15 71.5 30t100.5 15q42 0 77.5 -9.5t60.5 -32t39 -60.5t14 -94v-247h-83z" />
<glyph unicode="&#x4bb;" d="M4 700h156v-262h5q31 35 72 54.5t102 19.5q48 0 83.5 -10t58 -35t33.5 -68.5t11 -110.5v-288h-78v273q0 43 -5 75t-19.5 53.5t-39.5 32.5t-64 11q-27 0 -53 -9.5t-47.5 -26t-37 -40t-21.5 -51.5v-318h-77v633h-79v67z" />
<glyph unicode="&#x4bc;" d="M237 318q4 -65 14 -113.5t29.5 -80t50 -47t77.5 -15.5q45 0 79.5 17t57.5 39l37 -57q-28 -30 -73 -51.5t-107 -21.5q-117 0 -179.5 78.5t-69.5 251.5h-17q-67 0 -97.5 34.5t-30.5 88.5q0 22 7.5 43t20.5 34h78q-16 -13 -24.5 -33t-8.5 -35q0 -12 2.5 -23.5t9 -21 t17.5 -15t28 -4.5l15 1q7 156 63.5 240.5t161.5 84.5q58 0 97.5 -19.5t62.5 -56t33 -90t10 -121.5q0 -50 -9 -107h-335zM494 388q2 14 3 27t1 26q0 40 -3.5 76t-15.5 64t-36 44.5t-64 16.5q-70 0 -104 -67t-39 -187h258z" />
<glyph unicode="&#x4bd;" d="M560 40q-30 -24 -75.5 -38t-96.5 -14q-56 0 -97.5 18t-68.5 51t-40.5 79.5t-14.5 104.5h-12q-36 0 -62 9.5t-43 25.5t-25 38t-8 47q0 30 10 51t31 42h78q-20 -14 -33.5 -35t-13.5 -53q0 -11 3.5 -21.5t11.5 -19t21.5 -14t33.5 -5.5q7 0 11 1q12 100 67.5 152.5 t149.5 52.5q34 0 68 -7.5t61 -28.5t44 -59.5t17 -101.5q0 -33 -6 -73h-321q0 -44 9 -78t28 -57.5t49.5 -36t74.5 -12.5q34 0 68 11.5t51 27.5zM388 442q-59 0 -94.5 -31t-42.5 -106h248q0 76 -29 106.5t-82 30.5z" />
<glyph unicode="&#x4be;" d="M237 318q4 -65 14 -113.5t29.5 -80t50 -47t77.5 -15.5q45 0 79.5 17t57.5 39l37 -57q-26 -27 -64.5 -47t-91.5 -25v-149h-70v151q-96 14 -146.5 92.5t-56.5 234.5h-17q-67 0 -97.5 34.5t-30.5 88.5q0 22 7.5 43t20.5 34h78q-16 -13 -24.5 -33t-8.5 -35q0 -12 2.5 -23.5 t9 -21t17.5 -15t28 -4.5l15 1q7 156 63.5 240.5t161.5 84.5q58 0 97.5 -19.5t62.5 -56t33 -90t10 -121.5q0 -50 -9 -107h-335zM494 388q2 14 3 27t1 26q0 40 -3.5 76t-15.5 64t-36 44.5t-64 16.5q-70 0 -104 -67t-39 -187h258z" />
<glyph unicode="&#x4bf;" d="M560 40q-26 -21 -63 -33.5t-80 -16.5v-150h-68v151q-92 11 -136.5 78t-45.5 172h-12q-36 0 -62 9.5t-43 25.5t-25 38t-8 47q0 30 10 51t31 42h78q-20 -14 -33.5 -35t-13.5 -53q0 -11 3.5 -21.5t11.5 -19t21.5 -14t33.5 -5.5q7 0 11 1q12 100 67.5 152.5t149.5 52.5 q34 0 68 -7.5t61 -28.5t44 -59.5t17 -101.5q0 -33 -6 -73h-321q0 -44 9 -78t28 -57.5t49.5 -36t74.5 -12.5q34 0 68 11.5t51 27.5zM388 442q-59 0 -94.5 -31t-42.5 -106h248q0 76 -29 106.5t-82 30.5z" />
<glyph unicode="&#x4c0;" d="M60 700h480v-74h-199v-552h199v-74h-480v74h198v552h-198v74z" />
<glyph unicode="&#x4c3;" d="M456 71q0 136 -55.5 194.5t-170.5 58.5h-62v-324h-83v700h83v-312h75l225 312h96l-241 -325q216 -21 216 -301v-18q0 -72 -13.5 -123t-39 -83t-61.5 -46.5t-81 -14.5h-13.5t-14.5 1v73q40 0 66.5 11t43 35.5t23.5 64t7 97.5z" />
<glyph unicode="&#x4c4;" d="M448 16q0 105 -56.5 153t-161.5 47h-44v-216h-77v500h77v-224h55l197 224h94l-211 -235q67 -5 107.5 -29t62.5 -58.5t29.5 -75t7.5 -77.5q0 -65 -16 -110t-45 -74t-68.5 -42t-87.5 -13h-26.5t-27.5 2v69q5 -1 19 -1h19q38 0 66.5 8t48 26.5t29 49t9.5 76.5z" />
<glyph unicode="&#x4c5;" d="M441 626h-189q-10 -200 -26.5 -332.5t-49.5 -206.5q-22 -48 -52 -70t-65 -22q-18 0 -31 2.5t-25 7.5l11 72q10 -3 21 -3q17 0 33.5 11t32.5 41q14 27 26.5 72t22 114t15.5 164.5t9 223.5h350v-630h93l-71 -200h-74l45 130h-76v626z" />
<glyph unicode="&#x4c6;" d="M406 432h-173q-4 -91 -10 -170.5t-22.5 -138.5t-47 -93t-82.5 -34q-20 0 -29 2t-22 7l13 74q19 -5 35.5 -5t29.5 12t23.5 38.5t18 75t12.5 122t8 178.5h324v-433h106l-71 -197h-74l45 130h-84v432z" />
<glyph unicode="&#x4c7;" d="M531 -27q0 -93 -31.5 -139t-101.5 -46h-15.5t-15.5 2v70q28 0 44.5 8t24.5 25.5t10 44t2 62.5v321h-296v-321h-83v700h83v-305h296v305h83v-727z" />
<glyph unicode="&#x4c8;" d="M438 221h-276v-221h-80v500h80v-209h276v209h80v-527q0 -93 -32 -139t-102 -46q-8 0 -15 0.5t-15 1.5v68q28 0 44.5 8.5t25.5 26t11.5 44.5t2.5 63v221z" />
<glyph unicode="&#x4c9;" d="M416 321h-276v-321h-83v700h83v-305h276v305h83v-630h104l-71 -200h-74l45 130h-87v321z" />
<glyph unicode="&#x4ca;" d="M414 222h-269v-222h-77v500h77v-208h269v208h78v-433h105l-71 -197h-74l45 130h-83v222z" />
<glyph unicode="&#x4cb;" d="M160 700v-232q0 -137 124 -137q47 0 88 12.5t67 33.5v323h83v-700h-105v-120h-70v194h92v228q-27 -15 -71 -30t-101 -15q-42 0 -77 9.5t-60 32t-39 60.5t-14 94v247h83z" />
<glyph unicode="&#x4cc;" d="M167 500v-133q0 -27 3.5 -50t14.5 -39.5t31 -25.5t53 -9q54 0 89 11.5t52 24.5v221h78v-500h-95v-120h-68v184h85v148q-18 -11 -54.5 -23.5t-99.5 -12.5q-42 0 -73 8.5t-51.5 30t-31 57t-10.5 89.5v139h77z" />
<glyph unicode="&#x4cd;" d="M437 465l10 95h-5l-48 -86l-102 -171h-25l-107 172l-46 85h-5l12 -94v-466h-81v700h77l166 -266h2l160 266h75v-630h104l-71 -200h-74l45 130h-87v465z" />
<glyph unicode="&#x4ce;" d="M458 297l2 71h-5l-144 -229h-28l-146 229h-4l5 -70v-298h-74v500h79l159 -251h2l152 251h80v-433h105l-71 -197h-74l45 130h-83v297z" />
<glyph unicode="&#x4cf;" d="M120 700h220v-633h138v-67h-218v633h-140v67z" />
<glyph unicode="&#x4d0;" d="M431 194h-269l-64 -194h-82l234 700h98l236 -700h-87zM188 266h220l-103 329h-12zM209 870q4 -37 28 -57t64 -20t63.5 20t28.5 56l71 -17q-11 -54 -50.5 -85.5t-113.5 -31.5q-71 0 -116.5 27.5t-53.5 87.5z" />
<glyph unicode="&#x4d1;" d="M108 461q43 25 97 36t106 11q51 0 83.5 -16t51 -41.5t25 -58t6.5 -65.5q0 -38 -2 -81t-3 -86q0 -50 6 -95h67v-65h-133l-9 75h-5q-6 -9 -18 -23t-31.5 -27.5t-47.5 -23.5t-66 -10q-74 0 -117 38t-43 104q0 51 22.5 85t64.5 52t101.5 21t133.5 -8q5 46 1.5 76.5t-16 48.5 t-35 25.5t-55.5 7.5q-45 0 -86 -12.5t-73 -25.5zM255 58q28 0 52 9t42 23t30 30.5t18 31.5v70q-52 9 -96 9t-76 -9.5t-50 -29.5t-18 -52q0 -33 22.5 -57.5t75.5 -24.5zM221 702q10 -46 34.5 -64t56.5 -18t57 19t34 62l60 -19q-9 -58 -51.5 -89t-101.5 -31q-27 0 -53.5 7 t-47.5 21t-36 36t-20 52z" />
<glyph unicode="&#x4d2;" d="M431 194h-269l-64 -194h-82l234 700h98l236 -700h-87zM188 266h220l-103 329h-12zM125 800q0 23 17.5 37.5t45.5 14.5q26 0 43.5 -14.5t17.5 -37.5t-17.5 -37t-43.5 -14q-28 0 -45.5 14t-17.5 37zM350 800q0 23 17 37.5t43 14.5q29 0 46 -14.5t17 -37.5t-17 -37t-46 -14 q-26 0 -43 14t-17 37z" />
<glyph unicode="&#x4d3;" d="M108 461q43 25 97 36t106 11q51 0 83.5 -16t51 -41.5t25 -58t6.5 -65.5q0 -38 -2 -81t-3 -86q0 -50 6 -95h67v-65h-133l-9 75h-5q-6 -9 -18 -23t-31.5 -27.5t-47.5 -23.5t-66 -10q-74 0 -117 38t-43 104q0 51 22.5 85t64.5 52t101.5 21t133.5 -8q5 46 1.5 76.5t-16 48.5 t-35 25.5t-55.5 7.5q-45 0 -86 -12.5t-73 -25.5zM255 58q28 0 52 9t42 23t30 30.5t18 31.5v70q-52 9 -96 9t-76 -9.5t-50 -29.5t-18 -52q0 -33 22.5 -57.5t75.5 -24.5zM139 626q0 26 15.5 42.5t41.5 16.5q25 0 41 -16.5t16 -42.5q0 -24 -16 -40.5t-41 -16.5 q-26 0 -41.5 16.5t-15.5 40.5zM362 626q0 26 15.5 42.5t40.5 16.5q26 0 42.5 -16.5t16.5 -42.5q0 -24 -16.5 -40.5t-42.5 -16.5q-25 0 -40.5 16.5t-15.5 40.5z" />
<glyph unicode="&#x4d4;" d="M304 552l-21 -66l-82 -223h105v289h-2zM306 191h-130l-73 -191h-83l274 700h272v-75h-180v-228h163v-75h-163v-247h183v-75h-263v191z" />
<glyph unicode="&#x4d5;" d="M175 59q32 0 55.5 17.5t30.5 43.5v105q-3 0 -11 0.5t-16.5 1t-16.5 0.5h-11q-20 0 -39 -2.5t-33 -11t-22.5 -25t-8.5 -43.5q0 -35 17 -60.5t55 -25.5zM283 65q-17 -35 -49 -54t-83 -19q-54 0 -88 40t-34 106q0 43 12 72.5t34 47.5t51.5 25.5t65.5 7.5h13.5t20 -0.5t20 -1 t14.5 -0.5q1 14 1.5 27t0.5 24q0 29 -8 48.5t-20.5 31t-29 16.5t-34.5 5q-23 0 -50 -9.5t-46 -24.5l-19 58q25 22 59.5 32.5t71.5 10.5q17 0 35.5 -4t35.5 -12t30 -19.5t18 -27.5q9 18 23.5 30.5t31.5 21t35 12t33 3.5q23 0 48.5 -7.5t46.5 -28.5t34.5 -57t13.5 -93 q0 -20 -1 -47t-4 -50h-241q1 -96 33 -135t85 -39q12 0 25 2.5t25.5 6t22.5 8.5t15 10l24 -56q-20 -17 -55.5 -27.5t-73.5 -10.5q-20 0 -41.5 5t-40.5 14.5t-34 24t-23 33.5h-4zM428 445q-18 0 -35.5 -9t-31.5 -28t-23.5 -47t-10.5 -67h175v18q0 67 -22.5 100t-51.5 33z" />
<glyph unicode="&#x4d6;" d="M107 700h411v-74h-328v-229h303v-74h-303v-249h333v-74h-416v700zM208 870q4 -37 28 -57t64 -20t63.5 20t28.5 56l71 -17q-11 -54 -50.5 -85.5t-113.5 -31.5q-71 0 -116.5 27.5t-53.5 87.5z" />
<glyph unicode="&#x4d7;" d="M529 63q-18 -16 -42.5 -30t-53.5 -24t-60.5 -15.5t-63.5 -5.5q-60 0 -106 18.5t-77 53t-47 82.5t-16 108q0 63 17.5 112t50.5 82t80 50.5t105 17.5q42 0 83 -11t72.5 -41.5t48.5 -84t12 -138.5h-387q0 -90 48.5 -134.5t129.5 -44.5q27 0 53.5 6.5t50.5 15.5t42.5 20 t28.5 20zM318 446q-33 0 -62.5 -7t-52 -23.5t-37 -43t-18.5 -65.5h311q-5 66 -42.5 102.5t-98.5 36.5zM222 702q10 -46 34.5 -64t56.5 -18t57 19t34 62l60 -19q-9 -58 -51.5 -89t-101.5 -31q-27 0 -53.5 7t-47.5 21t-36 36t-20 52z" />
<glyph unicode="&#x4d8;" d="M142 322q-2 -14 -3 -26.5t-1 -26.5q0 -41 9 -79t27.5 -67t47 -47t67.5 -18q83 0 122.5 66.5t40.5 197.5h-310zM452 392q-9 127 -50.5 186.5t-134.5 59.5q-23 0 -46 -4t-43.5 -10t-37.5 -13t-28 -14l-21 67q30 18 80 33t112 15q60 0 106.5 -20.5t79 -64t49.5 -112.5 t17 -165q0 -174 -61.5 -268t-185.5 -94q-54 0 -97.5 20.5t-73.5 58t-46 91.5t-16 121q0 26 2.5 54.5t7.5 58.5h387z" />
<glyph unicode="&#x4d9;" d="M78 442q40 32 94.5 51t118.5 19q60 0 106 -18.5t77 -53t47 -82.5t16 -108q0 -63 -17.5 -112t-50.5 -82t-80 -50.5t-105 -17.5q-42 0 -84.5 15t-75 50t-49.5 91t-7 139h387q-4 70 -50.5 114.5t-127.5 44.5q-27 0 -52.5 -6.5t-47 -15.5t-39 -20t-27.5 -20zM302 54 q26 0 52.5 9.5t48 29t35.5 49.5t14 71h-307q0 -34 10.5 -63t30.5 -50.5t49 -33.5t67 -12z" />
<glyph unicode="&#x4da;" d="M142 322q-2 -14 -3 -26.5t-1 -26.5q0 -41 9 -79t27.5 -67t47 -47t67.5 -18q83 0 122.5 66.5t40.5 197.5h-310zM452 392q-9 127 -50.5 186.5t-134.5 59.5q-23 0 -46 -4t-43.5 -10t-37.5 -13t-28 -14l-21 67q30 18 80 33t112 15q60 0 106.5 -20.5t79 -64t49.5 -112.5 t17 -165q0 -174 -61.5 -268t-185.5 -94q-54 0 -97.5 20.5t-73.5 58t-46 91.5t-16 121q0 26 2.5 54.5t7.5 58.5h387zM109 800q0 23 17.5 37.5t45.5 14.5q26 0 43.5 -14.5t17.5 -37.5t-17.5 -37t-43.5 -14q-28 0 -45.5 14t-17.5 37zM334 800q0 23 17 37.5t43 14.5 q29 0 46 -14.5t17 -37.5t-17 -37t-46 -14q-26 0 -43 14t-17 37z" />
<glyph unicode="&#x4db;" d="M78 442q40 32 94.5 51t118.5 19q60 0 106 -18.5t77 -53t47 -82.5t16 -108q0 -63 -17.5 -112t-50.5 -82t-80 -50.5t-105 -17.5q-42 0 -84.5 15t-75 50t-49.5 91t-7 139h387q-4 70 -50.5 114.5t-127.5 44.5q-27 0 -52.5 -6.5t-47 -15.5t-39 -20t-27.5 -20zM302 54 q26 0 52.5 9.5t48 29t35.5 49.5t14 71h-307q0 -34 10.5 -63t30.5 -50.5t49 -33.5t67 -12zM124 626q0 26 15.5 42.5t41.5 16.5q25 0 41 -16.5t16 -42.5q0 -24 -16 -40.5t-41 -16.5q-26 0 -41.5 16.5t-15.5 40.5zM347 626q0 26 15.5 42.5t40.5 16.5q26 0 42.5 -16.5 t16.5 -42.5q0 -24 -16.5 -40.5t-42.5 -16.5q-25 0 -40.5 16.5t-15.5 40.5z" />
<glyph unicode="&#x4dc;" d="M259 700h80v-314h50l110 314h82l-121 -342l140 -358h-92l-117 324h-52v-324h-80v324h-55l-118 -324h-86l131 353l-113 347h87l95 -314h59v314zM123 800q0 23 17.5 37.5t45.5 14.5q26 0 43.5 -14.5t17.5 -37.5t-17.5 -37t-43.5 -14q-28 0 -45.5 14t-17.5 37zM348 800 q0 23 17 37.5t43 14.5q29 0 46 -14.5t17 -37.5t-17 -37t-46 -14q-26 0 -43 14t-17 37z" />
<glyph unicode="&#x4dd;" d="M199 224l-107 -224h-86l128 256l-115 244h87l91 -216h63v216h78v-216h54l106 216h82l-118 -232l132 -268h-89l-107 224h-60v-224h-78v224h-61zM125 626q0 26 15.5 42.5t41.5 16.5q25 0 41 -16.5t16 -42.5q0 -24 -16 -40.5t-41 -16.5q-26 0 -41.5 16.5t-15.5 40.5z M348 626q0 26 15.5 42.5t40.5 16.5q26 0 42.5 -16.5t16.5 -42.5q0 -24 -16.5 -40.5t-42.5 -16.5q-25 0 -40.5 16.5t-15.5 40.5z" />
<glyph unicode="&#x4de;" d="M80 183h74v-105q24 -8 54 -14t65 -6q76 0 122.5 36t46.5 108q0 63 -43 93.5t-114 35.5h-60v70h69q26 3 49 13.5t40.5 26.5t27.5 37t10 45q0 33 -11.5 55.5t-31.5 36.5t-48 20.5t-62 6.5q-29 0 -57 -4t-51 -10v-99h-74v148v1q10 6 29 12t45 11t57 8t65 3q45 0 86 -8.5 t72.5 -28t50 -53t18.5 -82.5q0 -50 -32.5 -95.5t-98.5 -65.5v-4q71 -10 111.5 -53t40.5 -115q0 -57 -22 -98.5t-58.5 -68.5t-82.5 -39.5t-94 -12.5q-69 0 -117 12.5t-76 23.5v1v158zM125 800q0 23 17.5 37.5t45.5 14.5q26 0 43.5 -14.5t17.5 -37.5t-17.5 -37t-43.5 -14 q-28 0 -45.5 14t-17.5 37zM350 800q0 23 17 37.5t43 14.5q29 0 46 -14.5t17 -37.5t-17 -37t-46 -14q-26 0 -43 14t-17 37z" />
<glyph unicode="&#x4df;" d="M107 453l-1 3q17 10 36.5 19.5t44 17t55.5 12.5t71 5q41 0 76 -8.5t61 -24.5t40.5 -39.5t14.5 -53.5q0 -16 -6.5 -33.5t-19.5 -33.5t-31 -29t-41 -20v-4q66 -11 92.5 -42t26.5 -82q0 -32 -15 -59t-44.5 -47t-73 -31.5t-101.5 -11.5q-43 0 -78 8t-61.5 20t-45 26t-28.5 26 l40 63q11 -12 27 -25.5t39.5 -24.5t54 -18.5t70.5 -7.5q28 0 52.5 5.5t43 16t29.5 27t11 38.5q0 38 -34.5 58t-113.5 20h-57v65h71q20 0 40 6.5t36 17t26 25t10 30.5q0 20 -10 34.5t-27.5 23.5t-41 13.5t-49.5 4.5q-40 0 -70 -7.5t-51 -18.5v-83h-68v119zM120 626 q0 26 15.5 42.5t41.5 16.5q25 0 41 -16.5t16 -42.5q0 -24 -16 -40.5t-41 -16.5q-26 0 -41.5 16.5t-15.5 40.5zM343 626q0 26 15.5 42.5t40.5 16.5q26 0 42.5 -16.5t16.5 -42.5q0 -24 -16.5 -40.5t-42.5 -16.5q-25 0 -40.5 16.5t-15.5 40.5z" />
<glyph unicode="&#x4e0;" d="M67 700h445v-53l-191 -240h10q50 0 92 -13.5t72 -38.5t46.5 -61t16.5 -81q0 -54 -20.5 -95.5t-56.5 -70.5t-85 -44t-107 -15q-82 0 -139.5 21t-84.5 44v158h74v-116q28 -13 65.5 -23t85.5 -10q39 0 73.5 10t60 28.5t40 45t14.5 59.5q0 70 -53.5 103t-147.5 33h-58v55 l182 230h-260v-109h-74v183z" />
<glyph unicode="&#x4e1;" d="M98 500h395v-72l-179 -231h16q46 0 84 -13t66 -37t43.5 -58t15.5 -77q0 -54 -18 -96t-50.5 -70.5t-77.5 -43t-100 -14.5q-25 0 -52 5t-52.5 14t-48.5 21.5t-41 27.5l1 2v142h68v-103q28 -17 61.5 -28.5t66.5 -11.5q80 0 122.5 39.5t42.5 106.5q0 69 -48.5 98.5 t-130.5 29.5h-64v48l179 249h-231v-115h-68v187z" />
<glyph unicode="&#x4e2;" d="M457 464l6 100h-6l-58 -112l-260 -452h-79v700h83v-470l-5 -99h6l57 112l260 457h79v-700h-83v464zM146 843h316v-62h-316v62z" />
<glyph unicode="&#x4e3;" d="M437 314l3 66h-3l-281 -380h-71v500h78v-323l-3 -63h4l279 386h72v-500h-78v314zM157 643h296v-62h-296v62z" />
<glyph unicode="&#x4e4;" d="M457 464l6 100h-6l-58 -112l-260 -452h-79v700h83v-470l-5 -99h6l57 112l260 457h79v-700h-83v464zM130 800q0 23 17.5 37.5t45.5 14.5q26 0 43.5 -14.5t17.5 -37.5t-17.5 -37t-43.5 -14q-28 0 -45.5 14t-17.5 37zM355 800q0 23 17 37.5t43 14.5q29 0 46 -14.5t17 -37.5 t-17 -37t-46 -14q-26 0 -43 14t-17 37z" />
<glyph unicode="&#x4e5;" d="M437 314l3 66h-3l-281 -380h-71v500h78v-323l-3 -63h4l279 386h72v-500h-78v314zM139 626q0 26 15.5 42.5t41.5 16.5q25 0 41 -16.5t16 -42.5q0 -24 -16 -40.5t-41 -16.5q-26 0 -41.5 16.5t-15.5 40.5zM362 626q0 26 15.5 42.5t40.5 16.5q26 0 42.5 -16.5t16.5 -42.5 q0 -24 -16.5 -40.5t-42.5 -16.5q-25 0 -40.5 16.5t-15.5 40.5z" />
<glyph unicode="&#x4e6;" d="M48 350q0 174 61.5 268t189.5 94q70 0 118.5 -26t78.5 -73.5t43 -114t13 -148.5q0 -174 -61.5 -268t-191.5 -94q-69 0 -117 26t-78 73.5t-43 114t-13 148.5zM136 350q0 -58 7.5 -110t26.5 -91.5t50 -63t79 -23.5q86 0 125.5 70t39.5 218q0 57 -7.5 109.5t-26.5 92t-51 63 t-80 23.5q-85 0 -124 -70.5t-39 -217.5zM126 800q0 23 17.5 37.5t45.5 14.5q26 0 43.5 -14.5t17.5 -37.5t-17.5 -37t-43.5 -14q-28 0 -45.5 14t-17.5 37zM351 800q0 23 17 37.5t43 14.5q29 0 46 -14.5t17 -37.5t-17 -37t-46 -14q-26 0 -43 14t-17 37z" />
<glyph unicode="&#x4e7;" d="M57 250q0 121 63 191.5t180 70.5q63 0 108.5 -20.5t75.5 -55.5t44.5 -83t14.5 -103q0 -60 -16 -108.5t-47 -82.5t-76.5 -52.5t-103.5 -18.5q-62 0 -108 20.5t-76 55.5t-44.5 83t-14.5 103zM140 250q0 -35 8.5 -70t27.5 -63t49.5 -45t74.5 -17q80 0 120.5 49.5t40.5 145.5 q0 36 -8.5 70.5t-28 62.5t-50 45t-74.5 17q-80 0 -120 -49t-40 -146zM130 626q0 26 15.5 42.5t41.5 16.5q25 0 41 -16.5t16 -42.5q0 -24 -16 -40.5t-41 -16.5q-26 0 -41.5 16.5t-15.5 40.5zM353 626q0 26 15.5 42.5t40.5 16.5q26 0 42.5 -16.5t16.5 -42.5q0 -24 -16.5 -40.5 t-42.5 -16.5q-25 0 -40.5 16.5t-15.5 40.5z" />
<glyph unicode="&#x4e8;" d="M48 350q0 174 61.5 268t189.5 94q70 0 118.5 -26t78.5 -73.5t43 -114t13 -148.5q0 -174 -61.5 -268t-191.5 -94q-69 0 -117 26t-78 73.5t-43 114t-13 148.5zM299 62q81 0 120.5 62.5t43.5 193.5h-327q2 -53 11 -99.5t28 -81t49.5 -55t74.5 -20.5zM299 638 q-78 0 -117.5 -60.5t-44.5 -185.5h326q-3 51 -12.5 95.5t-28.5 78t-49 53t-74 19.5z" />
<glyph unicode="&#x4e9;" d="M57 250q0 121 63 191.5t180 70.5q63 0 108.5 -20.5t75.5 -55.5t44.5 -83t14.5 -103q0 -60 -16 -108.5t-47 -82.5t-76.5 -52.5t-103.5 -18.5q-62 0 -108 20.5t-76 55.5t-44.5 83t-14.5 103zM300 445q-147 0 -159 -164h318q-3 31 -14 61t-30 52.5t-47.5 36.5t-67.5 14z M300 55q72 0 112 41t47 121h-318q3 -31 14 -60.5t30 -52t47.5 -36t67.5 -13.5z" />
<glyph unicode="&#x4ea;" d="M48 350q0 174 61.5 268t189.5 94q70 0 118.5 -26t78.5 -73.5t43 -114t13 -148.5q0 -174 -61.5 -268t-191.5 -94q-69 0 -117 26t-78 73.5t-43 114t-13 148.5zM299 62q81 0 120.5 62.5t43.5 193.5h-327q2 -53 11 -99.5t28 -81t49.5 -55t74.5 -20.5zM299 638 q-78 0 -117.5 -60.5t-44.5 -185.5h326q-3 51 -12.5 95.5t-28.5 78t-49 53t-74 19.5zM126 800q0 23 17.5 37.5t45.5 14.5q26 0 43.5 -14.5t17.5 -37.5t-17.5 -37t-43.5 -14q-28 0 -45.5 14t-17.5 37zM351 800q0 23 17 37.5t43 14.5q29 0 46 -14.5t17 -37.5t-17 -37t-46 -14 q-26 0 -43 14t-17 37z" />
<glyph unicode="&#x4eb;" d="M57 250q0 121 63 191.5t180 70.5q63 0 108.5 -20.5t75.5 -55.5t44.5 -83t14.5 -103q0 -60 -16 -108.5t-47 -82.5t-76.5 -52.5t-103.5 -18.5q-62 0 -108 20.5t-76 55.5t-44.5 83t-14.5 103zM300 445q-147 0 -159 -164h318q-3 31 -14 61t-30 52.5t-47.5 36.5t-67.5 14z M300 55q72 0 112 41t47 121h-318q3 -31 14 -60.5t30 -52t47.5 -36t67.5 -13.5zM130 626q0 26 15.5 42.5t41.5 16.5q25 0 41 -16.5t16 -42.5q0 -24 -16 -40.5t-41 -16.5q-26 0 -41.5 16.5t-15.5 40.5zM353 626q0 26 15.5 42.5t40.5 16.5q26 0 42.5 -16.5t16.5 -42.5 q0 -24 -16.5 -40.5t-42.5 -16.5q-25 0 -40.5 16.5t-15.5 40.5z" />
<glyph unicode="&#x4ec;" d="M76 670l-1 3q31 18 76.5 28.5t97.5 10.5q64 0 117.5 -20t92 -63.5t60 -112.5t21.5 -166q0 -98 -24.5 -167t-67 -112.5t-99.5 -63t-121 -19.5q-25 0 -50.5 4.5t-48 11t-41 14t-28.5 13.5v148h74v-100q22 -8 49.5 -14.5t61.5 -6.5q39 0 77 14t68 45t48.5 81t18.5 123h-248 v74h247q-2 65 -19 111.5t-46 76.5t-67.5 44.5t-84.5 14.5q-26 0 -48 -3.5t-41 -8.5v-105h-74v145zM83 800q0 23 17.5 37.5t45.5 14.5q26 0 43.5 -14.5t17.5 -37.5t-17.5 -37t-43.5 -14q-28 0 -45.5 14t-17.5 37zM308 800q0 23 17 37.5t43 14.5q29 0 46 -14.5t17 -37.5 t-17 -37t-46 -14q-26 0 -43 14t-17 37z" />
<glyph unicode="&#x4ed;" d="M101 475h2q35 18 80 27.5t107 9.5q57 0 103 -18.5t79 -52.5t51 -82.5t18 -108.5q0 -62 -20 -111t-56 -82.5t-84.5 -51t-105.5 -17.5q-26 0 -55 5t-56.5 13.5t-50.5 21t-38 27.5l33 62q29 -21 72 -40t97 -19q32 0 65 9.5t59.5 29.5t43 50.5t16.5 71.5h-237v66h236 q-3 34 -17 63.5t-38.5 51t-59 33.5t-77.5 12q-29 0 -54 -4.5t-45 -12.5v-75h-68v122zM117 626q0 26 15.5 42.5t41.5 16.5q25 0 41 -16.5t16 -42.5q0 -24 -16 -40.5t-41 -16.5q-26 0 -41.5 16.5t-15.5 40.5zM340 626q0 26 15.5 42.5t40.5 16.5q26 0 42.5 -16.5t16.5 -42.5 q0 -24 -16.5 -40.5t-42.5 -16.5q-25 0 -40.5 16.5t-15.5 40.5z" />
<glyph unicode="&#x4ee;" d="M299 284h64l122 416h85l-142 -455q-20 -69 -39.5 -117t-42 -77.5t-49.5 -42.5t-62 -13q-33 0 -52.5 5.5t-36.5 16.5l25 69q20 -11 37 -14t31 -3q28 0 54 33t43 108l-90 1l-216 489h96zM142 843h316v-62h-316v62z" />
<glyph unicode="&#x4ef;" d="M311 77h38l124 423h81l-139 -449q-11 -35 -22.5 -79.5t-32.5 -83.5t-57 -66t-94 -27q-13 0 -27.5 3t-28.5 7.5t-26 10.5t-18 12l28 72q6 -5 16.5 -10t23 -8.5t24.5 -6t20 -2.5q75 0 102 127h-67l-210 500h90zM183 643h296v-62h-296v62z" />
<glyph unicode="&#x4f0;" d="M299 284h64l122 416h85l-142 -455q-20 -69 -39.5 -117t-42 -77.5t-49.5 -42.5t-62 -13q-33 0 -52.5 5.5t-36.5 16.5l25 69q20 -11 37 -14t31 -3q28 0 54 33t43 108l-90 1l-216 489h96zM133 800q0 23 17.5 37.5t45.5 14.5q26 0 43.5 -14.5t17.5 -37.5t-17.5 -37t-43.5 -14 q-28 0 -45.5 14t-17.5 37zM358 800q0 23 17 37.5t43 14.5q29 0 46 -14.5t17 -37.5t-17 -37t-46 -14q-26 0 -43 14t-17 37z" />
<glyph unicode="&#x4f1;" d="M311 77h38l124 423h81l-139 -449q-11 -35 -22.5 -79.5t-32.5 -83.5t-57 -66t-94 -27q-13 0 -27.5 3t-28.5 7.5t-26 10.5t-18 12l28 72q6 -5 16.5 -10t23 -8.5t24.5 -6t20 -2.5q75 0 102 127h-67l-210 500h90zM141 626q0 26 15.5 42.5t41.5 16.5q25 0 41 -16.5t16 -42.5 q0 -24 -16 -40.5t-41 -16.5q-26 0 -41.5 16.5t-15.5 40.5zM364 626q0 26 15.5 42.5t40.5 16.5q26 0 42.5 -16.5t16.5 -42.5q0 -24 -16.5 -40.5t-42.5 -16.5q-25 0 -40.5 16.5t-15.5 40.5z" />
<glyph unicode="&#x4f2;" d="M299 284h64l122 416h85l-142 -455q-20 -69 -39.5 -117t-42 -77.5t-49.5 -42.5t-62 -13q-33 0 -52.5 5.5t-36.5 16.5l25 69q20 -11 37 -14t31 -3q28 0 54 33t43 108l-90 1l-216 489h96zM244 850h93v-16l-100 -93h-57zM406 850h99v-16l-143 -93h-58z" />
<glyph unicode="&#x4f3;" d="M311 77h38l124 423h81l-139 -449q-11 -35 -22.5 -79.5t-32.5 -83.5t-57 -66t-94 -27q-13 0 -27.5 3t-28.5 7.5t-26 10.5t-18 12l28 72q6 -5 16.5 -10t23 -8.5t24.5 -6t20 -2.5q75 0 102 127h-67l-210 500h90zM260 720h86l-79 -149h-42zM406 720h103l-131 -149h-45z" />
<glyph unicode="&#x4f4;" d="M165 700v-232q0 -137 124 -137q47 0 88 12.5t67 33.5v323h83v-700h-83v302q-27 -15 -71 -30t-101 -15q-42 0 -77 9.5t-60 32t-39 60.5t-14 94v247h83zM139 800q0 23 17.5 37.5t45.5 14.5q26 0 43.5 -14.5t17.5 -37.5t-17.5 -37t-43.5 -14q-28 0 -45.5 14t-17.5 37z M364 800q0 23 17 37.5t43 14.5q29 0 46 -14.5t17 -37.5t-17 -37t-46 -14q-26 0 -43 14t-17 37z" />
<glyph unicode="&#x4f5;" d="M167 500v-133q0 -27 3.5 -50t14.5 -39.5t31 -25.5t53 -9q54 0 89 11.5t52 24.5v221h78v-500h-78v212q-18 -11 -54.5 -23.5t-99.5 -12.5q-42 0 -73 8.5t-51.5 30t-31 57t-10.5 89.5v139h77zM120 626q0 26 15.5 42.5t41.5 16.5q25 0 41 -16.5t16 -42.5q0 -24 -16 -40.5 t-41 -16.5q-26 0 -41.5 16.5t-15.5 40.5zM343 626q0 26 15.5 42.5t40.5 16.5q26 0 42.5 -16.5t16.5 -42.5q0 -24 -16.5 -40.5t-42.5 -16.5q-25 0 -40.5 16.5t-15.5 40.5z" />
<glyph unicode="&#x4f6;" d="M70 700h480v-183h-74v109h-227v-552h157v-194h-70v120h-266v74h96v552h-96v74z" />
<glyph unicode="&#x4f7;" d="M72 0v67h124v365h-124v68h444v-187h-68v119h-174v-365h202v-187h-68v120h-336z" />
<glyph unicode="&#x4f8;" d="M467 700h83v-700h-83v700zM50 700h83v-263q7 2 25 5.5t41 3.5q37 0 73 -10t65 -35t47 -67.5t18 -106.5q0 -62 -16 -106t-45 -73t-70 -42.5t-90 -13.5q-13 0 -30 0.5t-35 2t-35.5 4t-30.5 6.5v695zM187 66q29 0 53.5 8.5t42 27t27 47.5t9.5 71q0 45 -10.5 74.5t-28 47 t-41 24t-49.5 6.5q-17 0 -34 -2.5t-23 -6.5v-290q8 -4 23 -5.5t31 -1.5zM123 800q0 23 17.5 37.5t45.5 14.5q26 0 43.5 -14.5t17.5 -37.5t-17.5 -37t-43.5 -14q-28 0 -45.5 14t-17.5 37zM348 800q0 23 17 37.5t43 14.5q29 0 46 -14.5t17 -37.5t-17 -37t-46 -14q-26 0 -43 14 t-17 37z" />
<glyph unicode="&#x4f9;" d="M127 70q37 -6 71 -6q63 0 88 24.5t25 69.5q0 40 -24.5 66t-85.5 26q-17 0 -37 -1t-37 -6v-173zM127 309q24 4 46 5.5t42 1.5q51 0 85.5 -11.5t55.5 -31.5t29.5 -47.5t8.5 -58.5q0 -91 -50.5 -132t-163.5 -41q-64 0 -133 6v500h80v-191zM473 500h80v-500h-80v500zM127 626 q0 26 15.5 42.5t41.5 16.5q25 0 41 -16.5t16 -42.5q0 -24 -16 -40.5t-41 -16.5q-26 0 -41.5 16.5t-15.5 40.5zM350 626q0 26 15.5 42.5t40.5 16.5q26 0 42.5 -16.5t16.5 -42.5q0 -24 -16.5 -40.5t-42.5 -16.5q-25 0 -40.5 16.5t-15.5 40.5z" />
<glyph unicode="&#x4fc;" d="M326 251l-27 50l-26 -50l-160 -251h-93l231 356l-211 344h100l140 -237l25 -47l24 47l149 237h92l-219 -337l140 -222q31 -49 53 -99.5t22 -108.5q0 -67 -33 -105t-104 -38h-15.5t-15.5 2v68q50 0 69 18.5t19 50.5q0 28 -7 53t-17.5 47t-22 41t-21.5 34z" />
<glyph unicode="&#x4fd;" d="M299 205l-162 -205h-91l207 256l-193 244h100l144 -188l148 188h90l-193 -240l97 -125q15 -20 31 -43.5t29 -49t21 -51t8 -49.5q0 -78 -42.5 -116t-114.5 -38q-8 0 -16 0.5t-15 1.5v68q57 0 82.5 17t25.5 62q0 20 -7.5 42.5t-18.5 44t-24 40.5t-23 33z" />
<glyph unicode="&#x510;" d="M445 613q-29 11 -60 18t-60 7q-31 0 -58 -5.5t-47.5 -18t-32.5 -33t-12 -49.5q0 -28 12 -49.5t32 -37.5t45 -26t51 -14q17 -2 40 -3t41 -1h16v-70h-55q-12 0 -22.5 -0.5t-21.5 -1.5q-71 -5 -115 -35t-44 -92q0 -36 15.5 -62t40 -43.5t56 -26t63.5 -8.5q38 0 72 7.5 t62 21.5v88h74v-130q-30 -23 -84 -42t-135 -19q-49 0 -94.5 12.5t-80.5 38.5t-56 65t-21 93q0 68 39 116t110 59v4q-33 10 -57 27.5t-39.5 39.5t-23.5 47t-8 50q0 45 19.5 77.5t52.5 53.5t76.5 31t90.5 10q27 0 55.5 -4.5t55 -12.5t48 -18.5t34.5 -21.5v-130h-74v88z" />
<glyph unicode="&#x511;" d="M423 421q-24 7 -52 11.5t-51 4.5q-69 0 -103.5 -16t-34.5 -55q0 -16 8.5 -31t22.5 -26.5t31.5 -18.5t35.5 -7h80v-65h-68q-69 0 -99 -18t-30 -54q0 -38 37 -61.5t99 -23.5q25 0 53.5 5t55.5 13.5t50 19t37 22.5l28 -64q-14 -12 -37.5 -23.5t-53 -21t-61.5 -15.5t-62 -6 q-111 0 -168.5 40t-57.5 109q0 51 24.5 77.5t81.5 41.5v4q-42 14 -64.5 46.5t-22.5 73.5q0 62 52.5 93t143.5 31q28 0 56.5 -3.5t55 -9.5t48.5 -13.5t37 -16.5v-136h-72v93z" />
<glyph unicode="&#x512;" d="M521 -27q0 -93 -32 -139t-102 -46q-8 0 -15 0.5t-15 1.5v68q28 0 44.5 7.5t24.5 24.5t10 44t2 66v626h-179q-10 -200 -26.5 -332.5t-50.5 -206.5q-22 -48 -51.5 -70t-64.5 -22t-58 10l13 72q10 -3 21 -3q17 0 34 11t33 41q14 27 26 72t21.5 114t15.5 164.5t9 223.5h340 v-727z" />
<glyph unicode="&#x513;" d="M425 430h-185q-3 -71 -8.5 -147.5t-21 -140.5t-43.5 -105t-75 -41q-19 0 -33 2t-25 7l12 67q12 -4 26 -4q20 0 36 17t28 64.5t20 131.5t11 219h338v-527q0 -93 -32 -139t-102 -46q-8 0 -15 0.5t-15 1.5v68q28 0 44.5 8.5t25.5 26t11.5 44.5t2.5 63v430z" />
<glyph unicode="&#x51c;" d="M173 201l5 -65h7l14 71l74 273h66l69 -271l18 -74h5l6 68l74 497h74l-108 -700h-83l-81 284l-10 68h-3l-11 -69l-81 -283h-84l-109 700h79z" />
<glyph unicode="&#x51d;" d="M339 390l100 -278h7l71 388h73l-98 -500h-89l-96 276h-3l-100 -276h-89l-105 500h77l81 -390h6l97 280h68z" />
<glyph unicode="&#x524;" d="M417 626h-264v-626h-83v700h430v-626h93v-194h-70v120h-106v626z" />
<glyph unicode="&#x525;" d="M430 432h-261v-432h-77v500h416v-433h79v-187h-68v120h-89v432z" />
<glyph unicode="&#x526;" d="M414 0v232q0 137 -124 137q-48 0 -89 -12.5t-67 -33.5v-323h-83v700h83v-302q27 15 71.5 30t100.5 15q42 0 77.5 -9.5t60.5 -32t39 -60.5t14 -94v-173h92v-203h-70v129h-105z" />
<glyph unicode="&#x527;" d="M4 700h156v-262h5q31 35 72 54.5t102 19.5q48 0 83.5 -10t58 -35t33.5 -68.5t11 -110.5v-221h79v-187h-68v120h-89v273q0 43 -5 75t-19.5 53.5t-39.5 32.5t-64 11q-27 0 -53 -9.5t-47.5 -26t-37 -40t-21.5 -51.5v-318h-77v633h-79v67z" />
<glyph unicode="&#x52e;" d="M441 626h-189q-10 -200 -26.5 -332.5t-49.5 -206.5q-22 -48 -52 -70t-65 -22q-18 0 -31 2.5t-25 7.5l11 72q10 -3 21 -3q17 0 33.5 11t32.5 41q14 27 26.5 72t22 114t15.5 164.5t9 223.5h350v-626h93v-194h-70v120h-106v626z" />
<glyph unicode="&#x52f;" d="M426 432h-173q-4 -91 -10 -170.5t-22.5 -138.5t-47 -93t-82.5 -34q-20 0 -29 2t-22 7l13 74q19 -5 35.5 -5t29.5 12t23.5 38.5t18 75t12.5 122t8 178.5h324v-433h80v-187h-68v120h-90v432z" />
<glyph unicode="&#x1e30;" d="M245 324h-77v-324h-83v700h83v-312h75l225 312h96l-247 -333l278 -367h-105zM315 870h114v-21l-163 -97h-69z" />
<glyph unicode="&#x1e31;" d="M24 700h162v-414h55l197 214h94l-221 -237l182 -196h65v-67h-103l-214 226h-55v-226h-77v633h-85v67zM318 720h109l-119 -149h-55z" />
<glyph unicode="&#x1e3e;" d="M457 465l10 95h-5l-48 -86l-102 -171h-25l-107 172l-46 85h-5l12 -94v-466h-81v700h77l166 -266h2l160 266h75v-700h-83v465zM349 870h114v-21l-163 -97h-69z" />
<glyph unicode="&#x1e3f;" d="M262 0v333q0 21 -1.5 40.5t-7 35t-16 24.5t-27.5 9q-34 0 -57.5 -28t-35.5 -70v-344h-76v500h52l15 -61h4q10 15 19.5 28.5t22 23.5t29.5 15.5t43 5.5q15 0 31 -4.5t29.5 -14t23.5 -25.5t13 -39q23 39 51.5 61t78.5 22q33 0 53.5 -11t32 -31.5t16 -49t4.5 -63.5v-357h-76 v340q0 21 -2 39.5t-7.5 32.5t-15 22t-25.5 8q-35 0 -59 -28t-36 -80v-334h-76zM291 720h109l-119 -149h-55z" />
<glyph unicode="&#x1e54;" d="M100 693q38 9 82 12t87 3q46 0 93.5 -9t86.5 -33t63.5 -66t24.5 -107q0 -64 -23 -108t-61 -71.5t-87 -39.5t-101 -12h-16.5t-24 0.5t-24.5 1.5t-17 2v-266h-83v693zM271 636q-26 0 -50 -1t-38 -5v-290q5 -2 16 -2.5t23 -1t23 -0.5h16q34 0 67.5 6.5t60.5 23.5t43.5 48 t16.5 79q0 41 -15.5 68.5t-41 44t-57.5 23.5t-64 7zM335 870h114v-21l-163 -97h-69z" />
<glyph unicode="&#x1e55;" d="M96 325q0 9 -0.5 23.5t-1.5 30t-2.5 30.5t-3.5 26h-67v65h133l10 -70h5q27 35 68.5 58.5t101.5 23.5q107 0 161 -59t54 -193q0 -63 -18.5 -113.5t-52.5 -85.5t-82 -54t-106 -19q-21 0 -37.5 1.5t-30 4t-26.5 6.5t-28 10v-210h-77v525zM326 439q-30 0 -56.5 -11t-47 -29 t-33.5 -40t-16 -44v-228q22 -15 49.5 -23.5t72.5 -8.5q80 0 128 52.5t48 153.5q0 85 -33.5 131.5t-111.5 46.5zM290 720h109l-119 -149h-55z" />
<glyph unicode="&#x1e9e;" d="M395 603q-9 8 -24 15t-34 12.5t-40.5 8.5t-43.5 3q-44 0 -68.5 -16.5t-35.5 -43.5t-13 -62t-2 -73v-447h-83v478q0 48 8.5 91t31.5 74.5t63 50t104 18.5q83 0 142.5 -24.5t103.5 -58.5l-189 -222h27q99 0 152.5 -52.5t53.5 -141.5q0 -108 -60 -166.5t-169 -58.5 q-9 0 -25 1t-34 3t-35 5.5t-29 9.5l13 73q9 -6 23.5 -9.5t30.5 -6t31 -3.5t26 -1q65 0 102.5 39t37.5 105q0 137 -172 137h-62v59z" />
<glyph unicode="&#x2011;" d="M129 325h342v-74h-342v74z" />
<glyph unicode="&#x2013;" d="M88 325h424v-74h-424v74z" />
<glyph unicode="&#x2014;" d="M8 325h584v-74h-584v74z" />
<glyph unicode="&#x2018;" d="M368 527q0 -27 -18 -43t-44 -16q-35 0 -56 21t-21 63q0 40 11.5 69.5t28 49.5t34.5 31.5t32 16.5l30 -41q-28 -14 -48.5 -36t-20.5 -56q4 1 12 1q23 0 41.5 -17t18.5 -43z" />
<glyph unicode="&#x2019;" d="M232 660q0 27 18 43t44 16q35 0 56 -21t21 -63q0 -40 -11.5 -69.5t-28 -49.5t-34.5 -31.5t-32 -16.5l-30 41q28 14 48.5 36t20.5 56q-4 -1 -12 -1q-23 0 -41.5 17t-18.5 43z" />
<glyph unicode="&#x201a;" d="M232 53q0 27 18 43t44 16q35 0 56 -21t21 -63q0 -40 -11.5 -69.5t-28 -49.5t-34.5 -31.5t-32 -16.5l-30 41q28 14 48.5 36t20.5 56q-4 -1 -12 -1q-23 0 -41.5 17t-18.5 43z" />
<glyph unicode="&#x201c;" d="M269 527q0 -27 -18 -43t-44 -16q-35 0 -56 21t-21 63q0 40 11.5 69.5t28 49.5t34.5 31.5t32 16.5l30 -41q-28 -14 -48.5 -36t-20.5 -56q4 1 12 1q23 0 41.5 -17t18.5 -43zM468 527q0 -27 -18 -43t-44 -16q-35 0 -56 21t-21 63q0 40 11.5 69.5t28 49.5t34.5 31.5t32 16.5 l30 -41q-28 -14 -48.5 -36t-20.5 -56q4 1 12 1q23 0 41.5 -17t18.5 -43z" />
<glyph unicode="&#x201d;" d="M133 660q0 27 18 43t44 16q35 0 56 -21t21 -63q0 -40 -11.5 -69.5t-28 -49.5t-34.5 -31.5t-32 -16.5l-30 41q28 14 48.5 36t20.5 56q-4 -1 -12 -1q-23 0 -41.5 17t-18.5 43zM332 660q0 27 18 43t44 16q35 0 56 -21t21 -63q0 -40 -11.5 -69.5t-28 -49.5t-34.5 -31.5 t-32 -16.5l-30 41q28 14 48.5 36t20.5 56q-4 -1 -12 -1q-23 0 -41.5 17t-18.5 43z" />
<glyph unicode="&#x201e;" d="M132 53q0 27 18 43t44 16q35 0 56 -21t21 -63q0 -40 -11.5 -69.5t-28 -49.5t-34.5 -31.5t-32 -16.5l-30 41q28 14 48.5 36t20.5 56q-4 -1 -12 -1q-23 0 -41.5 17t-18.5 43zM332 53q0 27 18 43t44 16q35 0 56 -21t21 -63q0 -40 -11.5 -69.5t-28 -49.5t-34.5 -31.5 t-32 -16.5l-30 41q28 14 48.5 36t20.5 56q-4 -1 -12 -1q-23 0 -41.5 17t-18.5 43z" />
<glyph unicode="&#x2020;" d="M97 502h163v198h80v-198h163v-72h-163v-430l-15 -200h-50l-15 201v429h-163v72z" />
<glyph unicode="&#x2021;" d="M260 430h-163v72h163v198h80v-198h163v-72h-163v-184h163v-72h-163v-174l-16 -200h-48l-16 201v173h-163v72h163v184z" />
<glyph unicode="&#x2022;" d="M161 311q0 31 11 56.5t29.5 44t44 28.5t54.5 10t54.5 -9.5t44 -27.5t29.5 -43.5t11 -58.5t-11 -58.5t-29.5 -43.5t-44 -27.5t-54.5 -9.5t-54.5 9.5t-44 27.5t-29.5 43.5t-11 58.5z" />
<glyph unicode="&#x2026;" d="M487 55q0 32 18 49.5t48 17.5q32 0 50 -17.5t18 -49.5q0 -29 -18 -48t-50 -19q-30 0 -48 19t-18 48zM233 55q0 32 18 49.5t48 17.5q32 0 50 -17.5t18 -49.5q0 -29 -18 -48t-50 -19q-30 0 -48 19t-18 48zM-20 55q0 32 18 49.5t48 17.5q32 0 50 -17.5t18 -49.5 q0 -29 -18 -48t-50 -19q-30 0 -48 19t-18 48z" />
<glyph unicode="&#x2030;" d="M20 562q0 79 30.5 114.5t77.5 35.5q23 0 42.5 -7.5t34 -25t23 -46.5t8.5 -71t-8.5 -70.5t-23 -46t-34 -25t-42.5 -7.5q-47 0 -77.5 33t-30.5 116zM80 562q0 -54 13.5 -75t34.5 -21q22 0 35 19t13 77q0 56 -12.5 76.5t-35.5 20.5t-35.5 -20.5t-12.5 -76.5zM115 149 q0 79 30.5 114.5t77.5 35.5q23 0 42.5 -7.5t34 -25t23 -46.5t8.5 -71t-8.5 -70.5t-23 -46t-34 -25t-42.5 -7.5q-47 0 -77.5 33t-30.5 116zM175 149q0 -54 13.5 -75t34.5 -21q22 0 35 19t13 77q0 56 -12.5 76.5t-35.5 20.5t-35.5 -20.5t-12.5 -76.5zM365 149q0 79 30.5 114.5 t77.5 35.5q23 0 42.5 -7.5t34 -25t23 -46.5t8.5 -71t-8.5 -70.5t-23 -46t-34 -25t-42.5 -7.5q-47 0 -77.5 33t-30.5 116zM425 149q0 -54 13.5 -75t34.5 -21q22 0 35 19t13 77q0 56 -12.5 76.5t-35.5 20.5t-35.5 -20.5t-12.5 -76.5zM510 529l19 -47l-480 -210l-19 47z" />
<glyph unicode="&#x2039;" d="M170 264l195 254l58 -48l-156 -202l163 -199l-57 -49z" />
<glyph unicode="&#x203a;" d="M227 20l-57 49l163 199l-156 202l58 48l195 -254z" />
<glyph unicode="&#x2044;" d="M517 713l52 -35l-487 -690l-52 36z" />
<glyph unicode="&#x2081;" d="M134 -39h146v275l-125 -70l-27 55l166 99h56v-359h135v-61h-351v61z" />
<glyph unicode="&#x2082;" d="M445 195q0 -37 -20.5 -70.5t-53.5 -63t-73 -54.5t-79 -44h246v-63h-351v53q16 13 41 29t54 34t58.5 38.5t53.5 42t39 44t15 45.5q0 21 -8.5 35.5t-21.5 24t-28.5 13.5t-30.5 4q-23 0 -42.5 -5.5t-36 -13.5t-29.5 -17.5t-21 -16.5l-32 49q9 9 25 20.5t38 22t50 18t60 7.5 q31 0 58 -8.5t46.5 -25t31 -41t11.5 -57.5z" />
<glyph unicode="&#x2083;" d="M262 -47q48 0 76 19t28 56q0 32 -23.5 52t-74.5 20h-65v38l130 122h-228v60h316v-53l-129 -115v-2q67 -1 105.5 -34.5t38.5 -87.5q0 -61 -47 -98t-136 -37q-24 0 -51 5.5t-52 15.5t-46 24t-33 31l36 52q7 -8 21 -19.5t33.5 -22.5t44.5 -18.5t56 -7.5z" />
<glyph unicode="&#x2084;" d="M477 -4h-83v-96h-67v96h-234v56l236 268h65v-265h83v-59zM327 232l-156 -177h156v177z" />
<glyph unicode="&#x20ac;" d="M58 454h63q12 67 37.5 116t62 80.5t81.5 46.5t96 15t88 -6.5t64 -17.5l-21 -73q-23 11 -54 17t-75 6q-33 0 -64 -10t-56.5 -32.5t-45 -57.5t-29.5 -84h282l-17 -66h-274q-1 -11 -1 -19v-19v-16.5t1 -15.5h254l-17 -66h-230q18 -94 71.5 -142t138.5 -48q39 0 71.5 9 t55.5 23l20 -65q-30 -23 -74.5 -32t-89.5 -9q-114 0 -185.5 65t-91.5 199h-79l18 66h55q-1 9 -1 15.5v16.5v19t1 19h-73z" />
<glyph unicode="&#x20b4;" d="M504 317v-66h-229q-11 -11 -21.5 -25t-19 -30t-14 -32.5t-5.5 -31.5q0 -36 28 -55t94 -19q47 0 78 9t54 21l24 -64q-23 -14 -62.5 -25t-108.5 -11q-96 0 -143 35.5t-47 100.5q0 18 6 37.5t15 36.5t18.5 31t15.5 22h-92v66h409zM95 388v66h236q25 25 39 57.5t14 63.5 q0 35 -23 51t-80 16q-40 0 -67.5 -9t-50.5 -20l-25 67q14 7 29 12.5t33.5 10t41.5 7t54 2.5q85 0 128 -31t43 -94q0 -38 -15 -73t-37 -60h89v-66h-409z" />
<glyph unicode="&#x20bd;" d="M57 336h71v357q38 9 81.5 12t86.5 3q46 0 90.5 -9t79 -33t55.5 -65t21 -105q0 -61 -20 -103.5t-57 -69t-88 -38.5t-112 -12h-54v-71h166v-62h-166v-140h-83v140h-71v62h71v71h-71v63zM298 638q-26 0 -49.5 -1.5t-37.5 -4.5v-289h76q29 0 59 6t54 22.5t39 46t15 77.5 q0 41 -12.5 68.5t-33.5 44t-49.5 23.5t-60.5 7z" />
<glyph unicode="&#x2113;" d="M466 30q-22 -14 -57.5 -28t-70.5 -14q-63 0 -91.5 30.5t-28.5 95.5v104l-50 -44l-35 44l85 74v254q0 44 10 75.5t27.5 51.5t41 29.5t50.5 9.5q48 0 79 -29.5t31 -89.5q0 -74 -40 -157t-131 -171v-140q0 -44 17 -60.5t41 -16.5q25 0 55 10.5t50 21.5zM393 588q0 34 -14 49 t-32 15q-12 0 -23 -3.5t-19.5 -14t-13.5 -29t-5 -48.5v-212q56 65 81.5 125.5t25.5 117.5z" />
<glyph unicode="&#x2116;" d="M391 333h195v-72h-195v72zM78 475h-4l5 -108v-367h-75v700h56l199 -470h5l-6 113v357h75v-700h-55zM369 542q0 47 9.5 79.5t26 52.5t38 29t44.5 9t44 -8t37.5 -27.5t26.5 -52t10 -82.5q0 -49 -10 -81.5t-26.5 -52t-37.5 -27.5t-44 -8t-44.5 8t-38 27.5t-26 52t-9.5 81.5z M439 542q0 -34 3.5 -55t10 -33t15 -16t19.5 -4t20 3t15 14.5t9.5 33t3.5 57.5q0 35 -3.5 56.5t-9.5 33t-15 15.5t-20 4t-20 -3.5t-15 -15t-9.5 -33t-3.5 -57.5z" />
<glyph unicode="&#x2122;" d="M259 638h-85v-298h-67v298h-84v62h236v-62zM516 507l4 103h-4l-81 -155h-15l-82 155h-3l7 -102v-168h-59v360h66l82 -144l79 144h66v-360h-60v167z" />
<glyph unicode="&#x212e;" d="M154 259v-181q62 -59 145 -59q124 0 193 120l35 -21q-43 -66 -99 -100.5t-129 -34.5q-59 0 -107 21.5t-81.5 58.5t-51.5 87.5t-18 108.5q0 59 18.5 109.5t52.5 87.5t81.5 58t105.5 21q62 0 109.5 -22t80.5 -59.5t50 -87.5t19 -107h-404zM445 295v145q-63 60 -147 60 q-86 0 -144 -60v-145h291z" />
<glyph unicode="&#x2190;" d="M132 277h24q-19 -37 -28 -52t-34 -45h505v-33h-505q33 -34 63 -97h-25q-40 45 -70 69t-61 38v15q57 24 131 105z" />
<glyph unicode="&#x2191;" d="M186 293q81 75 106 131h14q15 -31 38.5 -61t69.5 -70v-25q-64 30 -98 63v-467h-32v467q-30 -24 -45 -33.5t-53 -28.5v24z" />
<glyph unicode="&#x2192;" d="M468 277q74 -81 131 -105v-15q-32 -14 -61.5 -38t-69.5 -69h-25q30 63 63 97h-505v33h505q-24 29 -33.5 44.5t-28.5 52.5h24z" />
<glyph unicode="&#x2193;" d="M186 -5v24q38 -19 53 -28.5t45 -33.5v467h32v-466q34 32 98 62v-25q-46 -40 -69.5 -69.5t-38.5 -61.5h-14q-25 58 -106 131z" />
<glyph unicode="&#x2194;" d="M599 171v-14q-29 -14 -58.5 -37t-70.5 -70h-25q22 54 61 98h-413q40 -44 62 -98h-26q-41 47 -70 70t-58 37v14q30 14 58 36.5t70 70.5h26q-22 -55 -62 -99h413q-39 44 -61 99h25q43 -48 71 -70.5t58 -36.5z" />
<glyph unicode="&#x2195;" d="M292 463h15q27 -60 107 -129v-25q-54 22 -99 62v-413q44 39 99 61v-25q-79 -69 -107 -129h-15q-13 30 -36.5 59t-69.5 70v25q55 -22 98 -61v413q-44 -40 -98 -62v25q47 41 70 70t36 59z" />
<glyph unicode="&#x21a8;" d="M292 463h15q27 -60 107 -129v-25q-54 22 -99 62v-413q44 39 99 61v-25q-79 -69 -107 -129h-15q-13 30 -36.5 59t-69.5 70v25q55 -22 98 -61v413q-44 -40 -98 -62v25q47 41 70 70t36 59zM187 -166h227v-30h-227v30z" />
<glyph unicode="&#x2202;" d="M340 510q42 0 62 -7.5t37 -21.5h5q-3 46 -22.5 77.5t-48.5 51t-64 28.5t-69 9h-10.5t-10.5 -1l15 66q68 0 122.5 -14.5t92.5 -49.5t58 -93t20 -145q0 -108 -19.5 -187.5t-54 -131.5t-83 -77.5t-105.5 -25.5q-96 0 -144 50.5t-48 143.5q0 60 17 118.5t50.5 105t83.5 75.5 t116 29zM334 440q-36 0 -68.5 -19.5t-57 -55t-38.5 -83.5t-14 -105q0 -23 6 -44.5t20 -38t36 -26.5t54 -10q50 0 83 31t53 79.5t28 108.5t8 117q-18 21 -43 33.5t-67 12.5z" />
<glyph unicode="&#x220f;" d="M471 626h-343v-826h-83v900h509v-900h-83v826z" />
<glyph unicode="&#x2211;" d="M159 -126h367v-74h-453v74l243 378l-243 374v74h453v-74h-361l241 -370z" />
<glyph unicode="&#x2212;" d="M68 374h464v-72h-464v72z" />
<glyph unicode="&#x2215;" d="M517 713l52 -35l-487 -690l-52 36z" />
<glyph unicode="&#x221a;" d="M208 446l115 -291h2l167 545h75l-226 -711h-31l-157 385h-121v72h176z" />
<glyph unicode="&#x221e;" d="M296 286q-24 -59 -58.5 -91t-76.5 -32q-50 0 -83.5 49t-33.5 134q0 90 33.5 141.5t88.5 51.5q51 0 83.5 -32t53.5 -81q29 60 63.5 86.5t76.5 26.5q51 0 81.5 -47t30.5 -135q0 -94 -34 -144t-91 -50q-24 0 -44 10t-36.5 27t-30 39t-23.5 47zM430 225q29 0 44.5 36.5 t15.5 93.5q0 23 -3 45t-10 39t-19 27.5t-29 10.5q-27 0 -52 -29t-48 -77q7 -27 17.5 -53.5t23.5 -47t28 -33t32 -12.5zM169 477q-14 0 -25.5 -10.5t-19 -28t-11.5 -40.5t-4 -49q0 -51 16.5 -87.5t48.5 -36.5q15 0 28.5 10t25.5 26.5t23 37t20 41.5q-8 28 -18.5 52.5 t-23 43.5t-27.5 30t-33 11z" />
<glyph unicode="&#x221f;" d="M1 597h46v-551h552v-46h-598v597z" />
<glyph unicode="&#x2229;" d="M85 485q0 86 60.5 151.5t154.5 65.5q93 0 154 -64.5t61 -152.5v-485h-64v467q0 76 -42.5 123.5t-108.5 47.5q-67 0 -109 -47.5t-42 -124.5v-466h-64v485z" />
<glyph unicode="&#x222a;" d="M85 217.029q0 -85.9941 60.5 -151.49t154.5 -65.4961q93 0 154 64.4961t61 152.49v484.971h-64v-466.972q0 -75.9951 -42.5 -123.492t-108.5 -47.4971q-67 0 -109 47.4971t-42 124.492v465.972h-64v-484.971z" />
<glyph unicode="&#x222b;" d="M340 -58q0 -78 -33 -114t-104 -36q-35 0 -66 7t-55 17l22 64q46 -18 91 -18q38 0 51.5 24t13.5 83v593q0 78 33 114t105 36q34 0 65 -7t55 -17l-21 -64q-23 9 -45.5 13.5t-46.5 4.5q-38 0 -51.5 -23t-13.5 -82v-595z" />
<glyph unicode="&#x2248;" d="M78 444q43 33 78 46t64 13q28 0 52 -8.5t46 -19t43 -19t44 -8.5q19 0 39 8t43 28l34 -61q-38 -26 -68.5 -36.5t-55.5 -10.5q-27 0 -49.5 8.5t-43 19t-41 19t-44.5 8.5q-23 0 -49 -10.5t-58 -36.5zM78 278q43 33 78 46t64 13q28 0 52 -8.5t46 -19t43 -19t44 -8.5 q19 0 39 8t43 28l34 -61q-38 -26 -68.5 -36.5t-55.5 -10.5q-27 0 -49.5 8.5t-43 19t-41 19t-44.5 8.5q-23 0 -49 -10.5t-58 -36.5z" />
<glyph unicode="&#x2260;" d="M88 457h228l61 137h72l-61 -137h124v-72h-155l-42 -94h197v-72h-228l-67 -153h-72l67 153h-124v72h155l42 94h-197v72z" />
<glyph unicode="&#x2261;" d="M531 499h-462v64h462v-64zM531 303h-462v64h462v-64zM531 107h-462v64h462v-64z" />
<glyph unicode="&#x2264;" d="M511 82l-35 -63l-368 210l35 64zM88 426v29l378 231l38 -62l-298 -178l303 -181l-38 -60z" />
<glyph unicode="&#x2265;" d="M509 234l-366 -215l-38 62l367 215zM510 465v-29l-378 -231l-38 62l301 182l-306 177l38 60z" />
<glyph unicode="&#x2302;" d="M521 0h-442v328l220 190l222 -190v-328zM143 64h314v234l-158 135l-156 -135v-234z" />
<glyph unicode="&#x2310;" d="M531 419h-398v-176h-64v240h462v-64z" />
<glyph unicode="&#x2320;" d="M336 -235h-72v904q0 96 40.5 156t103.5 60q30 0 48.5 -15.5t18.5 -38.5q0 -19 -12.5 -32t-30.5 -13q-15 0 -28 8l-19 21q-17 19 -24 19q-18 0 -22 -19q-3 -16 -3 -68v-982z" />
<glyph unicode="&#x2321;" d="M263.021 884.985h71.9951v-903.944q0 -95.9941 -40.4971 -155.99q-40.4971 -59.9971 -103.493 -59.9971q-29.999 0 -48.4971 15.499q-18.499 15.499 -18.499 38.498q0 18.999 12.499 31.998t30.498 12.999q14.999 0 27.998 -7.99902l18.999 -20.999 q16.999 -18.999 23.999 -18.999q17.998 0 21.998 18.999q3 15.999 3 67.9961v981.939z" />
<glyph unicode="&#x2500;" d="M0 304v76h600v-76h-600z" />
<glyph unicode="&#x2502;" d="M262 -235v1120h76v-1120h-76z" />
<glyph unicode="&#x250c;" d="M262 -235v615h338v-76h-262v-539h-76z" />
<glyph unicode="&#x2510;" d="M262 -235v539h-262v76h338v-615h-76z" />
<glyph unicode="&#x2514;" d="M262 305v580h76v-504h262v-76h-338z" />
<glyph unicode="&#x2518;" d="M0 305v76h262v504h76v-580h-338z" />
<glyph unicode="&#x251c;" d="M262 -235v1120h76v-505h262v-76h-262v-539h-76z" />
<glyph unicode="&#x2524;" d="M262 -235v539h-262v76h262v505h76v-1120h-76z" />
<glyph unicode="&#x252c;" d="M262 -235v539h-262v76h600v-76h-262v-539h-76z" />
<glyph unicode="&#x2534;" d="M0 304v76h262v505h76v-505h262v-76h-600z" />
<glyph unicode="&#x253c;" d="M262 -235v539h-262v76h262v505h76v-505h262v-76h-262v-539h-76z" />
<glyph unicode="&#x2550;" d="M0 304h600v-76h-600v76zM0 380v76h600v-76h-600z" />
<glyph unicode="&#x2551;" d="M262 -235h-76v1120h76v-1120zM338 885h76v-1120h-76v1120z" />
<glyph unicode="&#x2552;" d="M262 -235v691h338v-76h-262v-76h262v-76h-262v-463h-76z" />
<glyph unicode="&#x2553;" d="M262 -235h-76v615h414v-76h-186v-539h-76v539h-76v-539z" />
<glyph unicode="&#x2554;" d="M262 -235h-76v691h414v-76h-338v-615zM338 -235v539h262v-76h-186v-463h-76z" />
<glyph unicode="&#x2555;" d="M262 -235v463h-262v76h262v76h-262v76h338v-691h-76z" />
<glyph unicode="&#x2556;" d="M262 -235h-76v539h-186v76h414v-615h-76v539h-76v-539z" />
<glyph unicode="&#x2557;" d="M262 -235h-76v463h-186v76h262v-539zM338 -235v615h-338v76h414v-691h-76z" />
<glyph unicode="&#x2558;" d="M262 228v657h76v-429h262v-76h-262v-76h262v-76h-338z" />
<glyph unicode="&#x2559;" d="M186 304v581h76v-505h76v505h76v-505h186v-76h-414z" />
<glyph unicode="&#x255a;" d="M186 228v657h76v-581h338v-76h-414zM600 380h-262v505h76v-429h186v-76z" />
<glyph unicode="&#x255b;" d="M0 304h262v76h-262v76h262v429h76v-657h-338v76z" />
<glyph unicode="&#x255c;" d="M0 304v76h186v505h76v-505h76v505h76v-581h-414z" />
<glyph unicode="&#x255d;" d="M0 304h338v581h76v-657h-414v76zM0 380v76h186v429h76v-505h-262z" />
<glyph unicode="&#x255e;" d="M262 -235v1120h76v-428h262v-76h-262v-76h262v-76h-262v-464h-76z" />
<glyph unicode="&#x255f;" d="M186 -235v1120h76v-1120h-76zM338 -235v1120h76v-505h186v-76h-186v-539h-76z" />
<glyph unicode="&#x2560;" d="M186 -235v1120h76v-1120h-76zM338 -235v539h262v-76h-186v-463h-76zM338 380v505h76v-429h186v-76h-262z" />
<glyph unicode="&#x2561;" d="M262 -235v463h-262v76h262v76h-262v76h262v429h76v-1120h-76z" />
<glyph unicode="&#x2562;" d="M186 -235v539h-186v76h186v505h76v-1120h-76zM338 -235v1120h76v-1120h-76z" />
<glyph unicode="&#x2563;" d="M186 -235v463h-186v76h262v-539h-76zM338 -235v1120h76v-1120h-76zM0 380v76h186v429h76v-504z" />
<glyph unicode="&#x2564;" d="M0 304h600v-76h-262v-463h-76v463h-262v76zM0 380v76h600v-76h-600z" />
<glyph unicode="&#x2565;" d="M0 304v76h600v-76h-186v-539h-76v539h-76v-539h-76v539h-186z" />
<glyph unicode="&#x2566;" d="M0 304h262v-539h-76v463h-186v76zM0 380v76h600v-76h-600zM600 304v-76h-186v-463h-76v539h262z" />
<glyph unicode="&#x2567;" d="M0 304h600v-76h-600v76zM0 380v76h262v429h76v-429h262v-76h-600z" />
<glyph unicode="&#x2568;" d="M0 304v76h186v505h76v-505h76v505h76v-505h186v-76h-600z" />
<glyph unicode="&#x2569;" d="M0 304h600v-76h-600v76zM0 380v76h186v429h76v-505h-262zM338 380v505h76v-429h186v-76h-262z" />
<glyph unicode="&#x256a;" d="M0 304h262v76h-262v76h262v429h76v-429h262v-76h-262v-76h262v-76h-262v-463h-76v463h-262v76z" />
<glyph unicode="&#x256b;" d="M0 304v76h186v505h76v-505h76v505h76v-505h186v-76h-186v-539h-76v539h-76v-539h-76v539h-186z" />
<glyph unicode="&#x256c;" d="M0 304h262v-539h-76v463h-186v76zM0 380v76h186v429h76v-505h-262zM338 380v505h76v-429h186v-76h-262zM600 304v-76h-186v-463h-76v539h262z" />
<glyph unicode="&#x2580;" d="M0 343v542h600v-542h-600z" />
<glyph unicode="&#x2584;" d="M0 -235v578h600v-578h-600z" />
<glyph unicode="&#x2588;" d="M0 -235v1120h600v-1120h-600z" />
<glyph unicode="&#x258c;" d="M0 -235v1120h300v-1120h-300z" />
<glyph unicode="&#x2590;" d="M600 -235h-300v1120h300v-1120z" />
<glyph unicode="&#x2591;" d="M50 701h50v-47h-50v47zM250 701h50v-47h-50v47zM450 701h50v-47h-50v47zM150 608h50v-47h-50v47zM350 608h50v-47h-50v47zM550 608h50v-47h-50v47zM450 516h50v-47h-50v47zM250 516h50v-47h-50v47zM50 516h50v-47h-50v47zM550 424h50v-48h-50v48zM350 424h50v-48h-50v48z M150 424h50v-48h-50v48zM50 331h50v-47h-50v47zM250 331h50v-47h-50v47zM450 331h50v-47h-50v47zM550 239h50v-47h-50v47zM350 239h50v-47h-50v47zM150 239h50v-47h-50v47zM50 147h50v-48h-50v48zM250 147h50v-48h-50v48zM450 147h50v-48h-50v48zM150 54h50v-47h-50v47z M350 54h50v-47h-50v47zM550 54h50v-47h-50v47zM450 -38h50v-48h-50v48zM250 -38h50v-48h-50v48zM50 -38h50v-48h-50v48zM150 -131h50v-47h-50v47zM350 -131h50v-47h-50v47zM550 -131h50v-47h-50v47zM150 793h50v-47h-50v47zM350 793h50v-47h-50v47zM550 793h50v-47h-50v47z M50 885h50v-46h-50v46zM250 885h50v-46h-50v46zM450 885h50v-46h-50v46z" />
<glyph unicode="&#x2592;" d="M50 701h50v-47h-50v47zM150 701h50v-47h-50v47zM250 701h50v-47h-50v47zM350 701h50v-47h-50v47zM450 701h50v-47h-50v47zM550 701h50v-47h-50v47zM0 608h50v-47h-50v47zM100 608h50v-47h-50v47zM200 608h50v-47h-50v47zM300 608h50v-47h-50v47zM400 608h50v-47h-50v47z M500 608h50v-47h-50v47zM50 516h50v-47h-50v47zM150 516h50v-47h-50v47zM250 516h50v-47h-50v47zM350 516h50v-47h-50v47zM450 516h50v-47h-50v47zM550 516h50v-47h-50v47zM0 424h50v-48h-50v48zM100 424h50v-48h-50v48zM200 424h50v-48h-50v48zM300 424h50v-48h-50v48z M400 424h50v-48h-50v48zM500 424h50v-48h-50v48zM50 331h50v-47h-50v47zM150 331h50v-47h-50v47zM250 331h50v-47h-50v47zM350 331h50v-47h-50v47zM450 331h50v-47h-50v47zM550 331h50v-47h-50v47zM0 239h50v-47h-50v47zM200 239h50v-47h-50v47zM300 239h50v-47h-50v47z M400 239h50v-47h-50v47zM500 239h50v-47h-50v47zM100 239h50v-47h-50v47zM550 147h50v-48h-50v48zM450 147h50v-48h-50v48zM350 147h50v-48h-50v48zM250 147h50v-48h-50v48zM150 147h50v-48h-50v48zM50 147h50v-48h-50v48zM0 54h50v-47h-50v47zM100 54h50v-47h-50v47z M200 54h50v-47h-50v47zM300 54h50v-47h-50v47zM400 54h50v-47h-50v47zM500 54h50v-47h-50v47zM550 -38h50v-48h-50v48zM450 -38h50v-48h-50v48zM350 -38h50v-48h-50v48zM250 -38h50v-48h-50v48zM150 -38h50v-48h-50v48zM50 -38h50v-48h-50v48zM0 -131h50v-47h-50v47z M100 -131h50v-47h-50v47zM200 -131h50v-47h-50v47zM300 -131h50v-47h-50v47zM400 -131h50v-47h-50v47zM500 -131h50v-47h-50v47zM0 793h50v-47h-50v47zM100 793h50v-47h-50v47zM200 793h50v-47h-50v47zM300 793h50v-47h-50v47zM400 793h50v-47h-50v47zM500 793h50v-47h-50 v47zM50 885h50v-46h-50v46zM150 885h50v-46h-50v46zM250 885h50v-46h-50v46zM350 885h50v-46h-50v46zM450 885h50v-46h-50v46zM550 885h50v-46h-50v46z" />
<glyph unicode="&#x2593;" d="M550 793h50v-138h-50v-47h50v-138h-50v-47h50v-138h-50v-47h50v-137h-50v-48h50v-137h-50v-48h50v-103h-600v11h50v47h-50v138h50v47h-50v138h50v47h-50v137h50v48h-50v137h50v47h-50v138h50v47h-50v138h600v-46h-50v-46zM100 330h50v48h-50v-48zM200 330h50v48h-50v-48z M450 53h50v48h-50v-48zM350 53h50v48h-50v-48zM250 53h50v48h-50v-48zM150 53h50v48h-50v-48zM300 330h50v48h-50v-48zM50 53h50v48h-50v-48zM400 330h50v48h-50v-48zM500 330h50v48h-50v-48zM450 -132h50v48h-50v-48zM350 -132h50v48h-50v-48zM250 -132h50v48h-50v-48z M150 -132h50v48h-50v-48zM50 -132h50v48h-50v-48zM500 -224h50v47h-50v-47zM400 -224h50v47h-50v-47zM300 -224h50v47h-50v-47zM200 -224h50v47h-50v-47zM100 -224h50v47h-50v-47zM300 700h50v47h-50v-47zM500 515h50v47h-50v-47zM100 146h50v47h-50v-47zM500 -39h50v47h-50 v-47zM300 -39h50v47h-50v-47zM200 -39h50v47h-50v-47zM100 -39h50v47h-50v-47zM300 515h50v47h-50v-47zM350 608h50v47h-50v-47zM200 515h50v47h-50v-47zM100 515h50v47h-50v-47zM500 146h50v47h-50v-47zM400 146h50v47h-50v-47zM300 146h50v47h-50v-47zM200 146h50v47h-50 v-47zM450 238h50v47h-50v-47zM350 238h50v47h-50v-47zM250 238h50v47h-50v-47zM150 238h50v47h-50v-47zM50 238h50v47h-50v-47zM450 608h50v47h-50v-47zM400 -39h50v47h-50v-47zM350 423h50v47h-50v-47zM450 423h50v47h-50v-47zM150 608h50v47h-50v-47zM400 700h50v47h-50 v-47zM50 608h50v47h-50v-47zM250 423h50v47h-50v-47zM150 423h50v47h-50v-47zM50 423h50v47h-50v-47zM400 515h50v47h-50v-47zM500 700h50v47h-50v-47zM100 700h50v47h-50v-47zM250 608h50v47h-50v-47zM200 700h50v47h-50v-47zM50 793h50v46h-50v-46zM450 793h50v46h-50v-46 zM150 793h50v46h-50v-46zM350 793h50v46h-50v-46zM250 793h50v46h-50v-46z" />
<glyph unicode="&#x25a0;" d="M1 598h598v-598h-598v598z" />
<glyph unicode="&#x25a1;" d="M1 598h598v-598h-598v598zM38 561v-524h524v524h-524z" />
<glyph unicode="&#x25aa;" d="M424 187h-248v248h248v-248z" />
<glyph unicode="&#x25ab;" d="M424 187h-248v248h248v-248zM387 224v174h-174v-174h174z" />
<glyph unicode="&#x25ac;" d="M1 306h598v-113h-598v113z" />
<glyph unicode="&#x25b2;" d="M7 0l293 585l292 -585h-585z" />
<glyph unicode="&#x25ba;" d="M1 584l598 -298l-598 -299v597z" />
<glyph unicode="&#x25bc;" d="M592 572l-292 -585l-293 585h585z" />
<glyph unicode="&#x25c4;" d="M599 584v-597l-598 299z" />
<glyph unicode="&#x25ca;" d="M315 -11h-33l-200 353l200 369h33l203 -364zM435 337l-137 252h-2l-130 -236l138 -252h1z" />
<glyph unicode="&#x25cb;" d="M300 497q54 0 106 -28t80.5 -79.5t28.5 -107.5q0 -89 -63 -152t-152 -63t-152 63t-63 152q0 56 29 107.5t80.5 79.5t105.5 28zM300 460q-45 0 -87.5 -23t-66.5 -66t-24 -89q0 -74 52.5 -126t125.5 -52q74 0 126 52t52 126q0 46 -24 89t-66.5 66t-87.5 23z" />
<glyph unicode="&#x25cf;" d="M300 497q54 0 106 -28t80.5 -79.5t28.5 -107.5q0 -89 -63 -152t-152 -63t-152 63t-63 152q0 56 29 107.5t80.5 79.5t105.5 28z" />
<glyph unicode="&#x25d8;" d="M61 0v479h478v-479h-478zM300 338q-41 0 -70 -29t-29 -70q0 -40 29 -69t70 -29t69.5 29t28.5 69q0 41 -28.5 70t-69.5 29z" />
<glyph unicode="&#x25d9;" d="M19 0v564h564v-564h-564zM300 497q-54 0 -105.5 -28t-80.5 -79.5t-29 -107.5q0 -89 63 -152t152 -63q90 0 153 63t63 152q0 56 -29 107.5t-80.5 79.5t-106.5 28zM301 460q44 0 87 -23t67 -65.5t24 -89.5q0 -74 -52 -126t-126 -52t-126 52t-52 126q0 47 23.5 89.5 t66.5 65.5t88 23z" />
<glyph unicode="&#x25e6;" d="M421 311q0 -50 -35.5 -85.5t-85.5 -35.5t-85.5 35.5t-35.5 85.5t35.5 85.5t85.5 35.5t85.5 -35.5t35.5 -85.5zM384 311q0 35 -25 59.5t-59 24.5q-35 0 -59.5 -25t-24.5 -59q0 -35 24.5 -59.5t59.5 -24.5q34 0 59 24.5t25 59.5z" />
<glyph unicode="&#x25fc;" horiz-adv-x="500" d="M0 500h500v-500h-500v500z" />
<glyph unicode="&#x263a;" d="M599 285q0 -123 -87.5 -210.5t-211.5 -87.5t-211.5 87.5t-87.5 210.5q0 124 87.5 211.5t211.5 87.5t211.5 -87.5t87.5 -211.5zM555 285q0 106 -74.5 181t-180.5 75t-180.5 -75t-74.5 -181q0 -105 74.5 -180t180.5 -75t180.5 75t74.5 180zM224 347q0 -15 -11.5 -26.5 t-26.5 -11.5q-16 0 -27 11.5t-11 26.5q0 16 11 27t27 11q15 0 26.5 -11t11.5 -27zM452 347q0 -15 -11 -26.5t-26 -11.5q-16 0 -27.5 11.5t-11.5 26.5q0 16 11.5 27t27.5 11q15 0 26 -11t11 -27zM162 189l29 17q38 -67 109 -67t108 67l29 -17q-47 -91 -137 -91 q-46 0 -80 23.5t-58 67.5z" />
<glyph unicode="&#x263b;" d="M599 285q0 -123 -87.5 -210.5t-211.5 -87.5t-211.5 87.5t-87.5 210.5q0 124 87.5 211.5t211.5 87.5t211.5 -87.5t87.5 -211.5zM224 347q0 16 -11.5 27t-26.5 11q-16 0 -27 -11t-11 -27q0 -15 11 -26.5t27 -11.5q15 0 26.5 11.5t11.5 26.5zM452 347q0 16 -11 27t-26 11 q-16 0 -27.5 -11t-11.5 -27q0 -15 11.5 -26.5t27.5 -11.5q15 0 26 11.5t11 26.5zM162 189q24 -44 58 -67.5t80 -23.5q45 0 79.5 23t57.5 68l-29 17q-37 -67 -108 -67t-109 67z" />
<glyph unicode="&#x263c;" d="M284 529h32v-106q32 -3 57 -13t53 -31l91 89l22 -22l-90 -90q43 -57 45 -112h105v-30h-105q-7 -59 -45 -108l90 -92l-24 -21l-89 89q-30 -22 -53.5 -31.5t-56.5 -13.5v-106h-32v106q-61 9 -108 44l-92 -88l-22 22l90 90q-39 49 -46 110h-105v30h105q6 62 45 109l-89 90 l21 24l92 -89q56 38 109 44v106zM299 393q-67 0 -114.5 -48t-47.5 -115t47.5 -114.5t114.5 -47.5q68 0 115.5 47.5t47.5 114.5t-47.5 115t-115.5 48z" />
<glyph unicode="&#x2640;" d="M283 282q-54 7 -88.5 47t-34.5 92q0 59 41.5 100.5t99.5 41.5q57 0 98.5 -41.5t41.5 -100.5q0 -53 -34.5 -92.5t-87.5 -46.5v-81h125v-34h-125v-128h-36v128h-126v34h126v81zM300 522q-41 0 -70.5 -29.5t-29.5 -70.5q0 -42 29.5 -71.5t70.5 -29.5q42 0 71.5 29.5 t29.5 71.5q0 41 -29.5 70.5t-71.5 29.5z" />
<glyph unicode="&#x2642;" d="M307 382l118 118q-17 4 -53 18q-27 10 -40 24q-4 4 -4 9q0 4 3 8q2 2 7 2t16 -2q31 -8 62 -8q45 0 63 6t24 6q4 0 6 -1.5t2 -5.5t-3 -13q-8 -33 -8 -77q0 -30 6 -63q2 -11 2 -16q0 -4 -2 -7q-4 -3 -7 -3q-9 0 -20 19q-21 41 -31 81l-116 -116q41 -39 41 -93 q0 -61 -41.5 -103.5t-100.5 -42.5t-100 41t-41 98q0 59 41.5 100.5t100.5 41.5q35 0 75 -21zM232 366q-44 0 -74 -30t-30 -73t30.5 -73.5t73.5 -30.5t73 30t30 74q0 43 -30 73t-73 30z" />
<glyph unicode="&#x2660;" d="M300 601q13 -53 39.5 -94.5t94 -102.5t85.5 -94t18 -67q0 -46 -31 -77.5t-75 -31.5q-77 0 -125 93q1 -72 19 -114t58 -66.5t107 -28.5l4 -18h-387l3 18q61 0 103 24.5t64 68t20 116.5q-22 -46 -54.5 -69.5t-72.5 -23.5q-44 0 -76 32t-32 75q0 36 16 65q22 41 77 85 q68 56 106 112q27 40 39 98z" />
<glyph unicode="&#x2663;" d="M506 0h-411l4 17q81 17 107 33q39 25 64 73.5t25 101.5q0 7 -1 23q-29 -60 -71.5 -88t-86.5 -28q-57 0 -96 39.5t-39 96.5q0 56 36 95t81 39q29 0 79 -25q-20 33 -26 50.5t-6 37.5q0 56 38 94t96 38q57 0 96 -38.5t39 -91.5q0 -43 -34 -90q41 19 49 21q13 4 30 4 q49 0 84.5 -38t35.5 -94q0 -58 -39 -97.5t-94 -39.5q-30 0 -62.5 14.5t-56.5 39.5q-17 18 -42 61q2 -78 23.5 -122.5t66.5 -74.5q30 -19 107 -34z" />
<glyph unicode="&#x2665;" d="M301 -11q-14 53 -40.5 100.5t-100.5 145.5q-55 73 -68 93q-21 31 -30 57.5t-9 53.5q0 51 33.5 85t83.5 34q49 0 86 -35q28 -27 45 -79q16 58 51 86.5t78 28.5q49 0 83 -34t34 -80q0 -41 -19.5 -85t-77.5 -117q-74 -94 -104.5 -147.5t-44.5 -106.5z" />
<glyph unicode="&#x2666;" d="M299 597q44 -74 111.5 -164t112.5 -140q-37 -39 -118 -147q-67 -89 -105 -158q-13 25 -34 56q-37 55 -96 133q-14 20 -92 116q49 56 126 159q57 76 95 145z" />
<glyph unicode="&#x266a;" d="M275 148v415h37v-49l75 -94q25 -34 39 -74t14 -81q0 -75 -46 -132h-23q28 63 28 121t-28 97t-59 44v-247q0 -61 -35.5 -97.5t-88.5 -36.5q-27 0 -41.5 13.5t-14.5 34.5q0 38 29 66.5t70 28.5q11 0 22 -2.5t22 -6.5z" />
<glyph unicode="&#x266b;" d="M528 158q0 -61 -36 -97.5t-86 -36.5q-28 0 -42 13.5t-14 35.5q0 37 29 65.5t69 28.5q11 0 22 -2.5t22 -6.5v219l-269 -73v-192q0 -60 -35.5 -96.5t-87.5 -36.5q-28 0 -42 13t-14 35q0 37 29 65.5t70 28.5q11 0 22 -2t22 -7v367l341 87v-408zM223 366l269 73v57l-269 -74 v-56z" />
<glyph unicode="&#x2c67;" d="M412 321h-266v-321h-83v700h83v-305h266v305h83v-626h92v-194h-70v120h-105v321z" />
<glyph unicode="&#x2c68;" d="M4 700h156v-262h5q31 35 72 54.5t102 19.5q48 0 83.5 -10t58 -35t33.5 -68.5t11 -110.5v-221h79v-187h-68v120h-89v273q0 43 -5 75t-19.5 53.5t-39.5 32.5t-64 11q-27 0 -53 -9.5t-47.5 -26t-37 -40t-21.5 -51.5v-318h-77v633h-79v67z" />
<glyph unicode="&#xf401;" d="M302 870h114v-21l-163 -97h-69z" />
<glyph unicode="&#xf406;" d="M170 871q17 -34 52 -52.5t82 -18.5q48 0 81 21t47 50l47 -26q-22 -57 -70.5 -86t-105.5 -29q-27 0 -54 6t-52 19t-45 34t-33 51z" />
<glyph unicode="&#xf407;" d="M328 0l-24 -43q42 -8 60.5 -26t18.5 -49q0 -39 -32 -64.5t-90 -25.5q-11 0 -22 1t-23 3l9 39q6 -1 11 -1h10q22 0 34.5 4t19 9.5t8 12.5t1.5 13q0 28 -86 37l48 90h57z" />
<glyph unicode="&#xf408;" d="M273 871h60l145 -123h-99l-77 65l-83 -65h-101z" />
<glyph unicode="&#xf409;" d="M242 -92q0 21 15.5 34t35.5 13q25 0 44.5 -17.5t19.5 -57.5q0 -26 -9 -45.5t-21.5 -34t-26 -23t-23.5 -12.5l-28 32q20 11 32 28t12 41q-4 -1 -10 -1q-18 0 -29.5 12t-11.5 31z" />
<glyph unicode="&#xf40a;" d="M158 660q0 27 18 43t44 16q35 0 56 -21t21 -63q0 -40 -11.5 -69.5t-28 -49.5t-34.5 -31.5t-32 -16.5l-30 41q28 14 48.5 36t20.5 56q-4 -1 -12 -1q-23 0 -41.5 17t-18.5 43z" />
<glyph unicode="&#xf40b;" d="M231 795q0 23 18 40t50 17t51 -17t19 -40q0 -25 -19 -42t-51 -17t-50 17t-18 42z" />
<glyph unicode="&#xf40c;" d="M194 768q0 37 25 61t80 24q50 0 78 -21.5t28 -63.5q0 -36 -26.5 -59.5t-79.5 -23.5q-51 0 -78 22.5t-27 60.5zM255 768q0 -17 10.5 -28.5t33.5 -11.5q22 0 33.5 11t11.5 29q0 19 -11 30.5t-34 11.5q-22 0 -33 -11.5t-11 -30.5z" />
<glyph unicode="&#xf40d;" d="M129 789q31 32 63.5 41.5t56.5 9.5q19 0 37 -5t34.5 -11.5t32.5 -11.5t31 -5q26 0 50 21l29 -49q-27 -25 -53 -31.5t-47 -6.5q-19 0 -36 5t-33.5 11.5t-32.5 11.5t-32 5t-31.5 -6.5t-32.5 -23.5z" />
<glyph unicode="&#xf40e;" d="M365 10q-35 -16 -55 -40.5t-20 -56.5q0 -20 13 -35.5t38 -15.5q19 0 40 10l11 -43q-15 -12 -40 -18t-46 -6q-45 0 -72 24t-27 65t27.5 70t75.5 46h55z" />
<glyph unicode="&#xf486;" d="M522 540q0 -25 -8 -51t-24 -48.5t-41 -39.5t-59 -26v-4q30 -5 57.5 -17t48.5 -33t34 -51t13 -71q0 -54 -22.5 -93.5t-59 -64.5t-83.5 -37t-96 -12h-40t-48 1.5t-50 4t-44 7.5v689q37 6 86 10t107 4q39 0 79.5 -6.5t73.5 -25t54.5 -51.5t21.5 -85zM290 64q32 0 62 8t53 24 t36.5 40t13.5 57q0 41 -16.5 66t-43 39t-59.5 19t-66 5h-87v-251q7 -2 20 -3t28 -2t31 -1.5t28 -0.5zM235 392q17 0 41 1t40 3q24 8 45 19.5t37.5 27.5t26 36t9.5 44q0 33 -12.5 55t-33.5 35t-48 18t-55 5q-33 0 -60.5 -1.5t-41.5 -4.5v-238h52zM326 870h114v-21l-163 -97 h-69z" />
<glyph unicode="&#xf487;" d="M2 700h160v-257h5q26 33 67 51t89 18q220 0 220 -254q0 -129 -71 -197.5t-202 -68.5q-62 0 -112 12t-73 28v601h-83v67zM313 445q-60 0 -97 -34t-54 -96v-230q23 -12 55 -19t67 -7q40 0 72.5 11.5t55.5 36t35.5 62.5t12.5 90q0 38 -8 72t-25.5 59.5t-45.5 40t-68 14.5z M319 720h109l-119 -149h-55z" />
<glyph unicode="&#xf488;" d="M117 700h401v-74h-318v-239h298v-74h-298v-313h-83v700zM343 870h114v-21l-163 -97h-69z" />
<glyph unicode="&#xf489;" d="M88 0v67h119v366h-119v67h119v28q0 94 49 136t140 42q33 0 59 -4t56 -16l-18 -65q-26 11 -50 14.5t-44 3.5q-66 0 -90 -32.5t-24 -106.5h207v-67h-207v-366h207v-67h-404zM421 870h114v-21l-163 -97h-69z" />
<glyph unicode="&#xf49e;" d="M13 589h88v111h83v-111h219v-66h-219v-125q27 15 71.5 30t100.5 15q42 0 77.5 -9.5t60.5 -32t39 -60.5t14 -94v-247h-83v232q0 137 -124 137q-48 0 -89 -12.5t-67 -33.5v-323h-83v523h-88v66z" />
<glyph unicode="&#xf49f;" d="M3 632h80v68h77v-68h163v-60h-163v-134h5q31 35 72 54.5t102 19.5q48 0 83.5 -10t58 -35t33.5 -68.5t11 -110.5v-288h-78v273q0 43 -5 75t-19.5 53.5t-39.5 32.5t-64 11q-27 0 -53 -9.5t-47.5 -26t-37 -40t-21.5 -51.5v-318h-77v572h-80v60z" />
<glyph unicode="&#xf4c6;" d="M160 700v-232q0 -137 124 -137q47 0 88 12.5t67 33.5v323h83v-727q0 -93 -33.5 -139t-104.5 -46q-8 0 -17 0.5t-14 1.5v68q28 0 45 8.5t26 26t12 44.5t3 63v302q-27 -15 -71 -30t-101 -15q-42 0 -77 9.5t-60 32t-39 60.5t-14 94v247h83z" />
<glyph unicode="&#xf4c7;" d="M167 500v-133q0 -27 3.5 -50t14.5 -39.5t31 -25.5t53 -9q54 0 89 11.5t52 24.5v221h78v-500v0q1 -120 -30.5 -166t-101.5 -46q-8 0 -15 0.5t-15 1.5v68q28 0 44.5 8.5t25.5 26t11.5 44.5t2.5 63v212q-18 -11 -54.5 -23.5t-99.5 -12.5q-42 0 -73 8.5t-51.5 30t-31 57 t-10.5 89.5v139h77z" />
<glyph unicode="&#xf4cc;" d="M299 284h64l122 416h85l-142 -455q-20 -69 -39.5 -117t-42 -77.5t-49.5 -42.5t-62 -13q-33 0 -52.5 5.5t-36.5 16.5l25 69q20 -11 37 -14t31 -3q28 0 54 33t43 108l-90 1l-216 489h96zM355 870h114v-21l-163 -97h-69z" />
<glyph unicode="&#xf4cd;" d="M311 77h38l124 423h81l-139 -449q-11 -35 -22.5 -79.5t-32.5 -83.5t-57 -66t-94 -27q-13 0 -27.5 3t-28.5 7.5t-26 10.5t-18 12l28 72q6 -5 16.5 -10t23 -8.5t24.5 -6t20 -2.5q75 0 102 127h-67l-210 500h90zM328 720h109l-119 -149h-55z" />
<glyph unicode="&#xf4d6;" d="M76 670l-1 3q31 18 76.5 28.5t97.5 10.5q64 0 117.5 -20t92 -63.5t60 -112.5t21.5 -166q0 -98 -24.5 -167t-67 -112.5t-99.5 -63t-121 -19.5q-25 0 -50.5 4.5t-48 11t-41 14t-28.5 13.5v148h74v-100q22 -8 49.5 -14.5t61.5 -6.5q39 0 77 14t68 45t48.5 81t18.5 123h-248 v74h247q-2 65 -19 111.5t-46 76.5t-67.5 44.5t-84.5 14.5q-26 0 -48 -3.5t-41 -8.5v-105h-74v145zM187 795q0 23 18 40t50 17t51 -17t19 -40q0 -25 -19 -42t-51 -17t-50 17t-18 42z" />
<glyph unicode="&#xf4d7;" d="M101 475h2q35 18 80 27.5t107 9.5q57 0 103 -18.5t79 -52.5t51 -82.5t18 -108.5q0 -62 -20 -111t-56 -82.5t-84.5 -51t-105.5 -17.5q-26 0 -55 5t-56.5 13.5t-50.5 21t-38 27.5l33 62q29 -21 72 -40t97 -19q32 0 65 9.5t59.5 29.5t43 50.5t16.5 71.5h-237v66h236 q-3 34 -17 63.5t-38.5 51t-59 33.5t-77.5 12q-29 0 -54 -4.5t-45 -12.5v-75h-68v122zM213 642q0 27 18 46.5t46 19.5q29 0 48.5 -19.5t19.5 -46.5q0 -26 -19.5 -44t-48.5 -18q-28 0 -46 18t-18 44z" />
<glyph unicode="&#xf50a;" d="M80 183h74v-105q24 -8 54 -14t65 -6q76 0 122.5 36t46.5 108q0 63 -43 93.5t-114 35.5h-60v70h69q26 3 49 13.5t40.5 26.5t27.5 37t10 45q0 33 -11.5 55.5t-31.5 36.5t-48 20.5t-62 6.5q-29 0 -57 -4t-51 -10v-99h-74v149q10 6 29 12t45 11t57 8t65 3q45 0 86 -8.5 t72.5 -28t50 -53t18.5 -82.5q0 -50 -32.5 -95.5t-98.5 -65.5v-4q71 -10 111.5 -53t40.5 -115q0 -57 -22 -98.5t-58.5 -68.5t-82.5 -40q-25 -6 -51 -9v-151h-70v149q-52 2 -90 11q-48 13 -76 24v159z" />
<glyph unicode="&#xf50b;" d="M107 453l-1 3q17 10 36.5 19.5t44 17t55.5 12.5t71 5q41 0 76 -8.5t61 -24.5t40.5 -39.5t14.5 -53.5q0 -16 -6.5 -33.5t-19.5 -33.5t-31 -29t-41 -20v-4q66 -11 92.5 -42t26.5 -82q0 -32 -15 -59t-44.5 -47t-73.5 -32q-25 -6 -56 -9v-153h-68v152q-30 1 -55 7 q-35 8 -61.5 20t-45 26t-28.5 26l40 63q11 -12 27 -25.5t39.5 -24.5t54 -18.5t70.5 -7.5q28 0 52.5 5.5t43 16t29.5 27t11 38.5q0 38 -34.5 58t-113.5 20h-57v65h71q20 0 40 6.5t36 17t26 25t10 30.5q0 20 -10 34.5t-27.5 23.5t-41 13.5t-49.5 4.5q-40 0 -70 -7.5t-51 -18.5 v-83h-68v119z" />
<glyph unicode="&#xf50c;" d="M458 624q-17 7 -37.5 10.5t-49.5 3.5q-41 0 -80.5 -15t-70 -49t-49 -89t-18.5 -135q0 -72 16.5 -126t46 -90t71 -54t92.5 -18q26 0 48.5 4.5t41.5 12.5v100h74v-135l1 -2q-30 -23 -76 -39q-33 -10 -76 -14l-18 -32q42 -8 60.5 -26t18.5 -49q0 -39 -32 -64.5t-90 -25.5 q-11 0 -22 1t-23 3l9 39q6 -1 11 -1h10q22 0 34.5 4t19 9.5t8 12.5t1.5 13q0 28 -86 37l41 79q-50 3 -95 20q-53 22 -92 66t-60.5 112.5t-21.5 162.5q0 98 24 166.5t65 112t95.5 63.5t116.5 20q34 0 59 -2.5t44 -7t33.5 -11.5t28.5 -16h1v-158h-74v107z" />
<glyph unicode="&#xf50d;" d="M439 423q-23 8 -49.5 13.5t-52.5 5.5q-98 0 -146 -46t-48 -146q0 -44 14 -78.5t40 -58.5t62.5 -37t80.5 -13q47 0 91.5 16t74.5 42l35 -58q-26 -23 -76 -46.5t-119 -27.5l-17 -32q42 -8 60.5 -26t18.5 -49q0 -39 -32 -64.5t-90 -25.5q-11 0 -22 1t-23 3l9 39q6 -1 11 -1 h10q22 0 34.5 4t19 9.5t8 12.5t1.5 13q0 28 -86 37l42 80q-114 9 -172 79t-58 181q0 63 17.5 112t50.5 82t80 50.5t105 17.5q74 0 120.5 -13t78.5 -29l-1 -3v-139h-72v95z" />
<glyph unicode="&#xf50e;" d="M431 194h-269l-64 -194h-82l234 700h98l236 -700h-87zM188 266h220l-103 329h-12zM145 843h316v-62h-316v62z" />
<glyph unicode="&#xf50f;" d="M108 461q43 25 97 36t106 11q51 0 83.5 -16t51 -41.5t25 -58t6.5 -65.5q0 -38 -2 -81t-3 -86q0 -50 6 -95h67v-65h-133l-9 75h-5q-6 -9 -18 -23t-31.5 -27.5t-47.5 -23.5t-66 -10q-74 0 -117 38t-43 104q0 51 22.5 85t64.5 52t101.5 21t133.5 -8q5 46 1.5 76.5t-16 48.5 t-35 25.5t-55.5 7.5q-45 0 -86 -12.5t-73 -25.5zM255 58q28 0 52 9t42 23t30 30.5t18 31.5v70q-52 9 -96 9t-76 -9.5t-50 -29.5t-18 -52q0 -33 22.5 -57.5t75.5 -24.5zM147 643h296v-62h-296v62z" />
<glyph unicode="&#xf510;" d="M107 700h411v-74h-328v-229h303v-74h-303v-249h333v-74h-416v700zM155 843h316v-62h-316v62z" />
<glyph unicode="&#xf511;" d="M529 63q-18 -16 -42.5 -30t-53.5 -24t-60.5 -15.5t-63.5 -5.5q-60 0 -106 18.5t-77 53t-47 82.5t-16 108q0 63 17.5 112t50.5 82t80 50.5t105 17.5q42 0 83 -11t72.5 -41.5t48.5 -84t12 -138.5h-387q0 -90 48.5 -134.5t129.5 -44.5q27 0 53.5 6.5t50.5 15.5t42.5 20 t28.5 20zM318 446q-33 0 -62.5 -7t-52 -23.5t-37 -43t-18.5 -65.5h311q-5 66 -42.5 102.5t-98.5 36.5zM153 643h296v-62h-296v62z" />
<glyph unicode="&#xf512;" d="M107 700h411v-74h-328v-229h303v-74h-303v-249h333v-74h-416v700zM152 895h316v-62h-316v62zM136 765q0 21 16.5 30t45.5 9q28 0 44.5 -8.5t16.5 -30.5q0 -20 -16.5 -29t-44.5 -9q-29 0 -45.5 8.5t-16.5 29.5zM358 765q0 21 16.5 30t45.5 9q28 0 44.5 -8.5t16.5 -30.5 q0 -20 -16.5 -29t-44.5 -9q-29 0 -45.5 8.5t-16.5 29.5z" />
<glyph unicode="&#xf513;" d="M529 63q-18 -16 -42.5 -30t-53.5 -24t-60.5 -15.5t-63.5 -5.5q-60 0 -106 18.5t-77 53t-47 82.5t-16 108q0 63 17.5 112t50.5 82t80 50.5t105 17.5q42 0 83 -11t72.5 -41.5t48.5 -84t12 -138.5h-387q0 -90 48.5 -134.5t129.5 -44.5q27 0 53.5 6.5t50.5 15.5t42.5 20 t28.5 20zM318 446q-33 0 -62.5 -7t-52 -23.5t-37 -43t-18.5 -65.5h311q-5 66 -42.5 102.5t-98.5 36.5zM141 626q0 26 15.5 42.5t41.5 16.5q25 0 41 -16.5t16 -42.5q0 -24 -16 -40.5t-41 -16.5q-26 0 -41.5 16.5t-15.5 40.5zM364 626q0 26 15.5 42.5t40.5 16.5 q26 0 42.5 -16.5t16.5 -42.5q0 -24 -16.5 -40.5t-42.5 -16.5q-25 0 -40.5 16.5t-15.5 40.5zM152 826h316v-62h-316v62z" />
<glyph unicode="&#xf514;" d="M107 700h411v-74h-328v-229h303v-74h-303v-249h333v-74h-416v700zM136 765q0 21 16.5 30t45.5 9q28 0 44.5 -8.5t16.5 -30.5q0 -20 -16.5 -29t-44.5 -9q-29 0 -45.5 8.5t-16.5 29.5zM358 765q0 21 16.5 30t45.5 9q28 0 44.5 -8.5t16.5 -30.5q0 -20 -16.5 -29t-44.5 -9 q-29 0 -45.5 8.5t-16.5 29.5zM220 915q5 -25 28.5 -36.5t62.5 -11.5q40 0 62.5 11t28.5 37l70 -13q-10 -42 -49.5 -65.5t-112.5 -23.5q-70 0 -115 21t-53 66z" />
<glyph unicode="&#xf515;" d="M529 63q-18 -16 -42.5 -30t-53.5 -24t-60.5 -15.5t-63.5 -5.5q-60 0 -106 18.5t-77 53t-47 82.5t-16 108q0 63 17.5 112t50.5 82t80 50.5t105 17.5q42 0 83 -11t72.5 -41.5t48.5 -84t12 -138.5h-387q0 -90 48.5 -134.5t129.5 -44.5q27 0 53.5 6.5t50.5 15.5t42.5 20 t28.5 20zM318 446q-33 0 -62.5 -7t-52 -23.5t-37 -43t-18.5 -65.5h311q-5 66 -42.5 102.5t-98.5 36.5zM141 626q0 26 15.5 42.5t41.5 16.5q25 0 41 -16.5t16 -42.5q0 -24 -16 -40.5t-41 -16.5q-26 0 -41.5 16.5t-15.5 40.5zM364 626q0 26 15.5 42.5t40.5 16.5 q26 0 42.5 -16.5t16.5 -42.5q0 -24 -16.5 -40.5t-42.5 -16.5q-25 0 -40.5 16.5t-15.5 40.5zM222 853q4 -37 28 -57t64 -20t63.5 20t28.5 56l71 -17q-11 -54 -50.5 -85.5t-113.5 -31.5q-71 0 -116.5 27.5t-53.5 87.5z" />
<glyph unicode="&#xf516;" d="M80 183h74v-105q24 -8 54 -14t65 -6q76 0 122.5 36t46.5 108q0 63 -43 93.5t-114 35.5h-60v70h69q26 3 49 13.5t40.5 26.5t27.5 37t10 45q0 33 -11.5 55.5t-31.5 36.5t-48 20.5t-62 6.5q-29 0 -57 -4t-51 -10v-99h-74v148v1q10 6 29 12t45 11t57 8t65 3q45 0 86 -8.5 t72.5 -28t50 -53t18.5 -82.5q0 -50 -32.5 -95.5t-98.5 -65.5v-4q71 -10 111.5 -53t40.5 -115q0 -57 -22 -98.5t-58.5 -68.5t-82.5 -39.5t-94 -12.5q-69 0 -117 12.5t-76 23.5v1v158zM324 746h-58l-149 124h104l77 -67l81 67h93z" />
<glyph unicode="&#xf517;" d="M107 453l-1 3q17 10 36.5 19.5t44 17t55.5 12.5t71 5q41 0 76 -8.5t61 -24.5t40.5 -39.5t14.5 -53.5q0 -16 -6.5 -33.5t-19.5 -33.5t-31 -29t-41 -20v-4q66 -11 92.5 -42t26.5 -82q0 -32 -15 -59t-44.5 -47t-73 -31.5t-101.5 -11.5q-43 0 -78 8t-61.5 20t-45 26t-28.5 26 l40 63q11 -12 27 -25.5t39.5 -24.5t54 -18.5t70.5 -7.5q28 0 52.5 5.5t43 16t29.5 27t11 38.5q0 38 -34.5 58t-113.5 20h-57v65h71q20 0 40 6.5t36 17t26 25t10 30.5q0 20 -10 34.5t-27.5 23.5t-41 13.5t-49.5 4.5q-40 0 -70 -7.5t-51 -18.5v-83h-68v119zM304 550h-37 l-135 182h78l81 -109l86 109h70z" />
<glyph unicode="&#xf518;" d="M48 350q0 174 61.5 268t189.5 94q70 0 118.5 -26t78.5 -73.5t43 -114t13 -148.5q0 -174 -61.5 -268t-191.5 -94q-69 0 -117 26t-78 73.5t-43 114t-13 148.5zM136 350q0 -58 7.5 -110t26.5 -91.5t50 -63t79 -23.5q86 0 125.5 70t39.5 218q0 57 -7.5 109.5t-26.5 92t-51 63 t-80 23.5q-85 0 -124 -70.5t-39 -217.5zM142 843h316v-62h-316v62z" />
<glyph unicode="&#xf519;" d="M57 250q0 121 63 191.5t180 70.5q63 0 108.5 -20.5t75.5 -55.5t44.5 -83t14.5 -103q0 -60 -16 -108.5t-47 -82.5t-76.5 -52.5t-103.5 -18.5q-62 0 -108 20.5t-76 55.5t-44.5 83t-14.5 103zM140 250q0 -35 8.5 -70t27.5 -63t49.5 -45t74.5 -17q80 0 120.5 49.5t40.5 145.5 q0 36 -8.5 70.5t-28 62.5t-50 45t-74.5 17q-80 0 -120 -49t-40 -146zM152 643h296v-62h-296v62z" />
<glyph unicode="&#xf51a;" d="M48 350q0 174 61.5 268t189.5 94q70 0 118.5 -26t78.5 -73.5t43 -114t13 -148.5q0 -174 -61.5 -268t-191.5 -94q-69 0 -117 26t-78 73.5t-43 114t-13 148.5zM136 350q0 -58 7.5 -110t26.5 -91.5t50 -63t79 -23.5q86 0 125.5 70t39.5 218q0 57 -7.5 109.5t-26.5 92t-51 63 t-80 23.5q-85 0 -124 -70.5t-39 -217.5zM210 870q4 -37 28 -57t64 -20t63.5 20t28.5 56l71 -17q-11 -54 -50.5 -85.5t-113.5 -31.5q-71 0 -116.5 27.5t-53.5 87.5z" />
<glyph unicode="&#xf51b;" d="M57 250q0 121 63 191.5t180 70.5q63 0 108.5 -20.5t75.5 -55.5t44.5 -83t14.5 -103q0 -60 -16 -108.5t-47 -82.5t-76.5 -52.5t-103.5 -18.5q-62 0 -108 20.5t-76 55.5t-44.5 83t-14.5 103zM140 250q0 -35 8.5 -70t27.5 -63t49.5 -45t74.5 -17q80 0 120.5 49.5t40.5 145.5 q0 36 -8.5 70.5t-28 62.5t-50 45t-74.5 17q-80 0 -120 -49t-40 -146zM213 702q10 -46 34.5 -64t56.5 -18t57 19t34 62l60 -19q-9 -58 -51.5 -89t-101.5 -31q-27 0 -53.5 7t-47.5 21t-36 36t-20 52z" />
<glyph unicode="&#xf51c;" d="M48 350q0 174 61.5 268t189.5 94q70 0 118.5 -26t78.5 -73.5t43 -114t13 -148.5q0 -174 -61.5 -268t-191.5 -94q-69 0 -117 26t-78 73.5t-43 114t-13 148.5zM299 62q81 0 120.5 62.5t43.5 193.5h-327q2 -53 11 -99.5t28 -81t49.5 -55t74.5 -20.5zM299 638 q-78 0 -117.5 -60.5t-44.5 -185.5h326q-3 51 -12.5 95.5t-28.5 78t-49 53t-74 19.5zM209 870q4 -37 28 -57t64 -20t63.5 20t28.5 56l71 -17q-11 -54 -50.5 -85.5t-113.5 -31.5q-71 0 -116.5 27.5t-53.5 87.5z" />
<glyph unicode="&#xf51d;" d="M57 250q0 121 63 191.5t180 70.5q63 0 108.5 -20.5t75.5 -55.5t44.5 -83t14.5 -103q0 -60 -16 -108.5t-47 -82.5t-76.5 -52.5t-103.5 -18.5q-62 0 -108 20.5t-76 55.5t-44.5 83t-14.5 103zM300 445q-147 0 -159 -164h318q-3 31 -14 61t-30 52.5t-47.5 36.5t-67.5 14z M300 55q72 0 112 41t47 121h-318q3 -31 14 -60.5t30 -52t47.5 -36t67.5 -13.5zM213 702q10 -46 34.5 -64t56.5 -18t57 19t34 62l60 -19q-9 -58 -51.5 -89t-101.5 -31q-27 0 -53.5 7t-47.5 21t-36 36t-20 52z" />
<glyph unicode="&#xf51e;" d="M48 350q0 174 61.5 268t189.5 94q70 0 118.5 -26t78.5 -73.5t43 -114t13 -148.5q0 -174 -61.5 -268t-191.5 -94q-69 0 -117 26t-78 73.5t-43 114t-13 148.5zM299 62q81 0 120.5 62.5t43.5 193.5h-327q2 -53 11 -99.5t28 -81t49.5 -55t74.5 -20.5zM299 638 q-78 0 -117.5 -60.5t-44.5 -185.5h326q-3 51 -12.5 95.5t-28.5 78t-49 53t-74 19.5zM126 765q0 21 16.5 30t45.5 9q28 0 44.5 -8.5t16.5 -30.5q0 -20 -16.5 -29t-44.5 -9q-29 0 -45.5 8.5t-16.5 29.5zM348 765q0 21 16.5 30t45.5 9q28 0 44.5 -8.5t16.5 -30.5 q0 -20 -16.5 -29t-44.5 -9q-29 0 -45.5 8.5t-16.5 29.5zM210 915q5 -25 28.5 -36.5t62.5 -11.5q40 0 62.5 11t28.5 37l70 -13q-10 -42 -49.5 -65.5t-112.5 -23.5q-70 0 -115 21t-53 66z" />
<glyph unicode="&#xf51f;" d="M57 250q0 121 63 191.5t180 70.5q63 0 108.5 -20.5t75.5 -55.5t44.5 -83t14.5 -103q0 -60 -16 -108.5t-47 -82.5t-76.5 -52.5t-103.5 -18.5q-62 0 -108 20.5t-76 55.5t-44.5 83t-14.5 103zM300 445q-147 0 -159 -164h318q-3 31 -14 61t-30 52.5t-47.5 36.5t-67.5 14z M300 55q72 0 112 41t47 121h-318q3 -31 14 -60.5t30 -52t47.5 -36t67.5 -13.5zM130 626q0 26 15.5 42.5t41.5 16.5q25 0 41 -16.5t16 -42.5q0 -24 -16 -40.5t-41 -16.5q-26 0 -41.5 16.5t-15.5 40.5zM353 626q0 26 15.5 42.5t40.5 16.5q26 0 42.5 -16.5t16.5 -42.5 q0 -24 -16.5 -40.5t-42.5 -16.5q-25 0 -40.5 16.5t-15.5 40.5zM219 853q4 -37 28 -57t64 -20t63.5 20t28.5 56l71 -17q-11 -54 -50.5 -85.5t-113.5 -31.5q-71 0 -116.5 27.5t-53.5 87.5z" />
<glyph unicode="&#xf520;" d="M467 700h83v-700h-83v700zM50 700h83v-263q7 2 25 5.5t41 3.5q37 0 73 -10t65 -35t47 -67.5t18 -106.5q0 -62 -16 -106t-45 -73t-70 -42.5t-90 -13.5q-13 0 -30 0.5t-35 2t-35.5 4t-30.5 6.5v695zM187 66q29 0 53.5 8.5t42 27t27 47.5t9.5 71q0 45 -10.5 74.5t-28 47 t-41 24t-49.5 6.5q-17 0 -34 -2.5t-23 -6.5v-290q8 -4 23 -5.5t31 -1.5zM131 843h316v-62h-316v62z" />
<glyph unicode="&#xf521;" d="M127 70q37 -6 71 -6q63 0 88 24.5t25 69.5q0 40 -24.5 66t-85.5 26q-17 0 -37 -1t-37 -6v-173zM127 309q24 4 46 5.5t42 1.5q51 0 85.5 -11.5t55.5 -31.5t29.5 -47.5t8.5 -58.5q0 -91 -50.5 -132t-163.5 -41q-64 0 -133 6v500h80v-191zM473 500h80v-500h-80v500zM146 643 h296v-62h-296v62z" />
<glyph unicode="&#xf522;" d="M76 670l-1 3q31 18 76.5 28.5t97.5 10.5q64 0 117.5 -20t92 -63.5t60 -112.5t21.5 -166q0 -98 -24.5 -167t-67 -112.5t-99.5 -63t-121 -19.5q-25 0 -50.5 4.5t-48 11t-41 14t-28.5 13.5v148h74v-100q22 -8 49.5 -14.5t61.5 -6.5q39 0 77 14t68 45t48.5 81t18.5 123h-248 v74h247q-2 65 -19 111.5t-46 76.5t-67.5 44.5t-84.5 14.5q-26 0 -48 -3.5t-41 -8.5v-105h-74v145zM116 843h316v-62h-316v62z" />
<glyph unicode="&#xf523;" d="M101 475h2q35 18 80 27.5t107 9.5q57 0 103 -18.5t79 -52.5t51 -82.5t18 -108.5q0 -62 -20 -111t-56 -82.5t-84.5 -51t-105.5 -17.5q-26 0 -55 5t-56.5 13.5t-50.5 21t-38 27.5l33 62q29 -21 72 -40t97 -19q32 0 65 9.5t59.5 29.5t43 50.5t16.5 71.5h-237v66h236 q-3 34 -17 63.5t-38.5 51t-59 33.5t-77.5 12q-29 0 -54 -4.5t-45 -12.5v-75h-68v122zM143 643h296v-62h-296v62z" />
<glyph unicode="&#xf524;" d="M76 670l-1 3q31 18 76.5 28.5t97.5 10.5q64 0 117.5 -20t92 -63.5t60 -112.5t21.5 -166q0 -98 -24.5 -167t-67 -112.5t-99.5 -63t-121 -19.5q-25 0 -50.5 4.5t-48 11t-41 14t-28.5 13.5v148h74v-100q22 -8 49.5 -14.5t61.5 -6.5q39 0 77 14t68 45t48.5 81t18.5 123h-248 v74h247q-2 65 -19 111.5t-46 76.5t-67.5 44.5t-84.5 14.5q-26 0 -48 -3.5t-41 -8.5v-105h-74v145zM189 870q4 -37 28 -57t64 -20t63.5 20t28.5 56l71 -17q-11 -54 -50.5 -85.5t-113.5 -31.5q-71 0 -116.5 27.5t-53.5 87.5z" />
<glyph unicode="&#xf525;" d="M101 475h2q35 18 80 27.5t107 9.5q57 0 103 -18.5t79 -52.5t51 -82.5t18 -108.5q0 -62 -20 -111t-56 -82.5t-84.5 -51t-105.5 -17.5q-26 0 -55 5t-56.5 13.5t-50.5 21t-38 27.5l33 62q29 -21 72 -40t97 -19q32 0 65 9.5t59.5 29.5t43 50.5t16.5 71.5h-237v66h236 q-3 34 -17 63.5t-38.5 51t-59 33.5t-77.5 12q-29 0 -54 -4.5t-45 -12.5v-75h-68v122zM209 702q10 -46 34.5 -64t56.5 -18t57 19t34 62l60 -19q-9 -58 -51.5 -89t-101.5 -31q-27 0 -53.5 7t-47.5 21t-36 36t-20 52z" />
<glyph unicode="&#xf526;" d="M458 624q-17 7 -37.5 10.5t-49.5 3.5q-38 0 -76 -12.5t-69.5 -41t-53 -74.5t-27.5 -112h306v-74h-308q3 -66 22.5 -115t50.5 -81.5t73 -49t90 -16.5q26 0 48.5 4.5t41.5 12.5v100h74v-135l1 -2q-30 -23 -76 -38.5t-112 -15.5q-63 0 -118 21.5t-95.5 65.5t-64 112.5 t-23.5 162.5q0 98 25.5 166.5t68 112t99 63.5t118.5 20q34 0 59 -2.5t44 -7t33.5 -11.5t28.5 -16h1v-158h-74v107zM158 800q0 23 17.5 37.5t45.5 14.5q26 0 43.5 -14.5t17.5 -37.5t-17.5 -37t-43.5 -14q-28 0 -45.5 14t-17.5 37zM383 800q0 23 17 37.5t43 14.5 q29 0 46 -14.5t17 -37.5t-17 -37t-46 -14q-26 0 -43 14t-17 37z" />
<glyph unicode="&#xf527;" d="M439 423q-23 8 -49.5 13.5t-52.5 5.5q-98 0 -146 -46q-39 -38 -46 -110h227v-66h-228q4 -27 13 -49q14 -34 40 -58t62.5 -37t80.5 -13q47 0 91.5 16t74.5 42l35 -58q-14 -12 -35 -25t-48.5 -24.5t-61 -18.5t-72.5 -7q-65 0 -114.5 18.5t-82.5 53t-50 83t-17 107.5 q0 63 17.5 112t50.5 82t80 50.5t105 17.5q74 0 120.5 -13t78.5 -29l-1 -3v-139h-72v95zM141 626q0 26 15.5 42.5t41.5 16.5q25 0 41 -16.5t16 -42.5q0 -24 -16 -40.5t-41 -16.5q-26 0 -41.5 16.5t-15.5 40.5zM364 626q0 26 15.5 42.5t40.5 16.5q26 0 42.5 -16.5t16.5 -42.5 q0 -24 -16.5 -40.5t-42.5 -16.5q-25 0 -40.5 16.5t-15.5 40.5z" />
<glyph unicode="&#xf528;" d="M500 0h-83v289h-103l-174 -289h-98l194 302q-29 7 -55 22t-46 39t-31.5 56.5t-11.5 76.5q0 61 20.5 101.5t56 65t83 35t100.5 10.5q34 0 72.5 -3t75.5 -12v-693zM348 636q-33 0 -63 -6.5t-53.5 -22.5t-37.5 -43t-14 -68q0 -38 13.5 -65t36.5 -44.5t53.5 -25.5t65.5 -8h68 v277q-14 3 -29 4.5t-40 1.5zM174 843h316v-62h-316v62z" />
</font>
</defs>
</svg>
